<svg width="552" height="480" viewBox="0 0 552 480" fill="none" xmlns="http://www.w3.org/2000/svg">
<path d="M486.32 225.027C466.132 123.078 358.752 126.063 263.2 104.532C186.52 87.2532 123.749 52.3402 62.5168 104.532C18.4752 142.071 7.53534 184.571 2.18716 244.445C-5.28455 328.091 3.2598 416.596 77.7238 443.941C146.697 469.269 174.113 368.179 246.497 358.556C317.928 349.06 366.009 435.748 427.486 395.796C484.359 358.835 500.085 294.545 486.32 225.027Z" fill="#F0F6FD"/>
<mask id="mask0_9_350" style="mask-type:alpha" maskUnits="userSpaceOnUse" x="34" y="0" width="518" height="404">
<path d="M477 325C306.2 471.8 143.833 380.833 84 317L34.5 171L128 13L384 0C486.167 47.1667 647.8 178.2 477 325Z" fill="#C4C4C4"/>
</mask>
<g mask="url(#mask0_9_350)">
<path d="M439.346 224.153C442.893 143.36 375.073 74.7609 287.866 70.9323C200.659 67.1037 127.088 129.496 123.541 210.288C119.994 291.081 187.814 359.681 275.021 363.509C362.228 367.338 435.799 304.946 439.346 224.153Z" fill="#7D97F4"/>
<path opacity="0.2" d="M272.903 323.813C341.399 323.813 396.926 271.357 396.926 206.648C396.926 141.94 341.399 89.4834 272.903 89.4834C204.407 89.4834 148.88 141.94 148.88 206.648C148.88 271.357 204.407 323.813 272.903 323.813Z" fill="white"/>
<g opacity="0.68">
<path opacity="0.68" d="M321.836 217.921C321.8 243.75 320.025 269.627 315.477 295.091C314.321 301.45 312.984 307.786 311.403 314.049C309.81 320.311 307.962 326.525 305.712 332.605C303.438 338.661 300.799 344.632 297.212 350.092C295.412 352.804 293.357 355.394 290.828 357.534C289.563 358.592 288.177 359.54 286.657 360.221C285.137 360.902 283.471 361.34 281.78 361.364C280.09 361.413 278.4 361.085 276.855 360.465C275.299 359.844 273.876 358.945 272.587 357.923C269.997 355.856 267.905 353.29 266.069 350.603C262.421 345.179 259.746 339.22 257.447 333.177C255.161 327.109 253.301 320.907 251.696 314.644C250.09 308.382 248.741 302.058 247.573 295.699C245.251 282.979 243.67 270.138 242.612 257.26C241.554 244.382 241.019 231.468 240.958 218.541C240.922 212.084 241.104 205.627 241.335 199.17C241.578 192.713 241.931 186.268 242.405 179.823C243.366 166.945 244.789 154.091 246.904 141.335C247.975 134.963 249.215 128.615 250.698 122.328C252.194 116.042 253.933 109.803 256.098 103.699C257.18 100.647 258.372 97.6308 259.721 94.688C261.071 91.7452 262.579 88.8632 264.355 86.1393C266.13 83.4275 268.185 80.8374 270.727 78.7701C272.003 77.7487 273.402 76.8488 274.946 76.2408C276.478 75.6328 278.144 75.3166 279.786 75.3774C281.44 75.426 283.069 75.8395 284.577 76.4961C286.085 77.165 287.471 78.0648 288.736 79.0985C291.278 81.1657 293.381 83.6829 295.242 86.346C298.951 91.6844 301.748 97.57 304.167 103.565C306.575 109.572 308.557 115.738 310.284 121.964C312.011 128.19 313.47 134.501 314.735 140.837C319.733 166.203 321.764 192.08 321.836 217.921ZM319.927 217.921C319.952 205.055 319.465 192.178 318.395 179.361C317.337 166.531 315.744 153.751 313.361 141.104C312.169 134.781 310.783 128.494 309.141 122.28C307.487 116.066 305.578 109.913 303.255 103.93C300.921 97.9592 298.209 92.0857 294.609 86.7838C292.798 84.1572 290.755 81.6521 288.31 79.6214C287.082 78.6121 285.757 77.7243 284.322 77.0677C282.887 76.4232 281.343 75.9976 279.762 75.9611C278.193 75.9125 276.624 76.2286 275.165 76.8245C273.706 77.4203 272.368 78.2837 271.14 79.293C268.696 81.3238 266.714 83.8775 264.999 86.5649C263.284 89.2645 261.813 92.1222 260.512 95.0528C259.211 97.9835 258.068 100.987 257.022 104.027C254.942 110.107 253.289 116.333 251.866 122.596C250.443 128.871 249.288 135.194 248.291 141.554C246.321 154.274 245.032 167.091 244.229 179.932C243.414 192.773 243.123 205.651 243.147 218.529C243.11 231.395 243.548 244.272 244.497 257.102C245.457 269.931 246.941 282.736 249.142 295.407C250.249 301.742 251.538 308.041 253.094 314.28C254.651 320.518 256.45 326.695 258.663 332.715C260.889 338.722 263.503 344.632 267.018 349.946C268.793 352.585 270.812 355.09 273.256 357.072C274.472 358.057 275.81 358.908 277.245 359.492C278.679 360.075 280.212 360.404 281.756 360.355C283.3 360.319 284.808 359.905 286.219 359.261C287.629 358.604 288.931 357.716 290.122 356.695C292.518 354.64 294.488 352.11 296.227 349.447C299.693 344.085 302.258 338.163 304.459 332.143C306.648 326.112 308.424 319.922 309.968 313.684C311.5 307.445 312.777 301.134 313.871 294.799C316.06 282.128 317.52 269.323 318.492 256.494C319.477 243.664 319.927 230.787 319.927 217.921Z" fill="white"/>
<path opacity="0.68" d="M386.992 217.921C386.906 234.556 384.766 251.192 380.316 267.231C375.78 283.234 368.958 298.629 359.692 312.443C355.059 319.35 349.805 325.844 343.932 331.742C338.071 337.64 331.577 342.929 324.536 347.356C317.483 351.77 309.871 355.309 301.906 357.704C293.941 360.112 285.623 361.364 277.305 361.364C268.988 361.364 260.67 360.112 252.693 357.716C244.716 355.321 237.103 351.794 230.038 347.38C222.985 342.954 216.491 337.664 210.618 331.778C204.745 325.881 199.479 319.387 194.834 312.492C185.543 298.666 178.697 283.271 174.149 267.256C171.912 259.242 170.246 251.058 169.139 242.813C168.045 234.556 167.485 226.239 167.449 217.909C167.497 209.579 168.045 201.261 169.151 193.017C170.258 184.772 171.936 176.588 174.173 168.574C178.734 152.571 185.592 137.176 194.882 123.374C199.528 116.479 204.793 109.986 210.667 104.1C216.54 98.2145 223.034 92.937 230.087 88.5227C237.14 84.1207 244.752 80.6185 252.717 78.2351C260.67 75.8395 268.975 74.587 277.281 74.5748C285.586 74.587 293.892 75.8517 301.845 78.2594C309.798 80.655 317.41 84.1693 324.463 88.5714C331.504 92.9856 337.985 98.2753 343.859 104.161C349.732 110.047 354.986 116.54 359.619 123.435C368.897 137.237 375.731 152.62 380.279 168.623C384.742 184.65 386.882 201.286 386.992 217.921ZM384.791 217.921C384.766 201.48 382.723 185.015 378.382 169.146C374.016 153.301 367.45 138.003 358.403 124.238C353.879 117.367 348.747 110.886 343.008 105C337.256 99.1266 330.908 93.8003 323.952 89.3861C316.997 84.9841 309.482 81.4454 301.614 79.062C293.746 76.6664 285.526 75.4017 277.293 75.3774C269.061 75.4139 260.84 76.6786 252.972 79.0742C245.105 81.4697 237.602 85.0206 230.646 89.4226C223.702 93.849 217.367 99.1752 211.627 105.049C205.888 110.934 200.768 117.416 196.257 124.286C187.234 138.04 180.679 153.337 176.338 169.182C174.173 177.111 172.605 185.197 171.547 193.345C170.489 201.492 169.954 209.701 169.942 217.921C169.966 226.141 170.501 234.35 171.559 242.497C172.629 250.644 174.198 258.719 176.362 266.647C180.716 282.48 187.282 297.766 196.305 311.507C200.817 318.378 205.936 324.847 211.676 330.733C217.416 336.606 223.751 341.92 230.695 346.334C237.638 350.724 245.141 354.238 252.997 356.646C260.852 359.054 269.048 360.319 277.281 360.367C285.501 360.331 293.71 359.066 301.565 356.671C309.433 354.275 316.936 350.761 323.892 346.383C330.835 341.981 337.183 336.667 342.935 330.793C348.686 324.908 353.818 318.438 358.342 311.58C367.389 297.839 373.968 282.541 378.346 266.708C382.699 250.815 384.766 234.362 384.791 217.921Z" fill="white"/>
<path opacity="0.68" d="M149.293 161.157L182.236 160.889L215.178 160.743L281.063 160.621L346.948 160.755L379.89 160.925L412.832 161.217C412.881 161.217 412.93 161.266 412.93 161.315C412.93 161.363 412.881 161.412 412.832 161.412L379.89 161.704L346.948 161.874L281.063 162.008L215.178 161.886L182.236 161.74L149.293 161.473C149.208 161.473 149.147 161.412 149.147 161.327C149.147 161.217 149.208 161.157 149.293 161.157Z" fill="white"/>
<path opacity="0.68" d="M187.501 105.973C195.296 105.851 203.091 105.79 210.885 105.705L234.27 105.559C242.065 105.499 249.859 105.499 257.654 105.486L281.039 105.438L327.819 105.572L351.204 105.742C358.998 105.839 366.793 105.9 374.588 106.034C374.637 106.034 374.685 106.082 374.685 106.131C374.685 106.18 374.637 106.228 374.588 106.228C366.793 106.362 358.998 106.423 351.204 106.52L327.819 106.69L281.039 106.824L257.654 106.775C249.859 106.751 242.065 106.763 234.27 106.702L210.885 106.557C203.091 106.471 195.296 106.411 187.501 106.289C187.416 106.289 187.355 106.228 187.355 106.143C187.367 106.034 187.428 105.973 187.501 105.973Z" fill="white"/>
<path opacity="0.68" d="M137.838 216.328L173.638 216.06L209.438 215.914L281.051 215.793L352.663 215.927L388.463 216.097L424.263 216.389C424.312 216.389 424.36 216.437 424.36 216.486C424.36 216.535 424.312 216.583 424.263 216.583L388.463 216.875L352.663 217.045L281.051 217.179L209.438 217.058L173.638 216.912L137.838 216.644C137.753 216.644 137.692 216.583 137.692 216.498C137.692 216.389 137.765 216.328 137.838 216.328Z" fill="white"/>
<path opacity="0.68" d="M149.293 271.499L182.236 271.232L215.178 271.086L281.063 270.964L346.948 271.098L379.89 271.268L412.832 271.56C412.881 271.56 412.93 271.609 412.93 271.658C412.93 271.706 412.881 271.755 412.832 271.755L379.89 272.047L346.948 272.217L281.063 272.351L215.178 272.229L182.236 272.083L149.293 271.816C149.208 271.816 149.147 271.755 149.147 271.67C149.147 271.572 149.208 271.499 149.293 271.499Z" fill="white"/>
<path opacity="0.68" d="M379.33 327.328H192.219C191.94 327.328 191.708 327.097 191.708 326.817C191.708 326.537 191.94 326.306 192.219 326.306H379.33C379.61 326.306 379.841 326.537 379.841 326.817C379.829 327.109 379.61 327.328 379.33 327.328Z" fill="white"/>
</g>
<path d="M242.344 147.452C242.15 147.452 241.955 147.354 241.846 147.184C241.651 146.905 241.724 146.528 242.004 146.333C242.563 145.944 243.122 145.567 243.67 145.178C243.949 144.983 244.326 145.044 244.521 145.324C244.715 145.603 244.655 145.98 244.375 146.175C243.828 146.564 243.256 146.953 242.697 147.342C242.587 147.415 242.466 147.452 242.344 147.452Z" fill="white"/>
<path d="M247.135 144.01C246.953 144.01 246.771 143.925 246.649 143.767C246.442 143.5 246.503 143.11 246.771 142.916C247.792 142.138 248.801 141.347 249.786 140.545C250.042 140.326 250.431 140.374 250.65 140.63C250.869 140.897 250.82 141.274 250.565 141.493C249.58 142.296 248.546 143.098 247.512 143.889C247.391 143.974 247.257 144.01 247.135 144.01ZM253.106 139.146C252.936 139.146 252.766 139.073 252.644 138.939C252.425 138.684 252.449 138.295 252.705 138.076C253.678 137.225 254.626 136.362 255.526 135.498C255.769 135.267 256.158 135.279 256.389 135.522C256.62 135.766 256.608 136.155 256.365 136.386C255.441 137.261 254.48 138.137 253.507 139C253.386 139.098 253.24 139.146 253.106 139.146ZM258.676 133.82C258.517 133.82 258.372 133.759 258.25 133.65C258.007 133.419 257.995 133.03 258.238 132.786C259.125 131.862 260.001 130.914 260.828 129.977C261.047 129.722 261.436 129.698 261.691 129.917C261.947 130.135 261.971 130.525 261.752 130.78C260.913 131.741 260.025 132.701 259.125 133.638C258.992 133.759 258.834 133.82 258.676 133.82ZM263.759 128.032C263.625 128.032 263.491 127.983 263.382 127.898C263.114 127.691 263.078 127.302 263.284 127.035C264.075 126.037 264.853 125.004 265.583 123.982C265.777 123.703 266.166 123.642 266.434 123.836C266.714 124.031 266.774 124.408 266.58 124.688C265.838 125.733 265.048 126.767 264.233 127.788C264.123 127.959 263.941 128.032 263.759 128.032ZM268.246 121.769C268.136 121.769 268.015 121.733 267.917 121.672C267.638 121.489 267.553 121.112 267.735 120.833C268.416 119.763 269.085 118.656 269.693 117.549C269.863 117.258 270.228 117.148 270.52 117.318C270.812 117.489 270.921 117.853 270.751 118.145C270.118 119.264 269.45 120.383 268.756 121.477C268.635 121.672 268.44 121.769 268.246 121.769ZM272.003 115.044C271.918 115.044 271.821 115.02 271.736 114.984C271.432 114.838 271.31 114.473 271.456 114.169C272.015 113.026 272.538 111.858 273.025 110.691C273.158 110.375 273.511 110.229 273.827 110.363C274.143 110.496 274.289 110.849 274.156 111.165C273.657 112.357 273.122 113.549 272.563 114.716C272.453 114.923 272.234 115.044 272.003 115.044ZM274.958 107.931C274.897 107.931 274.824 107.918 274.764 107.894C274.447 107.785 274.277 107.432 274.387 107.116C274.8 105.924 275.177 104.696 275.53 103.48C275.615 103.152 275.955 102.969 276.284 103.054C276.612 103.139 276.794 103.48 276.709 103.808C276.357 105.049 275.968 106.301 275.554 107.517C275.445 107.773 275.214 107.931 274.958 107.931Z" fill="white"/>
<path d="M277.038 100.513C276.989 100.513 276.953 100.513 276.904 100.501C276.576 100.428 276.369 100.099 276.442 99.7711C276.588 99.1144 276.722 98.4456 276.831 97.7889C276.892 97.4606 277.208 97.2417 277.536 97.3025C277.865 97.3633 278.084 97.6795 278.023 98.0078C277.901 98.6766 277.767 99.3576 277.621 100.026C277.573 100.318 277.317 100.513 277.038 100.513Z" fill="white"/>
<path d="M282.169 102.519C282.011 102.519 281.865 102.458 281.744 102.349C281.257 101.875 280.783 101.388 280.297 100.902C280.066 100.659 280.066 100.27 280.309 100.039C280.552 99.8075 280.941 99.8075 281.172 100.051C281.646 100.537 282.121 101.011 282.607 101.486C282.85 101.717 282.85 102.106 282.619 102.349C282.485 102.458 282.327 102.519 282.169 102.519Z" fill="white"/>
<path d="M329.206 126.682C329.181 126.682 329.169 126.682 329.145 126.682C327.856 126.56 326.567 126.402 325.29 126.195C324.962 126.147 324.73 125.831 324.779 125.502C324.828 125.174 325.144 124.943 325.472 124.992C326.725 125.186 327.989 125.344 329.254 125.466C329.595 125.502 329.838 125.794 329.801 126.135C329.789 126.451 329.522 126.682 329.206 126.682ZM321.605 125.49C321.557 125.49 321.52 125.49 321.472 125.478C320.219 125.198 318.942 124.882 317.702 124.529C317.373 124.432 317.191 124.104 317.276 123.776C317.373 123.447 317.702 123.265 318.03 123.35C319.258 123.69 320.499 124.007 321.727 124.274C322.055 124.347 322.262 124.675 322.189 125.004C322.14 125.296 321.885 125.49 321.605 125.49ZM314.188 123.399C314.127 123.399 314.054 123.386 313.993 123.362C312.789 122.949 311.561 122.474 310.357 121.988C310.041 121.854 309.895 121.502 310.029 121.185C310.162 120.869 310.515 120.723 310.831 120.857C312.011 121.343 313.215 121.793 314.406 122.207C314.723 122.316 314.893 122.669 314.783 122.985C314.674 123.24 314.443 123.399 314.188 123.399ZM307.062 120.48C306.976 120.48 306.879 120.456 306.794 120.419C305.639 119.872 304.471 119.276 303.328 118.656C303.036 118.498 302.915 118.121 303.085 117.829C303.243 117.537 303.62 117.416 303.912 117.586C305.031 118.194 306.186 118.778 307.317 119.313C307.621 119.459 307.755 119.823 307.609 120.127C307.499 120.346 307.28 120.48 307.062 120.48ZM300.276 116.82C300.167 116.82 300.057 116.795 299.96 116.735C298.865 116.078 297.771 115.373 296.689 114.655C296.409 114.473 296.336 114.084 296.519 113.804C296.701 113.524 297.09 113.451 297.37 113.634C298.44 114.351 299.522 115.032 300.592 115.689C300.884 115.859 300.969 116.236 300.799 116.528C300.69 116.71 300.483 116.82 300.276 116.82ZM293.868 112.539C293.746 112.539 293.612 112.503 293.503 112.418C292.469 111.664 291.436 110.873 290.426 110.059C290.159 109.852 290.122 109.463 290.329 109.195C290.536 108.928 290.925 108.891 291.192 109.098C292.189 109.901 293.223 110.679 294.232 111.421C294.5 111.615 294.561 112.004 294.366 112.272C294.245 112.454 294.062 112.539 293.868 112.539ZM287.848 107.748C287.702 107.748 287.569 107.7 287.447 107.602C286.486 106.775 285.513 105.912 284.553 105.024C284.31 104.793 284.285 104.404 284.516 104.161C284.747 103.918 285.136 103.893 285.38 104.124C286.328 105 287.289 105.851 288.237 106.678C288.493 106.897 288.517 107.286 288.298 107.541C288.189 107.675 288.018 107.748 287.848 107.748Z" fill="white"/>
<path d="M335.091 126.974C334.41 126.974 333.717 126.962 333.036 126.937C332.695 126.925 332.44 126.645 332.452 126.305C332.464 125.964 332.732 125.709 333.084 125.721C333.753 125.746 334.434 125.758 335.103 125.758C335.444 125.758 335.711 126.037 335.711 126.366C335.699 126.706 335.431 126.974 335.091 126.974Z" fill="white"/>
<path d="M335.067 126.864C334.836 126.864 334.617 126.73 334.52 126.512C334.228 125.904 333.948 125.283 333.656 124.663C333.51 124.359 333.656 123.994 333.96 123.849C334.264 123.703 334.629 123.836 334.775 124.153C335.055 124.773 335.347 125.381 335.626 125.989C335.772 126.293 335.638 126.658 335.334 126.803C335.237 126.84 335.152 126.864 335.067 126.864Z" fill="white"/>
<path d="M389.788 185.623C389.715 185.623 389.63 185.611 389.557 185.574C388.293 185.052 387.016 184.492 385.775 183.896C385.471 183.75 385.338 183.386 385.484 183.082C385.629 182.778 385.994 182.644 386.298 182.79C387.526 183.373 388.779 183.921 390.031 184.444C390.348 184.577 390.494 184.93 390.36 185.246C390.25 185.477 390.019 185.623 389.788 185.623ZM382.358 182.109C382.261 182.109 382.164 182.084 382.066 182.036C380.863 181.391 379.659 180.698 378.467 179.981C378.175 179.81 378.09 179.433 378.26 179.142C378.431 178.85 378.808 178.765 379.099 178.935C380.267 179.64 381.458 180.321 382.638 180.966C382.93 181.124 383.051 181.501 382.881 181.793C382.784 181.987 382.577 182.109 382.358 182.109ZM375.33 177.853C375.208 177.853 375.099 177.816 374.989 177.743C373.858 176.977 372.727 176.174 371.621 175.348C371.353 175.141 371.292 174.764 371.499 174.496C371.706 174.229 372.083 174.168 372.35 174.375C373.445 175.189 374.564 175.98 375.67 176.746C375.95 176.941 376.023 177.318 375.828 177.597C375.719 177.755 375.524 177.853 375.33 177.853ZM368.751 172.928C368.617 172.928 368.471 172.879 368.362 172.794C367.304 171.931 366.258 171.019 365.224 170.094C364.969 169.863 364.957 169.486 365.176 169.231C365.407 168.976 365.784 168.963 366.039 169.182C367.048 170.094 368.094 170.994 369.128 171.845C369.383 172.064 369.42 172.441 369.213 172.709C369.104 172.855 368.921 172.928 368.751 172.928ZM362.646 167.431C362.488 167.431 362.342 167.37 362.221 167.261C361.248 166.312 360.275 165.315 359.327 164.306C359.096 164.063 359.108 163.674 359.351 163.443C359.594 163.212 359.983 163.224 360.214 163.467C361.151 164.464 362.111 165.449 363.072 166.385C363.315 166.616 363.315 167.006 363.084 167.249C362.963 167.37 362.805 167.431 362.646 167.431ZM357.004 161.46C356.834 161.46 356.664 161.388 356.542 161.254C355.642 160.232 354.754 159.162 353.879 158.092C353.672 157.825 353.709 157.448 353.964 157.229C354.219 157.022 354.608 157.058 354.827 157.314C355.691 158.372 356.578 159.43 357.466 160.439C357.685 160.694 357.661 161.083 357.405 161.302C357.284 161.412 357.15 161.46 357.004 161.46ZM351.824 155.076C351.641 155.076 351.459 154.991 351.337 154.833C350.523 153.751 349.696 152.632 348.893 151.501C348.699 151.221 348.759 150.844 349.039 150.65C349.319 150.455 349.696 150.516 349.89 150.796C350.681 151.915 351.495 153.021 352.31 154.091C352.517 154.359 352.456 154.748 352.189 154.943C352.079 155.04 351.945 155.076 351.824 155.076ZM347.069 148.376C346.875 148.376 346.68 148.279 346.558 148.108C345.804 146.977 345.063 145.81 344.321 144.643C344.138 144.351 344.224 143.986 344.515 143.804C344.795 143.621 345.172 143.706 345.354 143.998C346.084 145.166 346.826 146.321 347.568 147.44C347.75 147.719 347.677 148.096 347.397 148.291C347.3 148.339 347.179 148.376 347.069 148.376ZM342.716 141.408C342.509 141.408 342.302 141.299 342.193 141.104C341.512 139.937 340.819 138.733 340.15 137.517C339.992 137.225 340.089 136.848 340.393 136.69C340.685 136.532 341.062 136.629 341.22 136.933C341.889 138.137 342.57 139.329 343.251 140.484C343.421 140.776 343.324 141.153 343.032 141.323C342.922 141.384 342.813 141.408 342.716 141.408ZM338.727 134.221C338.508 134.221 338.289 134.1 338.192 133.893C337.56 132.689 336.927 131.449 336.319 130.221C336.173 129.917 336.295 129.552 336.599 129.406C336.903 129.26 337.268 129.381 337.414 129.685C338.022 130.914 338.642 132.13 339.274 133.334C339.432 133.638 339.311 134.002 339.019 134.16C338.909 134.197 338.812 134.221 338.727 134.221Z" fill="white"/>
<path d="M395.577 187.739C395.516 187.739 395.455 187.727 395.394 187.715C394.738 187.508 394.093 187.289 393.449 187.058C393.132 186.949 392.962 186.596 393.072 186.28C393.181 185.964 393.534 185.793 393.85 185.903C394.482 186.122 395.127 186.34 395.759 186.547C396.075 186.657 396.258 186.997 396.148 187.313C396.075 187.581 395.832 187.739 395.577 187.739Z" fill="white"/>
<path d="M274.192 66.8408C267.917 66.8408 262.822 71.936 262.822 78.2107C262.822 82.2845 267.601 91.7452 270.958 97.8983C272.356 100.464 276.028 100.464 277.427 97.8983C280.783 91.7452 285.562 82.2723 285.562 78.2107C285.562 71.936 280.479 66.8408 274.192 66.8408ZM274.192 84.3152C270.824 84.3152 268.088 81.5792 268.088 78.2107C268.088 74.8423 270.824 72.1062 274.192 72.1062C277.561 72.1062 280.297 74.8423 280.297 78.2107C280.297 81.5913 277.573 84.3152 274.192 84.3152Z" fill="white"/>
<path d="M337.025 88.2188C329.12 88.2188 322.712 94.6273 322.712 102.531C322.712 107.651 328.719 119.568 332.951 127.326C334.714 130.549 339.335 130.549 341.098 127.326C345.33 119.568 351.337 107.651 351.337 102.531C351.337 94.6273 344.929 88.2188 337.025 88.2188ZM337.025 110.229C332.781 110.229 329.339 106.788 329.339 102.544C329.339 98.2997 332.781 94.8583 337.025 94.8583C341.269 94.8583 344.71 98.2997 344.71 102.544C344.71 106.788 341.269 110.229 337.025 110.229Z" fill="white"/>
<path d="M242.721 115.713C236.215 115.713 230.938 120.991 230.938 127.497C230.938 131.716 235.887 141.53 239.377 147.914C240.824 150.565 244.63 150.565 246.089 147.914C249.579 141.53 254.529 131.716 254.529 127.497C254.517 120.991 249.227 115.713 242.721 115.713ZM242.721 133.832C239.231 133.832 236.386 130.999 236.386 127.497C236.386 124.007 239.219 121.161 242.721 121.161C246.211 121.161 249.057 123.995 249.057 127.497C249.057 130.999 246.223 133.832 242.721 133.832Z" fill="white"/>
<path d="M400.453 162.908C393.947 162.908 388.669 168.185 388.669 174.691C388.669 178.911 393.619 188.724 397.109 195.108C398.556 197.759 402.362 197.759 403.821 195.108C407.311 188.724 412.261 178.911 412.261 174.691C412.249 168.185 406.971 162.908 400.453 162.908ZM400.453 181.027C396.963 181.027 394.117 178.193 394.117 174.691C394.117 171.201 396.951 168.355 400.453 168.355C403.955 168.355 406.788 171.189 406.788 174.691C406.788 178.193 403.955 181.027 400.453 181.027Z" fill="white"/>
</g>
<path d="M193.111 285.583C193.111 285.583 186.43 281.202 185.498 282.214C185.164 282.57 184.394 283.801 183.681 285.135C183.175 286.078 183.336 287.24 184.072 287.999L185.797 289.781C187.442 291.483 190.213 291.357 191.662 289.494C192.41 288.551 192.985 287.286 193.111 285.583Z" fill="url(#paint0_linear_9_350)"/>
<path d="M199.92 277.257C199.92 277.257 197.631 271.219 194.952 271.771C192.272 272.323 189.339 274.382 189.339 274.382L185.038 280.201C185.038 280.201 197.114 284.962 201.369 282.237C201.369 282.237 213.71 284.364 229.293 281.811C227.039 277.05 225.693 272.277 224.9 268.585C217.01 273.048 208.511 276.383 199.92 277.257Z" fill="url(#paint1_linear_9_350)"/>
<path d="M265.291 233.473C265.291 233.473 247.625 255.727 224.911 268.585C225.705 272.289 227.051 277.05 229.305 281.811C241.093 279.879 254.733 275.267 266.291 265.009L265.291 233.473Z" fill="url(#paint2_linear_9_350)"/>
<path d="M287.315 332.093C283.864 315.681 280.403 306.181 268.833 275.072C265.187 265.285 261.886 255.382 263.485 245.055L265.279 233.462C265.279 233.462 287.763 225.86 312.685 233.14C312.685 233.14 346.682 247.907 323.588 320.857C313.18 332.507 301 335.831 287.315 332.093Z" fill="url(#paint3_linear_9_350)"/>
<path d="M269.109 218.683L274.94 232.691C275.308 233.577 276.101 234.209 277.044 234.371C280.402 234.946 288.533 235.843 293.87 232.335C294.502 231.921 294.663 231.047 294.238 230.426L283.473 214.969L269.109 218.683Z" fill="url(#paint4_linear_9_350)"/>
<path d="M275.135 197.246C274.894 197.476 264.808 217.292 264.808 217.292L276.239 222.812L288.591 205.458C288.591 205.458 279.241 193.393 275.135 197.246Z" fill="url(#paint5_linear_9_350)"/>
<path d="M283.393 207.539L277.689 217.05C277.597 217.2 277.504 217.326 277.378 217.441C276.699 218.074 274.376 219.914 272.582 217.407C271.053 215.279 269.615 213.336 268.074 212.531C267.177 212.059 266.073 212.439 265.613 213.336C264.67 215.199 262.852 218.994 261.714 222.594C261.426 223.491 261.898 224.468 262.772 224.825C265.084 225.768 269.661 227.459 273.721 228.022C274.388 228.114 275.043 227.838 275.446 227.286C277.194 224.894 282.116 218.2 283.795 216.533C285.36 214.98 288.235 215.567 289.534 215.935C290.029 216.073 290.546 216.004 290.995 215.739C292.317 214.946 294.606 212.968 292.513 209.621C291.995 208.793 292.26 207.677 293.077 207.137C294.549 206.171 296.147 204.353 294.618 201.409C293.077 198.431 290.328 198.166 288.453 198.396C287.625 198.5 286.786 198.063 286.464 197.292C286.326 196.947 286.038 196.659 285.521 196.556C284.543 196.36 283.899 195.463 284.083 194.474C284.416 192.795 284.163 190.599 281.472 189.126C276.538 186.412 272.214 190.829 271.122 194.566C270.017 198.293 275.538 200.938 279.011 201.375C281.564 201.697 282.956 204.48 283.519 205.929C283.738 206.47 283.692 207.056 283.393 207.539Z" fill="url(#paint6_linear_9_350)"/>
<path d="M281.403 219.373C281.403 219.373 283.853 213.6 286.67 213.83C289.477 214.06 291.685 216.866 288.212 220.006C283.864 223.928 281.403 219.373 281.403 219.373Z" fill="url(#paint7_linear_9_350)"/>
<path d="M285.106 476.715C290.535 477.187 299.954 477.946 307.383 478.279C311.846 478.475 314.422 478.038 315.905 477.451C315.905 477.624 315.894 477.773 315.894 477.923C315.859 478.705 315.227 479.326 314.433 479.372C300.391 480.154 289.235 479.648 285.256 479.406C284.439 479.36 283.945 478.463 284.359 477.762C284.577 477.405 284.83 477.06 285.106 476.715Z" fill="url(#paint8_linear_9_350)"/>
<path d="M307.383 478.279C299.954 477.957 290.535 477.186 285.106 476.715C290.443 470.171 307.383 465.755 307.383 465.755H312.168C315.457 470.504 315.94 475.013 315.894 477.439C314.422 478.038 311.857 478.475 307.383 478.279Z" fill="url(#paint9_linear_9_350)"/>
<path d="M312.973 457.946L312.524 466.813C312.478 467.767 311.754 468.584 310.799 468.722C309.845 468.86 308.568 468.871 307.199 468.423C306.36 468.147 305.739 467.445 305.589 466.583L304.037 457.957H312.973V457.946Z" fill="#A22B25"/>
<path d="M375.135 478.21C377.492 477.877 378.55 476.658 378.999 475.347C378.999 475.358 379.011 475.37 379.011 475.381C379.356 476.761 378.55 478.187 376.952 478.866C375.008 479.682 372.892 479.832 371.248 479.763C369.476 479.694 367.855 478.958 366.969 477.785L366.958 477.762C368.717 478.659 371.213 478.762 375.135 478.21Z" fill="url(#paint10_linear_9_350)"/>
<path d="M364.037 457.888H367.981C373.996 457.762 377.768 470.447 378.999 475.358C378.551 476.669 377.492 477.888 375.135 478.222C371.213 478.774 368.717 478.67 366.946 477.785C363.703 473.506 362.093 467.25 361.311 463.604C360.437 459.441 364.037 457.888 364.037 457.888Z" fill="url(#paint11_linear_9_350)"/>
<path d="M367.475 449.665L369.672 458.383C369.936 459.452 369.43 460.556 368.441 461.062C367.21 461.695 365.485 462.351 363.898 462.167C363.151 462.075 362.53 461.546 362.288 460.844L359.068 451.678L367.475 449.665Z" fill="#A22B25"/>
<path d="M370.086 452.184C367.36 454.599 358.493 454.921 358.493 454.921C326.544 378.245 313.226 357.141 313.226 357.141C317.838 386.077 314.215 460.361 314.215 460.361C308.947 462.684 302.15 460.361 302.15 460.361C301.725 412.989 295.054 362.075 286.452 329.505C308.039 329.022 319.781 324.318 323.53 321.351C341.529 350.356 370.086 452.184 370.086 452.184Z" fill="url(#paint12_linear_9_350)"/>
<path d="M281.012 350.931L284.98 375.646C285.67 379.959 289.661 382.949 294.019 382.409L353.478 375.152C356.388 374.795 358.596 372.368 358.654 369.447C358.78 363.064 358.527 351.702 355.848 341.351L281.012 350.931Z" fill="url(#paint13_linear_9_350)"/>
<path d="M296.124 330.69L296.055 328.758C296.193 328.275 296.572 327.895 297.055 327.757C298.873 327.228 303.392 326.124 305.819 327.493L306.429 329.678L296.124 330.69Z" fill="url(#paint14_linear_9_350)"/>
<path d="M301.668 328.102C301.254 328.263 300.828 328.32 300.391 328.263C299.862 328.205 299.437 327.791 299.368 327.251L298.597 321.259L301.645 320.868L302.415 326.86C302.484 327.4 302.174 327.918 301.668 328.102Z" fill="url(#paint15_linear_9_350)"/>
<path d="M325.658 326.906L325.589 324.974C325.727 324.491 326.107 324.111 326.59 323.973C328.407 323.444 332.927 322.34 335.353 323.709L335.963 325.894L325.658 326.906Z" fill="url(#paint16_linear_9_350)"/>
<path d="M331.202 324.33C330.788 324.491 330.362 324.548 329.925 324.491C329.396 324.433 328.971 324.019 328.902 323.479L328.051 316.854L331.098 316.463L331.949 323.088C332.018 323.617 331.708 324.134 331.202 324.33Z" fill="url(#paint17_linear_9_350)"/>
<path d="M298.47 322.777L331.121 317.498C331.868 317.383 332.432 316.762 332.466 316.003C332.512 314.957 332.478 313.392 332.041 311.828C331.535 310.046 329.81 308.907 327.97 309.091C321.828 309.724 306.256 311.725 298.114 316.222C297.251 316.693 296.676 317.556 296.572 318.533C296.469 319.465 296.48 320.684 296.917 321.868C297.147 322.512 297.803 322.881 298.47 322.777Z" fill="url(#paint18_linear_9_350)"/>
<path d="M297.665 321.362C297.504 321.362 297.355 321.247 297.32 321.086C297.309 321.029 297.021 319.775 297.194 318.51C297.332 317.51 297.999 316.624 298.942 316.21C300.713 315.44 304.106 314.071 306.969 313.622C307.165 313.588 307.349 313.726 307.383 313.921C307.418 314.117 307.28 314.301 307.084 314.335C304.301 314.773 300.966 316.107 299.229 316.877C298.516 317.188 298.01 317.855 297.907 318.614C297.746 319.752 298.022 320.914 298.022 320.925C298.068 321.121 297.941 321.305 297.757 321.351C297.723 321.351 297.7 321.362 297.665 321.362Z" fill="url(#paint19_linear_9_350)"/>
<path d="M280.817 331.886C291.397 330.391 337.159 324.054 350.684 323.95C351.845 323.939 352.892 324.663 353.283 325.756C354.525 329.206 357.17 337.268 358.021 345.48C358.136 346.595 357.446 347.642 356.365 347.987L326.716 357.624L315.917 359.005L282.714 356.716C281.541 356.635 280.575 355.773 280.368 354.623C279.632 350.528 278.068 340.902 278.378 334.542C278.447 333.197 279.459 332.081 280.817 331.886Z" fill="url(#paint20_linear_9_350)"/>
<path d="M326.279 362.294L316.825 363.501C315.583 363.662 314.422 362.869 314.123 361.661L311.869 352.702C311.512 351.276 312.478 349.85 313.95 349.666L325.313 348.217C326.751 348.033 328.039 349.114 328.085 350.551L328.441 359.752C328.476 361.029 327.544 362.133 326.279 362.294Z" fill="#AEBDF2"/>
<path d="M324.899 360.776L317.7 361.696C316.757 361.811 315.871 361.213 315.641 360.293L313.927 353.473C313.651 352.392 314.399 351.311 315.515 351.161L324.163 350.057C325.256 349.919 326.233 350.735 326.279 351.84L326.544 358.844C326.578 359.81 325.865 360.649 324.899 360.776Z" fill="#6E89E5"/>
<path d="M319.275 288.252C321.506 297.464 321.564 306.492 321.23 309.77C321.104 311.012 320.103 311.978 318.861 312.058C317.447 312.162 315.537 312.288 313.812 312.38C311.926 312.484 309.833 311.299 308.43 310.299C307.717 309.793 306.797 310.586 307.188 311.368C307.878 312.714 309.074 313.772 310.259 314.669C310.972 315.21 313.341 316.176 313.18 317.245C313.122 317.579 312.927 317.878 312.708 318.131C311.397 319.706 309.396 320.557 307.429 321.155C307.188 321.236 306.923 321.316 306.751 321.5C306.705 322.777 310.615 324.18 311.627 324.525C313.145 325.031 314.744 325.238 316.331 325.077C320.264 324.663 323.899 321.949 326.026 318.671C331.696 309.919 334.617 299.338 335.698 291.253C330.408 285.986 322.461 287.32 319.275 288.252Z" fill="url(#paint21_linear_9_350)"/>
<path d="M335.687 292.093C339.896 260.339 315.423 235.912 315.423 235.912L300.851 252.887C311.903 266.665 317.159 279.293 319.563 289.206C322.749 288.286 330.408 286.814 335.687 292.093Z" fill="url(#paint22_linear_9_350)"/>
<path d="M319.218 289.057C318.815 289.057 318.447 288.781 318.344 288.367C315.388 276.141 309.143 264.043 299.804 252.392C299.494 252.001 299.551 251.438 299.942 251.127C300.333 250.817 300.897 250.874 301.208 251.265C310.719 263.122 317.067 275.451 320.092 287.941C320.207 288.424 319.908 288.907 319.425 289.034C319.356 289.045 319.287 289.057 319.218 289.057Z" fill="url(#paint23_linear_9_350)"/>
<path d="M122.014 477.325C122.014 477.175 122.002 477.014 121.968 476.853C119.621 467.572 108.006 461.787 108.006 461.787L103.405 462.144C100.76 470.332 101.094 475.346 101.519 477.578C101.531 477.635 101.554 477.704 101.565 477.762C105.361 478.107 113.181 478.325 122.014 477.325Z" fill="url(#paint24_linear_9_350)"/>
<path d="M101.565 477.762C101.772 478.509 102.324 479.084 103.026 479.234C108.431 480.372 117.022 479.452 120.622 478.981C121.415 478.877 122.002 478.141 122.013 477.313C113.181 478.325 105.36 478.107 101.565 477.762Z" fill="url(#paint25_linear_9_350)"/>
<path d="M101.542 455.278L103.497 464.674C103.635 465.364 104.164 465.881 104.808 465.939C105.591 466.008 106.706 466.054 107.833 465.893C108.834 465.743 109.535 464.72 109.363 463.627L108.006 455.289H101.542V455.278Z" fill="url(#paint26_linear_9_350)"/>
<path d="M141.967 477.647C136.884 477.509 134.25 476.911 132.893 476.347C132.893 476.853 132.893 477.371 132.905 477.9C132.928 478.475 133.342 478.923 133.859 478.923L161.783 478.739C162.68 478.739 163.198 477.704 162.807 476.888C159.15 477.187 149.822 477.865 141.967 477.647Z" fill="url(#paint27_linear_9_350)"/>
<path d="M162.818 476.888C162.784 476.819 162.761 476.75 162.703 476.681C160.242 473.23 153.951 466.376 141.542 463.397L135.585 463.213C135.585 463.213 132.928 467.825 132.882 476.359C134.239 476.911 136.873 477.509 141.956 477.658C149.823 477.865 159.15 477.187 162.818 476.888Z" fill="url(#paint28_linear_9_350)"/>
<path d="M134.216 454.449C134.308 454.887 135.55 461.569 136.033 464.156C136.148 464.777 136.631 465.226 137.195 465.26C138.218 465.318 139.863 465.329 141.277 464.938C142.036 464.731 142.554 463.949 142.496 463.087L141.829 452.517L134.216 454.449Z" fill="url(#paint29_linear_9_350)"/>
<path d="M129.708 331.081C129.708 331.081 137.896 387.377 143.808 454.358C143.923 455.6 142.922 456.692 141.703 456.945C139.897 457.325 137.241 457.773 135.044 457.716C133.871 457.681 132.893 456.807 132.698 455.657C130.685 443.846 116.309 380.465 112.537 366.515C112.537 366.515 108.201 425.778 109.593 456.52C109.627 457.279 109.064 457.946 108.305 458.038C107.155 458.176 105.303 458.268 102.957 458.026C102.071 457.934 101.347 457.256 101.22 456.37C99.7826 446.376 91.525 386.871 91.8816 344.019C91.9046 341.604 94.7223 321.742 94.7223 321.742L129.708 331.081Z" fill="url(#paint30_linear_9_350)"/>
<path d="M93.4802 334.324C92.6407 334.025 92.0541 333.266 91.9621 332.369C90.8695 321.799 85.6022 256.268 118.897 229.31C118.897 229.31 120.806 224.319 136.505 236.59C152.203 248.873 143.796 261.742 140.035 279.5C135.493 300.983 127.511 318.545 131.042 331.771C131.283 332.679 130.8 333.645 129.915 333.967C117.724 338.476 105.579 338.625 93.4802 334.324Z" fill="url(#paint31_linear_9_350)"/>
<path d="M131.881 209.678C131.87 210.61 118.575 229.494 118.575 229.494C118.575 229.494 120.967 234.198 132.353 238.016L142.186 217.798L131.881 209.678Z" fill="url(#paint32_linear_9_350)"/>
<path d="M142.359 198.856C142.359 198.856 147.086 209.724 147.408 215.429C147.73 221.133 148.96 224.836 142.359 225.986C135.757 227.137 130.202 223.847 127.201 218.166C127.201 218.166 122.485 209.414 123.543 205.826C124.59 202.237 142.359 198.856 142.359 198.856Z" fill="url(#paint33_linear_9_350)"/>
<path d="M129.443 214.083L129.823 213.922C130.306 213.715 130.501 213.14 130.26 212.68C129.328 210.886 127.511 206.769 129.857 205.803C132.871 204.56 144.831 202.122 147.419 197.878C149.903 193.796 147.707 188.54 144.394 187.045C144.176 186.941 143.911 187.022 143.796 187.24L143.52 187.758C143.336 188.114 142.807 188.057 142.692 187.677C142.589 187.309 142.094 187.229 141.887 187.562C141.094 188.827 138.954 190.886 133.227 191.944C125.084 193.451 119.714 196.74 119.576 202.364C119.564 202.72 119.185 202.916 118.886 202.732C118.288 202.364 117.321 202.191 116.033 203.272C113.802 205.147 114.711 210.023 119.61 214.037C119.84 214.233 119.84 214.589 119.587 214.75C118.702 215.325 117.379 216.705 120.806 218.534C124.36 220.432 127.005 220.271 128.029 220.109C128.282 220.063 128.443 219.822 128.385 219.569L127.293 214.624C127.235 214.348 127.442 214.083 127.73 214.083H129.443Z" fill="url(#paint34_linear_9_350)"/>
<path d="M129.65 215.118C129.65 215.118 127.845 208.172 124.728 210.127C121.611 212.07 126.338 217.901 128.845 218.166L129.65 215.118Z" fill="url(#paint35_linear_9_350)"/>
<path d="M141.553 242.294L142.473 266.918C145.072 267.815 147.557 268.516 149.914 269.034C151.386 264.284 154.641 258.442 157.309 254.106C147.522 250.644 141.553 242.294 141.553 242.294Z" fill="url(#paint36_linear_9_350)"/>
<path d="M190.386 241.88C176.964 256.371 166.107 257.222 157.298 254.106C154.63 258.442 151.386 264.284 149.903 269.034C185.739 276.935 194.181 243.997 194.181 243.997L190.386 241.88Z" fill="url(#paint37_linear_9_350)"/>
<path d="M193.111 240.339C193.111 240.339 194.652 238.683 197.516 239.201C200.38 239.718 202.922 240.719 204.704 239.201C206.487 237.683 207.108 239.718 207.108 239.718L201.771 243.778L193.111 240.339Z" fill="url(#paint38_linear_9_350)"/>
<path d="M189.914 243.18C189.914 243.18 190.972 238.752 194.169 239.362C197.367 239.971 204.612 243.905 206.475 243.18C208.338 242.456 210.73 240.719 211.961 241.328L209.799 244.008C209.799 244.008 215.342 240.811 216.297 242.778L207.062 247.976C207.073 247.976 193.56 246.619 189.914 243.18Z" fill="url(#paint39_linear_9_350)"/>
<path d="M126.66 274.52C126.66 274.52 151.893 295.647 179.126 286.435C180.817 285.86 182.669 285.986 184.244 286.826L192.076 290.966C195.366 292.702 199.437 291.564 201.346 288.367C202.439 286.55 203.359 284.468 203.543 282.478L188.224 276.279L189.351 274.405C189.351 274.405 181.864 273.772 179.909 279.132C179.909 279.132 165.659 285.054 141.622 258.626C141.622 258.603 130.708 267.884 126.66 274.52Z" fill="url(#paint40_linear_9_350)"/>
<path d="M125.303 274.301C125.222 274.301 125.13 274.278 125.061 274.232C114.434 267.056 109.443 255.474 109.397 255.359C109.305 255.141 109.409 254.888 109.627 254.796C109.846 254.704 110.099 254.807 110.191 255.026C110.237 255.141 115.148 266.492 125.544 273.531C125.74 273.669 125.797 273.933 125.659 274.129C125.567 274.244 125.441 274.301 125.303 274.301Z" fill="url(#paint41_linear_9_350)"/>
<path d="M141.117 258.246C140.979 258.246 140.841 258.177 140.749 258.051C140.714 258.005 137.471 252.944 131.295 241.881C129.397 238.476 126.902 236.326 123.865 235.475C118.851 234.071 114.021 236.763 113.975 236.786C113.768 236.901 113.503 236.832 113.388 236.625C113.273 236.418 113.342 236.153 113.549 236.038C113.756 235.923 118.725 233.14 124.084 234.647C127.339 235.555 130.018 237.844 132.042 241.466C138.207 252.507 141.439 257.545 141.473 257.591C141.6 257.786 141.542 258.062 141.347 258.189C141.278 258.223 141.197 258.246 141.117 258.246Z" fill="url(#paint42_linear_9_350)"/>
<defs>
<linearGradient id="paint0_linear_9_350" x1="193.077" y1="285.41" x2="183.541" y2="287.282" gradientUnits="userSpaceOnUse">
<stop stop-color="#FEBBBA"/>
<stop offset="1" stop-color="#FF928E"/>
</linearGradient>
<linearGradient id="paint1_linear_9_350" x1="234.866" y1="273.476" x2="195.587" y2="279.217" gradientUnits="userSpaceOnUse">
<stop stop-color="#FEBBBA"/>
<stop offset="1" stop-color="#FF928E"/>
</linearGradient>
<linearGradient id="paint2_linear_9_350" x1="295.841" y1="159.826" x2="236.717" y2="285.682" gradientUnits="userSpaceOnUse">
<stop stop-color="#09005D"/>
<stop offset="1" stop-color="#1A0F91"/>
</linearGradient>
<linearGradient id="paint3_linear_9_350" x1="339.85" y1="180.5" x2="280.727" y2="306.357" gradientUnits="userSpaceOnUse">
<stop stop-color="#09005D"/>
<stop offset="1" stop-color="#1A0F91"/>
</linearGradient>
<linearGradient id="paint4_linear_9_350" x1="284.048" y1="231.574" x2="276.952" y2="210.287" gradientUnits="userSpaceOnUse">
<stop stop-color="#B73E38"/>
<stop offset="1" stop-color="#A22B25"/>
</linearGradient>
<linearGradient id="paint5_linear_9_350" x1="267.474" y1="205.451" x2="292.977" y2="216.539" gradientUnits="userSpaceOnUse">
<stop stop-color="#C7413B"/>
<stop offset="1" stop-color="#9A211B"/>
</linearGradient>
<linearGradient id="paint6_linear_9_350" x1="285.914" y1="220.732" x2="265.034" y2="198.551" gradientUnits="userSpaceOnUse">
<stop stop-color="#09005D"/>
<stop offset="1" stop-color="#1A0F91"/>
</linearGradient>
<linearGradient id="paint7_linear_9_350" x1="265.884" y1="209.106" x2="291.387" y2="220.195" gradientUnits="userSpaceOnUse">
<stop stop-color="#A22B25"/>
<stop offset="1" stop-color="#9A211B"/>
</linearGradient>
<linearGradient id="paint8_linear_9_350" x1="300.616" y1="424.333" x2="300.03" y2="480.337" gradientUnits="userSpaceOnUse">
<stop stop-color="#09005D"/>
<stop offset="1" stop-color="#1A0F91"/>
</linearGradient>
<linearGradient id="paint9_linear_9_350" x1="392.405" y1="448.599" x2="277.641" y2="481.309" gradientUnits="userSpaceOnUse">
<stop stop-color="#4F52FF"/>
<stop offset="1" stop-color="#4042E2"/>
</linearGradient>
<linearGradient id="paint10_linear_9_350" x1="373.558" y1="425.095" x2="372.973" y2="481.099" gradientUnits="userSpaceOnUse">
<stop stop-color="#09005D"/>
<stop offset="1" stop-color="#1A0F91"/>
</linearGradient>
<linearGradient id="paint11_linear_9_350" x1="328.426" y1="441.951" x2="399.945" y2="488.522" gradientUnits="userSpaceOnUse">
<stop stop-color="#4F52FF"/>
<stop offset="1" stop-color="#4042E2"/>
</linearGradient>
<linearGradient id="paint12_linear_9_350" x1="371.239" y1="471.592" x2="208.431" y2="246.503" gradientUnits="userSpaceOnUse">
<stop stop-color="#09005D"/>
<stop offset="1" stop-color="#1A0F91"/>
</linearGradient>
<linearGradient id="paint13_linear_9_350" x1="321.21" y1="364.464" x2="325.893" y2="398.548" gradientUnits="userSpaceOnUse">
<stop stop-color="#3F64E5"/>
<stop offset="1" stop-color="#FF928E"/>
</linearGradient>
<linearGradient id="paint14_linear_9_350" x1="268.86" y1="40.9842" x2="264.707" y2="3.9385" gradientUnits="userSpaceOnUse">
<stop stop-color="#E1473D"/>
<stop offset="1" stop-color="#E9605A"/>
</linearGradient>
<linearGradient id="paint15_linear_9_350" x1="268.77" y1="41.0064" x2="264.618" y2="3.96221" gradientUnits="userSpaceOnUse">
<stop stop-color="#E1473D"/>
<stop offset="1" stop-color="#E9605A"/>
</linearGradient>
<linearGradient id="paint16_linear_9_350" x1="298.447" y1="37.6667" x2="294.294" y2="0.620802" gradientUnits="userSpaceOnUse">
<stop stop-color="#E1473D"/>
<stop offset="1" stop-color="#E9605A"/>
</linearGradient>
<linearGradient id="paint17_linear_9_350" x1="298.353" y1="37.688" x2="294.2" y2="0.643539" gradientUnits="userSpaceOnUse">
<stop stop-color="#E1473D"/>
<stop offset="1" stop-color="#E9605A"/>
</linearGradient>
<linearGradient id="paint18_linear_9_350" x1="283.352" y1="39.3862" x2="279.2" y2="2.34392" gradientUnits="userSpaceOnUse">
<stop stop-color="#E1473D"/>
<stop offset="1" stop-color="#E9605A"/>
</linearGradient>
<linearGradient id="paint19_linear_9_350" x1="302.3" y1="313.01" x2="302.69" y2="275.349" gradientUnits="userSpaceOnUse">
<stop stop-color="#FEBBBA"/>
<stop offset="1" stop-color="#FF928E"/>
</linearGradient>
<linearGradient id="paint20_linear_9_350" x1="313.948" y1="321.129" x2="321.494" y2="361.977" gradientUnits="userSpaceOnUse">
<stop stop-color="#3159E6"/>
<stop offset="1" stop-color="#8399E6"/>
</linearGradient>
<linearGradient id="paint21_linear_9_350" x1="327.783" y1="293.403" x2="303.622" y2="339.866" gradientUnits="userSpaceOnUse">
<stop stop-color="#B83A33"/>
<stop offset="1" stop-color="#A22B25"/>
</linearGradient>
<linearGradient id="paint22_linear_9_350" x1="357.573" y1="188.825" x2="298.449" y2="314.681" gradientUnits="userSpaceOnUse">
<stop stop-color="#09005D"/>
<stop offset="1" stop-color="#1A0F91"/>
</linearGradient>
<linearGradient id="paint23_linear_9_350" x1="493.33" y1="62.4914" x2="340.295" y2="235.574" gradientUnits="userSpaceOnUse">
<stop stop-color="#4F52FF"/>
<stop offset="1" stop-color="#4042E2"/>
</linearGradient>
<linearGradient id="paint24_linear_9_350" x1="101.225" y1="469.916" x2="122.017" y2="469.916" gradientUnits="userSpaceOnUse">
<stop stop-color="#09005D"/>
<stop offset="1" stop-color="#1A0F91"/>
</linearGradient>
<linearGradient id="paint25_linear_9_350" x1="153.276" y1="445.386" x2="77.6324" y2="504.78" gradientUnits="userSpaceOnUse">
<stop stop-color="#4F52FF"/>
<stop offset="1" stop-color="#4042E2"/>
</linearGradient>
<linearGradient id="paint26_linear_9_350" x1="107.007" y1="446.245" x2="103.035" y2="480.907" gradientUnits="userSpaceOnUse">
<stop stop-color="#FEBBBA"/>
<stop offset="1" stop-color="#FF928E"/>
</linearGradient>
<linearGradient id="paint27_linear_9_350" x1="166.714" y1="462.476" x2="91.0718" y2="521.87" gradientUnits="userSpaceOnUse">
<stop stop-color="#4F52FF"/>
<stop offset="1" stop-color="#4042E2"/>
</linearGradient>
<linearGradient id="paint28_linear_9_350" x1="132.885" y1="470.444" x2="162.815" y2="470.444" gradientUnits="userSpaceOnUse">
<stop stop-color="#09005D"/>
<stop offset="1" stop-color="#1A0F91"/>
</linearGradient>
<linearGradient id="paint29_linear_9_350" x1="138.816" y1="449.906" x2="137.033" y2="484.749" gradientUnits="userSpaceOnUse">
<stop stop-color="#FEBBBA"/>
<stop offset="1" stop-color="#FF928E"/>
</linearGradient>
<linearGradient id="paint30_linear_9_350" x1="105.91" y1="485.881" x2="135.314" y2="270.697" gradientUnits="userSpaceOnUse">
<stop stop-color="#09005D"/>
<stop offset="1" stop-color="#1A0F91"/>
</linearGradient>
<linearGradient id="paint31_linear_9_350" x1="146.702" y1="238.694" x2="51.0051" y2="408.022" gradientUnits="userSpaceOnUse">
<stop stop-color="#FE7062"/>
<stop offset="1" stop-color="#FF928E"/>
</linearGradient>
<linearGradient id="paint32_linear_9_350" x1="114.241" y1="243.79" x2="145.664" y2="208.741" gradientUnits="userSpaceOnUse">
<stop stop-color="#FEBBBA"/>
<stop offset="1" stop-color="#FF928E"/>
</linearGradient>
<linearGradient id="paint33_linear_9_350" x1="132.569" y1="218.416" x2="147.877" y2="196.863" gradientUnits="userSpaceOnUse">
<stop stop-color="#FEBBBA"/>
<stop offset="1" stop-color="#FF928E"/>
</linearGradient>
<linearGradient id="paint34_linear_9_350" x1="114.817" y1="181.913" x2="137.624" y2="208.624" gradientUnits="userSpaceOnUse">
<stop stop-color="#09005D"/>
<stop offset="1" stop-color="#1A0F91"/>
</linearGradient>
<linearGradient id="paint35_linear_9_350" x1="126.639" y1="214.204" x2="141.947" y2="192.651" gradientUnits="userSpaceOnUse">
<stop stop-color="#FEBBBA"/>
<stop offset="1" stop-color="#FF928E"/>
</linearGradient>
<linearGradient id="paint36_linear_9_350" x1="152.406" y1="248.856" x2="133.031" y2="268.626" gradientUnits="userSpaceOnUse">
<stop stop-color="#FE7062"/>
<stop offset="1" stop-color="#FF928E"/>
</linearGradient>
<linearGradient id="paint37_linear_9_350" x1="208.106" y1="239.81" x2="150.08" y2="268.675" gradientUnits="userSpaceOnUse">
<stop stop-color="#FEBBBA"/>
<stop offset="1" stop-color="#FF928E"/>
</linearGradient>
<linearGradient id="paint38_linear_9_350" x1="207.256" y1="232.571" x2="187.409" y2="253.301" gradientUnits="userSpaceOnUse">
<stop stop-color="#FEBBBA"/>
<stop offset="1" stop-color="#FF928E"/>
</linearGradient>
<linearGradient id="paint39_linear_9_350" x1="208.382" y1="239.468" x2="150.356" y2="268.333" gradientUnits="userSpaceOnUse">
<stop stop-color="#FEBBBA"/>
<stop offset="1" stop-color="#FF928E"/>
</linearGradient>
<linearGradient id="paint40_linear_9_350" x1="187.908" y1="287.738" x2="114.487" y2="259.034" gradientUnits="userSpaceOnUse">
<stop stop-color="#FEBBBA"/>
<stop offset="1" stop-color="#FF928E"/>
</linearGradient>
<linearGradient id="paint41_linear_9_350" x1="264.919" y1="23.8128" x2="171.253" y2="176.8" gradientUnits="userSpaceOnUse">
<stop stop-color="#E1473D"/>
<stop offset="1" stop-color="#E9605A"/>
</linearGradient>
<linearGradient id="paint42_linear_9_350" x1="264.369" y1="23.4761" x2="170.704" y2="176.462" gradientUnits="userSpaceOnUse">
<stop stop-color="#E1473D"/>
<stop offset="1" stop-color="#E9605A"/>
</linearGradient>
</defs>
</svg>
