<svg width="11" height="6" viewBox="0 0 11 6" fill="none" xmlns="http://www.w3.org/2000/svg">
<path d="M10.4583 1.20374C10.4587 1.30956 10.4353 1.41411 10.39 1.50972C10.3446 1.60533 10.2784 1.68957 10.1963 1.75624L5.94625 5.17749C5.81951 5.28167 5.66053 5.33862 5.49646 5.33862C5.33239 5.33862 5.17341 5.28167 5.04667 5.17749L0.796666 1.63582C0.652013 1.51559 0.561045 1.34282 0.543776 1.15552C0.526507 0.968214 0.584351 0.781723 0.704583 0.637069C0.824814 0.492416 0.997585 0.401449 1.18489 0.38418C1.37219 0.366911 1.55868 0.424754 1.70333 0.544986L5.5 3.71124L9.29667 0.651236C9.40064 0.564619 9.52725 0.509597 9.66151 0.492683C9.79578 0.475768 9.93208 0.497667 10.0543 0.55579C10.1765 0.613913 10.2795 0.705827 10.3511 0.820655C10.4227 0.935483 10.4599 1.06842 10.4583 1.20374Z" fill="#1877F2"/>
</svg>
