<svg width="444" height="391" viewBox="0 0 444 391" fill="none" xmlns="http://www.w3.org/2000/svg">
<path d="M444 339.572H0V339.794H444V339.572Z" fill="#EBEBEB"/>
<path d="M321.455 346.623H292.045V346.845H321.455V346.623Z" fill="#EBEBEB"/>
<path d="M391.536 346.738H355.004V346.96H391.536V346.738Z" fill="#EBEBEB"/>
<path d="M333.843 352.537H316.803V352.759H333.843V352.537Z" fill="#EBEBEB"/>
<path d="M200.395 350.859H154.512V351.081H200.395V350.859Z" fill="#EBEBEB"/>
<path d="M146.609 350.859H116.07V351.081H146.609V350.859Z" fill="#EBEBEB"/>
<path d="M97.7951 347.111H56.2012V347.333H97.7951V347.111Z" fill="#EBEBEB"/>
<path d="M210.455 299.968H38.9913C37.6481 299.966 36.3606 299.431 35.4117 298.48C34.4627 297.529 33.9297 296.241 33.9297 294.898V53.8679C33.9414 52.5323 34.4795 51.2554 35.4272 50.3143C36.375 49.3732 37.6557 48.8441 38.9913 48.8418H210.455C211.8 48.8418 213.09 49.376 214.041 50.3269C214.992 51.2778 215.526 52.5675 215.526 53.9123V294.898C215.526 296.242 214.992 297.532 214.041 298.483C213.09 299.434 211.8 299.968 210.455 299.968ZM38.9913 49.0194C37.7069 49.0217 36.476 49.5336 35.5686 50.4426C34.6613 51.3516 34.1517 52.5835 34.1517 53.8679V294.898C34.1517 296.182 34.6613 297.414 35.5686 298.323C36.476 299.232 37.7069 299.744 38.9913 299.746H210.455C211.74 299.744 212.972 299.232 213.881 298.324C214.79 297.415 215.301 296.183 215.304 294.898V53.8679C215.301 52.5827 214.79 51.3508 213.881 50.4421C212.972 49.5333 211.74 49.0217 210.455 49.0194H38.9913Z" fill="#EBEBEB"/>
<path d="M402.539 299.968H231.067C229.723 299.966 228.434 299.431 227.484 298.48C226.533 297.53 225.998 296.242 225.996 294.898V53.8679C226.01 52.5315 226.55 51.2546 227.499 50.3137C228.448 49.3729 229.73 48.8441 231.067 48.8418H402.539C403.873 48.8464 405.152 49.3766 406.098 50.3174C407.044 51.2582 407.58 52.5339 407.592 53.8679V294.898C407.592 296.239 407.06 297.526 406.113 298.477C405.166 299.427 403.881 299.963 402.539 299.968ZM231.067 49.0194C229.781 49.0217 228.55 49.5333 227.641 50.4421C226.732 51.3508 226.22 52.5827 226.218 53.8679V294.898C226.22 296.183 226.732 297.415 227.641 298.324C228.55 299.232 229.781 299.744 231.067 299.746H402.539C403.825 299.744 405.056 299.232 405.965 298.324C406.874 297.415 407.386 296.183 407.388 294.898V53.8679C407.386 52.5827 406.874 51.3508 405.965 50.4421C405.056 49.5333 403.825 49.0217 402.539 49.0194H231.067Z" fill="#EBEBEB"/>
<path d="M90.5755 275.183H58.3145V131.007L90.5755 120.467V275.183Z" fill="#EBEBEB"/>
<path d="M117.509 275.184H85.248V165.543L117.509 155.002V275.184Z" fill="#E6E6E6"/>
<path d="M113.656 162.478H105.957V136.318L113.656 133.805V162.478Z" fill="#E6E6E6"/>
<path d="M196.203 189.473H159.893V275.182H196.203V189.473Z" fill="#E6E6E6"/>
<path d="M386.183 275.183H359.934V101.694L386.183 91.1445V275.183Z" fill="#EBEBEB"/>
<path d="M413.115 275.184H380.854V165.543L413.115 155.002V275.184Z" fill="#E6E6E6"/>
<path d="M297.48 275.174H362.003V189.935L297.48 181.738V275.174Z" fill="#E6E6E6"/>
<path d="M409.27 162.478H405.416V136.318L409.27 133.805V162.478Z" fill="#E6E6E6"/>
<path d="M396.679 168.774H392.834V142.614L396.679 140.092V168.774Z" fill="#E6E6E6"/>
<path d="M50.225 203.549H64.9214V275.184H40.6523V213.121C40.6523 210.583 41.6609 208.148 43.4561 206.353C45.2513 204.557 47.6862 203.549 50.225 203.549Z" fill="#EBEBEB"/>
<path d="M154.573 206.061H122.33V275.182H154.573V206.061Z" fill="#EBEBEB"/>
<path d="M228.446 216.77L196.203 206.061V275.182H228.446V216.77Z" fill="#EBEBEB"/>
<path d="M240.657 216.77L208.414 206.061V275.182H240.657V216.77Z" fill="#E6E6E6"/>
<path d="M240.656 205.795L272.9 195.086V275.184H240.656V205.795Z" fill="#F0F0F0"/>
<path opacity="0.5" d="M98.4351 275.174H65.1973L133.706 33.8691H166.944L98.4351 275.174Z" fill="white"/>
<path opacity="0.5" d="M198.068 275.174H164.83L233.33 33.8691H266.577L198.068 275.174Z" fill="white"/>
<path opacity="0.5" d="M239.671 275.174H206.434L274.943 33.8691H308.181L239.671 275.174Z" fill="white"/>
<path opacity="0.5" d="M319.681 275.174H303.066L371.576 33.8691H388.19L319.681 275.174Z" fill="white"/>
<path d="M98.4258 295.704C108.016 244.271 133.289 220.136 154.796 207.846C134.194 227.328 120.182 294.737 98.4258 295.704Z" fill="#FAFAFA"/>
<path d="M77.4064 291.655C70.3024 252.885 53.2262 237.718 38.7695 231.271C52.72 243.473 62.932 294.097 77.4064 291.655Z" fill="#FAFAFA"/>
<path d="M89.821 301.922C87.086 246.155 65.845 221.673 46.7441 209.916C64.0779 229.683 69.0329 302.677 89.821 301.922Z" fill="#FAFAFA"/>
<path d="M89.8203 297.135C94.2603 241.102 117.952 214.879 139.016 201.568C119.675 222.738 112.376 296.194 89.8203 297.135Z" fill="#FAFAFA"/>
<path d="M93.3206 305.898C100.425 248.338 84.7159 213.653 68.7852 192.803C81.6967 220.881 73.6336 296.876 93.3206 305.898Z" fill="#FAFAFA"/>
<path d="M115.439 288.387C133.368 254.856 155.861 246.864 173.159 246.047C154.858 252.405 130.34 295.864 115.439 288.387Z" fill="#FAFAFA"/>
<path d="M111.719 289.657C123.023 251.659 144.424 235.489 162.006 228.012C144.575 241.03 128.653 290.722 111.719 289.657Z" fill="#FAFAFA"/>
<path d="M91.8819 306.086C111.205 246.492 102.476 209.747 90.6298 187.369C97.8492 217.144 73.7046 295.883 91.8819 306.086Z" fill="#FAFAFA"/>
<path d="M59.0957 284.658V322.15C59.0957 331.731 76.3851 339.572 97.5283 339.572C118.663 339.572 135.961 331.731 135.961 322.15V284.658H59.0957Z" fill="#F5F5F5"/>
<path d="M355.199 309.433C353.077 274.064 337.848 257.467 324.182 249.049C336.649 262.413 340.414 308.785 355.199 309.433Z" fill="#E0E0E0"/>
<path d="M369.977 306.671C378.164 280.031 391.2 269.571 401.66 265.131C391.049 273.505 379.682 308.341 369.977 306.671Z" fill="#E0E0E0"/>
<path d="M360.59 313.732C367.276 275.388 383.935 258.551 398.037 250.471C384.504 264.048 374.736 314.238 360.59 313.732Z" fill="#E0E0E0"/>
<path d="M361.008 310.437C362.784 271.897 348.842 253.871 335.566 244.725C346.986 259.297 345.636 309.788 361.008 310.437Z" fill="#E0E0E0"/>
<path d="M357.863 316.457C357.961 276.878 371.725 253.027 384.441 238.686C373.181 258 372.116 310.249 357.863 316.457Z" fill="#E0E0E0"/>
<path d="M344.233 304.416C334.829 281.328 320.115 275.858 308.34 275.299C320.319 279.668 333.364 309.558 344.233 304.416Z" fill="#E0E0E0"/>
<path d="M346.648 305.295C342.208 279.162 328.932 268.071 317.539 262.902C328.346 271.853 334.962 306.024 346.648 305.295Z" fill="#E0E0E0"/>
<path d="M358.822 316.59C350.732 275.609 359.888 250.345 369.931 234.965C362.418 255.424 372.124 309.566 358.822 316.59Z" fill="#E0E0E0"/>
<path d="M381.184 301.922V327.674C381.184 334.254 369.311 339.635 354.801 339.635C340.291 339.635 328.428 334.254 328.428 327.674V301.922H381.184Z" fill="#F5F5F5"/>
<path d="M222.001 379.673C317.09 379.673 394.175 375.172 394.175 369.621C394.175 364.069 317.09 359.568 222.001 359.568C126.911 359.568 49.8262 364.069 49.8262 369.621C49.8262 375.172 126.911 379.673 222.001 379.673Z" fill="#F5F5F5"/>
<path d="M237.097 114.455V126.097C237.095 126.918 236.768 127.705 236.187 128.286C235.606 128.866 234.819 129.194 233.998 129.196H205.431C204.61 129.194 203.823 128.866 203.242 128.286C202.662 127.705 202.334 126.918 202.332 126.097V83.8902C202.339 83.072 202.668 82.2897 203.249 81.7128C203.829 81.1359 204.613 80.8111 205.431 80.8088H233.954C234.363 80.8041 234.768 80.8802 235.148 81.0326C235.527 81.185 235.873 81.4108 236.165 81.6971C236.457 81.9833 236.69 82.3244 236.85 82.7007C237.01 83.077 237.094 83.4813 237.097 83.8902V102.307" fill="white"/>
<path d="M233.953 129.702H205.431C204.489 129.702 203.585 129.328 202.919 128.661C202.253 127.995 201.879 127.092 201.879 126.15V83.8899C201.879 82.9478 202.253 82.0444 202.919 81.3782C203.585 80.7121 204.489 80.3379 205.431 80.3379H233.953C234.896 80.3379 235.799 80.7121 236.465 81.3782C237.131 82.0444 237.505 82.9478 237.505 83.8899V102.307H236.564V83.8899C236.564 83.1834 236.284 82.5058 235.784 82.0062C235.284 81.5066 234.607 81.2259 233.9 81.2259H205.431C204.724 81.2259 204.047 81.5066 203.547 82.0062C203.048 82.5058 202.767 83.1834 202.767 83.8899V126.097C202.767 126.803 203.048 127.481 203.547 127.98C204.047 128.48 204.724 128.761 205.431 128.761H233.953C234.66 128.761 235.338 128.48 235.837 127.98C236.337 127.481 236.617 126.803 236.617 126.097V114.455H237.559V126.097C237.566 126.572 237.478 127.044 237.299 127.485C237.12 127.925 236.855 128.326 236.519 128.662C236.183 128.998 235.782 129.263 235.342 129.442C234.901 129.621 234.429 129.709 233.953 129.702Z" fill="#407BFF"/>
<path d="M217.561 123.432C218.147 123.065 218.755 122.736 219.382 122.446C219.671 122.315 219.968 122.199 220.27 122.1C220.604 121.964 220.957 121.883 221.317 121.86L220.953 121.656C220.891 121.558 220.856 121.807 220.838 121.869L220.714 122.18C220.609 122.4 220.535 122.633 220.492 122.872C220.468 122.958 220.466 123.048 220.485 123.134C220.504 123.22 220.543 123.301 220.6 123.369C220.657 123.437 220.729 123.49 220.81 123.524C220.892 123.558 220.981 123.572 221.069 123.565C222 123.398 222.89 123.051 223.688 122.544H223.36C223.458 122.544 223.573 122.677 223.671 122.713C223.816 122.765 223.969 122.795 224.124 122.801C224.47 122.801 224.816 122.748 225.162 122.801C225.704 122.855 225.695 122.011 225.162 121.967C224.798 121.967 224.417 122.047 224.061 121.967C223.706 121.887 223.6 121.638 223.227 121.807C222.854 121.976 222.552 122.198 222.188 122.349C222.019 122.42 221.848 122.482 221.673 122.535L221.335 122.633C221.238 122.633 221.06 122.633 221.202 122.775L221.326 123.068C221.326 122.5 221.93 121.967 221.77 121.381C221.61 120.795 220.882 121.052 220.447 121.159C219.268 121.501 218.146 122.015 217.117 122.686C217.021 122.741 216.95 122.833 216.921 122.94C216.892 123.048 216.906 123.162 216.962 123.259C217.017 123.355 217.109 123.426 217.216 123.455C217.323 123.484 217.438 123.469 217.535 123.414L217.561 123.432Z" fill="#E0E0E0"/>
<path d="M233.74 87.1035H205.635V88.0359H233.74V87.1035Z" fill="#E0E0E0"/>
<path d="M230.561 93.7207H205.635V94.6531H230.561V93.7207Z" fill="#E0E0E0"/>
<path d="M233.74 100.344H205.635V101.276H233.74V100.344Z" fill="#E0E0E0"/>
<path d="M213.36 106.969H205.635V107.901H213.36V106.969Z" fill="#E0E0E0"/>
<path d="M226.876 106.969H216.602V107.901H226.876V106.969Z" fill="#E0E0E0"/>
<path d="M233.74 113.584H205.635V114.516H233.74V113.584Z" fill="#E0E0E0"/>
<path d="M209.498 125.413C208.64 125.413 207.803 125.159 207.09 124.683C206.377 124.207 205.822 123.53 205.494 122.738C205.166 121.946 205.08 121.075 205.247 120.234C205.415 119.394 205.827 118.621 206.433 118.015C207.039 117.409 207.811 116.997 208.652 116.829C209.493 116.662 210.364 116.748 211.156 117.076C211.948 117.404 212.625 117.959 213.101 118.672C213.577 119.385 213.831 120.222 213.831 121.08C213.831 122.229 213.374 123.331 212.562 124.144C211.749 124.956 210.647 125.413 209.498 125.413ZM209.498 117.687C208.824 117.687 208.167 117.887 207.607 118.261C207.048 118.635 206.612 119.167 206.355 119.789C206.097 120.411 206.031 121.095 206.162 121.755C206.294 122.415 206.619 123.021 207.096 123.496C207.572 123.972 208.179 124.295 208.839 124.425C209.5 124.555 210.184 124.487 210.805 124.228C211.427 123.969 211.957 123.532 212.33 122.971C212.702 122.411 212.9 121.753 212.899 121.08C212.896 120.179 212.537 119.316 211.899 118.68C211.262 118.044 210.398 117.687 209.498 117.687Z" fill="#407BFF"/>
<path d="M212.056 121.08C212.058 121.586 211.91 122.081 211.63 122.503C211.35 122.925 210.951 123.254 210.484 123.449C210.017 123.644 209.502 123.696 209.005 123.598C208.509 123.5 208.052 123.258 207.694 122.9C207.335 122.543 207.091 122.087 206.991 121.591C206.892 121.095 206.942 120.58 207.135 120.112C207.329 119.644 207.656 119.244 208.077 118.963C208.498 118.681 208.993 118.531 209.499 118.531C210.176 118.531 210.825 118.799 211.304 119.277C211.783 119.755 212.054 120.403 212.056 121.08Z" fill="#407BFF"/>
<path d="M226.512 120.316C226.662 119.1 227.094 117.936 227.773 116.915C228.412 115.947 229.185 115.139 229.895 114.189C231.325 112.413 232.808 110.637 234.335 108.861C237.336 105.371 240.382 101.917 243.703 98.6759C243.788 98.6034 243.895 98.5627 244.007 98.5606C244.118 98.5586 244.227 98.5954 244.314 98.6647C244.401 98.7341 244.461 98.8316 244.484 98.9406C244.507 99.0496 244.492 99.1632 244.44 99.262C242.043 103.231 239.37 106.988 236.653 110.708C235.285 112.555 233.9 114.393 232.479 116.205C231.76 117.093 231.103 118.052 230.303 118.869C229.467 119.764 228.433 120.451 227.284 120.876C227.145 120.922 226.994 120.913 226.861 120.85C226.729 120.787 226.626 120.675 226.574 120.538C226.539 120.469 226.518 120.394 226.512 120.316Z" fill="#407BFF"/>
<path d="M364.858 360.702L356.588 361.572L353.168 343.692L361.448 342.822L364.858 360.702Z" fill="#E4897B"/>
<path d="M320.189 362.293L312.089 361.983L310.219 343.283L318.329 343.603L320.189 362.293Z" fill="#E4897B"/>
<path d="M365.597 360.852H355.747C355.587 360.853 355.432 360.907 355.307 361.007C355.181 361.107 355.093 361.246 355.057 361.402L353.457 368.622C353.424 368.776 353.421 368.935 353.449 369.09C353.477 369.245 353.535 369.392 353.621 369.524C353.707 369.656 353.817 369.77 353.947 369.859C354.077 369.948 354.223 370.01 354.377 370.042H354.637C357.827 369.992 360.147 369.792 364.147 369.792C366.617 369.792 374.057 370.052 377.457 370.052C380.857 370.052 381.307 366.692 379.907 366.382C373.657 365.022 368.957 363.132 366.957 361.332C366.579 361.009 366.095 360.838 365.597 360.852Z" fill="#263238"/>
<path d="M366.147 361.973C366.11 361.964 366.078 361.943 366.053 361.915C366.028 361.886 366.012 361.851 366.007 361.813C366.003 361.776 366.009 361.739 366.025 361.705C366.041 361.672 366.066 361.643 366.097 361.623C366.387 361.443 369.007 359.833 369.907 360.293C370.009 360.341 370.095 360.417 370.154 360.513C370.213 360.609 370.242 360.721 370.237 360.833C370.257 361.02 370.231 361.209 370.161 361.383C370.092 361.557 369.98 361.712 369.837 361.833C369.38 362.145 368.829 362.29 368.277 362.243C367.559 362.233 366.845 362.143 366.147 361.973ZM366.707 361.703C367.654 362.019 368.685 361.969 369.597 361.563C369.692 361.477 369.765 361.369 369.81 361.25C369.855 361.13 369.871 361.001 369.857 360.873C369.857 360.713 369.787 360.643 369.727 360.643C369.654 360.602 369.57 360.584 369.487 360.593C368.499 360.785 367.556 361.162 366.707 361.703Z" fill="#407BFF"/>
<path d="M366.098 362.013C366.07 361.994 366.047 361.969 366.031 361.939C366.015 361.909 366.007 361.876 366.008 361.843C366.008 361.723 366.218 359.393 367.158 358.633C367.266 358.534 367.395 358.461 367.535 358.418C367.675 358.374 367.823 358.362 367.968 358.383C368.114 358.382 368.256 358.433 368.37 358.526C368.483 358.619 368.56 358.749 368.588 358.893C368.748 359.743 367.128 361.533 366.298 361.983H366.208C366.175 362.003 366.137 362.013 366.098 362.013ZM367.398 358.863C366.817 359.585 366.468 360.468 366.398 361.393C367.238 360.773 368.268 359.393 368.168 358.893C368.168 358.843 368.168 358.693 367.888 358.693H367.798C367.649 358.702 367.508 358.762 367.398 358.863Z" fill="#407BFF"/>
<path d="M321.369 360.592H311.519C311.357 360.593 311.201 360.649 311.075 360.75C310.95 360.852 310.863 360.994 310.829 361.152L309.229 368.372C309.196 368.525 309.195 368.683 309.223 368.836C309.252 368.99 309.311 369.137 309.397 369.267C309.482 369.398 309.592 369.511 309.721 369.599C309.85 369.688 309.996 369.75 310.149 369.782H310.419C313.599 369.732 315.919 369.532 319.929 369.532C322.389 369.532 329.829 369.792 333.229 369.792C336.629 369.792 337.079 366.432 335.689 366.122C329.439 364.762 324.689 362.872 322.689 361.122C322.329 360.789 321.859 360.601 321.369 360.592Z" fill="#263238"/>
<path d="M321.929 361.713C321.89 361.706 321.855 361.686 321.828 361.657C321.801 361.629 321.784 361.592 321.779 361.553C321.774 361.515 321.781 361.477 321.799 361.443C321.817 361.409 321.845 361.381 321.879 361.363C322.159 361.183 324.779 359.573 325.679 360.033C325.781 360.081 325.867 360.157 325.925 360.253C325.984 360.35 326.013 360.461 326.009 360.573C326.03 360.76 326.005 360.95 325.935 361.124C325.866 361.299 325.753 361.453 325.609 361.573C325.151 361.885 324.6 362.03 324.049 361.983C323.334 361.973 322.623 361.883 321.929 361.713ZM322.479 361.453C323.427 361.766 324.458 361.712 325.369 361.303C325.465 361.219 325.54 361.112 325.585 360.991C325.631 360.871 325.646 360.741 325.629 360.613C325.629 360.463 325.559 360.383 325.509 360.383C325.432 360.342 325.345 360.324 325.259 360.333C324.268 360.524 323.324 360.904 322.479 361.453Z" fill="#407BFF"/>
<path d="M321.877 361.763C321.847 361.743 321.822 361.717 321.805 361.685C321.788 361.654 321.778 361.619 321.777 361.583C321.777 361.473 321.987 359.143 322.927 358.373C323.039 358.279 323.168 358.208 323.307 358.165C323.446 358.122 323.592 358.108 323.737 358.123C323.883 358.125 324.024 358.176 324.137 358.269C324.25 358.361 324.328 358.49 324.357 358.633C324.527 359.493 322.907 361.273 322.067 361.723H321.977C321.964 361.736 321.948 361.746 321.931 361.753C321.914 361.76 321.896 361.763 321.877 361.763ZM323.177 358.603C322.59 359.326 322.241 360.214 322.177 361.143C323.007 360.513 324.037 359.143 323.937 358.633C323.937 358.583 323.937 358.433 323.657 358.433H323.567C323.422 358.443 323.284 358.503 323.177 358.603Z" fill="#407BFF"/>
<path opacity="0.2" d="M361.448 342.822L353.168 343.692L354.938 352.912L363.218 352.042L361.448 342.822Z" fill="black"/>
<path opacity="0.2" d="M318.329 343.613L310.219 343.293L311.189 352.943L319.299 353.253L318.329 343.613Z" fill="black"/>
<path d="M365.128 349.432H350.298C350.298 349.432 336.528 293.592 330.158 268.052C328.718 262.282 326.908 253.702 325.008 244.052C323.498 236.342 321.918 227.962 320.418 219.812C316.828 250.462 321.988 346.742 321.988 346.742L307.608 348.532C294.338 260.062 292.768 178.252 292.768 178.252H340.768C341.408 183.842 348.228 243.612 352.568 270.872C356.588 295.982 365.128 349.432 365.128 349.432Z" fill="#263238"/>
<path d="M305.798 349.724L323.758 349.624L323.418 344.574L304.748 344.354L305.798 349.724Z" fill="#407BFF"/>
<path d="M348.529 349.553H366.019L365.489 344.363L347.299 344.033L348.529 349.553Z" fill="#407BFF"/>
<path d="M334.477 103.713C334.477 103.713 307.107 102.383 286.707 107.533C286.707 107.533 292.707 169.853 292.327 195.853L343.577 194.103C343.577 194.103 341.587 130.343 334.477 103.713Z" fill="#407BFF"/>
<path opacity="0.5" d="M292.328 195.853C292.328 194.963 292.328 194.033 292.328 193.073C292.328 184.253 291.718 172.243 290.928 160.013C290.238 149.483 289.408 138.783 288.668 129.813C287.588 116.863 286.668 107.533 286.668 107.533C307.068 102.383 334.438 103.713 334.438 103.713C336.778 112.473 338.568 125.273 339.908 138.503C340.348 142.843 340.748 147.223 341.088 151.503C342.518 169.123 343.218 185.383 343.448 191.503C343.508 193.163 343.538 194.073 343.538 194.073L292.328 195.853Z" fill="white"/>
<path opacity="0.1" d="M292.328 195.853C292.328 194.963 292.328 194.033 292.328 193.073L343.478 191.533C343.538 193.193 343.568 194.103 343.568 194.103L292.328 195.853Z" fill="black"/>
<path opacity="0.1" d="M323.197 103.562C323.197 103.562 323.397 109.272 315.907 109.562C308.417 109.852 298.357 105.342 298.357 105.342C298.357 105.342 312.657 102.182 323.197 103.562Z" fill="black"/>
<path opacity="0.2" d="M341.128 151.522C336.809 150.678 332.681 149.051 328.948 146.723C328.948 146.723 309.298 162.342 296.788 161.542C294.762 161.386 292.781 160.868 290.938 160.012C290.248 149.482 289.418 138.783 288.678 129.812C295.798 133.182 311.948 140.203 319.078 138.303C323.388 137.153 331.978 137.643 339.948 138.503C340.388 142.843 340.788 147.222 341.128 151.522Z" fill="black"/>
<path d="M302.277 104.772C306.227 108.362 315.907 107.032 315.907 107.032C315.907 107.032 321.907 105.382 320.677 103.492C317.117 102.902 315.397 101.242 314.677 99.1219C314.282 97.8038 314.159 96.4189 314.317 95.0519C314.374 94.2901 314.474 93.5322 314.617 92.7819L302.617 83.9219C304.227 89.7719 306.147 100.532 302.277 104.772Z" fill="#E4897B"/>
<path opacity="0.2" d="M305.428 89.5527C305.898 96.7327 311.798 98.7127 314.688 99.1227C314.292 97.8047 314.169 96.4198 314.328 95.0527L305.428 89.5527Z" fill="black"/>
<path d="M322.209 64.8223C322.209 64.8223 325.569 75.6123 320.349 80.7523C315.129 85.8923 312.049 65.3423 312.049 65.3423L322.209 64.8223Z" fill="#263238"/>
<path d="M304.658 92.1225C306.164 93.7527 308.163 94.8439 310.349 95.2287C312.535 95.6134 314.786 95.2705 316.758 94.2525C319.336 92.9878 321.335 90.7887 322.348 88.1025C322.488 87.7325 322.608 87.3525 322.718 86.9525C324.578 79.7725 323.718 67.8225 315.898 64.4825C314.177 63.7361 312.294 63.4422 310.428 63.6288C308.561 63.8153 306.773 64.4761 305.234 65.5483C303.695 66.6206 302.455 68.0686 301.633 69.7549C300.812 71.4411 300.435 73.3095 300.538 75.1825C300.858 83.2125 300.668 87.9425 304.658 92.1225Z" fill="#E4897B"/>
<path d="M312.678 77.6526C312.618 78.3026 312.998 78.8426 313.438 78.8526C313.878 78.8626 314.218 78.3326 314.228 77.6826C314.238 77.0326 313.898 76.4926 313.478 76.4826C313.058 76.4726 312.698 76.9926 312.678 77.6526Z" fill="#263238"/>
<path d="M320.049 77.7932C320.049 78.4432 320.379 78.9832 320.809 78.9932C321.239 79.0032 321.589 78.4732 321.599 77.8132C321.609 77.1532 321.279 76.6332 320.849 76.6232C320.419 76.6132 320.049 77.1732 320.049 77.7932Z" fill="#263238"/>
<path d="M317.718 78.0723C318.454 80.0847 319.463 81.986 320.718 83.7223C320.264 84.0346 319.746 84.2438 319.202 84.3353C318.658 84.4269 318.1 84.3985 317.568 84.2523L317.718 78.0723Z" fill="#DE5753"/>
<path d="M314.709 74.5032C314.668 74.444 314.612 74.3964 314.547 74.3648C314.483 74.3333 314.411 74.319 314.339 74.3232C313.857 74.371 313.372 74.3054 312.92 74.1317C312.469 73.9581 312.064 73.6812 311.739 73.3232C311.709 73.2829 311.672 73.249 311.629 73.2236C311.586 73.1981 311.538 73.1816 311.489 73.1751C311.439 73.1685 311.389 73.1721 311.341 73.1855C311.293 73.1989 311.248 73.222 311.209 73.2532C311.168 73.2837 311.134 73.322 311.108 73.3658C311.083 73.4096 311.066 73.4581 311.06 73.5085C311.053 73.5588 311.057 73.6099 311.07 73.6588C311.084 73.7078 311.107 73.7535 311.139 73.7932C311.545 74.2476 312.053 74.5989 312.622 74.818C313.19 75.0371 313.803 75.1177 314.409 75.0532C314.509 75.0432 314.603 74.9952 314.67 74.9191C314.736 74.8431 314.772 74.7445 314.769 74.6432C314.753 74.5949 314.733 74.548 314.709 74.5032Z" fill="#263238"/>
<path d="M311.518 85.3422C312.46 85.2441 313.412 85.3747 314.293 85.7229C315.174 86.0711 315.957 86.6265 316.578 87.3422C316.615 87.3796 316.635 87.4298 316.635 87.4822C316.635 87.5345 316.615 87.5848 316.578 87.6222C316.56 87.64 316.539 87.6542 316.516 87.6639C316.493 87.6735 316.468 87.6785 316.443 87.6785C316.418 87.6785 316.393 87.6735 316.37 87.6639C316.347 87.6542 316.326 87.64 316.308 87.6222C315.719 86.9713 314.987 86.4663 314.17 86.147C313.352 85.8276 312.472 85.7027 311.598 85.7822C311.573 85.785 311.548 85.7827 311.524 85.7757C311.499 85.7686 311.477 85.7568 311.457 85.741C311.438 85.7252 311.422 85.7057 311.41 85.6836C311.398 85.6615 311.39 85.6372 311.388 85.6122C311.382 85.5606 311.397 85.5089 311.428 85.4678C311.46 85.4268 311.507 85.3997 311.558 85.3922L311.518 85.3422Z" fill="#263238"/>
<path d="M319.448 74.4326C319.394 74.4882 319.356 74.5573 319.338 74.6326C319.338 74.7344 319.378 74.8321 319.449 74.9049C319.52 74.9778 319.616 75.02 319.718 75.0226C320.33 75.0386 320.936 74.9069 321.486 74.6389C322.036 74.3708 322.514 73.9742 322.878 73.4826C322.932 73.3972 322.95 73.2943 322.93 73.1954C322.909 73.0966 322.851 73.0096 322.768 72.9526C322.682 72.8988 322.58 72.8802 322.481 72.9007C322.382 72.9212 322.295 72.9793 322.238 73.0626C321.939 73.4427 321.556 73.7474 321.118 73.9523C320.681 74.1573 320.201 74.2567 319.718 74.2426C319.662 74.2533 319.609 74.2757 319.562 74.3085C319.516 74.3412 319.477 74.3836 319.448 74.4326Z" fill="#263238"/>
<path d="M306.608 65.2832L307.148 68.8032C306.559 69.1065 306.105 69.6205 305.877 70.243C305.649 70.8655 305.664 71.551 305.918 72.1632C307.148 75.1032 305.598 79.7732 303.358 81.6832C303.358 81.6832 303.258 80.3932 302.178 80.6832C301.098 80.9732 301.588 87.6832 303.808 90.8632C303.808 90.8632 300.518 88.0632 298.498 81.0632C296.628 74.5932 296.258 69.1632 297.498 66.6032L306.608 65.2832Z" fill="#263238"/>
<path d="M296.907 81.7035C297.329 82.6122 297.926 83.4289 298.664 84.1067C299.402 84.7845 300.266 85.3101 301.207 85.6535C303.737 86.5535 305.207 84.3335 304.647 81.8535C304.147 79.6535 302.247 76.4535 299.647 76.6535C297.047 76.8535 295.877 79.4435 296.907 81.7035Z" fill="#E4897B"/>
<path d="M307.149 68.8026C307.149 68.8026 317.709 72.1326 321.629 67.8026C325.549 63.4726 324.829 56.4326 321.629 56.0326C318.429 55.6326 317.879 59.0326 315.729 59.4926C313.579 59.9526 311.599 56.4926 308.929 57.4126C306.259 58.3326 304.769 61.6726 303.339 60.9826C301.909 60.2926 293.049 63.3426 296.809 70.0226L307.149 68.8026Z" fill="#263238"/>
<path d="M305.988 95.3435C309.748 98.0735 317.128 99.0735 320.848 94.3435C324.568 89.6135 323.548 81.8335 323.548 81.8335C323.099 83.5548 322.276 85.156 321.138 86.5235C319.138 84.0135 315.618 85.3435 315.618 85.3435C314.903 84.3691 313.858 83.687 312.678 83.4235C310.988 83.2235 306.258 83.4235 306.258 83.4235C304.738 82.4235 304.758 78.1035 304.758 78.1035L303.818 78.8635C303.818 78.8635 302.228 92.6435 305.988 95.3435ZM310.778 84.6935C311.577 84.5675 312.393 84.6025 313.177 84.7966C313.962 84.9907 314.7 85.3398 315.348 85.8235C315.348 85.8235 319.908 85.4535 320.068 89.1835C320.228 92.9135 316.538 93.7935 315.148 92.7435C313.758 91.6935 315.148 90.1035 315.148 90.1035L313.578 89.5235C313.416 90.0016 313.132 90.429 312.753 90.763C312.374 91.0969 311.915 91.3259 311.42 91.427C310.926 91.5282 310.413 91.498 309.934 91.3395C309.454 91.181 309.025 90.8996 308.688 90.5235C308.306 90.0393 308.053 89.4656 307.954 88.8566C307.855 88.2475 307.912 87.6233 308.122 87.0428C308.331 86.4623 308.685 85.9447 309.149 85.5389C309.614 85.1331 310.175 84.8524 310.778 84.7235V84.6935Z" fill="#263238"/>
<path d="M286.717 107.533C279.157 109.533 282.317 139.533 293.927 151.693C305.537 163.853 350.627 129.613 350.627 129.613L333.987 133.343L306.177 137.093C306.177 137.093 300.647 127.613 298.357 122.703C292.267 109.643 286.717 107.533 286.717 107.533Z" fill="#407BFF"/>
<path opacity="0.4" d="M293.918 151.693C299.228 157.253 311.528 153.113 323.318 146.993C332.834 141.875 341.961 136.066 350.628 129.613L333.988 133.343L306.178 137.093C306.178 137.093 300.648 127.613 298.358 122.703C292.268 109.643 286.718 107.533 286.718 107.533C279.158 109.523 282.318 139.543 293.918 151.693Z" fill="white"/>
<path opacity="0.1" d="M306.178 137.093C306.178 137.093 312.048 143.473 323.318 146.993C332.833 141.875 341.961 136.066 350.628 129.613L333.988 133.343L306.178 137.093Z" fill="black"/>
<path d="M334.488 103.712C345.878 103.192 363.288 132.472 361.708 143.282C360.128 154.092 306.178 137.092 306.178 137.092C306.178 137.092 307.848 135.192 317.588 133.332C326.958 131.552 341.298 130.922 341.298 130.922L338.558 126.342C334.738 116.442 334.488 103.712 334.488 103.712Z" fill="#407BFF"/>
<path opacity="0.4" d="M334.488 103.712C345.878 103.192 363.288 132.472 361.708 143.282C360.128 154.092 306.178 137.092 306.178 137.092C306.178 137.092 307.848 135.192 317.588 133.332C326.958 131.552 341.298 130.922 341.298 130.922L338.558 126.342C334.738 116.442 334.488 103.712 334.488 103.712Z" fill="white"/>
<path d="M341.298 130.923C342.686 129.077 344.511 127.603 346.608 126.633C346.608 126.633 341.168 122.273 339.608 122.273C338.048 122.273 333.758 127.273 333.268 131.433L341.298 130.923Z" fill="#E4897B"/>
<path opacity="0.2" d="M325.048 244.062C323.538 236.352 321.958 227.972 320.458 219.822C320.458 219.822 320.308 213.162 324.858 204.662C324.818 204.662 326.678 226.602 325.048 244.062Z" fill="black"/>
<path d="M154.648 182.701V187.531L121.648 185.001V179.281L154.648 182.701Z" fill="#263238"/>
<path d="M128.797 185.936L136.008 186.582L136.498 181.114L129.287 180.468L128.797 185.936Z" fill="white"/>
<path d="M143.116 189.012L144.754 189.096L145.179 180.757L143.541 180.673L143.116 189.012Z" fill="#407BFF"/>
<path d="M122.987 186.788L124.625 186.871L125.05 178.532L123.412 178.448L122.987 186.788Z" fill="#407BFF"/>
<g opacity="0.5">
<path opacity="0.5" d="M143.116 189.012L144.754 189.096L145.179 180.757L143.541 180.673L143.116 189.012Z" fill="white"/>
</g>
<g opacity="0.5">
<path opacity="0.5" d="M122.987 186.788L124.625 186.871L125.05 178.532L123.412 178.448L122.987 186.788Z" fill="white"/>
</g>
<path d="M147.499 87.502C157.549 87.702 170.079 95.7519 163.219 110.622C163.219 110.622 167.089 123.762 161.069 128.092C155.049 132.422 123.129 130.032 122.939 115.002C122.939 115.002 123.619 117.572 127.429 116.382C131.239 115.192 124.599 97.3819 135.639 93.2419C146.679 89.1019 147.499 87.502 147.499 87.502Z" fill="#263238"/>
<path d="M121.51 179.861L154.51 182.711C154.76 178.841 155 175.401 155.45 171.821C156.037 167.322 156.906 162.863 158.05 158.471C158.84 155.311 159.83 151.781 161.1 147.701L161.62 146.031C162.16 144.345 162.743 142.555 163.37 140.661C164 138.751 164.68 136.721 165.43 134.581C160.949 133.151 156.37 132.045 151.73 131.271C146.833 130.402 141.881 129.88 136.91 129.711C130.49 129.661 123.11 130.381 123.11 130.381C123.11 130.381 122.11 130.631 121.4 137.441C120.78 143.831 120.19 156.611 121.51 179.861Z" fill="#407BFF"/>
<path opacity="0.2" d="M132.639 166.622C141.559 175.442 149.859 174.442 155.459 171.822C156.043 167.322 156.908 162.864 158.049 158.472C158.839 155.312 159.829 151.782 161.099 147.702L161.619 146.032C160.759 144.092 159.489 142.842 157.619 142.892C149.619 143.082 136.879 157.132 136.879 157.132L132.639 166.622Z" fill="black"/>
<path d="M123.048 130.342C118.168 131.112 115.978 134.242 110.048 147.902C105.468 158.372 107.378 161.712 111.048 163.292C120.248 167.292 140.928 164.532 140.928 164.532L120.758 152.142C120.758 152.142 124.058 140.592 124.058 138.362C124.126 135.653 123.785 132.949 123.048 130.342Z" fill="#407BFF"/>
<path opacity="0.1" d="M111.049 163.342C114.529 164.852 119.659 165.392 124.679 165.482H126.139C131.083 165.47 136.022 165.163 140.929 164.562L120.759 152.182C120.759 152.182 121.559 149.412 122.359 146.332C123.121 143.735 123.69 141.084 124.059 138.402C124.152 135.704 123.838 133.007 123.129 130.402C118.249 131.172 116.059 134.292 110.129 147.952C105.449 158.412 107.359 161.752 111.049 163.342Z" fill="black"/>
<path opacity="0.2" d="M115.219 152.972C116.092 155.677 117.501 158.179 119.362 160.328C121.222 162.478 123.496 164.23 126.049 165.482C130.993 165.469 135.931 165.162 140.839 164.562L120.669 152.182C120.669 152.182 121.469 149.412 122.269 146.332C118.779 151.562 117.049 149.342 115.219 152.972Z" fill="black"/>
<path d="M165.399 134.581C175.519 138.851 157.219 167.201 146.969 170.581C136.719 173.961 114.969 152.811 114.969 152.811C118.391 152.112 121.917 152.088 125.349 152.741C137.859 155.571 141.349 157.371 143.889 154.741C146.429 152.111 158.219 131.551 165.399 134.581Z" fill="#407BFF"/>
<path opacity="0.1" d="M165.399 134.581C175.519 138.851 157.219 167.201 146.969 170.581C136.719 173.961 114.969 152.811 114.969 152.811C118.391 152.112 121.917 152.088 125.349 152.741C137.859 155.571 141.349 157.371 143.889 154.741C146.429 152.111 158.219 131.551 165.399 134.581Z" fill="black"/>
<path d="M136.299 155.342C136.299 155.342 142.439 152.112 144.059 151.582C145.679 151.052 149.059 153.832 149.319 154.522C149.579 155.212 142.219 159.072 141.679 158.872C141.139 158.672 136.299 155.342 136.299 155.342Z" fill="#EBB376"/>
<path d="M156.959 133.072C151.731 136.422 145.729 138.372 139.529 138.732C139.529 138.732 132.829 136.062 128.529 131.022C128.569 131.022 140.839 127.202 156.959 133.072Z" fill="#EBB376"/>
<path d="M139.61 137.002C147.75 136.002 150.19 132.492 150.19 132.492C145.03 127.622 149.32 119.182 149.32 119.182L139.53 121.012C139.75 122.375 139.877 123.751 139.91 125.132C139.98 131.072 137.29 131.132 137.29 131.132C135.58 134.342 139.61 137.002 139.61 137.002Z" fill="#EBB376"/>
<path opacity="0.2" d="M139.529 121.012C139.75 122.375 139.876 123.751 139.909 125.132C146.519 125.132 149.319 119.182 149.319 119.182L139.529 121.012Z" fill="black"/>
<path d="M144.94 93.6317C136.43 93.1617 133.44 97.5717 132.33 106.302C130.95 117.222 132.96 125.142 143.73 123.392C158.36 121.002 159.05 94.4017 144.94 93.6317Z" fill="#EBB376"/>
<path d="M137.859 106.133C137.11 107.367 136.214 108.505 135.189 109.523C135.419 109.888 135.745 110.183 136.131 110.375C136.518 110.568 136.95 110.65 137.379 110.613L137.859 106.133Z" fill="#D58745"/>
<path d="M143.109 105.722C143.059 106.422 143.389 107.012 143.849 107.052C144.309 107.092 144.739 106.552 144.799 105.852C144.859 105.152 144.519 104.562 144.049 104.522C143.579 104.482 143.159 105.022 143.109 105.722Z" fill="#263238"/>
<path d="M144.24 104.571L142.77 103.861C142.77 103.861 143.43 105.191 144.24 104.571Z" fill="#263238"/>
<path d="M134.439 104.892C134.439 105.592 134.719 106.192 135.179 106.232C135.639 106.272 136.069 105.722 136.179 105.032C136.289 104.342 135.899 103.732 135.429 103.702C134.959 103.672 134.499 104.202 134.439 104.892Z" fill="#263238"/>
<path d="M135.57 103.751L134.1 103.031C134.1 103.031 134.76 104.341 135.57 103.751Z" fill="#263238"/>
<path d="M142.528 102.081C144.174 102.019 145.789 101.624 147.278 100.921C147.357 100.879 147.418 100.808 147.447 100.724C147.477 100.639 147.474 100.546 147.439 100.464C147.404 100.381 147.339 100.314 147.258 100.277C147.176 100.24 147.084 100.234 146.998 100.261C143.188 101.891 141.398 101.261 141.378 101.201C141.289 101.168 141.191 101.17 141.103 101.207C141.016 101.244 140.946 101.314 140.908 101.401C140.889 101.444 140.878 101.491 140.877 101.538C140.876 101.586 140.885 101.633 140.902 101.677C140.92 101.721 140.947 101.761 140.98 101.794C141.014 101.828 141.054 101.854 141.098 101.871C141.557 102.032 142.042 102.103 142.528 102.081Z" fill="#263238"/>
<path d="M136.149 101.252C136.636 101.255 137.115 101.131 137.539 100.892C137.62 100.841 137.678 100.76 137.7 100.666C137.722 100.573 137.708 100.475 137.659 100.392C137.604 100.315 137.523 100.261 137.43 100.24C137.338 100.22 137.241 100.235 137.159 100.282C137.089 100.282 135.619 101.202 134.159 99.4421C134.13 99.4044 134.093 99.3728 134.051 99.3493C134.01 99.3258 133.964 99.3108 133.916 99.3052C133.869 99.2996 133.821 99.3035 133.775 99.3168C133.729 99.33 133.686 99.3522 133.649 99.3821C133.615 99.4156 133.589 99.4553 133.57 99.4991C133.552 99.5428 133.543 99.5897 133.543 99.6371C133.543 99.6845 133.552 99.7314 133.57 99.7752C133.589 99.8189 133.615 99.8587 133.649 99.8921C133.931 100.298 134.304 100.632 134.738 100.868C135.172 101.105 135.655 101.236 136.149 101.252Z" fill="#263238"/>
<path d="M153.459 108.483C153.459 108.483 149.859 101.273 150.759 95.9026C150.759 95.9026 134.269 88.0927 132.499 105.163C132.499 105.163 131.679 89.8726 146.329 90.3426C160.979 90.8126 159.749 112.203 151.839 118.163C151.839 118.163 155.679 112.993 153.459 108.483Z" fill="#263238"/>
<path d="M151.97 110.203C152.104 109.223 152.622 108.336 153.409 107.738C154.197 107.14 155.19 106.879 156.17 107.013C158.79 107.443 159.76 112.933 153.12 113.873C152.17 114.003 151.69 113.063 151.97 110.203Z" fill="#EBB376"/>
<path d="M138.919 113.852C138.973 113.852 139.027 113.839 139.076 113.815C139.124 113.79 139.166 113.755 139.199 113.712C141.279 111.142 143.289 112.332 143.369 112.392C143.452 112.44 143.55 112.455 143.643 112.433C143.737 112.41 143.818 112.352 143.869 112.272C143.916 112.189 143.931 112.093 143.911 112C143.891 111.908 143.836 111.826 143.759 111.772C143.759 111.772 141.129 110.172 138.639 113.262C138.606 113.295 138.579 113.335 138.561 113.378C138.543 113.422 138.533 113.469 138.533 113.517C138.533 113.564 138.543 113.611 138.561 113.655C138.579 113.698 138.606 113.738 138.639 113.772C138.719 113.832 138.819 113.861 138.919 113.852Z" fill="#263238"/>
<path d="M156.369 93.5919C156.369 93.5919 152.549 85.7219 139.529 87.1119C126.509 88.5019 133.049 101.402 146.669 99.3419C144.704 98.8961 142.855 98.0446 141.239 96.8419C141.239 96.8419 152.629 98.7919 154.649 98.4219C156.669 98.0519 156.369 93.5919 156.369 93.5919Z" fill="#263238"/>
<path d="M155.128 118.161C155.128 118.161 149.378 122.161 147.498 117.371C147.498 117.371 144.368 126.601 153.328 125.651C162.288 124.701 155.128 118.161 155.128 118.161Z" fill="#263238"/>
<path d="M150.94 131.252C150.94 131.252 148.83 138.342 137.86 142.492C137.86 142.492 134.71 134.392 137.71 129.742" stroke="#263238" stroke-width="0.5" stroke-linecap="round" stroke-linejoin="round"/>
<path d="M138.19 142.281C138.176 142.24 138.152 142.202 138.12 142.172C138.088 142.141 138.049 142.119 138.006 142.108C137.964 142.096 137.919 142.094 137.876 142.104C137.833 142.113 137.793 142.133 137.76 142.161C136.76 142.981 133.84 145.681 136.76 146.271C139.68 146.861 138.6 143.421 138.19 142.281Z" fill="white"/>
<path d="M125.05 193.992C125.05 193.992 114.21 251.762 111.32 275.472C107.54 306.412 92.0898 351.672 92.0898 351.672L98.2698 353.272C98.2698 353.272 120.05 314.812 124.27 280.202C141.57 244.832 142.97 201.282 142.97 201.282L125.05 193.992Z" fill="#EBB376"/>
<path d="M80.5691 365.681C81.5674 365.22 82.6419 364.945 83.7392 364.871C83.7392 364.871 87.5392 362.631 91.3092 353.951H95.5391C96.2538 353.956 96.9496 354.182 97.5313 354.597C98.113 355.012 98.5523 355.597 98.7891 356.271C98.8587 356.461 98.8992 356.66 98.9092 356.861C98.8674 357.884 98.7605 358.902 98.5892 359.911C97.9685 363.292 97.1402 366.632 96.1091 369.911L95.3891 369.731L96.6992 363.411C97.1292 361.261 94.8791 363.341 93.8291 365.501C92.7791 367.661 91.1791 369.841 86.5092 368.771C81.0491 367.441 78.8591 366.661 80.5691 365.681Z" fill="#263238"/>
<path d="M98.9085 356.342C99.7085 354.342 100.729 350.632 100.729 350.632L91.6585 349.342C91.6585 349.342 91.6585 353.802 89.9785 356.722C94.7185 356.732 98.9085 356.342 98.9085 356.342Z" fill="#263238"/>
<path d="M136.289 193.072C136.289 193.072 137.629 251.832 139.709 275.632C142.409 306.632 136.709 354.162 136.709 354.162L143.079 354.442C143.079 354.442 156.429 312.312 153.429 277.572C163.039 239.392 155.429 196.492 155.429 196.492L136.289 193.072Z" fill="#EBB376"/>
<path d="M126.74 367.612C127.68 367.045 128.718 366.659 129.8 366.472C129.8 366.472 133.34 363.832 136.14 354.792L140.35 354.312C141.065 354.245 141.784 354.402 142.407 354.76C143.03 355.118 143.527 355.66 143.83 356.312C143.917 356.493 143.981 356.685 144.02 356.882C144.085 357.904 144.085 358.93 144.02 359.952C143.764 363.367 143.303 366.763 142.64 370.122L141.9 370.022L142.52 363.592C142.72 361.412 140.7 363.722 139.89 365.982C139.08 368.242 137.73 370.592 132.97 369.982C127.41 369.342 125.14 368.772 126.74 367.612Z" fill="#263238"/>
<path d="M143.959 356.342C144.539 354.212 145.149 350.462 145.149 350.462L135.999 350.182C135.999 350.182 136.489 354.612 135.129 357.702C139.839 357.182 143.959 356.342 143.959 356.342Z" fill="#263238"/>
<path d="M121.32 184.342L100.52 306.572C100.52 306.572 150.86 312.572 167.93 309.062C167.93 309.062 172.11 221.582 154.3 187.062L121.32 184.342Z" fill="#407BFF"/>
<path opacity="0.5" d="M121.32 184.342L100.52 306.572C100.52 306.572 150.86 312.572 167.93 309.062C167.93 309.062 172.11 221.582 154.3 187.062L121.32 184.342Z" fill="white"/>
<path d="M209 91L229 111M229 91L209 111" stroke="#FF495C"/>
</svg>
