<svg width="19" height="19" viewBox="0 0 19 19" fill="none" xmlns="http://www.w3.org/2000/svg">
<path d="M9.5 0C4.24932 0 0 4.24891 0 9.5C0 14.7507 4.24891 19 9.5 19C14.7507 19 19 14.7511 19 9.5C19 4.24928 14.7511 0 9.5 0ZM9.5 17.5156C5.06973 17.5156 1.48438 13.9306 1.48438 9.5C1.48438 5.0697 5.0694 1.48438 9.5 1.48438C13.9303 1.48438 17.5156 5.0694 17.5156 9.5C17.5156 13.9303 13.9306 17.5156 9.5 17.5156Z" fill="#484A47" fill-opacity="0.5"/>
<path d="M12.7507 11.7008L10.55 9.50013L12.7507 7.29947C13.0405 7.00964 13.0405 6.53973 12.7507 6.24987C12.4608 5.96001 11.9909 5.96004 11.7011 6.24987L9.50039 8.45053L7.2997 6.24987C7.00991 5.96001 6.53992 5.96001 6.25009 6.24987C5.96027 6.53973 5.96027 7.00964 6.25013 7.29947L8.45079 9.50013L6.25013 11.7008C5.96027 11.9907 5.96023 12.4606 6.25009 12.7504C6.54003 13.0403 7.00995 13.0402 7.2997 12.7504L9.50039 10.5497L11.7011 12.7504C11.9908 13.0402 12.4608 13.0403 12.7507 12.7504C13.0406 12.4605 13.0405 11.9906 12.7507 11.7008Z" fill="#484A47" fill-opacity="0.5"/>
</svg>
