<svg width="20" height="20" viewBox="0 0 20 20" fill="none" xmlns="http://www.w3.org/2000/svg">
<g clip-path="url(#clip0_8_996)">
<mask id="path-1-inside-1_8_996" fill="white">
<path d="M7.59689 18.6732C5.99789 18.2302 4.55248 17.3537 3.42037 16.1407C2.28827 14.9277 1.51353 13.4253 1.18175 11.7996C0.84998 10.1739 0.974089 8.48804 1.54037 6.92842C2.10665 5.3688 3.09305 3.99607 4.39059 2.96192C5.68814 1.92777 7.24631 1.27244 8.89296 1.06834C10.5396 0.86425 12.2106 1.11933 13.7214 1.80541C15.2321 2.49148 16.5238 3.58184 17.4537 4.95602C18.3837 6.33019 18.9156 7.93469 18.9908 9.59223L17.8862 9.64233C17.8203 8.18842 17.3537 6.78104 16.538 5.57568C15.7224 4.37032 14.5894 3.41392 13.2642 2.81213C11.939 2.21034 10.4733 1.98659 9.02896 2.16561C7.58461 2.34464 6.21786 2.91946 5.07972 3.82656C3.94158 4.73367 3.07636 5.93775 2.57965 7.30577C2.08294 8.67379 1.97408 10.1525 2.26509 11.5785C2.5561 13.0045 3.23567 14.3223 4.22869 15.3863C5.22172 16.4503 6.48955 17.2191 7.89212 17.6077L7.59689 18.6732Z"/>
</mask>
<path d="M7.59689 18.6732C5.99789 18.2302 4.55248 17.3537 3.42037 16.1407C2.28827 14.9277 1.51353 13.4253 1.18175 11.7996C0.84998 10.1739 0.974089 8.48804 1.54037 6.92842C2.10665 5.3688 3.09305 3.99607 4.39059 2.96192C5.68814 1.92777 7.24631 1.27244 8.89296 1.06834C10.5396 0.86425 12.2106 1.11933 13.7214 1.80541C15.2321 2.49148 16.5238 3.58184 17.4537 4.95602C18.3837 6.33019 18.9156 7.93469 18.9908 9.59223L17.8862 9.64233C17.8203 8.18842 17.3537 6.78104 16.538 5.57568C15.7224 4.37032 14.5894 3.41392 13.2642 2.81213C11.939 2.21034 10.4733 1.98659 9.02896 2.16561C7.58461 2.34464 6.21786 2.91946 5.07972 3.82656C3.94158 4.73367 3.07636 5.93775 2.57965 7.30577C2.08294 8.67379 1.97408 10.1525 2.26509 11.5785C2.5561 13.0045 3.23567 14.3223 4.22869 15.3863C5.22172 16.4503 6.48955 17.2191 7.89212 17.6077L7.59689 18.6732Z" stroke="#407BFF" stroke-width="2" mask="url(#path-1-inside-1_8_996)"/>
<path d="M12.4938 13.75L9 10.2562V4.375H10.25V9.7375L13.375 12.8687L12.4938 13.75Z" fill="#407BFF"/>
</g>
<defs>
<clipPath id="clip0_8_996">
<rect width="20" height="20" fill="white"/>
</clipPath>
</defs>
</svg>
