<svg width="32" height="32" viewBox="0 0 32 32" fill="none" xmlns="http://www.w3.org/2000/svg">
<path d="M11.0768 14.7692H6.76909C6.25623 14.7692 5.82023 14.5898 5.46122 14.2308C5.10241 13.8718 4.92277 13.4359 4.92277 12.9229V12.3078C4.92277 10.9487 5.40363 9.78858 6.36528 8.82693C7.32687 7.86561 8.48723 7.38475 9.84615 7.38475H11.0768C11.4101 7.38475 11.6985 7.2629 11.9422 7.0194C12.1857 6.77577 12.3075 6.48742 12.3075 6.15407V3.69231C12.3075 3.35902 12.1857 3.0704 11.9422 2.82677C11.6985 2.58348 11.4102 2.46143 11.0768 2.46143H9.84615C8.51269 2.46143 7.24052 2.72129 6.02884 3.24027C4.81729 3.7596 3.76935 4.46159 2.88462 5.34632C1.99996 6.23065 1.29817 7.27866 0.778914 8.49034C0.25966 9.70189 0 10.9744 0 12.3077V25.8459C0 26.8721 0.35881 27.7434 1.07677 28.4616C1.79479 29.1794 2.66679 29.5383 3.69236 29.5383H11.0773C12.1028 29.5383 12.9745 29.1794 13.6926 28.4616C14.4104 27.7434 14.7695 26.8721 14.7695 25.8459V18.4616C14.7695 17.4356 14.4104 16.5643 13.6922 15.846C12.9744 15.1282 12.1023 14.7692 11.0768 14.7692Z" fill="#1877F2"/>
<path d="M30.923 15.846C30.2052 15.1282 29.3334 14.7692 28.3076 14.7692H24C23.4874 14.7692 23.051 14.5898 22.6926 14.2308C22.3334 13.8718 22.1541 13.4359 22.1541 12.9229V12.3078C22.1541 10.9487 22.635 9.78858 23.5962 8.82693C24.5574 7.86561 25.7177 7.38475 27.0773 7.38475H28.3077C28.6411 7.38475 28.9296 7.2629 29.1731 7.0194C29.4165 6.77577 29.5387 6.48742 29.5387 6.15407V3.69231C29.5387 3.35902 29.4165 3.0704 29.1731 2.82677C28.9297 2.58348 28.6411 2.46143 28.3077 2.46143H27.0773C25.7431 2.46143 24.4712 2.72129 23.2592 3.24027C22.0478 3.7596 21.0002 4.46159 20.1155 5.34632C19.2308 6.23065 18.5286 7.27866 18.0096 8.49034C17.4905 9.70189 17.2305 10.9744 17.2305 12.3077V25.8459C17.2305 26.8721 17.5896 27.7434 18.3074 28.4616C19.0252 29.1794 19.897 29.5383 20.9227 29.5383H28.3072C29.333 29.5383 30.2047 29.1794 30.9225 28.4616C31.6408 27.7434 31.9992 26.8721 31.9992 25.8459V18.4616C31.9993 17.4355 31.6408 16.5643 30.923 15.846Z" fill="#1877F2"/>
</svg>
