<svg width="20" height="21" viewBox="0 0 20 21" fill="none" xmlns="http://www.w3.org/2000/svg">
<g clip-path="url(#clip0)">
<g clip-path="url(#clip1)">
<path d="M13.4683 7.94078C13.3129 7.78556 13.1037 7.698 12.8846 7.698C12.6655 7.698 12.4563 7.78357 12.3009 7.94078L8.84875 11.3716L7.74318 10.2592C7.42445 9.94078 6.90055 9.9368 6.57784 10.2532C6.25314 10.5696 6.24915 11.093 6.56788 11.4194L8.25712 13.1189C8.4125 13.2741 8.62166 13.3617 8.84278 13.3617C9.0619 13.3617 9.26907 13.2761 9.42445 13.1209L13.4643 9.10894C13.783 8.79054 13.787 8.26715 13.4703 7.94476L13.4683 7.94078Z" fill="#484A47" fill-opacity="0.5"/>
<path d="M19.2209 6.64927C18.717 5.46121 17.9958 4.39454 17.0795 3.47713C16.1612 2.56171 15.0935 1.84131 13.9042 1.33783C12.6731 0.816434 11.3664 0.551758 10.0197 0.551758C4.51377 0.553748 0.0336914 5.02937 0.0336914 10.5299C0.0336914 16.0304 4.51377 20.506 10.0197 20.506C15.5257 20.506 20.0058 16.0304 20.0058 10.5299C20.0058 9.18459 19.7429 7.87912 19.2209 6.64927ZM10.0197 18.8562C5.42413 18.8562 1.68509 15.1209 1.68509 10.5299C1.68509 5.93882 5.42413 2.2035 10.0197 2.2035C14.6154 2.2035 18.3544 5.93882 18.3544 10.5299C18.3544 15.1209 14.6154 18.8562 10.0197 18.8562Z" fill="#484A47" fill-opacity="0.5"/>
</g>
</g>
<defs>
<clipPath id="clip0">
<rect width="20" height="20" fill="white" transform="translate(0 0.5)"/>
</clipPath>
<clipPath id="clip1">
<rect width="20" height="20" fill="white" transform="translate(0 0.5)"/>
</clipPath>
</defs>
</svg>
