<svg width="444" height="391" viewBox="0 0 444 391" fill="none" xmlns="http://www.w3.org/2000/svg">
<path d="M444 339.571H0V339.793H444V339.571Z" fill="#EBEBEB"/>
<path d="M321.456 346.622H292.046V346.844H321.456V346.622Z" fill="#EBEBEB"/>
<path d="M391.537 346.737H355.005V346.959H391.537V346.737Z" fill="#EBEBEB"/>
<path d="M333.844 352.536H316.803V352.758H333.844V352.536Z" fill="#EBEBEB"/>
<path d="M200.395 350.857H154.512V351.079H200.395V350.857Z" fill="#EBEBEB"/>
<path d="M146.609 350.857H116.071V351.079H146.609V350.857Z" fill="#EBEBEB"/>
<path d="M97.7954 347.11H56.2015V347.332H97.7954V347.11Z" fill="#EBEBEB"/>
<path d="M210.456 299.966H38.9921C37.6489 299.964 36.3615 299.429 35.4125 298.478C34.4635 297.527 33.9305 296.239 33.9305 294.896V53.8659C33.9422 52.5304 34.4804 51.2534 35.4281 50.3123C36.3758 49.3713 37.6566 48.8421 38.9921 48.8398H210.456C211.801 48.8398 213.091 49.3741 214.041 50.325C214.992 51.2759 215.527 52.5655 215.527 53.9103V294.896C215.527 296.241 214.992 297.53 214.041 298.481C213.091 299.432 211.801 299.966 210.456 299.966ZM38.9921 49.0174C37.7078 49.0198 36.4768 49.5317 35.5695 50.4407C34.6621 51.3497 34.1525 52.5816 34.1525 53.8659V294.896C34.1525 296.18 34.6621 297.412 35.5695 298.321C36.4768 299.23 37.7078 299.742 38.9921 299.744H210.456C211.741 299.742 212.973 299.23 213.882 298.322C214.791 297.413 215.302 296.181 215.305 294.896V53.8659C215.302 52.5807 214.791 51.3489 213.882 50.4401C212.973 49.5314 211.741 49.0198 210.456 49.0174H38.9921Z" fill="#EBEBEB"/>
<path d="M402.539 299.966H231.067C229.722 299.964 228.434 299.429 227.484 298.479C226.533 297.528 225.998 296.24 225.996 294.896V53.8659C226.01 52.5296 226.55 51.2526 227.499 50.3118C228.448 49.371 229.73 48.8421 231.067 48.8398H402.539C403.873 48.8445 405.152 49.3746 406.098 50.3155C407.043 51.2563 407.58 52.5319 407.592 53.8659V294.896C407.592 296.237 407.06 297.524 406.113 298.475C405.166 299.425 403.881 299.962 402.539 299.966ZM231.067 49.0174C229.781 49.0198 228.549 49.5314 227.641 50.4401C226.732 51.3489 226.22 52.5807 226.218 53.8659V294.896C226.22 296.181 226.732 297.413 227.641 298.322C228.549 299.23 229.781 299.742 231.067 299.744H402.539C403.825 299.742 405.056 299.23 405.965 298.322C406.874 297.413 407.385 296.181 407.388 294.896V53.8659C407.385 52.5807 406.874 51.3489 405.965 50.4401C405.056 49.5314 403.825 49.0198 402.539 49.0174H231.067Z" fill="#EBEBEB"/>
<path d="M90.576 275.182H58.3149V131.006L90.576 120.466V275.182Z" fill="#EBEBEB"/>
<path d="M117.509 275.182H85.248V165.541L117.509 155V275.182Z" fill="#E6E6E6"/>
<path d="M113.655 162.477H105.956V136.317L113.655 133.804V162.477Z" fill="#E6E6E6"/>
<path d="M196.203 189.473H159.893V275.182H196.203V189.473Z" fill="#E6E6E6"/>
<path d="M386.182 275.182H359.933V101.693L386.182 91.144V275.182Z" fill="#EBEBEB"/>
<path d="M413.115 275.182H380.854V165.541L413.115 155V275.182Z" fill="#E6E6E6"/>
<path d="M297.48 275.173H362.002V189.934L297.48 181.738V275.173Z" fill="#E6E6E6"/>
<path d="M409.27 162.477H405.416V136.317L409.27 133.804V162.477Z" fill="#E6E6E6"/>
<path d="M396.678 168.773H392.833V142.613L396.678 140.091V168.773Z" fill="#E6E6E6"/>
<path d="M50.2252 203.547H64.9216V275.182H40.6526V213.12C40.6526 210.581 41.6611 208.146 43.4564 206.351C45.2516 204.555 47.6864 203.547 50.2252 203.547Z" fill="#EBEBEB"/>
<path d="M154.574 206.06H122.331V275.182H154.574V206.06Z" fill="#EBEBEB"/>
<path d="M228.447 216.769L196.204 206.06V275.182H228.447V216.769Z" fill="#EBEBEB"/>
<path d="M240.657 216.769L208.414 206.06V275.182H240.657V216.769Z" fill="#E6E6E6"/>
<path d="M240.657 205.794L272.9 195.084V275.182H240.657V205.794Z" fill="#F0F0F0"/>
<path opacity="0.5" d="M98.4347 275.173H65.1969L133.706 33.8682H166.944L98.4347 275.173Z" fill="white"/>
<path opacity="0.5" d="M198.068 275.173H164.831L233.331 33.8682H266.578L198.068 275.173Z" fill="white"/>
<path opacity="0.5" d="M239.671 275.173H206.433L274.943 33.8682H308.18L239.671 275.173Z" fill="white"/>
<path opacity="0.5" d="M319.68 275.173H303.066L371.575 33.8682H388.189L319.68 275.173Z" fill="white"/>
<path d="M98.426 295.704C108.016 244.271 133.289 220.135 154.796 207.845C134.195 227.328 120.182 294.736 98.426 295.704Z" fill="#FAFAFA"/>
<path d="M77.4069 291.654C70.3029 252.884 53.2267 237.717 38.77 231.271C52.7205 243.472 62.9325 294.096 77.4069 291.654Z" fill="#FAFAFA"/>
<path d="M89.8212 301.92C87.0862 246.153 65.8452 221.671 46.7443 209.914C64.0781 229.681 69.0331 302.675 89.8212 301.92Z" fill="#FAFAFA"/>
<path d="M89.8212 297.133C94.2612 241.101 117.953 214.878 139.016 201.567C119.676 222.737 112.376 296.192 89.8212 297.133Z" fill="#FAFAFA"/>
<path d="M93.32 305.898C100.424 248.338 84.7153 213.653 68.7845 192.803C81.6961 220.881 73.633 296.876 93.32 305.898Z" fill="#FAFAFA"/>
<path d="M115.44 288.387C133.369 254.856 155.862 246.864 173.16 246.047C154.858 252.405 130.341 295.864 115.44 288.387Z" fill="#FAFAFA"/>
<path d="M111.719 289.657C123.023 251.659 144.424 235.489 162.007 228.012C144.575 241.03 128.653 290.722 111.719 289.657Z" fill="#FAFAFA"/>
<path d="M91.8813 306.084C111.204 246.491 102.475 209.745 90.6292 187.368C97.8486 217.142 73.7039 295.881 91.8813 306.084Z" fill="#FAFAFA"/>
<path d="M59.0963 284.657V322.149C59.0963 331.73 76.3857 339.571 97.529 339.571C118.663 339.571 135.962 331.73 135.962 322.149V284.657H59.0963Z" fill="#F5F5F5"/>
<path d="M355.2 309.432C353.078 274.063 337.848 257.467 324.182 249.048C336.65 262.413 340.415 308.784 355.2 309.432Z" fill="#E0E0E0"/>
<path d="M369.976 306.671C378.164 280.031 391.2 269.57 401.66 265.13C391.049 273.504 379.682 308.34 369.976 306.671Z" fill="#E0E0E0"/>
<path d="M360.59 313.73C367.277 275.386 383.936 258.55 398.037 250.469C384.504 264.047 374.736 314.236 360.59 313.73Z" fill="#E0E0E0"/>
<path d="M361.007 310.436C362.784 271.896 348.842 253.87 335.566 244.724C346.986 259.296 345.636 309.787 361.007 310.436Z" fill="#E0E0E0"/>
<path d="M357.864 316.457C357.962 276.878 371.726 253.027 384.442 238.686C373.182 258 372.116 310.249 357.864 316.457Z" fill="#E0E0E0"/>
<path d="M344.233 304.415C334.829 281.327 320.115 275.857 308.34 275.298C320.319 279.667 333.364 309.557 344.233 304.415Z" fill="#E0E0E0"/>
<path d="M346.649 305.294C342.209 279.161 328.933 268.07 317.54 262.901C328.347 271.852 334.962 306.023 346.649 305.294Z" fill="#E0E0E0"/>
<path d="M358.823 316.589C350.733 275.608 359.889 250.345 369.932 234.964C362.419 255.424 372.125 309.565 358.823 316.589Z" fill="#E0E0E0"/>
<path d="M381.183 301.92V327.672C381.183 334.252 369.31 339.633 354.8 339.633C340.291 339.633 328.427 334.252 328.427 327.672V301.92H381.183Z" fill="#F5F5F5"/>
<path d="M222 379.673C317.089 379.673 394.174 375.173 394.174 369.621C394.174 364.069 317.089 359.569 222 359.569C126.911 359.569 49.8256 364.069 49.8256 369.621C49.8256 375.173 126.911 379.673 222 379.673Z" fill="#F5F5F5"/>
<path d="M237.096 114.455V126.096C237.094 126.918 236.766 127.704 236.186 128.285C235.605 128.866 234.818 129.193 233.997 129.195H205.43C204.609 129.193 203.822 128.866 203.241 128.285C202.661 127.704 202.333 126.918 202.331 126.096V83.8897C202.338 83.0715 202.667 82.2892 203.247 81.7123C203.828 81.1354 204.612 80.8106 205.43 80.8083H233.953C234.361 80.8036 234.767 80.8797 235.147 81.0321C235.526 81.1845 235.872 81.4103 236.164 81.6966C236.456 81.9828 236.688 82.3239 236.848 82.7002C237.008 83.0766 237.093 83.4808 237.096 83.8897V102.307" fill="white"/>
<path d="M233.952 129.701H205.43C204.488 129.701 203.584 129.327 202.918 128.661C202.252 127.995 201.878 127.091 201.878 126.149V83.8894C201.878 82.9474 202.252 82.0439 202.918 81.3778C203.584 80.7116 204.488 80.3374 205.43 80.3374H233.952C234.895 80.3374 235.798 80.7116 236.464 81.3778C237.13 82.0439 237.504 82.9474 237.504 83.8894V102.307H236.563V83.8894C236.563 83.1829 236.283 82.5053 235.783 82.0057C235.283 81.5061 234.606 81.2254 233.899 81.2254H205.43C204.723 81.2254 204.046 81.5061 203.546 82.0057C203.047 82.5053 202.766 83.1829 202.766 83.8894V126.096C202.766 126.803 203.047 127.48 203.546 127.98C204.046 128.479 204.723 128.76 205.43 128.76H233.952C234.659 128.76 235.337 128.479 235.836 127.98C236.336 127.48 236.616 126.803 236.616 126.096V114.454H237.558V126.096C237.565 126.571 237.477 127.044 237.298 127.484C237.119 127.925 236.854 128.325 236.518 128.661C236.182 128.998 235.781 129.263 235.341 129.442C234.9 129.62 234.428 129.708 233.952 129.701Z" fill="#407BFF"/>
<path d="M217.56 123.432C218.145 123.065 218.753 122.736 219.38 122.446C219.67 122.315 219.966 122.199 220.268 122.1C220.602 121.964 220.956 121.883 221.316 121.86L220.952 121.656C220.89 121.558 220.854 121.807 220.837 121.869L220.712 122.18C220.608 122.4 220.533 122.633 220.49 122.872C220.467 122.958 220.465 123.048 220.484 123.134C220.503 123.22 220.542 123.301 220.599 123.369C220.655 123.437 220.728 123.49 220.809 123.524C220.891 123.558 220.979 123.572 221.068 123.565C221.999 123.398 222.889 123.051 223.687 122.544H223.359C223.456 122.544 223.572 122.677 223.669 122.713C223.815 122.765 223.968 122.795 224.122 122.801C224.469 122.801 224.815 122.748 225.161 122.801C225.703 122.855 225.694 122.011 225.161 121.967C224.797 121.967 224.415 122.047 224.06 121.967C223.705 121.887 223.598 121.638 223.225 121.807C222.852 121.976 222.55 122.198 222.186 122.349C222.018 122.42 221.846 122.482 221.671 122.535L221.334 122.633C221.236 122.633 221.059 122.633 221.201 122.775L221.325 123.068C221.325 122.5 221.929 121.967 221.769 121.381C221.609 120.795 220.881 121.052 220.446 121.159C219.267 121.501 218.144 122.015 217.116 122.686C217.019 122.741 216.949 122.833 216.92 122.94C216.89 123.048 216.905 123.162 216.961 123.259C217.016 123.355 217.107 123.426 217.215 123.455C217.322 123.484 217.437 123.469 217.533 123.414L217.56 123.432Z" fill="#E0E0E0"/>
<path d="M233.739 87.104H205.634V88.0364H233.739V87.104Z" fill="#E0E0E0"/>
<path d="M230.56 93.7197H205.634V94.6521H230.56V93.7197Z" fill="#E0E0E0"/>
<path d="M233.739 100.344H205.634V101.277H233.739V100.344Z" fill="#E0E0E0"/>
<path d="M213.36 106.969H205.634V107.901H213.36V106.969Z" fill="#E0E0E0"/>
<path d="M226.875 106.969H216.601V107.901H226.875V106.969Z" fill="#E0E0E0"/>
<path d="M233.739 113.584H205.634V114.516H233.739V113.584Z" fill="#E0E0E0"/>
<path d="M209.497 125.413C208.64 125.413 207.802 125.158 207.089 124.682C206.377 124.206 205.821 123.529 205.493 122.737C205.165 121.946 205.079 121.074 205.247 120.234C205.414 119.393 205.827 118.621 206.433 118.015C207.039 117.409 207.811 116.996 208.651 116.829C209.492 116.662 210.363 116.747 211.155 117.075C211.947 117.403 212.624 117.959 213.1 118.672C213.576 119.384 213.83 120.222 213.83 121.079C213.83 122.228 213.374 123.331 212.561 124.143C211.748 124.956 210.646 125.413 209.497 125.413ZM209.497 117.687C208.824 117.687 208.166 117.887 207.606 118.261C207.047 118.635 206.611 119.166 206.354 119.788C206.097 120.41 206.03 121.095 206.162 121.755C206.294 122.415 206.619 123.021 207.095 123.496C207.572 123.971 208.178 124.294 208.839 124.425C209.499 124.555 210.183 124.486 210.805 124.228C211.426 123.969 211.956 123.531 212.329 122.971C212.702 122.411 212.9 121.752 212.898 121.079C212.896 120.179 212.536 119.316 211.899 118.68C211.261 118.044 210.397 117.687 209.497 117.687Z" fill="#407BFF"/>
<path d="M212.054 121.079C212.056 121.585 211.908 122.08 211.628 122.502C211.348 122.924 210.949 123.253 210.482 123.448C210.015 123.643 209.5 123.695 209.003 123.597C208.507 123.499 208.05 123.257 207.692 122.899C207.333 122.542 207.089 122.086 206.989 121.59C206.89 121.094 206.94 120.579 207.133 120.111C207.327 119.643 207.654 119.243 208.075 118.962C208.496 118.68 208.991 118.53 209.497 118.53C210.174 118.53 210.823 118.798 211.302 119.276C211.781 119.754 212.052 120.402 212.054 121.079Z" fill="#407BFF"/>
<path d="M226.511 120.315C226.661 119.099 227.093 117.934 227.772 116.914C228.411 115.946 229.184 115.138 229.894 114.188C231.324 112.412 232.807 110.636 234.334 108.86C237.336 105.37 240.382 101.916 243.703 98.6744C243.787 98.602 243.895 98.5612 244.006 98.5592C244.117 98.5571 244.226 98.5939 244.313 98.6633C244.4 98.7326 244.461 98.8302 244.484 98.9391C244.507 99.0481 244.491 99.1617 244.44 99.2605C242.042 103.23 239.369 106.986 236.652 110.707C235.285 112.554 233.899 114.392 232.478 116.204C231.759 117.092 231.102 118.051 230.303 118.868C229.466 119.762 228.433 120.45 227.284 120.874C227.145 120.921 226.993 120.911 226.861 120.848C226.728 120.786 226.625 120.674 226.573 120.537C226.538 120.468 226.517 120.392 226.511 120.315Z" fill="#407BFF"/>
<path d="M228.809 151.758L222.973 156.847L223.585 157.55L229.421 152.461L228.809 151.758Z" fill="#407BFF"/>
<path d="M221.858 143.879L219.39 154.892L220.3 155.096L222.768 144.083L221.858 143.879Z" fill="#407BFF"/>
<path d="M213.166 152.318L212.486 152.955L215.733 156.423L216.413 155.785L213.166 152.318Z" fill="#407BFF"/>
<path d="M281.549 362.561H273.993L273.069 345.068H280.617L281.549 362.561Z" fill="#7F3E3B"/>
<path d="M319.644 362.561H312.088L309.131 345.068H316.679L319.644 362.561Z" fill="#7F3E3B"/>
<path d="M311.599 361.683H320.08C320.228 361.68 320.371 361.731 320.485 361.826C320.599 361.92 320.676 362.052 320.701 362.198L321.873 368.911C321.898 369.079 321.885 369.25 321.838 369.413C321.79 369.576 321.707 369.726 321.596 369.854C321.485 369.982 321.347 370.085 321.193 370.155C321.039 370.225 320.871 370.261 320.701 370.261C317.744 370.207 316.315 370.03 312.576 370.03C310.285 370.03 304.096 370.27 300.925 370.27C297.755 370.27 297.489 367.135 298.794 366.851C304.682 365.581 308.402 363.823 310.338 362.153C310.688 361.85 311.136 361.683 311.599 361.683Z" fill="#263238"/>
<path d="M273.806 361.683H282.047C282.195 361.68 282.339 361.731 282.452 361.826C282.566 361.92 282.643 362.052 282.668 362.198L283.84 368.911C283.868 369.078 283.858 369.249 283.812 369.411C283.767 369.574 283.686 369.725 283.576 369.854C283.466 369.982 283.33 370.085 283.176 370.155C283.022 370.226 282.855 370.262 282.686 370.261C279.72 370.207 275.422 370.03 271.684 370.03C267.315 370.03 266.205 370.27 261.072 370.27C257.973 370.27 257.263 367.135 258.577 366.851C264.544 365.563 266.702 365.421 271.95 362.278C272.503 361.914 273.145 361.709 273.806 361.683Z" fill="#263238"/>
<path d="M273.566 127.348L263.248 124.32C263.248 124.32 252.734 149.3 249.173 150.96C244.333 153.18 231.413 159.991 225.943 163.206C225.57 164.44 225.561 167.823 226.156 168.8C235.116 168.09 253.497 162.007 257.032 158.615C265.095 150.872 273.566 127.348 273.566 127.348Z" fill="#7F3E3B"/>
<path d="M276.692 122.633C279.622 129.168 259.5 157.833 259.5 157.833L249.732 147.692C249.732 147.692 258.373 125.998 263.052 117.678C267.83 109.126 273.504 115.44 276.692 122.633Z" fill="#407BFF"/>
<path opacity="0.4" d="M276.692 122.633C279.622 129.168 259.5 157.833 259.5 157.833L249.732 147.692C249.732 147.692 258.373 125.998 263.052 117.678C267.83 109.126 273.504 115.44 276.692 122.633Z" fill="white"/>
<path d="M249.022 146.795C248.409 147.159 247.095 149.548 246.802 150.738C246.509 151.928 253.382 161.11 256.055 160.737C258.728 160.364 261.782 157.762 262.333 156.359C262.884 154.956 250.31 146.04 249.022 146.795Z" fill="#407BFF"/>
<path d="M227.088 162.637L220.872 161.5L221.245 170.38C221.245 170.38 223.43 171.268 228.136 168.356L227.088 162.637Z" fill="#7F3E3B"/>
<path d="M213.36 164.457L214.496 169.919L221.201 170.416L220.828 161.509L213.36 164.457Z" fill="#7F3E3B"/>
<path opacity="0.2" d="M273.069 345.077L273.549 354.09H281.097L280.626 345.077H273.069Z" fill="black"/>
<path opacity="0.2" d="M316.687 345.077H309.131L310.658 354.09H318.215L316.687 345.077Z" fill="black"/>
<path d="M267.093 113.717C267.093 113.717 257.014 139.665 263.461 182.138H303.856C304.424 175.922 302.08 142.542 309.424 113.327C304.985 112.461 300.494 111.888 295.979 111.613C290.259 111.284 284.525 111.284 278.805 111.613C274.853 112.015 270.938 112.718 267.093 113.717Z" fill="#407BFF"/>
<path opacity="0.2" d="M267.093 113.717C267.093 113.717 257.014 139.665 263.461 182.138H303.856C304.424 175.922 302.08 142.542 309.424 113.327C304.985 112.461 300.494 111.888 295.979 111.613C290.259 111.284 284.525 111.284 278.805 111.613C274.853 112.015 270.938 112.718 267.093 113.717Z" fill="black"/>
<path opacity="0.2" d="M300.304 120.537C299.416 125.35 300.366 136.85 304.318 150.143C304.798 138.73 306.284 127.382 308.758 116.23V116.177C306.076 115.902 301.165 116.026 300.304 120.537Z" fill="black"/>
<path d="M294.505 95.5576C293.155 101.081 292.294 107.927 295.979 111.613C295.979 111.613 293.493 117.225 283.228 117.225C273.842 117.225 278.788 111.613 278.788 111.613C285.004 110.147 285.066 102.528 284.196 98.2305L294.505 95.5576Z" fill="#7F3E3B"/>
<path d="M283.272 117.216C289.319 119.107 290.518 121.043 290.518 121.043C290.518 121.043 298.057 117.98 297.773 111.337C296.857 110.66 295.868 110.088 294.825 109.632C294.825 109.632 294.186 114.552 283.272 117.216Z" fill="#407BFF"/>
<path d="M283.272 117.216C279.88 117.536 277.056 120.44 277.056 120.44C277.056 120.44 274.898 118.175 276.967 111.604C276.967 111.604 278.983 110.92 280.652 110.565C280.608 110.574 279.249 115.795 283.272 117.216Z" fill="#407BFF"/>
<path opacity="0.2" d="M284.213 98.2394C284.728 100.752 284.924 104.455 283.734 107.306C284.704 107.147 285.646 106.848 286.531 106.418C290.083 104.784 291.912 102.2 293.884 98.4259C294.061 97.4402 294.274 96.4811 294.505 95.5576L284.213 98.2394Z" fill="black"/>
<path d="M283.015 77.9042C280.599 78.6946 275.2 83.3299 280.351 85.6654C285.501 88.0008 287.224 76.5367 283.015 77.9042Z" fill="#263238"/>
<path d="M299.309 88.7997C296.956 96.0458 295.944 100.344 291.317 103.363C284.364 107.803 276.328 102.475 276.514 94.8204C276.674 87.8851 280.493 77.2025 288.316 75.8261C296.139 74.4497 301.662 81.5803 299.309 88.7997Z" fill="#7F3E3B"/>
<path d="M287.961 80.8702C283.965 81.5451 280.635 81.332 279.427 78.0109C278.219 74.6897 283.716 71.2088 287.508 72.7717C290.305 69.859 297.942 72.0968 298.928 74.894C303.368 74.6098 307.568 79.7247 304.557 82.3443C305.238 82.7673 305.814 83.3399 306.24 84.0187C306.667 84.6974 306.933 85.4644 307.018 86.2613C307.104 87.0583 307.007 87.8643 306.734 88.6181C306.462 89.3719 306.021 90.0536 305.445 90.6116C306.742 94.4655 302.071 98.3105 298.386 96.7477C294.754 95.6643 292.774 96.5523 292.268 94.208C291.761 91.8637 293.04 89.5993 296.13 89.1464C294.567 87.2816 294.186 84.3334 295.242 83.0636C291.504 84.7597 288.44 82.6285 287.961 80.8702Z" fill="#263238"/>
<path d="M283.166 96.4901C283.872 96.5494 284.583 96.4686 285.258 96.2522C285.933 96.0358 286.559 95.6881 287.099 95.2292C287.133 95.1945 287.151 95.1484 287.151 95.1004C287.151 95.0525 287.133 95.0063 287.099 94.9716C287.084 94.9544 287.064 94.9407 287.043 94.9313C287.022 94.9219 286.999 94.917 286.975 94.917C286.952 94.917 286.929 94.9219 286.907 94.9313C286.886 94.9407 286.867 94.9544 286.851 94.9716C286.258 95.4631 285.562 95.8142 284.815 95.9987C284.068 96.1833 283.288 96.1964 282.535 96.0372C282.488 96.0292 282.44 96.0395 282.4 96.0659C282.361 96.0923 282.333 96.1329 282.322 96.1793C282.315 96.2016 282.314 96.225 282.317 96.2479C282.32 96.2709 282.329 96.2929 282.341 96.3123C282.354 96.3317 282.371 96.3482 282.39 96.3605C282.41 96.3728 282.432 96.3807 282.455 96.3836C282.69 96.431 282.927 96.4666 283.166 96.4901Z" fill="#263238"/>
<path d="M299.727 98.8077C298.215 99.9879 296.306 100.538 294.399 100.344C291.921 100.069 291.735 97.6266 293.289 95.7796C294.692 94.1102 297.675 92.2276 299.744 93.453C301.813 94.6785 301.583 97.3336 299.727 98.8077Z" fill="#7F3E3B"/>
<path d="M290.012 182.138C290.012 182.138 288.982 191.639 287.668 204.507C286.158 219.096 284.284 238.037 283.094 252.459C283.094 252.53 283.094 252.592 283.094 252.654C282.863 255.398 282.659 257.982 282.491 260.309C280.803 283.849 283.823 352.332 283.823 352.332H271.018C271.018 352.332 259.225 282.446 259.518 258.488C259.793 235.462 263.452 182.12 263.452 182.12L290.012 182.138Z" fill="#407BFF"/>
<path d="M284.87 347.332C284.933 347.332 284.648 352.607 284.648 352.607H269.899L269.526 346.817L284.87 347.332Z" fill="#263238"/>
<path opacity="0.2" d="M287.712 204.507C286.203 219.097 284.329 238.038 283.139 252.459C283.139 252.53 283.139 252.592 283.139 252.654C280.324 238.97 279.445 221.956 280.537 193.939L287.712 204.507Z" fill="black"/>
<path d="M277.784 182.138C277.784 182.138 283.68 236.714 287.348 258.337C291.371 282.02 307.248 352.341 307.248 352.341H321.083C321.083 352.341 311.759 283.965 309.93 260.486C307.958 235.036 303.882 182.138 303.882 182.138H277.784Z" fill="#407BFF"/>
<path d="M321.252 347.652C321.314 347.652 321.731 352.607 321.731 352.607H306.529L305.419 347.075L321.252 347.652Z" fill="#263238"/>
<path d="M286.762 88.4804C286.602 89.0754 286.167 89.4927 285.785 89.3684C285.403 89.2441 285.217 88.7291 285.368 88.1341C285.519 87.5391 285.963 87.1218 286.345 87.2461C286.726 87.3704 286.913 87.9121 286.762 88.4804Z" fill="#263238"/>
<path d="M280.12 87.0242C279.96 87.6192 279.525 88.0365 279.143 87.9122C278.761 87.7879 278.575 87.2817 278.726 86.6779C278.877 86.0741 279.321 85.6656 279.702 85.7899C280.084 85.9142 280.271 86.4293 280.12 87.0242Z" fill="#263238"/>
<path d="M283.219 87.7876C282.043 89.4609 280.655 90.9743 279.09 92.2898C279.871 93.4974 281.754 93.4353 281.754 93.4353L283.219 87.7876Z" fill="#630F0F"/>
<path d="M290.376 86.7397C290.323 86.7258 290.274 86.7002 290.233 86.6648C290.191 86.6295 290.158 86.5853 290.136 86.5354C289.98 86.1248 289.725 85.7591 289.394 85.4709C289.062 85.1828 288.664 84.9811 288.236 84.8838C288.19 84.8775 288.145 84.8617 288.105 84.8373C288.065 84.8129 288.031 84.7805 288.004 84.742C287.977 84.7036 287.959 84.6601 287.95 84.6142C287.941 84.5682 287.942 84.5209 287.952 84.4753C287.969 84.3809 288.022 84.2969 288.1 84.2407C288.178 84.1845 288.274 84.1604 288.369 84.1734C288.915 84.2851 289.424 84.5324 289.849 84.8924C290.274 85.2524 290.602 85.7136 290.802 86.2335C290.836 86.3234 290.835 86.4226 290.798 86.5115C290.762 86.6003 290.694 86.6723 290.607 86.7131C290.535 86.7476 290.454 86.757 290.376 86.7397Z" fill="#263238"/>
<path d="M278.832 83.987C278.784 83.967 278.739 83.9401 278.699 83.9071C278.665 83.874 278.639 83.8346 278.62 83.7912C278.602 83.7477 278.593 83.7011 278.593 83.654C278.593 83.6069 278.602 83.5602 278.62 83.5168C278.639 83.4733 278.665 83.4339 278.699 83.4009C279.074 82.9655 279.548 82.6256 280.081 82.4094C280.613 82.1933 281.19 82.107 281.762 82.1577C281.809 82.1639 281.853 82.1798 281.893 82.2042C281.933 82.2285 281.968 82.261 281.994 82.2994C282.021 82.3378 282.04 82.3814 282.049 82.4273C282.058 82.4732 282.057 82.5205 282.047 82.5662C282.027 82.6595 281.974 82.7422 281.896 82.7981C281.819 82.854 281.724 82.8789 281.629 82.8681C281.174 82.8344 280.717 82.9085 280.296 83.0844C279.875 83.2603 279.501 83.533 279.205 83.8804C279.158 83.9291 279.098 83.9646 279.033 83.9832C278.967 84.0019 278.898 84.0032 278.832 83.987Z" fill="#263238"/>
<path d="M313.899 123.636L304.362 129.408C304.362 129.408 315.018 152.496 314.956 156.377C314.778 163.623 317.895 179.332 317.052 187.608C318.224 188.025 321.492 188.123 322.522 187.546C324.413 180.06 327.033 160.391 326.278 155.462C324.626 144.744 313.899 123.636 313.899 123.636Z" fill="#7F3E3B"/>
<path d="M309.424 113.326C316.528 114.365 326.651 150.418 326.651 150.418L313.508 155.4C313.508 155.4 302.062 135.864 299.256 127.082C296.237 117.917 301.813 112.208 309.424 113.326Z" fill="#407BFF"/>
<path opacity="0.4" d="M309.424 113.326C316.528 114.365 326.651 150.418 326.651 150.418L313.508 155.4C313.508 155.4 302.062 135.864 299.256 127.082C296.237 117.917 301.813 112.208 309.424 113.326Z" fill="white"/>
<path d="M309.024 363.006C308.516 363.05 308.009 362.911 307.594 362.615C307.462 362.5 307.363 362.353 307.305 362.188C307.247 362.023 307.234 361.846 307.266 361.674C307.271 361.568 307.305 361.466 307.362 361.377C307.42 361.288 307.5 361.216 307.594 361.168C308.482 360.741 310.818 362.233 311.084 362.411C311.114 362.429 311.136 362.456 311.149 362.488C311.162 362.52 311.164 362.555 311.155 362.588C311.147 362.623 311.129 362.654 311.104 362.679C311.079 362.704 311.048 362.722 311.013 362.73C310.363 362.899 309.696 362.991 309.024 363.006ZM307.985 361.416C307.906 361.411 307.826 361.426 307.754 361.461C307.717 361.48 307.685 361.509 307.664 361.545C307.642 361.581 307.63 361.623 307.63 361.665C307.607 361.783 307.615 361.906 307.652 362.021C307.69 362.135 307.755 362.239 307.843 362.322C308.234 362.668 309.219 362.713 310.507 362.455C309.745 361.942 308.887 361.589 307.985 361.416Z" fill="#407BFF"/>
<path d="M310.978 362.739C310.952 362.747 310.924 362.747 310.898 362.739C310.134 362.322 308.704 360.661 308.909 359.817C308.942 359.687 309.017 359.571 309.123 359.487C309.229 359.404 309.36 359.357 309.495 359.356C309.629 359.338 309.766 359.348 309.896 359.387C310.026 359.425 310.146 359.49 310.25 359.578C311.093 360.297 311.138 362.481 311.138 362.57C311.138 362.603 311.13 362.636 311.114 362.666C311.099 362.695 311.076 362.72 311.049 362.739C311.025 362.743 311.001 362.743 310.978 362.739ZM309.601 359.64H309.521C309.291 359.64 309.264 359.773 309.255 359.817C309.131 360.315 310.036 361.593 310.782 362.153C310.779 361.304 310.509 360.477 310.01 359.791C309.897 359.692 309.751 359.638 309.601 359.64Z" fill="#407BFF"/>
<path d="M270.6 363.006C269.958 363.066 269.315 362.903 268.78 362.544C268.663 362.431 268.575 362.291 268.524 362.136C268.473 361.981 268.46 361.817 268.487 361.656C268.497 361.556 268.532 361.46 268.588 361.377C268.643 361.293 268.719 361.225 268.807 361.176C269.748 360.661 272.714 362.206 273.051 362.384C273.083 362.402 273.108 362.43 273.122 362.464C273.137 362.498 273.14 362.535 273.131 362.57C273.124 362.608 273.106 362.643 273.079 362.67C273.052 362.697 273.018 362.715 272.98 362.721C272.197 362.888 271.401 362.983 270.6 363.006ZM269.304 361.416C269.188 361.41 269.072 361.431 268.966 361.478C268.932 361.499 268.903 361.527 268.881 361.561C268.859 361.595 268.846 361.634 268.842 361.674C268.824 361.779 268.832 361.886 268.867 361.987C268.901 362.088 268.959 362.178 269.037 362.251C269.481 362.659 270.716 362.73 272.403 362.455C271.438 361.932 270.389 361.58 269.304 361.416Z" fill="#407BFF"/>
<path d="M272.953 362.739H272.874C271.986 362.331 270.21 360.697 270.432 359.844C270.432 359.64 270.636 359.391 271.124 359.347C271.299 359.325 271.477 359.34 271.645 359.392C271.814 359.444 271.969 359.532 272.101 359.649C272.989 360.439 273.131 362.473 273.14 362.561C273.139 362.593 273.131 362.625 273.115 362.652C273.1 362.68 273.078 362.704 273.051 362.721C273.022 362.74 272.987 362.746 272.953 362.739ZM271.249 359.64H271.142C270.822 359.64 270.796 359.8 270.787 359.835C270.68 360.35 271.843 361.611 272.749 362.188C272.704 361.339 272.393 360.526 271.861 359.862C271.693 359.713 271.474 359.634 271.249 359.64Z" fill="#407BFF"/>
<path d="M339.792 194.906L294.4 200.825C292.411 201.085 291.009 202.907 291.269 204.896L295.134 234.535C295.393 236.524 297.216 237.927 299.205 237.667L344.597 231.748C346.586 231.488 347.988 229.666 347.729 227.677L343.864 198.037C343.604 196.048 341.781 194.646 339.792 194.906Z" fill="#263238"/>
<path opacity="0.3" d="M339.792 194.906L294.4 200.825C292.411 201.085 291.009 202.907 291.269 204.896L295.134 234.535C295.393 236.524 297.216 237.927 299.205 237.667L344.597 231.748C346.586 231.488 347.988 229.666 347.729 227.677L343.864 198.037C343.604 196.048 341.781 194.646 339.792 194.906Z" fill="black"/>
<path d="M314.965 204.702C314.206 204.701 313.468 204.448 312.869 203.982C312.144 203.423 311.668 202.599 311.546 201.691L310.747 195.529C310.688 195.08 310.719 194.623 310.837 194.186C310.954 193.749 311.157 193.339 311.434 192.981C311.71 192.622 312.054 192.321 312.447 192.095C312.839 191.87 313.273 191.724 313.722 191.666L323.978 190.325C324.886 190.207 325.804 190.453 326.529 191.011C327.255 191.569 327.73 192.392 327.85 193.3L328.658 199.462C328.771 200.369 328.523 201.285 327.966 202.009C327.409 202.734 326.589 203.21 325.683 203.334L315.418 204.666C315.268 204.687 315.116 204.699 314.965 204.702ZM324.431 192.27H324.244L313.979 193.611C313.791 193.635 313.61 193.696 313.446 193.79C313.281 193.884 313.137 194.01 313.022 194.16C312.906 194.31 312.822 194.482 312.772 194.665C312.723 194.848 312.711 195.039 312.736 195.227L313.535 201.389C313.588 201.77 313.789 202.115 314.095 202.348C314.245 202.464 314.416 202.549 314.599 202.597C314.782 202.646 314.973 202.658 315.16 202.633L325.417 201.301C325.796 201.248 326.14 201.048 326.374 200.744C326.609 200.44 326.714 200.056 326.669 199.676L325.896 193.584C325.872 193.396 325.811 193.214 325.717 193.049C325.622 192.885 325.496 192.74 325.346 192.625C325.087 192.414 324.764 192.299 324.431 192.296V192.27Z" fill="#263238"/>
<path d="M344.115 194.344L298.723 200.263C296.734 200.523 295.332 202.345 295.591 204.334L299.456 233.973C299.716 235.962 301.538 237.365 303.527 237.105L348.92 231.186C350.909 230.926 352.311 229.104 352.051 227.115L348.186 197.475C347.927 195.486 346.104 194.084 344.115 194.344Z" fill="#263238"/>
<path d="M317.478 186.364L314.583 192.003L323.072 192.394C323.685 191.163 323.907 189.774 323.711 188.413C323.514 187.051 322.907 185.782 321.971 184.775L317.478 186.364Z" fill="#7F3E3B"/>
<path d="M317.824 196.372L322.886 195.68L323.072 192.394L314.583 192.003L314.716 193.842C314.742 194.216 314.844 194.582 315.017 194.916C315.19 195.249 315.43 195.544 315.721 195.781C316.012 196.019 316.35 196.194 316.711 196.295C317.073 196.397 317.452 196.423 317.824 196.372Z" fill="#7F3E3B"/>
<path d="M311.528 153.349C311.395 154.042 312.336 156.608 313.029 157.602C313.722 158.597 325.177 159.476 326.651 157.221C328.125 154.965 328.187 150.951 327.486 149.61C326.784 148.27 311.804 151.848 311.528 153.349Z" fill="#407BFF"/>
<path d="M144.193 125.634C142.764 127.508 141.21 129.559 139.753 131.575C138.297 133.591 136.894 135.642 135.553 137.72C132.864 141.707 130.543 145.931 128.618 150.339C128.396 150.862 128.192 151.386 128.014 151.91C127.919 152.171 127.831 152.428 127.748 152.683L127.623 153.074L127.57 153.26V153.313C127.407 153.994 127.374 154.699 127.472 155.391C127.779 157.625 128.305 159.823 129.044 161.954C130.563 166.545 132.596 171.278 134.594 175.868L130.056 178.746C126.652 174.545 123.705 169.993 121.265 165.168C119.921 162.563 118.898 159.805 118.219 156.954C117.778 155.11 117.706 153.197 118.006 151.324L118.077 150.898L118.148 150.614L118.282 150.063C118.361 149.699 118.45 149.335 118.557 148.98C118.752 148.261 118.965 147.568 119.196 146.875C121.053 141.651 123.477 136.645 126.425 131.948C127.845 129.648 129.302 127.393 130.865 125.217C132.427 123.041 133.973 120.928 135.775 118.761L144.193 125.634Z" fill="#263238"/>
<path d="M133.395 174.226L138.066 176.703L132.738 182.999C132.738 182.999 129.382 180.726 129.186 177.263L133.395 174.226Z" fill="#FFC3BD"/>
<path d="M144.353 180.584L138.599 185.157L132.694 182.999L138.066 176.703L144.353 180.584Z" fill="#FFC3BD"/>
<path d="M214.168 160.728L219.691 163.579L219.203 165.568L214.763 170.008C214.763 170.008 211.566 167.521 211.637 164.058L214.168 160.728Z" fill="#FFC3BD"/>
<path d="M214.967 161.509L220.029 160.559L223.279 161.944L221.112 162.308L219.691 163.596L214.967 161.509Z" fill="#FFC3BD"/>
<path d="M225.224 170.664L219.736 171.846C219.16 171.967 218.561 171.896 218.031 171.641L214.736 170.043L219.176 165.603L222.116 164.715L225.792 168.933C225.906 169.074 225.983 169.241 226.016 169.419C226.049 169.598 226.037 169.781 225.98 169.954C225.924 170.126 225.825 170.282 225.693 170.406C225.56 170.53 225.399 170.619 225.224 170.664Z" fill="#FFC3BD"/>
<path d="M164.431 89.6346C164.555 90.2296 164.964 90.647 165.319 90.5226C165.674 90.3983 165.923 89.8921 165.807 89.2972C165.692 88.7022 165.266 88.2849 164.919 88.4092C164.573 88.5335 164.28 89.0397 164.431 89.6346Z" fill="#263238"/>
<path d="M164.911 90.6558C165.991 92.3329 167.297 93.8538 168.791 95.1757C167.903 96.3745 166.056 96.2857 166.056 96.2857L164.911 90.6558Z" fill="#FF5652"/>
<path d="M161.616 86.7666C161.527 86.7629 161.442 86.7284 161.376 86.6689C161.311 86.601 161.274 86.5103 161.274 86.4158C161.274 86.3214 161.311 86.2306 161.376 86.1628C161.751 85.7378 162.223 85.4089 162.751 85.2034C163.28 84.998 163.849 84.9219 164.413 84.9817C164.496 85.0085 164.566 85.0641 164.612 85.1383C164.657 85.2126 164.674 85.3006 164.66 85.3864C164.646 85.4723 164.602 85.5503 164.536 85.6064C164.469 85.6625 164.385 85.6929 164.298 85.6921C163.851 85.6505 163.4 85.7158 162.983 85.8825C162.566 86.0493 162.195 86.3127 161.9 86.6512C161.865 86.6909 161.821 86.722 161.772 86.742C161.722 86.7621 161.669 86.7705 161.616 86.7666Z" fill="#263238"/>
<path d="M148.296 100.157C149.326 105.396 149.939 112.651 146.28 116.141C146.28 116.141 147.71 121.469 157.442 121.469C168.152 121.469 162.593 116.798 162.593 116.798C158.153 115.422 158.153 110.351 159.201 106.284L148.296 100.157Z" fill="#FFC3BD"/>
<path d="M144.744 119.729C143.856 118.326 144.149 114.072 145.215 113.379C146.92 112.261 153.953 112.385 163.286 115.111C162.025 119.178 164.076 121.469 164.076 121.469L144.744 119.729Z" fill="#407BFF"/>
<path opacity="0.2" d="M136.93 127.268C133.6 130.554 132.632 137.285 132.996 141.876C133.813 140.481 134.683 139.087 135.58 137.729C136.921 135.642 138.351 133.608 139.789 131.566C140.189 131.007 140.597 130.438 141.014 129.87C141.094 129.506 141.165 129.142 141.236 128.787L136.93 127.268Z" fill="black"/>
<path d="M113.344 361.416C113.926 361.619 114.564 361.583 115.12 361.318C115.228 361.22 115.302 361.092 115.332 360.95C115.362 360.808 115.347 360.66 115.289 360.528C115.256 360.418 115.2 360.318 115.125 360.232C115.05 360.146 114.958 360.077 114.854 360.03C113.886 359.569 111.657 360.474 111.568 360.51C111.538 360.522 111.511 360.543 111.493 360.569C111.474 360.596 111.463 360.628 111.462 360.661C111.46 360.694 111.469 360.727 111.486 360.756C111.504 360.784 111.529 360.807 111.559 360.821C112.132 361.082 112.73 361.281 113.344 361.416ZM114.516 360.27L114.712 360.332C114.774 360.359 114.829 360.4 114.873 360.45C114.918 360.501 114.95 360.561 114.969 360.625C115.058 360.927 114.969 361.025 114.907 361.06C114.525 361.389 113.131 361.06 112.092 360.679C112.868 360.348 113.71 360.199 114.552 360.243L114.516 360.27Z" fill="#407BFF"/>
<path d="M111.604 360.812H111.684C112.501 360.581 114.232 359.347 114.25 358.539C114.253 358.411 114.211 358.286 114.132 358.185C114.052 358.085 113.94 358.015 113.815 357.988C113.692 357.942 113.561 357.924 113.43 357.935C113.3 357.945 113.174 357.985 113.06 358.05C112.11 358.539 111.506 360.519 111.479 360.599C111.466 360.625 111.459 360.654 111.459 360.683C111.459 360.712 111.466 360.741 111.479 360.767C111.514 360.797 111.558 360.813 111.604 360.812ZM113.628 358.272H113.708C113.913 358.343 113.913 358.45 113.913 358.494C113.913 358.974 112.758 359.933 111.915 360.323C112.141 359.54 112.595 358.841 113.22 358.317C113.287 358.28 113.361 358.257 113.437 358.249C113.514 358.241 113.591 358.249 113.664 358.272H113.628Z" fill="#407BFF"/>
<path d="M166.225 362.588C167.113 362.588 168.001 362.464 168.329 362.046C168.405 361.938 168.446 361.81 168.446 361.678C168.446 361.546 168.405 361.417 168.329 361.309C168.208 361.11 168.013 360.967 167.787 360.91C166.598 360.59 164.093 362.011 163.987 362.073C163.956 362.09 163.931 362.116 163.917 362.148C163.902 362.18 163.899 362.216 163.907 362.25C163.912 362.285 163.927 362.317 163.951 362.343C163.975 362.368 164.006 362.386 164.04 362.393C164.761 362.52 165.492 362.585 166.225 362.588ZM167.361 361.203C167.47 361.189 167.581 361.189 167.69 361.203C167.758 361.217 167.823 361.246 167.88 361.287C167.936 361.329 167.984 361.382 168.018 361.442C168.143 361.655 168.098 361.753 168.018 361.815C167.69 362.277 165.878 362.286 164.546 362.099C165.418 361.622 166.374 361.318 167.361 361.203Z" fill="#407BFF"/>
<path d="M164.058 362.393H164.129C165.017 362.011 166.704 360.457 166.58 359.649C166.58 359.454 166.411 359.223 165.949 359.169C165.781 359.154 165.611 359.172 165.45 359.222C165.288 359.273 165.138 359.354 165.008 359.462C164.12 360.217 163.898 362.126 163.889 362.224C163.889 362.253 163.895 362.282 163.907 362.308C163.919 362.334 163.938 362.357 163.96 362.375C163.99 362.391 164.024 362.397 164.058 362.393ZM165.834 359.489H165.941C166.242 359.489 166.26 359.64 166.269 359.676C166.349 360.164 165.186 361.38 164.307 361.904C164.386 361.091 164.714 360.322 165.248 359.702C165.404 359.569 165.602 359.493 165.807 359.489H165.834Z" fill="#407BFF"/>
<path d="M156.19 362.224H163.348L164.058 345.636H156.901L156.19 362.224Z" fill="#FFC3BD"/>
<path d="M103.745 359.161L110.654 360.626L116.923 344.757L110.014 343.292L103.745 359.161Z" fill="#FFC3BD"/>
<path d="M111.293 359.72L103.425 358.015C103.288 357.986 103.144 358.004 103.019 358.067C102.893 358.13 102.792 358.234 102.733 358.361L99.9977 364.284C99.9318 364.429 99.8994 364.587 99.9031 364.746C99.9067 364.906 99.9463 365.062 100.019 365.204C100.091 365.345 100.195 365.469 100.322 365.565C100.449 365.661 100.596 365.727 100.753 365.758C103.514 366.3 104.882 366.433 108.336 367.179C110.467 367.641 115.271 368.813 118.211 369.443C121.15 370.074 122.153 367.259 121.008 366.735C115.875 364.391 113.726 362.295 112.332 360.395C112.081 360.049 111.711 359.808 111.293 359.72Z" fill="#263238"/>
<path d="M163.303 361.416H155.48C155.338 361.418 155.201 361.467 155.09 361.555C154.979 361.644 154.901 361.767 154.867 361.904L153.455 368.271C153.421 368.425 153.421 368.585 153.457 368.739C153.492 368.893 153.562 369.037 153.661 369.16C153.76 369.283 153.886 369.382 154.029 369.449C154.171 369.517 154.328 369.551 154.485 369.55C157.309 369.497 161.385 369.337 164.928 369.337C169.075 369.337 170.549 369.559 175.407 369.559C178.346 369.559 179.163 366.593 177.937 366.318C172.334 365.092 169.866 364.959 165.026 361.975C164.514 361.635 163.918 361.442 163.303 361.416Z" fill="#263238"/>
<path opacity="0.2" d="M164.058 345.645L163.694 354.188H156.528L156.892 345.645H164.058Z" fill="black"/>
<path opacity="0.2" d="M110.014 343.292L116.923 344.757L113.691 352.936L106.782 351.479L110.014 343.292Z" fill="black"/>
<path d="M161.314 180.042C161.314 180.042 153.18 234.778 148.722 255.282C143.838 277.74 117.642 352.074 117.642 352.074L104.784 349.25C104.784 349.25 123.112 288.707 127.206 257.316C130.358 233.207 136.566 180.06 136.566 180.06L161.314 180.042Z" fill="#263238"/>
<path opacity="0.1" d="M161.314 180.042C161.314 180.042 153.18 234.778 148.722 255.282C143.838 277.74 117.642 352.074 117.642 352.074L104.784 349.25C104.784 349.25 123.112 288.707 127.206 257.316C130.358 233.207 136.566 180.06 136.566 180.06L161.314 180.042Z" fill="white"/>
<path d="M120.706 347.75C120.759 347.75 118.317 352.385 118.317 352.385L103.896 349.259L105.113 344.926L120.706 347.75Z" fill="#263238"/>
<path opacity="0.3" d="M156.173 199.542C146.778 201.389 147.772 236.439 148.9 254.465C151.564 241.722 155.578 217.169 158.295 199.8C157.636 199.479 156.889 199.388 156.173 199.542Z" fill="black"/>
<path d="M174.936 180.042C174.936 180.042 175.922 233.588 175.14 255.433C174.332 278.148 166.402 352.536 166.402 352.536H154.228C154.228 352.536 153.784 279.48 153.242 257.165C152.656 232.842 149.69 180.042 149.69 180.042H174.936Z" fill="#263238"/>
<path opacity="0.1" d="M174.936 180.042C174.936 180.042 175.922 233.588 175.14 255.433C174.332 278.148 166.402 352.536 166.402 352.536H154.228C154.228 352.536 153.784 279.48 153.242 257.165C152.656 232.842 149.69 180.042 149.69 180.042H174.936Z" fill="white"/>
<path d="M168.72 347.705C168.773 347.705 168.027 352.74 168.027 352.74H153.251L152.852 348.247L168.72 347.705Z" fill="#263238"/>
<path d="M175.877 124.95C177.343 132.694 180.06 154.325 175.815 185.796L134.363 185.157C134.124 179.66 138.493 149.823 134.452 123.334C134.34 122.583 134.378 121.817 134.565 121.08C134.751 120.344 135.083 119.652 135.54 119.045C135.997 118.438 136.571 117.929 137.227 117.546C137.884 117.163 138.61 116.915 139.363 116.816C141.459 116.532 143.892 116.266 146.289 116.15C151.71 115.839 157.145 115.839 162.566 116.15C164.342 116.319 166.118 116.577 167.699 116.852C169.722 117.214 171.588 118.182 173.048 119.628C174.509 121.075 175.496 122.931 175.877 124.95Z" fill="#263238"/>
<path opacity="0.2" d="M177.014 132.641L170.034 134.372C169.501 140.89 173.799 148.269 178.097 153.908C178.141 146.804 177.779 139.703 177.014 132.641Z" fill="black"/>
<path d="M174.146 121.469C175.327 123.592 176.605 125.909 177.92 128.067C179.234 130.225 180.584 132.436 181.942 134.567C184.56 138.755 187.531 142.712 190.822 146.395C191.231 146.813 191.63 147.239 192.039 147.63L192.341 147.923L192.581 148.136C192.714 148.278 192.945 148.438 193.113 148.589C193.93 149.228 194.889 149.903 195.946 150.551C198.033 151.839 200.271 153.1 202.544 154.316C207.09 156.758 211.797 159.156 216.441 161.58L214.603 166.633C209.347 165.375 204.173 163.8 199.107 161.918C196.568 160.967 194.019 159.937 191.471 158.685C190.115 158.04 188.801 157.31 187.537 156.501C187.19 156.252 186.862 156.057 186.489 155.764L185.956 155.355L185.521 154.991C184.926 154.512 184.384 154.014 183.834 153.517C181.736 151.561 179.778 149.46 177.973 147.23C176.197 145.072 174.536 142.79 172.965 140.579C171.393 138.368 169.901 136.024 168.525 133.67C167.148 131.317 165.781 129.008 164.502 126.451L174.146 121.469Z" fill="#263238"/>
<path d="M144.291 92.4051C146.227 99.6335 146.955 103.949 151.457 106.968C158.171 111.497 166.553 106.302 166.784 98.6389C167.015 91.748 163.809 81.0831 156.057 79.6268C154.348 79.2951 152.582 79.4063 150.928 79.9498C149.274 80.4933 147.787 81.451 146.607 82.7318C145.428 84.0126 144.596 85.5739 144.191 87.2671C143.785 88.9603 143.82 90.7291 144.291 92.4051Z" fill="#FFC3BD"/>
<path d="M159.307 92.494C161.03 89.9632 161.687 86.0737 160.479 84.2001C161.607 84.6707 169.741 85.2301 166.553 79.4404C163.365 73.6506 156.972 72.0522 151.404 73.6506L154.112 74.4321C154.112 74.4321 146.502 73.8815 142.799 76.9629C143.927 77.025 144.904 76.9629 144.904 76.9629C144.904 76.9629 136.752 80.8079 140.304 83.7294C134.576 88.0895 138.457 94.1279 147.888 103.132C149.53 104.615 154.183 104.074 155.214 103.186C154.556 99.2605 158.339 93.9326 159.307 92.494Z" fill="#263238"/>
<path d="M160.266 87.5654C161.953 88.7997 164.04 92.4317 165.008 94.2432C165.976 96.0547 166.997 95.8238 167.486 96.5431C167.974 97.2624 169.972 109.428 167.832 111.373C165.692 113.317 159.254 110.245 158.41 108.007C157.567 105.769 159.112 100.282 159.529 99.0295C159.968 96.8669 159.84 94.6275 159.156 92.5293C158.41 90.407 160.266 87.5654 160.266 87.5654Z" fill="#263238"/>
<path d="M156.466 92.8314C156.696 93.717 157.101 94.5474 157.658 95.2734C158.214 95.9995 158.911 96.6064 159.707 97.0583C161.669 97.9463 161.909 95.6641 161.527 93.5063C161.181 91.5438 160.639 89.9543 159.05 89.1906C157.176 88.2227 155.817 90.6824 156.466 92.8314Z" fill="#FFC3BD"/>
</svg>
