<svg width="20" height="21" viewBox="0 0 20 21" fill="none" xmlns="http://www.w3.org/2000/svg">
<g clip-path="url(#clip0)">
<g clip-path="url(#clip1)">
<path d="M0.585935 20.4996H11.2114C11.535 20.4996 11.7973 20.2373 11.7973 19.9137V18.6637C11.7973 17.8999 11.3073 17.2485 10.6254 17.0066V16.2441C10.6254 15.3166 9.87072 14.562 8.94314 14.562H2.85415C1.92657 14.562 1.17187 15.3166 1.17187 16.2441V17.0066C0.489958 17.2485 0 17.8999 0 18.6637V19.9137C0 20.2373 0.262298 20.4996 0.585935 20.4996ZM2.85415 15.7339H8.94314C9.22451 15.7339 9.45354 15.9628 9.45354 16.2441V16.9059H2.34389V16.2441C2.34389 15.9628 2.57277 15.7339 2.85415 15.7339ZM1.17187 18.6637C1.17187 18.3405 1.43478 18.0778 1.75781 18.0778H10.0393C10.3625 18.0778 10.6254 18.3405 10.6254 18.6637V19.3278H1.17187V18.6637Z" fill="#9B51E0"/>
<path d="M6.74989 12.6984C7.3311 13.4703 8.43491 13.6302 9.21158 13.0455C9.72885 12.6561 9.96949 12.0342 9.89899 11.4333C10.4028 11.3475 10.8897 11.2073 11.3527 11.0183L16.8388 18.3051C17.4202 19.0775 18.5241 19.2366 19.3005 18.6522C20.0747 18.0692 20.2305 16.9649 19.6475 16.1905L14.1615 8.9037C14.471 8.5111 14.7403 8.08217 14.962 7.62182C15.5267 7.85863 16.19 7.79165 16.7015 7.40652C17.4759 6.82348 17.6317 5.71921 17.0486 4.94483L14.2291 1.19988C13.6461 0.425496 12.5418 0.269857 11.7674 0.852893C11.2502 1.2423 11.0095 1.86409 11.08 2.46498C8.87208 2.84111 6.98961 4.25818 6.01732 6.27585C5.45366 6.03949 4.79327 6.10358 4.27752 6.49176C3.50131 7.07617 3.34598 8.17724 3.93038 8.95345L6.74989 12.6984ZM13.3472 9.77055L14.1296 10.8098L13.1933 11.5146L12.4109 10.4755C12.7425 10.2675 13.0556 10.0316 13.3472 9.77055ZM18.5956 17.7159C18.3374 17.9103 17.9693 17.8584 17.7749 17.6003L13.8981 12.4509L14.8344 11.7461L18.7112 16.8953C18.9056 17.1535 18.8536 17.5215 18.5956 17.7159ZM12.4724 1.78917C12.7313 1.59416 13.0992 1.64757 13.293 1.90483L16.1123 5.64978C16.3067 5.90781 16.2549 6.276 15.9967 6.47024C15.738 6.6651 15.3711 6.61337 15.1762 6.35458L12.3567 2.60963C12.1623 2.35145 12.2142 1.98341 12.4724 1.78917ZM11.615 3.57276C11.8687 3.90998 13.7874 6.45849 14.0454 6.80105C13.2457 8.74501 11.454 10.0943 9.36417 10.3255L6.93376 7.09707C7.73439 5.15082 9.52317 3.80424 11.615 3.57276ZM4.98247 7.42803C5.2405 7.23364 5.60778 7.28445 5.80294 7.54369L8.62244 11.2886C8.62244 11.2886 8.62244 11.2886 8.62244 11.2888C8.81669 11.5468 8.76481 11.9149 8.50678 12.1093C8.24861 12.3035 7.88056 12.2516 7.68617 11.9936L4.86666 8.24865C4.67196 7.98986 4.72369 7.62289 4.98247 7.42803Z" fill="#9B51E0"/>
</g>
</g>
<defs>
<clipPath id="clip0">
<rect width="20" height="20" fill="white" transform="translate(0 0.5)"/>
</clipPath>
<clipPath id="clip1">
<rect width="20" height="20" fill="white" transform="translate(0 0.5)"/>
</clipPath>
</defs>
</svg>
