<svg width="5" height="8" viewBox="0 0 5 8" fill="none" xmlns="http://www.w3.org/2000/svg">
<path d="M4.032 3.022V0.592H4.752V7H4.068V6.28C3.696 6.832 3.165 7.108 2.475 7.108C1.821 7.108 1.299 6.886 0.909 6.442C0.513 5.998 0.315 5.41 0.315 4.678C0.315 3.934 0.513 3.343 0.909 2.905C1.293 2.467 1.815 2.248 2.475 2.248C3.141 2.248 3.66 2.506 4.032 3.022ZM1.071 4.714C1.071 5.266 1.206 5.695 1.476 6.001C1.746 6.307 2.109 6.46 2.565 6.46C3.021 6.46 3.384 6.301 3.654 5.983C3.924 5.671 4.059 5.236 4.059 4.678C4.059 4.126 3.924 3.691 3.654 3.373C3.384 3.055 3.021 2.896 2.565 2.896C2.115 2.896 1.752 3.061 1.476 3.391C1.206 3.715 1.071 4.156 1.071 4.714Z" fill="#407BFF" fill-opacity="0.8"/>
</svg>
