<svg width="20" height="21" viewBox="0 0 20 21" fill="none" xmlns="http://www.w3.org/2000/svg">
<g clip-path="url(#clip0)">
<g clip-path="url(#clip1)">
<path d="M0.585935 20.4999H11.2114C11.535 20.4999 11.7973 20.2376 11.7973 19.914V18.664C11.7973 17.9001 11.3073 17.2487 10.6254 17.0069V16.2444C10.6254 15.3168 9.87072 14.5623 8.94314 14.5623H2.85415C1.92657 14.5623 1.17187 15.3168 1.17187 16.2444V17.0069C0.489958 17.2487 0 17.9001 0 18.664V19.914C0 20.2376 0.262298 20.4999 0.585935 20.4999ZM2.85415 15.7341H8.94314C9.22451 15.7341 9.45354 15.963 9.45354 16.2444V16.9062H2.34389V16.2444C2.34389 15.963 2.57277 15.7341 2.85415 15.7341ZM1.17187 18.664C1.17187 18.3408 1.43478 18.078 1.75781 18.078H10.0393C10.3625 18.078 10.6254 18.3408 10.6254 18.664V19.328H1.17187V18.664Z" fill="#484A47" fill-opacity="0.5"/>
<path d="M6.74965 12.6984C7.33085 13.4703 8.43467 13.6302 9.21134 13.0455C9.72861 12.6561 9.96924 12.0342 9.89875 11.4333C10.4026 11.3475 10.8895 11.2073 11.3524 11.0183L16.8386 18.3051C17.4199 19.0775 18.5239 19.2366 19.3003 18.6522C20.0745 18.0692 20.2303 16.9649 19.6472 16.1905L14.1613 8.9037C14.4707 8.5111 14.74 8.08217 14.9617 7.62182C15.5265 7.85863 16.1898 7.79165 16.7012 7.40652C17.4756 6.82348 17.6314 5.71921 17.0484 4.94483L14.2289 1.19988C13.6458 0.425496 12.5416 0.269857 11.7672 0.852893C11.2499 1.2423 11.0093 1.86409 11.0798 2.46498C8.87183 2.84111 6.98936 4.25818 6.01708 6.27585C5.45342 6.03949 4.79302 6.10358 4.27728 6.49176C3.50106 7.07617 3.34573 8.17724 3.93014 8.95345L6.74965 12.6984ZM13.3469 9.77055L14.1294 10.8098L13.1931 11.5146L12.4106 10.4755C12.7422 10.2675 13.0553 10.0316 13.3469 9.77055ZM18.5953 17.7159C18.3371 17.9103 17.9691 17.8584 17.7747 17.6003L13.8979 12.4509L14.8342 11.7461L18.711 16.8953C18.9054 17.1535 18.8533 17.5215 18.5953 17.7159ZM12.4721 1.78917C12.7311 1.59416 13.099 1.64757 13.2927 1.90483L16.1121 5.64978C16.3065 5.90781 16.2546 6.276 15.9964 6.47024C15.7378 6.6651 15.3708 6.61337 15.176 6.35458L12.3565 2.60963C12.1621 2.35145 12.214 1.98341 12.4721 1.78917ZM11.6147 3.57276C11.8685 3.90998 13.7871 6.45849 14.0452 6.80105C13.2454 8.74501 11.4538 10.0943 9.36393 10.3255L6.93352 7.09707C7.73414 5.15082 9.52292 3.80424 11.6147 3.57276ZM4.98223 7.42803C5.24026 7.23364 5.60753 7.28445 5.80269 7.54369L8.6222 11.2886C8.6222 11.2886 8.6222 11.2886 8.6222 11.2888C8.81644 11.5468 8.76456 11.9149 8.50654 12.1093C8.24836 12.3035 7.88032 12.2516 7.68592 11.9936L4.86642 8.24865C4.67171 7.98986 4.72344 7.62289 4.98223 7.42803Z" fill="#484A47" fill-opacity="0.5"/>
</g>
</g>
<defs>
<clipPath id="clip0">
<rect width="20" height="20" fill="white" transform="translate(0 0.5)"/>
</clipPath>
<clipPath id="clip1">
<rect width="20" height="20" fill="white" transform="translate(0 0.5)"/>
</clipPath>
</defs>
</svg>
