<svg width="72" height="52" viewBox="0 0 72 52" fill="none" xmlns="http://www.w3.org/2000/svg">
<rect y="4" width="72" height="48" rx="10" fill="white"/>
<path d="M21 26.5C20.4477 26.5 20 26.9477 20 27.5C20 28.0523 20.4477 28.5 21 28.5V26.5ZM51.5 27.5L52.2071 28.2071C52.5977 27.8166 52.5977 27.1834 52.2071 26.7929L51.5 27.5ZM45.7071 20.2929C45.3166 19.9024 44.6835 19.9024 44.2929 20.2929C43.9024 20.6834 43.9024 21.3166 44.2929 21.7071L45.7071 20.2929ZM44.2929 33.2929C43.9024 33.6834 43.9024 34.3166 44.2929 34.7071C44.6835 35.0976 45.3166 35.0976 45.7071 34.7071L44.2929 33.2929ZM21 28.5H51.5V26.5H21V28.5ZM52.2071 26.7929L45.7071 20.2929L44.2929 21.7071L50.7929 28.2071L52.2071 26.7929ZM50.7929 26.7929L44.2929 33.2929L45.7071 34.7071L52.2071 28.2071L50.7929 26.7929Z" fill="#1877F2"/>
</svg>
