<svg width="460" height="337" viewBox="0 0 460 337" fill="none" xmlns="http://www.w3.org/2000/svg">
<g clip-path="url(#clip0)">
<path d="M417 295.791H-35.333V296.017H417V295.791Z" fill="#EBEBEB"/>
<path d="M371.676 310.332H341.714V310.557H371.676V310.332Z" fill="#EBEBEB"/>
<path d="M264.31 312.79H256.448V313.015H264.31V312.79Z" fill="#EBEBEB"/>
<path d="M340.809 301.945H323.448V302.171H340.809V301.945Z" fill="#EBEBEB"/>
<path d="M51.1985 303.463H12.126V303.689H51.1985V303.463Z" fill="#EBEBEB"/>
<path d="M64.9853 303.463H59.2588V303.689H64.9853V303.463Z" fill="#EBEBEB"/>
<path d="M168.353 307.277H83.6035V307.503H168.353V307.277Z" fill="#EBEBEB"/>
<path d="M179.073 255.486H4.39097C3.02252 255.483 1.71095 254.939 0.744157 253.971C-0.222633 253.004 -0.765627 251.693 -0.765625 250.326V5.03342C-0.753712 3.67427 -0.205462 2.3747 0.760042 1.417C1.72555 0.459286 3.03032 -0.0792147 4.39097 -0.081543H179.073C180.443 -0.081543 181.757 0.462114 182.725 1.42983C183.694 2.39754 184.238 3.71005 184.238 5.0786V250.326C184.238 251.694 183.694 253.007 182.725 253.974C181.757 254.942 180.443 255.486 179.073 255.486ZM4.39097 0.0991984C3.08251 0.101592 1.82846 0.622501 0.904081 1.54759C-0.0202944 2.47267 -0.539461 3.72635 -0.539459 5.03342V250.326C-0.539461 251.633 -0.0202944 252.886 0.904081 253.812C1.82846 254.737 3.08251 255.258 4.39097 255.26H179.073C180.382 255.258 181.637 254.737 182.563 253.812C183.489 252.887 184.01 251.634 184.012 250.326V5.03342C184.01 3.72552 183.489 2.47186 182.563 1.54704C181.637 0.622207 180.382 0.101587 179.073 0.0991984H4.39097Z" fill="#EBEBEB"/>
<path d="M374.761 255.486H200.07C198.701 255.483 197.388 254.939 196.42 253.972C195.452 253.005 194.907 251.694 194.904 250.326V5.03342C194.919 3.67345 195.469 2.37389 196.436 1.41643C197.403 0.45897 198.708 -0.0792401 200.07 -0.081543H374.761C376.12 -0.0768396 377.422 0.462712 378.386 1.42017C379.349 2.37762 379.896 3.67583 379.908 5.03342V250.326C379.908 251.691 379.367 253.001 378.402 253.968C377.437 254.935 376.128 255.481 374.761 255.486ZM200.07 0.0991984C198.761 0.101587 197.506 0.622207 196.58 1.54704C195.654 2.47186 195.133 3.72552 195.13 5.03342V250.326C195.133 251.634 195.654 252.887 196.58 253.812C197.506 254.737 198.761 255.258 200.07 255.26H374.761C376.07 255.258 377.325 254.737 378.251 253.812C379.177 252.887 379.698 251.634 379.7 250.326V5.03342C379.698 3.72552 379.177 2.47186 378.251 1.54704C377.325 0.622207 376.07 0.101587 374.761 0.0991984H200.07Z" fill="#EBEBEB"/>
<path d="M71.2188 35.1627C71.2188 33.5401 71.864 31.9839 73.0126 30.8366C74.1612 29.6892 75.719 29.0446 77.3433 29.0446C77.9379 29.048 78.5289 29.1363 79.0984 29.3067C78.8297 27.467 78.9605 25.5911 79.4818 23.8063C80.0031 22.0216 80.9027 20.3698 82.1195 18.9631C83.3364 17.5563 84.842 16.4276 86.5342 15.6535C88.2263 14.8795 90.0654 14.4782 91.9265 14.4769C92.7279 14.4787 93.5274 14.5544 94.3149 14.7028C95.5935 12.6058 97.5198 10.9807 99.8035 10.0725C102.087 9.16433 104.605 9.02233 106.976 9.66788C109.348 10.3134 111.445 11.7115 112.952 13.6515C114.459 15.5915 115.293 17.9681 115.33 20.4233H115.511C116.909 20.3822 118.3 20.6217 119.603 21.1275C120.906 21.6333 122.095 22.3953 123.098 23.3681C124.101 24.341 124.898 25.5051 125.442 26.7914C125.987 28.0776 126.267 29.46 126.267 30.8566C126.267 32.2531 125.987 33.6355 125.442 34.9218C124.898 36.208 124.101 37.3721 123.098 38.345C122.095 39.3178 120.906 40.0798 119.603 40.5856C118.3 41.0914 116.909 41.3309 115.511 41.2898H77.1715C75.5755 41.2451 74.0602 40.5795 72.9483 39.435C71.8363 38.2905 71.2158 36.7576 71.2188 35.1627Z" fill="#E7E7E7"/>
<path d="M317.948 120.662C317.948 119.04 318.593 117.484 319.741 116.336C320.89 115.189 322.448 114.544 324.072 114.544C324.666 114.546 325.257 114.631 325.827 114.797C325.736 114.178 325.691 113.553 325.691 112.927C325.702 111.032 326.127 109.162 326.938 107.449C327.749 105.736 328.926 104.221 330.386 103.011C331.846 101.801 333.553 100.925 335.388 100.444C337.223 99.9637 339.141 99.8905 341.007 100.23C342.284 98.1297 344.21 96.502 346.495 95.5925C348.78 94.6829 351.299 94.541 353.672 95.1881C356.044 95.8353 358.142 97.2363 359.647 99.1795C361.152 101.123 361.983 103.502 362.014 105.959H362.204C363.601 105.918 364.993 106.158 366.296 106.663C367.599 107.169 368.787 107.931 369.79 108.904C370.793 109.877 371.59 111.041 372.135 112.327C372.679 113.613 372.96 114.996 372.96 116.392C372.96 117.789 372.679 119.171 372.135 120.458C371.59 121.744 370.793 122.908 369.79 123.881C368.787 124.854 367.599 125.616 366.296 126.121C364.993 126.627 363.601 126.867 362.204 126.826H323.9C322.297 126.783 320.775 126.113 319.662 124.96C318.548 123.808 317.933 122.264 317.948 120.662Z" fill="#E7E7E7"/>
<path d="M170.75 150.602C170.75 148.979 171.395 147.423 172.544 146.276C173.692 145.128 175.25 144.484 176.875 144.484C177.469 144.483 178.061 144.572 178.63 144.746C178.326 142.705 178.517 140.621 179.184 138.669C179.851 136.716 180.977 134.952 182.466 133.522C183.956 132.093 185.766 131.04 187.745 130.452C189.725 129.864 191.817 129.758 193.846 130.142C195.122 128.043 197.048 126.415 199.332 125.505C201.616 124.596 204.134 124.453 206.506 125.099C208.878 125.745 210.976 127.145 212.481 129.086C213.987 131.028 214.819 133.406 214.852 135.862H215.042C217.811 135.862 220.467 136.961 222.424 138.917C224.382 140.873 225.482 143.525 225.482 146.291C225.482 149.057 224.382 151.71 222.424 153.665C220.467 155.621 217.811 156.72 215.042 156.72H176.703C175.108 156.677 173.592 156.014 172.48 154.871C171.368 153.728 170.747 152.196 170.75 150.602Z" fill="#E7E7E7"/>
<path d="M17.9604 115.909C17.9603 115.333 18.0948 114.765 18.3533 114.251C18.6119 113.736 18.9872 113.289 19.4494 112.945C19.9117 112.6 20.448 112.369 21.0156 112.269C21.5833 112.168 22.1665 112.202 22.7189 112.367C22.5567 111.255 22.6359 110.121 22.951 109.042C23.2661 107.963 23.8098 106.965 24.5451 106.115C25.2805 105.264 26.1904 104.582 27.213 104.114C28.2356 103.646 29.347 103.403 30.4719 103.402C30.9576 103.401 31.4423 103.446 31.9194 103.537C32.694 102.278 33.8566 101.304 35.2326 100.76C36.6087 100.217 38.1239 100.134 39.5511 100.524C40.9783 100.914 42.2403 101.756 43.1479 102.924C44.0555 104.091 44.5596 105.521 44.5847 106.999H44.7023C46.3818 106.999 47.9926 107.665 49.1802 108.851C50.3678 110.038 51.035 111.647 51.035 113.324C51.035 115.002 50.3678 116.611 49.1802 117.798C47.9926 118.984 46.3818 119.65 44.7023 119.65H21.5519C20.5809 119.624 19.6592 119.217 18.9869 118.517C18.3146 117.816 17.9457 116.879 17.9604 115.909Z" fill="#E7E7E7"/>
<path d="M228.35 62.6988C228.35 61.7185 228.74 60.7784 229.434 60.0852C230.128 59.3921 231.069 59.0026 232.05 59.0026C232.409 59.0008 232.766 59.0557 233.108 59.1653C232.946 58.0534 233.025 56.9196 233.341 55.8409C233.656 54.7622 234.199 53.7639 234.935 52.9136C235.67 52.0632 236.58 51.3809 237.602 50.9128C238.625 50.4447 239.737 50.2018 240.861 50.2006C241.347 50.1996 241.832 50.245 242.309 50.3361C243.087 49.0837 244.249 48.1158 245.623 47.5767C246.996 47.0375 248.507 46.9558 249.93 47.3438C251.354 47.7318 252.614 48.5688 253.523 49.73C254.432 50.8912 254.941 52.3146 254.974 53.7883H255.083C256.762 53.7883 258.373 54.4548 259.561 55.6411C260.748 56.8274 261.415 58.4365 261.415 60.1142C261.415 61.7919 260.748 63.401 259.561 64.5873C258.373 65.7736 256.762 66.4401 255.083 66.4401H231.941C230.971 66.4118 230.051 66.0036 229.379 65.3038C228.707 64.6039 228.338 63.6684 228.35 62.6988Z" fill="#E7E7E7"/>
<path d="M285.561 23.5596C285.561 22.5793 285.951 21.6392 286.645 20.946C287.339 20.2528 288.28 19.8634 289.261 19.8634C289.619 19.8638 289.976 19.9155 290.32 20.0171C290.157 18.9051 290.236 17.7713 290.552 16.6927C290.867 15.614 291.41 14.6156 292.146 13.7653C292.881 12.915 293.791 12.2326 294.814 11.7645C295.836 11.2964 296.948 11.0535 298.073 11.0523C298.558 11.0563 299.042 11.1016 299.52 11.1879C300.299 9.93488 301.462 8.96677 302.836 8.42781C304.21 7.88885 305.722 7.80791 307.146 8.19706C308.57 8.5862 309.83 9.4246 310.738 10.5873C311.646 11.75 312.154 13.1747 312.185 14.6491H312.303C313.982 14.6491 315.593 15.3155 316.781 16.5019C317.968 17.6882 318.636 19.2972 318.636 20.975C318.636 22.6527 317.968 24.2617 316.781 25.4481C315.593 26.6344 313.982 27.3009 312.303 27.3009H289.152C288.181 27.2749 287.26 26.8675 286.588 26.1671C285.915 25.4667 285.546 24.5298 285.561 23.5596Z" fill="#E7E7E7"/>
<path d="M362.738 244.171V234.185H365.099V232.414H362.738V230.869H342.582V232.414H340.23V234.185H342.582V237.538H335.643V244.171H332.902V202.628H332.025V202.14H334.069V201.435H332.025V199.836H327.881V188.567H326.696V199.836H326.072V201.435H325.348V202.14H326.072V225.248H320.49V222.519H319.061V213.825H317.514V222.519H314.529V225.248H309.824V218.217H280.595V193.889H275.185V164.148H270.851V193.347H260.565V236.607H241.088V193.347H236.99V187.401H238.537V185.702H232.186V183.813H230.549V179.981H228.151V170.574H227.201V179.981H225.175V183.813H222.913V174.857H222.316V166.634H221.746V174.857H220.579V183.813H208.981V193.347H205.896V208.204H188.816V183.931H185.56V179.15H178.53V168.423H177.942V179.15H171.492V183.931H167.077V193.347H140.589V236.607H121.093V193.347H110.816V164.148H106.483V193.889H101.073V218.217H71.8431V225.248H55.6044V199.836H53.5055V186.615H52.3204V199.836H49.6426V244.171H32.0378V237.303H30.3642V235.46H31.2327V233.291H30.3642V231.348H22.1317V233.291H21.417V235.46H22.1317V237.303H18.9111V215.976H17.7893V237.303H13.3022V244.171H7.42188V296.089L190.834 295.547L374.246 296.089V244.171H362.738Z" fill="#E7E7E7"/>
<path d="M114.389 289.348L112.362 288.335" stroke="#E0E0E0" stroke-width="2" stroke-linecap="round" stroke-linejoin="round"/>
<path d="M108.327 286.248C86.6154 274.834 14.9116 234.113 30.8699 202.203C63.6188 136.649 303.617 189.38 332.123 139.721C357.083 96.2621 283.38 63.2408 264.608 55.6768" stroke="#E0E0E0" stroke-width="2" stroke-linecap="round" stroke-linejoin="round" stroke-dasharray="5.03 5.03"/>
<path d="M262.492 54.8275C261.135 54.3033 260.375 54.0322 260.375 54.0322" stroke="#E0E0E0" stroke-width="2" stroke-linecap="round" stroke-linejoin="round"/>
<path d="M259.922 40.3321L254.512 44.0553L253.011 54.0322L249.347 46.9652L240.083 51.6284L223.763 38.5518L259.922 40.3321Z" fill="#E0E0E0"/>
<path d="M253.011 54.0322L223.763 38.5518L249.347 46.9652L253.011 54.0322Z" fill="#E6E6E6"/>
<path d="M259.922 40.3321L254.512 44.0553L253.011 54.0322L249.347 46.9652L240.083 51.6284L223.763 38.5518L259.922 40.3321Z" fill="#F0F0F0"/>
<path d="M254.512 44.0553L223.763 38.5518L249.347 46.9652L253.011 54.0322L254.512 44.0553Z" fill="#E0E0E0"/>
<path d="M215.21 336.602C350.083 336.602 459.42 332.022 459.42 326.372C459.42 320.723 350.083 316.143 215.21 316.143C80.3366 316.143 -29 320.723 -29 326.372C-29 332.022 80.3366 336.602 215.21 336.602Z" fill="white"/>
<path d="M324.914 123.374L323.503 119.94C323.503 119.94 324.625 118.864 324.48 117.997C324.335 117.129 318.5 112.321 317.424 111.499C316.347 110.677 314.601 113.704 313.923 116.117C313.244 118.53 319.351 122.759 320.255 122.353L321.232 125.769L324.914 123.374Z" fill="#EBB376"/>
<path d="M360.404 122.741C349.648 124.051 337.661 139.857 334.169 137.842C330.677 135.827 324.218 121.322 324.218 121.322L320.518 123.509C320.518 123.509 323.883 150.132 332.115 151.144C340.348 152.157 355.582 143.608 355.582 143.608L360.404 122.741Z" fill="#263238"/>
<path opacity="0.2" d="M360.404 122.75L357.22 136.541L355.583 143.59C351.083 146.061 346.368 148.121 341.497 149.744C338.15 150.792 334.775 151.461 332.134 151.135C323.91 150.132 320.545 123.509 320.545 123.509L324.236 121.322C324.236 121.322 330.659 135.782 334.187 137.842C337.715 139.902 349.657 124.06 360.404 122.75Z" fill="white"/>
<path opacity="0.2" d="M357.22 136.541L355.583 143.589C351.083 146.061 346.369 148.121 341.497 149.744C343.18 140.634 353.547 137.408 357.22 136.541Z" fill="black"/>
<path d="M387.399 323.156H395.351C395.48 323.155 395.606 323.198 395.706 323.279C395.807 323.36 395.876 323.472 395.903 323.598L397.197 329.427C397.248 329.676 397.199 329.936 397.06 330.149C396.921 330.362 396.704 330.512 396.455 330.566C396.383 330.575 396.31 330.575 396.238 330.566C393.669 330.566 391.796 330.367 388.557 330.367C386.567 330.367 380.569 330.575 377.819 330.575C375.069 330.575 374.716 327.864 375.838 327.62C380.886 326.517 384.685 324.999 386.296 323.553C386.598 323.282 386.994 323.139 387.399 323.156Z" fill="#263238"/>
<path d="M347.007 323.156H354.959C355.089 323.154 355.215 323.198 355.317 323.278C355.419 323.359 355.491 323.472 355.52 323.598L356.804 329.427C356.832 329.551 356.835 329.679 356.812 329.803C356.79 329.928 356.743 330.047 356.673 330.153C356.604 330.259 356.515 330.35 356.41 330.421C356.305 330.492 356.187 330.541 356.062 330.566C355.993 330.574 355.923 330.574 355.854 330.566C353.276 330.566 351.403 330.367 348.174 330.367C346.183 330.367 340.176 330.575 337.435 330.575C334.694 330.575 334.323 327.864 335.454 327.62C340.493 326.517 344.293 324.999 345.912 323.553C346.211 323.282 346.604 323.14 347.007 323.156Z" fill="#263238"/>
<path d="M394.121 180.56C396.228 202.419 395.419 224.46 391.715 246.106C391.715 246.106 397.695 296.289 395.903 323.635H386.296C386.296 323.635 370.292 268.265 368.383 252.134C366.475 236.002 363.752 212.1 363.752 212.1C363.752 212.1 358.857 234.746 350.797 252.134C350.797 252.134 357.681 268.527 356.831 325.198L344.717 324.195C344.717 324.195 336.06 271.346 331.817 252.152C327.574 232.957 335.797 195.833 342.61 176.087L394.121 180.56Z" fill="#263238"/>
<path opacity="0.4" d="M394.121 180.56C396.228 202.419 395.419 224.46 391.715 246.106C391.715 246.106 397.695 296.289 395.903 323.635H386.296C386.296 323.635 370.292 268.265 368.383 252.134C366.475 236.002 363.752 212.1 363.752 212.1C363.752 212.1 358.857 234.746 350.797 252.134C350.797 252.134 357.681 268.527 356.831 325.198L344.717 324.195C344.717 324.195 336.06 271.346 331.817 252.152C327.574 232.957 335.797 195.833 342.61 176.087L394.121 180.56Z" fill="white"/>
<path d="M353.23 182.241L372.654 184.681L373.251 180.298L353.8 178.066L353.23 182.241Z" fill="#263238"/>
<path d="M374.734 180.47L374.128 184.871L394.202 186.94L394.012 182.675L374.734 180.47Z" fill="#263238"/>
<path d="M352.326 177.903L342.953 176.828L342.085 180.831L351.756 182.051L352.326 177.903Z" fill="#263238"/>
<path d="M364.113 183.904L358.007 183.208C357.909 183.2 357.814 183.173 357.727 183.128C357.64 183.083 357.563 183.021 357.5 182.947C357.437 182.872 357.389 182.785 357.36 182.692C357.33 182.599 357.319 182.501 357.328 182.403L357.835 178.734C357.852 178.634 357.889 178.537 357.945 178.451C358 178.365 358.072 178.291 358.156 178.233C358.24 178.174 358.335 178.134 358.435 178.113C358.536 178.092 358.639 178.091 358.739 178.111L364.855 178.807C364.952 178.815 365.047 178.842 365.133 178.887C365.22 178.932 365.297 178.993 365.359 179.068C365.421 179.143 365.468 179.23 365.496 179.323C365.525 179.416 365.534 179.514 365.524 179.611L365.018 183.28C365.002 183.381 364.965 183.478 364.91 183.565C364.855 183.652 364.783 183.727 364.699 183.785C364.614 183.843 364.519 183.884 364.418 183.904C364.317 183.925 364.214 183.924 364.113 183.904Z" fill="white"/>
<path d="M342.61 176.05C342.61 176.05 336.902 165.721 348.943 148.036C348.943 148.036 352.444 128.922 355.366 125.904C358.288 122.886 367.271 118.873 380.09 121.178C392.909 123.482 398.274 128.678 398.274 128.678L396.211 169.065C396.211 169.065 397.351 174.162 394.456 181.825L342.61 176.05Z" fill="#263238"/>
<path d="M388.16 122.597C383.284 125.018 371.831 125.741 371.831 125.741L365.498 121.729C368.655 121.44 370.637 120.825 371.831 119.922C373.73 118.503 373.586 116.524 372.98 114.59C372.98 114.59 372.98 114.59 372.98 114.526L381.701 110.984L387.708 108.544C385.763 112.448 383.392 119.723 388.16 122.597Z" fill="#EBB376"/>
<path opacity="0.2" d="M385.237 111.897C384.224 117.816 376.561 119.886 371.83 119.886C373.73 118.467 373.585 116.488 372.979 114.554C372.988 114.531 372.988 114.505 372.979 114.481L381.7 110.939C381.881 111.662 385.337 111.156 385.237 111.897Z" fill="black"/>
<path d="M388.259 97.049C387.877 95.9104 387.274 94.8583 386.485 93.9527C385.696 93.047 384.735 92.3057 383.659 91.7711C382.583 91.2364 381.411 90.919 380.212 90.8368C379.013 90.7547 377.809 90.9095 376.67 91.2924C375.32 91.7372 374.101 92.5104 373.124 93.5426C370.726 94.7988 369.252 98.757 369.505 101.423C369.403 101.983 369.321 102.543 369.261 103.104C368.691 104.622 366.402 106.167 367.633 110.812C369.161 116.587 375.358 118.087 379.294 117.138C381.038 116.926 382.675 116.181 383.98 115.006C384.378 114.654 384.75 114.273 385.093 113.867C387.653 110.885 387.888 107.134 388.648 101.26C388.849 99.8454 388.716 98.4031 388.259 97.049Z" fill="#EBB376"/>
<path d="M378.371 102.453C378.371 102.995 378.018 103.411 377.656 103.357C377.294 103.302 377.05 102.869 377.077 102.326C377.104 101.784 377.439 101.369 377.792 101.423C378.145 101.477 378.407 101.902 378.371 102.453Z" fill="#263238"/>
<path d="M372.219 102.037C372.219 102.58 371.857 103.004 371.504 102.941C371.151 102.878 370.898 102.453 370.934 101.911C370.97 101.369 371.296 100.944 371.649 101.007C372.002 101.07 372.255 101.504 372.219 102.037Z" fill="#263238"/>
<path d="M374.155 102.426C373.394 104.042 372.411 105.545 371.233 106.89C371.587 107.184 372.002 107.397 372.448 107.512C372.893 107.628 373.359 107.644 373.812 107.559L374.155 102.426Z" fill="#D58745"/>
<path d="M380.587 100.365C380.529 100.379 380.469 100.377 380.413 100.362C380.356 100.346 380.304 100.316 380.261 100.275C379.989 99.9802 379.652 99.7525 379.277 99.6099C378.902 99.4672 378.499 99.4133 378.099 99.4525C378.016 99.4681 377.931 99.4502 377.861 99.4027C377.792 99.3553 377.744 99.2822 377.728 99.1995C377.713 99.1168 377.73 99.0313 377.778 98.9618C377.825 98.8924 377.899 98.8446 377.981 98.829C378.481 98.7687 378.988 98.8282 379.46 99.0027C379.932 99.1771 380.355 99.4615 380.695 99.8321C380.726 99.8615 380.749 99.8967 380.766 99.9355C380.782 99.9743 380.79 100.016 380.79 100.058C380.79 100.1 380.782 100.142 380.766 100.181C380.749 100.219 380.726 100.254 380.695 100.284C380.664 100.317 380.628 100.345 380.587 100.365Z" fill="#263238"/>
<path d="M369.958 100.13C369.892 100.127 369.83 100.105 369.777 100.067C369.747 100.038 369.723 100.003 369.706 99.9637C369.69 99.9249 369.682 99.8833 369.682 99.8412C369.682 99.7991 369.69 99.7575 369.706 99.7187C369.723 99.6799 369.747 99.6447 369.777 99.6153C370.146 99.2643 370.595 99.0079 371.085 98.8678C371.574 98.7278 372.091 98.7082 372.59 98.811C372.631 98.8214 372.669 98.8399 372.702 98.8651C372.735 98.8904 372.763 98.922 372.784 98.9581C372.805 98.9943 372.819 99.0342 372.825 99.0757C372.83 99.1171 372.827 99.1592 372.816 99.1996C372.793 99.28 372.74 99.3483 372.667 99.3904C372.595 99.4325 372.509 99.4451 372.427 99.4255C372.031 99.3573 371.625 99.3823 371.24 99.4984C370.855 99.6145 370.503 99.8185 370.211 100.094C370.174 100.118 370.132 100.133 370.088 100.139C370.044 100.145 370 100.142 369.958 100.13Z" fill="#263238"/>
<path d="M372.78 93.624C375.702 92.3046 375.901 94.5277 375.901 94.5277C375.901 94.5277 377.792 92.3226 379.828 92.6661C381.863 93.0095 384.794 96.9044 384.966 97.4105C385.138 97.9166 384.161 98.9106 384.161 98.9106C384.161 98.9106 384.387 105.056 384.459 106.755L386.974 111.346C389.786 106.956 391.301 101.863 391.344 96.6514C391.425 87.8945 374.155 88.3192 374.155 88.3192L372.78 93.624Z" fill="#263238"/>
<path d="M391.135 108.86C390.642 109.534 390.021 110.103 389.307 110.536C388.592 110.969 387.8 111.256 386.974 111.382C384.766 111.707 383.943 109.664 384.785 107.722C385.554 106.004 387.625 103.709 389.733 104.287C391.841 104.866 392.338 107.179 391.135 108.86Z" fill="#EBB376"/>
<path d="M374.074 109.52C374.597 110.462 375.05 111.44 375.431 112.448L375.983 112.33C378.507 111.797 379.493 110.713 379.828 109.682C380.063 108.878 380.002 108.015 379.656 107.251C378.489 108.336 376.182 109.014 374.934 109.321C374.409 109.456 374.074 109.52 374.074 109.52Z" fill="#263238"/>
<path d="M374.934 109.321L375.35 110.179C377.729 109.664 379.321 108.987 379.918 108.11C379.869 107.814 379.781 107.525 379.656 107.251C378.489 108.363 376.182 109.014 374.934 109.321Z" fill="white"/>
<path d="M375.982 112.33C378.506 111.797 379.493 110.713 379.827 109.683C378.862 109.902 377.943 110.291 377.113 110.83C376.591 111.202 376.196 111.726 375.982 112.33Z" fill="#DE5753"/>
<path d="M374.155 88.3552C369.505 89.1143 368.727 95.4854 372.228 96.0818C375.729 96.6783 372.816 94.4732 372.816 94.4732C372.816 94.4732 378.922 96.4885 379.972 96.1903C381.021 95.892 379.619 94.4732 379.619 94.4732C379.619 94.4732 383.636 97.356 386.956 96.2174C390.276 95.0787 387.689 86.1592 374.155 88.3552Z" fill="#263238"/>
<path d="M368.963 124.06L369.876 128.787L363.146 145.153L364.946 151.325L368.637 148.099L370.844 129.456L376.345 126.04L375.123 124.06L371.107 123.157L368.963 124.06Z" fill="#407BFF"/>
<path d="M370.184 118.774L373.359 122.732L386.585 118.503L389.525 123.735L374.797 130.748L372.391 124.675L365.443 128.67L364.864 121.322L370.184 118.774Z" fill="#263238"/>
<path opacity="0.2" d="M397.586 134.028C397.161 137.95 396.6 143.969 396.229 151.931C394.342 147.346 393.983 142.276 395.207 137.471C395.775 136.184 396.583 135.016 397.586 134.028Z" fill="black"/>
<path d="M385.735 164.293L382.216 165.107C382.216 165.107 381.393 163.778 380.542 163.769C379.692 163.76 374.065 168.839 373.097 169.779C372.129 170.719 374.68 173.041 376.86 174.171C379.041 175.3 384.152 169.824 383.926 168.857L387.354 168.477L385.735 164.293Z" fill="#EBB376"/>
<path d="M398.301 128.66C404.362 132.194 414.738 154.099 411.871 162.368C409.817 168.315 389.688 171.261 384.885 169.047L383.419 164.6C383.419 164.6 399.115 159.639 399.938 156.603C400.59 154.19 394.465 148.469 394.465 148.469C394.465 148.469 393.316 144.312 395.37 134.507C396.292 130.395 398.301 128.66 398.301 128.66Z" fill="#263238"/>
<path opacity="0.2" d="M398.301 128.66C404.362 132.194 414.738 154.099 411.871 162.368C409.817 168.315 389.688 171.261 384.885 169.047L383.419 164.6C383.419 164.6 399.115 159.639 399.938 156.603C400.59 154.19 394.465 148.469 394.465 148.469C394.465 148.469 393.316 144.312 395.37 134.507C396.292 130.395 398.301 128.66 398.301 128.66Z" fill="white"/>
<path opacity="0.2" d="M370.184 118.774L373.359 122.732L386.585 118.503L389.525 123.735L374.797 130.748L372.391 124.675L365.443 128.67L364.864 121.322L370.184 118.774Z" fill="white"/>
<path d="M298.525 114.39C298.064 113.36 298.525 110.631 298.525 110.631C298.525 110.631 306.206 106.6 307.436 105.624C308.667 104.648 310.051 109.077 309.246 110.007C308.441 110.938 306.17 114.39 302.334 114.39L301.239 117.4L298.525 114.39Z" fill="#E4897B"/>
<path d="M277.718 117.762C280.622 118.457 288.99 129.51 291.84 129.202C294.689 128.895 298.109 114.065 298.109 114.065L302.289 115.322C302.289 115.322 300.199 133.965 294.879 136.468C289.56 138.972 276.786 128.335 276.786 128.335L277.718 117.762Z" fill="#407BFF"/>
<path opacity="0.4" d="M277.718 117.762C280.622 118.457 288.99 129.51 291.84 129.202C294.689 128.895 298.109 114.065 298.109 114.065L302.289 115.322C302.289 115.322 300.199 133.965 294.879 136.468C289.56 138.972 276.786 128.335 276.786 128.335L277.718 117.762Z" fill="white"/>
<path opacity="0.2" d="M277.718 129.148C280.106 131.017 282.624 132.714 285.254 134.227C284.868 132.385 284.084 130.65 282.957 129.142C281.831 127.635 280.388 126.391 278.731 125.497L277.718 129.148Z" fill="black"/>
<path d="M249.673 319.83H241.405C241.269 319.831 241.138 319.878 241.033 319.963C240.927 320.049 240.854 320.167 240.826 320.3L239.487 326.354C239.459 326.483 239.456 326.616 239.48 326.746C239.503 326.875 239.552 326.999 239.624 327.11C239.695 327.221 239.788 327.316 239.896 327.391C240.005 327.466 240.127 327.519 240.256 327.547H240.482C243.196 327.502 245.105 327.339 248.461 327.339C250.533 327.339 256.775 327.556 259.634 327.556C262.492 327.556 262.863 324.737 261.696 324.475C256.449 323.336 252.496 321.764 250.84 320.245C250.52 319.96 250.102 319.811 249.673 319.83Z" fill="#263238"/>
<path d="M284.739 319.613H276.47C276.334 319.614 276.203 319.661 276.098 319.746C275.993 319.832 275.92 319.95 275.891 320.083L274.552 326.156C274.524 326.284 274.522 326.417 274.545 326.547C274.569 326.677 274.618 326.8 274.689 326.911C274.761 327.022 274.853 327.118 274.962 327.193C275.07 327.268 275.192 327.321 275.321 327.348H275.547C278.261 327.303 280.17 327.141 283.526 327.141C285.598 327.141 291.84 327.357 294.699 327.357C297.558 327.357 297.929 324.538 296.762 324.276C291.515 323.137 287.561 321.565 285.906 320.047C285.586 319.758 285.169 319.603 284.739 319.613Z" fill="#263238"/>
<path d="M245.286 166.688H281.418C284.847 185.431 295.603 261.523 287.887 320.616H275.656C275.656 320.616 276.814 230.878 265.958 201.878C264.745 217.395 252.116 320.553 252.116 320.553H239.668C239.668 320.553 241.523 281.748 243.386 245.093C244.562 222.013 245.232 171.423 245.286 166.688Z" fill="#263238"/>
<path opacity="0.3" d="M265.958 201.878C267.734 206.963 269.083 212.186 269.993 217.494C271.006 203.686 266.962 189.037 266.962 189.037L265.958 201.878Z" fill="black"/>
<path d="M281.717 167.122H245.35V171.441L282.188 170.998L281.717 167.122Z" fill="black"/>
<path d="M257.037 172.851H258.34V165.17H257.037V172.851Z" fill="#263238"/>
<path d="M275.438 172.851H276.741V165.17H275.438V172.851Z" fill="#263238"/>
<path d="M265.135 171.207H271.865V166.363H265.135V171.207Z" fill="white"/>
<path opacity="0.3" d="M252.062 172.255H245.793L245.721 173.701L245.35 173.647C243.957 187.564 248.208 191.043 248.208 191.043C246.327 189.082 245.838 181.102 245.838 181.102C247.614 180.376 249.144 179.157 250.247 177.589C251.35 176.021 251.98 174.17 252.062 172.255Z" fill="black"/>
<path d="M245.666 168.785L249.601 173.963C249.601 173.963 250.198 173.33 251.411 175.102C250.468 177.533 248.643 179.52 246.299 180.668L246.806 176.746L242.753 171.442L245.666 168.785Z" fill="#E4897B"/>
<path d="M241.622 121.792C238.266 121.168 226.849 149.743 229.129 155.626C231.408 161.51 244.246 175.508 244.246 175.508L248.208 171.803C248.208 171.803 237.669 157.768 236.149 153.15C234.629 148.532 243.042 133.883 243.042 133.883C243.657 131.606 243.889 129.242 243.73 126.889C243.553 125.018 242.819 123.242 241.622 121.792Z" fill="#407BFF"/>
<path opacity="0.4" d="M241.622 121.792C238.266 121.168 226.849 149.743 229.129 155.626C231.408 161.51 244.246 175.508 244.246 175.508L248.208 171.803C248.208 171.803 237.669 157.768 236.149 153.15C234.629 148.532 243.042 133.883 243.042 133.883C243.657 131.606 243.889 129.242 243.73 126.889C243.553 125.018 242.819 123.242 241.622 121.792Z" fill="white"/>
<path d="M282.287 153.548C282.287 154.144 282.287 154.732 282.287 155.301C282.287 156.548 282.242 157.723 282.214 158.798C282.151 160.308 282.088 161.645 282.024 162.793C281.853 165.504 281.672 167.122 281.672 167.122H244.879C244.788 165.793 244.698 164.465 244.617 163.145C244.535 161.826 244.454 160.705 244.372 159.53C244.291 158.356 244.227 157.389 244.155 156.331C244.11 155.798 244.083 155.256 244.038 154.723C243.938 153.232 243.829 151.759 243.73 150.313C243.73 150.014 243.73 149.725 243.667 149.409C243.531 147.412 243.395 145.451 243.25 143.544C243.196 142.758 243.133 141.99 243.079 141.221C242.861 138.293 242.662 135.51 242.463 132.907C242.337 131.254 242.219 129.663 242.102 128.172C241.93 125.804 241.767 123.653 241.622 121.774L277.718 117.761C280.803 127.702 281.925 138.646 282.242 147.737C282.242 148.062 282.242 148.388 282.242 148.695C282.242 150.385 282.296 152.003 282.287 153.548Z" fill="#407BFF"/>
<path opacity="0.2" d="M242.102 128.154C242.219 129.654 242.337 131.235 242.463 132.898C242.662 135.501 242.861 138.275 243.079 141.212C243.809 137.568 244.173 133.859 244.164 130.142L242.102 128.154Z" fill="black"/>
<path opacity="0.4" d="M282.241 158.79C282.178 160.299 282.114 161.636 282.051 162.784L244.661 163.136C244.571 161.916 244.498 160.696 244.417 159.522L282.241 158.79Z" fill="white"/>
<path opacity="0.4" d="M282.286 153.548C282.286 154.144 282.286 154.732 282.286 155.301L244.155 156.259C244.109 155.726 244.082 155.184 244.037 154.65L282.286 153.548Z" fill="white"/>
<path opacity="0.4" d="M282.242 148.695L243.739 150.277C243.739 149.979 243.739 149.689 243.676 149.373L282.215 147.719C282.242 148.063 282.242 148.388 282.242 148.695Z" fill="white"/>
<path d="M252.948 120.771C256.196 123.482 261.09 124.331 261.09 124.331C261.09 124.331 266.663 120.156 265.613 118.71C262.782 118.376 263.18 117.526 262.547 115.873C262.19 114.846 262.045 113.758 262.121 112.673C262.136 112.068 262.188 111.465 262.275 110.866L252.505 104.287C253.961 108.86 255.852 117.291 252.948 120.771Z" fill="#E4897B"/>
<path opacity="0.2" d="M254.902 108.652C255.527 114.3 260.258 115.656 262.556 115.881C262.199 114.855 262.055 113.766 262.131 112.682L254.902 108.652Z" fill="black"/>
<path d="M264.555 87.7764C264.555 87.7764 268.554 96.0724 264.953 100.844C261.353 105.615 256.377 89.385 256.377 89.385L264.555 87.7764Z" fill="#263238"/>
<path d="M253.645 111.878C255.055 113.016 256.799 113.659 258.61 113.71C260.421 113.76 262.198 113.215 263.669 112.159C265.599 110.831 266.949 108.817 267.442 106.529C267.515 106.21 267.569 105.887 267.605 105.562C268.247 99.5429 266.112 90.0179 259.408 88.2556C257.93 87.8615 256.375 87.8511 254.892 88.2254C253.408 88.5998 252.045 89.3465 250.931 90.3947C249.818 91.4429 248.99 92.7578 248.528 94.2149C248.066 95.672 247.984 97.2229 248.29 98.7205C249.511 105.155 249.927 108.996 253.645 111.878Z" fill="#E4897B"/>
<path d="M258.395 99.2624C258.395 99.7865 258.793 100.166 259.146 100.166C259.498 100.166 259.716 99.651 259.652 99.1268C259.589 98.6027 259.236 98.2231 258.892 98.2231C258.549 98.2231 258.331 98.7292 258.395 99.2624Z" fill="#263238"/>
<path d="M264.374 98.4856C264.374 99.0187 264.781 99.3893 265.125 99.3893C265.469 99.3893 265.695 98.8741 265.631 98.35C265.568 97.8258 265.224 97.4463 264.881 97.4463C264.537 97.4463 264.311 97.9885 264.374 98.4856Z" fill="#263238"/>
<path d="M262.511 98.9912C263.348 100.529 264.396 101.943 265.623 103.193C265.292 103.498 264.899 103.728 264.471 103.866C264.044 104.005 263.591 104.05 263.144 103.998L262.511 98.9912Z" fill="#DE5753"/>
<path d="M266.248 95.7564C266.196 95.7849 266.139 95.7999 266.08 95.7999C266.022 95.7999 265.964 95.7849 265.913 95.7564C265.573 95.5614 265.193 95.4477 264.802 95.4242C264.412 95.4007 264.021 95.468 263.66 95.6208C263.588 95.6604 263.503 95.6698 263.425 95.6469C263.346 95.624 263.279 95.5708 263.24 95.4989C263.2 95.4269 263.191 95.3423 263.213 95.2635C263.236 95.1847 263.29 95.1182 263.362 95.0786C263.812 94.8712 264.306 94.7745 264.802 94.7965C265.298 94.8185 265.781 94.9586 266.211 95.2051C266.286 95.2437 266.341 95.31 266.367 95.3896C266.392 95.4691 266.385 95.5555 266.347 95.6299C266.319 95.6762 266.286 95.7187 266.248 95.7564Z" fill="#263238"/>
<path d="M256.911 97.0393C256.852 97.0574 256.789 97.0574 256.73 97.0393C256.672 96.9802 256.64 96.9007 256.64 96.8179C256.64 96.7351 256.672 96.6556 256.73 96.5965C257.052 96.2153 257.461 95.9169 257.922 95.7266C258.383 95.5363 258.884 95.4596 259.381 95.503C259.464 95.5164 259.538 95.5619 259.587 95.6296C259.636 95.6974 259.656 95.7818 259.643 95.8645C259.628 95.9443 259.583 96.0155 259.518 96.064C259.452 96.1125 259.371 96.1348 259.29 96.1266C258.897 96.1024 258.503 96.1716 258.141 96.3287C257.78 96.4858 257.46 96.7262 257.21 97.0303C257.164 97.0562 257.114 97.0706 257.062 97.0722C257.009 97.0737 256.958 97.0625 256.911 97.0393Z" fill="#263238"/>
<path d="M252.017 90.0088L252.795 91.1294C250.786 92.2048 251.646 94.5996 252.279 95.6479C253.618 97.88 252.921 101.82 251.374 103.628C251.374 103.628 251.13 102.606 250.298 103.004C249.465 103.402 250.669 108.752 252.831 111.02C252.831 111.02 249.836 109.158 247.403 103.79C245.123 98.7928 244.173 94.464 244.888 92.25L252.017 90.0088Z" fill="#263238"/>
<path d="M246.146 104.414C246.591 105.103 247.169 105.698 247.846 106.163C248.523 106.629 249.286 106.955 250.09 107.125C252.234 107.55 253.139 105.589 252.406 103.646C251.746 101.929 249.828 99.5879 247.738 100.031C245.648 100.474 245.042 102.706 246.146 104.414Z" fill="#E4897B"/>
<path d="M263.144 106.068C262.679 106.892 262.277 107.75 261.941 108.634C261.769 108.634 261.606 108.571 261.443 108.526C259.236 108.038 258.367 107.08 258.078 106.167C257.946 105.721 257.924 105.25 258.015 104.793C258.055 104.53 258.134 104.274 258.25 104.034C259.485 104.926 260.898 105.543 262.393 105.842C262.854 106.013 263.144 106.068 263.144 106.068Z" fill="#263238"/>
<path d="M262.393 105.887L262.022 106.637C259.933 106.167 258.53 105.561 258.015 104.829C258.055 104.566 258.135 104.31 258.25 104.07C259.485 104.966 260.898 105.585 262.393 105.887Z" fill="white"/>
<path d="M261.434 108.526C259.226 108.038 258.358 107.08 258.068 106.167C258.907 106.37 259.703 106.719 260.42 107.197C260.89 107.522 261.244 107.987 261.434 108.526Z" fill="#DE5753"/>
<path d="M244.616 96.2532C244.616 96.2532 241.341 91.1563 247.421 85.716C253.5 80.2757 261.506 82.553 263.198 84.8123C263.198 84.8123 268.047 85.8787 265.641 90.6864L262.447 88.1741C262.447 88.1741 257.372 96.4159 244.616 96.2532Z" fill="#263238"/>
<path d="M267.378 119.117L264.203 143.553L251.185 120.906L260.928 122.641L267.378 119.117Z" fill="#407BFF"/>
<path opacity="0.4" d="M267.378 119.117L264.872 138.384L264.203 143.553L261.733 139.26L251.185 120.906L260.928 122.641L267.378 119.117Z" fill="white"/>
<path d="M264.872 138.384L264.202 143.553L261.732 139.261L261.199 128.606L256.757 124.087L260.927 122.641L261.334 122.506L264.917 122.949L262.936 127.901L264.872 138.384Z" fill="#263238"/>
<path d="M254.089 118.078L260.946 121.81L263.199 117.201L267.378 119.117L265.84 126.365L261.389 123.627L258.069 127.865L251.185 120.906L254.089 118.078Z" fill="#407BFF"/>
<path opacity="0.6" d="M254.089 118.078L260.946 121.81L263.199 117.201L267.378 119.117L265.84 126.365L261.389 123.627L258.069 127.865L251.185 120.906L254.089 118.078Z" fill="white"/>
<path d="M196.729 113.027L191.689 110.753L186.327 110.932C186.327 110.932 174.952 108.601 179.992 138.014L182.007 138.574L181.898 135.862L182.941 138.832L191.206 141.121L193.317 139.09L192.287 141.422L194.09 141.917L196.214 137.34L194.74 142.096L196.4 142.556C196.4 142.556 199.941 136.702 200.16 121.033L196.729 113.027Z" fill="#263238"/>
<path d="M201.84 194.869C201.84 194.869 209.082 245.087 206.777 254.593C204.473 264.098 171.863 313.599 171.863 313.599L167.917 310.73C167.917 310.73 181.435 274.981 191.683 258.933C193.614 255.855 195.294 253.703 195.937 251.551C196.697 249.033 195.12 245.209 194.006 242.289C191.979 237.066 185.767 220.882 185.767 220.882C185.767 220.882 179.723 208.399 184.383 196.253L201.84 194.869Z" fill="#EBB376"/>
<path d="M175.139 324.655C173.695 322.315 173.14 319.435 173.594 316.641L174.308 310.443L175.988 308.362C175.988 308.362 175.589 305.679 173.478 305.557C172.174 305.467 170.902 305.071 169.744 304.395L168.373 307.222C166.938 307.444 163.282 314.259 161.885 317.316L162.586 317.861C163.901 316.458 165.109 314.937 166.198 313.312C164.318 321.419 174.566 328.091 175.57 326.864C175.937 326.412 175.654 325.551 175.139 324.655Z" fill="#263238"/>
<g opacity="0.1">
<path opacity="0.1" d="M187.44 289.287L189.641 262.305C184.492 271.294 178.769 284.114 174.508 294.309C174.797 299.424 175.152 304.173 175.48 308.054C178.428 303.513 182.844 296.647 187.44 289.287Z" fill="black"/>
</g>
<path d="M193.202 194.869L183.179 317.767L178.319 317.724C178.319 317.724 174.373 280.742 176.388 260.583C176.832 256.142 177.714 253.007 178.036 250.769C178.332 248.703 177.894 247.576 176.922 242.648C174.405 229.95 170.608 205.723 175.635 194.869H193.202Z" fill="#EBB376"/>
<path d="M193.202 194.869L183.179 317.767L178.319 317.724C178.319 317.724 174.373 280.742 176.388 260.583C176.832 256.142 177.714 253.007 178.036 250.769C178.332 248.703 177.894 247.576 176.922 242.648C174.405 229.95 170.608 205.723 175.635 194.869H193.202Z" fill="#EBB376"/>
<path d="M191.876 324.31C189.492 323.304 187.562 321.287 186.507 318.7L183.933 313.155L184.248 310.378C184.248 310.378 182.555 308.427 180.753 309.661C179.636 310.422 178.388 310.911 177.09 311.096L177.412 314.288C176.343 315.379 176.82 323.306 177.238 326.699H178.094C178.455 324.713 178.67 322.698 178.738 320.673C181.313 328.529 193.15 327.517 193.363 325.86C193.44 325.236 192.758 324.719 191.876 324.31Z" fill="#263238"/>
<path d="M177.449 189.904C177.449 189.904 169.461 196.06 172.158 220.215C174.855 244.37 174.533 247.239 174.533 247.239C185.466 247.933 196.433 247.573 207.311 246.163C207.311 246.163 207.311 206.211 202.013 189.488L188.051 189.201L177.449 189.904Z" fill="#263238"/>
<path d="M178.075 186.619L174.663 191.497C174.542 191.611 174.462 191.771 174.44 191.946C174.418 192.122 174.455 192.3 174.543 192.447C174.632 192.594 174.766 192.699 174.92 192.742C175.074 192.785 175.237 192.763 175.378 192.681C178.3 191.727 183.224 190.529 182.825 193.434C182.259 197.559 192.848 188.685 193.768 192.358C194.534 195.342 199.916 192.014 202.845 192.035C202.968 192.051 203.093 192.026 203.204 191.965C203.315 191.903 203.408 191.807 203.471 191.688C203.534 191.569 203.565 191.432 203.56 191.294C203.555 191.156 203.515 191.022 203.443 190.909L201.152 186.604L183.965 184.452L178.075 186.619Z" fill="#407BFF"/>
<path opacity="0.2" d="M178.075 186.619L174.663 191.497C174.542 191.611 174.462 191.771 174.44 191.946C174.418 192.122 174.455 192.3 174.543 192.447C174.632 192.594 174.766 192.699 174.92 192.742C175.074 192.785 175.237 192.763 175.378 192.681C178.3 191.727 183.224 190.529 182.825 193.434C182.259 197.559 192.848 188.685 193.768 192.358C194.534 195.342 199.916 192.014 202.845 192.035C202.968 192.051 203.093 192.026 203.204 191.965C203.315 191.903 203.408 191.807 203.471 191.688C203.534 191.569 203.565 191.432 203.56 191.294C203.555 191.156 203.515 191.022 203.443 190.909L201.152 186.604L183.965 184.452L178.075 186.619Z" fill="white"/>
<path opacity="0.2" d="M183.752 190.371L182.555 192.229C182.68 192.392 182.77 192.587 182.817 192.796C182.864 193.005 182.867 193.223 182.825 193.434C182.722 194.151 182.986 194.488 183.469 194.539L184.344 190.679C184.361 190.596 184.352 190.509 184.318 190.433C184.284 190.357 184.228 190.296 184.159 190.26C184.09 190.224 184.012 190.215 183.938 190.235C183.864 190.255 183.798 190.303 183.752 190.371Z" fill="black"/>
<path opacity="0.2" d="M195.539 193.613L194.663 190.199C194.633 190.126 194.583 190.066 194.52 190.027C194.457 189.988 194.385 189.972 194.314 189.982C194.242 189.991 194.175 190.026 194.123 190.08C194.07 190.134 194.034 190.206 194.02 190.285L193.897 192.58C194.042 192.92 194.277 193.202 194.571 193.387C194.865 193.572 195.203 193.651 195.539 193.613Z" fill="black"/>
<path d="M183.706 129.986C184.349 133.774 184.941 140.704 182.547 143.201C182.547 143.201 185.489 146.071 191.237 149.019C195.035 145.59 193.084 143.28 193.084 143.28C189.319 142.211 189.441 139.105 190.091 136.178L183.706 129.986Z" fill="#EBB376"/>
<path opacity="0.2" d="M184.432 133.624C184.625 136.034 187.651 138.129 189.749 138.567C189.797 137.774 189.914 136.989 190.097 136.221L184.677 130.934C184.487 131.814 184.404 132.719 184.432 133.624Z" fill="black"/>
<path d="M182.483 121.392C182.483 127.72 182.315 130.396 184.974 133.839C188.978 139.026 195.949 137.692 197.68 131.5C199.238 125.933 199.032 116.528 193.651 113.608C192.468 112.951 191.153 112.644 189.833 112.715C188.513 112.786 187.232 113.234 186.111 114.015C184.99 114.796 184.068 115.884 183.433 117.176C182.798 118.467 182.471 119.919 182.483 121.392Z" fill="#EBB376"/>
<path d="M194.714 124.958C195.05 126.16 195.536 127.305 196.156 128.358C195.911 128.528 195.635 128.637 195.348 128.677C195.061 128.717 194.77 128.686 194.495 128.588L194.714 124.958Z" fill="#D58745"/>
<path d="M188.997 121.091C188.959 121.079 188.923 121.057 188.894 121.026C188.853 120.979 188.83 120.916 188.83 120.85C188.83 120.785 188.853 120.722 188.894 120.675C189.191 120.341 189.555 120.091 189.956 119.946C190.357 119.802 190.783 119.766 191.199 119.842C191.256 119.859 191.305 119.9 191.336 119.956C191.367 120.012 191.378 120.079 191.366 120.144C191.354 120.208 191.319 120.265 191.27 120.301C191.221 120.337 191.16 120.35 191.102 120.337C190.752 120.275 190.394 120.308 190.058 120.432C189.722 120.557 189.418 120.771 189.171 121.055C189.147 121.075 189.118 121.089 189.088 121.095C189.058 121.102 189.027 121.1 188.997 121.091Z" fill="#2E353A"/>
<path d="M198.75 121.909C198.712 121.894 198.677 121.872 198.647 121.844C198.404 121.567 198.106 121.358 197.777 121.234C197.449 121.109 197.098 121.072 196.754 121.127C196.696 121.142 196.635 121.131 196.585 121.096C196.534 121.061 196.498 121.005 196.484 120.94C196.477 120.908 196.477 120.874 196.482 120.841C196.487 120.808 196.498 120.777 196.514 120.749C196.53 120.721 196.552 120.697 196.576 120.678C196.601 120.659 196.629 120.646 196.658 120.639C197.076 120.565 197.503 120.603 197.905 120.75C198.307 120.897 198.672 121.149 198.969 121.485C199.006 121.524 199.03 121.576 199.037 121.631C199.044 121.687 199.035 121.744 199.009 121.793C198.984 121.842 198.945 121.88 198.898 121.901C198.851 121.922 198.799 121.925 198.75 121.909Z" fill="#2E353A"/>
<path d="M191.516 123.867C191.516 124.377 191.702 124.814 192.005 124.836C192.307 124.857 192.571 124.463 192.603 123.946C192.636 123.43 192.417 123.006 192.114 122.985C191.812 122.963 191.548 123.351 191.516 123.867Z" fill="#2E353A"/>
<path d="M196.715 124.262C196.683 124.771 196.902 125.201 197.204 125.223C197.507 125.244 197.771 124.857 197.803 124.34C197.835 123.824 197.616 123.393 197.314 123.372C197.011 123.35 196.741 123.745 196.715 124.262Z" fill="#2E353A"/>
<path d="M197.18 123.387L198.306 123.121C198.306 123.121 197.682 124.025 197.18 123.387Z" fill="#2E353A"/>
<path d="M191.984 122.999L193.104 122.727C193.104 122.727 192.48 123.645 191.984 122.999Z" fill="#2E353A"/>
<path d="M193.317 131.199C193.509 131.255 193.705 131.294 193.903 131.314C193.931 131.316 193.958 131.306 193.98 131.286C194.001 131.266 194.015 131.237 194.019 131.206C194.02 131.175 194.011 131.144 193.993 131.12C193.975 131.096 193.95 131.081 193.922 131.077C193.484 131.045 193.059 130.898 192.681 130.649C192.303 130.4 191.983 130.055 191.746 129.642C191.74 129.629 191.731 129.617 191.721 129.607C191.71 129.597 191.698 129.589 191.685 129.585C191.672 129.58 191.658 129.578 191.644 129.58C191.63 129.581 191.617 129.585 191.605 129.592C191.592 129.599 191.582 129.609 191.573 129.621C191.564 129.632 191.557 129.646 191.553 129.661C191.549 129.675 191.547 129.691 191.548 129.706C191.549 129.721 191.553 129.736 191.56 129.75C191.955 130.468 192.585 130.988 193.317 131.199Z" fill="#2E353A"/>
<path d="M181.402 144.292L182.741 142.018L182.374 140.884C182.341 140.802 182.327 140.711 182.335 140.621C182.344 140.531 182.373 140.445 182.421 140.372C182.469 140.299 182.533 140.242 182.608 140.205C182.682 140.169 182.764 140.156 182.844 140.167C184.621 140.36 189.178 140.762 191.65 140.289C191.727 140.274 191.805 140.282 191.878 140.312C191.951 140.341 192.016 140.391 192.066 140.457C192.117 140.523 192.151 140.602 192.166 140.687C192.181 140.772 192.177 140.859 192.152 140.941L191.785 142.175L195.918 144.686L195.487 149.414L193.182 151.624L189.268 150.605L182.883 147.111L181.402 144.292Z" fill="#407BFF"/>
<path opacity="0.2" d="M181.402 144.292L182.741 142.018L182.374 140.884C182.341 140.802 182.327 140.711 182.335 140.621C182.344 140.531 182.373 140.445 182.421 140.372C182.469 140.299 182.533 140.242 182.608 140.205C182.682 140.169 182.764 140.156 182.844 140.167C184.621 140.36 189.178 140.762 191.65 140.289C191.727 140.274 191.805 140.282 191.878 140.312C191.951 140.341 192.016 140.391 192.066 140.457C192.117 140.523 192.151 140.602 192.166 140.687C192.181 140.772 192.177 140.859 192.152 140.941L191.785 142.175L195.918 144.686L195.487 149.414L193.182 151.624L189.268 150.605L182.883 147.111L181.402 144.292Z" fill="white"/>
<path d="M209.822 167.514L213.685 159.938L216.633 154.787H220.752C220.935 154.789 221.111 154.861 221.251 154.992C221.391 155.123 221.485 155.304 221.518 155.505L221.692 156.33C221.738 156.556 221.736 156.792 221.685 157.017C221.635 157.242 221.538 157.452 221.403 157.628L218.712 161.115C218.542 161.334 218.318 161.494 218.068 161.574L215.854 162.291L211.657 173.648L209.822 167.514Z" fill="#EBB376"/>
<path d="M199.844 145.088C199.844 145.088 205.721 145.49 208.341 169.673C208.341 169.673 208.47 166.804 209.821 166.804V165.721C209.821 165.647 209.84 165.575 209.875 165.514C209.911 165.452 209.962 165.403 210.021 165.373C210.081 165.343 210.148 165.332 210.213 165.343C210.278 165.354 210.338 165.385 210.388 165.434L214.302 169.372C214.34 169.407 214.372 169.451 214.394 169.502C214.415 169.552 214.426 169.607 214.426 169.663C214.426 169.718 214.415 169.773 214.394 169.824C214.372 169.874 214.34 169.918 214.302 169.953L213.246 170.864C213.246 170.864 210.871 180.829 207.749 180.829C202.438 180.822 191.753 146.86 199.844 145.088Z" fill="#407BFF"/>
<path opacity="0.2" d="M199.844 145.088C199.844 145.088 205.721 145.49 208.341 169.673C208.341 169.673 208.47 166.804 209.821 166.804V165.721C209.821 165.647 209.84 165.575 209.875 165.514C209.911 165.452 209.962 165.403 210.021 165.373C210.081 165.343 210.148 165.332 210.213 165.343C210.278 165.354 210.338 165.385 210.388 165.434L214.302 169.372C214.34 169.407 214.372 169.451 214.394 169.502C214.415 169.552 214.426 169.607 214.426 169.663C214.426 169.718 214.415 169.773 214.394 169.824C214.372 169.874 214.34 169.918 214.302 169.953L213.246 170.864C213.246 170.864 210.871 180.829 207.749 180.829C202.438 180.822 191.753 146.86 199.844 145.088Z" fill="white"/>
<path opacity="0.1" d="M198.191 151.379L196.955 153.151C197.367 161.043 201.062 172.521 204.474 177.873C205.555 174.642 206.151 171.234 206.237 167.787C206.321 161.064 201.796 150.311 201.796 150.311L198.191 151.379Z" fill="black"/>
<path d="M199.845 145.088C198.12 144.593 196.478 144.213 194.914 143.919C196.523 148.797 191.754 150.089 191.754 150.089C188.2 146.702 183.482 144.263 181.725 143.424C179.562 143.652 177.433 144.185 175.391 145.009L178.075 186.619H201.171C201.171 186.619 204.467 172.629 204.711 164.86C204.956 157.09 199.845 145.088 199.845 145.088Z" fill="#407BFF"/>
<path opacity="0.1" d="M179.843 151.379C179.843 151.379 185.089 160.325 185.842 170.269L189.093 168.059L192.659 173.275C192.718 173.361 192.758 173.463 192.773 173.57C192.789 173.678 192.78 173.788 192.749 173.891C192.717 173.994 192.662 174.087 192.591 174.161C192.519 174.235 192.432 174.288 192.337 174.315L191.05 174.688C191.05 174.688 189.421 182.135 184.754 182.579C180.087 183.024 174.609 168.769 174.609 168.769L179.843 151.379Z" fill="black"/>
<path opacity="0.2" d="M185.457 143.617C187.822 144.15 190.245 144.291 192.647 144.033C192.647 144.033 193.278 146.666 185.457 143.617Z" fill="black"/>
<path d="M188.051 169.135L195.614 161.33L199.631 155.792C199.765 155.605 199.959 155.484 200.172 155.454L206.255 154.558V154.924C206.262 155.128 206.217 155.33 206.123 155.506C206.029 155.682 205.892 155.823 205.727 155.914L203.616 157.069L203.043 161.473C203.017 161.634 202.955 161.785 202.861 161.911C202.767 162.037 202.646 162.133 202.508 162.191L198.292 163.913L189.982 173.562L188.051 169.135Z" fill="#EBB376"/>
<path d="M187.479 168.719L188.355 167.22C188.414 167.13 188.493 167.056 188.583 167.005C188.673 166.955 188.772 166.928 188.873 166.928C188.974 166.928 189.073 166.955 189.163 167.005C189.253 167.056 189.331 167.13 189.391 167.22L192.262 171.819C192.312 171.907 192.345 172.006 192.357 172.11C192.369 172.214 192.361 172.319 192.333 172.419C192.304 172.519 192.257 172.611 192.194 172.688C192.13 172.765 192.053 172.826 191.966 172.866L190.434 173.504C190.434 173.504 188.297 180.284 184.351 180.227C180.405 180.169 174.94 173.77 172.281 160.419C169.623 147.068 175.39 145.023 175.39 145.023C175.39 145.023 181.184 143.538 184.628 170.47C184.628 170.455 185.947 168.755 187.479 168.719Z" fill="#407BFF"/>
<path opacity="0.2" d="M187.479 168.719L188.355 167.22C188.414 167.13 188.493 167.056 188.583 167.005C188.673 166.955 188.772 166.928 188.873 166.928C188.974 166.928 189.073 166.955 189.163 167.005C189.253 167.056 189.331 167.13 189.391 167.22L192.262 171.819C192.312 171.907 192.345 172.006 192.357 172.11C192.369 172.214 192.361 172.319 192.333 172.419C192.304 172.519 192.257 172.611 192.194 172.688C192.13 172.765 192.053 172.826 191.966 172.866L190.434 173.504C190.434 173.504 188.297 180.284 184.351 180.227C180.405 180.169 174.94 173.77 172.281 160.419C169.623 147.068 175.39 145.023 175.39 145.023C175.39 145.023 181.184 143.538 184.628 170.47C184.628 170.455 185.947 168.755 187.479 168.719Z" fill="white"/>
<path opacity="0.6" d="M194.468 247.304L190.851 227.009L190.098 247.491C191.482 247.419 192.943 247.419 194.468 247.304Z" fill="black"/>
<path d="M216.812 159.178H214.134C214.039 159.177 213.945 159.15 213.861 159.098C213.778 159.046 213.708 158.972 213.657 158.882C213.606 158.792 213.577 158.689 213.571 158.582C213.566 158.476 213.585 158.37 213.626 158.274L218.673 146.745C218.784 146.493 218.956 146.282 219.17 146.133C219.384 145.985 219.631 145.906 219.883 145.906H222.56C222.656 145.906 222.75 145.934 222.833 145.985C222.917 146.037 222.987 146.112 223.038 146.202C223.089 146.292 223.118 146.395 223.124 146.501C223.129 146.608 223.11 146.714 223.069 146.81L218.022 158.338C217.911 158.59 217.738 158.802 217.525 158.95C217.311 159.099 217.064 159.177 216.812 159.178Z" fill="#407BFF"/>
<path opacity="0.2" d="M223.068 146.265C223.026 146.153 222.955 146.058 222.864 145.992C222.774 145.926 222.668 145.891 222.559 145.892H219.881C219.63 145.892 219.383 145.971 219.169 146.119C218.955 146.267 218.783 146.479 218.671 146.731L214.88 155.39L223.068 146.265Z" fill="white"/>
<path d="M222.562 145.892H222.472C222.466 145.956 222.451 146.019 222.427 146.078L217.38 157.607C217.27 157.861 217.099 158.076 216.885 158.227C216.671 158.378 216.423 158.459 216.17 158.461H213.595C213.584 158.55 213.59 158.641 213.613 158.727C213.637 158.813 213.676 158.893 213.729 158.961C213.782 159.029 213.847 159.084 213.921 159.121C213.994 159.158 214.074 159.178 214.155 159.178H216.833C217.085 159.178 217.332 159.099 217.545 158.951C217.759 158.802 217.932 158.59 218.043 158.339L223.09 146.81C223.135 146.712 223.156 146.602 223.151 146.492C223.146 146.382 223.116 146.275 223.062 146.182C223.009 146.089 222.935 146.013 222.847 145.962C222.759 145.911 222.661 145.887 222.562 145.892Z" fill="#407BFF"/>
<path opacity="0.2" d="M222.562 145.892H222.472C222.466 145.956 222.451 146.019 222.427 146.078L217.38 157.607C217.27 157.861 217.099 158.076 216.885 158.227C216.671 158.378 216.423 158.459 216.17 158.461H213.595C213.584 158.55 213.59 158.641 213.613 158.727C213.637 158.813 213.676 158.893 213.729 158.961C213.782 159.029 213.847 159.084 213.921 159.121C213.994 159.158 214.074 159.178 214.155 159.178H216.833C217.085 159.178 217.332 159.099 217.545 158.951C217.759 158.802 217.932 158.59 218.043 158.339L223.09 146.81C223.135 146.712 223.156 146.602 223.151 146.492C223.146 146.382 223.116 146.275 223.062 146.182C223.009 146.089 222.935 146.013 222.847 145.962C222.759 145.911 222.661 145.887 222.562 145.892Z" fill="black"/>
<path d="M220.545 154.429L219.451 153.955C219.293 153.884 219.124 153.849 218.954 153.852C218.784 153.854 218.615 153.894 218.459 153.97C218.303 154.045 218.162 154.154 218.043 154.291C217.925 154.428 217.833 154.589 217.771 154.766L217.378 155.842C217.287 156.107 217.264 156.396 217.314 156.674L217.958 160.405L220.848 155.598C220.907 155.502 220.946 155.393 220.962 155.278C220.979 155.163 220.973 155.046 220.944 154.934C220.915 154.822 220.864 154.719 220.795 154.632C220.726 154.544 220.641 154.475 220.545 154.429Z" fill="#EBB376"/>
<path d="M180.636 123.788C180.636 123.788 185.039 129.047 186.43 124.384C187.82 119.72 188.631 118.049 191.045 117.927C193.459 117.805 194.373 114.519 194.373 114.519C194.373 114.519 194.747 117.511 196.89 118.946C199.034 120.381 198.557 134.305 198.126 139.09C198.126 139.09 202.149 133.588 201.235 120.797C200.321 108.005 189.648 110.337 189.648 110.337C189.648 110.337 177.798 108.156 180.636 123.788Z" fill="#263238"/>
<path d="M180.849 126.277C181.095 127.465 181.752 128.497 182.677 129.147C183.919 130.001 184.937 128.874 184.93 127.339C184.93 125.962 184.286 123.853 182.87 123.623C182.626 123.59 182.378 123.611 182.141 123.685C181.904 123.76 181.682 123.885 181.489 124.055C181.296 124.225 181.135 124.436 181.015 124.676C180.895 124.916 180.819 125.18 180.791 125.452C180.758 125.729 180.778 126.01 180.849 126.277Z" fill="#EBB376"/>
<path d="M194.423 112.31C194.423 112.31 192.35 116.836 194.874 118.946C194.959 119.011 195.06 119.043 195.163 119.039C195.266 119.034 195.365 118.992 195.445 118.919C195.525 118.846 195.581 118.746 195.606 118.635C195.631 118.523 195.622 118.406 195.582 118.3C194.828 116.414 194.433 114.374 194.423 112.31Z" fill="#263238"/>
<path d="M106.241 144.271L96.9142 161.667L77.8167 160.555C78.3452 161.535 78.9313 162.482 79.5717 163.393C80.6211 164.875 85.1535 165.571 85.5878 165.2C86.1702 164.797 86.7742 164.426 87.3971 164.089C87.3971 164.089 101.166 166.682 102.912 166.502C104.658 166.321 110.149 147.813 110.149 147.813L106.241 144.271Z" fill="#EBB376"/>
<path opacity="0.2" d="M77.8169 160.555C78.3455 161.535 78.9315 162.482 79.572 163.393C80.6214 164.875 85.1538 165.571 85.588 165.2C86.1704 164.797 86.7744 164.426 87.3973 164.089C87.3973 164.089 101.166 166.682 102.912 166.502C103.591 166.438 104.83 163.61 106.088 160.176C108.087 154.753 110.141 147.804 110.141 147.804L106.223 144.234L102.605 150.985L96.8963 161.631L77.8169 160.555Z" fill="black"/>
<path opacity="0.2" d="M102.622 151.048C102.839 154.554 103.717 158.079 105.997 160.148L106.105 160.239C108.105 154.816 110.158 147.867 110.158 147.867L106.241 144.297L102.622 151.048Z" fill="black"/>
<path d="M148.933 183.744L102.161 180.229C102.161 180.229 112.61 144.921 115.731 140.393C118.852 135.866 129.301 131.646 129.301 131.646L142.41 134.275L148.933 183.744Z" fill="#407BFF"/>
<path opacity="0.2" d="M148.933 183.744L102.161 180.229C102.161 180.229 112.61 144.921 115.731 140.393C118.852 135.866 129.301 131.646 129.301 131.646L142.41 134.275L148.933 183.744Z" fill="black"/>
<path d="M115.469 131.013C113.126 131.537 102.93 145.4 102.93 145.4L110.077 151.572L115.469 131.013Z" fill="#407BFF"/>
<path opacity="0.2" d="M115.469 131.013C113.126 131.537 102.93 145.4 102.93 145.4L110.077 151.572L115.469 131.013Z" fill="white"/>
<path d="M141.831 174.391H107.589C104.332 192.139 94.1549 264.192 101.456 320.14H113.035C113.035 320.14 111.968 235.192 122.19 207.71C123.403 222.441 135.362 320.041 135.362 320.041H147.123C147.123 320.041 145.368 283.296 143.595 248.594C142.518 226.778 141.885 178.882 141.831 174.391Z" fill="#407BFF"/>
<path opacity="0.6" d="M141.831 174.391H107.589C104.332 192.139 94.1549 264.192 101.456 320.14H113.035C113.035 320.14 111.968 235.192 122.19 207.71C123.403 222.441 135.362 320.041 135.362 320.041H147.123C147.123 320.041 145.368 283.296 143.595 248.594C142.518 226.778 141.885 178.882 141.831 174.391Z" fill="white"/>
<path opacity="0.2" d="M122.227 207.71C120.541 212.524 119.261 217.469 118.4 222.495C117.45 209.418 121.277 195.556 121.277 195.556L122.227 207.71Z" fill="black"/>
<path d="M137.678 319.39H145.513C145.641 319.393 145.764 319.437 145.864 319.518C145.964 319.598 146.035 319.709 146.065 319.833L147.331 325.572C147.363 325.693 147.369 325.821 147.349 325.945C147.328 326.07 147.282 326.188 147.213 326.294C147.144 326.399 147.054 326.489 146.948 326.558C146.842 326.627 146.723 326.672 146.598 326.692C146.529 326.701 146.459 326.701 146.39 326.692C143.857 326.647 142.012 326.493 138.827 326.493C136.873 326.493 130.957 326.701 128.252 326.701C125.547 326.701 125.194 323.99 126.298 323.782C131.273 322.698 135.01 321.198 136.602 319.779C136.897 319.515 137.283 319.376 137.678 319.39Z" fill="#263238"/>
<path d="M104.477 319.191H112.303C112.432 319.191 112.557 319.234 112.657 319.315C112.758 319.395 112.827 319.508 112.854 319.634L114.121 325.364C114.148 325.486 114.15 325.612 114.127 325.735C114.105 325.858 114.058 325.976 113.99 326.081C113.922 326.186 113.834 326.276 113.73 326.347C113.627 326.418 113.511 326.468 113.388 326.493H113.18C110.647 326.448 108.802 326.294 105.617 326.294C103.663 326.294 97.7466 326.502 95.0416 326.502C92.3367 326.502 91.9839 323.791 93.0966 323.583C98.0632 322.508 101.799 321.008 103.392 319.58C103.689 319.314 104.078 319.174 104.477 319.191Z" fill="#263238"/>
<path d="M112.049 178.539L106.892 178.475L107.336 174.797H112.049V178.539Z" fill="black"/>
<path d="M130.703 174.797H141.776V178.9L130.703 178.765V174.797Z" fill="black"/>
<path d="M129.473 178.747L113.279 178.548V174.797H129.473V178.747Z" fill="black"/>
<path d="M123.032 178.674H116.663V174.093H123.032V178.674Z" fill="white"/>
<path d="M141.776 174.798H107.336C107.336 174.798 106.892 150.253 115.478 131.013L151.664 136.499C152.049 136.556 152.415 136.704 152.733 136.929C153.051 137.154 153.311 137.45 153.493 137.793C153.675 138.137 153.774 138.519 153.782 138.908C153.789 139.296 153.706 139.682 153.537 140.032C150.733 145.96 144.68 159.841 141.776 174.798Z" fill="#263238"/>
<path d="M130.541 136.589C130.541 136.589 137.778 137.899 140.818 135.351C139.424 133.679 139.198 130.832 139.488 127.841C139.715 125.727 140.114 123.636 140.682 121.587C140.863 120.927 141.044 120.313 141.225 119.78L132.015 125.952C132.015 126.097 132.015 126.232 132.069 126.386C132.115 126.811 132.16 127.235 132.169 127.66C132.228 128.686 132.089 129.714 131.762 130.687C131.606 131.365 131.347 132.014 130.993 132.612C130.396 133.12 129.633 133.39 128.849 133.372C127.799 134.781 130.541 136.589 130.541 136.589Z" fill="#EBB376"/>
<path opacity="0.2" d="M130.956 132.612C134.272 132.051 137.288 130.355 139.488 127.814C139.715 125.7 140.114 123.609 140.682 121.56L132.033 126.386C132.078 126.811 132.124 127.235 132.133 127.66C132.191 128.686 132.053 129.713 131.725 130.687C131.57 131.365 131.31 132.014 130.956 132.612Z" fill="black"/>
<path d="M142.871 120.647C142.871 120.647 145.015 121.461 145.513 120.232C146.011 119.003 145.233 117.259 146.192 116.825C147.15 116.391 149.331 116.12 149.068 114.909C148.806 113.698 147.322 112.858 148.164 111.963C149.005 111.068 150.878 109.776 149.91 108.899C148.942 108.023 147.992 106.532 148.688 105.89C149.385 105.248 148.082 102.076 146.164 102.483C144.247 102.89 144.418 101.29 144.355 99.9165C144.292 98.5429 141.252 97.6302 140.736 99.0851C140.221 100.54 138.538 98.9224 138.022 97.7296C137.507 96.5367 136.62 96.1933 134.974 97.2325C133.327 98.2718 133.354 101.209 132.26 99.6183C131.165 98.0278 129.111 97.1512 128.243 98.1904C127.374 99.2297 128.062 100.368 126.542 100.459C125.022 100.549 123.186 103.495 123.973 103.848C124.76 104.2 124.724 104.968 123.783 105.89C122.842 106.812 121.793 108.285 123.186 108.764C124.579 109.243 124.597 110.21 124.235 110.643C123.873 111.077 125.267 112.885 127.058 112.586C128.849 112.288 142.871 120.647 142.871 120.647Z" fill="#263238"/>
<path d="M125.312 104.86C125.312 104.86 122.698 113.319 126.805 117.331C130.912 121.343 133.318 105.239 133.318 105.239L125.312 104.86Z" fill="#263238"/>
<path d="M139.126 126.205C137.949 127.488 136.382 128.348 134.668 128.655C132.954 128.962 131.186 128.698 129.636 127.904C127.612 126.917 126.042 125.193 125.248 123.088C125.135 122.792 125.039 122.49 124.959 122.184C123.484 116.563 124.154 107.2 130.269 104.571C131.617 103.98 133.095 103.744 134.56 103.886C136.025 104.028 137.43 104.542 138.639 105.381C139.849 106.219 140.823 107.353 141.469 108.675C142.115 109.997 142.411 111.462 142.328 112.93C142.093 119.229 142.247 122.934 139.126 126.205Z" fill="#EBB376"/>
<path d="M132.812 114.9C132.857 115.415 132.567 115.803 132.224 115.803C131.88 115.803 131.609 115.397 131.599 114.9C131.59 114.403 131.853 113.996 132.188 113.996C132.522 113.996 132.794 114.376 132.812 114.9Z" fill="#263238"/>
<path d="M127.013 115.017C127.013 115.524 126.759 115.921 126.425 115.921C126.09 115.921 125.81 115.514 125.8 115.017C125.791 114.52 126.054 114.114 126.388 114.114C126.723 114.114 127.004 114.529 127.013 115.017Z" fill="#263238"/>
<path d="M128.858 115.225C128.285 116.807 127.493 118.3 126.506 119.662C126.862 119.907 127.269 120.07 127.695 120.14C128.122 120.211 128.559 120.186 128.976 120.069L128.858 115.225Z" fill="#D58745"/>
<path d="M124.85 112.677C124.897 112.703 124.95 112.717 125.003 112.717C125.057 112.717 125.11 112.703 125.157 112.677C125.454 112.442 125.801 112.279 126.172 112.201C126.542 112.122 126.926 112.131 127.292 112.225C127.33 112.242 127.371 112.251 127.412 112.251C127.453 112.252 127.494 112.243 127.532 112.227C127.57 112.211 127.604 112.187 127.632 112.157C127.66 112.127 127.682 112.092 127.696 112.053C127.709 112.014 127.715 111.973 127.712 111.932C127.709 111.891 127.698 111.851 127.679 111.814C127.659 111.778 127.633 111.746 127.601 111.72C127.568 111.694 127.531 111.675 127.491 111.665C127.03 111.526 126.541 111.502 126.068 111.595C125.595 111.688 125.152 111.895 124.777 112.198C124.744 112.22 124.716 112.248 124.694 112.281C124.673 112.314 124.658 112.351 124.651 112.39C124.644 112.429 124.645 112.469 124.655 112.508C124.664 112.546 124.681 112.582 124.705 112.614C124.748 112.645 124.797 112.667 124.85 112.677Z" fill="#263238"/>
<path d="M133.906 112.569C133.966 112.565 134.023 112.543 134.069 112.505C134.097 112.478 134.119 112.446 134.134 112.41C134.149 112.375 134.157 112.336 134.157 112.297C134.157 112.259 134.149 112.22 134.134 112.185C134.119 112.149 134.097 112.117 134.069 112.09C133.705 111.766 133.267 111.538 132.794 111.424C132.32 111.311 131.826 111.316 131.355 111.439C131.28 111.462 131.216 111.514 131.179 111.583C131.142 111.653 131.133 111.734 131.156 111.809C131.181 111.883 131.233 111.945 131.302 111.982C131.371 112.019 131.451 112.028 131.527 112.008C131.897 111.929 132.28 111.937 132.647 112.033C133.013 112.129 133.351 112.309 133.635 112.559C133.676 112.582 133.722 112.595 133.769 112.597C133.817 112.598 133.863 112.589 133.906 112.569Z" fill="#263238"/>
<path d="M137.551 105.185L136.963 106.369C139.026 107.101 138.556 109.496 138.103 110.58C137.144 112.885 138.375 116.536 140.121 118.027C140.121 118.027 140.211 117.024 141.025 117.286C141.839 117.548 141.496 122.798 139.768 125.265C139.768 125.265 142.346 123.06 143.911 117.575C145.368 112.505 145.639 108.258 144.644 106.251L137.551 105.185Z" fill="#263238"/>
<path d="M145.187 118.036C144.52 119.473 143.31 120.588 141.822 121.136C139.841 121.841 138.701 120.115 139.108 118.163C139.497 116.436 140.981 113.933 143.034 114.087C143.477 114.129 143.903 114.278 144.274 114.523C144.645 114.767 144.95 115.099 145.163 115.489C145.375 115.879 145.489 116.315 145.493 116.76C145.497 117.204 145.392 117.642 145.187 118.036Z" fill="#EBB376"/>
<path d="M138.085 128.763C135.145 130.914 129.355 131.7 126.433 127.977C123.511 124.253 124.298 118.18 124.298 118.18C124.651 119.527 125.3 120.777 126.198 121.84C127.754 119.879 130.522 120.937 130.522 120.937C131.081 120.168 131.901 119.628 132.829 119.419C134.15 119.256 137.859 119.419 137.859 119.419C139.044 118.641 139.026 115.252 139.026 115.252L139.768 115.84C139.768 115.84 141.062 126.648 138.085 128.763Z" fill="#263238"/>
<path opacity="0.2" d="M138.085 128.763C135.145 130.914 129.355 131.7 126.433 127.977C123.511 124.253 124.298 118.18 124.298 118.18C124.651 119.527 125.3 120.777 126.198 121.84C127.754 119.879 130.522 120.937 130.522 120.937C131.081 120.168 131.901 119.628 132.829 119.419C134.15 119.256 137.859 119.419 137.859 119.419C139.044 118.641 139.026 115.252 139.026 115.252L139.768 115.84C139.768 115.84 141.062 126.648 138.085 128.763Z" fill="white"/>
<path d="M130.26 122.861C130.821 123.577 131.329 124.332 131.78 125.121C131.925 125.066 132.078 125.021 132.223 124.958C134.259 124.181 134.937 123.151 135.091 122.247C135.152 121.8 135.106 121.344 134.955 120.918C134.879 120.677 134.766 120.448 134.621 120.241C133.58 121.279 132.327 122.08 130.948 122.59C130.532 122.762 130.26 122.861 130.26 122.861Z" fill="#263238"/>
<path d="M130.947 122.582L131.409 123.241C133.327 122.5 134.575 121.723 134.955 120.91C134.878 120.668 134.766 120.44 134.62 120.232C133.579 121.27 132.327 122.071 130.947 122.582Z" fill="white"/>
<path d="M132.223 124.958C134.259 124.181 134.937 123.151 135.091 122.247C134.322 122.556 133.614 123 133.001 123.557C132.606 123.935 132.335 124.424 132.223 124.958Z" fill="#DE5753"/>
<path d="M132.649 101.941C132.649 101.941 129.265 102.284 127.691 103.847C126.117 105.411 125.167 107.724 125.8 107.86C126.434 107.995 128.107 106.812 128.596 106.956C129.084 107.101 129.338 109.812 130.948 108.764C132.558 107.715 131.599 107.788 132.956 107.3C134.313 106.812 135.245 108.465 135.824 108.294C136.244 108.134 136.631 107.898 136.964 107.598C136.964 107.598 135.073 107.173 134.91 106.595C134.748 106.016 132.92 105.863 132.92 105.863C132.92 105.863 135.037 104.896 135.788 105.447C136.539 105.998 136.267 107.39 138.059 107.173C139.85 106.956 142.79 108.258 142.844 105.953C142.899 103.649 136.539 100.025 132.649 101.941Z" fill="#263238"/>
<path d="M136.964 134.275C136.964 134.275 137.515 175.15 147.15 190.648L157.653 185.389C154.212 177.374 152.106 168.851 151.42 160.157C151.001 154.768 151.518 149.348 152.949 144.135C153.384 142.622 153.925 141.143 154.568 139.707C155.193 138.306 153.736 136.779 152.207 136.544L136.964 134.275Z" fill="#407BFF"/>
<path d="M145.269 132.612L136.973 134.275L139.036 141.207L147.15 135.811L145.269 132.612Z" fill="#407BFF"/>
<path opacity="0.2" d="M145.269 132.612L136.973 134.275L139.036 141.207L147.15 135.811L145.269 132.612Z" fill="white"/>
<path d="M127.039 132.016L123.773 136.707C123.773 136.707 114.437 141.225 103.798 186.591L97.936 181.684C97.936 181.684 110.746 134.465 115.468 131.013L127.039 132.016Z" fill="#407BFF"/>
<path d="M129.238 131.646L123.774 136.706L125.746 131.51L127.728 130.344L129.238 131.646Z" fill="#407BFF"/>
<path opacity="0.2" d="M129.238 131.646L123.774 136.706L125.746 131.51L127.728 130.344L129.238 131.646Z" fill="white"/>
<path d="M132.25 117.928C132.763 117.994 133.283 117.902 133.742 117.666C134.201 117.429 134.577 117.058 134.82 116.603C135.063 116.147 135.161 115.629 135.101 115.116C135.042 114.603 134.827 114.121 134.486 113.733C134.145 113.346 133.694 113.071 133.193 112.946C132.692 112.82 132.165 112.851 131.681 113.032C131.198 113.214 130.781 113.538 130.487 113.962C130.192 114.387 130.035 114.89 130.034 115.406C129.997 116.033 130.209 116.65 130.623 117.122C131.038 117.594 131.623 117.883 132.25 117.928ZM132.25 113.337C132.674 113.268 133.109 113.331 133.496 113.518C133.883 113.704 134.203 114.004 134.414 114.378C134.625 114.752 134.715 115.181 134.674 115.608C134.633 116.035 134.461 116.439 134.183 116.766C133.905 117.092 133.533 117.326 133.117 117.435C132.702 117.543 132.263 117.522 131.86 117.374C131.457 117.226 131.109 116.958 130.864 116.606C130.618 116.254 130.486 115.835 130.486 115.406C130.451 114.899 130.616 114.399 130.946 114.012C131.276 113.625 131.744 113.383 132.25 113.337Z" fill="#263238"/>
<path d="M126.18 117.756C126.694 117.824 127.217 117.733 127.678 117.497C128.14 117.261 128.518 116.889 128.763 116.432C129.008 115.976 129.108 115.455 129.049 114.94C128.99 114.426 128.776 113.941 128.434 113.551C128.093 113.161 127.64 112.884 127.137 112.758C126.634 112.631 126.105 112.661 125.619 112.843C125.133 113.025 124.714 113.35 124.419 113.776C124.123 114.201 123.964 114.707 123.963 115.225C123.926 115.853 124.137 116.471 124.552 116.944C124.967 117.418 125.551 117.709 126.18 117.756ZM126.18 113.156C126.606 113.085 127.043 113.147 127.433 113.334C127.823 113.52 128.146 113.821 128.358 114.197C128.571 114.572 128.663 115.004 128.622 115.434C128.58 115.863 128.408 116.27 128.128 116.598C127.848 116.927 127.474 117.161 127.056 117.27C126.638 117.379 126.197 117.358 125.791 117.208C125.386 117.058 125.037 116.787 124.791 116.433C124.545 116.078 124.414 115.657 124.415 115.225C124.378 114.718 124.542 114.216 124.872 113.829C125.202 113.441 125.672 113.199 126.18 113.156Z" fill="#263238"/>
<path d="M130.133 115.596L130.387 115.216C130.332 115.216 129.03 114.312 128.035 115.044L128.306 115.406C129.048 114.9 130.115 115.587 130.133 115.596Z" fill="#263238"/>
<path d="M140.639 113.878L140.729 114.321L134.284 115.628L134.194 115.186L140.639 113.878Z" fill="#263238"/>
<path opacity="0.2" d="M141.225 157.781C141.225 157.781 146.399 161.079 151.42 160.194C151.001 154.805 151.518 149.384 152.949 144.171C152.497 143.421 152.189 142.978 152.189 142.978L141.225 157.781Z" fill="black"/>
<path d="M144.119 144.271C144.119 144.271 135.688 156.109 134.91 156.922C134.132 157.736 114.103 156.922 114.103 156.922L110.973 154.717C108.022 154.409 105.051 154.334 102.089 154.491C101.555 154.717 102.369 159.914 102.993 160.519C103.618 161.125 110.231 161.956 111.018 161.667C111.662 161.489 112.334 161.434 112.999 161.504C112.999 161.504 134.856 163.456 136.973 162.661C139.09 161.866 147.675 152.91 147.675 152.91L144.119 144.271Z" fill="#EBB376"/>
<path d="M154.487 137.339C160.766 141.532 148.797 159.109 148.797 159.109L139.036 150.144C139.036 150.144 147.612 132.748 154.487 137.339Z" fill="#407BFF"/>
<path opacity="0.2" d="M154.487 137.339C160.766 141.532 148.797 159.109 148.797 159.109L139.036 150.144C139.036 150.144 147.612 132.748 154.487 137.339Z" fill="white"/>
<path d="M115.677 161.766L115.568 162.851C115.532 163.21 115.358 163.542 115.084 163.777C114.809 164.013 114.455 164.134 114.094 164.116L74.1888 160.203C73.8163 160.156 73.4751 159.971 73.2323 159.685C72.9895 159.399 72.8627 159.032 72.877 158.657L72.9856 157.582L115.677 161.766Z" fill="#263238"/>
<path opacity="0.2" d="M115.677 161.766L115.568 162.851C115.532 163.21 115.358 163.542 115.084 163.777C114.809 164.013 114.455 164.134 114.094 164.116L74.1888 160.203C73.8163 160.156 73.4751 159.971 73.2323 159.685C72.9895 159.399 72.8627 159.032 72.877 158.657L72.9856 157.582L115.677 161.766Z" fill="white"/>
<path opacity="0.2" d="M100.786 160.302L100.678 161.387C100.641 161.748 100.466 162.081 100.19 162.316C99.9134 162.552 99.5567 162.672 99.1939 162.652L74.1889 160.203C73.8165 160.156 73.4753 159.971 73.2325 159.685C72.9897 159.399 72.8629 159.032 72.8772 158.657L72.9858 157.582L100.786 160.302Z" fill="white"/>
<path d="M99.293 161.658L72.9311 159.073C72.5044 159.016 72.1042 158.834 71.7819 158.549C71.4595 158.264 71.2297 157.89 71.1217 157.473L66.9422 137.935C66.889 137.766 66.8794 137.585 66.9143 137.411C66.9492 137.237 67.0276 137.074 67.1421 136.938C67.2566 136.802 67.4036 136.697 67.5695 136.633C67.7353 136.569 67.9147 136.547 68.0911 136.571L94.4621 139.164C94.8929 139.229 95.2948 139.419 95.617 139.712C95.9391 140.005 96.1669 140.387 96.2714 140.809L100.451 160.32C100.507 160.489 100.518 160.67 100.483 160.845C100.448 161.019 100.368 161.182 100.252 161.317C100.135 161.452 99.9854 161.554 99.8173 161.613C99.6493 161.673 99.4687 161.688 99.293 161.658Z" fill="#263238"/>
<path opacity="0.2" d="M99.293 161.658L72.9311 159.073C72.5044 159.016 72.1042 158.834 71.7819 158.549C71.4595 158.264 71.2297 157.89 71.1217 157.473L66.9422 137.935C66.889 137.766 66.8794 137.585 66.9143 137.411C66.9492 137.237 67.0276 137.074 67.1421 136.938C67.2566 136.802 67.4036 136.697 67.5695 136.633C67.7353 136.569 67.9147 136.547 68.0911 136.571L94.4621 139.164C94.8929 139.229 95.2948 139.419 95.617 139.712C95.9391 140.005 96.1669 140.387 96.2714 140.809L100.451 160.32C100.507 160.489 100.518 160.67 100.483 160.845C100.448 161.019 100.368 161.182 100.252 161.317C100.135 161.452 99.9854 161.554 99.8173 161.613C99.6493 161.673 99.4687 161.688 99.293 161.658Z" fill="white"/>
<path opacity="0.2" d="M98.2979 161.567L72.9672 159.073C72.5405 159.016 72.1404 158.834 71.818 158.549C71.4957 158.264 71.2659 157.89 71.1579 157.473L66.9783 137.935C66.9251 137.766 66.9155 137.585 66.9505 137.411C66.9854 137.237 67.0637 137.074 67.1782 136.938C67.2928 136.802 67.4398 136.697 67.6056 136.633C67.7715 136.569 67.9509 136.547 68.1273 136.571L93.5031 139.065C93.9335 139.13 94.3348 139.321 94.6567 139.614C94.9787 139.907 95.2068 140.288 95.3125 140.71L99.4468 160.23C99.4994 160.398 99.5083 160.577 99.4727 160.749C99.4371 160.922 99.3582 161.083 99.2433 161.216C99.1284 161.35 98.9814 161.452 98.816 161.514C98.6506 161.575 98.4723 161.594 98.2979 161.567Z" fill="white"/>
<path opacity="0.2" d="M85.1991 150.009C85.4071 151.301 84.6744 152.268 83.5707 152.159C82.9641 152.031 82.4124 151.717 81.9913 151.263C81.5701 150.808 81.3002 150.234 81.2185 149.62C81.0195 148.328 81.7432 147.361 82.8469 147.469C83.454 147.597 84.0064 147.91 84.4278 148.365C84.8491 148.82 85.1186 149.394 85.1991 150.009Z" fill="white"/>
<path d="M36.3998 122.5L45.6997 124.93L37.1959 131.546L33.1973 125.888L36.3998 122.5Z" fill="#263238"/>
<path d="M10.8072 127.849C10.8072 127.849 7.26093 127.424 7.07095 128.039C6.88097 128.653 6.58244 133.868 6.9805 134.654C7.43443 135.366 7.96866 136.024 8.5727 136.615L5.16211 144.089L9.32358 146.8L12.1099 138.558C12.1099 138.558 14.5073 136.66 14.1454 133.895C13.7836 131.13 10.8072 127.849 10.8072 127.849Z" fill="#EEC1BB"/>
<path opacity="0.2" d="M10.8072 127.849C10.8072 127.849 7.26093 127.424 7.07095 128.039C6.88097 128.653 6.58244 133.868 6.9805 134.654C7.43443 135.366 7.96866 136.024 8.5727 136.615L5.16211 144.089L9.32358 146.8L12.1099 138.558C12.1099 138.558 14.5073 136.66 14.1454 133.895C13.7836 131.13 10.8072 127.849 10.8072 127.849Z" fill="black"/>
<path d="M23.0562 124.46C20.116 124.759 10.5266 144.161 10.5266 144.161L4.60101 141.152C4.60101 141.152 -3.07056 152.71 1.28993 157.102C5.65042 161.494 21.5273 144.803 21.5273 144.803L23.0562 124.46Z" fill="#263238"/>
<path d="M50.1782 319.01H58.1211C58.252 319.011 58.3786 319.056 58.4805 319.138C58.5823 319.22 58.6534 319.334 58.682 319.462L60.0119 325.282C60.0396 325.405 60.0424 325.533 60.0199 325.657C59.9975 325.782 59.9503 325.901 59.8812 326.007C59.8121 326.113 59.7224 326.204 59.6174 326.275C59.5125 326.346 59.3943 326.395 59.27 326.42H59.062C56.4837 326.375 54.611 326.221 51.3814 326.221C49.3911 326.221 43.3932 326.429 40.652 326.429C37.9109 326.429 37.54 323.718 38.6708 323.465C43.7098 322.372 47.5094 320.844 49.1197 319.398C49.4137 319.145 49.7898 319.007 50.1782 319.01Z" fill="#263238"/>
<path d="M16.4703 318.802H24.4133C24.5441 318.803 24.6708 318.848 24.7727 318.93C24.8745 319.012 24.9456 319.126 24.9742 319.254L26.2679 325.073C26.3187 325.324 26.2682 325.584 26.1275 325.798C25.9868 326.011 25.7673 326.16 25.517 326.212C25.4479 326.221 25.378 326.221 25.3089 326.212C22.7306 326.167 20.858 326.013 17.6374 326.013C15.6471 326.013 9.64011 326.221 6.89898 326.221C4.15784 326.221 3.79599 323.51 4.91777 323.257C9.95676 322.164 13.7563 320.636 15.3666 319.19C15.6723 318.926 16.0665 318.788 16.4703 318.802Z" fill="#263238"/>
<path d="M54.3845 171.842H19.6635C16.3614 189.844 6.03017 262.98 13.4394 319.769H25.2C25.2 319.769 24.1054 233.529 34.4909 205.658C35.6851 220.57 47.8167 319.706 47.8167 319.706H59.7854C59.7854 319.706 57.976 282.41 56.2119 247.184C55.0811 225.007 54.4388 176.396 54.3845 171.842Z" fill="#407BFF"/>
<path opacity="0.2" d="M34.4825 205.658C32.7744 210.542 31.4792 215.56 30.6106 220.66C29.6335 207.393 33.5236 193.313 33.5236 193.313L34.4825 205.658Z" fill="black"/>
<path d="M19.374 172.257H54.3302V176.414L18.9307 175.981L19.374 172.257Z" fill="black"/>
<path d="M43.0941 170.387H41.8457V177.761H43.0941V170.387Z" fill="#407BFF"/>
<path d="M25.4086 170.387H24.1602V177.761H25.4086V170.387Z" fill="#407BFF"/>
<path d="M35.3053 171.525H28.8369V176.179H35.3053V171.525Z" fill="white"/>
<path d="M59.749 124.46C59.5047 126.557 59.2243 128.979 58.9257 131.545C58.7267 133.19 58.5277 134.916 58.3106 136.724C57.9849 139.534 57.6411 142.525 57.2793 145.652C57.1888 146.457 57.0893 147.27 56.9988 148.101C56.0941 155.747 55.1895 164.043 54.33 172.248H19.3738C19.3738 172.248 16.714 147.161 23.0558 124.46H59.749Z" fill="#263238"/>
<path opacity="0.2" d="M58.9264 131.545C58.7274 133.19 58.5284 134.916 58.3112 136.724C57.9856 139.534 57.6418 142.525 57.2799 145.652C56.6467 141.77 56.4163 137.833 56.5924 133.904L58.9264 131.545Z" fill="black"/>
<path d="M34.6808 124.352C34.6808 124.352 49.0831 124.551 48.7303 124.352C48.3774 124.153 34.337 136.462 34.337 136.462L32.6182 127.705L34.6808 124.352Z" fill="white"/>
<path opacity="0.1" d="M59.749 124.46C59.5047 126.557 59.2243 128.979 58.9257 131.545C58.7267 133.19 58.5277 134.916 58.3106 136.724C57.9849 139.534 57.6411 142.525 57.2793 145.652C57.1888 146.457 57.0893 147.27 56.9988 148.101C56.0941 155.747 55.1895 164.043 54.33 172.248H19.3738C19.3738 172.248 16.714 147.161 23.0558 124.46H59.749Z" fill="white"/>
<path d="M46.9035 125.057C44.5423 128.355 37.1422 128.915 37.1422 128.915C37.1422 128.915 33.9849 127.84 34.6181 126.204C37.1693 125.201 36.5903 124.514 36.7803 122.824C36.8561 121.782 36.7271 120.735 36.4003 119.743C36.2375 119.192 36.0294 118.649 35.8123 118.107L43.2848 109.612C43.0587 114.239 43.3482 122.526 46.9035 125.057Z" fill="#EEC1BB"/>
<path opacity="0.2" d="M42.1269 114.267C42.9321 119.689 38.8611 122.084 36.7804 122.852C36.8562 121.81 36.7271 120.763 36.4004 119.77L42.1269 114.267Z" fill="black"/>
<path d="M23.1377 100.485C23.1377 100.485 23.1377 109.215 28.1676 111.799C33.1976 114.384 30.7731 98.5239 30.7731 98.5239L23.1377 100.485Z" fill="#263238"/>
<path d="M42.3437 116.58C41.6089 118.127 40.3859 119.39 38.8627 120.176C37.3394 120.961 35.6002 121.225 33.9122 120.927C31.7202 120.584 29.7408 119.421 28.3756 117.674C28.1857 117.439 28.0138 117.177 27.8419 116.915C24.8203 112.044 22.7215 103.043 27.7152 98.7863C28.8129 97.8382 30.1356 97.1871 31.557 96.8953C32.9784 96.6034 34.451 96.6806 35.834 97.1193C37.2171 97.5581 38.4644 98.3438 39.4568 99.4014C40.4491 100.459 41.1534 101.753 41.5023 103.16C43.1126 109.143 44.3339 112.586 42.3437 116.58Z" fill="#EEC1BB"/>
<path d="M33.1068 107.76C33.2066 107.938 33.2332 108.148 33.1808 108.345C33.1285 108.543 33.0014 108.712 32.8264 108.817C32.5097 108.917 32.1298 108.609 31.9669 108.13C31.8041 107.651 31.9669 107.181 32.2564 107.082C32.5459 106.983 32.944 107.281 33.1068 107.76Z" fill="#263238"/>
<path d="M27.6885 109.559C27.7879 109.735 27.8141 109.944 27.7617 110.14C27.7094 110.336 27.5824 110.503 27.4081 110.607C27.0914 110.715 26.7115 110.408 26.5034 109.929C26.2953 109.45 26.5034 108.98 26.7839 108.872C27.0643 108.763 27.5347 109.107 27.6885 109.559Z" fill="#263238"/>
<path d="M29.4887 109.206C29.4149 110.858 29.1104 112.491 28.584 114.059C28.9923 114.185 29.4234 114.221 29.8469 114.163C30.2704 114.105 30.6761 113.956 31.0356 113.725L29.4887 109.206Z" fill="#D4827D"/>
<path d="M24.9654 107.986C25.0198 107.994 25.0753 107.987 25.1262 107.967C25.1772 107.946 25.2216 107.912 25.2549 107.869C25.464 107.561 25.7423 107.307 26.0676 107.127C26.3928 106.946 26.7558 106.844 27.1276 106.829C27.2068 106.829 27.2827 106.798 27.3387 106.742C27.3947 106.686 27.4261 106.61 27.4261 106.531C27.4261 106.452 27.3947 106.376 27.3387 106.32C27.2827 106.264 27.2068 106.233 27.1276 106.233C26.6576 106.243 26.1968 106.365 25.7831 106.588C25.3695 106.811 25.0148 107.129 24.7483 107.516C24.7008 107.579 24.6798 107.657 24.69 107.735C24.7002 107.813 24.7406 107.884 24.8026 107.932C24.8509 107.965 24.9072 107.983 24.9654 107.986Z" fill="#263238"/>
<path d="M33.4602 105.257C33.5185 105.237 33.5691 105.199 33.605 105.148C33.6354 105.076 33.6364 104.995 33.6076 104.923C33.5788 104.85 33.5227 104.792 33.4512 104.76C33.0196 104.566 32.5478 104.479 32.0754 104.506C31.6031 104.532 31.1441 104.672 30.7372 104.913C30.7051 104.936 30.6778 104.965 30.6568 104.998C30.6358 105.031 30.6215 105.068 30.6148 105.106C30.608 105.145 30.609 105.185 30.6176 105.223C30.6262 105.261 30.6422 105.297 30.6648 105.329C30.7102 105.391 30.7779 105.434 30.8538 105.447C30.9297 105.461 31.0078 105.444 31.0719 105.401C31.3982 105.222 31.7614 105.121 32.1334 105.105C32.5053 105.09 32.8758 105.16 33.216 105.311C33.2582 105.321 33.302 105.321 33.3443 105.312C33.3865 105.302 33.4262 105.284 33.4602 105.257Z" fill="#263238"/>
<path d="M34.7449 97.25L34.5459 98.5242C36.699 98.6146 36.9433 101.018 36.8437 102.139C36.6085 104.588 38.825 107.67 40.9057 108.564C40.9057 108.564 40.6886 107.588 41.5661 107.588C42.4436 107.588 43.6106 112.649 42.6969 115.469C42.6969 115.469 44.5063 112.649 44.3706 107.028C44.262 101.832 43.285 97.747 41.7651 96.1836L34.7449 97.25Z" fill="#263238"/>
<path d="M45.6816 107.128C45.4662 108.676 44.6467 110.076 43.4018 111.023C41.7463 112.261 40.1722 110.959 40.0003 109.007C39.8646 107.272 40.534 104.489 42.5062 104.028C42.9368 103.93 43.3851 103.941 43.8102 104.061C44.2353 104.181 44.6235 104.405 44.9394 104.713C45.2553 105.022 45.4887 105.404 45.6184 105.826C45.748 106.248 45.7697 106.695 45.6816 107.128Z" fill="#EEC1BB"/>
<path d="M31.8496 115.532C32.5847 116.046 33.283 116.611 33.9394 117.222L34.3103 116.933C36.002 115.613 36.3458 114.438 36.2191 113.544C36.148 113.107 35.971 112.694 35.7035 112.342C35.5619 112.135 35.3913 111.949 35.1969 111.791C34.5184 113.071 33.571 114.19 32.4196 115.071C32.0758 115.342 31.8496 115.532 31.8496 115.532Z" fill="#263238"/>
<path d="M32.4199 115.053L33.0441 115.541C34.6364 114.285 35.5863 113.191 35.7039 112.324C35.5623 112.117 35.3917 111.931 35.1973 111.772C34.5188 113.053 33.5714 114.172 32.4199 115.053Z" fill="white"/>
<path d="M34.3099 116.914C36.0016 115.595 36.3454 114.42 36.2187 113.525C35.5872 114.029 35.0511 114.641 34.6356 115.333C34.3589 115.811 34.2446 116.366 34.3099 116.914Z" fill="#DE5753"/>
<path d="M43.628 99.5362C43.628 99.5362 44.3246 93.8519 36.8973 91.7011C29.47 89.5503 23.5897 94.7466 23.074 97.4577C23.074 97.4577 19.3739 100.359 23.4088 103.467L25.1005 100.015C25.1005 100.015 32.8082 104.922 43.628 99.5362Z" fill="#263238"/>
<path d="M18.6231 133.353C18.6509 133.426 18.6621 133.505 18.656 133.583C18.6499 133.661 18.6266 133.737 18.5877 133.806C18.5488 133.874 18.4953 133.933 18.4311 133.978C18.3668 134.023 18.2934 134.053 18.216 134.067L12.2633 135.413C12.0984 135.446 11.9273 135.419 11.78 135.338C11.6328 135.257 11.5188 135.127 11.4581 134.971L7.54094 123.484C7.51126 123.407 7.49787 123.324 7.50158 123.241C7.50529 123.158 7.52603 123.077 7.56251 123.002C7.59899 122.928 7.65043 122.862 7.71364 122.808C7.77685 122.754 7.85047 122.713 7.92994 122.689L13.8826 121.37C14.0598 121.354 14.2371 121.398 14.3863 121.495C14.5355 121.591 14.648 121.735 14.7059 121.903L18.6231 133.353Z" fill="#263238"/>
<path opacity="0.5" d="M14.028 121.975L17.9904 133.525C18.0244 133.59 18.0422 133.663 18.0424 133.736C18.0426 133.81 18.0251 133.882 17.9914 133.948C17.9578 134.013 17.9089 134.07 17.8489 134.113C17.7889 134.155 17.7196 134.183 17.6466 134.194L12.5986 135.305C12.2639 135.377 11.5944 135.305 11.4858 135.007L7.5415 123.412C7.4239 123.087 7.93956 122.689 8.28334 122.617L13.3314 121.496C13.4858 121.479 13.6416 121.517 13.7697 121.605C13.8978 121.693 13.9896 121.825 14.028 121.975Z" fill="white"/>
<path d="M27.209 140.347L23.4366 135.829C23.4366 135.829 20.614 129.132 20.035 128.5C19.456 127.867 13.9195 129.846 13.2953 129.982C12.671 130.118 14.8784 136.995 15.6926 137.537C16.5068 138.079 18.9765 137.971 18.9765 137.971L24.0336 144.486L27.209 140.347Z" fill="#EEC1BB"/>
<path d="M26.4849 138.594L21.5273 144.803C21.5273 144.803 34.4912 156.623 40.7243 159.578C46.9575 162.533 59.6771 142.155 61.4231 138.152C63.1691 134.148 63.3138 125.726 59.7495 124.46C56.1851 123.195 42.1537 147.957 40.7515 148.354C39.3493 148.752 26.4849 138.594 26.4849 138.594Z" fill="#263238"/>
<path d="M51.1371 124.352L47.9979 121.035L38.8518 127.28L39.4579 130.94L34.5456 135.91L33.1976 129.72L34.6179 126.231L36.4272 122.49L30.3389 125.626L28.8643 129.286L32.1029 127.704C32.1029 127.704 34.1837 137.645 34.5727 137.23L42.2624 129.72L44.3974 131.111L51.1371 124.352Z" fill="#263238"/>
<g clip-path="url(#clip1)">
<path d="M33.8735 73.4712L31.7002 77.8132L33.8735 82.1552C36.2741 82.1552 38.2201 80.2112 38.2201 77.8132C38.2201 75.4152 36.2741 73.4712 33.8735 73.4712Z" fill="#0A77E8"/>
<path d="M29.5273 77.8132C29.5273 80.2112 31.4734 82.1552 33.874 82.1552V73.4712C31.4734 73.4712 29.5273 75.4152 29.5273 77.8132Z" fill="#0F9AF0"/>
<path d="M33.874 45.1035L29.5273 49.4455L33.874 53.7875C35.3121 53.7875 36.482 54.9562 36.482 56.3928C36.482 57.1582 36.1456 57.8828 35.559 58.3807L33.874 59.8118L30.9762 65.5561L33.874 71.3003H38.2206V67.5186L41.1891 64.9975C43.7223 62.8472 45.1752 59.711 45.1752 56.3928C45.1752 50.1678 40.1055 45.1035 33.874 45.1035V45.1035Z" fill="#0A77E8"/>
<path d="M29.5273 63.5036V71.3005H33.874V59.812L29.5273 63.5036Z" fill="#0F9AF0"/>
<path d="M22.5723 56.3928V57.4783H31.2655V56.3928C31.2655 54.9562 32.4354 53.7875 33.8735 53.7875V45.1035C27.642 45.1035 22.5723 50.1678 22.5723 56.3928Z" fill="#0F9AF0"/>
</g>
<g clip-path="url(#clip2)">
<path d="M134.291 78.8936L132.118 83.2356L134.291 87.5776C136.692 87.5776 138.638 85.6336 138.638 83.2356C138.638 80.8375 136.692 78.8936 134.291 78.8936Z" fill="#0A77E8"/>
<path d="M129.945 83.2356C129.945 85.6336 131.891 87.5776 134.292 87.5776V78.8936C131.891 78.8936 129.945 80.8375 129.945 83.2356Z" fill="#0F9AF0"/>
<path d="M134.292 50.5259L129.945 54.8679L134.292 59.2099C135.73 59.2099 136.9 60.3786 136.9 61.8151C136.9 62.5806 136.564 63.3052 135.977 63.8031L134.292 65.2342L131.394 70.9784L134.292 76.7227H138.639V72.941L141.607 70.4199C144.14 68.2696 145.593 65.1334 145.593 61.8151C145.593 55.5902 140.523 50.5259 134.292 50.5259V50.5259Z" fill="#0A77E8"/>
<path d="M129.945 68.926V76.7229H134.292V65.2344L129.945 68.926Z" fill="#0F9AF0"/>
<path d="M122.99 61.8151V62.9006H131.684V61.8151C131.684 60.3786 132.853 59.2099 134.291 59.2099V50.5259C128.06 50.5259 122.99 55.5902 122.99 61.8151Z" fill="#0F9AF0"/>
</g>
<g clip-path="url(#clip3)">
<path d="M189.476 92.4492L187.303 96.7912L189.476 101.133C191.877 101.133 193.823 99.1893 193.823 96.7912C193.823 94.3932 191.877 92.4492 189.476 92.4492Z" fill="#0A77E8"/>
<path d="M185.13 96.7912C185.13 99.1893 187.076 101.133 189.477 101.133V92.4492C187.076 92.4492 185.13 94.3932 185.13 96.7912Z" fill="#0F9AF0"/>
<path d="M189.477 64.0815L185.13 68.4236L189.477 72.7656C190.915 72.7656 192.084 73.9342 192.084 75.3708C192.084 76.1363 191.748 76.8608 191.162 77.3588L189.477 78.7898L186.579 84.5341L189.477 90.2784H193.823V86.4966L196.792 83.9756C199.325 81.8253 200.778 78.689 200.778 75.3708C200.778 69.1459 195.708 64.0815 189.477 64.0815V64.0815Z" fill="#0A77E8"/>
<path d="M185.13 82.4816V90.2786H189.477V78.79L185.13 82.4816Z" fill="#0F9AF0"/>
<path d="M178.175 75.3708V76.4563H186.868V75.3708C186.868 73.9342 188.038 72.7656 189.476 72.7656V64.0815C183.245 64.0815 178.175 69.1459 178.175 75.3708Z" fill="#0F9AF0"/>
</g>
<g clip-path="url(#clip4)">
<path d="M255.517 64.4346L253.344 68.7766L255.517 73.1186C257.918 73.1186 259.864 71.1746 259.864 68.7766C259.864 66.3786 257.918 64.4346 255.517 64.4346Z" fill="#0A77E8"/>
<path d="M251.171 68.7766C251.171 71.1746 253.117 73.1186 255.518 73.1186V64.4346C253.117 64.4346 251.171 66.3786 251.171 68.7766Z" fill="#0F9AF0"/>
<path d="M255.518 36.0669L251.171 40.4089L255.518 44.7509C256.956 44.7509 258.126 45.9196 258.126 47.3561C258.126 48.1216 257.789 48.8462 257.203 49.3441L255.518 50.7752L252.62 56.5194L255.518 62.2637H259.864V58.482L262.833 55.9609C265.366 53.8106 266.819 50.6744 266.819 47.3561C266.819 41.1312 261.749 36.0669 255.518 36.0669V36.0669Z" fill="#0A77E8"/>
<path d="M251.171 54.467V62.2639H255.518V50.7754L251.171 54.467Z" fill="#0F9AF0"/>
<path d="M244.216 47.3561V48.4416H252.909V47.3561C252.909 45.9196 254.079 44.7509 255.517 44.7509V36.0669C249.286 36.0669 244.216 41.1312 244.216 47.3561Z" fill="#0F9AF0"/>
</g>
<g clip-path="url(#clip5)">
<path d="M380.361 70.7603L378.188 75.1023L380.361 79.4443C382.761 79.4443 384.707 77.5003 384.707 75.1023C384.707 72.7042 382.761 70.7603 380.361 70.7603Z" fill="#0A77E8"/>
<path d="M376.015 75.1023C376.015 77.5003 377.961 79.4443 380.361 79.4443V70.7603C377.961 70.7603 376.015 72.7042 376.015 75.1023Z" fill="#0F9AF0"/>
<path d="M380.361 42.3926L376.015 46.7346L380.361 51.0766C381.799 51.0766 382.969 52.2453 382.969 53.6818C382.969 54.4473 382.633 55.1718 382.046 55.6698L380.361 57.1009L377.464 62.8451L380.361 68.5894H384.708V64.8076L387.676 62.2866C390.21 60.1363 391.663 57.0001 391.663 53.6818C391.663 47.4569 386.593 42.3926 380.361 42.3926V42.3926Z" fill="#0A77E8"/>
<path d="M376.015 60.7927V68.5896H380.361V57.1011L376.015 60.7927Z" fill="#0F9AF0"/>
<path d="M369.06 53.6818V54.7673H377.753V53.6818C377.753 52.2453 378.923 51.0766 380.361 51.0766V42.3926C374.129 42.3926 369.06 47.4569 369.06 53.6818Z" fill="#0F9AF0"/>
</g>
</g>
<defs>
<clipPath id="clip0">
<rect width="460" height="337" fill="white"/>
</clipPath>
<clipPath id="clip1">
<rect width="37.0913" height="37.0518" fill="white" transform="translate(15.3281 45.1035)"/>
</clipPath>
<clipPath id="clip2">
<rect width="37.0913" height="37.0519" fill="white" transform="translate(115.746 50.5259)"/>
</clipPath>
<clipPath id="clip3">
<rect width="37.0913" height="37.0518" fill="white" transform="translate(170.931 64.0815)"/>
</clipPath>
<clipPath id="clip4">
<rect width="37.0913" height="37.0519" fill="white" transform="translate(236.972 36.0669)"/>
</clipPath>
<clipPath id="clip5">
<rect width="37.0913" height="37.0518" fill="white" transform="translate(361.815 42.3926)"/>
</clipPath>
</defs>
</svg>
