<svg width="196" height="196" viewBox="0 0 196 196" fill="none" xmlns="http://www.w3.org/2000/svg">
<g clip-path="url(#clip0)">
<path d="M207.078 159.628H-12.7832V159.738H207.078V159.628Z" fill="#E0E0E0"/>
<path d="M160.107 162.97H152.693V163.08H160.107V162.97Z" fill="#E0E0E0"/>
<path d="M184.457 162.917H164.863V163.027H184.457V162.917Z" fill="#E0E0E0"/>
<path d="M128.248 163.656H103.856V163.766H128.248V163.656Z" fill="#E0E0E0"/>
<path d="M101.325 163.656H92.2139V163.766H101.325V163.656Z" fill="#E0E0E0"/>
<path d="M53.8618 162.807H49.8604V162.917H53.8618V162.807Z" fill="#E0E0E0"/>
<path d="M62.9142 162.807H56.3008V162.917H62.9142V162.807Z" fill="#E0E0E0"/>
<path d="M45.8978 164.791H16.6299V164.9H45.8978V164.791Z" fill="#E0E0E0"/>
<path d="M91.4308 140.016H6.52497C5.85982 140.015 5.22232 139.75 4.7524 139.279C4.28248 138.809 4.01855 138.171 4.01855 137.506V18.1519C4.02434 17.4906 4.29083 16.8582 4.76012 16.3922C5.22941 15.9262 5.86361 15.6642 6.52497 15.6631H91.4308C92.0967 15.6631 92.7354 15.9276 93.2063 16.3985C93.6771 16.8694 93.9417 17.508 93.9417 18.1739V137.506C93.9417 138.171 93.6771 138.81 93.2063 139.281C92.7354 139.752 92.0967 140.016 91.4308 140.016ZM6.52497 15.751C5.88898 15.7522 5.27943 16.0057 4.83013 16.4558C4.38083 16.9059 4.12848 17.5159 4.12849 18.1519V137.506C4.12848 138.142 4.38083 138.752 4.83013 139.202C5.27943 139.652 5.88898 139.905 6.52497 139.906H91.4308C92.0672 139.905 92.6772 139.652 93.1272 139.202C93.5772 138.752 93.8306 138.142 93.8317 137.506V18.1519C93.8306 17.5155 93.5772 16.9055 93.1272 16.4555C92.6772 16.0055 92.0672 15.7522 91.4308 15.751H6.52497Z" fill="#E0E0E0"/>
<path d="M186.547 140.016H101.637C100.971 140.015 100.333 139.75 99.8627 139.28C99.392 138.809 99.1271 138.171 99.126 137.506V18.1519C99.1329 17.4902 99.4004 16.8578 99.8704 16.392C100.34 15.9261 100.975 15.6642 101.637 15.6631H186.547C187.208 15.6654 187.841 15.9279 188.309 16.3938C188.777 16.8597 189.043 17.4913 189.049 18.1519V137.506C189.049 138.17 188.786 138.807 188.317 139.278C187.848 139.749 187.211 140.014 186.547 140.016ZM101.637 15.751C101 15.7522 100.39 16.0055 99.9404 16.4555C99.4904 16.9055 99.2371 17.5155 99.2359 18.1519V137.506C99.2371 138.142 99.4904 138.752 99.9404 139.202C100.39 139.652 101 139.905 101.637 139.906H186.547C187.183 139.905 187.793 139.652 188.243 139.202C188.693 138.752 188.947 138.142 188.948 137.506V18.1519C188.947 17.5155 188.693 16.9055 188.243 16.4555C187.793 16.0055 187.183 15.7522 186.547 15.751H101.637Z" fill="#E0E0E0"/>
<path d="M126.957 106.043H106.132V159.628H126.957V106.043Z" fill="#E0E0E0"/>
<path d="M122.997 159.628H126.955V148.376H118.851L122.997 159.628Z" fill="#F0F0F0"/>
<path d="M49.124 106.043H28.2988V159.628H49.124V106.043Z" fill="#E0E0E0"/>
<path d="M126.95 106.043H45.6719V152.724H126.95V106.043Z" fill="#F0F0F0"/>
<path d="M87.6406 109.434V138.658H123.887V109.434H87.6406Z" fill="#E0E0E0"/>
<path d="M48.7432 109.439V138.663H84.9894V109.439H48.7432Z" fill="#E0E0E0"/>
<path d="M123.888 148.376V146.226H87.6414V148.376H123.888Z" fill="#E0E0E0"/>
<path d="M84.9883 148.376V146.226H48.742V148.376H84.9883Z" fill="#E0E0E0"/>
<path d="M123.883 144.22V142.07H87.6365V144.22H123.883Z" fill="#E0E0E0"/>
<path d="M84.9834 144.224V142.074H48.7371V144.224H84.9834Z" fill="#E0E0E0"/>
<path d="M70.4518 112.582H63.2887C61.7475 112.582 60.2224 112.269 58.8064 111.66C57.3904 111.051 56.1133 110.161 55.0527 109.042H78.679C77.6198 110.16 76.3441 111.05 74.9296 111.659C73.5152 112.268 71.9916 112.582 70.4518 112.582Z" fill="#F0F0F0"/>
<path d="M109.716 112.582H102.548C101.007 112.583 99.4819 112.269 98.0659 111.661C96.6498 111.052 95.3727 110.161 94.3125 109.042H117.952C116.892 110.161 115.615 111.052 114.199 111.661C112.782 112.269 111.257 112.583 109.716 112.582Z" fill="#F0F0F0"/>
<path d="M49.6294 159.628H45.6719V148.376H53.7759L49.6294 159.628Z" fill="#F0F0F0"/>
<path d="M126.506 24.0132H17.2705V86.4097H126.506V24.0132Z" fill="#E0E0E0"/>
<path d="M132.55 22.0874H13.6005C13.4523 22.0874 13.3103 22.1462 13.2056 22.251C13.1008 22.3557 13.042 22.4977 13.042 22.6458C13.0414 22.7196 13.0554 22.7926 13.0833 22.8609C13.1111 22.9292 13.1521 22.9913 13.204 23.0436C13.2559 23.0959 13.3177 23.1374 13.3857 23.1658C13.4538 23.1941 13.5267 23.2087 13.6005 23.2087H132.55C132.623 23.2087 132.696 23.1941 132.764 23.1658C132.832 23.1374 132.894 23.0959 132.946 23.0436C132.998 22.9913 133.039 22.9292 133.067 22.8609C133.095 22.7926 133.109 22.7196 133.108 22.6458C133.108 22.4977 133.049 22.3557 132.944 22.251C132.84 22.1462 132.698 22.0874 132.55 22.0874Z" fill="#E0E0E0"/>
<path d="M128.901 24.0132H18.3896V86.4097H128.901V24.0132Z" fill="#E6E6E6"/>
<path d="M126.506 86.4102H17.2705V90.8557H126.506V86.4102Z" fill="#E0E0E0"/>
<path d="M132.883 86.4102H22.3721V90.8557H132.883V86.4102Z" fill="#E6E6E6"/>
<path d="M125.544 83.0589V27.3638L21.7344 27.3638V83.0589H125.544Z" fill="#F5F5F5"/>
<path d="M73.1113 83.0589L92.7713 27.3638H102.049L82.3895 83.0589H73.1113Z" fill="#FAFAFA"/>
<path d="M84.3867 83.0589L104.047 27.3638H107.661L88.0056 83.0589H84.3867Z" fill="#FAFAFA"/>
<path d="M125.544 83.0589V27.3638H125.117V83.0589H125.544Z" fill="#E0E0E0"/>
<path d="M21.7755 21.085H16.0107V74.8278H21.7755V21.085Z" fill="#EBEBEB"/>
<path d="M24.0228 21.085H19.5332V74.8278H24.0228V21.085Z" fill="#E0E0E0"/>
<path d="M27.5392 21.085H21.7744V74.8278H27.5392V21.085Z" fill="#EBEBEB"/>
<path d="M29.7864 21.085H25.2969V74.8278H29.7864V21.085Z" fill="#E0E0E0"/>
<path d="M33.3038 21.085H27.5391V74.8278H33.3038V21.085Z" fill="#EBEBEB"/>
<path d="M123.398 21.085H120.078V74.8278H123.398V21.085Z" fill="#EBEBEB"/>
<path d="M124.7 21.085H122.11V74.8278H124.7V21.085Z" fill="#E0E0E0"/>
<path d="M126.723 21.085H123.403V74.8278H126.723V21.085Z" fill="#EBEBEB"/>
<path d="M128.021 21.085H125.431V74.8278H128.021V21.085Z" fill="#E0E0E0"/>
<path d="M130.044 21.085H126.724V74.8278H130.044V21.085Z" fill="#EBEBEB"/>
<path d="M160.259 44.3989H152.89V64.5074H160.259V44.3989Z" fill="#E6E6E6"/>
<path d="M150.089 67.8623L148.383 72.5102H150.089L160.524 67.8623H150.089Z" fill="#F0F0F0"/>
<path d="M148.383 67.8623V72.5102L158.822 67.8623H148.383Z" fill="#E0E0E0"/>
<path d="M167.938 67.8623L166.231 72.5102H167.938L178.372 67.8623H167.938Z" fill="#F0F0F0"/>
<path d="M166.231 67.8623V72.5102L176.67 67.8623H166.231Z" fill="#E0E0E0"/>
<path d="M140.728 68.0781H152.077V64.5384H140.728V68.0781Z" fill="#E0E0E0"/>
<path d="M184.458 64.5381H152.072V68.0778H184.458V64.5381Z" fill="#F0F0F0"/>
<path d="M172.538 64.5071H154.601L152.381 40.1421H170.317L172.538 64.5071Z" fill="#E0E0E0"/>
<path d="M173.465 64.5071H155.529L153.312 40.1421H171.249L173.465 64.5071Z" fill="#F0F0F0"/>
<path d="M157.983 61.8119L156.255 42.8379H168.796L170.524 61.8119H157.983Z" fill="#FAFAFA"/>
<path d="M56.433 98.2207C56.433 98.2207 48.6983 84.8927 59.4275 74.2822C59.4275 74.2822 62.2286 76.1071 62.1846 78.5607C62.1406 81.0144 59.1857 81.6388 59.8233 83.6791C60.4609 85.7194 63.2487 87.7377 61.4151 89.4306C59.5814 91.1236 61.7097 92.6274 61.5866 94.7073C61.4635 96.7872 56.433 98.2207 56.433 98.2207Z" fill="#E0E0E0"/>
<path d="M57.0186 99.4386C57.0186 99.4386 60.1538 84.3517 46.628 77.6636C46.628 77.6636 44.5481 80.2799 45.3616 82.5929C46.175 84.9058 49.174 84.5672 49.2179 86.7087C49.2619 88.8501 47.248 91.6379 49.5169 92.6669C51.7859 93.6958 50.2469 95.7977 51.0208 97.7237C51.7947 99.6497 57.0186 99.4386 57.0186 99.4386Z" fill="#E0E0E0"/>
<path d="M45.1729 96.0972C45.1729 96.0972 45.4279 106.044 55.2865 106.044C65.145 106.044 65.4001 96.0972 65.4001 96.0972H45.1729Z" fill="#F0F0F0"/>
<path d="M161.5 159.628H162.507L165.374 145.487L165.88 143.011L169.006 127.621H181.006L187.51 159.628H188.517L181.89 127.01C181.867 126.899 181.806 126.799 181.718 126.728C181.63 126.657 181.52 126.618 181.406 126.618H168.606C168.493 126.617 168.383 126.656 168.295 126.727C168.208 126.799 168.148 126.899 168.127 127.01L165.378 140.544L164.864 143.02L161.5 159.628Z" fill="#EBEBEB"/>
<path d="M142.236 159.628H143.243L149.747 127.603H161.747L164.864 143.02L165.366 145.487L168.237 159.628H169.262L165.889 143.011L165.379 140.544L162.631 127.01C162.607 126.899 162.547 126.799 162.458 126.728C162.37 126.656 162.26 126.618 162.147 126.618H149.347C149.233 126.618 149.123 126.656 149.035 126.728C148.947 126.799 148.886 126.899 148.863 127.01L142.236 159.628Z" fill="#EBEBEB"/>
<path d="M171.817 127.111H149.769C147.746 127.11 145.803 126.316 144.358 124.9C142.913 123.484 142.08 121.557 142.039 119.534L141.216 86.0186C141.205 85.273 141.342 84.5326 141.62 83.8404C141.897 83.1482 142.309 82.5179 142.832 81.9862C143.355 81.4544 143.978 81.0318 144.665 80.7427C145.352 80.4536 146.09 80.3039 146.836 80.3022H160.657C162.04 80.302 163.376 80.8111 164.408 81.7323C165.44 82.6536 166.098 83.9227 166.254 85.2975L171.817 127.111Z" fill="#E6E6E6"/>
<path d="M159.79 122.885H181.367C182.168 122.885 182.937 123.203 183.503 123.77C184.07 124.336 184.388 125.104 184.388 125.906V126.011C184.388 126.303 184.272 126.582 184.066 126.789C183.86 126.995 183.58 127.11 183.289 127.11H159.79V122.885Z" fill="#E6E6E6"/>
<path d="M97.1483 179.486C144.235 179.486 182.406 177.257 182.406 174.508C182.406 171.759 144.235 169.531 97.1483 169.531C50.0618 169.531 11.8906 171.759 11.8906 174.508C11.8906 177.257 50.0618 179.486 97.1483 179.486Z" fill="#F5F5F5"/>
<path d="M69.2473 47.8853C69.249 47.0663 69.1828 46.2486 69.0494 45.4405C68.4601 41.8688 66.6306 38.6192 63.8826 36.2628C61.1346 33.9065 57.6439 32.5942 54.0241 32.5566H53.8922C51.4638 32.5581 49.0705 33.137 46.9098 34.2456C44.7492 35.3543 42.8831 36.9608 41.4657 38.9326C41.2326 39.2536 41.0259 39.5834 40.8149 39.9132C40.7977 39.935 40.7829 39.9585 40.7709 39.9835C39.3274 42.3709 38.5669 45.1087 38.5723 47.8985V47.9293C38.5814 51.1718 39.6178 54.3279 41.5327 56.9445C43.4477 59.5611 46.1426 61.5035 49.2305 62.4927C52.3183 63.482 55.6403 63.4671 58.7192 62.4504C61.7981 61.4336 64.4756 59.4673 66.3671 56.8337C66.5958 56.5127 66.8068 56.1873 67.0135 55.8531C67.0307 55.8313 67.0454 55.8077 67.0575 55.7827C68.4992 53.4015 69.2568 50.669 69.2473 47.8853ZM39.2275 47.538C39.2783 45.0273 39.9798 42.5728 41.2634 40.4145H46.0608C45.3277 42.7188 44.9438 45.1199 44.9219 47.538H39.2275ZM46.7335 40.4145H53.5756V47.538H45.5815C45.596 45.1183 45.9846 42.7154 46.7335 40.4145ZM54.2352 39.7549V33.1942C55.1862 33.2805 56.097 33.619 56.8735 34.1748C58.5049 35.2917 59.8724 37.2529 60.831 39.7549H54.2352ZM61.0685 40.4145C61.6124 42.0617 61.9665 43.7657 62.1238 45.4933C62.1898 46.1792 62.2205 46.8608 62.2293 47.538H54.2352V40.4145H61.0685ZM52.6082 33.3789C52.9239 33.2892 53.2481 33.2332 53.5756 33.2118V39.7681H46.9798C48.211 36.4526 50.2073 34.0429 52.6082 33.3657V33.3789ZM53.5756 48.2107V55.3342H46.7467C46.2026 53.683 45.8514 51.9743 45.7002 50.2422C45.6386 49.5563 45.6034 48.8747 45.5946 48.1975L53.5756 48.2107ZM53.5756 55.9938V62.5545C52.6247 62.4676 51.7141 62.1292 50.9373 61.5739C49.3103 60.457 47.9428 58.4958 46.9798 55.9938H53.5756ZM55.2026 62.383C54.887 62.473 54.5627 62.5291 54.2352 62.5501V55.9806H60.831C59.5998 59.2829 57.6035 61.697 55.2026 62.3698V62.383ZM54.2352 55.3474V48.2019H62.2293C62.2169 50.6218 61.8282 53.025 61.0773 55.3254L54.2352 55.3474ZM62.8889 48.2019H68.6053C68.5521 50.7122 67.8507 53.1661 66.5694 55.3254H61.75C62.4831 53.0211 62.867 50.62 62.8889 48.2019ZM68.6053 47.5424H62.8889C62.8889 46.8476 62.8449 46.144 62.779 45.4361C62.6289 43.7317 62.2912 42.0491 61.772 40.4189H66.5606C67.486 41.9901 68.1107 43.7198 68.403 45.5196C68.5077 46.1878 68.5694 46.8619 68.5877 47.538L68.6053 47.5424ZM62.5063 35.9645C63.9436 36.9997 65.1828 38.2852 66.1648 39.7593H61.5302C60.5452 37.0374 59.0633 34.8828 57.2473 33.634L57.1066 33.5416C59.0456 33.9758 60.8765 34.7986 62.4888 35.9601L62.5063 35.9645ZM50.691 33.5504C48.8398 34.7684 47.3184 36.9846 46.2938 39.7593H41.6767L41.9977 39.2888C44.0859 36.3737 47.1742 34.3295 50.6734 33.546L50.691 33.5504ZM39.2583 48.2019H44.9527C44.9527 48.8967 44.9966 49.6003 45.0626 50.3082C45.2148 52.0123 45.5525 53.6946 46.0695 55.3254H41.2546C40.3273 53.7551 39.7024 52.025 39.4122 50.2247C39.3027 49.5557 39.241 48.8797 39.2275 48.2019H39.2583ZM41.6943 55.985H46.2938C47.2788 58.7069 48.7606 60.8615 50.5767 62.1103L50.7218 62.2027C47.0271 61.3635 43.7955 59.1378 41.6943 55.985ZM57.1329 62.1895C58.9798 60.9759 60.5012 58.7553 61.5302 55.9806H66.1384C66.0329 56.1389 65.9274 56.2972 65.8175 56.4511C63.7275 59.3675 60.6354 61.4107 57.1329 62.1895Z" fill="#407BFF"/>
<path opacity="0.8" d="M69.2473 47.8853C69.249 47.0663 69.1828 46.2486 69.0494 45.4405C68.4601 41.8688 66.6306 38.6192 63.8826 36.2628C61.1346 33.9065 57.6439 32.5942 54.0241 32.5566H53.8922C51.4638 32.5581 49.0705 33.137 46.9098 34.2456C44.7492 35.3543 42.8831 36.9608 41.4657 38.9326C41.2326 39.2536 41.0259 39.5834 40.8149 39.9132C40.7977 39.935 40.7829 39.9585 40.7709 39.9835C39.3274 42.3709 38.5669 45.1087 38.5723 47.8985V47.9293C38.5814 51.1718 39.6178 54.3279 41.5327 56.9445C43.4477 59.5611 46.1426 61.5035 49.2305 62.4927C52.3183 63.482 55.6403 63.4671 58.7192 62.4504C61.7981 61.4336 64.4756 59.4673 66.3671 56.8337C66.5958 56.5127 66.8068 56.1873 67.0135 55.8531C67.0307 55.8313 67.0454 55.8077 67.0575 55.7827C68.4992 53.4015 69.2568 50.669 69.2473 47.8853ZM39.2275 47.538C39.2783 45.0273 39.9798 42.5728 41.2634 40.4145H46.0608C45.3277 42.7188 44.9438 45.1199 44.9219 47.538H39.2275ZM46.7335 40.4145H53.5756V47.538H45.5815C45.596 45.1183 45.9846 42.7154 46.7335 40.4145ZM54.2352 39.7549V33.1942C55.1862 33.2805 56.097 33.619 56.8735 34.1748C58.5049 35.2917 59.8724 37.2529 60.831 39.7549H54.2352ZM61.0685 40.4145C61.6124 42.0617 61.9665 43.7657 62.1238 45.4933C62.1898 46.1792 62.2205 46.8608 62.2293 47.538H54.2352V40.4145H61.0685ZM52.6082 33.3789C52.9239 33.2892 53.2481 33.2332 53.5756 33.2118V39.7681H46.9798C48.211 36.4526 50.2073 34.0429 52.6082 33.3657V33.3789ZM53.5756 48.2107V55.3342H46.7467C46.2026 53.683 45.8514 51.9743 45.7002 50.2422C45.6386 49.5563 45.6034 48.8747 45.5946 48.1975L53.5756 48.2107ZM53.5756 55.9938V62.5545C52.6247 62.4676 51.7141 62.1292 50.9373 61.5739C49.3103 60.457 47.9428 58.4958 46.9798 55.9938H53.5756ZM55.2026 62.383C54.887 62.473 54.5627 62.5291 54.2352 62.5501V55.9806H60.831C59.5998 59.2829 57.6035 61.697 55.2026 62.3698V62.383ZM54.2352 55.3474V48.2019H62.2293C62.2169 50.6218 61.8282 53.025 61.0773 55.3254L54.2352 55.3474ZM62.8889 48.2019H68.6053C68.5521 50.7122 67.8507 53.1661 66.5694 55.3254H61.75C62.4831 53.0211 62.867 50.62 62.8889 48.2019ZM68.6053 47.5424H62.8889C62.8889 46.8476 62.8449 46.144 62.779 45.4361C62.6289 43.7317 62.2912 42.0491 61.772 40.4189H66.5606C67.486 41.9901 68.1107 43.7198 68.403 45.5196C68.5077 46.1878 68.5694 46.8619 68.5877 47.538L68.6053 47.5424ZM62.5063 35.9645C63.9436 36.9997 65.1828 38.2852 66.1648 39.7593H61.5302C60.5452 37.0374 59.0633 34.8828 57.2473 33.634L57.1066 33.5416C59.0456 33.9758 60.8765 34.7986 62.4888 35.9601L62.5063 35.9645ZM50.691 33.5504C48.8398 34.7684 47.3184 36.9846 46.2938 39.7593H41.6767L41.9977 39.2888C44.0859 36.3737 47.1742 34.3295 50.6734 33.546L50.691 33.5504ZM39.2583 48.2019H44.9527C44.9527 48.8967 44.9966 49.6003 45.0626 50.3082C45.2148 52.0123 45.5525 53.6946 46.0695 55.3254H41.2546C40.3273 53.7551 39.7024 52.025 39.4122 50.2247C39.3027 49.5557 39.241 48.8797 39.2275 48.2019H39.2583ZM41.6943 55.985H46.2938C47.2788 58.7069 48.7606 60.8615 50.5767 62.1103L50.7218 62.2027C47.0271 61.3635 43.7955 59.1378 41.6943 55.985ZM57.1329 62.1895C58.9798 60.9759 60.5012 58.7553 61.5302 55.9806H66.1384C66.0329 56.1389 65.9274 56.2972 65.8175 56.4511C63.7275 59.3675 60.6354 61.4107 57.1329 62.1895Z" fill="#FAFAFA"/>
<path d="M169.39 55.1938H31.1416V88.6919H169.39V55.1938Z" fill="#407BFF"/>
<path opacity="0.6" d="M169.39 55.1938H31.1416V88.6919H169.39V55.1938Z" fill="#FAFAFA"/>
<path d="M166.271 58.3115H28.0225V91.8095H166.271V58.3115Z" fill="#407BFF"/>
<path opacity="0.3" d="M166.271 58.3115H28.0225V91.8095H166.271V58.3115Z" fill="black"/>
<path d="M163.156 61.4292H24.9072V94.9272H163.156V61.4292Z" fill="#407BFF"/>
<path opacity="0.1" d="M163.156 61.4292H24.9072V94.9272H163.156V61.4292Z" fill="#FAFAFA"/>
<path d="M156.56 88.3313V68.0249L31.5027 68.0249V88.3313H156.56Z" fill="#407BFF"/>
<path opacity="0.9" d="M156.56 88.3313V68.0249L31.5027 68.0249V88.3313H156.56Z" fill="#FAFAFA"/>
<path d="M56.9341 82.0679H56.3246L55.483 79.988H52.1552L51.3135 82.0679H50.7041L53.4902 75.1801H54.1286L56.9341 82.0679ZM52.8323 78.2951L52.3583 79.4753H55.2702L54.7961 78.2951C54.3834 77.2632 54.0545 76.4312 53.8094 75.7992C53.6482 76.2313 53.4128 76.8375 53.1032 77.6179C53 77.8759 52.9097 78.1016 52.8323 78.2951ZM61.3853 77.9952V75.1801H61.9367V82.0679H61.4144V81.0908C61.0339 81.8196 60.4276 82.184 59.5957 82.184C58.9056 82.184 58.3574 81.9453 57.9511 81.4681C57.5384 80.9973 57.332 80.3653 57.332 79.572C57.332 78.7788 57.5384 78.1467 57.9511 77.6759C58.3574 77.1987 58.9056 76.9601 59.5957 76.9601C60.4083 76.9601 61.0048 77.3051 61.3853 77.9952ZM57.9027 79.601C57.9027 80.246 58.0607 80.7554 58.3768 81.1295C58.6928 81.5036 59.1184 81.6906 59.6537 81.6906C60.1826 81.6906 60.6082 81.5003 60.9307 81.1198C61.2467 80.7458 61.4047 80.2298 61.4047 79.572C61.4047 78.9142 61.2467 78.3982 60.9307 78.0242C60.6082 77.6437 60.1826 77.4534 59.6537 77.4534C59.1184 77.4534 58.6928 77.6469 58.3768 78.0339C58.0607 78.4273 57.9027 78.9497 57.9027 79.601ZM66.9792 75.0253C68.1787 75.0253 69.159 75.3703 69.92 76.0604C70.6746 76.7569 71.0519 77.6276 71.0519 78.6723C71.0519 79.4205 70.9003 80.0331 70.5972 80.5104C70.3005 80.9812 69.8878 81.2166 69.359 81.2166C69.0494 81.2166 68.7946 81.1392 68.5947 80.9844C68.4012 80.8232 68.2819 80.5974 68.2368 80.3072C67.9724 80.9457 67.5016 81.2649 66.8244 81.2649C66.302 81.2649 65.8796 81.0715 65.5571 80.6845C65.2411 80.2911 65.0831 79.7655 65.0831 79.1077C65.0831 78.4498 65.2411 77.9275 65.5571 77.5405C65.8796 77.1471 66.302 76.9504 66.8244 76.9504C67.4435 76.9504 67.8821 77.2245 68.14 77.7727V77.0665H68.6818V79.8042C68.6818 80.4362 68.914 80.7522 69.3783 80.7522C69.7266 80.7522 70.0039 80.5652 70.2103 80.1911C70.4231 79.8171 70.5295 79.3205 70.5295 78.7014C70.5295 77.792 70.2103 77.0278 69.5718 76.4087C68.9204 75.796 68.0562 75.4896 66.9792 75.4896C65.9344 75.4896 65.0799 75.8314 64.4156 76.5151C63.7384 77.1987 63.3998 78.0693 63.3998 79.127C63.3998 80.1976 63.7384 81.0682 64.4156 81.739C65.0799 82.4097 65.9473 82.745 67.0179 82.745C67.6564 82.745 68.2497 82.6386 68.7979 82.4258V82.8902C68.2755 83.1094 67.6757 83.2191 66.9985 83.2191C65.7732 83.2191 64.78 82.8386 64.019 82.0775C63.258 81.3101 62.8775 80.3266 62.8775 79.127C62.8775 77.9468 63.2612 76.9665 64.0287 76.1862C64.7897 75.4122 65.7732 75.0253 66.9792 75.0253ZM66.8824 80.8006C67.2758 80.8006 67.5854 80.649 67.8111 80.3459C68.0433 80.0428 68.1594 79.6301 68.1594 79.1077C68.1594 78.5853 68.0433 78.1725 67.8111 77.8694C67.5854 77.5598 67.2758 77.4051 66.8824 77.4051C66.4955 77.4051 66.1859 77.5598 65.9538 77.8694C65.728 78.1725 65.6152 78.5853 65.6152 79.1077C65.6152 79.6301 65.728 80.0428 65.9538 80.3459C66.1859 80.649 66.4955 80.8006 66.8824 80.8006ZM72.5508 76.3216H71.9704V75.4122H72.5508V76.3216ZM71.448 83.993C71.2545 83.993 71.1255 83.9897 71.061 83.9833V83.5093H71.3899C71.6028 83.5093 71.7543 83.4609 71.8446 83.3642C71.9414 83.2674 71.9897 83.1191 71.9897 82.9192V77.0761H72.5411V82.9675C72.5411 83.6512 72.1768 83.993 71.448 83.993ZM77.1049 79.8719V77.0761H77.6563V82.0679H77.1339V81.1392C76.9727 81.4681 76.7469 81.7261 76.4567 81.9131C76.1665 82.0937 75.8376 82.184 75.47 82.184C74.9089 82.184 74.4736 82.026 74.164 81.7099C73.8544 81.3939 73.6997 80.9457 73.6997 80.3653V77.0761H74.2511V80.3169C74.2511 81.2327 74.6928 81.6906 75.5764 81.6906C76.0149 81.6906 76.3761 81.5326 76.6599 81.2166C76.9501 80.9006 77.0984 80.4523 77.1049 79.8719ZM80.571 82.184C79.9325 82.184 79.4359 82.0421 79.0812 81.7583C78.7265 81.4745 78.533 81.0618 78.5008 80.5201H79.0619C79.1264 81.3133 79.6294 81.7099 80.571 81.7099C81.4997 81.7099 81.964 81.3939 81.964 80.7619C81.964 80.5039 81.8705 80.304 81.6835 80.1621C81.4965 80.0202 81.1804 79.9074 80.7354 79.8235L80.2227 79.7365C79.6874 79.6397 79.2908 79.4785 79.0328 79.2528C78.7813 79.0206 78.6556 78.711 78.6556 78.3241C78.6556 77.8984 78.8136 77.5663 79.1296 77.3277C79.4456 77.0826 79.8841 76.9601 80.4452 76.9601C81.7157 76.9601 82.3735 77.476 82.4187 78.5079H81.8576C81.8318 78.1403 81.7061 77.8694 81.4803 77.6953C81.2546 77.5211 80.9096 77.4341 80.4452 77.4341C80.0518 77.4341 79.7455 77.5115 79.5262 77.6663C79.3134 77.821 79.207 78.0371 79.207 78.3144C79.207 78.5724 79.2973 78.7723 79.4778 78.9142C79.6649 79.0561 79.968 79.1657 80.3872 79.2431L80.8902 79.3302C81.4642 79.4334 81.877 79.5978 82.1285 79.8235C82.3864 80.0428 82.5154 80.3459 82.5154 80.7329C82.5154 81.2037 82.3413 81.5648 81.993 81.8164C81.6512 82.0614 81.1772 82.184 80.571 82.184ZM85.3122 77.0761V77.5598H84.1513V81.0231C84.1513 81.4165 84.3867 81.6132 84.8575 81.6132C85.1026 81.6132 85.2541 81.61 85.3122 81.6035V82.0679C85.1251 82.0872 84.951 82.0969 84.7898 82.0969C84.003 82.0969 83.6096 81.7551 83.6096 81.0715V77.5598H82.7583V77.0761H83.6096V75.6638H84.1513V77.0761H85.3122ZM90.2469 79.5623V79.7558H86.329C86.3548 80.3749 86.516 80.8522 86.8127 81.1875C87.1158 81.5165 87.5285 81.6809 88.0509 81.6809C88.4508 81.6809 88.7829 81.5745 89.0473 81.3617C89.3118 81.1424 89.4859 80.8457 89.5697 80.4717H90.1405C90.0244 81.0005 89.7826 81.4197 89.4149 81.7293C89.0473 82.0324 88.5862 82.184 88.0316 82.184C87.3351 82.184 86.7837 81.9453 86.3773 81.4681C85.971 80.9908 85.7679 80.3588 85.7679 79.572C85.7679 78.7917 85.971 78.1596 86.3773 77.6759C86.7772 77.1987 87.3222 76.9601 88.0122 76.9601C88.7152 76.9601 89.2634 77.2051 89.6568 77.6953C90.0502 78.1854 90.2469 78.8078 90.2469 79.5623ZM88.0122 77.4631C87.535 77.4631 87.148 77.6211 86.8514 77.9371C86.5547 78.2531 86.3838 78.6949 86.3387 79.2624H89.6568C89.6245 78.7143 89.4633 78.2789 89.1731 77.9565C88.8893 77.6276 88.5024 77.4631 88.0122 77.4631ZM95.4334 79.5623V79.7558H91.5155C91.5413 80.3749 91.7025 80.8522 91.9992 81.1875C92.3023 81.5165 92.715 81.6809 93.2374 81.6809C93.6373 81.6809 93.9694 81.5745 94.2338 81.3617C94.4982 81.1424 94.6724 80.8457 94.7562 80.4717H95.327C95.2109 81.0005 94.969 81.4197 94.6014 81.7293C94.2338 82.0324 93.7727 82.184 93.2181 82.184C92.5215 82.184 91.9701 81.9453 91.5638 81.4681C91.1575 80.9908 90.9544 80.3588 90.9544 79.572C90.9544 78.7917 91.1575 78.1596 91.5638 77.6759C91.9637 77.1987 92.5087 76.9601 93.1987 76.9601C93.9017 76.9601 94.4499 77.2051 94.8433 77.6953C95.2367 78.1854 95.4334 78.8078 95.4334 79.5623ZM93.1987 77.4631C92.7215 77.4631 92.3345 77.6211 92.0379 77.9371C91.7412 78.2531 91.5703 78.6949 91.5251 79.2624H94.8433C94.811 78.7143 94.6498 78.2789 94.3596 77.9565C94.0758 77.6276 93.6889 77.4631 93.1987 77.4631ZM98.3949 82.184C97.7113 82.184 97.1663 81.9486 96.76 81.4778C96.3472 81.007 96.1409 80.3717 96.1409 79.572C96.1409 78.7723 96.3472 78.1371 96.76 77.6663C97.1663 77.1955 97.7113 76.9601 98.3949 76.9601C98.956 76.9601 99.4235 77.1213 99.7976 77.4438C100.172 77.7662 100.397 78.1919 100.475 78.7207H99.9137C99.8363 78.3273 99.6589 78.0177 99.3816 77.792C99.1107 77.5663 98.7818 77.4534 98.3949 77.4534C97.8854 77.4534 97.4759 77.6405 97.1663 78.0145C96.8632 78.3886 96.7116 78.9077 96.7116 79.572C96.7116 80.2363 96.8632 80.7554 97.1663 81.1295C97.4759 81.5036 97.8854 81.6906 98.3949 81.6906C98.7883 81.6906 99.1236 81.5713 99.401 81.3327C99.6847 81.0876 99.8589 80.7619 99.9234 80.3556H100.484C100.42 80.8844 100.194 81.323 99.8073 81.6712C99.4139 82.0131 98.9431 82.184 98.3949 82.184ZM105.58 79.5623V79.7558H101.662C101.687 80.3749 101.849 80.8522 102.145 81.1875C102.449 81.5165 102.861 81.6809 103.384 81.6809C103.784 81.6809 104.116 81.5745 104.38 81.3617C104.644 81.1424 104.819 80.8457 104.902 80.4717H105.473C105.357 81.0005 105.115 81.4197 104.748 81.7293C104.38 82.0324 103.919 82.184 103.364 82.184C102.668 82.184 102.116 81.9453 101.71 81.4681C101.304 80.9908 101.101 80.3588 101.101 79.572C101.101 78.7917 101.304 78.1596 101.71 77.6759C102.11 77.1987 102.655 76.9601 103.345 76.9601C104.048 76.9601 104.596 77.2051 104.99 77.6953C105.383 78.1854 105.58 78.8078 105.58 79.5623ZM103.345 77.4631C102.868 77.4631 102.481 77.6211 102.184 77.9371C101.887 78.2531 101.717 78.6949 101.671 79.2624H104.99C104.957 78.7143 104.796 78.2789 104.506 77.9565C104.222 77.6276 103.835 77.4631 103.345 77.4631ZM106.741 82.0679H105.977V81.3133H106.741V82.0679ZM109.401 82.184C108.717 82.184 108.172 81.9486 107.766 81.4778C107.353 81.007 107.147 80.3717 107.147 79.572C107.147 78.7723 107.353 78.1371 107.766 77.6663C108.172 77.1955 108.717 76.9601 109.401 76.9601C109.962 76.9601 110.429 77.1213 110.804 77.4438C111.178 77.7662 111.403 78.1919 111.481 78.7207H110.92C110.842 78.3273 110.665 78.0177 110.388 77.792C110.117 77.5663 109.788 77.4534 109.401 77.4534C108.891 77.4534 108.482 77.6405 108.172 78.0145C107.869 78.3886 107.718 78.9077 107.718 79.572C107.718 80.2363 107.869 80.7554 108.172 81.1295C108.482 81.5036 108.891 81.6906 109.401 81.6906C109.794 81.6906 110.13 81.5713 110.407 81.3327C110.691 81.0876 110.865 80.7619 110.929 80.3556H111.49C111.426 80.8844 111.2 81.323 110.813 81.6712C110.42 82.0131 109.949 82.184 109.401 82.184ZM116.121 81.4584C115.683 81.9421 115.118 82.184 114.428 82.184C113.738 82.184 113.18 81.9421 112.755 81.4584C112.323 80.9876 112.107 80.3588 112.107 79.572C112.107 78.7852 112.323 78.1532 112.755 77.6759C113.18 77.1987 113.738 76.9601 114.428 76.9601C115.118 76.9601 115.683 77.1987 116.121 77.6759C116.547 78.1596 116.76 78.7917 116.76 79.572C116.76 80.3588 116.547 80.9876 116.121 81.4584ZM113.151 81.1102C113.467 81.4971 113.893 81.6906 114.428 81.6906C114.964 81.6906 115.392 81.4971 115.715 81.1102C116.031 80.7361 116.189 80.2234 116.189 79.572C116.189 78.9206 116.031 78.4047 115.715 78.0242C115.392 77.6437 114.964 77.4534 114.428 77.4534C113.899 77.4534 113.474 77.6437 113.151 78.0242C112.835 78.4047 112.677 78.9206 112.677 79.572C112.677 80.2234 112.835 80.7361 113.151 81.1102ZM122.967 76.9601C123.515 76.9601 123.935 77.1213 124.225 77.4438C124.522 77.7598 124.67 78.2015 124.67 78.7691V82.0679H124.128V78.8271C124.128 77.9113 123.719 77.4534 122.9 77.4534C122.48 77.4534 122.135 77.6179 121.864 77.9468C121.6 78.2693 121.465 78.7304 121.458 79.3302V82.0679H120.907V78.8271C120.907 77.9113 120.497 77.4534 119.678 77.4534C119.265 77.4534 118.924 77.6179 118.653 77.9468C118.388 78.2693 118.253 78.7304 118.246 79.3302V82.0679H117.695V77.0761H118.217V77.9952C118.527 77.3051 119.043 76.9601 119.765 76.9601C120.578 76.9601 121.107 77.3244 121.352 78.0532C121.694 77.3244 122.232 76.9601 122.967 76.9601Z" fill="#484A47"/>
<path d="M135.521 68.0247V88.3311H136.256V68.0247H135.521Z" fill="#407BFF"/>
<path opacity="0.6" d="M135.521 68.0247V88.3311H136.256V68.0247H135.521Z" fill="#FAFAFA"/>
<path d="M34.6191 70.8255V85.5298H35.3535V70.8255H34.6191Z" fill="#407BFF"/>
<path opacity="0.6" d="M34.6191 70.8255V85.5298H35.3535V70.8255H34.6191Z" fill="#FAFAFA"/>
<path d="M145.706 80.7418C145.172 80.7415 144.647 80.6097 144.176 80.3581C143.706 80.1064 143.305 79.7426 143.008 79.2989C142.712 78.8551 142.53 78.3452 142.477 77.8142C142.425 77.2832 142.505 76.7475 142.709 76.2546C142.913 75.7616 143.236 75.3266 143.648 74.9881C144.061 74.6496 144.55 74.418 145.074 74.3139C145.597 74.2097 146.138 74.2362 146.648 74.391C147.159 74.5458 147.624 74.8241 148.001 75.2013C148.455 75.6551 148.764 76.2335 148.89 76.8631C149.015 77.4928 148.951 78.1455 148.705 78.7387C148.459 79.3318 148.043 79.8387 147.509 80.1953C146.975 80.5518 146.348 80.742 145.706 80.7418ZM145.706 75.1353C145.158 75.1355 144.628 75.3255 144.205 75.673C143.782 76.0204 143.492 76.5039 143.386 77.0409C143.279 77.5778 143.362 78.1351 143.621 78.6178C143.879 79.1004 144.297 79.4784 144.803 79.6874C145.309 79.8965 145.872 79.9236 146.395 79.7641C146.919 79.6047 147.371 79.2685 147.675 78.8129C147.979 78.3574 148.115 77.8107 148.06 77.2659C148.006 76.7212 147.764 76.2122 147.377 75.8257C147.16 75.6017 146.9 75.4234 146.613 75.301C146.326 75.1787 146.018 75.1149 145.706 75.1133V75.1353Z" fill="#407BFF"/>
<path d="M149.916 82.1223C149.858 82.1221 149.8 82.1103 149.747 82.0876C149.693 82.065 149.645 82.0319 149.604 81.9904L147.383 79.7698C147.337 79.7304 147.3 79.6819 147.273 79.6273C147.247 79.5728 147.232 79.5133 147.23 79.4528C147.227 79.3922 147.238 79.3318 147.26 79.2754C147.282 79.219 147.315 79.1677 147.358 79.1249C147.401 79.082 147.452 79.0485 147.509 79.0264C147.565 79.0043 147.626 78.9941 147.686 78.9964C147.747 78.9988 147.806 79.0136 147.861 79.04C147.915 79.0664 147.964 79.1038 148.003 79.1498L150.224 81.3704C150.306 81.4528 150.352 81.5642 150.352 81.6804C150.352 81.7966 150.306 81.908 150.224 81.9904C150.143 82.0732 150.032 82.1207 149.916 82.1223Z" fill="#407BFF"/>
<g opacity="0.6">
<path opacity="0.6" d="M145.706 80.7418C145.172 80.7415 144.647 80.6097 144.176 80.3581C143.706 80.1064 143.305 79.7426 143.008 79.2989C142.712 78.8551 142.53 78.3452 142.477 77.8142C142.425 77.2832 142.505 76.7475 142.709 76.2546C142.913 75.7616 143.236 75.3266 143.648 74.9881C144.061 74.6496 144.55 74.418 145.074 74.3139C145.597 74.2097 146.138 74.2362 146.648 74.391C147.159 74.5458 147.624 74.8241 148.001 75.2013C148.455 75.6551 148.764 76.2335 148.89 76.8631C149.015 77.4928 148.951 78.1455 148.705 78.7387C148.459 79.3318 148.043 79.8387 147.509 80.1953C146.975 80.5518 146.348 80.742 145.706 80.7418ZM145.706 75.1353C145.158 75.1355 144.628 75.3255 144.205 75.673C143.782 76.0204 143.492 76.5039 143.386 77.0409C143.279 77.5778 143.362 78.1351 143.621 78.6178C143.879 79.1004 144.297 79.4784 144.803 79.6874C145.309 79.8965 145.872 79.9236 146.395 79.7641C146.919 79.6047 147.371 79.2685 147.675 78.8129C147.979 78.3574 148.115 77.8107 148.06 77.2659C148.006 76.7212 147.764 76.2122 147.377 75.8257C147.16 75.6017 146.9 75.4234 146.613 75.301C146.326 75.1787 146.018 75.1149 145.706 75.1133V75.1353Z" fill="#FAFAFA"/>
<path opacity="0.6" d="M149.913 82.1223C149.855 82.1221 149.797 82.1103 149.744 82.0876C149.69 82.065 149.642 82.0319 149.601 81.9904L147.38 79.7698C147.334 79.7304 147.297 79.6819 147.27 79.6273C147.244 79.5728 147.229 79.5133 147.227 79.4528C147.225 79.3922 147.235 79.3318 147.257 79.2754C147.279 79.219 147.312 79.1677 147.355 79.1249C147.398 79.082 147.449 79.0485 147.506 79.0264C147.562 79.0043 147.623 78.9941 147.683 78.9964C147.744 78.9988 147.803 79.0136 147.858 79.04C147.912 79.0664 147.961 79.1038 148 79.1498L150.221 81.3704C150.303 81.4528 150.349 81.5642 150.349 81.6804C150.349 81.7966 150.303 81.908 150.221 81.9904C150.14 82.0732 150.029 82.1207 149.913 82.1223Z" fill="#FAFAFA"/>
</g>
<path d="M115.877 34.9448H102.052V35.2878H115.877V34.9448Z" fill="#407BFF"/>
<path d="M115.877 36.3999H102.052V36.7429H115.877V36.3999Z" fill="#407BFF"/>
<path d="M115.877 37.8599H102.052V38.2028H115.877V37.8599Z" fill="#407BFF"/>
<path d="M115.877 39.3154H102.052V39.6584H115.877V39.3154Z" fill="#407BFF"/>
<path d="M115.877 40.771H102.052V41.114H115.877V40.771Z" fill="#407BFF"/>
<path d="M111.066 42.231H102.052V42.5739H111.066V42.231Z" fill="#407BFF"/>
<g opacity="0.5">
<path opacity="0.5" d="M115.877 34.9448H102.052V35.2878H115.877V34.9448Z" fill="#FAFAFA"/>
<path opacity="0.5" d="M115.877 36.3999H102.052V36.7429H115.877V36.3999Z" fill="#FAFAFA"/>
<path opacity="0.5" d="M115.877 37.8604H102.052V38.2033H115.877V37.8604Z" fill="#FAFAFA"/>
<path opacity="0.5" d="M115.877 39.3154H102.052V39.6584H115.877V39.3154Z" fill="#FAFAFA"/>
<path opacity="0.5" d="M115.877 40.771H102.052V41.114H115.877V40.771Z" fill="#FAFAFA"/>
<path opacity="0.5" d="M111.066 42.231H102.052V42.5739H111.066V42.231Z" fill="#FAFAFA"/>
</g>
<path d="M32.6623 97.8203H17.9316V98.0402H32.6623V97.8203Z" fill="#407BFF"/>
<path d="M32.6623 98.7524H17.9316V98.9723H32.6623V98.7524Z" fill="#407BFF"/>
<path d="M32.6623 99.6851H17.9316V99.9049H32.6623V99.6851Z" fill="#407BFF"/>
<path d="M32.6623 100.617H17.9316V100.837H32.6623V100.617Z" fill="#407BFF"/>
<path d="M32.6623 101.549H17.9316V101.769H32.6623V101.549Z" fill="#407BFF"/>
<path d="M27.1922 102.486H17.9316V102.706H27.1922V102.486Z" fill="#407BFF"/>
<g opacity="0.4">
<path opacity="0.4" d="M32.6623 97.8203H17.9316V98.0402H32.6623V97.8203Z" fill="#FAFAFA"/>
<path opacity="0.4" d="M32.6633 98.7524H17.9326V98.9723H32.6633V98.7524Z" fill="#FAFAFA"/>
<path opacity="0.4" d="M32.6633 99.6841H17.9326V99.9039H32.6633V99.6841Z" fill="#FAFAFA"/>
<path opacity="0.4" d="M32.6633 100.616H17.9326V100.836H32.6633V100.616Z" fill="#FAFAFA"/>
<path opacity="0.4" d="M32.6633 101.549H17.9326V101.769H32.6633V101.549Z" fill="#FAFAFA"/>
<path opacity="0.4" d="M27.1932 102.485H17.9326V102.705H27.1932V102.485Z" fill="#FAFAFA"/>
</g>
<path d="M81.0749 37.1035C80.3379 37.1035 79.631 37.3963 79.1099 37.9175C78.5887 38.4386 78.2959 39.1455 78.2959 39.8826V49.0507C78.2959 49.7878 78.5887 50.4947 79.1099 51.0158C79.631 51.537 80.3379 51.8298 81.0749 51.8298C81.812 51.8298 82.5188 51.537 83.04 51.0158C83.5612 50.4947 83.854 49.7878 83.854 49.0507V39.8826C83.854 39.1455 83.5612 38.4386 83.04 37.9175C82.5188 37.3963 81.812 37.1035 81.0749 37.1035Z" fill="#407BFF"/>
<path opacity="0.2" d="M81.0749 37.1035C80.3379 37.1035 79.631 37.3963 79.1099 37.9175C78.5887 38.4386 78.2959 39.1455 78.2959 39.8826V49.0507C78.2959 49.7878 78.5887 50.4947 79.1099 51.0158C79.631 51.537 80.3379 51.8298 81.0749 51.8298C81.812 51.8298 82.5188 51.537 83.04 51.0158C83.5612 50.4947 83.854 49.7878 83.854 49.0507V39.8826C83.854 39.1455 83.5612 38.4386 83.04 37.9175C82.5188 37.3963 81.812 37.1035 81.0749 37.1035Z" fill="#FAFAFA"/>
<path d="M88.0422 31.6377C87.3075 31.6412 86.604 31.9355 86.0857 32.4563C85.5673 32.9771 85.2764 33.682 85.2764 34.4168V49.0507C85.2764 49.7878 85.5692 50.4946 86.0903 51.0158C86.6115 51.537 87.3184 51.8298 88.0554 51.8298C88.7925 51.8298 89.4993 51.537 90.0205 51.0158C90.5417 50.4946 90.8344 49.7878 90.8344 49.0507V34.4168C90.8345 34.0507 90.7621 33.6883 90.6217 33.3502C90.4812 33.0122 90.2753 32.7052 90.0158 32.447C89.7564 32.1888 89.4485 31.9844 89.1098 31.8455C88.7711 31.7066 88.4083 31.636 88.0422 31.6377Z" fill="#407BFF"/>
<path opacity="0.3" d="M88.0422 31.6377C87.3075 31.6412 86.604 31.9355 86.0857 32.4563C85.5673 32.9771 85.2764 33.682 85.2764 34.4168V49.0507C85.2764 49.7878 85.5692 50.4946 86.0903 51.0158C86.6115 51.537 87.3184 51.8298 88.0554 51.8298C88.7925 51.8298 89.4993 51.537 90.0205 51.0158C90.5417 50.4946 90.8344 49.7878 90.8344 49.0507V34.4168C90.8345 34.0507 90.7621 33.6883 90.6217 33.3502C90.4812 33.0122 90.2753 32.7052 90.0158 32.447C89.7564 32.1888 89.4485 31.9844 89.1098 31.8455C88.7711 31.7066 88.4083 31.636 88.0422 31.6377Z" fill="black"/>
<path d="M95.0017 42.5693C94.2646 42.5693 93.5578 42.8621 93.0366 43.3833C92.5154 43.9045 92.2227 44.6113 92.2227 45.3484V49.0508C92.2227 49.7879 92.5154 50.4947 93.0366 51.0159C93.5578 51.5371 94.2646 51.8299 95.0017 51.8299C95.367 51.8305 95.7289 51.759 96.0665 51.6196C96.4042 51.4802 96.7111 51.2756 96.9696 51.0175C97.2281 50.7594 97.4332 50.4528 97.5732 50.1153C97.7131 49.7779 97.7851 49.4162 97.7851 49.0508V45.3484C97.7851 44.9831 97.7131 44.6213 97.5732 44.2839C97.4332 43.9464 97.2281 43.6399 96.9696 43.3817C96.7111 43.1236 96.4042 42.919 96.0665 42.7796C95.7289 42.6402 95.367 42.5688 95.0017 42.5693Z" fill="#407BFF"/>
<path opacity="0.6" d="M95.0017 42.5693C94.2646 42.5693 93.5578 42.8621 93.0366 43.3833C92.5154 43.9045 92.2227 44.6113 92.2227 45.3484V49.0508C92.2227 49.7879 92.5154 50.4947 93.0366 51.0159C93.5578 51.5371 94.2646 51.8299 95.0017 51.8299C95.367 51.8305 95.7289 51.759 96.0665 51.6196C96.4042 51.4802 96.7111 51.2756 96.9696 51.0175C97.2281 50.7594 97.4332 50.4528 97.5732 50.1153C97.7131 49.7779 97.7851 49.4162 97.7851 49.0508V45.3484C97.7851 44.9831 97.7131 44.6213 97.5732 44.2839C97.4332 43.9464 97.2281 43.6399 96.9696 43.3817C96.7111 43.1236 96.4042 42.919 96.0665 42.7796C95.7289 42.6402 95.367 42.5688 95.0017 42.5693Z" fill="#FAFAFA"/>
<path d="M153.701 105.423H164.936L145.755 85.5298L153.701 105.423Z" fill="#407BFF"/>
<g opacity="0.1">
<path opacity="0.1" d="M153.701 105.423H164.936L145.755 85.5298L153.701 105.423Z" fill="black"/>
</g>
<g style="mix-blend-mode:multiply">
<path d="M142.9 94.9222L145.754 85.5298L147.372 94.9222H142.9Z" fill="#407BFF"/>
</g>
<path d="M145.755 85.5298V113.364L147.742 111.381L153.701 105.423L145.755 85.5298Z" fill="#407BFF"/>
<path opacity="0.3" d="M145.755 85.5298V113.364L147.742 111.381L153.701 105.423L145.755 85.5298Z" fill="#FAFAFA"/>
<path d="M165.62 25.8247H140.996C139.748 25.8293 138.552 26.3268 137.67 27.2089C136.787 28.091 136.288 29.2861 136.282 30.5341V43.2509C136.288 44.4981 136.786 45.6926 137.668 46.5746C138.55 47.4565 139.744 47.9545 140.992 47.9603H159.06L158.928 52.4059L163.488 47.9603H165.612C166.86 47.9557 168.055 47.4582 168.938 46.5761C169.821 45.694 170.32 44.4989 170.325 43.2509V30.5341C170.32 29.2877 169.822 28.0938 168.941 27.212C168.06 26.3302 166.867 25.8316 165.62 25.8247ZM140.442 31.2421C140.442 30.8922 140.581 30.5567 140.828 30.3093C141.076 30.0619 141.411 29.9229 141.761 29.9229H147.429C147.779 29.9229 148.115 30.0619 148.362 30.3093C148.609 30.5567 148.748 30.8922 148.748 31.2421C148.748 31.5919 148.609 31.9275 148.362 32.1749C148.115 32.4223 147.779 32.5612 147.429 32.5612H141.757C141.408 32.5601 141.073 32.4206 140.827 32.1733C140.58 31.9261 140.442 31.5912 140.442 31.2421ZM164.222 43.5543H154.425C154.236 43.5875 154.041 43.5788 153.855 43.5288C153.669 43.4789 153.496 43.3888 153.349 43.265C153.202 43.1412 153.083 42.9866 153.002 42.8121C152.92 42.6376 152.878 42.4474 152.878 42.2549C152.878 42.0624 152.92 41.8722 153.002 41.6977C153.083 41.5232 153.202 41.3687 153.349 41.2448C153.496 41.121 153.669 41.031 153.855 40.981C154.041 40.931 154.236 40.9223 154.425 40.9555H164.222C164.412 40.9223 164.606 40.931 164.792 40.981C164.978 41.031 165.151 41.121 165.298 41.2448C165.446 41.3687 165.564 41.5232 165.646 41.6977C165.727 41.8722 165.769 42.0624 165.769 42.2549C165.769 42.4474 165.727 42.6376 165.646 42.8121C165.564 42.9866 165.446 43.1412 165.298 43.265C165.151 43.3888 164.978 43.4789 164.792 43.5288C164.606 43.5788 164.412 43.5875 164.222 43.5543ZM164.222 38.0534H143.076C142.886 38.0866 142.692 38.0779 142.506 38.0279C142.32 37.9779 142.147 37.8879 142 37.7641C141.852 37.6402 141.734 37.4857 141.653 37.3112C141.571 37.1367 141.529 36.9465 141.529 36.754C141.529 36.5615 141.571 36.3713 141.653 36.1968C141.734 36.0223 141.852 35.8677 142 35.7439C142.147 35.6201 142.32 35.53 142.506 35.4801C142.692 35.4301 142.886 35.4214 143.076 35.4546H164.222C164.412 35.4214 164.606 35.4301 164.792 35.4801C164.978 35.53 165.151 35.6201 165.298 35.7439C165.446 35.8677 165.564 36.0223 165.646 36.1968C165.727 36.3713 165.769 36.5615 165.769 36.754C165.769 36.9465 165.727 37.1367 165.646 37.3112C165.564 37.4857 165.446 37.6402 165.298 37.7641C165.151 37.8879 164.978 37.9779 164.792 38.0279C164.606 38.0779 164.412 38.0866 164.222 38.0534ZM164.222 32.5525H151.703C151.353 32.5525 151.018 32.4135 150.77 32.1661C150.523 31.9187 150.384 31.5832 150.384 31.2333C150.384 30.8834 150.523 30.5479 150.77 30.3005C151.018 30.0531 151.353 29.9141 151.703 29.9141H164.222C164.572 29.9141 164.908 30.0531 165.155 30.3005C165.402 30.5479 165.541 30.8834 165.541 31.2333C165.541 31.5832 165.402 31.9187 165.155 32.1661C164.908 32.4135 164.572 32.5525 164.222 32.5525Z" fill="#407BFF"/>
<path d="M127.11 66.1351C126.058 63.2462 124.452 60.5904 122.383 58.3169H87.4204C85.3508 60.5904 83.745 63.2462 82.6934 66.1351L87.5303 90.2143C91.2306 94.2256 96.2055 96.8323 101.61 97.5914C107.014 98.3505 112.515 97.2153 117.177 94.3786C121.839 91.5419 125.376 87.1786 127.185 82.0301C128.995 76.8815 128.967 71.2652 127.105 66.1351H127.11Z" fill="#407BFF"/>
<path opacity="0.1" d="M127.11 66.1351C126.058 63.2462 124.452 60.5904 122.383 58.3169H87.4204C85.3508 60.5904 83.745 63.2462 82.6934 66.1351L87.5303 90.2143C91.2306 94.2256 96.2055 96.8323 101.61 97.5914C107.014 98.3505 112.515 97.2153 117.177 94.3786C121.839 91.5419 125.376 87.1786 127.185 82.0301C128.995 76.8815 128.967 71.2652 127.105 66.1351H127.11Z" fill="#FAFAFA"/>
<path d="M128.503 75.2942C128.254 80.8464 126.048 86.1313 122.277 90.2139H87.5388C84.6062 87.0273 82.6044 83.0969 81.7515 78.8511C80.8986 74.6052 81.2273 70.2067 82.7019 66.1348H127.114C128.18 69.0654 128.653 72.1791 128.503 75.2942Z" fill="#407BFF"/>
<path opacity="0.9" d="M128.503 75.2942C128.254 80.8464 126.048 86.1313 122.277 90.2139H87.5388C84.6062 87.0273 82.6044 83.0969 81.7515 78.8511C80.8986 74.6052 81.2273 70.2067 82.7019 66.1348H127.114C128.18 69.0654 128.653 72.1791 128.503 75.2942Z" fill="#FAFAFA"/>
<path d="M86.7749 82.149C85.8427 82.149 85.0996 81.828 84.5455 81.186C83.9827 80.544 83.7012 79.6778 83.7012 78.5873C83.7012 77.4968 83.9827 76.6305 84.5455 75.9885C85.0996 75.3465 85.8427 75.0255 86.7749 75.0255C87.54 75.0255 88.1776 75.2454 88.6877 75.6851C89.1978 76.1248 89.5056 76.7053 89.6111 77.4264H88.846C88.7405 76.89 88.4986 76.4678 88.1204 76.16C87.7511 75.8522 87.3026 75.6983 86.7749 75.6983C86.0801 75.6983 85.5217 75.9533 85.0996 76.4634C84.6862 76.9735 84.4796 77.6814 84.4796 78.5873C84.4796 79.4931 84.6862 80.2011 85.0996 80.7111C85.5217 81.2212 86.0801 81.4762 86.7749 81.4762C87.3114 81.4762 87.7687 81.3136 88.1468 80.9882C88.5338 80.654 88.7712 80.2098 88.8592 79.6558H89.6243C89.5364 80.3769 89.2285 80.975 88.7009 81.4499C88.1644 81.916 87.5224 82.149 86.7749 82.149ZM96.5723 78.5741V78.8379H91.2297C91.2648 79.6822 91.4847 80.333 91.8892 80.7903C92.3026 81.2388 92.8654 81.4631 93.5778 81.4631C94.123 81.4631 94.5759 81.3179 94.9365 81.0277C95.2971 80.7287 95.5345 80.3242 95.6489 79.8141H96.4272C96.2689 80.5352 95.9391 81.1069 95.4378 81.529C94.9365 81.9424 94.3077 82.149 93.5514 82.149C92.6016 82.149 91.8497 81.8236 91.2956 81.1728C90.7416 80.5221 90.4645 79.6602 90.4645 78.5873C90.4645 77.5231 90.7416 76.6613 91.2956 76.0017C91.8409 75.3509 92.584 75.0255 93.525 75.0255C94.4836 75.0255 95.2311 75.3597 95.7676 76.0281C96.304 76.6965 96.5723 77.5451 96.5723 78.5741ZM93.525 75.7115C92.8742 75.7115 92.3466 75.927 91.942 76.3579C91.5375 76.7888 91.3044 77.3912 91.2429 78.1651H95.7676C95.7236 77.4176 95.5038 76.824 95.108 76.3843C94.7211 75.9358 94.1934 75.7115 93.525 75.7115ZM98.1565 81.9907H97.1144V80.9618H98.1565V81.9907ZM101.783 82.149C100.851 82.149 100.108 81.828 99.5536 81.186C98.9907 80.544 98.7093 79.6778 98.7093 78.5873C98.7093 77.4968 98.9907 76.6305 99.5536 75.9885C100.108 75.3465 100.851 75.0255 101.783 75.0255C102.548 75.0255 103.186 75.2454 103.696 75.6851C104.206 76.1248 104.514 76.7053 104.619 77.4264H103.854C103.749 76.89 103.507 76.4678 103.129 76.16C102.759 75.8522 102.311 75.6983 101.783 75.6983C101.088 75.6983 100.53 75.9533 100.108 76.4634C99.6943 76.9735 99.4876 77.6814 99.4876 78.5873C99.4876 79.4931 99.6943 80.2011 100.108 80.7111C100.53 81.2212 101.088 81.4762 101.783 81.4762C102.319 81.4762 102.777 81.3136 103.155 80.9882C103.542 80.654 103.779 80.2098 103.867 79.6558H104.632C104.544 80.3769 104.237 80.975 103.709 81.4499C103.173 81.916 102.531 82.149 101.783 82.149ZM110.947 81.1596C110.349 81.8192 109.58 82.149 108.639 82.149C107.698 82.149 106.937 81.8192 106.356 81.1596C105.767 80.5177 105.473 79.6602 105.473 78.5873C105.473 77.5144 105.767 76.6525 106.356 76.0017C106.937 75.3509 107.698 75.0255 108.639 75.0255C109.58 75.0255 110.349 75.3509 110.947 76.0017C111.528 76.6613 111.818 77.5231 111.818 78.5873C111.818 79.6602 111.528 80.5177 110.947 81.1596ZM106.897 80.6847C107.328 81.2124 107.909 81.4762 108.639 81.4762C109.369 81.4762 109.953 81.2124 110.393 80.6847C110.824 80.1747 111.04 79.4755 111.04 78.5873C111.04 77.699 110.824 76.9955 110.393 76.4766C109.953 75.9577 109.369 75.6983 108.639 75.6983C107.917 75.6983 107.337 75.9577 106.897 76.4766C106.466 76.9955 106.251 77.699 106.251 78.5873C106.251 79.4755 106.466 80.1747 106.897 80.6847ZM120.283 75.0255C121.03 75.0255 121.602 75.2454 121.998 75.6851C122.402 76.116 122.604 76.7185 122.604 77.4924V81.9907H121.866V77.5715C121.866 76.3227 121.307 75.6983 120.19 75.6983C119.619 75.6983 119.148 75.9226 118.779 76.3711C118.418 76.8108 118.234 77.4396 118.225 78.2575V81.9907H117.473V77.5715C117.473 76.3227 116.914 75.6983 115.798 75.6983C115.235 75.6983 114.769 75.9226 114.399 76.3711C114.039 76.8108 113.854 77.4396 113.845 78.2575V81.9907H113.093V75.1838H113.806V76.437C114.228 75.496 114.931 75.0255 115.916 75.0255C117.024 75.0255 117.746 75.5224 118.08 76.5162C118.546 75.5224 119.28 75.0255 120.283 75.0255Z" fill="#484A47"/>
<path opacity="0.3" d="M127.998 75.2943C127.725 81.1371 125.289 86.6694 121.164 90.8165C117.039 94.9635 111.52 97.4289 105.679 97.7336C99.8376 98.0384 94.0917 96.1607 89.5577 92.4655C85.0237 88.7702 82.0254 83.5214 81.1454 77.7388C80.2653 71.9563 81.5665 66.0531 84.796 61.1764C88.0255 56.2997 92.9527 52.7978 98.6201 51.3511C104.287 49.9044 110.29 50.6164 115.462 53.3486C120.634 56.0808 124.605 60.6381 126.604 66.1349C127.671 69.0656 128.145 72.179 127.998 75.2943Z" fill="white"/>
<path opacity="0.4" d="M118.218 54.6934L84.2453 85.6762C84.0752 85.3626 83.9082 85.046 83.744 84.7264C82.7052 82.6469 81.9834 80.4237 81.6025 78.1306L110.945 51.3691C113.542 52.0534 116.002 53.1778 118.218 54.6934Z" fill="white"/>
<path opacity="0.4" d="M127.307 66.7024L95.388 95.8295C92.077 94.3687 89.1463 92.1661 86.8223 89.392L121.701 57.5825C124.243 60.1536 126.161 63.2736 127.307 66.7024Z" fill="white"/>
<path d="M128.495 60.5811C125.8 55.9088 121.78 52.1407 116.943 49.7537C112.107 47.3667 106.671 46.468 101.323 47.1713C95.9755 47.8746 90.9566 50.1483 86.9016 53.7047C82.8466 57.2612 79.9376 61.9405 78.5427 67.1507C77.1478 72.3609 77.3297 77.8677 79.0654 82.9745C80.8011 88.0812 84.0126 92.5584 88.2935 95.8395C92.5744 99.1205 97.7324 101.058 103.115 101.407C108.497 101.756 113.862 100.5 118.531 97.7992C124.784 94.1815 129.345 88.23 131.213 81.2518C133.082 74.2735 132.104 66.839 128.495 60.5811ZM86.2814 84.9593C84.1554 81.2772 83.1689 77.0474 83.4468 72.8047C83.7247 68.5619 85.2544 64.4969 87.8425 61.1235C90.4306 57.7502 93.9609 55.2201 97.987 53.853C102.013 52.486 106.354 52.3436 110.461 53.4437C114.568 54.5437 118.257 56.837 121.06 60.0334C123.864 63.2298 125.657 67.1858 126.213 71.4011C126.768 75.6165 126.061 79.9019 124.181 83.7155C122.301 87.5291 119.332 90.6995 115.65 92.8259C113.206 94.2378 110.507 95.1544 107.708 95.5231C104.91 95.8919 102.065 95.7057 99.3386 94.9752C96.6118 94.2447 94.0556 92.9842 91.8159 91.2657C89.5763 89.5471 87.6972 87.4042 86.2858 84.9593H86.2814Z" fill="#407BFF"/>
<path opacity="0.1" d="M128.495 60.5811C125.8 55.9088 121.78 52.1407 116.943 49.7537C112.107 47.3667 106.671 46.468 101.323 47.1713C95.9755 47.8746 90.9566 50.1483 86.9016 53.7047C82.8466 57.2612 79.9376 61.9405 78.5427 67.1507C77.1478 72.3609 77.3297 77.8677 79.0654 82.9745C80.8011 88.0812 84.0126 92.5584 88.2935 95.8395C92.5744 99.1205 97.7324 101.058 103.115 101.407C108.497 101.756 113.862 100.5 118.531 97.7992C124.784 94.1815 129.345 88.23 131.213 81.2518C133.082 74.2735 132.104 66.839 128.495 60.5811ZM86.2814 84.9593C84.1554 81.2772 83.1689 77.0474 83.4468 72.8047C83.7247 68.5619 85.2544 64.4969 87.8425 61.1235C90.4306 57.7502 93.9609 55.2201 97.987 53.853C102.013 52.486 106.354 52.3436 110.461 53.4437C114.568 54.5437 118.257 56.837 121.06 60.0334C123.864 63.2298 125.657 67.1858 126.213 71.4011C126.768 75.6165 126.061 79.9019 124.181 83.7155C122.301 87.5291 119.332 90.6995 115.65 92.8259C113.206 94.2378 110.507 95.1544 107.708 95.5231C104.91 95.8919 102.065 95.7057 99.3386 94.9752C96.6118 94.2447 94.0556 92.9842 91.8159 91.2657C89.5763 89.5471 87.6972 87.4042 86.2858 84.9593H86.2814Z" fill="black"/>
<path d="M42.2094 102.24L45.5777 103.023L42.7855 105.107C42.7855 105.107 40.7847 104.201 40.6924 102.781L42.2094 102.24Z" fill="#E4897B"/>
<path d="M47.3812 105.266L44.954 106.884L42.7861 105.107L45.5784 103.027L47.3812 105.266Z" fill="#E4897B"/>
<path d="M85.4815 88.5603C81.9021 91.1986 78.2305 93.7051 74.5412 96.1543C70.8519 98.6036 67.1143 100.991 63.3591 103.335C59.6038 105.679 55.8134 107.974 52.0099 110.203C50.1103 111.338 48.1931 112.437 46.2935 113.554C45.3498 114.155 44.3211 114.61 43.2418 114.904C42.666 115.057 42.0771 115.155 41.4829 115.199C40.8232 115.252 40.1593 115.218 39.5086 115.098C39.0435 115.006 38.6012 114.823 38.2068 114.56C37.8125 114.296 37.4739 113.958 37.2105 113.564C36.9471 113.17 36.7639 112.728 36.6716 112.263C36.5793 111.798 36.5795 111.319 36.6724 110.854C36.7025 110.705 36.7436 110.558 36.7955 110.414C37.0078 109.791 37.3036 109.199 37.6749 108.656C38.0062 108.167 38.3831 107.71 38.8006 107.292C39.5959 106.505 40.5044 105.841 41.4961 105.322C43.4177 104.228 45.3261 103.124 47.2609 102.038C51.1128 99.8612 55 97.7417 58.8959 95.6486C62.7918 93.5555 66.7361 91.5284 70.7024 89.5497C74.6687 87.5709 78.6658 85.645 82.7464 83.8685C83.3622 83.5962 84.0569 83.561 84.6971 83.7698C85.3372 83.9785 85.8777 84.4163 86.2147 84.9992C86.5517 85.5822 86.6614 86.269 86.5228 86.9279C86.3843 87.5868 86.0071 88.1713 85.4639 88.5691L85.4815 88.5603Z" fill="#407BFF"/>
<path opacity="0.1" d="M85.4815 88.5603C81.9021 91.1986 78.2305 93.7051 74.5412 96.1543C70.8519 98.6036 67.1143 100.991 63.3591 103.335C59.6038 105.679 55.8134 107.974 52.0099 110.203C50.1103 111.338 48.1931 112.437 46.2935 113.554C45.3498 114.155 44.3211 114.61 43.2418 114.904C42.666 115.057 42.0771 115.155 41.4829 115.199C40.8232 115.252 40.1593 115.218 39.5086 115.098C39.0435 115.006 38.6012 114.823 38.2068 114.56C37.8125 114.296 37.4739 113.958 37.2105 113.564C36.9471 113.17 36.7639 112.728 36.6716 112.263C36.5793 111.798 36.5795 111.319 36.6724 110.854C36.7025 110.705 36.7436 110.558 36.7955 110.414C37.0078 109.791 37.3036 109.199 37.6749 108.656C38.0062 108.167 38.3831 107.71 38.8006 107.292C39.5959 106.505 40.5044 105.841 41.4961 105.322C43.4177 104.228 45.3261 103.124 47.2609 102.038C51.1128 99.8612 55 97.7417 58.8959 95.6486C62.7918 93.5555 66.7361 91.5284 70.7024 89.5497C74.6687 87.5709 78.6658 85.645 82.7464 83.8685C83.3622 83.5962 84.0569 83.561 84.6971 83.7698C85.3372 83.9785 85.8777 84.4163 86.2147 84.9992C86.5517 85.5822 86.6614 86.269 86.5228 86.9279C86.3843 87.5868 86.0071 88.1713 85.4639 88.5691L85.4815 88.5603Z" fill="black"/>
<path d="M47.0886 81.4108C46.8688 81.767 46.6181 82.1979 46.3807 82.6025C46.1432 83.007 45.9102 83.4292 45.6903 83.8557C45.2506 84.6956 44.8109 85.5486 44.3712 86.4149C43.9314 87.2811 43.5753 88.1738 43.2147 89.0532C43.0388 89.4929 42.8541 89.9326 42.6914 90.3724L42.4452 91.0451C42.3968 91.1727 42.388 91.2254 42.3572 91.3178C42.3265 91.4101 42.3133 91.4981 42.2869 91.586C42.1152 92.455 42.0284 93.3386 42.0275 94.2243C42.0055 95.1697 42.0274 96.1327 42.0802 97.1045C42.133 98.0763 42.1858 99.0525 42.2737 100.029C42.3616 101.005 42.4496 101.999 42.5419 102.966L40.8446 103.313C40.5456 102.333 40.3125 101.357 40.0795 100.367C39.8464 99.3779 39.6705 98.3841 39.4991 97.3727C39.3276 96.3614 39.2132 95.3456 39.1385 94.2947C39.047 93.1941 39.075 92.0869 39.222 90.9924C39.2484 90.8385 39.2704 90.6934 39.31 90.5527C39.3495 90.4119 39.3891 90.2141 39.4243 90.1129L39.6398 89.3654C39.7805 88.8685 39.9432 88.376 40.1103 87.8879C40.4489 86.9074 40.8182 85.9444 41.2316 84.9946C41.6449 84.0448 42.0846 83.117 42.5507 82.2023C42.7926 81.7626 43.0476 81.2921 43.307 80.8392C43.5665 80.3863 43.8259 79.9598 44.1513 79.4805L47.0886 81.4108Z" fill="#E4897B"/>
<path d="M45.2108 172.205C44.9141 172.195 44.6193 172.154 44.3314 172.081C44.316 172.079 44.3018 172.072 44.2907 172.061C44.2797 172.05 44.2724 172.035 44.2698 172.02C44.267 172.004 44.2689 171.988 44.2751 171.973C44.2813 171.958 44.2917 171.945 44.305 171.936C44.4237 171.857 45.4615 171.189 45.8616 171.369C45.9061 171.39 45.9443 171.421 45.9721 171.462C46 171.502 46.0165 171.549 46.0199 171.598C46.0406 171.676 46.0392 171.759 46.0159 171.836C45.9926 171.914 45.9484 171.983 45.888 172.037C45.6899 172.173 45.4493 172.233 45.2108 172.205ZM44.5381 171.967C45.1361 172.086 45.5846 172.064 45.7561 171.906C45.7938 171.869 45.8213 171.824 45.836 171.774C45.8506 171.724 45.8519 171.671 45.8396 171.62C45.8391 171.597 45.8322 171.575 45.8197 171.557C45.8073 171.538 45.7898 171.523 45.7693 171.514C45.5626 171.422 44.9602 171.712 44.5381 171.967Z" fill="#407BFF"/>
<path d="M44.3283 172.086C44.3154 172.09 44.3016 172.09 44.2887 172.086C44.2761 172.079 44.2656 172.069 44.2586 172.056C44.2516 172.044 44.2483 172.03 44.2491 172.015C44.2491 171.976 44.2492 170.991 44.6229 170.661C44.6691 170.62 44.7235 170.588 44.7826 170.569C44.8417 170.55 44.9042 170.544 44.9659 170.551C45.0307 170.552 45.0933 170.575 45.1429 170.617C45.1926 170.659 45.2264 170.716 45.2385 170.78C45.3177 171.162 44.6933 171.901 44.3591 172.099C44.3479 172.097 44.3374 172.093 44.3283 172.086ZM44.9131 170.696C44.8465 170.697 44.7823 170.722 44.7328 170.767C44.5166 171.085 44.4059 171.463 44.4162 171.848C44.7416 171.584 45.1286 171.03 45.0802 170.797C45.0802 170.758 45.0494 170.714 44.9483 170.701L44.9131 170.696Z" fill="#407BFF"/>
<path d="M60.7864 172.205C60.4241 172.199 60.0633 172.158 59.7091 172.082C59.6923 172.08 59.6765 172.072 59.6646 172.06C59.6526 172.048 59.645 172.032 59.6431 172.016C59.6412 171.999 59.6443 171.982 59.6522 171.967C59.66 171.952 59.6722 171.94 59.6871 171.932C59.841 171.853 61.2042 171.158 61.6219 171.387C61.6621 171.407 61.6962 171.438 61.7208 171.476C61.7455 171.514 61.7599 171.557 61.7626 171.602C61.7722 171.675 61.7636 171.749 61.7374 171.817C61.7113 171.885 61.6686 171.946 61.6131 171.994C61.3699 172.157 61.078 172.231 60.7864 172.205ZM59.9773 171.967C60.738 172.095 61.2965 172.06 61.5076 171.875C61.5426 171.842 61.5693 171.802 61.5854 171.756C61.6014 171.711 61.6064 171.663 61.5999 171.615C61.5997 171.597 61.5948 171.58 61.5855 171.564C61.5762 171.549 61.563 171.536 61.5471 171.527C61.3185 171.404 60.5358 171.699 59.9773 171.967Z" fill="#407BFF"/>
<path d="M59.7227 172.086C59.7158 172.089 59.7083 172.09 59.7007 172.09C59.6932 172.09 59.6857 172.089 59.6788 172.086C59.6661 172.079 59.6559 172.069 59.6495 172.056C59.6432 172.044 59.6411 172.029 59.6436 172.015C59.6436 171.976 59.7271 171.052 60.1537 170.696C60.2762 170.594 60.434 170.543 60.5934 170.556C60.8176 170.578 60.8792 170.692 60.8968 170.784C60.9584 171.171 60.1537 171.91 59.7447 172.103L59.7227 172.086ZM60.5406 170.696C60.4373 170.697 60.3377 170.735 60.2592 170.802C60.007 171.1 59.8534 171.468 59.8195 171.857C60.2328 171.606 60.7825 171.026 60.7429 170.793C60.7429 170.793 60.7429 170.714 60.5846 170.701L60.5406 170.696Z" fill="#407BFF"/>
<path d="M52.2953 68.2056C52.5635 70.2591 53.1747 74.4232 51.6885 75.6808C51.6885 75.6808 52.1282 77.7739 55.8746 78.0158C60.0168 78.284 57.9853 76.0898 57.9853 76.0898C55.7603 75.4038 55.9274 73.7285 56.4243 72.1806L52.2953 68.2056Z" fill="#E4897B"/>
<path d="M59.978 64.0329C59.9516 64.0323 59.9258 64.0247 59.9033 64.0109C59.8841 64.0012 59.8671 63.9877 59.8533 63.9713C59.8395 63.9548 59.8292 63.9357 59.8231 63.9152C59.8169 63.8946 59.815 63.873 59.8174 63.8517C59.8199 63.8303 59.8266 63.8097 59.8373 63.7911C59.9515 63.5585 60.1204 63.357 60.3294 63.2038C60.5385 63.0507 60.7815 62.9504 61.0377 62.9116C61.0771 62.9131 61.1146 62.9289 61.1432 62.9559C61.1718 62.983 61.1897 63.0195 61.1934 63.0587C61.1972 63.0979 61.1866 63.1371 61.1636 63.1691C61.1407 63.2011 61.1069 63.2236 61.0685 63.2326C60.868 63.2676 60.6783 63.3486 60.5143 63.4691C60.3503 63.5896 60.2164 63.7465 60.1231 63.9274C60.1106 63.9564 60.0906 63.9815 60.065 64C60.0395 64.0186 60.0094 64.03 59.978 64.0329Z" fill="#263238"/>
<path d="M61.1611 65.8354C61.4641 66.4394 61.8488 66.9987 62.3044 67.4976C62.1738 67.6112 62.0199 67.6948 61.8536 67.7427C61.6872 67.7905 61.5124 67.8014 61.3414 67.7746L61.1611 65.8354Z" fill="#DE5753"/>
<path d="M60.8717 65.3876C60.8981 65.6646 61.0652 65.8713 61.2411 65.8537C61.417 65.8361 61.5489 65.6031 61.5225 65.326C61.4961 65.049 61.329 64.8423 61.1487 64.8599C60.9685 64.8775 60.8453 65.115 60.8717 65.3876Z" fill="#263238"/>
<path d="M61.0908 64.8815L61.7328 64.6309C61.7328 64.6309 61.425 65.1761 61.0908 64.8815Z" fill="#263238"/>
<path d="M55.96 172.002H59.3854L59.614 164.078H56.1886L55.96 172.002Z" fill="#E4897B"/>
<path d="M40.4053 172.002H43.8307L44.93 164.078H41.509L40.4053 172.002Z" fill="#E4897B"/>
<path d="M44.0419 171.607H40.1943C40.1284 171.606 40.0644 171.629 40.0143 171.672C39.9642 171.715 39.9313 171.775 39.9217 171.84L39.482 174.883C39.4733 174.96 39.481 175.037 39.5044 175.111C39.5278 175.185 39.5665 175.253 39.618 175.31C39.6695 175.368 39.7325 175.414 39.803 175.446C39.8735 175.478 39.9499 175.494 40.0272 175.494C41.3464 175.472 42.0148 175.393 43.7077 175.393C44.7454 175.393 46.2669 175.498 47.7048 175.498C49.1427 175.498 49.2174 174.078 48.6194 173.951C45.9371 173.375 45.515 172.579 44.6091 171.818C44.451 171.683 44.25 171.608 44.0419 171.607Z" fill="#263238"/>
<path d="M59.4979 171.607H55.6548C55.5886 171.605 55.5241 171.628 55.4738 171.671C55.4234 171.714 55.3908 171.774 55.3821 171.84L54.9424 174.883C54.9344 174.96 54.9427 175.038 54.9666 175.112C54.9906 175.185 55.0297 175.253 55.0815 175.311C55.1333 175.368 55.1966 175.414 55.2673 175.446C55.338 175.478 55.4146 175.494 55.4921 175.494C56.8112 175.472 57.4796 175.393 59.1681 175.393C60.2103 175.393 62.3605 175.499 63.7984 175.499C65.2363 175.499 65.3111 174.078 64.713 173.951C62.0307 173.375 60.9754 172.579 60.0696 171.818C59.9103 171.682 59.7075 171.607 59.4979 171.607Z" fill="#263238"/>
<path d="M59.6071 164.078L59.4928 168.163H56.0674L56.1861 164.078H59.6071Z" fill="#CE6F64"/>
<path d="M41.5057 164.078H44.9312L44.3639 168.163H40.9385L41.5057 164.078Z" fill="#CE6F64"/>
<path d="M48.5502 81.9384C47.9001 82.954 47.1471 83.9 46.3032 84.7614L45.9118 84.5019L41.5762 81.6218C41.5762 81.6218 43.9419 76.3451 45.7227 76.0769C47.4245 75.8042 48.6645 77.5631 49.2405 79.4451C49.4604 80.1267 49.0954 81.0501 48.5502 81.9384Z" fill="#407BFF"/>
<path opacity="0.6" d="M48.5502 81.9384C47.9001 82.954 47.1471 83.9 46.3032 84.7614L45.9118 84.5019L41.5762 81.6218C41.5762 81.6218 43.9419 76.3451 45.7227 76.0769C47.4245 75.8042 48.6645 77.5631 49.2405 79.4451C49.4604 80.1267 49.0954 81.0501 48.5502 81.9384Z" fill="#FAFAFA"/>
<path d="M48.5485 81.9387C47.8984 82.9543 47.1454 83.9003 46.3015 84.7617L45.9102 84.5022C46.1036 82.9192 46.7192 81.3494 47.4228 80.8525C47.8537 80.8965 48.2363 81.3538 48.5485 81.9387Z" fill="#407BFF"/>
<path opacity="0.4" d="M48.5485 81.9387C47.8984 82.9543 47.1454 83.9003 46.3015 84.7617L45.9102 84.5022C46.1036 82.9192 46.7192 81.3494 47.4228 80.8525C47.8537 80.8965 48.2363 81.3538 48.5485 81.9387Z" fill="#FAFAFA"/>
<path d="M63.3809 84.5719C63.1742 85.8911 62.906 87.4433 62.5454 89.2858C62.1057 91.6427 61.4901 94.4701 60.7118 97.8515L46.8386 96.9721C47.4366 91.3393 47.6696 87.8567 45.7217 76.0941C47.6912 75.819 49.6782 75.6882 51.6667 75.7028C53.7727 75.6889 55.877 75.8256 57.9635 76.1117C60.6546 76.5514 63.6799 77.3605 63.6799 77.3605C63.6799 77.3605 64.4538 77.6639 63.3809 84.5719Z" fill="#407BFF"/>
<path opacity="0.6" d="M63.3809 84.5719C63.1742 85.8911 62.906 87.4433 62.5454 89.2858C62.1057 91.6427 61.4901 94.4701 60.7118 97.8515L46.8386 96.9721C47.4366 91.3393 47.6696 87.8567 45.7217 76.0941C47.6912 75.819 49.6782 75.6882 51.6667 75.7028C53.7727 75.6889 55.877 75.8256 57.9635 76.1117C60.6546 76.5514 63.6799 77.3605 63.6799 77.3605C63.6799 77.3605 64.4538 77.6639 63.3809 84.5719Z" fill="#FAFAFA"/>
<path d="M63.382 84.572C63.1754 85.8911 62.9071 87.4433 62.5466 89.2858C61.7835 87.6629 61.1498 85.9824 60.6514 84.2598H63.2281L63.382 84.572Z" fill="#407BFF"/>
<path opacity="0.4" d="M63.382 84.572C63.1754 85.8911 62.9071 87.4433 62.5466 89.2858C61.7835 87.6629 61.1498 85.9824 60.6514 84.2598H63.2281L63.382 84.572Z" fill="#FAFAFA"/>
<path d="M51.539 65.3167C52.0623 68.6718 52.2162 70.1053 54.085 71.6751C56.8948 74.0408 60.9007 72.6601 61.3888 69.2126C61.8285 66.1126 60.8963 61.1437 57.4621 60.1148C56.7067 59.883 55.9045 59.8484 55.132 60.0143C54.3594 60.1802 53.6422 60.541 53.0485 61.0624C52.4548 61.5838 52.0044 62.2485 51.7402 62.9931C51.4759 63.7378 51.4067 64.5377 51.539 65.3167Z" fill="#E4897B"/>
<path d="M57.0453 97.6147C57.0453 97.6147 56.8254 103.722 56.2977 111.426C55.858 117.89 55.194 125.471 54.2662 131.513L54.2398 131.68C52.5733 142.374 45.1904 167.368 45.1904 167.368H40.5205C40.5205 167.368 44.3681 143.227 45.2123 132.63C47.3538 105.864 41.9892 102.834 46.8393 96.9331L57.0453 97.6147Z" fill="#407BFF"/>
<path opacity="0.3" d="M57.0453 97.6147C57.0453 97.6147 56.8254 103.722 56.2977 111.426C55.858 117.89 55.194 125.471 54.2662 131.513L54.2398 131.68C52.5733 142.374 45.1904 167.368 45.1904 167.368H40.5205C40.5205 167.368 44.3681 143.227 45.2123 132.63C47.3538 105.864 41.9892 102.834 46.8393 96.9331L57.0453 97.6147Z" fill="black"/>
<path d="M56.2962 111.426C55.8564 117.89 55.1925 125.471 54.2646 131.512C52.686 123.663 50.0917 112.2 53.5743 104.689C54.4054 106.822 55.3727 109.232 56.2962 111.426Z" fill="#407BFF"/>
<path opacity="0.4" d="M56.2962 111.426C55.8564 117.89 55.1925 125.471 54.2646 131.512C52.686 123.663 50.0917 112.2 53.5743 104.689C54.4054 106.822 55.3727 109.232 56.2962 111.426Z" fill="black"/>
<path d="M60.7118 97.8564C60.7118 97.8564 64.6693 121.311 64.4318 131.75C64.1988 142.611 60.2193 167.368 60.2193 167.368H55.5934C55.5934 167.368 56.3233 143.24 55.9144 132.577C55.4747 120.951 50.5498 97.1924 50.5498 97.1924L60.7118 97.8564Z" fill="#407BFF"/>
<path opacity="0.3" d="M60.7118 97.8564C60.7118 97.8564 64.6693 121.311 64.4318 131.75C64.1988 142.611 60.2193 167.368 60.2193 167.368H55.5934C55.5934 167.368 56.3233 143.24 55.9144 132.577C55.4747 120.951 50.5498 97.1924 50.5498 97.1924L60.7118 97.8564Z" fill="black"/>
<path d="M54.8029 167.587H61.0073L61.491 165.507L54.583 165.556L54.8029 167.587Z" fill="#263238"/>
<path d="M39.8428 167.587H46.0472L46.5309 165.507L39.8867 165.556L39.8428 167.587Z" fill="#263238"/>
<path d="M46.6808 96.1327L45.9772 97.3375C45.9201 97.4298 46.03 97.5354 46.1883 97.5442L60.7387 98.4896C60.8618 98.4896 60.9717 98.4456 60.9849 98.3664L61.1916 97.1308C61.1916 97.0473 61.0993 96.9681 60.963 96.9593L46.8919 96.0447C46.8524 96.0429 46.813 96.0499 46.7765 96.0651C46.74 96.0803 46.7073 96.1033 46.6808 96.1327Z" fill="#263238"/>
<path d="M48.4646 97.8213L48.0908 97.7949C48.0161 97.7949 47.9589 97.7465 47.9677 97.7026L48.2491 96.0976C48.2491 96.0536 48.3239 96.0184 48.3986 96.0228L48.7768 96.0448C48.8515 96.0448 48.9043 96.0932 48.8999 96.1416L48.6185 97.7421C48.6097 97.7905 48.5393 97.8257 48.4646 97.8213Z" fill="#407BFF"/>
<path opacity="0.3" d="M48.4646 97.8213L48.0908 97.7949C48.0161 97.7949 47.9589 97.7465 47.9677 97.7026L48.2491 96.0976C48.2491 96.0536 48.3239 96.0184 48.3986 96.0228L48.7768 96.0448C48.8515 96.0448 48.9043 96.0932 48.8999 96.1416L48.6185 97.7421C48.6097 97.7905 48.5393 97.8257 48.4646 97.8213Z" fill="black"/>
<path d="M57.572 98.4102L57.1982 98.3882C57.1235 98.3882 57.0663 98.3398 57.0751 98.2915L57.3565 96.6909C57.3565 96.6425 57.4313 96.6117 57.5104 96.6161L57.8842 96.6381C57.959 96.6381 58.0161 96.6865 58.0073 96.7349L57.7259 98.3354C57.7303 98.3838 57.6599 98.4146 57.572 98.4102Z" fill="#407BFF"/>
<path opacity="0.3" d="M57.572 98.4102L57.1982 98.3882C57.1235 98.3882 57.0663 98.3398 57.0751 98.2915L57.3565 96.6909C57.3565 96.6425 57.4313 96.6117 57.5104 96.6161L57.8842 96.6381C57.959 96.6381 58.0161 96.6865 58.0073 96.7349L57.7259 98.3354C57.7303 98.3838 57.6599 98.4146 57.572 98.4102Z" fill="black"/>
<path d="M64.4669 80.8784C64.9946 82.6373 65.4959 84.4182 65.984 86.1947L67.457 91.5109L67.6417 92.1705L67.6901 92.3332L67.7121 92.4167V92.4607C67.7278 92.5189 67.7469 92.5762 67.7692 92.6322C67.8772 92.8995 68.0255 93.1486 68.2089 93.3709C68.734 93.925 69.3422 94.3938 70.0118 94.7604C71.5458 95.5906 73.1683 96.2455 74.8487 96.7128L74.5937 98.4277C72.6219 98.3261 70.6796 97.9059 68.8421 97.1833C67.8254 96.7849 66.8886 96.207 66.0763 95.4772C65.611 95.0459 65.2242 94.537 64.933 93.9733C64.8544 93.821 64.7854 93.6638 64.7264 93.5028L64.678 93.3841L64.6472 93.3006L64.59 93.1379L64.357 92.4739C63.7414 90.715 63.1697 88.9561 62.6289 87.1708C62.088 85.3856 61.556 83.6267 61.0723 81.8326L64.4669 80.8784Z" fill="#E4897B"/>
<path d="M63.6806 77.3434C65.4395 77.9194 67.2863 83.671 67.2863 83.671L60.9367 86.406C60.9367 86.406 58.2984 79.9509 59.468 78.491C60.6377 77.0312 61.6622 76.6838 63.6806 77.3434Z" fill="#407BFF"/>
<path opacity="0.6" d="M63.6806 77.3434C65.4395 77.9194 67.2863 83.671 67.2863 83.671L60.9367 86.406C60.9367 86.406 58.2984 79.9509 59.468 78.491C60.6377 77.0312 61.6622 76.6838 63.6806 77.3434Z" fill="#FAFAFA"/>
<path d="M60.2865 59.9212C59.1652 58.5361 50.5027 57.5468 50.041 61.3196C46.963 63.4742 49.8827 69.0411 50.3224 70.457C48.1986 71.0462 41.3565 73.3855 46.3649 77.9323C51.3734 82.479 58.8838 81.7051 60.3525 77C61.3814 73.7109 58.1143 68.2056 58.1847 66.2796C58.255 64.3536 62.2081 62.2738 60.2865 59.9212Z" fill="#263238"/>
<path d="M50.927 71.1524C50.9109 71.1529 50.8949 71.1496 50.8804 71.1427C50.8659 71.1358 50.8532 71.1256 50.8434 71.1128C50.0475 70.1454 47.2773 65.0622 48.2491 62.6438C48.3998 62.2685 48.6553 61.9446 48.9851 61.7107C49.3149 61.4768 49.7051 61.3427 50.1091 61.3246C50.1233 61.3228 50.1377 61.3238 50.1515 61.3278C50.1653 61.3317 50.1781 61.3384 50.1892 61.3474C50.2003 61.3565 50.2095 61.3677 50.2161 61.3804C50.2228 61.3931 50.2267 61.407 50.2278 61.4213C50.2316 61.4499 50.224 61.4787 50.2068 61.5018C50.1895 61.5248 50.1639 61.5401 50.1355 61.5445C49.7723 61.5579 49.4205 61.6752 49.122 61.8825C48.8235 62.0899 48.5907 62.3785 48.4513 62.7141C47.5147 65.0534 50.2322 70.0179 51.0105 70.9677C51.0244 70.9832 51.0334 71.0024 51.0364 71.023C51.0394 71.0436 51.0362 71.0647 51.0273 71.0835C51.0184 71.1023 51.0041 71.118 50.9862 71.1287C50.9684 71.1394 50.9478 71.1446 50.927 71.1436V71.1524Z" fill="#263238"/>
<path d="M57.4974 66.0732C57.5955 66.7153 57.905 67.3064 58.3768 67.7529C59.0012 68.3509 59.5904 67.942 59.6476 67.1813C59.7004 66.4997 59.4365 65.3696 58.6978 65.053C57.9591 64.7364 57.405 65.3124 57.4974 66.0732Z" fill="#E4897B"/>
<path d="M72.6942 96.2383L75.1918 95.3896L74.8005 98.3929C74.8005 98.3929 73.8155 98.8327 72.5403 97.7246L71.3223 96.9463L72.2809 96.423C72.4123 96.3481 72.5507 96.2863 72.6942 96.2383Z" fill="#E4897B"/>
<path d="M76.9378 95.3809L76.1727 98.006L74.8008 98.3886L75.1921 95.3897L76.9378 95.3809Z" fill="#E4897B"/>
</g>
<defs>
<clipPath id="clip0">
<rect width="196" height="196" fill="white"/>
</clipPath>
</defs>
</svg>
