<svg width="80" height="56" viewBox="0 0 80 56" fill="none" xmlns="http://www.w3.org/2000/svg">
<g clip-path="url(#clip0)">
<path d="M57.0023 9C53.0022 9 49.7324 12.2698 49.7324 16.2699C49.7324 20.2699 53.0022 23.5397 57.0023 23.5397C61.0023 23.5397 64.2721 20.2699 64.2721 16.2699C64.2721 12.2698 61.0023 9 57.0023 9Z" fill="#AAAAAA"/>
<path d="M69.4776 29.3495C69.2871 28.8733 69.0332 28.4289 68.7475 28.0162C67.2871 25.8574 65.0332 24.4289 62.4935 24.0797C62.1761 24.0479 61.8269 24.1114 61.5729 24.3019C60.2395 25.286 58.6523 25.7939 57.0014 25.7939C55.3506 25.7939 53.7633 25.286 52.43 24.3019C52.176 24.1114 51.8268 24.0162 51.5094 24.0797C48.9697 24.4289 46.684 25.8574 45.2554 28.0162C44.9697 28.4289 44.7157 28.9051 44.5253 29.3495C44.4301 29.54 44.4618 29.7622 44.557 29.9527C44.811 30.3972 45.1284 30.8416 45.4141 31.2226C45.8586 31.8258 46.3348 32.3654 46.8745 32.8733C47.3189 33.3178 47.8268 33.7305 48.3348 34.1432C50.8427 36.0162 53.8586 37.0003 56.9697 37.0003C60.0808 37.0003 63.0967 36.0162 65.6046 34.1432C66.1126 33.7623 66.6205 33.3178 67.065 32.8733C67.5729 32.3654 68.0808 31.8257 68.5253 31.2226C68.8427 30.8099 69.1285 30.3972 69.3824 29.9527C69.5411 29.7622 69.5728 29.54 69.4776 29.3495Z" fill="#AAAAAA"/>
</g>
<path opacity="0.3" d="M76.5317 23.2544C76.3027 28.046 74.263 32.5831 70.809 35.984C67.3551 39.3849 62.7334 41.4068 57.8423 41.6567C52.9511 41.9067 48.1398 40.3668 44.3431 37.3364C40.5465 34.3059 38.0359 30.0014 37.299 25.2591C36.5621 20.5169 37.6516 15.6758 40.3559 11.6764C43.0601 7.67705 47.186 4.80513 51.9316 3.61873C56.6772 2.43234 61.7038 3.01619 66.0344 5.25686C70.365 7.49752 73.6905 11.2349 75.3645 15.7429C76.2577 18.1463 76.6544 20.6996 76.5317 23.2544Z" fill="white"/>
<path opacity="0.4" d="M68.3421 6.36002L39.8946 31.7688C39.7522 31.5116 39.6123 31.2519 39.4748 30.9899C38.605 29.2845 38.0006 27.4612 37.6816 25.5807L62.252 3.63379C64.4262 4.19495 66.4861 5.11705 68.3421 6.36002Z" fill="white"/>
<path opacity="0.4" d="M75.953 16.2081L49.2249 40.0951C46.4524 38.8971 43.9983 37.0907 42.0522 34.8157L71.2583 8.729C73.3867 10.8376 74.9928 13.3962 75.953 16.2081Z" fill="white"/>
<path d="M76.9468 11.1882C74.6904 7.3565 71.3242 4.26634 67.2742 2.30875C63.2241 0.351162 58.6722 -0.385869 54.1943 0.190906C49.7164 0.767681 45.5138 2.63235 42.1183 5.54896C38.7228 8.46558 36.2869 12.3031 35.1189 16.5759C33.9509 20.8487 34.1032 25.3649 35.5566 29.5529C37.01 33.7409 39.6992 37.4126 43.2839 40.1034C46.8685 42.7941 51.1876 44.3831 55.6946 44.6692C60.2016 44.9553 64.6939 43.9256 68.6032 41.7105C73.8392 38.7437 77.6588 33.8629 79.2232 28.1401C80.7876 22.4173 79.9688 16.3203 76.9468 11.1882ZM41.599 31.1806C39.8188 28.161 38.9927 24.6921 39.2254 21.2127C39.4581 17.7332 40.739 14.3995 42.9062 11.6331C45.0734 8.86661 48.0295 6.79166 51.4008 5.67059C54.7721 4.54952 58.4071 4.43268 61.8461 5.33486C65.2852 6.23703 68.3739 8.11769 70.7216 10.739C73.0694 13.3604 74.5707 16.6047 75.0358 20.0617C75.5009 23.5187 74.9089 27.0331 73.3346 30.1606C71.7604 33.2881 69.2745 35.8881 66.1915 37.632C64.1445 38.7899 61.8847 39.5415 59.5411 39.8439C57.1975 40.1464 54.816 39.9937 52.5326 39.3946C50.2493 38.7955 48.1088 37.7618 46.2334 36.3524C44.358 34.943 42.7845 33.1856 41.6027 31.1806H41.599Z" fill="#3A6FE5"/>
<path d="M40.9293 34.1337C37.9321 36.2974 34.8576 38.3529 31.7683 40.3615C28.6791 42.3701 25.5493 44.3283 22.4049 46.2503C19.2604 48.1724 16.0865 50.0548 12.9015 51.8831C11.3108 52.8135 9.70546 53.715 8.11481 54.631C7.32465 55.1236 6.46319 55.4968 5.55946 55.738C5.07727 55.8633 4.58419 55.9442 4.08664 55.9796C3.53424 56.0238 2.97829 55.9959 2.43339 55.8967C2.04398 55.8213 1.67357 55.6714 1.34338 55.4556C1.01318 55.2398 0.729682 54.9623 0.509093 54.6391C0.288504 54.3159 0.135157 53.9532 0.0578334 53.5719C-0.0194905 53.1906 -0.0192746 52.798 0.0584654 52.4168C0.0836674 52.2943 0.118128 52.1737 0.161563 52.0562C0.339308 51.545 0.587037 51.0597 0.897974 50.6137C1.17534 50.2127 1.49096 49.8384 1.84058 49.4958C2.50649 48.8501 3.26727 48.3056 4.09768 47.8803C5.70674 46.9824 7.30475 46.0772 8.92486 45.1865C12.1503 43.4015 15.4053 41.6633 18.6676 39.9468C21.9299 38.2303 25.2327 36.5679 28.5539 34.9451C31.8751 33.3224 35.2221 31.7429 38.6391 30.286C39.1547 30.0627 39.7364 30.0339 40.2725 30.205C40.8085 30.3762 41.2611 30.7353 41.5433 31.2133C41.8254 31.6914 41.9173 32.2547 41.8013 32.795C41.6853 33.3354 41.3695 33.8147 40.9146 34.1409L40.9293 34.1337Z" fill="#3A6FE5"/>
<defs>
<clipPath id="clip0">
<rect width="28" height="28" fill="white" transform="translate(43 9)"/>
</clipPath>
</defs>
</svg>
