<svg width="206" height="194" viewBox="0 0 206 194" fill="none" xmlns="http://www.w3.org/2000/svg">
<g clip-path="url(#clip0)">
<path d="M205.738 155.291H-0.00878906V155.4H205.738V155.291Z" fill="#EBEBEB"/>
<path d="M185.122 162.314H171.493V162.423H185.122V162.314Z" fill="#EBEBEB"/>
<path d="M136.286 163.501H132.71V163.61H136.286V163.501Z" fill="#EBEBEB"/>
<path d="M171.082 158.263H163.186V158.372H171.082V158.263Z" fill="#EBEBEB"/>
<path d="M39.3505 158.997H21.5781V159.106H39.3505V158.997Z" fill="#EBEBEB"/>
<path d="M45.6214 158.997H43.0166V159.106H45.6214V158.997Z" fill="#EBEBEB"/>
<path d="M92.6395 160.838H54.0908V160.947H92.6395V160.838Z" fill="#EBEBEB"/>
<path d="M97.5155 135.823H18.0604C17.4379 135.822 16.8413 135.559 16.4016 135.092C15.9618 134.624 15.7148 133.991 15.7148 133.331V14.8538C15.7203 14.1974 15.9696 13.5697 16.4088 13.1071C16.848 12.6445 17.4415 12.3844 18.0604 12.3833H97.5155C98.1387 12.3833 98.7363 12.6459 99.1769 13.1133C99.6176 13.5807 99.8651 14.2147 99.8651 14.8757V133.331C99.8651 133.992 99.6176 134.626 99.1769 135.093C98.7363 135.561 98.1387 135.823 97.5155 135.823ZM18.0604 12.4706C17.4652 12.4718 16.8948 12.7234 16.4743 13.1702C16.0539 13.617 15.8177 14.2225 15.8177 14.8538V133.331C15.8177 133.962 16.0539 134.568 16.4743 135.015C16.8948 135.461 17.4652 135.713 18.0604 135.714H97.5155C98.111 135.713 98.6819 135.462 99.103 135.015C99.5241 134.568 99.7612 133.963 99.7622 133.331V14.8538C99.7612 14.2221 99.5241 13.6166 99.103 13.1699C98.6819 12.7232 98.111 12.4718 97.5155 12.4706H18.0604Z" fill="#EBEBEB"/>
<path d="M186.525 135.823H107.065C106.443 135.822 105.846 135.559 105.405 135.092C104.965 134.625 104.717 133.992 104.716 133.331V14.8538C104.722 14.197 104.973 13.5693 105.412 13.1068C105.852 12.6444 106.446 12.3844 107.065 12.3833H186.525C187.143 12.3856 187.735 12.6462 188.174 13.1086C188.612 13.5711 188.861 14.1981 188.866 14.8538V133.331C188.866 133.99 188.62 134.623 188.181 135.09C187.742 135.557 187.146 135.821 186.525 135.823ZM107.065 12.4706C106.47 12.4718 105.899 12.7232 105.478 13.1699C105.057 13.6166 104.82 14.2221 104.819 14.8538V133.331C104.82 133.963 105.057 134.568 105.478 135.015C105.899 135.462 106.47 135.713 107.065 135.714H186.525C187.12 135.713 187.691 135.462 188.112 135.015C188.533 134.568 188.77 133.963 188.771 133.331V14.8538C188.77 14.2221 188.533 13.6166 188.112 13.1699C187.691 12.7232 187.12 12.4718 186.525 12.4706H107.065Z" fill="#EBEBEB"/>
<path d="M99.4662 148.953C99.4662 148.953 98.314 144.867 100.639 144.055C102.964 143.244 104.342 141.332 104.268 139.171C104.194 137.01 106.638 134.907 108.474 136.932C110.309 138.957 110.066 135.374 112.515 134.505C114.963 133.636 117.041 135.745 116.366 137.674C115.691 139.603 118.111 140.812 121.004 139.171C123.896 137.53 127.081 140.515 126.468 142.851C125.855 145.186 126.357 145.47 128.188 144.671C130.019 143.872 133.291 146.098 132.147 148.953C131.003 151.807 99.4662 148.953 99.4662 148.953Z" fill="#E0E0E0"/>
<path d="M153.096 148.368C153.096 148.368 152.203 145.195 154.006 144.566C155.808 143.938 156.886 142.449 156.824 140.773C156.763 139.097 158.664 137.465 160.087 139.027C161.511 140.59 161.322 137.818 163.223 137.142C165.124 136.465 166.737 138.106 166.215 139.604C165.692 141.101 167.573 142.039 169.815 140.765C172.058 139.49 174.531 141.808 174.058 143.624C173.584 145.439 173.971 145.64 175.391 145.034C176.811 144.427 179.354 146.142 178.465 148.36C177.576 150.577 153.096 148.368 153.096 148.368Z" fill="#E0E0E0"/>
<path d="M34.3548 148.743C32.2973 146.561 34.149 142.851 36.2065 142.414C38.264 141.978 40.3214 138.137 40.4284 135.692C40.5354 133.248 44.2306 125.727 49.9915 130.372C55.7524 135.016 54.0036 131.057 58.1679 129.752C62.3322 128.447 64.9657 132.2 63.1346 135.038C63.1346 135.038 67.3236 133.925 69.0477 138.071C70.7719 142.218 69.0477 144.793 69.0477 144.793C69.0477 144.793 76.9196 144.549 76.2118 149.713C75.5041 154.876 34.3548 148.743 34.3548 148.743Z" fill="#E0E0E0"/>
<path d="M181.599 148.874V154.854H22.7632V148.874C22.751 148.636 22.7843 148.397 22.8611 148.172C22.938 147.947 23.0567 147.74 23.2104 147.565C23.364 147.39 23.5493 147.249 23.7553 147.152C23.9613 147.054 24.1837 147.002 24.4092 146.998H179.937C180.164 147 180.388 147.05 180.596 147.147C180.804 147.243 180.991 147.384 181.147 147.559C181.302 147.734 181.422 147.941 181.5 148.168C181.578 148.394 181.612 148.634 181.599 148.874Z" fill="#EBEBEB"/>
<path d="M41.6912 146.998H31.8154V154.854H41.6912V146.998Z" fill="#F5F5F5"/>
<path d="M60.2085 146.998H50.7441V154.854H60.2085V146.998Z" fill="#F5F5F5"/>
<path d="M79.1376 146.998H69.2617V154.854H79.1376V146.998Z" fill="#F5F5F5"/>
<path d="M97.6548 146.998H88.1904V154.854H97.6548V146.998Z" fill="#F5F5F5"/>
<path d="M116.171 146.998H106.707V154.854H116.171V146.998Z" fill="#F5F5F5"/>
<path d="M135.1 146.998H125.225V154.854H135.1V146.998Z" fill="#F5F5F5"/>
<path d="M153.618 146.998H144.153V154.854H153.618V146.998Z" fill="#F5F5F5"/>
<path d="M172.547 146.998H162.671V154.854H172.547V146.998Z" fill="#F5F5F5"/>
<path d="M83.4454 29.7338C83.4449 29.4052 83.372 29.0812 83.2327 28.7878C83.0934 28.4943 82.8915 28.2393 82.643 28.0431C82.3945 27.8469 82.1063 27.7148 81.8013 27.6575C81.4963 27.6002 81.1829 27.6191 80.886 27.7128C80.9748 27.0784 80.9335 26.4311 80.7649 25.8152C80.5963 25.1993 80.3043 24.6293 79.909 24.144C79.5136 23.6588 79.0242 23.2697 78.4741 23.0035C77.924 22.7373 77.3263 22.6002 76.7217 22.6015C76.4608 22.6018 76.2006 22.6266 75.9439 22.6757C75.5294 21.9517 74.904 21.3905 74.1622 21.0768C73.4205 20.7631 72.6026 20.7139 71.8322 20.9367C71.0618 21.1595 70.3806 21.6422 69.8916 22.3118C69.4026 22.9814 69.1322 23.8016 69.1214 24.6486H69.0597C68.1604 24.6486 67.2979 25.0276 66.6621 25.7021C66.0262 26.3766 65.6689 27.2914 65.6689 28.2453C65.6689 29.1992 66.0262 30.1141 66.6621 30.7886C67.2979 31.4631 68.1604 31.842 69.0597 31.842H81.5073C82.0262 31.8295 82.5197 31.6017 82.8821 31.2075C83.2444 30.8134 83.4467 30.2843 83.4454 29.7338Z" fill="#F5F5F5"/>
<path d="M147.783 42.1649C147.783 41.6058 147.574 41.0695 147.201 40.6741C146.828 40.2788 146.323 40.0567 145.796 40.0567C145.602 40.0566 145.409 40.086 145.224 40.1439C145.312 39.5096 145.271 38.8623 145.103 38.2464C144.934 37.6305 144.642 37.0604 144.247 36.5752C143.851 36.0899 143.362 35.7009 142.812 35.4347C142.262 35.1685 141.664 35.0313 141.059 35.0326C140.8 35.0329 140.541 35.0577 140.286 35.1068C139.871 34.3829 139.246 33.8217 138.504 33.508C137.762 33.1942 136.944 33.1451 136.174 33.3679C135.404 33.5907 134.722 34.0733 134.233 34.7429C133.744 35.4126 133.474 36.2328 133.463 37.0798H133.401C132.956 37.0798 132.515 37.1728 132.104 37.3536C131.693 37.5343 131.319 37.7992 131.004 38.1332C130.689 38.4672 130.439 38.8637 130.269 39.3001C130.098 39.7364 130.011 40.2041 130.011 40.6765C130.011 41.1488 130.098 41.6165 130.269 42.0529C130.439 42.4892 130.689 42.8857 131.004 43.2197C131.319 43.5537 131.693 43.8186 132.104 43.9994C132.515 44.1801 132.956 44.2732 133.401 44.2732H145.853C146.371 44.2584 146.862 44.0296 147.223 43.6357C147.583 43.2418 147.784 42.714 147.783 42.1649Z" fill="#F5F5F5"/>
<path d="M108.387 36.05C108.388 35.8453 108.343 35.6432 108.257 35.4601C108.171 35.277 108.045 35.1179 107.89 34.9956C107.735 34.8734 107.555 34.7914 107.365 34.7562C107.175 34.721 106.98 34.7335 106.795 34.7929C106.813 34.6599 106.823 34.5257 106.824 34.3914C106.824 33.6551 106.548 32.949 106.057 32.4284C105.566 31.9078 104.901 31.6153 104.207 31.6153C104.045 31.6157 103.884 31.6318 103.725 31.6633C103.467 31.2128 103.077 30.8638 102.615 30.6691C102.153 30.4744 101.644 30.4446 101.165 30.5841C100.686 30.7237 100.262 31.0251 99.9586 31.4427C99.6551 31.8602 99.488 32.3713 99.4827 32.8986H99.4457C98.8869 32.8986 98.3511 33.134 97.9559 33.5531C97.5608 33.9722 97.3389 34.5407 97.3389 35.1334C97.3389 35.7261 97.5608 36.2946 97.9559 36.7137C98.3511 37.1328 98.8869 37.3682 99.4457 37.3682H107.186C107.509 37.3591 107.816 37.2159 108.04 36.9694C108.265 36.723 108.39 36.3929 108.387 36.05Z" fill="#F5F5F5"/>
<path d="M163.955 27.5165C163.955 27.3122 163.91 27.1107 163.824 26.928C163.738 26.7453 163.613 26.5866 163.458 26.4644C163.304 26.3422 163.125 26.2601 162.935 26.2245C162.746 26.1889 162.551 26.2009 162.366 26.2594C162.383 26.1263 162.391 25.9921 162.391 25.8578C162.391 25.4933 162.323 25.1323 162.192 24.7955C162.06 24.4587 161.867 24.1526 161.624 23.8948C161.381 23.6371 161.093 23.4326 160.775 23.2931C160.458 23.1536 160.118 23.0817 159.774 23.0817C159.612 23.0822 159.451 23.0982 159.292 23.1298C159.036 22.6788 158.647 22.3289 158.186 22.1332C157.725 21.9375 157.216 21.9067 156.737 22.0454C156.257 22.1841 155.834 22.4847 155.53 22.9017C155.227 23.3187 155.059 23.8294 155.054 24.3563H155.013C154.47 24.3818 153.957 24.6286 153.581 25.0453C153.205 25.462 152.995 26.0166 152.995 26.5933C152.995 27.1701 153.205 27.7246 153.581 28.1413C153.957 28.5581 154.47 28.8049 155.013 28.8303H162.753C163.075 28.8212 163.382 28.6787 163.606 28.4331C163.831 28.1876 163.956 27.8586 163.955 27.5165Z" fill="#F5F5F5"/>
<path d="M38.864 41.41C38.864 41.0628 38.7339 40.7297 38.5024 40.4841C38.2709 40.2385 37.9569 40.1006 37.6295 40.1006C37.5098 40.0997 37.3906 40.1174 37.2756 40.153C37.2922 40.0198 37.3004 39.8857 37.3003 39.7514C37.3003 39.0151 37.0246 38.309 36.5338 37.7884C36.043 37.2678 35.3773 36.9753 34.6832 36.9753C34.5217 36.9757 34.3606 36.9918 34.2018 37.0233C33.9449 36.5723 33.5564 36.2225 33.0952 36.0268C32.634 35.8311 32.1252 35.8002 31.646 35.9389C31.1668 36.0776 30.7432 36.3783 30.4396 36.7953C30.136 37.2123 29.9688 37.723 29.9634 38.2499H29.9223C29.3635 38.2499 28.8276 38.4853 28.4325 38.9044C28.0374 39.3235 27.8154 39.892 27.8154 40.4847C27.8154 41.0774 28.0374 41.6458 28.4325 42.065C28.8276 42.4841 29.3635 42.7195 29.9223 42.7195H37.6625C37.9841 42.7104 38.2897 42.5684 38.5142 42.3239C38.7386 42.0793 38.8641 41.7514 38.864 41.41Z" fill="#F5F5F5"/>
<path d="M71.7094 78.7869C71.7744 78.5183 71.8131 78.2433 71.8247 77.9663C71.9193 76.2684 73.4706 76.539 74.7504 76.3076C75.7667 76.1287 73.0756 73.4006 75.1248 72.5232C75.5251 72.4072 75.8754 72.1482 76.1165 71.7899C76.2193 71.5229 76.2307 71.2261 76.1488 70.951C76.0668 70.676 75.8967 70.44 75.668 70.284C75.2015 69.9789 74.6603 69.8271 74.1126 69.8475C73.7792 69.411 74.0508 68.7694 74.3718 68.3286C74.6928 67.8877 75.0919 67.3857 74.9685 66.8445C74.7833 66.0239 73.7052 65.9933 72.911 66.1548C72.623 65.6572 72.6312 65.0374 72.4995 64.4743C72.3678 63.9112 71.9358 63.322 71.3926 63.3918C70.8494 63.4617 70.5696 64.0728 70.0594 64.1993C69.475 64.3434 68.9689 63.7978 68.5121 63.3831C68.0554 62.9684 67.2489 62.7153 66.9361 63.2565C66.7468 63.5839 66.858 64.0335 66.6604 64.3565C66.323 64.9065 65.5124 64.566 65.0145 64.1731C64.5166 63.7803 63.7142 63.4224 63.3685 63.968C63.281 64.1474 63.216 64.3382 63.1751 64.5354C62.9364 65.2644 62.1957 65.6267 61.6197 66.0893C61.0436 66.552 60.5868 67.4818 61.0765 68.0492C61.3152 68.3329 61.739 68.4464 61.8583 68.8043C62.0065 69.2408 61.5785 69.6468 61.237 69.9567C60.6691 70.4674 60.5662 71.9951 61.3152 72.4141C61.632 72.5887 62.0929 72.6455 62.1711 73.0121C62.2492 73.3788 61.9242 73.597 61.7143 73.8502C61.5823 74.0305 61.4887 74.239 61.4399 74.4613C61.3911 74.6836 61.3883 74.9146 61.4318 75.1381C61.4752 75.3617 61.5637 75.5727 61.6914 75.7565C61.819 75.9403 61.9826 76.0926 62.1711 76.2029C62.348 76.2945 62.5826 76.3687 62.636 76.5652C62.6639 76.7117 62.6495 76.8638 62.5949 77.0017C62.521 77.2781 62.4959 77.5667 62.5208 77.8528C62.5166 77.9002 62.5226 77.9479 62.5383 77.9925C62.5541 78.037 62.5791 78.0772 62.6116 78.11C62.6441 78.1427 62.6832 78.1673 62.7259 78.1817C62.7686 78.1961 62.8139 78.2001 62.8582 78.1933C63.9405 78.2413 64.459 77.8354 65.1215 78.8349C65.1769 78.9372 65.2544 79.024 65.3478 79.0881C65.4394 79.1386 65.5409 79.1655 65.644 79.1667C66.3888 79.2321 66.8785 78.7302 67.5534 78.6472C68.4957 78.5206 68.6973 79.0357 69.5285 79.4504C70.8288 80.1313 71.4625 79.7297 71.7094 78.7869Z" fill="#EBEBEB"/>
<path d="M59.2462 77.3595C59.3146 77.0915 59.3547 76.8163 59.3655 76.5389C59.4601 74.8409 60.9909 75.1115 62.2912 74.8802C63.3076 74.6969 60.6164 71.9732 62.6657 71.0958C63.0652 70.9782 63.415 70.7195 63.6574 70.3625C63.7601 70.0955 63.7715 69.7987 63.6896 69.5236C63.6077 69.2486 63.4376 69.0126 63.2088 68.8566C62.7408 68.5572 62.1992 68.4128 61.6534 68.442C61.3201 68.0055 61.5917 67.3638 61.9126 66.923C62.2336 66.4821 62.6327 65.9801 62.5093 65.4389C62.3241 64.6183 61.246 64.5659 60.4518 64.7449C60.1638 64.2516 60.1679 63.6318 60.0403 63.0687C59.9128 62.5057 59.4807 61.9164 58.9334 61.9862C58.3861 62.0561 58.1104 62.6672 57.6043 62.7938C57.02 62.9378 56.5138 62.3878 56.0571 61.9775C55.6003 61.5672 54.7938 61.3097 54.4811 61.8509C54.2918 62.1783 54.4029 62.6279 54.2054 62.9465C53.8679 63.5009 53.0573 63.1604 52.5594 62.7676C52.0615 62.3747 51.2591 62.0168 50.9134 62.5624C50.824 62.7413 50.7575 62.9322 50.7159 63.1298C50.4814 63.8588 49.7407 64.2211 49.1646 64.6838C48.5885 65.1464 48.1317 66.0762 48.6173 66.6436C48.8601 66.9273 49.2839 67.0408 49.4032 67.3944C49.5514 67.8309 49.1234 68.2412 48.7819 68.5511C48.214 69.0618 48.1112 70.5895 48.8601 71.0085C49.1769 71.1831 49.6378 71.2399 49.7119 71.6065C49.7859 71.9732 49.4691 72.1914 49.2592 72.4446C49.1265 72.6246 49.0323 72.8331 48.9832 73.0556C48.934 73.278 48.931 73.5092 48.9745 73.733C49.0179 73.9568 49.1068 74.1679 49.2348 74.3517C49.3628 74.5355 49.527 74.6875 49.716 74.7973C49.8929 74.8889 50.1275 74.9631 50.181 75.1596C50.2088 75.3061 50.1944 75.4582 50.1398 75.5961C50.066 75.8725 50.0409 76.1611 50.0657 76.4472C50.0615 76.4946 50.0675 76.5423 50.0833 76.5869C50.099 76.6314 50.124 76.6716 50.1565 76.7044C50.189 76.7371 50.2281 76.7617 50.2708 76.7761C50.3135 76.7905 50.3588 76.7945 50.4032 76.7877C51.4854 76.8357 52.0039 76.4298 52.6664 77.4293C52.7218 77.5316 52.7994 77.6184 52.8927 77.6825C52.9843 77.7329 53.0858 77.7599 53.189 77.7611C53.9338 77.8265 54.4235 77.3246 55.0983 77.2416C56.0406 77.115 56.2423 77.6301 57.0694 78.0448C58.3738 78.7039 59.0075 78.2936 59.2462 77.3595Z" fill="#EBEBEB"/>
<path d="M58.0531 68.9439C58.1178 68.6767 58.1564 68.4032 58.1683 68.1276C58.2629 66.4253 59.8143 66.6959 61.094 66.4646C62.1104 66.2856 59.4192 63.5575 61.4685 62.6802C61.8682 62.5653 62.2184 62.3079 62.4602 61.9513C62.5632 61.6835 62.5748 61.3861 62.4929 61.1103C62.4109 60.8345 62.2407 60.5977 62.0116 60.441C61.5431 60.1431 61.0019 59.9988 60.4562 60.0263C60.1229 59.5898 60.3945 58.9482 60.7196 58.5073C61.0446 58.0665 61.4356 57.5645 61.3162 57.0233C61.1311 56.2027 60.0488 56.1503 59.2588 56.3336C58.9707 55.836 58.9789 55.2162 58.8473 54.6531C58.7156 54.09 58.2835 53.5008 57.7403 53.5706C57.1972 53.6404 56.9174 54.2515 56.4071 54.3781C55.8228 54.5222 55.3167 53.9765 54.8599 53.5619C54.4031 53.1472 53.6007 52.894 53.2839 53.4397C53.0946 53.7627 53.2057 54.2122 53.0123 54.5353C52.6708 55.0852 51.8642 54.7448 51.3663 54.3519C50.8684 53.9591 50.066 53.6012 49.7204 54.1468C49.6328 54.3277 49.5678 54.5199 49.527 54.7186C49.2883 55.4432 48.5476 55.8054 47.9715 56.2681C47.3954 56.7308 46.9387 57.6605 47.4283 58.2323C47.667 58.5117 48.0908 58.6252 48.2102 58.9831C48.3583 59.4196 47.9304 59.8299 47.5888 60.1354C47.0251 60.6461 46.9222 62.1739 47.6711 62.5929C47.9839 62.7675 48.4447 62.8242 48.5229 63.1909C48.6011 63.5575 48.276 63.7758 48.0662 64.029C47.9348 64.2095 47.8418 64.418 47.7934 64.6402C47.745 64.8624 47.7424 65.0931 47.7858 65.3165C47.8291 65.5398 47.9174 65.7506 48.0447 65.9345C48.1719 66.1183 48.335 66.2708 48.5229 66.3817C48.704 66.4733 48.9344 66.5475 48.992 66.7483C49.0168 66.8954 49.0011 67.047 48.9468 67.1848C48.8725 67.4612 48.8487 67.7501 48.8768 68.036C48.8748 68.1356 48.9087 68.2324 48.9714 68.3066C49.0423 68.3553 49.1257 68.3797 49.2101 68.3764C50.2923 68.4288 50.8149 68.0185 51.4733 69.0181C51.5311 69.1184 51.6082 69.2047 51.6996 69.2712C51.7914 69.3212 51.8928 69.3481 51.9959 69.3498C52.7407 69.4153 53.2304 68.9133 53.9052 68.8304C54.8476 68.7038 55.0492 69.2189 55.8804 69.6335C57.189 70.2926 57.8062 69.8911 58.0531 68.9439Z" fill="#EBEBEB"/>
<path d="M49.8482 73.1388C49.9126 72.8701 49.9512 72.5951 49.9634 72.3182C50.058 70.6159 51.6094 70.8865 52.8891 70.6552C53.9055 70.4762 51.2143 67.7525 53.2636 66.8708C53.6634 66.7562 54.0137 66.4987 54.2553 66.1418C54.3583 65.8741 54.3699 65.5766 54.288 65.3008C54.206 65.025 54.0358 64.7883 53.8067 64.6316C53.338 64.3341 52.7969 64.1899 52.2513 64.2169C51.918 63.7804 52.1896 63.1388 52.5105 62.6979C52.8315 62.257 53.2307 61.7551 53.1113 61.2138C52.9262 60.3932 51.8439 60.3408 51.0539 60.5242C50.7658 60.0266 50.774 59.4068 50.6424 58.8437C50.5107 58.2806 50.0786 57.6913 49.5354 57.7612C48.9923 57.831 48.7125 58.4421 48.2022 58.5687C47.6179 58.7171 47.1118 58.1671 46.655 57.7568C46.1982 57.3465 45.3958 57.089 45.079 57.6302C44.8897 57.9532 45.0008 58.4072 44.8074 58.7258C44.4658 59.2802 43.6593 58.9353 43.1614 58.5425C42.6635 58.1497 41.8611 57.7961 41.5154 58.3373C41.4279 58.5183 41.3629 58.7105 41.322 58.9091C41.0834 59.6337 40.3427 59.996 39.7666 60.4631C39.1905 60.9301 38.7337 61.8555 39.2234 62.4229C39.4621 62.7023 39.8859 62.8158 40.0053 63.1737C40.1534 63.6102 39.7254 64.0205 39.3839 64.326C38.816 64.8367 38.7132 66.3688 39.4662 66.7835C39.7789 66.9624 40.2398 67.0148 40.318 67.3815C40.3962 67.7481 40.0711 67.9664 39.8612 68.2195C39.7299 68.4001 39.6369 68.6086 39.5885 68.8308C39.5401 69.053 39.5375 69.2837 39.5808 69.507C39.6242 69.7304 39.7125 69.9412 39.8397 70.125C39.967 70.3089 40.1301 70.4614 40.318 70.5722C40.4991 70.6639 40.7295 70.7381 40.783 70.9389C40.8105 71.0855 40.7962 71.2375 40.7418 71.3754C40.6644 71.6586 40.6407 71.9553 40.6719 72.2484C40.6705 72.3466 40.7044 72.4418 40.7665 72.5146C40.8374 72.5633 40.9208 72.5877 41.0052 72.5845C42.0874 72.6368 42.61 72.2309 43.2684 73.2261C43.326 73.3278 43.4031 73.4156 43.4947 73.4836C43.587 73.5321 43.6881 73.5589 43.791 73.5622C44.5358 73.6277 45.0255 73.1257 45.7003 73.0428C46.6426 72.9162 46.8443 73.4312 47.6755 73.8459C48.9594 74.4832 49.6013 74.0816 49.8482 73.1388Z" fill="#EBEBEB"/>
<path d="M41.5512 71.2007C41.6197 70.9327 41.6598 70.6574 41.6706 70.38C41.7652 68.6821 43.296 68.9527 44.5963 68.7214C45.6127 68.5381 42.9215 65.8143 44.9707 64.937C45.3697 64.8204 45.7185 64.5614 45.9583 64.2037C46.0631 63.9373 46.076 63.6403 45.9947 63.3649C45.9134 63.0894 45.7432 62.8532 45.5139 62.6978C45.0482 62.3907 44.5064 62.2387 43.9585 62.2613C43.6211 61.8248 43.8926 61.1788 44.2177 60.7423C44.5428 60.3058 44.9378 59.7995 44.8144 59.2539C44.6292 58.4376 43.5511 58.4071 42.7569 58.5642C42.4689 58.071 42.473 57.4512 42.3454 56.8881C42.2179 56.325 41.7858 55.7357 41.2385 55.8056C40.6912 55.8754 40.4155 56.4865 39.9094 56.6131C39.3251 56.7571 38.8189 56.2072 38.3622 55.7969C37.9054 55.3865 37.0989 55.129 36.7821 55.6703C36.5928 55.9976 36.708 56.4472 36.5105 56.7659C36.1689 57.3202 35.3624 56.9754 34.8645 56.5869C34.3666 56.1984 33.5642 55.8361 33.2185 56.3817C33.1291 56.5607 33.0626 56.7515 33.021 56.9492C32.7865 57.6781 32.0458 58.0361 31.4697 58.5031C30.8936 58.9701 30.441 59.9173 30.9142 60.4848C31.1569 60.7641 31.5808 60.882 31.7001 61.2355C31.8483 61.672 31.4162 62.0823 31.0788 62.3922C30.5109 62.9029 30.408 64.4307 31.1569 64.8497C31.4738 65.0243 31.9347 65.081 32.0087 65.4477C32.0828 65.8143 31.766 66.0326 31.5561 66.2858C31.4234 66.4658 31.3292 66.6742 31.28 66.8967C31.2309 67.1192 31.2279 67.3504 31.2714 67.5742C31.3148 67.798 31.4036 68.0091 31.5317 68.1929C31.6597 68.3767 31.8239 68.5287 32.0129 68.6384C32.1898 68.7257 32.4243 68.8043 32.4778 69.0007C32.5056 69.1473 32.4913 69.2994 32.4367 69.4372C32.3603 69.7207 32.3351 70.0169 32.3626 70.3102C32.3584 70.3576 32.3644 70.4053 32.3801 70.4499C32.3959 70.4944 32.4209 70.5346 32.4534 70.5674C32.4859 70.6001 32.525 70.6247 32.5677 70.6391C32.6104 70.6535 32.6557 70.6575 32.7 70.6507C33.7782 70.6987 34.3008 70.2928 34.9633 71.2923C35.0183 71.3934 35.0943 71.48 35.1855 71.5455C35.2787 71.5955 35.3814 71.6224 35.4858 71.6241C36.2307 71.6895 36.7203 71.1876 37.3952 71.1046C38.3375 70.978 38.5391 71.4931 39.3662 71.9078C40.6748 72.545 41.3085 72.1435 41.5512 71.2007Z" fill="#EBEBEB"/>
<path d="M41.4454 80.6113C41.4969 80.4 41.5273 80.1834 41.5359 79.9653C41.6141 78.6253 42.8156 78.8392 43.8403 78.6558C44.6632 78.5162 42.5235 76.3686 44.1365 75.679C44.4501 75.5865 44.7245 75.3832 44.9143 75.1028C44.9974 74.8929 45.0079 74.6586 44.9439 74.4414C44.8799 74.2241 44.7455 74.0378 44.5645 73.9155C44.193 73.6782 43.7631 73.5641 43.33 73.5882C43.0667 73.2477 43.2806 72.737 43.5358 72.3922C43.7909 72.0473 44.1036 71.6501 44.0049 71.2224C43.8608 70.5764 43.009 70.5545 42.3959 70.6767C42.2262 70.2595 42.114 69.8185 42.0626 69.3673C41.9515 68.9308 41.6182 68.4594 41.1902 68.4943C40.7623 68.5292 40.5483 69.0399 40.1533 69.1272C39.6924 69.2407 39.2933 68.8086 38.9188 68.4856C38.5443 68.1625 37.9271 67.9618 37.6843 68.3852C37.5321 68.6427 37.6226 68.9963 37.4662 69.2581C37.1988 69.6946 36.5651 69.424 36.17 69.1141C35.775 68.8042 35.1454 68.5248 34.8656 68.9526C34.7994 69.0915 34.7483 69.2379 34.7133 69.3891C34.5282 69.9609 33.9439 70.2621 33.4789 70.6113C33.0139 70.9605 32.6559 71.7069 33.0674 72.1565C33.2567 72.3747 33.59 72.4664 33.6846 72.7457C33.7998 73.0993 33.4624 73.4136 33.1949 73.658C32.7464 74.0596 32.6682 75.2643 33.2567 75.5917C33.5036 75.7313 33.8657 75.7706 33.9274 76.0631C33.9891 76.3555 33.734 76.4996 33.5694 76.7222C33.4657 76.864 33.3921 77.0279 33.3537 77.2027C33.3153 77.3775 33.3131 77.5591 33.3471 77.7349C33.3811 77.9107 33.4506 78.0766 33.5507 78.2213C33.6509 78.366 33.7794 78.4859 33.9274 78.5729C34.0714 78.6471 34.2442 78.7039 34.2977 78.861C34.3203 78.9786 34.3073 79.1008 34.2607 79.2102C34.2059 79.4292 34.1878 79.6567 34.2072 79.8824C34.2052 79.9598 34.2318 80.035 34.2813 80.0919C34.3377 80.1303 34.4036 80.1501 34.4706 80.1486C35.3224 80.1879 35.7338 79.8693 36.2523 80.655C36.2979 80.7339 36.3581 80.8022 36.4293 80.8558C36.5024 80.8939 36.5824 80.9147 36.6638 80.9169C37.2481 80.9692 37.6308 80.5808 38.1658 80.5066C38.9106 80.4062 39.0669 80.8121 39.7212 81.1395C40.7541 81.672 41.252 81.349 41.4454 80.6113Z" fill="#EBEBEB"/>
<path d="M36.7992 77.3595C36.8642 77.0909 36.9028 76.8159 36.9144 76.5389C37.009 74.8409 38.5604 75.1115 39.8401 74.8802C40.8606 74.6969 38.1653 71.9732 40.2146 71.0958C40.6146 70.9791 40.9647 70.7203 41.2063 70.3625C41.309 70.0955 41.3204 69.7987 41.2385 69.5236C41.1566 69.2486 40.9865 69.0126 40.7577 68.8566C40.2899 68.5567 39.7482 68.4123 39.2023 68.442C38.869 68.0055 39.1406 67.3638 39.4657 66.923C39.7907 66.4821 40.1858 65.9801 40.0623 65.4389C39.8771 64.6183 38.7949 64.5659 38.0049 64.7449C37.7127 64.2516 37.7209 63.6318 37.5934 63.0687C37.4658 62.5057 37.0296 61.9164 36.4864 61.9862C35.9433 62.0561 35.6635 62.6672 35.1573 62.7938C34.5689 62.9378 34.0628 62.3878 33.606 61.9775C33.1492 61.5672 32.3468 61.3097 32.03 61.8509C31.8407 62.1783 31.9518 62.6279 31.7584 62.9465C31.4169 63.5009 30.6103 63.1604 30.1124 62.7676C29.6145 62.3747 28.8121 62.0168 28.4664 62.5624C28.3783 62.7415 28.3133 62.9324 28.2731 63.1298C28.0344 63.8588 27.2937 64.2211 26.7176 64.6838C26.1415 65.1464 25.6848 66.0762 26.1744 66.6436C26.4131 66.9273 26.8369 67.0408 26.9563 67.3944C27.1044 67.8309 26.6765 68.2412 26.3349 68.5511C25.7712 69.0618 25.6683 70.5895 26.4172 71.0085C26.73 71.1831 27.1908 71.2399 27.269 71.6065C27.3472 71.9732 27.0221 72.1914 26.8123 72.4446C26.6797 72.6244 26.5853 72.8325 26.5356 73.0546C26.4859 73.2767 26.482 73.5075 26.5242 73.7314C26.5664 73.9552 26.6537 74.1667 26.7801 74.3514C26.9065 74.5362 27.0691 74.6897 27.2567 74.8016C27.4377 74.8933 27.6682 74.9675 27.7258 75.1639C27.752 75.311 27.7363 75.463 27.6805 75.6004C27.606 75.8768 27.5823 76.1657 27.6105 76.4516C27.6084 76.55 27.6423 76.6455 27.7052 76.7178C27.7746 76.7704 27.8587 76.7965 27.9439 76.792C29.0261 76.8401 29.5487 76.4341 30.2071 77.4337C30.2648 77.5341 30.342 77.6203 30.4334 77.6869C30.5251 77.7369 30.6265 77.7637 30.7297 77.7654C31.4745 77.8309 31.9641 77.3289 32.639 77.246C33.5813 77.1194 33.7829 77.6345 34.6142 78.0491C35.9186 78.7039 36.5523 78.2936 36.7992 77.3595Z" fill="#EBEBEB"/>
<path d="M49.8482 62.7849C49.9132 62.5164 49.9518 62.2414 49.9634 61.9643C50.058 60.2664 51.6093 60.537 52.8891 60.3057C53.9055 60.1267 51.2143 57.3986 53.2635 56.5213C53.6638 56.4052 54.0141 56.1462 54.2552 55.788C54.358 55.5209 54.3694 55.2241 54.2875 54.9491C54.2055 54.674 54.0355 54.438 53.8067 54.2821C53.3402 53.977 52.799 53.8251 52.2513 53.8456C51.918 53.4091 52.1895 52.7675 52.5105 52.3266C52.8315 51.8857 53.2306 51.3838 53.1113 50.8425C52.9261 50.0219 51.8439 49.9914 51.0538 50.1529C50.7658 49.6553 50.774 49.0354 50.6423 48.4724C50.5107 47.9093 50.0786 47.32 49.5354 47.3899C48.9922 47.4597 48.7124 48.0708 48.2022 48.1974C47.6179 48.3414 47.1117 47.7958 46.655 47.3811C46.1982 46.9665 45.3958 46.7133 45.079 47.2546C44.8897 47.5819 45.0008 48.0315 44.8074 48.3545C44.4658 48.9045 43.6593 48.564 43.1614 48.1712C42.6635 47.7784 41.8611 47.4204 41.5154 47.966C41.4279 48.1454 41.3629 48.3362 41.322 48.5335C41.0834 49.2624 40.3427 49.6247 39.7666 50.0874C39.1905 50.5501 38.7337 51.4798 39.2234 52.0472C39.4621 52.331 39.8859 52.4445 40.0053 52.8024C40.1534 53.2389 39.7254 53.6492 39.3839 53.9547C38.816 54.4654 38.7132 55.9931 39.4662 56.4122C39.7789 56.5868 40.2398 56.6435 40.318 57.0102C40.3962 57.3768 40.0711 57.5951 39.8612 57.8482C39.7262 58.0292 39.6301 58.2394 39.5796 58.4639C39.5292 58.6885 39.5256 58.922 39.5691 59.1481C39.6126 59.3743 39.7021 59.5877 39.8315 59.7733C39.9609 59.9589 40.1269 60.1123 40.318 60.2227C40.499 60.3144 40.7295 60.3886 40.783 60.5894C40.8113 60.736 40.797 60.8882 40.7418 61.0259C40.6647 61.3092 40.6409 61.6058 40.6719 61.8989C40.6704 61.9477 40.6779 61.9963 40.6942 62.042C40.7104 62.0877 40.735 62.1295 40.7665 62.1651C40.8359 62.2177 40.92 62.2438 41.0052 62.2393C42.0874 62.2873 42.61 61.8814 43.2684 62.881C43.325 62.9823 43.4023 63.0688 43.4947 63.1341C43.5863 63.1846 43.6878 63.2115 43.791 63.2127C44.5358 63.2782 45.0255 62.7762 45.7003 62.6933C46.6426 62.5667 46.8443 63.0818 47.6755 63.4964C48.9593 64.1337 49.6013 63.7321 49.8482 62.7849Z" fill="#EBEBEB"/>
<path d="M60.5017 63.3654C60.5664 63.0967 60.605 62.8217 60.6169 62.5447C60.7115 60.8424 62.2423 61.1131 63.5426 60.8817C64.559 60.7027 61.8678 57.979 63.917 57.0973C64.3169 56.9827 64.6672 56.7253 64.9087 56.3684C65.011 56.1006 65.0221 55.8034 64.9403 55.5278C64.8584 55.2522 64.6887 55.0154 64.4602 54.8581C63.9919 54.56 63.4502 54.4171 62.9048 54.4478C62.5715 54.0113 62.8431 53.3653 63.164 52.9245C63.485 52.4836 63.8841 51.9816 63.7648 51.4404C63.5796 50.6198 62.4974 50.5892 61.7073 50.7507C61.4193 50.2531 61.4275 49.6377 61.2958 49.0746C61.1642 48.5115 60.7321 47.9179 60.1889 47.9877C59.6458 48.0576 59.3659 48.6687 58.8557 48.7952C58.2714 48.9437 57.7652 48.3937 57.3085 47.9834C56.8517 47.5731 56.0493 47.3155 55.7325 47.8568C55.5432 48.1798 55.6543 48.6337 55.4609 48.9524C55.1193 49.5067 54.3128 49.1619 53.8149 48.7691C53.317 48.3762 52.5146 48.0227 52.1689 48.5683C52.0808 48.7474 52.0158 48.9382 51.9755 49.1357C51.7369 49.8603 50.9962 50.2226 50.4201 50.6896C49.844 51.1567 49.3708 52.1039 49.8646 52.6495C50.1032 52.9288 50.5271 53.0423 50.6464 53.4002C50.7945 53.8367 50.3666 54.247 50.0251 54.5526C49.4572 55.0633 49.3543 56.5954 50.1032 57.0144C50.4201 57.189 50.881 57.2414 50.9591 57.608C51.0373 57.9747 50.7122 58.1929 50.5024 58.4504C50.3711 58.6306 50.2781 58.8388 50.2297 59.0607C50.1814 59.2825 50.1788 59.5129 50.2222 59.7359C50.2656 59.9589 50.3539 60.1694 50.4811 60.3528C50.6083 60.5363 50.7714 60.6884 50.9591 60.7988C51.1402 60.8904 51.3706 60.9646 51.4241 61.1654C51.4517 61.312 51.4374 61.464 51.383 61.6019C51.3083 61.8782 51.2845 62.1672 51.313 62.4531C51.3117 62.5513 51.3455 62.6465 51.4077 62.7193C51.4786 62.7681 51.5619 62.7924 51.6463 62.7892C52.7286 62.8416 53.2512 62.4356 53.9095 63.4352C53.9682 63.5349 54.0451 63.621 54.1359 63.6884C54.2282 63.7368 54.3292 63.7636 54.4321 63.7669C55.1769 63.8324 55.6666 63.3304 56.3415 63.2475C57.2838 63.1209 57.4854 63.636 58.3166 64.0506C59.6211 64.7097 60.2548 64.3256 60.5017 63.3654Z" fill="#EBEBEB"/>
<path d="M66.9686 67.9882C67.0351 67.7198 67.0751 67.4448 67.0879 67.1676C67.1826 65.4697 68.7133 65.7403 70.0137 65.5089C71.03 65.33 68.3389 62.6019 70.3881 61.7246C70.7872 61.6083 71.1361 61.3492 71.3757 60.9913C71.4805 60.7249 71.4934 60.4279 71.4121 60.1524C71.3308 59.877 71.1606 59.6408 70.9313 59.4854C70.4625 59.1879 69.9215 59.0437 69.3758 59.0707C69.0384 58.6342 69.31 57.9925 69.6351 57.5517C69.9602 57.1108 70.3552 56.6089 70.2317 56.0676C70.0466 55.247 68.9685 55.1946 68.1743 55.3736C67.8862 54.8804 67.8904 54.2605 67.7628 53.6975C67.6352 53.1344 67.2032 52.5451 66.6559 52.615C66.1086 52.6848 65.8329 53.2959 65.3268 53.4225C64.7424 53.5665 64.2363 53.0209 63.7754 52.6062C63.3145 52.1916 62.5163 51.9384 62.1994 52.4797C62.0101 52.807 62.1253 53.2566 61.9278 53.5752C61.5863 54.1296 60.7798 53.7891 60.2818 53.3963C59.7839 53.0034 58.9815 52.6455 58.6359 53.1911C58.5484 53.3705 58.4834 53.5613 58.4425 53.7586C58.2079 54.4875 57.4672 54.8498 56.8911 55.3125C56.3151 55.7752 55.8583 56.7049 56.3439 57.2723C56.5866 57.5561 57.0105 57.6695 57.1298 58.0231C57.2779 58.4596 56.8459 58.8699 56.5085 59.1798C55.9406 59.6905 55.8377 61.2182 56.5866 61.6373C56.8994 61.8119 57.3644 61.8686 57.4384 62.2353C57.5125 62.6019 57.1956 62.8202 56.9858 63.0733C56.8536 63.2533 56.7598 63.4616 56.7107 63.6837C56.6616 63.9059 56.6585 64.1366 56.7015 64.3602C56.7445 64.5838 56.8326 64.7948 56.9598 64.9788C57.0871 65.1628 57.2503 65.3153 57.4384 65.426C57.6195 65.5177 57.8499 65.5919 57.9075 65.7883C57.9353 65.9349 57.921 66.087 57.8664 66.2248C57.7925 66.5013 57.7674 66.7898 57.7923 67.076C57.7908 67.1751 57.8263 67.2708 57.8911 67.3422C57.96 67.3957 58.0445 67.422 58.1297 67.4164C59.2078 67.4644 59.7304 67.0585 60.3929 68.0581C60.448 68.1592 60.524 68.2457 60.6152 68.3112C60.7084 68.3613 60.8111 68.3882 60.9155 68.3898C61.6603 68.4553 62.15 67.9533 62.8249 67.8704C63.7672 67.7438 63.9647 68.2588 64.7959 68.6735C66.0921 69.3326 66.7258 68.931 66.9686 67.9882Z" fill="#EBEBEB"/>
<path d="M65.0072 73.8328C65.0072 73.8328 62.2996 77.8922 61.3655 79.1798C60.4314 80.4675 55.7692 88.4859 55.1314 93.7892C55.0655 94.3523 54.9956 94.8412 54.9339 95.2646C56.9378 109.32 56.6251 135.029 56.5552 139.429H50.1935C50.1359 134.466 49.5968 89.0969 49.3952 87.7133C49.1853 86.2466 46.5147 80.6639 42.4204 78.3723C38.326 76.0807 34.7666 68.4901 34.7666 68.4901H36.0793C36.0793 68.4901 38.5071 73.1431 41.9636 75.7141C42.46 76.078 42.9798 76.4047 43.5191 76.6918C43.5074 73.8928 43.9716 71.1145 44.8893 68.4901L45.5971 69.1798C44.6424 73.3265 44.7741 75.9804 45.058 77.5037C46.3625 78.1506 47.5657 79.0059 48.6257 80.0397C52.2098 75.0986 54.222 63.7979 54.222 63.7979L55.1314 64.326C54.8713 66.6602 54.4755 68.9751 53.9463 71.2575C53.2755 74.182 51.3004 79.6862 50.3828 82.1698C51.4791 83.8527 52.3825 85.6683 53.0739 87.5779C53.1714 87.4176 53.2875 87.2709 53.4196 87.1415C55.7527 84.9066 60.1392 74.3348 60.1392 74.3348C61.2009 71.8773 59.5796 65.426 59.5796 65.426H60.8141L61.3614 71.0654L64.4393 67.5037L65.0072 67.9925L61.74 72.4491L60.0693 78.093L64.4517 72.9424L65.0072 73.8328Z" fill="#E6E6E6"/>
<path d="M100.066 93.9245C100.018 93.7185 99.9887 93.508 99.9794 93.2959C99.9053 91.9865 98.7449 92.2003 97.7326 92.0214C96.9508 91.8817 99.0165 89.7909 97.4446 89.1187C97.1383 89.0298 96.8707 88.8307 96.6874 88.5556C96.6079 88.3509 96.5985 88.1231 96.6609 87.9118C96.7233 87.7004 96.8536 87.519 97.029 87.3989C97.3887 87.1708 97.8037 87.06 98.2223 87.0803C98.4774 86.7529 98.2717 86.2553 98.0207 85.9149C97.7697 85.5744 97.4693 85.1947 97.5639 84.7756C97.7038 84.1471 98.535 84.1253 99.1317 84.2475C99.2994 83.8376 99.4089 83.4037 99.4568 82.9598C99.5638 82.5233 99.8888 82.0869 100.309 82.1261C100.728 82.1654 100.942 82.6499 101.329 82.746C101.778 82.8594 102.152 82.4404 102.518 82.1218C102.885 81.8031 103.485 81.6111 103.728 82.0257C103.872 82.2745 103.786 82.6237 103.934 82.8682C104.197 83.3047 104.814 83.0297 105.201 82.7285C105.588 82.4273 106.197 82.1523 106.469 82.5714C106.537 82.7086 106.587 82.8556 106.617 83.0078C106.802 83.5666 107.37 83.8415 107.81 84.1995C108.25 84.5574 108.625 85.2776 108.213 85.7141C108.028 85.928 107.703 86.0153 107.613 86.2903C107.522 86.5653 107.827 86.9363 108.086 87.1632C108.522 87.5561 108.6 88.7302 108.028 89.0532C107.785 89.1842 107.432 89.2278 107.374 89.4897C107.316 89.7516 107.559 89.9262 107.72 90.1314C107.822 90.2691 107.894 90.4289 107.932 90.5994C107.97 90.77 107.972 90.9472 107.939 91.1189C107.906 91.2905 107.838 91.4524 107.739 91.5932C107.641 91.734 107.515 91.8503 107.37 91.9341C107.234 92.0039 107.065 92.065 107.012 92.2178C106.99 92.3322 107.001 92.4509 107.045 92.5583C107.103 92.7692 107.122 92.9899 107.102 93.2086C107.102 93.2844 107.076 93.3575 107.028 93.4138C106.974 93.4526 106.909 93.4725 106.843 93.4705C106.02 93.5098 105.609 93.1955 105.107 93.9638C105.063 94.0408 105.004 94.1065 104.934 94.1558C104.864 94.1959 104.786 94.2169 104.707 94.2169C104.135 94.2693 103.761 93.8896 103.243 93.8197C102.518 93.7237 102.366 94.1165 101.728 94.4352C100.741 94.959 100.255 94.6491 100.066 93.9245Z" fill="#EBEBEB"/>
<path d="M109.625 92.8288C109.573 92.6234 109.543 92.4127 109.534 92.2003C109.46 90.8908 108.3 91.1047 107.287 90.9257C106.51 90.786 108.575 88.6952 107.003 88.023C106.696 87.934 106.427 87.7351 106.242 87.46C106.163 87.2551 106.154 87.0276 106.217 86.8165C106.279 86.6054 106.409 86.4239 106.584 86.3033C106.945 86.0746 107.361 85.9637 107.781 85.9846C108.036 85.6573 107.826 85.1597 107.579 84.8192C107.333 84.4787 107.028 84.099 107.123 83.6799C107.263 83.0514 108.094 83.0296 108.69 83.1518C108.858 82.7419 108.968 82.308 109.016 81.8641C109.123 81.4276 109.448 80.9912 109.863 81.0348C110.279 81.0785 110.497 81.5542 110.884 81.6503C111.271 81.7463 111.707 81.3447 112.073 81.0261C112.439 80.7074 113.04 80.5154 113.283 80.93C113.427 81.1788 113.34 81.528 113.493 81.7725C113.752 82.209 114.373 81.934 114.76 81.6328C115.147 81.3316 115.756 81.0566 116.027 81.4757C116.094 81.6137 116.144 81.7605 116.176 81.9121C116.357 82.4709 116.924 82.7459 117.369 83.1038C117.813 83.4617 118.159 84.1732 117.78 84.6097C117.595 84.8236 117.274 84.9109 117.18 85.1858C117.064 85.5263 117.398 85.8319 117.657 86.0588C118.093 86.4517 118.171 87.6258 117.595 87.9488C117.357 88.0842 117.003 88.1234 116.941 88.4072C116.879 88.6909 117.13 88.8437 117.291 89.0488C117.392 89.1868 117.464 89.3466 117.502 89.517C117.539 89.6874 117.541 89.8644 117.508 90.0358C117.475 90.2072 117.407 90.3689 117.309 90.5098C117.211 90.6506 117.085 90.7672 116.941 90.8515C116.805 90.9214 116.632 90.9825 116.583 91.1352C116.561 91.2496 116.573 91.3684 116.616 91.4757C116.673 91.6869 116.691 91.9077 116.669 92.1261C116.671 92.2022 116.645 92.2759 116.595 92.3312C116.542 92.37 116.479 92.3899 116.414 92.388C115.591 92.4273 115.18 92.113 114.678 92.8812C114.635 92.9583 114.575 93.0239 114.505 93.0733C114.434 93.1129 114.355 93.1339 114.274 93.1344C113.707 93.1868 113.332 92.807 112.81 92.7372C112.085 92.6411 111.933 93.034 111.295 93.3526C110.299 93.8633 109.814 93.5709 109.625 92.8288Z" fill="#EBEBEB"/>
<path d="M110.547 86.3731C110.496 86.1677 110.465 85.9569 110.457 85.7446C110.383 84.4351 109.222 84.6446 108.21 84.47C107.432 84.3303 109.498 82.2395 107.922 81.5673C107.616 81.4784 107.348 81.2793 107.165 81.0043C107.086 80.7994 107.077 80.5718 107.14 80.3607C107.202 80.1496 107.332 79.9682 107.506 79.8475C107.866 79.6194 108.281 79.5086 108.7 79.5289C108.959 79.2015 108.749 78.6996 108.502 78.3635C108.255 78.0274 107.951 77.6433 108.041 77.2242C108.185 76.5957 109.013 76.5739 109.613 76.6961C109.783 76.2793 109.893 75.8379 109.938 75.3866C110.045 74.9501 110.37 74.5136 110.786 74.5529C111.202 74.5922 111.42 75.0767 111.807 75.1727C112.193 75.2687 112.63 74.8672 112.996 74.5485C113.362 74.2299 113.963 74.0378 114.206 74.4525C114.35 74.7013 114.263 75.0505 114.415 75.2949C114.675 75.7314 115.296 75.4564 115.679 75.1553C116.061 74.8541 116.679 74.5791 116.95 74.9981C117.017 75.1362 117.067 75.2829 117.098 75.4346C117.279 75.989 117.847 76.2683 118.292 76.6262C118.736 76.9842 119.082 77.6956 118.703 78.1278C118.518 78.346 118.193 78.4333 118.102 78.7083C117.987 79.0488 118.316 79.3543 118.58 79.5813C119.016 79.9741 119.094 81.1483 118.518 81.4713C118.275 81.6022 117.921 81.6459 117.864 81.9296C117.806 82.2133 118.053 82.3661 118.214 82.5713C118.315 82.7093 118.387 82.869 118.424 83.0394C118.462 83.2098 118.464 83.3868 118.431 83.5582C118.398 83.7297 118.33 83.8914 118.232 84.0322C118.134 84.173 118.008 84.2896 117.864 84.374C117.724 84.4438 117.555 84.5006 117.506 84.6533C117.484 84.7692 117.495 84.8893 117.539 84.9981C117.593 85.2097 117.612 85.4301 117.592 85.6485C117.594 85.7246 117.567 85.7984 117.518 85.8537C117.465 85.8919 117.401 85.9117 117.337 85.9104C116.514 85.9497 116.103 85.6354 115.601 86.4037C115.556 86.4798 115.497 86.5452 115.428 86.5957C115.357 86.6353 115.278 86.6563 115.197 86.6568C114.625 86.7092 114.255 86.3294 113.732 86.2596C113.008 86.1636 112.856 86.5564 112.218 86.8751C111.222 87.4032 110.737 87.0977 110.547 86.3731Z" fill="#EBEBEB"/>
<path d="M116.855 89.5901C116.804 89.3846 116.773 89.1739 116.765 88.9616C116.69 87.6521 115.53 87.8616 114.518 87.687C113.74 87.5473 115.806 85.4565 114.23 84.78C113.924 84.6925 113.656 84.495 113.473 84.2212C113.394 84.0164 113.385 83.7888 113.447 83.5777C113.51 83.3666 113.639 83.1852 113.814 83.0645C114.173 82.8345 114.589 82.7235 115.007 82.7459C115.267 82.4142 115.057 81.9166 114.81 81.5805C114.563 81.2444 114.254 80.8559 114.349 80.4412C114.493 79.8127 115.32 79.7908 115.921 79.9131C116.09 79.4961 116.2 79.0548 116.246 78.6036C116.353 78.1671 116.658 77.7306 117.094 77.7699C117.53 77.8092 117.727 78.2937 118.114 78.3897C118.563 78.5032 118.937 78.0798 119.303 77.7655C119.67 77.4512 120.27 77.2548 120.513 77.6695C120.657 77.9183 120.571 78.2631 120.723 78.5075C120.982 78.944 121.604 78.669 121.986 78.3679C122.369 78.0667 122.986 77.7961 123.258 78.2151C123.325 78.3532 123.375 78.4999 123.406 78.6516C123.587 79.2059 124.155 79.4853 124.595 79.8432C125.036 80.2011 125.389 80.9083 125.007 81.3448C124.822 81.563 124.496 81.6459 124.406 81.9209C124.291 82.2658 124.62 82.5713 124.883 82.7939C125.319 83.1868 125.398 84.3609 124.822 84.6796C124.579 84.8149 124.225 84.8585 124.167 85.1161C124.11 85.3736 124.357 85.5525 124.517 85.7621C124.618 85.9001 124.69 86.0598 124.728 86.2302C124.766 86.4006 124.768 86.5777 124.734 86.7491C124.701 86.9205 124.633 87.0822 124.535 87.223C124.437 87.3639 124.312 87.4805 124.167 87.5648C124.027 87.6346 123.859 87.6914 123.809 87.8441C123.787 87.9585 123.799 88.0773 123.842 88.1846C123.897 88.3977 123.915 88.6195 123.896 88.8393C123.898 88.9154 123.871 88.9892 123.822 89.0445C123.769 89.0835 123.705 89.102 123.641 89.0969C122.818 89.1362 122.406 88.8263 121.904 89.5901C121.86 89.6675 121.801 89.7343 121.731 89.7865C121.659 89.8242 121.581 89.845 121.501 89.8476C120.929 89.8957 120.558 89.5203 120.036 89.4504C119.312 89.35 119.159 89.7473 118.522 90.0659C117.518 90.6202 117.028 90.3147 116.855 89.5901Z" fill="#EBEBEB"/>
<path d="M123.205 88.1017C123.153 87.8963 123.123 87.6855 123.114 87.4731C123.04 86.1637 121.88 86.3775 120.872 86.1986C120.09 86.0633 122.155 83.9725 120.584 83.2959C120.277 83.2073 120.008 83.0102 119.822 82.7372C119.743 82.532 119.734 82.3038 119.798 82.0924C119.861 81.8811 119.992 81.6999 120.168 81.5805C120.526 81.3494 120.942 81.2384 121.361 81.2619C121.616 80.9301 121.407 80.4325 121.16 80.0964C120.913 79.7603 120.608 79.3719 120.703 78.9572C120.843 78.3243 121.674 78.3024 122.271 78.4247C122.44 78.0079 122.55 77.5665 122.596 77.1152C122.703 76.6787 123.028 76.2422 123.443 76.2859C123.859 76.3295 124.081 76.8096 124.464 76.9057C124.912 77.0148 125.287 76.5958 125.653 76.2815C126.019 75.9672 126.62 75.7664 126.863 76.1811C127.007 76.4343 126.921 76.7791 127.073 77.0235C127.336 77.46 127.953 77.185 128.34 76.8839C128.727 76.5827 129.336 76.312 129.608 76.7267C129.673 76.8654 129.723 77.0119 129.756 77.1632C129.937 77.7219 130.505 78.0013 130.949 78.3548C131.394 78.7084 131.739 79.4242 131.361 79.8607C131.18 80.0746 130.854 80.1619 130.76 80.4369C130.649 80.7774 130.978 81.0873 131.237 81.3099C131.673 81.7027 131.752 82.8725 131.175 83.1955C130.937 83.3308 130.583 83.3701 130.521 83.6538C130.459 83.9375 130.71 84.0903 130.871 84.2955C130.972 84.4339 131.044 84.5939 131.082 84.7647C131.12 84.9354 131.122 85.1127 131.089 85.2845C131.055 85.4562 130.987 85.6183 130.889 85.7595C130.791 85.9007 130.666 86.0178 130.521 86.1025C130.385 86.1724 130.213 86.2291 130.163 86.3819C130.141 86.4963 130.153 86.615 130.196 86.7224C130.253 86.9351 130.271 87.1572 130.25 87.3771C130.251 87.4531 130.224 87.5267 130.175 87.5823C130.122 87.6198 130.059 87.6381 129.994 87.6346C129.171 87.6739 128.76 87.364 128.258 88.1279C128.221 88.209 128.162 88.2766 128.089 88.3225C128.016 88.3683 127.931 88.3902 127.846 88.3854C127.279 88.4334 126.904 88.0537 126.382 87.9838C125.661 87.8878 125.505 88.285 124.867 88.5993C123.88 89.1362 123.394 88.8263 123.205 88.1017Z" fill="#EBEBEB"/>
<path d="M123.287 95.3165C123.249 95.1548 123.226 94.9896 123.217 94.8232C123.16 93.7975 122.234 93.9502 121.448 93.8193C120.835 93.7102 122.46 92.0733 121.222 91.5321C120.981 91.464 120.77 91.3098 120.625 91.0956C120.563 90.9337 120.557 90.7541 120.606 90.5876C120.656 90.4211 120.758 90.2781 120.897 90.1833C121.179 90.0041 121.506 89.9175 121.835 89.9345C122.036 89.6726 121.872 89.2841 121.678 89.0179C121.485 88.7516 121.242 88.4461 121.316 88.1187C121.427 87.6255 122.082 87.608 122.551 87.704C122.68 87.3794 122.766 87.037 122.806 86.687C122.888 86.3509 123.143 85.993 123.473 86.0323C123.802 86.0716 123.975 86.4688 124.296 86.5211C124.616 86.5735 124.958 86.2767 125.234 86.0323C125.509 85.7878 125.995 85.6263 126.184 85.9537C126.3 86.1501 126.23 86.4251 126.349 86.6172C126.555 86.9489 127.044 86.7438 127.349 86.508C127.653 86.2723 128.131 86.0716 128.345 86.3815C128.399 86.4902 128.439 86.6062 128.464 86.7263C128.608 87.1628 129.052 87.3854 129.402 87.6648C129.752 87.9441 130.028 88.5072 129.731 88.8476C129.587 89.0179 129.32 89.0877 129.258 89.2841C129.196 89.4806 129.427 89.7992 129.633 89.9825C129.974 90.2924 130.044 91.2178 129.583 91.4666C129.394 91.5757 129.118 91.6063 129.069 91.8289C129.019 92.0515 129.217 92.1824 129.345 92.3352C129.424 92.4442 129.481 92.5703 129.511 92.7047C129.54 92.8392 129.542 92.9788 129.516 93.114C129.489 93.2493 129.436 93.3768 129.359 93.488C129.282 93.5992 129.183 93.6914 129.069 93.7582C128.962 93.8106 128.826 93.8586 128.785 93.9764C128.767 94.0676 128.777 94.1624 128.814 94.2471C128.856 94.4133 128.87 94.5863 128.855 94.7578C128.856 94.7874 128.851 94.8169 128.841 94.8447C128.832 94.8724 128.817 94.8978 128.797 94.9193C128.756 94.9514 128.705 94.9668 128.653 94.9629C127.999 94.9935 127.686 94.749 127.287 95.3514C127.254 95.4133 127.208 95.4657 127.151 95.5042C127.095 95.5347 127.033 95.5511 126.97 95.5522C126.522 95.5914 126.225 95.2946 125.818 95.2379C125.246 95.1637 125.127 95.4736 124.625 95.7268C123.818 96.1371 123.44 95.8926 123.287 95.3165Z" fill="#EBEBEB"/>
<path d="M126.854 92.8288C126.802 92.6234 126.772 92.4127 126.764 92.2003C126.689 90.8908 125.529 91.1047 124.517 90.9257C123.739 90.786 125.805 88.6952 124.229 88.023C123.922 87.9341 123.655 87.7351 123.472 87.46C123.392 87.2552 123.383 87.0274 123.445 86.8161C123.508 86.6048 123.638 86.4233 123.813 86.3033C124.173 86.0752 124.588 85.9643 125.006 85.9846C125.266 85.6573 125.056 85.1597 124.809 84.8192C124.562 84.4787 124.253 84.099 124.348 83.6799C124.492 83.0514 125.319 83.0296 125.92 83.1518C126.086 82.7413 126.195 82.3076 126.245 81.8641C126.352 81.4276 126.657 80.9912 127.093 81.0348C127.529 81.0785 127.726 81.5542 128.113 81.6503C128.5 81.7463 128.936 81.3447 129.302 81.0261C129.669 80.7074 130.269 80.5154 130.512 80.93C130.656 81.1788 130.57 81.528 130.722 81.7725C130.981 82.209 131.603 81.934 131.985 81.6328C132.368 81.3316 132.985 81.0566 133.253 81.4757C133.323 81.6127 133.374 81.7597 133.405 81.9121C133.586 82.4709 134.154 82.7459 134.594 83.1038C135.035 83.4617 135.388 84.1732 135.006 84.6097C134.821 84.8236 134.495 84.9109 134.405 85.1858C134.29 85.5263 134.619 85.8319 134.882 86.0588C135.314 86.4517 135.397 87.6258 134.821 87.9488C134.578 88.0842 134.224 88.1234 134.166 88.4072C134.109 88.6909 134.356 88.8437 134.516 89.0488C134.617 89.1871 134.688 89.3468 134.725 89.5171C134.762 89.6874 134.765 89.8642 134.731 90.0353C134.698 90.2065 134.63 90.3681 134.533 90.5089C134.435 90.6498 134.31 90.7667 134.166 90.8515C134.026 90.9214 133.858 90.9825 133.808 91.1352C133.785 91.2495 133.796 91.3689 133.841 91.4757C133.896 91.6873 133.914 91.9076 133.895 92.1261C133.895 92.2018 133.868 92.275 133.821 92.3312C133.767 92.3695 133.704 92.3893 133.64 92.388C132.817 92.4273 132.405 92.113 131.903 92.8812C131.859 92.9573 131.8 93.0227 131.73 93.0733C131.659 93.1129 131.58 93.1339 131.5 93.1344C130.928 93.1868 130.557 92.807 130.035 92.7372C129.311 92.6411 129.158 93.034 128.521 93.3526C127.525 93.8633 127.039 93.5709 126.854 92.8288Z" fill="#EBEBEB"/>
<path d="M116.854 81.6458C116.803 81.4405 116.772 81.2297 116.764 81.0173C116.69 79.7078 115.529 79.9217 114.517 79.7427C113.739 79.6074 115.805 77.5166 114.229 76.84C113.924 76.7509 113.657 76.5537 113.472 76.2813C113.393 76.0758 113.384 75.8476 113.446 75.6357C113.508 75.4239 113.638 75.2416 113.813 75.1202C114.174 74.8934 114.589 74.7841 115.007 74.806C115.266 74.4742 115.056 73.9766 114.809 73.6362C114.562 73.2957 114.254 72.916 114.348 72.4969C114.492 71.8684 115.32 71.8465 115.92 71.9688C116.088 71.5589 116.198 71.125 116.245 70.6811C116.352 70.2446 116.657 69.8081 117.093 69.8518C117.529 69.8954 117.727 70.3712 118.114 70.4716C118.562 70.5807 118.937 70.1617 119.303 69.8474C119.669 69.5331 120.27 69.3323 120.513 69.747C120.657 69.9958 120.57 70.345 120.722 70.5895C120.982 71.0259 121.603 70.7509 121.986 70.4498C122.368 70.1486 122.986 69.8736 123.257 70.2926C123.323 70.4313 123.373 70.5778 123.405 70.7291C123.586 71.2878 124.154 71.5628 124.595 71.9207C125.035 72.2787 125.389 72.9902 125.006 73.4267C124.821 73.6405 124.496 73.7278 124.405 74.0028C124.29 74.3433 124.619 74.6532 124.883 74.8758C125.319 75.2686 125.397 76.4384 124.821 76.7615C124.578 76.8968 124.224 76.936 124.167 77.1979C124.109 77.4598 124.356 77.6344 124.516 77.8396C124.618 77.978 124.69 78.138 124.727 78.3088C124.765 78.4795 124.767 78.6569 124.734 78.8286C124.701 79.0003 124.633 79.1624 124.535 79.3036C124.437 79.4448 124.311 79.5619 124.167 79.6467C124.027 79.7165 123.858 79.7732 123.809 79.926C123.787 80.0404 123.798 80.1592 123.842 80.2665C123.896 80.478 123.915 80.6984 123.895 80.9169C123.896 80.9546 123.891 80.9922 123.878 81.0275C123.865 81.0627 123.846 81.0949 123.821 81.122C123.769 81.1623 123.705 81.1823 123.64 81.1788C122.817 81.218 122.405 80.9081 121.903 81.672C121.858 81.7484 121.799 81.8151 121.731 81.8684C121.659 81.9047 121.58 81.924 121.5 81.9252C120.928 81.9775 120.558 81.5978 120.035 81.5279C119.311 81.4319 119.159 81.8248 118.521 82.1434C117.517 82.6803 117.027 82.3704 116.854 81.6458Z" fill="#EBEBEB"/>
<path d="M108.666 82.0907C108.618 81.8847 108.589 81.6742 108.58 81.4622C108.506 80.1527 107.346 80.3622 106.333 80.1876C105.551 80.0479 107.617 77.9571 106.045 77.2849C105.739 77.196 105.471 76.9969 105.288 76.7219C105.208 76.5172 105.198 76.2891 105.26 76.0776C105.323 75.866 105.454 75.6846 105.63 75.5652C105.989 75.3366 106.404 75.2257 106.823 75.2465C107.078 74.9148 106.872 74.4172 106.621 74.0811C106.37 73.745 106.07 73.3565 106.165 72.9418C106.304 72.3133 107.136 72.2915 107.732 72.4137C107.9 72.0038 108.01 71.5699 108.057 71.126C108.164 70.6895 108.489 70.253 108.909 70.2923C109.329 70.3316 109.543 70.8161 109.93 70.9121C110.316 71.0082 110.753 70.6022 111.119 70.288C111.485 69.9737 112.086 69.7773 112.325 70.1919C112.473 70.4407 112.386 70.7856 112.534 71.0344C112.798 71.4709 113.415 71.1959 113.802 70.8947C114.189 70.5935 114.798 70.3185 115.069 70.7376C115.138 70.8748 115.188 71.0218 115.217 71.174C115.403 71.7284 115.97 72.0077 116.411 72.3657C116.851 72.7236 117.205 73.4351 116.822 73.8672C116.637 74.0854 116.312 74.1727 116.221 74.4434C116.106 74.7882 116.435 75.0937 116.695 75.3164C117.131 75.7092 117.209 76.8834 116.637 77.202C116.394 77.3373 116.04 77.381 115.983 77.6603C115.925 77.9397 116.168 78.0968 116.328 78.3063C116.43 78.4444 116.502 78.6041 116.539 78.7745C116.577 78.9449 116.579 79.1219 116.546 79.2933C116.513 79.4647 116.445 79.6264 116.347 79.7673C116.249 79.9081 116.123 80.0247 115.979 80.109C115.843 80.1789 115.674 80.2356 115.621 80.3884C115.599 80.5028 115.61 80.6215 115.654 80.7289C115.71 80.9417 115.729 81.1634 115.711 81.3836C115.716 81.4201 115.712 81.4573 115.7 81.492C115.689 81.5267 115.669 81.558 115.644 81.5832C115.619 81.6084 115.588 81.6268 115.555 81.6369C115.521 81.6469 115.486 81.6484 115.452 81.6411C114.629 81.6804 114.217 81.3705 113.715 82.1387C113.671 82.2148 113.612 82.2802 113.543 82.3308C113.472 82.3689 113.395 82.3897 113.316 82.3919C112.744 82.4399 112.37 82.0645 111.851 81.9947C111.127 81.8943 110.975 82.2915 110.337 82.6101C109.341 83.1208 108.856 82.8153 108.666 82.0907Z" fill="#EBEBEB"/>
<path d="M103.687 85.64C103.635 85.4346 103.605 85.2239 103.597 85.0115C103.522 83.702 102.362 83.9115 101.35 83.7369C100.572 83.5972 102.638 81.5064 101.062 80.8343C100.756 80.7437 100.489 80.545 100.305 80.2712C100.225 80.0664 100.216 79.8386 100.278 79.6273C100.341 79.416 100.471 79.2345 100.646 79.1145C101.005 78.8844 101.421 78.7734 101.839 78.7958C102.099 78.4641 101.889 77.9665 101.642 77.6304C101.395 77.2943 101.086 76.9058 101.181 76.4912C101.325 75.8626 102.152 75.8408 102.753 75.963C102.921 75.5532 103.03 75.1192 103.078 74.6754C103.185 74.2389 103.49 73.8024 103.926 73.8417C104.362 73.8809 104.559 74.3654 104.946 74.4615C105.395 74.575 105.769 74.1516 106.135 73.8373C106.502 73.523 107.102 73.3266 107.345 73.7413C107.489 73.9901 107.403 74.3349 107.555 74.5837C107.814 75.0202 108.436 74.7408 108.818 74.4396C109.201 74.1385 109.818 73.8678 110.09 74.2869C110.157 74.4249 110.207 74.5717 110.238 74.7234C110.419 75.2777 110.987 75.5571 111.427 75.915C111.868 76.2729 112.221 76.98 111.839 77.4165C111.654 77.6348 111.329 77.7221 111.238 77.9927C111.123 78.3375 111.452 78.6431 111.715 78.8657C112.147 79.2585 112.23 80.4327 111.654 80.7513C111.411 80.8866 111.057 80.9303 110.999 81.2096C110.942 81.489 111.189 81.6461 111.349 81.8556C111.451 81.9937 111.522 82.1534 111.56 82.3238C111.598 82.4942 111.6 82.6712 111.567 82.8426C111.533 83.014 111.465 83.1757 111.367 83.3166C111.269 83.4574 111.144 83.574 110.999 83.6583C110.859 83.7282 110.691 83.7849 110.641 83.9377C110.617 84.052 110.629 84.1714 110.674 84.2782C110.729 84.4913 110.747 84.713 110.728 84.9329C110.73 85.009 110.703 85.0827 110.654 85.1381C110.601 85.1771 110.537 85.1956 110.473 85.1904C109.65 85.2297 109.238 84.9198 108.736 85.688C108.691 85.7632 108.632 85.8284 108.563 85.8801C108.491 85.9177 108.413 85.9386 108.333 85.9412C107.761 85.9892 107.391 85.6138 106.868 85.544C106.144 85.4436 105.991 85.8408 105.354 86.1595C104.378 86.6701 103.889 86.3646 103.687 85.64Z" fill="#EBEBEB"/>
<path d="M105.205 90.1226C105.205 90.1226 107.283 93.2391 107.999 94.2256C108.715 95.2121 112.295 101.362 112.785 105.435C112.834 105.871 112.888 106.242 112.937 106.57C111.398 117.351 111.637 137.076 111.703 140.454H116.583C116.628 136.644 117.044 101.834 117.196 100.773C117.356 99.6468 119.397 95.3648 122.545 93.6058C125.693 91.8467 128.422 86.0239 128.422 86.0239H127.417C127.417 86.0239 125.553 89.59 122.891 91.5674C122.511 91.8456 122.114 92.0965 121.702 92.3181C121.708 90.1701 121.352 88.0382 120.648 86.0239L120.105 86.5521C120.838 89.7341 120.739 91.79 120.517 92.9379C119.515 93.4355 118.591 94.0919 117.776 94.8847C115.027 91.0916 113.484 82.4229 113.484 82.4229L112.781 82.8331C112.979 84.6233 113.282 86.3988 113.686 88.1496C114.2 90.3932 115.719 94.6184 116.422 96.5346C115.586 97.8222 114.896 99.2096 114.365 100.668C114.29 100.544 114.2 100.431 114.097 100.332C112.307 98.6167 108.941 90.5023 108.941 90.5023C108.118 88.6167 109.374 83.6668 109.374 83.6668H108.419L108.007 87.9968L105.637 85.2775L105.205 85.6572L107.711 89.075L109.003 93.405L105.637 89.4547L105.205 90.1226Z" fill="#E6E6E6"/>
<path d="M168.703 70.4107H167.469V68.2283H168.703C168.826 68.2271 168.944 68.1748 169.031 68.0825C169.118 67.9903 169.167 67.8655 169.168 67.735V35.3124C169.167 35.182 169.118 35.0572 169.031 34.9649C168.944 34.8726 168.826 34.8203 168.703 34.8192H167.469V32.6367H168.703C169.372 32.6379 170.013 32.9201 170.486 33.4217C170.958 33.9232 171.225 34.6031 171.226 35.3124V67.735C171.225 68.4443 170.958 69.1242 170.486 69.6258C170.013 70.1273 169.372 70.4096 168.703 70.4107Z" fill="#E0E0E0"/>
<path d="M172.131 149.376C172.048 149.256 171.94 149.158 171.815 149.091C171.69 149.023 171.551 148.988 171.411 148.988H163.547C163.407 148.988 163.269 149.023 163.144 149.091C163.019 149.158 162.91 149.256 162.827 149.376L160.05 153.392H174.909L172.131 149.376Z" fill="#E0E0E0"/>
<path d="M168.597 31.9731C168.606 31.8114 168.584 31.6494 168.532 31.4971C168.48 31.3448 168.399 31.2054 168.295 31.0874C168.19 30.9695 168.064 30.8755 167.924 30.8113C167.783 30.747 167.632 30.7139 167.48 30.7139C167.327 30.7139 167.176 30.747 167.036 30.8113C166.896 30.8755 166.769 30.9695 166.665 31.0874C166.56 31.2054 166.479 31.3448 166.427 31.4971C166.375 31.6494 166.353 31.8114 166.362 31.9731C166.358 32.0297 166.358 32.0866 166.362 32.1433V149.005H168.597V32.1433C168.601 32.0866 168.601 32.0297 168.597 31.9731Z" fill="#E0E0E0"/>
<path d="M167.469 72.2263H165.823C165.277 72.2263 164.754 71.9964 164.368 71.5871C163.982 71.1778 163.766 70.6227 163.766 70.0438V44.2122C163.766 43.6334 163.982 43.0783 164.368 42.669C164.754 42.2597 165.277 42.0298 165.823 42.0298H167.469V44.2122H165.823V70.0438H167.514L167.469 72.2263Z" fill="#E0E0E0"/>
<path d="M177.83 38.6343H182.965C182.965 38.6343 182.554 41.7596 178.587 42.6544L177.83 38.6343Z" fill="#EBEBEB"/>
<path d="M177.83 46.9316H182.965C182.965 46.9316 182.554 50.0569 178.587 50.9517L177.83 46.9316Z" fill="#EBEBEB"/>
<path d="M177.83 55.2295H182.965C182.965 55.2295 182.554 58.3548 178.587 59.2496L177.83 55.2295Z" fill="#EBEBEB"/>
<path d="M177.83 38.6343H182.965C182.965 38.6343 182.554 41.7596 178.587 42.6544L177.83 38.6343Z" fill="#EBEBEB"/>
<path d="M177.83 46.9316H182.965C182.965 46.9316 182.554 50.0569 178.587 50.9517L177.83 46.9316Z" fill="#EBEBEB"/>
<path d="M177.83 55.2295H182.965C182.965 55.2295 182.554 58.3548 178.587 59.2496L177.83 55.2295Z" fill="#EBEBEB"/>
<path d="M177.86 35.5259H168.28C167.398 35.5259 166.684 36.2841 166.684 37.2195V63.9764C166.684 64.9118 167.398 65.67 168.28 65.67H177.86C178.742 65.67 179.456 64.9118 179.456 63.9764V37.2195C179.456 36.2841 178.742 35.5259 177.86 35.5259Z" fill="#E0E0E0"/>
<path d="M172.432 35.5259H168.28C167.398 35.5259 166.684 36.2841 166.684 37.2195V63.9764C166.684 64.9118 167.398 65.67 168.28 65.67H172.432C173.314 65.67 174.029 64.9118 174.029 63.9764V37.2195C174.029 36.2841 173.314 35.5259 172.432 35.5259Z" fill="#EBEBEB"/>
<path d="M170.192 46.3643H160.296C159.414 46.3643 158.699 47.1225 158.699 48.0578V66.6873C158.699 67.6227 159.414 68.3809 160.296 68.3809H170.192C171.074 68.3809 171.789 67.6227 171.789 66.6873V48.0578C171.789 47.1225 171.074 46.3643 170.192 46.3643Z" fill="#E0E0E0"/>
<path d="M168.596 46.3643H160.296C159.414 46.3643 158.699 47.1225 158.699 48.0578V66.6873C158.699 67.6227 159.414 68.3809 160.296 68.3809H168.596C169.477 68.3809 170.192 67.6227 170.192 66.6873V48.0578C170.192 47.1225 169.477 46.3643 168.596 46.3643Z" fill="#EBEBEB"/>
<path d="M164.662 57.3462C166.685 57.3462 168.325 55.6069 168.325 53.4614C168.325 51.3159 166.685 49.5767 164.662 49.5767C162.64 49.5767 161 51.3159 161 53.4614C161 55.6069 162.64 57.3462 164.662 57.3462Z" fill="#F5F5F5"/>
<path d="M161 62.4273C161 63.1956 161.215 63.9467 161.617 64.5855C162.02 65.2244 162.592 65.7223 163.261 66.0163C163.93 66.3104 164.666 66.3873 165.377 66.2374C166.087 66.0875 166.74 65.7175 167.252 65.1742C167.764 64.6309 168.113 63.9387 168.254 63.1851C168.396 62.4316 168.323 61.6505 168.046 60.9406C167.769 60.2308 167.299 59.6241 166.697 59.1972C166.095 58.7703 165.387 58.5425 164.662 58.5425C163.691 58.5425 162.759 58.9518 162.073 59.6803C161.386 60.4088 161 61.397 161 62.4273Z" fill="#E0E0E0"/>
<path d="M164.284 60.2622C164.284 60.3623 164.312 60.4602 164.365 60.5435C164.417 60.6267 164.492 60.6916 164.579 60.73C164.666 60.7683 164.762 60.7783 164.855 60.7588C164.947 60.7392 165.032 60.691 165.099 60.6202C165.166 60.5494 165.211 60.4592 165.23 60.361C165.248 60.2627 165.239 60.1609 165.202 60.0684C165.166 59.9759 165.105 59.8968 165.027 59.8412C164.948 59.7856 164.856 59.7559 164.762 59.7559C164.635 59.7559 164.514 59.8092 164.424 59.9042C164.334 59.9991 164.284 60.1279 164.284 60.2622Z" fill="#F5F5F5"/>
<path d="M164.954 61.0519L165.189 61.3837C165.334 61.6326 165.546 61.8301 165.798 61.9511L166.349 62.213L166.258 62.4269L165.563 62.2479C165.347 62.1902 165.147 62.0796 164.979 61.9249L164.851 63.1558L164.637 63.5618C164.409 64.0091 164.115 64.4144 163.765 64.7621L163.567 64.9498L163.629 65.4212L163.127 64.8189L163.234 64.7098C163.697 64.2534 164.062 63.6966 164.304 63.0773L164.6 60.8643L164.954 61.0519Z" fill="#F5F5F5"/>
<path d="M165 63.2871L164.729 63.776L166.033 65.2077L166.346 64.6053L165.988 64.7363L165 63.2871Z" fill="#F5F5F5"/>
<path d="M164.436 60.9868L164.284 61.7245C163.91 61.8256 163.563 62.0185 163.272 62.2876L163.107 62.436L162.979 62.2919L163.494 61.7158C163.635 61.549 163.795 61.4023 163.971 61.2793L164.436 60.9868Z" fill="#F5F5F5"/>
<path d="M164.662 51.5933C164.923 51.5933 165.135 51.3685 165.135 51.0913C165.135 50.8141 164.923 50.5894 164.662 50.5894C164.4 50.5894 164.188 50.8141 164.188 51.0913C164.188 51.3685 164.4 51.5933 164.662 51.5933Z" fill="#E0E0E0"/>
<path d="M164.222 52.3702C163.949 52.617 163.735 52.9299 163.6 53.2825L163.522 53.4877H163.354L163.452 52.9901C163.509 52.7214 163.608 52.4646 163.744 52.2306L163.93 51.9206C163.976 51.8431 164.041 51.7792 164.117 51.735C164.193 51.6907 164.279 51.6675 164.366 51.6675H164.962C165.049 51.6675 165.135 51.6907 165.211 51.735C165.287 51.7792 165.352 51.8431 165.399 51.9206L165.58 52.2306C165.72 52.4628 165.819 52.7202 165.872 52.9901L165.975 53.4877H165.822L165.744 53.2825C165.609 52.9288 165.394 52.6155 165.119 52.3702V53.2432L165.567 56.3641L165.897 56.53H165.288L164.674 54.2035L164.065 56.53H163.456L163.786 56.3641L164.234 53.2432V52.3702H164.222Z" fill="#E0E0E0"/>
<path d="M102.625 176.988C153.982 176.988 195.614 174.41 195.614 171.23C195.614 168.049 153.982 165.471 102.625 165.471C51.2692 165.471 9.63672 168.049 9.63672 171.23C9.63672 174.41 51.2692 176.988 102.625 176.988Z" fill="#F5F5F5"/>
<path d="M134.072 61.0679L138.851 62.3932L134.481 65.9996L132.426 62.9154L134.072 61.0679Z" fill="#263238"/>
<path d="M120.919 63.9847C120.919 63.9847 119.096 63.7531 118.999 64.0882C118.901 64.4232 118.748 67.266 118.952 67.6946C119.185 68.0829 119.46 68.4416 119.77 68.7637L118.018 72.8382L120.156 74.3162L121.588 69.823C121.588 69.823 122.821 68.7883 122.635 67.2807C122.449 65.7731 120.919 63.9847 120.919 63.9847Z" fill="#EEC1BB"/>
<path opacity="0.2" d="M120.919 63.9847C120.919 63.9847 119.096 63.7531 118.999 64.0882C118.901 64.4232 118.748 67.266 118.952 67.6946C119.185 68.0829 119.46 68.4416 119.77 68.7637L118.018 72.8382L120.156 74.3162L121.588 69.823C121.588 69.823 122.821 68.7883 122.635 67.2807C122.449 65.7731 120.919 63.9847 120.919 63.9847Z" fill="black"/>
<path d="M127.214 62.1367C125.703 62.2993 120.774 72.8771 120.774 72.8771L117.729 71.2365C117.729 71.2365 113.786 77.5379 116.027 79.9323C118.268 82.3267 126.428 73.2269 126.428 73.2269L127.214 62.1367Z" fill="#263238"/>
<path d="M141.154 168.201H145.236C145.303 168.202 145.368 168.226 145.421 168.271C145.473 168.316 145.509 168.378 145.524 168.448L146.208 171.62C146.222 171.688 146.223 171.757 146.212 171.825C146.2 171.893 146.176 171.958 146.14 172.016C146.105 172.074 146.059 172.124 146.005 172.162C145.951 172.201 145.89 172.228 145.826 172.241H145.719C144.394 172.217 143.432 172.133 141.772 172.133C140.749 172.133 137.666 172.246 136.258 172.246C134.849 172.246 134.658 170.768 135.239 170.63C137.829 170.034 139.782 169.201 140.61 168.413C140.761 168.275 140.954 168.2 141.154 168.201Z" fill="#263238"/>
<path d="M123.83 168.088H127.912C127.98 168.088 128.045 168.113 128.097 168.158C128.149 168.203 128.186 168.265 128.201 168.334L128.865 171.507C128.892 171.644 128.866 171.786 128.793 171.902C128.721 172.018 128.608 172.099 128.48 172.128C128.444 172.133 128.408 172.133 128.373 172.128C127.047 172.103 126.085 172.019 124.43 172.019C123.407 172.019 120.32 172.133 118.911 172.133C117.502 172.133 117.316 170.655 117.892 170.517C120.482 169.921 122.435 169.088 123.263 168.3C123.42 168.156 123.622 168.08 123.83 168.088Z" fill="#263238"/>
<path d="M143.315 87.9683H125.47C123.773 97.7824 118.463 137.655 122.271 168.615H128.316C128.316 168.615 127.753 121.599 133.091 106.404C133.705 114.534 139.94 168.581 139.94 168.581H146.091C146.091 168.581 145.161 148.248 144.254 129.043C143.673 116.953 143.343 90.4514 143.315 87.9683Z" fill="#407BFF"/>
<path opacity="0.2" d="M133.086 106.404C132.208 109.067 131.542 111.802 131.096 114.583C130.593 107.35 132.593 99.6743 132.593 99.6743L133.086 106.404Z" fill="black"/>
<path d="M125.322 88.1943H143.287V90.4607L125.094 90.2242L125.322 88.1943Z" fill="black"/>
<path d="M137.514 87.1748H136.872V91.1951H137.514V87.1748Z" fill="#407BFF"/>
<path d="M128.423 87.1748H127.781V91.1951H128.423V87.1748Z" fill="#407BFF"/>
<path d="M133.509 87.7954H130.185V90.3327H133.509V87.7954Z" fill="white"/>
<path d="M146.073 62.1367C145.947 63.2797 145.803 64.6001 145.649 65.9993C145.547 66.896 145.445 67.837 145.333 68.8224C145.166 70.3546 144.989 71.9854 144.803 73.6901C144.757 74.1285 144.706 74.572 144.659 75.0252C144.194 79.1933 143.729 83.7161 143.287 88.1896H125.322C125.322 88.1896 123.955 74.5128 127.214 62.1367H146.073Z" fill="#263238"/>
<path opacity="0.2" d="M145.649 65.9995C145.547 66.8962 145.444 67.8372 145.333 68.8226C145.165 70.3548 144.989 71.9856 144.803 73.6903C144.477 71.5739 144.359 69.4276 144.449 67.2854L145.649 65.9995Z" fill="black"/>
<path d="M133.188 62.078C133.188 62.078 140.59 62.1863 140.409 62.078C140.228 61.9696 133.011 68.6799 133.011 68.6799L132.128 63.9058L133.188 62.078Z" fill="white"/>
<path opacity="0.1" d="M146.073 62.1367C145.947 63.2797 145.803 64.6001 145.649 65.9993C145.547 66.896 145.445 67.837 145.333 68.8224C145.166 70.3546 144.989 71.9854 144.803 73.6901C144.757 74.1285 144.706 74.572 144.659 75.0252C144.194 79.1933 143.729 83.7161 143.287 88.1896H125.322C125.322 88.1896 123.955 74.5128 127.214 62.1367H146.073Z" fill="white"/>
<path d="M139.471 62.4624C138.257 64.2607 134.454 64.5661 134.454 64.5661C134.454 64.5661 132.831 63.9798 133.156 63.0881C134.468 62.5412 134.17 62.1668 134.268 61.2455C134.307 60.6773 134.24 60.1066 134.072 59.5654C133.989 59.2649 133.882 58.9693 133.77 58.6737L137.611 54.0425C137.494 56.565 137.643 61.0829 139.471 62.4624Z" fill="#EEC1BB"/>
<path opacity="0.2" d="M137.015 56.5796C137.429 59.5357 135.337 60.8413 134.268 61.26C134.307 60.6919 134.24 60.1211 134.072 59.58L137.015 56.5796Z" fill="black"/>
<path d="M127.257 49.0662C127.257 49.0662 127.257 53.8255 129.842 55.2345C132.427 56.6436 131.181 47.9971 131.181 47.9971L127.257 49.0662Z" fill="#263238"/>
<path d="M137.126 57.8406C136.748 58.684 136.12 59.3727 135.337 59.8008C134.554 60.2289 133.66 60.3729 132.792 60.2104C131.666 60.0234 130.649 59.3893 129.947 58.4368C129.849 58.3087 129.761 58.1658 129.673 58.0229C128.12 55.3674 127.041 50.4603 129.607 48.1398C130.172 47.6229 130.851 47.2679 131.582 47.1088C132.313 46.9497 133.069 46.9917 133.78 47.2309C134.491 47.4702 135.132 47.8985 135.642 48.4751C136.152 49.0517 136.514 49.7572 136.693 50.5243C137.521 53.7859 138.149 55.663 137.126 57.8406Z" fill="#EEC1BB"/>
<path d="M132.379 53.0323C132.43 53.1294 132.444 53.2438 132.417 53.3514C132.39 53.459 132.325 53.5513 132.235 53.6087C132.072 53.6629 131.877 53.4954 131.793 53.2343C131.709 52.9731 131.793 52.7169 131.942 52.6627C132.091 52.6086 132.295 52.7711 132.379 53.0323Z" fill="#263238"/>
<path d="M129.596 54.0124C129.647 54.1087 129.66 54.2224 129.634 54.3292C129.607 54.436 129.541 54.5274 129.452 54.5839C129.289 54.643 129.094 54.4755 128.987 54.2144C128.88 53.9533 128.987 53.6971 129.131 53.6379C129.275 53.5788 129.517 53.766 129.596 54.0124Z" fill="#263238"/>
<path d="M130.519 53.8203C130.481 54.7209 130.324 55.6114 130.054 56.466C130.264 56.5348 130.485 56.5542 130.703 56.5227C130.92 56.4912 131.129 56.4096 131.314 56.2837L130.519 53.8203Z" fill="#D4827D"/>
<path d="M128.195 53.1555C128.223 53.1599 128.251 53.1563 128.277 53.145C128.303 53.1337 128.326 53.1153 128.343 53.0915C128.451 52.9239 128.594 52.7853 128.761 52.6869C128.928 52.5885 129.115 52.533 129.306 52.5249C129.347 52.5249 129.386 52.5077 129.414 52.4773C129.443 52.4468 129.459 52.4054 129.459 52.3623C129.459 52.3192 129.443 52.2778 129.414 52.2473C129.386 52.2168 129.347 52.1997 129.306 52.1997C129.064 52.2053 128.827 52.2717 128.615 52.3933C128.402 52.515 128.22 52.6884 128.083 52.8993C128.059 52.9334 128.048 52.9763 128.053 53.0187C128.058 53.0611 128.079 53.0997 128.111 53.1259C128.136 53.1438 128.165 53.154 128.195 53.1555Z" fill="#263238"/>
<path d="M132.561 51.6675C132.591 51.6564 132.617 51.6357 132.636 51.6083C132.651 51.5691 132.652 51.5249 132.637 51.4853C132.622 51.4457 132.593 51.4138 132.557 51.3965C132.335 51.2909 132.092 51.2434 131.85 51.2579C131.607 51.2725 131.371 51.3488 131.162 51.4803C131.145 51.4925 131.131 51.5082 131.121 51.5262C131.11 51.5442 131.102 51.5644 131.099 51.5854C131.095 51.6065 131.096 51.628 131.1 51.6489C131.105 51.6697 131.113 51.6894 131.125 51.7069C131.148 51.7408 131.183 51.7638 131.222 51.7712C131.261 51.7785 131.301 51.7696 131.334 51.7463C131.502 51.6487 131.688 51.5934 131.879 51.5849C132.071 51.5763 132.261 51.6147 132.436 51.697C132.458 51.7024 132.48 51.7025 132.502 51.6974C132.524 51.6922 132.544 51.682 132.561 51.6675Z" fill="#263238"/>
<path d="M133.221 47.3026L133.119 47.9972C134.226 48.0465 134.351 49.357 134.3 49.9679C134.179 51.3031 135.318 52.9831 136.388 53.4709C136.388 53.4709 136.276 52.9388 136.727 52.9388C137.178 52.9388 137.778 55.6978 137.308 57.235C137.308 57.235 138.238 55.6978 138.169 52.6333C138.113 49.8004 137.611 47.5735 136.829 46.7212L133.221 47.3026Z" fill="#263238"/>
<path d="M138.843 52.6873C138.732 53.5312 138.311 54.2946 137.671 54.8107C136.82 55.4857 136.011 54.7762 135.923 53.712C135.853 52.7661 136.197 51.2487 137.211 50.9974C137.432 50.9439 137.662 50.9502 137.881 51.0154C138.099 51.0807 138.299 51.203 138.461 51.3711C138.624 51.5392 138.744 51.7478 138.81 51.9777C138.877 52.2076 138.888 52.4516 138.843 52.6873Z" fill="#EEC1BB"/>
<path d="M131.732 57.2697C132.11 57.5499 132.469 57.8578 132.806 58.191L132.997 58.0334C133.867 57.314 134.043 56.6735 133.978 56.1858C133.942 55.9477 133.851 55.7228 133.713 55.5305C133.64 55.4177 133.553 55.3164 133.453 55.23C133.104 55.9281 132.617 56.5382 132.025 57.0184C131.849 57.1662 131.732 57.2697 131.732 57.2697Z" fill="#263238"/>
<path d="M132.026 57.0082L132.347 57.2742C133.166 56.5894 133.654 55.9932 133.714 55.5203C133.641 55.4074 133.554 55.3062 133.454 55.2197C133.105 55.9178 132.618 56.5279 132.026 57.0082Z" fill="white"/>
<path d="M132.997 58.0234C133.867 57.304 134.044 56.6635 133.979 56.1758C133.654 56.4501 133.378 56.7839 133.165 57.1612C133.023 57.4219 132.964 57.7243 132.997 58.0234Z" fill="#DE5753"/>
<path d="M137.786 48.5489C137.786 48.5489 138.144 45.4499 134.327 44.2774C130.509 43.1048 127.487 45.9377 127.222 47.4157C127.222 47.4157 125.321 48.9972 127.394 50.692L128.264 48.81C128.264 48.81 132.225 51.4853 137.786 48.5489Z" fill="#263238"/>
<path d="M124.935 66.9853C124.949 67.0253 124.955 67.0682 124.952 67.1109C124.949 67.1535 124.937 67.1949 124.917 67.2321C124.897 67.2693 124.869 67.3013 124.836 67.3259C124.803 67.3506 124.766 67.3672 124.726 67.3745L121.666 68.1086C121.582 68.1264 121.494 68.1119 121.418 68.0678C121.342 68.0236 121.284 67.9526 121.253 67.8672L119.239 61.6053C119.224 61.563 119.217 61.5178 119.219 61.4726C119.221 61.4274 119.232 61.3831 119.25 61.3425C119.269 61.3018 119.296 61.2657 119.328 61.2363C119.361 61.2069 119.398 61.1849 119.439 61.1717L122.499 60.4524C122.59 60.4438 122.681 60.4678 122.757 60.5205C122.834 60.5731 122.892 60.6515 122.922 60.7431L124.935 66.9853Z" fill="#263238"/>
<path opacity="0.5" d="M122.575 60.782L124.611 67.0785C124.629 67.1141 124.638 67.1536 124.638 67.1937C124.638 67.2338 124.629 67.2734 124.612 67.3091C124.595 67.3448 124.57 67.3756 124.539 67.3989C124.508 67.4222 124.472 67.4373 124.435 67.443L121.84 68.049C121.668 68.0884 121.324 68.049 121.268 67.8864L119.241 61.5654C119.181 61.388 119.446 61.1712 119.622 61.1318L122.217 60.5209C122.296 60.5111 122.376 60.5322 122.442 60.5802C122.508 60.6282 122.555 60.6999 122.575 60.782Z" fill="white"/>
<path d="M129.347 70.7983L127.408 68.3349C127.408 68.3349 125.958 64.6842 125.66 64.3393C125.362 63.9944 122.517 65.0734 122.196 65.1473C121.875 65.2212 123.01 68.9705 123.428 69.2661C123.847 69.5617 125.116 69.5026 125.116 69.5026L127.715 73.0548L129.347 70.7983Z" fill="#EEC1BB"/>
<path d="M128.976 69.8424L126.428 73.2271C126.428 73.2271 133.091 79.6714 136.294 81.2824C139.498 82.8935 146.035 71.7836 146.932 69.601C147.83 67.4184 147.904 62.8266 146.072 62.1369C144.24 61.4471 137.029 74.9466 136.308 75.1633C135.587 75.3801 128.976 69.8424 128.976 69.8424Z" fill="#263238"/>
<path d="M141.645 62.0777L140.032 60.2695L135.331 63.674L135.643 65.6693L133.118 68.379L132.425 65.0042L133.155 63.1024L134.085 61.0627L130.956 62.7723L130.198 64.7677L131.863 63.9055C131.863 63.9055 132.932 69.325 133.132 69.0984L137.084 65.0042L138.182 65.7629L141.645 62.0777Z" fill="#263238"/>
<path d="M76.3061 55.5486L73.7306 54.3159L70.9907 54.4131C70.9907 54.4131 65.1785 53.1493 67.754 69.0925L68.7836 69.3958L68.7277 67.9259L69.2605 69.5358L73.4839 70.7762L74.5628 69.6758L74.0365 70.9396L74.9575 71.2079L76.043 68.727L75.2897 71.3051L76.1384 71.5539C76.1384 71.5539 77.9474 68.3809 78.0593 59.8882L76.3061 55.5486Z" fill="#263238"/>
<path d="M78.9174 99.9092C78.9174 99.9092 82.6178 127.129 81.4403 132.282C80.2627 137.434 63.5993 164.265 63.5993 164.265L61.583 162.71C61.583 162.71 68.4905 143.333 73.727 134.634C74.7137 132.966 75.5722 131.799 75.9012 130.633C76.2893 129.268 75.4834 127.195 74.9144 125.613C73.8783 122.782 70.7041 114.009 70.7041 114.009C70.7041 114.009 67.6155 107.243 69.9969 100.66L78.9174 99.9092Z" fill="#EBB376"/>
<path d="M65.2736 170.258C64.536 168.99 64.2523 167.428 64.4841 165.914L64.8492 162.554L65.7077 161.427C65.7077 161.427 65.5038 159.972 64.4249 159.906C63.7586 159.857 63.1086 159.643 62.5172 159.276L61.8165 160.808C61.083 160.929 59.2147 164.623 58.501 166.28L58.8595 166.575C59.5311 165.815 60.1483 164.99 60.7048 164.11C59.7443 168.504 64.9808 172.12 65.4939 171.455C65.6814 171.21 65.5367 170.744 65.2736 170.258Z" fill="#263238"/>
<g opacity="0.1">
<path opacity="0.1" d="M71.5583 151.086L72.6833 136.461C70.0518 141.334 67.1277 148.283 64.9502 153.808C65.0982 156.581 65.2791 159.155 65.4469 161.259C66.9534 158.797 69.2098 155.076 71.5583 151.086Z" fill="black"/>
</g>
<path d="M74.5041 99.9092L69.3827 166.524L66.8993 166.501C66.8993 166.501 64.883 146.455 65.9125 135.528C66.1395 133.121 66.5901 131.422 66.7546 130.209C66.9059 129.089 66.6822 128.478 66.1855 125.807C64.8994 118.924 62.9588 105.793 65.5277 99.9092H74.5041Z" fill="#EBB376"/>
<path d="M74.5041 99.9092L69.3827 166.524L66.8993 166.501C66.8993 166.501 64.883 146.455 65.9125 135.528C66.1395 133.121 66.5901 131.422 66.7546 130.209C66.9059 129.089 66.6822 128.478 66.1855 125.807C64.8994 118.924 62.9588 105.793 65.5277 99.9092H74.5041Z" fill="#EBB376"/>
<path d="M73.8257 170.071C72.6076 169.525 71.6214 168.432 71.0824 167.03L69.7667 164.024L69.9279 162.519C69.9279 162.519 69.0628 161.462 68.1419 162.13C67.5713 162.543 66.9335 162.808 66.2703 162.908L66.4347 164.639C65.8887 165.23 66.1321 169.526 66.3459 171.366H66.7834C66.9679 170.289 67.0779 169.197 67.1123 168.099C68.428 172.357 74.477 171.809 74.5855 170.911C74.625 170.573 74.2763 170.293 73.8257 170.071Z" fill="#263238"/>
<path d="M66.4538 97.2185C66.4538 97.2185 62.3718 100.555 63.75 113.648C65.1282 126.74 64.9638 128.296 64.9638 128.296C70.5505 128.672 76.1543 128.477 81.7127 127.713C81.7127 127.713 81.7127 106.057 79.0056 96.9929L71.8712 96.8374L66.4538 97.2185Z" fill="#263238"/>
<path d="M66.7737 95.4375L65.0304 98.0818C64.9682 98.1435 64.9276 98.2302 64.9163 98.3252C64.905 98.4203 64.9238 98.5169 64.9691 98.5965C65.0144 98.6761 65.083 98.7331 65.1617 98.7565C65.2404 98.78 65.3237 98.7681 65.3955 98.7234C66.8888 98.2062 69.4051 97.5568 69.2012 99.1317C68.9117 101.368 74.3225 96.5574 74.7929 98.5484C75.1843 100.166 77.9342 98.3617 79.4308 98.3734C79.4938 98.3819 79.5575 98.3686 79.6143 98.3352C79.6711 98.3018 79.7186 98.2497 79.7509 98.1852C79.7832 98.1207 79.7991 98.0465 79.7965 97.9716C79.794 97.8966 79.7732 97.8242 79.7367 97.7629L78.5657 95.4298L69.7834 94.2632L66.7737 95.4375Z" fill="#407BFF"/>
<path opacity="0.2" d="M66.7737 95.4375L65.0304 98.0818C64.9682 98.1435 64.9276 98.2302 64.9163 98.3252C64.905 98.4203 64.9238 98.5169 64.9691 98.5965C65.0144 98.6761 65.083 98.7331 65.1617 98.7565C65.2404 98.78 65.3237 98.7681 65.3955 98.7234C66.8888 98.2062 69.4051 97.5568 69.2012 99.1317C68.9117 101.368 74.3225 96.5574 74.7929 98.5484C75.1843 100.166 77.9342 98.3617 79.4308 98.3734C79.4938 98.3819 79.5575 98.3686 79.6143 98.3352C79.6711 98.3018 79.7186 98.2497 79.7509 98.1852C79.7832 98.1207 79.7991 98.0465 79.7965 97.9716C79.794 97.8966 79.7732 97.8242 79.7367 97.7629L78.5657 95.4298L69.7834 94.2632L66.7737 95.4375Z" fill="white"/>
<path opacity="0.2" d="M69.6763 97.4707L69.0645 98.4778C69.1287 98.5666 69.1746 98.6719 69.1986 98.7852C69.2226 98.8986 69.2239 99.017 69.2026 99.1311C69.15 99.5199 69.2848 99.7027 69.5315 99.7299L69.9789 97.6379C69.9874 97.593 69.9826 97.5459 69.9655 97.5046C69.9483 97.4633 69.9197 97.4301 69.8844 97.4106C69.8491 97.3911 69.8092 97.3864 69.7714 97.3974C69.7335 97.4083 69.7 97.4342 69.6763 97.4707Z" fill="black"/>
<path opacity="0.2" d="M75.6981 99.2287L75.2508 97.3778C75.2353 97.3384 75.2096 97.3059 75.1775 97.2848C75.1454 97.2637 75.1085 97.2551 75.072 97.2603C75.0356 97.2654 75.0014 97.2841 74.9744 97.3136C74.9475 97.3431 74.9291 97.3818 74.9219 97.4244L74.8594 98.6688C74.9332 98.853 75.0534 99.0058 75.2036 99.106C75.3538 99.2063 75.5265 99.2492 75.6981 99.2287Z" fill="black"/>
<path d="M69.6516 64.7412C69.9806 66.7944 70.2832 70.5507 69.0596 71.9039C69.0596 71.9039 70.5628 73.4594 73.5001 75.0576C75.4407 73.1988 74.4441 71.9467 74.4441 71.9467C72.5199 71.3673 72.5824 69.6836 72.9146 68.097L69.6516 64.7412Z" fill="#EBB376"/>
<path opacity="0.2" d="M70.0232 66.7126C70.1219 68.0192 71.6678 69.1546 72.7401 69.3918C72.7649 68.9623 72.8244 68.5365 72.9177 68.1203L70.1482 65.2544C70.0511 65.7316 70.009 66.2221 70.0232 66.7126Z" fill="black"/>
<path d="M69.0265 60.0826C69.0265 63.5124 68.9409 64.9628 70.2994 66.8293C72.3453 69.6408 75.9076 68.9175 76.7924 65.5616C77.5884 62.5441 77.4831 57.4462 74.7333 55.8635C74.1288 55.5076 73.4572 55.3409 72.7826 55.3795C72.1081 55.4181 71.4532 55.6606 70.8806 56.0839C70.308 56.5073 69.8368 57.0972 69.5122 57.7973C69.1876 58.4974 69.0203 59.2843 69.0265 60.0826Z" fill="#EBB376"/>
<path d="M75.2779 62.0156C75.4498 62.6675 75.6977 63.2879 76.0147 63.8588C75.8893 63.9512 75.7485 64.0102 75.6019 64.0317C75.4554 64.0532 75.3066 64.0366 75.166 63.9832L75.2779 62.0156Z" fill="#D58745"/>
<path d="M72.3551 59.9191C72.3353 59.9128 72.3172 59.9008 72.3024 59.8841C72.2813 59.8586 72.2695 59.8244 72.2695 59.7888C72.2695 59.7532 72.2813 59.719 72.3024 59.6935C72.454 59.5126 72.64 59.3773 72.8448 59.2988C73.0497 59.2203 73.2675 59.201 73.48 59.2424C73.5092 59.2516 73.5343 59.2737 73.5502 59.304C73.5661 59.3344 73.5716 59.3708 73.5655 59.4058C73.5592 59.4407 73.5415 59.4713 73.5162 59.4909C73.491 59.5105 73.4603 59.5177 73.4306 59.5108C73.2518 59.4769 73.0688 59.4946 72.897 59.5623C72.7252 59.63 72.5697 59.7457 72.4439 59.8996C72.4313 59.9107 72.4168 59.9182 72.4014 59.9216C72.386 59.925 72.3701 59.9241 72.3551 59.9191Z" fill="#2E353A"/>
<path d="M77.3384 60.362C77.3192 60.3542 77.3014 60.3423 77.2858 60.327C77.1617 60.1771 77.0095 60.0638 76.8415 59.9962C76.6735 59.9287 76.4944 59.9088 76.3187 59.9381C76.2891 59.9463 76.2579 59.9403 76.232 59.9213C76.2061 59.9024 76.1876 59.8721 76.1806 59.837C76.1772 59.8194 76.1768 59.8012 76.1795 59.7834C76.1821 59.7656 76.1878 59.7486 76.196 59.7334C76.2043 59.7182 76.215 59.7051 76.2276 59.6948C76.2402 59.6846 76.2544 59.6774 76.2694 59.6737C76.4829 59.6336 76.7014 59.6543 76.9068 59.7341C77.1122 59.8139 77.2985 59.9505 77.4502 60.1326C77.4691 60.1536 77.4814 60.1815 77.4851 60.2118C77.4889 60.2421 77.4839 60.273 77.471 60.2995C77.458 60.326 77.4379 60.3466 77.4139 60.358C77.3898 60.3693 77.3632 60.3707 77.3384 60.362Z" fill="#2E353A"/>
<path d="M73.6426 61.4236C73.6426 61.6997 73.738 61.9369 73.8926 61.9485C74.0472 61.9602 74.182 61.7463 74.1985 61.4664C74.2149 61.1864 74.1031 60.957 73.9485 60.9453C73.7939 60.9336 73.659 61.1436 73.6426 61.4236Z" fill="#2E353A"/>
<path d="M76.2995 61.6384C76.283 61.9145 76.3948 62.1478 76.5494 62.1594C76.704 62.1711 76.8389 61.9611 76.8553 61.6812C76.8718 61.4012 76.76 61.1679 76.6054 61.1562C76.4508 61.1446 76.3126 61.3584 76.2995 61.6384Z" fill="#2E353A"/>
<path d="M76.5371 61.1634L77.1127 61.0195C77.1127 61.0195 76.7937 61.5095 76.5371 61.1634Z" fill="#2E353A"/>
<path d="M73.8818 60.9539L74.4542 60.8062C74.4542 60.8062 74.1351 61.3039 73.8818 60.9539Z" fill="#2E353A"/>
<path d="M74.5612 65.3982C74.6593 65.4286 74.7594 65.4495 74.8605 65.4604C74.8748 65.4615 74.8889 65.4561 74.8999 65.4452C74.911 65.4344 74.918 65.4189 74.9197 65.4021C74.9206 65.3851 74.916 65.3684 74.9069 65.3554C74.8977 65.3424 74.8846 65.334 74.8704 65.3321C74.6464 65.3146 74.4291 65.2351 74.236 65.1C74.0429 64.9649 73.8794 64.778 73.7586 64.5543C73.7554 64.5469 73.7509 64.5403 73.7455 64.535C73.7402 64.5296 73.7339 64.5255 73.7272 64.523C73.7205 64.5205 73.7134 64.5195 73.7064 64.5202C73.6994 64.521 73.6925 64.5233 73.6863 64.5271C73.68 64.5309 73.6744 64.5362 73.6699 64.5426C73.6653 64.5489 73.6619 64.5563 73.6598 64.5643C73.6576 64.5722 73.6568 64.5806 73.6574 64.5889C73.658 64.5972 73.66 64.6053 73.6632 64.6127C73.8653 65.002 74.1872 65.2835 74.5612 65.3982Z" fill="#2E353A"/>
<path d="M68.4746 72.4952L69.1588 71.2625L68.9713 70.6481C68.9541 70.6035 68.9472 70.5543 68.9514 70.5056C68.9555 70.4568 68.9706 70.4102 68.9951 70.3706C69.0195 70.331 69.0525 70.2999 69.0905 70.2803C69.1285 70.2607 69.1702 70.2535 69.2114 70.2593C70.1192 70.3643 72.448 70.582 73.7111 70.3254C73.7502 70.3177 73.7904 70.322 73.8276 70.338C73.8649 70.354 73.8981 70.3811 73.9239 70.4167C73.9497 70.4523 73.9673 70.4952 73.975 70.5412C73.9826 70.5872 73.9801 70.6347 73.9677 70.6792L73.7802 71.3481L75.8919 72.7091L75.6715 75.2716L74.494 76.4693L72.4941 75.9171L69.2311 74.0234L68.4746 72.4952Z" fill="#407BFF"/>
<path opacity="0.2" d="M68.4746 72.4952L69.1588 71.2625L68.9713 70.6481C68.9541 70.6035 68.9472 70.5543 68.9514 70.5056C68.9555 70.4568 68.9706 70.4102 68.9951 70.3706C69.0195 70.331 69.0525 70.2999 69.0905 70.2803C69.1285 70.2607 69.1702 70.2535 69.2114 70.2593C70.1192 70.3643 72.448 70.582 73.7111 70.3254C73.7502 70.3177 73.7904 70.322 73.8276 70.338C73.8649 70.354 73.8981 70.3811 73.9239 70.4167C73.9497 70.4523 73.9673 70.4952 73.975 70.5412C73.9826 70.5872 73.9801 70.6347 73.9677 70.6792L73.7802 71.3481L75.8919 72.7091L75.6715 75.2716L74.494 76.4693L72.4941 75.9171L69.2311 74.0234L68.4746 72.4952Z" fill="white"/>
<path d="M82.9961 85.0824L84.9697 80.9761L86.4761 78.1841H88.5813C88.6746 78.185 88.7647 78.2243 88.8361 78.2953C88.9076 78.3662 88.9559 78.4644 88.9727 78.5729L89.0615 79.0201C89.0849 79.143 89.0837 79.2706 89.058 79.3928C89.0323 79.5149 88.9828 79.6284 88.9135 79.724L87.5386 81.6138C87.4518 81.7329 87.3375 81.8195 87.2096 81.8627L86.0781 82.2515L83.9335 88.4071L82.9961 85.0824Z" fill="#EBB376"/>
<path d="M77.8975 72.9263C77.8975 72.9263 80.9006 73.144 82.2393 86.2524C82.2393 86.2524 82.3051 84.697 82.9958 84.697V84.1098C82.9957 84.0701 83.0053 84.0312 83.0234 83.9978C83.0415 83.9644 83.0675 83.9378 83.098 83.9214C83.1286 83.905 83.1625 83.8993 83.1958 83.9052C83.229 83.911 83.2601 83.928 83.2853 83.9543L85.2852 86.0891C85.3051 86.108 85.3211 86.132 85.3322 86.1593C85.3432 86.1865 85.3489 86.2164 85.3489 86.2466C85.3489 86.2768 85.3432 86.3066 85.3322 86.3339C85.3211 86.3611 85.3051 86.3851 85.2852 86.4041L84.7457 86.8979C84.7457 86.8979 83.532 92.2991 81.9367 92.2991C79.2231 92.2953 73.7629 73.8867 77.8975 72.9263Z" fill="#407BFF"/>
<path opacity="0.2" d="M77.8975 72.9263C77.8975 72.9263 80.9006 73.144 82.2393 86.2524C82.2393 86.2524 82.3051 84.697 82.9958 84.697V84.1098C82.9957 84.0701 83.0053 84.0312 83.0234 83.9978C83.0415 83.9644 83.0675 83.9378 83.098 83.9214C83.1286 83.905 83.1625 83.8993 83.1958 83.9052C83.229 83.911 83.2601 83.928 83.2853 83.9543L85.2852 86.0891C85.3051 86.108 85.3211 86.132 85.3322 86.1593C85.3432 86.1865 85.3489 86.2164 85.3489 86.2466C85.3489 86.2768 85.3432 86.3066 85.3322 86.3339C85.3211 86.3611 85.3051 86.3851 85.2852 86.4041L84.7457 86.8979C84.7457 86.8979 83.532 92.2991 81.9367 92.2991C79.2231 92.2953 73.7629 73.8867 77.8975 72.9263Z" fill="white"/>
<path opacity="0.1" d="M77.0534 76.3372L76.4219 77.2977C76.6324 81.5751 78.5204 87.7968 80.2637 90.6977C80.8165 88.9463 81.121 87.099 81.165 85.2304C81.2077 81.5868 78.8954 75.7578 78.8954 75.7578L77.0534 76.3372Z" fill="black"/>
<path d="M77.8973 72.9261C77.0157 72.6578 76.177 72.4517 75.3777 72.2922C76.2 74.9365 73.7627 75.6364 73.7627 75.6364C71.947 73.801 69.536 72.4789 68.638 72.0239C67.5327 72.1475 66.4452 72.4362 65.4014 72.8833L66.773 95.437H78.5748C78.5748 95.437 80.2589 87.8543 80.3839 83.643C80.5089 79.4317 77.8973 72.9261 77.8973 72.9261Z" fill="#407BFF"/>
<path opacity="0.1" d="M67.6771 76.3374C67.6771 76.3374 70.3578 81.1864 70.7427 86.576L72.4038 85.3783L74.226 88.2053C74.2564 88.2522 74.2765 88.3073 74.2845 88.3656C74.2925 88.4239 74.2881 88.4836 74.2718 88.5394C74.2555 88.5953 74.2278 88.6455 74.1911 88.6855C74.1544 88.7256 74.1099 88.7544 74.0616 88.7691L73.4037 88.9713C73.4037 88.9713 72.5715 93.0077 70.1868 93.2488C67.8021 93.4899 65.0029 85.7633 65.0029 85.7633L67.6771 76.3374Z" fill="black"/>
<path opacity="0.2" d="M70.5469 72.1294C71.7555 72.4184 72.9936 72.4944 74.221 72.3549C74.221 72.3549 74.5433 73.782 70.5469 72.1294Z" fill="black"/>
<path d="M71.8711 85.9607L75.736 81.7299L77.7885 78.7279C77.857 78.6268 77.9561 78.5613 78.0648 78.5452L81.1731 78.0591V78.2574C81.177 78.3681 81.1536 78.4778 81.1057 78.5731C81.0578 78.6683 80.9875 78.7451 80.9034 78.794L79.8245 79.4201L79.5318 81.8077C79.5188 81.895 79.4868 81.9767 79.4389 82.0449C79.3911 82.1131 79.329 82.1654 79.2588 82.1965L77.1043 83.1298L72.8579 88.3599L71.8711 85.9607Z" fill="#EBB376"/>
<path d="M71.5798 85.7357L72.0272 84.923C72.0577 84.8739 72.0976 84.8341 72.1436 84.8066C72.1896 84.7791 72.2404 84.7648 72.2919 84.7648C72.3435 84.7648 72.3943 84.7791 72.4403 84.8066C72.4863 84.8341 72.5262 84.8739 72.5567 84.923L74.0237 87.4155C74.0495 87.4634 74.0661 87.5173 74.0723 87.5736C74.0785 87.6298 74.0743 87.687 74.0599 87.741C74.0455 87.7951 74.0212 87.8448 73.9888 87.8867C73.9565 87.9285 73.9167 87.9615 73.8724 87.9833L73.0896 88.3293C73.0896 88.3293 71.9976 92.004 69.9812 91.9729C67.9649 91.9418 65.1724 88.4732 63.8139 81.2366C62.4554 74 65.4026 72.8917 65.4026 72.8917C65.4026 72.8917 68.3629 72.0868 70.1227 86.6845C70.1227 86.6767 70.797 85.7551 71.5798 85.7357Z" fill="#407BFF"/>
<path opacity="0.2" d="M71.5798 85.7357L72.0272 84.923C72.0577 84.8739 72.0976 84.8341 72.1436 84.8066C72.1896 84.7791 72.2404 84.7648 72.2919 84.7648C72.3435 84.7648 72.3943 84.7791 72.4403 84.8066C72.4863 84.8341 72.5262 84.8739 72.5567 84.923L74.0237 87.4155C74.0495 87.4634 74.0661 87.5173 74.0723 87.5736C74.0785 87.6298 74.0743 87.687 74.0599 87.741C74.0455 87.7951 74.0212 87.8448 73.9888 87.8867C73.9565 87.9285 73.9167 87.9615 73.8724 87.9833L73.0896 88.3293C73.0896 88.3293 71.9976 92.004 69.9812 91.9729C67.9649 91.9418 65.1724 88.4732 63.8139 81.2366C62.4554 74 65.4026 72.8917 65.4026 72.8917C65.4026 72.8917 68.3629 72.0868 70.1227 86.6845C70.1227 86.6767 70.797 85.7551 71.5798 85.7357Z" fill="white"/>
<path opacity="0.6" d="M75.1514 128.33L73.3028 117.33L72.918 128.432C73.6252 128.393 74.3718 128.393 75.1514 128.33Z" fill="black"/>
<path d="M86.5687 80.5635H85.2003C85.1515 80.5633 85.1036 80.5484 85.0609 80.5204C85.0182 80.4923 84.9823 80.452 84.9563 80.4031C84.9304 80.3542 84.9153 80.2983 84.9126 80.2407C84.9098 80.1831 84.9194 80.1256 84.9405 80.0735L87.5193 73.8246C87.5763 73.6882 87.6643 73.5733 87.7736 73.4929C87.8829 73.4125 88.0089 73.3698 88.1376 73.3696H89.506C89.5548 73.3699 89.6028 73.3847 89.6454 73.4128C89.6881 73.4408 89.724 73.4812 89.75 73.53C89.7759 73.5789 89.791 73.6348 89.7937 73.6924C89.7965 73.75 89.7869 73.8075 89.7658 73.8596L87.187 80.1085C87.1301 80.245 87.042 80.3598 86.9327 80.4402C86.8234 80.5206 86.6974 80.5633 86.5687 80.5635Z" fill="#407BFF"/>
<path opacity="0.2" d="M89.764 73.564C89.7425 73.5037 89.7064 73.4523 89.6601 73.4163C89.6138 73.3803 89.5596 73.3613 89.5042 73.3618H88.1358C88.0072 73.362 87.8811 73.4047 87.7718 73.4851C87.6625 73.5655 87.5745 73.6804 87.5175 73.8168L85.5801 78.5103L89.764 73.564Z" fill="white"/>
<path d="M89.5055 73.3616H89.4595C89.4565 73.3966 89.4487 73.4307 89.4365 73.4627L86.8577 79.7117C86.8016 79.8495 86.7139 79.966 86.6046 80.0478C86.4953 80.1296 86.3687 80.1735 86.2393 80.1744H84.9236C84.918 80.2228 84.9212 80.272 84.933 80.3188C84.9447 80.3656 84.9649 80.4088 84.992 80.4457C85.0191 80.4825 85.0525 80.512 85.0901 80.5323C85.1277 80.5526 85.1685 80.5631 85.2098 80.5632H86.5781C86.7068 80.563 86.8329 80.5203 86.9421 80.4399C87.0514 80.3596 87.1395 80.2447 87.1965 80.1083L89.7753 73.8594C89.7983 73.8061 89.8091 73.7467 89.8067 73.6869C89.8042 73.6272 89.7886 73.5693 89.7613 73.5189C89.734 73.4686 89.696 73.4276 89.6512 73.4C89.6063 73.3724 89.5561 73.3591 89.5055 73.3616Z" fill="#407BFF"/>
<path opacity="0.2" d="M89.5055 73.3616H89.4595C89.4565 73.3966 89.4487 73.4307 89.4365 73.4627L86.8577 79.7117C86.8016 79.8495 86.7139 79.966 86.6046 80.0478C86.4953 80.1296 86.3687 80.1735 86.2393 80.1744H84.9236C84.918 80.2228 84.9212 80.272 84.933 80.3188C84.9447 80.3656 84.9649 80.4088 84.992 80.4457C85.0191 80.4825 85.0525 80.512 85.0901 80.5323C85.1277 80.5526 85.1685 80.5631 85.2098 80.5632H86.5781C86.7068 80.563 86.8329 80.5203 86.9421 80.4399C87.0514 80.3596 87.1395 80.2447 87.1965 80.1083L89.7753 73.8594C89.7983 73.8061 89.8091 73.7467 89.8067 73.6869C89.8042 73.6272 89.7886 73.5693 89.7613 73.5189C89.734 73.4686 89.696 73.4276 89.6512 73.4C89.6063 73.3724 89.5561 73.3591 89.5055 73.3616Z" fill="black"/>
<path d="M88.4759 77.9891L87.9168 77.7324C87.836 77.6941 87.7497 77.675 87.6627 77.6763C87.5757 77.6777 87.4898 77.6994 87.4099 77.7403C87.3301 77.7812 87.2579 77.8403 87.1975 77.9144C87.1372 77.9885 87.0898 78.076 87.0583 78.1718L86.8576 78.7551C86.8107 78.8988 86.7993 79.0552 86.8247 79.2062L87.1536 81.2283L88.6305 78.6229C88.6606 78.5709 88.6806 78.5116 88.6891 78.4494C88.6976 78.3872 88.6943 78.3235 88.6795 78.263C88.6648 78.2024 88.6388 78.1464 88.6036 78.0991C88.5684 78.0517 88.5248 78.0142 88.4759 77.9891Z" fill="#EBB376"/>
<path d="M68.0838 61.3813C68.0838 61.3813 70.3337 64.2316 71.0441 61.704C71.7546 59.1765 72.1691 58.2704 73.4025 58.2043C74.636 58.1382 75.1031 56.3572 75.1031 56.3572C75.1031 56.3572 75.2939 57.9788 76.3892 58.7565C77.4845 59.5342 77.2411 67.0819 77.0207 69.6756C77.0207 69.6756 79.0765 66.6931 78.6094 59.7597C78.1424 52.8264 72.6888 54.0902 72.6888 54.0902C72.6888 54.0902 66.6332 52.9081 68.0838 61.3813Z" fill="#263238"/>
<path d="M68.1909 62.7311C68.3165 63.375 68.6523 63.9341 69.1251 64.2865C69.7599 64.7493 70.2796 64.1388 70.2763 63.3066C70.2763 62.56 69.9474 61.4168 69.2238 61.2924C69.0989 61.2745 68.9722 61.286 68.8511 61.3262C68.7299 61.3664 68.6167 61.4346 68.518 61.5268C68.4192 61.6189 68.3369 61.7333 68.2757 61.8632C68.2145 61.9932 68.1756 62.1362 68.1613 62.2839C68.1443 62.4338 68.1544 62.5862 68.1909 62.7311Z" fill="#EBB376"/>
<path d="M75.127 55.1597C75.127 55.1597 74.0679 57.6134 75.3573 58.7566C75.4007 58.7919 75.4527 58.8096 75.5053 58.807C75.558 58.8044 75.6085 58.7817 75.6493 58.7422C75.6901 58.7027 75.719 58.6487 75.7316 58.5882C75.7442 58.5277 75.7398 58.4639 75.7191 58.4066C75.334 57.3843 75.1324 56.2787 75.127 55.1597Z" fill="#263238"/>
</g>
<defs>
<clipPath id="clip0">
<rect width="206" height="194" fill="white"/>
</clipPath>
</defs>
</svg>
