<svg width="196" height="196" viewBox="0 0 196 196" fill="none" xmlns="http://www.w3.org/2000/svg">
<path d="M207 158.313H0V158.417H207V158.313Z" fill="#EBEBEB"/>
<path d="M149.868 161.601H136.156V161.705H149.868V161.601Z" fill="#EBEBEB"/>
<path d="M182.541 161.655H165.509V161.758H182.541V161.655Z" fill="#EBEBEB"/>
<path d="M155.643 164.358H147.698V164.461H155.643V164.358Z" fill="#EBEBEB"/>
<path d="M93.4275 163.576H72.0361V163.679H93.4275V163.576Z" fill="#EBEBEB"/>
<path d="M68.3517 163.576H54.1143V163.679H68.3517V163.576Z" fill="#EBEBEB"/>
<path d="M45.5939 161.829H26.2021V161.932H45.5939V161.829Z" fill="#EBEBEB"/>
<path d="M98.1184 139.849H18.1791C17.5529 139.848 16.9527 139.599 16.5103 139.155C16.0678 138.712 15.8193 138.112 15.8193 137.485V25.1133C15.8248 24.4906 16.0757 23.8953 16.5175 23.4565C16.9594 23.0178 17.5565 22.7711 18.1791 22.77H98.1184C98.7454 22.77 99.3466 23.0191 99.79 23.4624C100.233 23.9057 100.482 24.507 100.482 25.134V137.485C100.482 138.112 100.233 138.714 99.79 139.157C99.3466 139.6 98.7454 139.849 98.1184 139.849ZM18.1791 22.8528C17.5803 22.8539 17.0065 23.0926 16.5834 23.5163C16.1604 23.9401 15.9228 24.5145 15.9228 25.1133V137.485C15.9228 138.084 16.1604 138.658 16.5834 139.082C17.0065 139.506 17.5803 139.745 18.1791 139.746H98.1184C98.7176 139.745 99.2919 139.506 99.7156 139.082C100.139 138.659 100.378 138.084 100.379 137.485V25.1133C100.378 24.5141 100.139 23.9398 99.7156 23.5161C99.2919 23.0924 98.7176 22.8539 98.1184 22.8528H18.1791Z" fill="#EBEBEB"/>
<path d="M187.671 139.849H107.727C107.101 139.848 106.5 139.599 106.057 139.156C105.614 138.713 105.364 138.112 105.363 137.485V25.1133C105.37 24.4902 105.622 23.8949 106.064 23.4563C106.507 23.0176 107.104 22.7711 107.727 22.77H187.671C188.293 22.7722 188.889 23.0194 189.33 23.458C189.771 23.8966 190.021 24.4913 190.026 25.1133V137.485C190.026 138.111 189.778 138.711 189.337 139.154C188.895 139.597 188.296 139.847 187.671 139.849ZM107.727 22.8528C107.128 22.8539 106.554 23.0924 106.13 23.5161C105.706 23.9398 105.468 24.5141 105.467 25.1133V137.485C105.468 138.084 105.706 138.659 106.13 139.082C106.554 139.506 107.128 139.745 107.727 139.746H187.671C188.27 139.745 188.844 139.506 189.268 139.082C189.691 138.659 189.93 138.084 189.931 137.485V25.1133C189.93 24.5141 189.691 23.9398 189.268 23.5161C188.844 23.0924 188.27 22.8539 187.671 22.8528H107.727Z" fill="#EBEBEB"/>
<path d="M72.0645 15.79H14.3984V128.29H72.0645V15.79Z" fill="#F5F5F5"/>
<path d="M42.2281 128.294H27.1875V61.0773L42.2281 56.1631V128.294Z" fill="#EBEBEB"/>
<path d="M54.7848 128.294H39.7441V77.1779L54.7848 72.2637V128.294Z" fill="#E6E6E6"/>
<path d="M52.9878 75.7499H49.3984V63.5535L52.9878 62.3818V75.7499Z" fill="#E6E6E6"/>
<path d="M132.211 15.79H74.5449V128.29H132.211V15.79Z" fill="#F5F5F5"/>
<path d="M91.4734 88.3354H74.5449V128.295H91.4734V88.3354Z" fill="#E6E6E6"/>
<path d="M192.605 15.79H134.939V128.29H192.605V15.79Z" fill="#F5F5F5"/>
<path d="M180.044 128.295H167.807V47.4115L180.044 42.4932V128.295Z" fill="#EBEBEB"/>
<path d="M192.601 128.294H177.561V77.1779L192.601 72.2637V128.294Z" fill="#E6E6E6"/>
<path d="M138.69 128.291H168.772V88.5507L138.69 84.7295V128.291Z" fill="#E6E6E6"/>
<path d="M190.808 75.7499H189.012V63.5535L190.808 62.3818V75.7499Z" fill="#E6E6E6"/>
<path d="M184.938 78.6847H183.146V66.4883L184.938 65.3125V78.6847Z" fill="#E6E6E6"/>
<path d="M23.416 94.897H30.2677V128.294H18.9531V99.3599C18.9531 98.1762 19.4233 97.0411 20.2603 96.2041C21.0972 95.3672 22.2324 94.897 23.416 94.897Z" fill="#EBEBEB"/>
<path d="M72.0646 96.0688H57.0322V128.295H72.0646V96.0688Z" fill="#EBEBEB"/>
<path d="M106.506 101.062L91.4736 96.0688V128.295H106.506V101.062Z" fill="#EBEBEB"/>
<path d="M112.198 101.062L97.166 96.0688V128.295H112.198V101.062Z" fill="#E6E6E6"/>
<path d="M112.198 95.9445L127.231 90.9517V128.294H112.198V95.9445Z" fill="#F0F0F0"/>
<path opacity="0.5" d="M45.8915 128.29H30.3955L62.3356 15.79H77.8316L45.8915 128.29Z" fill="white"/>
<path opacity="0.5" d="M92.3427 128.29H76.8467L108.783 15.79H124.283L92.3427 128.29Z" fill="white"/>
<path opacity="0.5" d="M111.738 128.29H96.2422L128.182 15.79H143.678L111.738 128.29Z" fill="white"/>
<path opacity="0.5" d="M149.04 128.29H141.294L173.234 15.79H180.98L149.04 128.29Z" fill="white"/>
<path d="M45.8877 137.862C50.3589 113.883 62.1413 102.631 72.1684 96.9009C62.5636 105.984 56.0307 137.411 45.8877 137.862Z" fill="#FAFAFA"/>
<path d="M36.0883 135.974C32.7763 117.899 24.8151 110.828 18.0752 107.822C24.5791 113.511 29.3401 137.113 36.0883 135.974Z" fill="#FAFAFA"/>
<path d="M41.8761 140.76C40.601 114.761 30.6981 103.347 21.793 97.8657C29.8742 107.081 32.1844 141.112 41.8761 140.76Z" fill="#FAFAFA"/>
<path d="M41.876 138.529C43.946 112.405 54.9915 100.18 64.8116 93.9741C55.7947 103.844 52.3916 138.09 41.876 138.529Z" fill="#FAFAFA"/>
<path d="M43.5072 142.615C46.8192 115.779 39.4955 99.6084 32.0684 89.8877C38.0879 102.978 34.3288 138.409 43.5072 142.615Z" fill="#FAFAFA"/>
<path d="M53.8203 134.45C62.179 118.818 72.6656 115.092 80.7303 114.711C72.1978 117.675 60.7672 137.936 53.8203 134.45Z" fill="#FAFAFA"/>
<path d="M52.085 135.043C57.3552 117.328 67.3326 109.789 75.5298 106.303C67.403 112.372 59.9799 135.539 52.085 135.043Z" fill="#FAFAFA"/>
<path d="M42.8366 142.702C51.8452 114.918 47.7756 97.7868 42.2528 87.354C45.6186 101.235 34.362 137.945 42.8366 142.702Z" fill="#FAFAFA"/>
<path d="M27.5518 132.712V150.191C27.5518 154.658 35.6123 158.314 45.4697 158.314C55.3229 158.314 63.3876 154.658 63.3876 150.191V132.712H27.5518Z" fill="#F5F5F5"/>
<path d="M165.6 144.262C164.61 127.773 157.51 120.035 151.139 116.11C156.951 122.341 158.707 143.96 165.6 144.262Z" fill="#E0E0E0"/>
<path d="M172.489 142.975C176.306 130.555 182.384 125.678 187.261 123.608C182.313 127.512 177.014 143.753 172.489 142.975Z" fill="#E0E0E0"/>
<path d="M168.113 146.266C171.231 128.39 178.997 120.54 185.572 116.773C179.262 123.103 174.708 146.502 168.113 146.266Z" fill="#E0E0E0"/>
<path d="M168.307 144.73C169.135 126.763 162.636 118.358 156.446 114.094C161.77 120.888 161.141 144.428 168.307 144.73Z" fill="#E0E0E0"/>
<path d="M166.842 147.537C166.887 129.085 173.304 117.965 179.233 111.279C173.983 120.284 173.486 144.644 166.842 147.537Z" fill="#E0E0E0"/>
<path d="M160.487 141.923C156.103 131.159 149.243 128.609 143.753 128.348C149.338 130.385 155.419 144.32 160.487 141.923Z" fill="#E0E0E0"/>
<path d="M161.613 142.333C159.543 130.149 153.354 124.978 148.042 122.569C153.08 126.742 156.165 142.673 161.613 142.333Z" fill="#E0E0E0"/>
<path d="M167.29 147.599C163.518 128.493 167.786 116.715 172.469 109.544C168.966 119.083 173.491 144.325 167.29 147.599Z" fill="#E0E0E0"/>
<path d="M177.714 140.76V152.766C177.714 155.834 172.179 158.343 165.414 158.343C158.649 158.343 153.118 155.834 153.118 152.766V140.76H177.714Z" fill="#F5F5F5"/>
<path d="M103.5 177.01C147.832 177.01 183.77 174.911 183.77 172.323C183.77 169.735 147.832 167.637 103.5 167.637C59.1678 167.637 23.2295 169.735 23.2295 172.323C23.2295 174.911 59.1678 177.01 103.5 177.01Z" fill="#F5F5F5"/>
<path d="M110.538 53.3604V58.7879C110.537 59.1708 110.384 59.5377 110.114 59.8084C109.843 60.0791 109.476 60.2317 109.093 60.2328H95.7749C95.3921 60.2317 95.0252 60.0791 94.7545 59.8084C94.4837 59.5377 94.3312 59.1708 94.3301 58.7879V39.1105C94.3333 38.7291 94.4869 38.3643 94.7574 38.0954C95.0279 37.8264 95.3935 37.675 95.7749 37.6739H109.073C109.263 37.6717 109.452 37.7072 109.629 37.7783C109.806 37.8493 109.967 37.9546 110.104 38.088C110.24 38.2215 110.348 38.3805 110.423 38.556C110.497 38.7314 110.537 38.9199 110.538 39.1105V47.6969" fill="white"/>
<path d="M109.073 60.4688H95.7751C95.3359 60.4688 94.9147 60.2944 94.6042 59.9838C94.2936 59.6733 94.1191 59.252 94.1191 58.8128V39.1106C94.1191 38.6714 94.2936 38.2502 94.6042 37.9396C94.9147 37.6291 95.3359 37.4546 95.7751 37.4546H109.073C109.512 37.4546 109.933 37.6291 110.244 37.9396C110.554 38.2502 110.729 38.6714 110.729 39.1106V47.6969H110.29V39.1106C110.29 38.7812 110.159 38.4653 109.926 38.2324C109.693 37.9994 109.377 37.8686 109.048 37.8686H95.7751C95.4457 37.8686 95.1298 37.9994 94.8969 38.2324C94.664 38.4653 94.5331 38.7812 94.5331 39.1106V58.788C94.5331 59.1174 94.664 59.4333 94.8969 59.6662C95.1298 59.8992 95.4457 60.03 95.7751 60.03H109.073C109.402 60.03 109.718 59.8992 109.951 59.6662C110.184 59.4333 110.315 59.1174 110.315 58.788V53.3605H110.754V58.788C110.757 59.0097 110.716 59.2297 110.633 59.4352C110.549 59.6406 110.426 59.8272 110.269 59.984C110.112 60.1408 109.925 60.2644 109.72 60.3477C109.515 60.431 109.294 60.4722 109.073 60.4688Z" fill="#407BFF"/>
<path d="M101.43 57.5462C101.703 57.3753 101.987 57.2219 102.279 57.0867C102.414 57.0255 102.552 56.9716 102.693 56.9252C102.849 56.8618 103.014 56.824 103.182 56.8135L103.012 56.7183C102.983 56.6727 102.966 56.7886 102.958 56.8176L102.9 56.9625C102.851 57.0651 102.817 57.1737 102.797 57.2854C102.786 57.3252 102.785 57.367 102.794 57.4073C102.802 57.4476 102.821 57.4852 102.847 57.5169C102.874 57.5486 102.907 57.5734 102.945 57.5893C102.983 57.6052 103.025 57.6118 103.066 57.6083C103.5 57.5306 103.915 57.3689 104.287 57.1322H104.134C104.179 57.1322 104.233 57.1943 104.279 57.2109C104.347 57.2354 104.418 57.2493 104.49 57.2523C104.651 57.2523 104.813 57.2275 104.974 57.2523C105.227 57.2771 105.223 56.8839 104.974 56.8632C104.804 56.8632 104.626 56.9004 104.461 56.8632C104.295 56.8259 104.246 56.71 104.072 56.7886C103.898 56.8673 103.757 56.9708 103.587 57.0412C103.509 57.0745 103.429 57.1035 103.347 57.1281L103.19 57.1736C103.144 57.1736 103.062 57.1736 103.128 57.2399L103.186 57.3765C103.186 57.1115 103.467 56.8631 103.393 56.5899C103.318 56.3167 102.979 56.4367 102.776 56.4864C102.226 56.6458 101.703 56.8858 101.223 57.1985C101.178 57.2243 101.145 57.2669 101.132 57.317C101.118 57.3671 101.125 57.4205 101.151 57.4655C101.177 57.5105 101.219 57.5434 101.269 57.557C101.319 57.5706 101.373 57.5638 101.418 57.538L101.43 57.5462Z" fill="#E0E0E0"/>
<path d="M108.973 40.6094H95.8701V41.0441H108.973V40.6094Z" fill="#E0E0E0"/>
<path d="M107.491 43.6934H95.8701V44.1281H107.491V43.6934Z" fill="#E0E0E0"/>
<path d="M108.973 46.7822H95.8701V47.2169H108.973V46.7822Z" fill="#E0E0E0"/>
<path d="M99.4719 49.8706H95.8701V50.3053H99.4719V49.8706Z" fill="#E0E0E0"/>
<path d="M105.773 49.8706H100.983V50.3053H105.773V49.8706Z" fill="#E0E0E0"/>
<path d="M108.973 52.9546H95.8701V53.3893H108.973V52.9546Z" fill="#E0E0E0"/>
<path d="M97.6717 58.4694C97.2721 58.4694 96.8815 58.3509 96.5493 58.1289C96.217 57.9069 95.9581 57.5914 95.8052 57.2222C95.6522 56.853 95.6122 56.4468 95.6902 56.0549C95.7681 55.663 95.9606 55.303 96.2431 55.0205C96.5257 54.7379 96.8856 54.5455 97.2775 54.4675C97.6695 54.3896 98.0757 54.4296 98.4448 54.5825C98.814 54.7354 99.1295 54.9944 99.3515 55.3266C99.5735 55.6588 99.692 56.0495 99.692 56.449C99.692 56.9849 99.4792 57.4987 99.1003 57.8776C98.7214 58.2565 98.2075 58.4694 97.6717 58.4694ZM97.6717 54.8676C97.3579 54.8676 97.0512 54.9607 96.7903 55.1351C96.5295 55.3095 96.3263 55.5574 96.2064 55.8473C96.0865 56.1373 96.0553 56.4564 96.1168 56.764C96.1784 57.0717 96.3298 57.3543 96.552 57.5758C96.7741 57.7974 97.057 57.9481 97.3649 58.0088C97.6728 58.0696 97.9917 58.0376 98.2814 57.9169C98.571 57.7963 98.8184 57.5924 98.9921 57.3311C99.1658 57.0698 99.2581 56.7628 99.2573 56.449C99.2562 56.0292 99.0887 55.627 98.7914 55.3305C98.4942 55.034 98.0915 54.8676 97.6717 54.8676Z" fill="#407BFF"/>
<path d="M98.8631 56.4489C98.864 56.6849 98.7947 56.9158 98.6642 57.1125C98.5337 57.3091 98.3478 57.4625 98.13 57.5534C97.9122 57.6443 97.6723 57.6685 97.4408 57.623C97.2092 57.5774 96.9964 57.4642 96.8292 57.2976C96.662 57.131 96.5481 56.9186 96.5017 56.6872C96.4554 56.4558 96.4788 56.2158 96.5689 55.9977C96.659 55.7796 96.8118 55.5932 97.008 55.462C97.2041 55.3308 97.4348 55.2607 97.6708 55.2607C97.9863 55.2607 98.289 55.3858 98.5125 55.6085C98.7359 55.8312 98.862 56.1334 98.8631 56.4489Z" fill="#407BFF"/>
<path d="M105.604 56.0927C105.674 55.5256 105.875 54.9827 106.191 54.507C106.489 54.0558 106.85 53.679 107.181 53.2361C107.847 52.4081 108.539 51.5801 109.251 50.7521C110.65 49.125 112.07 47.5146 113.619 46.0035C113.658 45.9697 113.708 45.9507 113.76 45.9497C113.812 45.9488 113.862 45.966 113.903 45.9983C113.944 46.0306 113.972 46.0761 113.983 46.1269C113.993 46.1777 113.986 46.2307 113.962 46.2767C112.844 48.1273 111.598 49.8785 110.331 51.6132C109.694 52.4743 109.048 53.3313 108.386 54.1758C108.05 54.5898 107.744 55.037 107.371 55.4178C106.981 55.835 106.499 56.1554 105.964 56.3535C105.899 56.375 105.828 56.3707 105.766 56.3414C105.705 56.312 105.657 56.26 105.632 56.1962C105.616 56.1639 105.606 56.1287 105.604 56.0927Z" fill="#407BFF"/>
<path d="M106.675 70.7518L103.954 73.1245L104.24 73.4521L106.961 71.0794L106.675 70.7518Z" fill="#407BFF"/>
<path d="M103.434 67.0783L102.283 72.2129L102.707 72.3079L103.858 67.1733L103.434 67.0783Z" fill="#407BFF"/>
<path d="M99.3818 71.0129L99.0645 71.3101L100.578 72.9268L100.896 72.6296L99.3818 71.0129Z" fill="#407BFF"/>
<path d="M128.348 169.258H125.047L124.644 161.617H127.941L128.348 169.258Z" fill="#7F3E3B"/>
<path d="M144.99 169.258H141.689L140.397 161.617H143.695L144.99 169.258Z" fill="#7F3E3B"/>
<path d="M141.475 168.875H145.179C145.244 168.874 145.307 168.896 145.357 168.937C145.406 168.978 145.44 169.036 145.451 169.1L145.963 172.032C145.974 172.105 145.968 172.18 145.947 172.251C145.926 172.322 145.89 172.388 145.842 172.444C145.793 172.5 145.733 172.545 145.666 172.575C145.598 172.606 145.525 172.622 145.451 172.622C144.159 172.598 143.535 172.521 141.902 172.521C140.901 172.521 138.197 172.626 136.812 172.626C135.427 172.626 135.311 171.256 135.881 171.132C138.453 170.577 140.078 169.809 140.924 169.08C141.077 168.948 141.273 168.875 141.475 168.875Z" fill="#263238"/>
<path d="M124.966 168.875H128.566C128.63 168.874 128.693 168.896 128.743 168.937C128.793 168.978 128.826 169.036 128.837 169.1L129.349 172.032C129.361 172.105 129.357 172.18 129.337 172.251C129.317 172.322 129.282 172.388 129.234 172.444C129.186 172.5 129.126 172.545 129.059 172.576C128.992 172.606 128.919 172.622 128.845 172.622C127.549 172.598 125.672 172.521 124.039 172.521C122.13 172.521 121.645 172.626 119.403 172.626C118.05 172.626 117.739 171.256 118.313 171.132C120.92 170.57 121.863 170.508 124.155 169.134C124.397 168.976 124.677 168.886 124.966 168.875Z" fill="#263238"/>
<path d="M124.861 66.5103L120.354 65.1875C120.354 65.1875 115.761 76.0992 114.206 76.8246C112.092 77.7944 106.448 80.7696 104.058 82.1738C103.895 82.713 103.891 84.1909 104.151 84.6176C108.065 84.3073 116.095 81.6501 117.639 80.1683C121.161 76.7858 124.861 66.5103 124.861 66.5103Z" fill="#7F3E3B"/>
<path d="M126.226 64.4508C127.506 67.3058 118.716 79.8273 118.716 79.8273L114.449 75.3975C114.449 75.3975 118.224 65.921 120.268 62.2863C122.355 58.5508 124.833 61.3088 126.226 64.4508Z" fill="#407BFF"/>
<path opacity="0.4" d="M126.226 64.4508C127.506 67.3058 118.716 79.8273 118.716 79.8273L114.449 75.3975C114.449 75.3975 118.224 65.921 120.268 62.2863C122.355 58.5508 124.833 61.3088 126.226 64.4508Z" fill="white"/>
<path d="M114.14 75.0056C113.872 75.1647 113.298 76.2081 113.17 76.7279C113.042 77.2477 116.044 81.2586 117.212 81.0957C118.38 80.9328 119.714 79.7962 119.954 79.1833C120.195 78.5705 114.702 74.6759 114.14 75.0056Z" fill="#407BFF"/>
<path d="M104.559 81.9262L101.844 81.4297L102.007 85.3087C102.007 85.3087 102.961 85.6966 105.017 84.4243L104.559 81.9262Z" fill="#7F3E3B"/>
<path d="M98.5615 82.7209L99.058 85.1066L101.987 85.3238L101.824 81.4331L98.5615 82.7209Z" fill="#7F3E3B"/>
<path opacity="0.2" d="M124.644 161.621L124.853 165.558H128.15L127.945 161.621H124.644Z" fill="black"/>
<path opacity="0.2" d="M143.699 161.621H140.397L141.065 165.558H144.366L143.699 161.621Z" fill="black"/>
<path d="M122.033 60.5563C122.033 60.5563 117.631 71.8909 120.447 90.4443H138.093C138.341 87.729 137.317 73.1477 140.525 60.3857C138.586 60.0075 136.624 59.7574 134.652 59.637C132.153 59.4934 129.648 59.4934 127.15 59.637C125.423 59.8126 123.713 60.12 122.033 60.5563Z" fill="#407BFF"/>
<path opacity="0.2" d="M122.033 60.5563C122.033 60.5563 117.631 71.8909 120.447 90.4443H138.093C138.341 87.729 137.317 73.1477 140.525 60.3857C138.586 60.0075 136.624 59.7574 134.652 59.637C132.153 59.4934 129.648 59.4934 127.15 59.637C125.423 59.8126 123.713 60.12 122.033 60.5563Z" fill="black"/>
<path opacity="0.2" d="M136.541 63.5357C136.153 65.6381 136.568 70.6615 138.295 76.4684C138.505 71.483 139.154 66.5258 140.234 61.6543V61.6311C139.063 61.5108 136.918 61.5651 136.541 63.5357Z" fill="black"/>
<path d="M134.008 52.6235C133.418 55.0363 133.042 58.027 134.652 59.6368C134.652 59.6368 133.566 62.0884 129.082 62.0884C124.982 62.0884 127.142 59.6368 127.142 59.6368C129.857 58.9968 129.885 55.6686 129.504 53.7911L134.008 52.6235Z" fill="#7F3E3B"/>
<path d="M129.102 62.0842C131.743 62.9104 132.267 63.7561 132.267 63.7561C132.267 63.7561 135.56 62.4178 135.436 59.5163C135.036 59.2205 134.604 58.9707 134.148 58.7715C134.148 58.7715 133.869 60.9205 129.102 62.0842Z" fill="#407BFF"/>
<path d="M129.101 62.0846C127.619 62.2242 126.386 63.4927 126.386 63.4927C126.386 63.4927 125.443 62.5035 126.347 59.633C126.347 59.633 127.228 59.3344 127.957 59.1792C127.937 59.1831 127.344 61.464 129.101 62.0846Z" fill="#407BFF"/>
<path opacity="0.2" d="M129.512 53.795C129.737 54.8928 129.823 56.5103 129.303 57.7555C129.727 57.686 130.138 57.5554 130.525 57.3676C132.076 56.6539 132.875 55.5251 133.736 53.8765C133.814 53.4459 133.907 53.027 134.008 52.6235L129.512 53.795Z" fill="black"/>
<path d="M128.989 44.912C127.934 45.2572 125.575 47.2821 127.825 48.3023C130.075 49.3224 130.827 44.3146 128.989 44.912Z" fill="#263238"/>
<path d="M136.107 49.6715C135.079 52.8368 134.637 54.7143 132.616 56.0331C129.579 57.9727 126.068 55.6452 126.15 52.3015C126.22 49.272 127.888 44.6055 131.305 44.0042C134.722 43.403 137.135 46.5179 136.107 49.6715Z" fill="#7F3E3B"/>
<path d="M131.15 46.2076C129.404 46.5024 127.949 46.4093 127.422 44.9585C126.894 43.5078 129.295 41.9872 130.952 42.6699C132.174 41.3976 135.51 42.3751 135.94 43.597C137.88 43.4729 139.715 45.7072 138.4 46.8515C138.697 47.0363 138.948 47.2864 139.135 47.5829C139.321 47.8794 139.437 48.2144 139.475 48.5626C139.512 48.9107 139.469 49.2628 139.35 49.5921C139.231 49.9213 139.039 50.2192 138.787 50.4629C139.354 52.1464 137.313 53.826 135.704 53.1433C134.117 52.6701 133.252 53.058 133.031 52.0339C132.81 51.0098 133.368 50.0207 134.718 49.8229C134.036 49.0083 133.869 47.7204 134.33 47.1657C132.697 47.9066 131.359 46.9756 131.15 46.2076Z" fill="#263238"/>
<path d="M129.055 53.0309C129.364 53.0568 129.674 53.0215 129.969 52.927C130.264 52.8325 130.537 52.6806 130.773 52.4801C130.788 52.465 130.796 52.4448 130.796 52.4239C130.796 52.4029 130.788 52.3828 130.773 52.3676C130.767 52.3601 130.758 52.3541 130.749 52.35C130.739 52.3459 130.729 52.3438 130.719 52.3438C130.709 52.3438 130.699 52.3459 130.689 52.35C130.68 52.3541 130.672 52.3601 130.665 52.3676C130.406 52.5823 130.102 52.7357 129.776 52.8163C129.449 52.8969 129.109 52.9027 128.78 52.8331C128.759 52.8296 128.738 52.8341 128.721 52.8456C128.703 52.8572 128.691 52.8749 128.686 52.8952C128.684 52.9049 128.683 52.9151 128.684 52.9251C128.686 52.9352 128.689 52.9448 128.695 52.9533C128.7 52.9618 128.708 52.9689 128.716 52.9743C128.725 52.9797 128.735 52.9831 128.745 52.9844C128.847 53.0051 128.951 53.0207 129.055 53.0309Z" fill="#263238"/>
<path d="M136.289 54.0434C135.629 54.559 134.795 54.7994 133.962 54.7145C132.88 54.5943 132.798 53.5275 133.477 52.7207C134.09 51.9914 135.393 51.1691 136.297 51.7044C137.201 52.2397 137.1 53.3995 136.289 54.0434Z" fill="#7F3E3B"/>
<path d="M132.046 90.4443C132.046 90.4443 131.596 94.5949 131.022 100.216C130.362 106.589 129.544 114.863 129.024 121.162C129.024 121.193 129.024 121.221 129.024 121.248C128.923 122.446 128.834 123.575 128.76 124.591C128.023 134.875 129.342 164.79 129.342 164.79H123.748C123.748 164.79 118.597 134.262 118.725 123.796C118.845 113.738 120.443 90.4365 120.443 90.4365L132.046 90.4443Z" fill="#407BFF"/>
<path d="M129.8 162.606C129.827 162.606 129.703 164.91 129.703 164.91H123.26L123.097 162.381L129.8 162.606Z" fill="#263238"/>
<path opacity="0.2" d="M131.041 100.215C130.381 106.588 129.563 114.862 129.043 121.162C129.043 121.193 129.043 121.22 129.043 121.247C127.814 115.27 127.429 107.837 127.907 95.5991L131.041 100.215Z" fill="black"/>
<path d="M126.704 90.4443C126.704 90.4443 129.28 114.285 130.882 123.73C132.639 134.076 139.575 164.794 139.575 164.794H145.618C145.618 164.794 141.545 134.925 140.746 124.669C139.885 113.552 138.105 90.4443 138.105 90.4443H126.704Z" fill="#407BFF"/>
<path d="M145.692 162.746C145.719 162.746 145.901 164.91 145.901 164.91H139.26L138.775 162.494L145.692 162.746Z" fill="#263238"/>
<path d="M130.626 49.5317C130.556 49.7916 130.366 49.9739 130.199 49.9196C130.033 49.8653 129.951 49.6403 130.017 49.3804C130.083 49.1205 130.277 48.9382 130.444 48.9925C130.611 49.0468 130.692 49.2834 130.626 49.5317Z" fill="#263238"/>
<path d="M127.725 48.8961C127.655 49.156 127.465 49.3383 127.298 49.284C127.131 49.2297 127.05 49.0086 127.116 48.7448C127.182 48.481 127.376 48.3026 127.542 48.3569C127.709 48.4112 127.791 48.6362 127.725 48.8961Z" fill="#263238"/>
<path d="M129.078 49.2295C128.565 49.9604 127.958 50.6215 127.274 51.1962C127.616 51.7237 128.438 51.6966 128.438 51.6966L129.078 49.2295Z" fill="#630F0F"/>
<path d="M132.205 48.772C132.182 48.7659 132.161 48.7547 132.143 48.7393C132.124 48.7238 132.11 48.7045 132.1 48.6827C132.032 48.5034 131.921 48.3436 131.776 48.2177C131.631 48.0919 131.457 48.0037 131.27 47.9612C131.25 47.9585 131.231 47.9516 131.213 47.9409C131.196 47.9303 131.181 47.9161 131.169 47.8993C131.157 47.8826 131.149 47.8635 131.145 47.8435C131.141 47.8234 131.142 47.8027 131.146 47.7828C131.154 47.7416 131.177 47.7049 131.211 47.6803C131.245 47.6558 131.287 47.6452 131.328 47.6509C131.567 47.6997 131.789 47.8077 131.975 47.965C132.161 48.1223 132.304 48.3237 132.391 48.5509C132.406 48.5901 132.405 48.6335 132.39 48.6723C132.374 48.7111 132.344 48.7425 132.306 48.7603C132.275 48.7754 132.239 48.7795 132.205 48.772Z" fill="#263238"/>
<path d="M127.162 47.5694C127.141 47.5607 127.121 47.5489 127.104 47.5345C127.089 47.5201 127.078 47.5029 127.07 47.4839C127.062 47.4649 127.058 47.4445 127.058 47.424C127.058 47.4034 127.062 47.383 127.07 47.364C127.078 47.345 127.089 47.3278 127.104 47.3134C127.268 47.1232 127.475 46.9747 127.707 46.8803C127.94 46.7859 128.192 46.7482 128.442 46.7703C128.462 46.7731 128.482 46.78 128.499 46.7906C128.517 46.8013 128.532 46.8155 128.543 46.8322C128.555 46.849 128.563 46.868 128.567 46.8881C128.571 46.9082 128.571 46.9288 128.566 46.9488C128.558 46.9895 128.534 47.0257 128.501 47.0501C128.467 47.0745 128.425 47.0854 128.384 47.0807C128.185 47.0659 127.986 47.0983 127.802 47.1752C127.618 47.252 127.454 47.3711 127.325 47.5229C127.304 47.5441 127.278 47.5596 127.25 47.5678C127.221 47.576 127.191 47.5765 127.162 47.5694Z" fill="#263238"/>
<path d="M142.48 64.8887L138.313 67.41C138.313 67.41 142.968 77.4956 142.941 79.1907C142.864 82.356 144.225 89.218 143.857 92.8333C144.369 93.0156 145.796 93.0583 146.246 92.8061C147.072 89.5361 148.217 80.944 147.887 78.7912C147.165 74.1092 142.48 64.8887 142.48 64.8887Z" fill="#7F3E3B"/>
<path d="M140.525 60.3851C143.628 60.839 148.05 76.5879 148.05 76.5879L142.309 78.764C142.309 78.764 137.309 70.2301 136.084 66.3937C134.765 62.3906 137.201 59.8964 140.525 60.3851Z" fill="#407BFF"/>
<path opacity="0.4" d="M140.525 60.3851C143.628 60.839 148.05 76.5879 148.05 76.5879L142.309 78.764C142.309 78.764 137.309 70.2301 136.084 66.3937C134.765 62.3906 137.201 59.8964 140.525 60.3851Z" fill="white"/>
<path d="M140.351 169.452C140.129 169.472 139.907 169.411 139.726 169.282C139.668 169.232 139.625 169.167 139.6 169.095C139.575 169.023 139.569 168.946 139.583 168.871C139.585 168.824 139.6 168.78 139.625 168.741C139.65 168.702 139.685 168.671 139.726 168.65C140.114 168.463 141.134 169.115 141.251 169.193C141.263 169.2 141.273 169.212 141.279 169.226C141.285 169.24 141.286 169.256 141.282 169.27C141.278 169.285 141.27 169.299 141.259 169.31C141.248 169.321 141.235 169.328 141.22 169.332C140.936 169.406 140.644 169.446 140.351 169.452ZM139.897 168.758C139.862 168.756 139.827 168.763 139.796 168.778C139.78 168.786 139.766 168.799 139.756 168.815C139.747 168.83 139.742 168.848 139.742 168.867C139.732 168.919 139.735 168.972 139.751 169.022C139.768 169.072 139.796 169.118 139.835 169.154C140.005 169.305 140.436 169.324 140.998 169.212C140.666 168.988 140.291 168.833 139.897 168.758Z" fill="#407BFF"/>
<path d="M141.203 169.336C141.192 169.339 141.18 169.339 141.169 169.336C140.835 169.154 140.21 168.428 140.3 168.06C140.314 168.003 140.347 167.952 140.393 167.916C140.44 167.879 140.497 167.859 140.556 167.858C140.614 167.85 140.674 167.855 140.731 167.872C140.788 167.888 140.84 167.917 140.885 167.955C141.254 168.269 141.273 169.224 141.273 169.262C141.273 169.277 141.27 169.291 141.263 169.304C141.256 169.317 141.246 169.328 141.234 169.336C141.224 169.338 141.214 169.338 141.203 169.336ZM140.602 167.982H140.567C140.466 167.982 140.455 168.041 140.451 168.06C140.397 168.277 140.792 168.836 141.118 169.08C141.117 168.709 140.999 168.348 140.781 168.048C140.731 168.005 140.668 167.982 140.602 167.982Z" fill="#407BFF"/>
<path d="M123.566 169.452C123.286 169.479 123.005 169.407 122.771 169.25C122.72 169.201 122.681 169.14 122.659 169.072C122.636 169.005 122.631 168.933 122.643 168.863C122.647 168.819 122.662 168.777 122.687 168.741C122.711 168.704 122.744 168.674 122.782 168.653C123.194 168.428 124.489 169.103 124.637 169.181C124.65 169.189 124.661 169.201 124.668 169.216C124.674 169.23 124.675 169.247 124.671 169.262C124.669 169.279 124.661 169.294 124.649 169.305C124.637 169.317 124.622 169.325 124.606 169.328C124.263 169.401 123.916 169.442 123.566 169.452ZM123 168.758C122.949 168.755 122.899 168.764 122.852 168.785C122.837 168.794 122.824 168.806 122.815 168.821C122.805 168.836 122.8 168.853 122.798 168.87C122.79 168.916 122.794 168.963 122.809 169.007C122.824 169.051 122.849 169.091 122.883 169.122C123.077 169.301 123.616 169.332 124.353 169.212C123.932 168.983 123.474 168.829 123 168.758Z" fill="#407BFF"/>
<path d="M124.593 169.336H124.558C124.171 169.158 123.395 168.444 123.492 168.072C123.492 167.982 123.581 167.874 123.794 167.854C123.871 167.845 123.948 167.851 124.022 167.874C124.096 167.897 124.163 167.935 124.221 167.986C124.609 168.332 124.671 169.22 124.675 169.259C124.675 169.273 124.671 169.286 124.664 169.298C124.657 169.311 124.648 169.321 124.636 169.328C124.623 169.336 124.608 169.339 124.593 169.336ZM123.849 167.982H123.802C123.662 167.982 123.651 168.052 123.647 168.068C123.6 168.293 124.108 168.844 124.504 169.096C124.484 168.725 124.349 168.369 124.116 168.079C124.043 168.014 123.947 167.98 123.849 167.982Z" fill="#407BFF"/>
<path d="M153.791 96.022L133.963 98.6078C133.094 98.7211 132.482 99.5173 132.595 100.386L134.283 113.333C134.397 114.202 135.193 114.815 136.062 114.701L155.89 112.116C156.759 112.002 157.371 111.206 157.258 110.337L155.57 97.39C155.456 96.5212 154.66 95.9087 153.791 96.022Z" fill="#263238"/>
<path opacity="0.3" d="M153.791 96.022L133.963 98.6078C133.094 98.7211 132.482 99.5173 132.595 100.386L134.283 113.333C134.397 114.202 135.193 114.815 136.062 114.701L155.89 112.116C156.759 112.002 157.371 111.206 157.258 110.337L155.57 97.39C155.456 96.5212 154.66 95.9087 153.791 96.022Z" fill="black"/>
<path d="M142.945 100.301C142.613 100.3 142.291 100.19 142.03 99.9865C141.713 99.7419 141.505 99.3823 141.452 98.9857L141.102 96.2936C141.077 96.0975 141.09 95.8982 141.142 95.7072C141.193 95.5162 141.282 95.3373 141.402 95.1806C141.523 95.0238 141.674 94.8925 141.845 94.7939C142.017 94.6954 142.206 94.6316 142.402 94.6062L146.882 94.0205C147.279 93.9688 147.68 94.0766 147.997 94.3202C148.314 94.5639 148.521 94.9235 148.574 95.32L148.927 98.012C148.976 98.4082 148.868 98.808 148.624 99.1247C148.381 99.4413 148.023 99.6492 147.627 99.7033L143.143 100.285C143.077 100.294 143.011 100.299 142.945 100.301ZM147.08 94.87H146.999L142.514 95.4557C142.432 95.4663 142.353 95.4929 142.281 95.5341C142.21 95.5753 142.147 95.6303 142.096 95.6959C142.046 95.7615 142.009 95.8364 141.987 95.9164C141.966 95.9963 141.961 96.0797 141.971 96.1617L142.321 98.8538C142.343 99.0202 142.431 99.1708 142.565 99.2727C142.63 99.3232 142.705 99.3602 142.785 99.3815C142.865 99.4028 142.948 99.408 143.03 99.3968L147.511 98.815C147.677 98.7918 147.827 98.7045 147.929 98.5717C148.031 98.439 148.078 98.2715 148.058 98.1051L147.72 95.4441C147.71 95.3619 147.683 95.2825 147.642 95.2106C147.6 95.1387 147.545 95.0757 147.48 95.0252C147.367 94.9333 147.226 94.8826 147.08 94.8816V94.87Z" fill="#263238"/>
<path d="M155.68 95.7759L135.852 98.3617C134.983 98.475 134.37 99.2712 134.483 100.14L136.172 113.087C136.285 113.956 137.081 114.569 137.95 114.455L157.779 111.87C158.648 111.756 159.26 110.96 159.147 110.091L157.458 97.1439C157.345 96.2751 156.549 95.6626 155.68 95.7759Z" fill="#263238"/>
<path d="M144.043 92.2905L142.778 94.7537L146.487 94.9244C146.754 94.3865 146.852 93.7798 146.766 93.1852C146.68 92.5906 146.415 92.0363 146.006 91.5962L144.043 92.2905Z" fill="#7F3E3B"/>
<path d="M144.194 96.6624L146.405 96.3598L146.487 94.9246L142.778 94.7539L142.837 95.5569C142.848 95.7206 142.893 95.8804 142.968 96.0261C143.044 96.1719 143.148 96.3006 143.275 96.4042C143.403 96.5079 143.55 96.5843 143.708 96.6287C143.866 96.6731 144.032 96.6846 144.194 96.6624Z" fill="#7F3E3B"/>
<path d="M141.444 77.8684C141.386 78.171 141.797 79.292 142.1 79.7265C142.402 80.1609 147.406 80.5449 148.05 79.5597C148.694 78.5744 148.721 76.8211 148.415 76.2353C148.108 75.6496 141.564 77.2128 141.444 77.8684Z" fill="#407BFF"/>
<path d="M68.3478 65.7616C67.7232 66.5801 67.0444 67.4762 66.4082 68.3567C65.7721 69.2373 65.1592 70.1333 64.5735 71.041C63.3987 72.7828 62.3847 74.6278 61.5439 76.5531C61.4469 76.782 61.3577 77.0109 61.2802 77.2397C61.2388 77.3535 61.2 77.466 61.1638 77.5772L61.1095 77.7479L61.0862 77.8293V77.8526C61.0152 78.1498 61.0007 78.4577 61.0435 78.7603C61.1774 79.7361 61.4074 80.6963 61.7301 81.6269C62.3934 83.6324 63.2817 85.6999 64.1545 87.7054L62.1723 88.9622C60.6852 87.1272 59.3979 85.1389 58.3321 83.0311C57.745 81.8934 57.2982 80.6885 57.0016 79.443C56.809 78.6374 56.7773 77.8016 56.9085 76.9837L56.9395 76.7975L56.9705 76.6734L57.0287 76.4329C57.0636 76.2738 57.1024 76.1148 57.149 75.9596C57.2343 75.6454 57.3274 75.3429 57.4283 75.0403C58.2396 72.758 59.2984 70.5714 60.5858 68.5196C61.2064 67.515 61.8426 66.5297 62.5253 65.5793C63.208 64.629 63.883 63.7058 64.6704 62.7593L68.3478 65.7616Z" fill="#263238"/>
<path d="M63.6307 86.9878L65.671 88.07L63.3436 90.8203C63.3436 90.8203 61.8773 89.8273 61.792 88.3144L63.6307 86.9878Z" fill="#FFC3BD"/>
<path d="M68.4174 89.7655L65.9038 91.7632L63.3242 90.8206L65.671 88.0703L68.4174 89.7655Z" fill="#FFC3BD"/>
<path d="M98.9146 81.0918L101.327 82.337L101.114 83.2059L99.1745 85.1454C99.1745 85.1454 97.7781 84.0593 97.8091 82.5464L98.9146 81.0918Z" fill="#FFC3BD"/>
<path d="M99.2627 81.4331L101.474 81.0181L102.893 81.6232L101.947 81.7822L101.326 82.3447L99.2627 81.4331Z" fill="#FFC3BD"/>
<path d="M103.743 85.4325L101.346 85.9484C101.095 86.0016 100.833 85.9703 100.601 85.8591L99.1621 85.1609L101.102 83.2214L102.386 82.8335L103.992 84.676C104.041 84.7375 104.075 84.8106 104.09 84.8885C104.104 84.9664 104.099 85.0467 104.074 85.122C104.049 85.1973 104.006 85.2652 103.948 85.3194C103.89 85.3737 103.82 85.4125 103.743 85.4325Z" fill="#FFC3BD"/>
<path d="M77.1877 50.0361C77.242 50.296 77.4204 50.4783 77.5756 50.424C77.7308 50.3697 77.8394 50.1486 77.789 49.8887C77.7385 49.6288 77.5523 49.4465 77.401 49.5008C77.2498 49.5551 77.1217 49.7762 77.1877 50.0361Z" fill="#263238"/>
<path d="M77.3975 50.4819C77.8695 51.2146 78.4398 51.8789 79.0926 52.4564C78.7047 52.98 77.8979 52.9413 77.8979 52.9413L77.3975 50.4819Z" fill="#FF5652"/>
<path d="M75.958 48.783C75.9192 48.7814 75.8822 48.7663 75.8533 48.7403C75.8246 48.7106 75.8086 48.671 75.8086 48.6297C75.8086 48.5885 75.8246 48.5488 75.8533 48.5192C76.0172 48.3336 76.2232 48.1899 76.454 48.1001C76.6848 48.0104 76.9337 47.9772 77.1799 48.0033C77.2161 48.015 77.2468 48.0393 77.2666 48.0717C77.2864 48.1041 77.294 48.1426 77.2879 48.1801C77.2818 48.2176 77.2624 48.2517 77.2334 48.2762C77.2044 48.3006 77.1675 48.3139 77.1295 48.3136C76.9342 48.2954 76.7374 48.3239 76.5553 48.3968C76.3732 48.4696 76.211 48.5847 76.0822 48.7325C76.0667 48.7499 76.0475 48.7635 76.026 48.7722C76.0045 48.781 75.9812 48.7847 75.958 48.783Z" fill="#263238"/>
<path d="M70.1393 54.6323C70.5893 56.921 70.857 60.0901 69.2588 61.6146C69.2588 61.6146 69.8833 63.942 74.1347 63.942C78.8129 63.942 76.3846 61.9016 76.3846 61.9016C74.4451 61.3004 74.4451 59.0855 74.9028 57.3089L70.1393 54.6323Z" fill="#FFC3BD"/>
<path d="M68.5877 63.1821C68.1998 62.5692 68.3278 60.7112 68.7933 60.4086C69.5381 59.9198 72.6103 59.9741 76.6871 61.165C76.1363 62.9416 77.0324 63.9424 77.0324 63.9424L68.5877 63.1821Z" fill="#407BFF"/>
<path opacity="0.2" d="M65.1738 66.4756C63.7191 67.9108 63.2963 70.8511 63.4554 72.8566C63.8122 72.2476 64.1924 71.6386 64.5842 71.0451C65.1699 70.1335 65.7944 69.2452 66.4228 68.353C66.5974 68.1087 66.7758 67.8604 66.9581 67.6121C66.993 67.4531 67.0241 67.2941 67.0551 67.1389L65.1738 66.4756Z" fill="black"/>
<path d="M54.8712 168.758C55.1254 168.847 55.4042 168.831 55.6471 168.715C55.6939 168.673 55.7262 168.617 55.7395 168.555C55.7527 168.493 55.7461 168.428 55.7208 168.37C55.7064 168.322 55.682 168.278 55.6492 168.241C55.6164 168.203 55.576 168.173 55.5307 168.153C55.1079 167.951 54.1342 168.347 54.0954 168.362C54.0821 168.368 54.0706 168.377 54.0623 168.388C54.0541 168.4 54.0494 168.414 54.0489 168.428C54.0483 168.443 54.052 168.457 54.0596 168.47C54.0672 168.482 54.0783 168.492 54.0916 168.498C54.3415 168.612 54.6029 168.699 54.8712 168.758ZM55.3833 168.258L55.4686 168.285C55.4956 168.297 55.5196 168.314 55.539 168.336C55.5585 168.358 55.5728 168.385 55.5811 168.413C55.6199 168.545 55.5811 168.587 55.554 168.603C55.3872 168.746 54.7781 168.603 54.3243 168.436C54.6633 168.291 55.0308 168.226 55.3988 168.246L55.3833 168.258Z" fill="#407BFF"/>
<path d="M54.111 168.494H54.1459C54.5028 168.393 55.2592 167.854 55.2669 167.501C55.2682 167.445 55.2499 167.39 55.2152 167.347C55.1805 167.303 55.1316 167.272 55.0769 167.26C55.0233 167.24 54.966 167.232 54.909 167.237C54.852 167.242 54.7967 167.259 54.7471 167.288C54.3321 167.501 54.0683 168.366 54.0567 168.401C54.0509 168.412 54.0479 168.425 54.0479 168.438C54.0479 168.451 54.0509 168.463 54.0567 168.475C54.0718 168.487 54.0911 168.494 54.111 168.494ZM54.9954 167.385H55.0303C55.1195 167.416 55.1195 167.462 55.1195 167.482C55.1195 167.691 54.6152 168.11 54.2467 168.281C54.3456 167.938 54.5441 167.633 54.817 167.404C54.8463 167.388 54.8786 167.378 54.912 167.374C54.9453 167.371 54.9789 167.375 55.0109 167.385H54.9954Z" fill="#407BFF"/>
<path d="M77.9713 169.27C78.3592 169.27 78.7471 169.216 78.8907 169.034C78.9239 168.986 78.9417 168.93 78.9417 168.873C78.9417 168.815 78.9239 168.759 78.8907 168.712C78.8378 168.625 78.7528 168.562 78.6541 168.537C78.1343 168.397 77.0404 169.018 76.9938 169.045C76.9803 169.052 76.9695 169.064 76.9632 169.078C76.9569 169.092 76.9554 169.108 76.9589 169.123C76.961 169.138 76.9677 169.152 76.9781 169.163C76.9886 169.174 77.0022 169.182 77.0171 169.185C77.3322 169.24 77.6514 169.269 77.9713 169.27ZM78.4679 168.665C78.5155 168.659 78.5637 168.659 78.6114 168.665C78.6413 168.671 78.6696 168.684 78.6943 168.702C78.7191 168.72 78.7397 168.743 78.7549 168.77C78.8092 168.863 78.7898 168.906 78.7549 168.933C78.6114 169.134 77.8201 169.138 77.2382 169.057C77.6191 168.848 78.0366 168.715 78.4679 168.665Z" fill="#407BFF"/>
<path d="M77.0249 169.184H77.0559C77.4438 169.018 78.1808 168.339 78.1265 167.986C78.1265 167.9 78.0528 167.8 77.8511 167.776C77.7775 167.77 77.7034 167.777 77.6328 167.799C77.5623 167.821 77.4967 167.857 77.44 167.904C77.0521 168.234 76.9551 169.068 76.9512 169.111C76.9509 169.123 76.9535 169.136 76.9589 169.147C76.9643 169.159 76.9723 169.169 76.9822 169.177C76.9954 169.183 77.0102 169.186 77.0249 169.184ZM77.8007 167.916H77.8473C77.9791 167.916 77.9869 167.982 77.9908 167.997C78.0257 168.211 77.5175 168.742 77.1335 168.971C77.168 168.616 77.3116 168.28 77.5447 168.009C77.6129 167.951 77.6993 167.918 77.7891 167.916H77.8007Z" fill="#407BFF"/>
<path d="M73.5879 169.111H76.7144L77.0247 161.865H73.8982L73.5879 169.111Z" fill="#FFC3BD"/>
<path d="M50.6777 167.773L53.6956 168.413L56.4342 161.481L53.4163 160.841L50.6777 167.773Z" fill="#FFC3BD"/>
<path d="M53.9756 168.017L50.5388 167.272C50.4787 167.259 50.416 167.267 50.3611 167.295C50.3061 167.322 50.2621 167.368 50.2362 167.423L49.0415 170.011C49.0127 170.074 48.9985 170.143 49.0001 170.212C49.0017 170.282 49.019 170.35 49.0507 170.412C49.0824 170.474 49.1277 170.528 49.1832 170.57C49.2387 170.612 49.303 170.641 49.3712 170.655C50.5776 170.891 51.175 170.949 52.6839 171.275C53.6149 171.477 55.7134 171.989 56.9974 172.264C58.2814 172.54 58.7197 171.31 58.2193 171.081C55.9772 170.057 55.0385 169.142 54.4295 168.312C54.32 168.16 54.1582 168.055 53.9756 168.017Z" fill="#263238"/>
<path d="M76.6949 168.758H73.2775C73.2155 168.759 73.1556 168.78 73.1072 168.819C73.0587 168.857 73.0245 168.911 73.0099 168.971L72.3931 171.752C72.3779 171.82 72.3781 171.89 72.3937 171.957C72.4093 172.024 72.4398 172.087 72.4831 172.14C72.5264 172.194 72.5812 172.237 72.6436 172.267C72.7059 172.296 72.7741 172.312 72.8431 172.311C74.0766 172.288 75.8571 172.218 77.4048 172.218C79.2163 172.218 79.8602 172.315 81.9821 172.315C83.266 172.315 83.6229 171.019 83.0876 170.899C80.6399 170.364 79.5615 170.306 77.4475 169.002C77.2237 168.853 76.9634 168.769 76.6949 168.758Z" fill="#263238"/>
<path opacity="0.2" d="M77.0248 161.869L76.8657 165.6H73.7354L73.8944 161.869H77.0248Z" fill="black"/>
<path opacity="0.2" d="M53.4169 160.841L56.4347 161.481L55.0228 165.053L52.0049 164.417L53.4169 160.841Z" fill="black"/>
<path d="M75.8258 89.5288C75.8258 89.5288 72.2726 113.439 70.3253 122.396C68.1919 132.206 56.7487 164.677 56.7487 164.677L51.1318 163.444C51.1318 163.444 59.1382 136.997 60.9264 123.284C62.3035 112.753 65.0149 89.5366 65.0149 89.5366L75.8258 89.5288Z" fill="#263238"/>
<path opacity="0.1" d="M75.8258 89.5288C75.8258 89.5288 72.2726 113.439 70.3253 122.396C68.1919 132.206 56.7487 164.677 56.7487 164.677L51.1318 163.444C51.1318 163.444 59.1382 136.997 60.9264 123.284C62.3035 112.753 65.0149 89.5366 65.0149 89.5366L75.8258 89.5288Z" fill="white"/>
<path d="M58.0872 162.788C58.1104 162.788 57.0437 164.813 57.0437 164.813L50.7441 163.448L51.2756 161.555L58.0872 162.788Z" fill="#263238"/>
<path opacity="0.3" d="M73.5809 98.0466C69.4769 98.8534 69.9113 114.164 70.404 122.038C71.5677 116.472 73.321 105.746 74.508 98.1591C74.2202 98.019 73.8938 97.9794 73.5809 98.0466Z" fill="black"/>
<path d="M81.7771 89.5288C81.7771 89.5288 82.2077 112.919 81.8663 122.462C81.5133 132.384 78.0494 164.879 78.0494 164.879H72.7312C72.7312 164.879 72.5373 132.966 72.3006 123.218C72.0446 112.594 70.749 89.5288 70.749 89.5288H81.7771Z" fill="#263238"/>
<path opacity="0.1" d="M81.7771 89.5288C81.7771 89.5288 82.2077 112.919 81.8663 122.462C81.5133 132.384 78.0494 164.879 78.0494 164.879H72.7312C72.7312 164.879 72.5373 132.966 72.3006 123.218C72.0446 112.594 70.749 89.5288 70.749 89.5288H81.7771Z" fill="white"/>
<path d="M79.0617 162.769C79.085 162.769 78.7592 164.968 78.7592 164.968H72.3044L72.1299 163.006L79.0617 162.769Z" fill="#263238"/>
<path d="M82.1875 65.4631C82.8276 68.8456 84.0146 78.295 82.1604 92.0423L64.053 91.763C63.9483 89.3619 65.8568 76.3283 64.0918 64.7571C64.0426 64.4289 64.0593 64.0942 64.1409 63.7725C64.2225 63.4508 64.3674 63.1486 64.5671 62.8835C64.7668 62.6185 65.0173 62.3958 65.304 62.2287C65.5907 62.0615 65.9079 61.9532 66.2369 61.9099C67.1524 61.7858 68.2152 61.6694 69.2626 61.619C71.6307 61.4831 74.0047 61.4831 76.3728 61.619C77.1487 61.6927 77.9245 61.8052 78.6149 61.9254C79.4988 62.0836 80.3137 62.5066 80.9517 63.1383C81.5898 63.7701 82.0207 64.5809 82.1875 65.4631Z" fill="#263238"/>
<path opacity="0.2" d="M82.6848 68.8218L79.6358 69.5782C79.4031 72.4254 81.2805 75.6489 83.158 78.1121C83.177 75.0088 83.019 71.907 82.6848 68.8218Z" fill="black"/>
<path d="M81.4314 63.9424C81.9473 64.8695 82.5059 65.8819 83.08 66.8245C83.6541 67.7671 84.2437 68.733 84.8372 69.664C85.9809 71.4935 87.2786 73.222 88.7162 74.8308C88.8947 75.0132 89.0692 75.1994 89.2476 75.37L89.3795 75.498L89.4843 75.5911C89.5425 75.6532 89.6433 75.723 89.717 75.789C90.0739 76.0683 90.4928 76.3631 90.9544 76.6462C91.866 77.2087 92.8435 77.7595 93.8366 78.2909C95.8226 79.3577 97.8785 80.405 99.9073 81.464L99.1043 83.6712C96.8086 83.1215 94.5481 82.4337 92.3354 81.6114C91.226 81.1963 90.1127 80.7464 88.9994 80.1994C88.4073 79.9174 87.8334 79.5987 87.281 79.2452C87.1297 79.1366 86.9862 79.0512 86.8232 78.9232L86.5905 78.7448L86.4004 78.5858C86.1405 78.3763 85.9039 78.1591 85.6634 77.9418C84.747 77.0872 83.8916 76.1695 83.1033 75.1955C82.3274 74.2529 81.6021 73.256 80.9155 72.2901C80.2289 71.3242 79.5772 70.3001 78.976 69.2722C78.3747 68.2442 77.7773 67.2357 77.2188 66.1185L81.4314 63.9424Z" fill="#263238"/>
<path d="M68.3901 51.2461C69.2357 54.4036 69.5538 56.2888 71.5204 57.6077C74.453 59.586 78.1148 57.3168 78.2157 53.9692C78.3165 50.959 76.9162 46.3003 73.5298 45.6642C72.7832 45.5193 72.0119 45.5678 71.2893 45.8052C70.5668 46.0427 69.917 46.461 69.4019 47.0205C68.8867 47.58 68.5233 48.262 68.3462 49.0016C68.1691 49.7413 68.1842 50.5139 68.3901 51.2461Z" fill="#FFC3BD"/>
<path d="M74.9493 51.2851C75.7018 50.1796 75.9889 48.4805 75.4614 47.6621C75.954 47.8676 79.5072 48.112 78.1146 45.5829C76.722 43.0538 73.9291 42.3555 71.497 43.0538L72.6801 43.3951C72.6801 43.3951 69.3557 43.1546 67.7382 44.5006C68.2308 44.5278 68.6575 44.5006 68.6575 44.5006C68.6575 44.5006 65.0966 46.1803 66.6482 47.4565C64.1462 49.3611 65.8413 51.9988 69.9609 55.9322C70.6785 56.58 72.7111 56.3433 73.1611 55.9554C72.874 54.2409 74.5265 51.9135 74.9493 51.2851Z" fill="#263238"/>
<path d="M75.3683 49.1318C76.1053 49.671 77.0169 51.2575 77.4397 52.0489C77.8625 52.8402 78.3086 52.7393 78.5219 53.0535C78.7353 53.3677 79.6081 58.682 78.6732 59.5315C77.7384 60.381 74.9261 59.0389 74.5576 58.0614C74.1891 57.0839 74.864 54.6866 75.0463 54.1397C75.2381 53.195 75.182 52.2168 74.8834 51.3002C74.5576 50.3731 75.3683 49.1318 75.3683 49.1318Z" fill="#263238"/>
<path d="M73.7083 51.4327C73.8088 51.8196 73.9859 52.1823 74.2291 52.4995C74.4723 52.8166 74.7767 53.0818 75.1242 53.2792C75.9815 53.6671 76.0862 52.6702 75.9194 51.7275C75.7681 50.8703 75.5315 50.1759 74.8371 49.8423C74.0187 49.4195 73.4252 50.494 73.7083 51.4327Z" fill="#FFC3BD"/>
</svg>
