<svg width="435" height="329" viewBox="0 0 435 329" fill="none" xmlns="http://www.w3.org/2000/svg">
<g clip-path="url(#clip0)">
<path d="M439.171 288.467H-5.81934V288.689H439.171V288.467Z" fill="#EBEBEB"/>
<path d="M394.583 302.769H365.106V302.991H394.583V302.769Z" fill="#EBEBEB"/>
<path d="M288.96 305.187H281.226V305.409H288.96V305.187Z" fill="#EBEBEB"/>
<path d="M364.216 294.52H347.138V294.742H364.216V294.52Z" fill="#EBEBEB"/>
<path d="M79.3074 296.013H40.8691V296.235H79.3074V296.013Z" fill="#EBEBEB"/>
<path d="M92.8709 296.013H87.2373V296.235H92.8709V296.013Z" fill="#EBEBEB"/>
<path d="M194.56 299.764H111.187V299.986H194.56V299.764Z" fill="#EBEBEB"/>
<path d="M205.106 248.822H33.2594C31.9132 248.82 30.6229 248.284 29.6718 247.332C28.7207 246.381 28.1865 245.091 28.1865 243.747V2.47545C28.1982 1.13858 28.7376 -0.139683 29.6874 -1.08169C30.6373 -2.0237 31.9209 -2.55337 33.2594 -2.55566H205.106C206.454 -2.55566 207.746 -2.02092 208.699 -1.06907C209.652 -0.117217 210.188 1.17377 210.188 2.51989V243.747C210.188 245.093 209.652 246.384 208.699 247.336C207.746 248.287 206.454 248.822 205.106 248.822ZM33.2594 -2.37789C31.9722 -2.37553 30.7385 -1.86316 29.8291 -0.95324C28.9198 -0.0433187 28.409 1.1898 28.409 2.47545V243.747C28.409 245.032 28.9198 246.265 29.8291 247.175C30.7385 248.085 31.9722 248.598 33.2594 248.6H205.106C206.394 248.598 207.628 248.085 208.539 247.176C209.45 246.266 209.963 245.033 209.965 243.747V2.47545C209.963 1.18898 209.45 -0.0441151 208.539 -0.953783C207.628 -1.86345 206.394 -2.37554 205.106 -2.37789H33.2594Z" fill="#EBEBEB"/>
<path d="M397.618 248.822H225.762C224.415 248.82 223.124 248.284 222.172 247.333C221.219 246.382 220.683 245.092 220.681 243.747V2.47545C220.695 1.13777 221.236 -0.140485 222.187 -1.08225C223.139 -2.02401 224.423 -2.5534 225.762 -2.55566H397.618C398.955 -2.55104 400.236 -2.02033 401.184 -1.07857C402.132 -0.136814 402.67 1.14012 402.682 2.47545V243.747C402.682 245.09 402.149 246.378 401.199 247.329C400.25 248.281 398.962 248.817 397.618 248.822ZM225.762 -2.37789C224.474 -2.37554 223.24 -1.86345 222.329 -0.953783C221.418 -0.0441151 220.906 1.18898 220.903 2.47545V243.747C220.906 245.033 221.418 246.266 222.329 247.176C223.24 248.085 224.474 248.598 225.762 248.6H397.618C398.906 248.598 400.14 248.085 401.051 247.176C401.962 246.266 402.475 245.033 402.477 243.747V2.47545C402.475 1.18898 401.962 -0.0441151 401.051 -0.953783C400.14 -1.86345 398.906 -2.37554 397.618 -2.37789H225.762Z" fill="#EBEBEB"/>
<path d="M99.0029 32.1108C99.0029 30.5148 99.6377 28.9841 100.768 27.8556C101.898 26.727 103.43 26.093 105.028 26.093C105.613 26.0964 106.194 26.1832 106.755 26.3508C106.49 24.5412 106.619 22.6961 107.132 20.9406C107.645 19.1851 108.53 17.5604 109.727 16.1767C110.924 14.793 112.405 13.6828 114.07 12.9214C115.734 12.1601 117.544 11.7654 119.375 11.7641C120.163 11.7659 120.949 11.8403 121.724 11.9863C122.982 9.92362 124.877 8.32516 127.124 7.43189C129.37 6.53862 131.847 6.39894 134.18 7.03391C136.513 7.66887 138.576 9.04407 140.059 10.9522C141.541 12.8604 142.362 15.1981 142.398 17.613H142.576C143.951 17.5726 145.32 17.8081 146.602 18.3057C147.884 18.8032 149.053 19.5526 150.04 20.5096C151.026 21.4665 151.811 22.6115 152.346 23.8767C152.882 25.1419 153.158 26.5016 153.158 27.8752C153.158 29.2489 152.882 30.6086 152.346 31.8738C151.811 33.139 151.026 34.2839 150.04 35.2409C149.053 36.1978 147.884 36.9472 146.602 37.4448C145.32 37.9423 143.951 38.1779 142.576 38.1375H104.859C103.289 38.0934 101.798 37.4388 100.704 36.3131C99.6105 35.1874 99 33.6795 99.0029 32.1108Z" fill="#E7E7E7"/>
<path d="M341.727 116.209C341.727 114.613 342.362 113.082 343.492 111.954C344.621 110.825 346.154 110.191 347.752 110.191C348.336 110.193 348.918 110.277 349.479 110.44C349.389 109.831 349.344 109.216 349.345 108.6C349.355 106.736 349.774 104.897 350.572 103.212C351.37 101.527 352.527 100.037 353.963 98.847C355.399 97.6566 357.079 96.7949 358.884 96.3222C360.689 95.8496 362.576 95.7776 364.412 96.1112C365.668 94.0457 367.563 92.4446 369.811 91.55C372.059 90.6553 374.537 90.5157 376.871 91.1523C379.205 91.7888 381.268 93.1669 382.749 95.0782C384.23 96.9896 385.047 99.3303 385.078 101.747H385.265C386.639 101.706 388.008 101.942 389.29 102.439C390.572 102.937 391.741 103.686 392.728 104.643C393.715 105.6 394.499 106.745 395.035 108.01C395.57 109.276 395.846 110.635 395.846 112.009C395.846 113.383 395.57 114.742 395.035 116.008C394.499 117.273 393.715 118.418 392.728 119.375C391.741 120.332 390.572 121.081 389.29 121.578C388.008 122.076 386.639 122.312 385.265 122.271H347.583C346.006 122.229 344.509 121.57 343.413 120.437C342.318 119.303 341.712 117.784 341.727 116.209Z" fill="#E7E7E7"/>
<path d="M196.918 145.658C196.918 144.062 197.553 142.531 198.683 141.402C199.813 140.274 201.345 139.64 202.943 139.64C203.528 139.639 204.11 139.726 204.67 139.898C204.371 137.89 204.558 135.841 205.215 133.92C205.872 132 206.979 130.264 208.444 128.858C209.909 127.452 211.69 126.417 213.637 125.838C215.585 125.26 217.643 125.155 219.639 125.533C220.895 123.468 222.789 121.868 225.036 120.973C227.283 120.078 229.76 119.938 232.094 120.573C234.427 121.208 236.491 122.585 237.972 124.495C239.453 126.405 240.272 128.744 240.305 131.16H240.491C243.215 131.16 245.828 132.241 247.754 134.164C249.68 136.088 250.762 138.697 250.762 141.418C250.762 144.138 249.68 146.747 247.754 148.671C245.828 150.595 243.215 151.675 240.491 151.675H202.774C201.205 151.634 199.714 150.981 198.62 149.857C197.526 148.732 196.915 147.226 196.918 145.658Z" fill="#E7E7E7"/>
<path d="M46.6098 111.533C46.6097 110.967 46.742 110.408 46.9964 109.902C47.2507 109.396 47.62 108.956 48.0747 108.617C48.5294 108.279 49.057 108.051 49.6154 107.952C50.1739 107.854 50.7477 107.887 51.2911 108.049C51.1315 106.955 51.2094 105.84 51.5194 104.779C51.8294 103.718 52.3642 102.736 53.0876 101.9C53.8111 101.063 54.7062 100.392 55.7122 99.9316C56.7182 99.4711 57.8116 99.2322 58.9182 99.231C59.396 99.2301 59.8729 99.2747 60.3422 99.3643C61.1043 98.1257 62.2479 97.1673 63.6017 96.633C64.9553 96.0986 66.446 96.0172 67.85 96.4008C69.254 96.7844 70.4956 97.6124 71.3885 98.7606C72.2813 99.9088 72.7773 101.315 72.8019 102.769H72.9176C74.5699 102.769 76.1545 103.424 77.3228 104.591C78.4911 105.758 79.1475 107.341 79.1475 108.991C79.1475 110.641 78.4911 112.224 77.3228 113.391C76.1545 114.558 74.5699 115.213 72.9176 115.213H50.143C49.1877 115.188 48.2811 114.787 47.6197 114.098C46.9582 113.409 46.5954 112.488 46.6098 111.533Z" fill="#E7E7E7"/>
<path d="M253.583 59.1956C253.583 58.2313 253.967 57.3066 254.649 56.6248C255.332 55.943 256.258 55.56 257.223 55.56C257.577 55.5582 257.928 55.6122 258.265 55.72C258.105 54.6263 258.183 53.5111 258.493 52.4501C258.803 51.3891 259.338 50.4071 260.061 49.5707C260.785 48.7344 261.68 48.0632 262.686 47.6028C263.692 47.1423 264.785 46.9034 265.892 46.9022C266.37 46.9013 266.846 46.9459 267.316 47.0356C268.081 45.8037 269.225 44.8517 270.576 44.3213C271.927 43.791 273.413 43.7106 274.813 44.0923C276.214 44.4739 277.453 45.2972 278.348 46.4394C279.242 47.5816 279.742 48.9816 279.775 50.4311H279.882C281.534 50.4311 283.119 51.0867 284.287 52.2536C285.456 53.4205 286.112 55.0031 286.112 56.6533C286.112 58.3036 285.456 59.8862 284.287 61.0531C283.119 62.22 281.534 62.8755 279.882 62.8755H257.117C256.162 62.8476 255.257 62.4462 254.596 61.7578C253.935 61.0694 253.571 60.1492 253.583 59.1956Z" fill="#E7E7E7"/>
<path d="M309.866 20.6978C309.866 19.7336 310.249 18.8089 310.932 18.1271C311.614 17.4453 312.54 17.0622 313.506 17.0622C313.858 17.0626 314.209 17.1135 314.547 17.2133C314.387 16.1196 314.465 15.0045 314.775 13.9435C315.085 12.8825 315.62 11.9004 316.344 11.0641C317.067 10.2277 317.962 9.55655 318.968 9.09612C319.974 8.63569 321.067 8.39677 322.174 8.39557C322.652 8.39947 323.128 8.44407 323.598 8.5289C324.364 7.29646 325.508 6.34422 326.86 5.8141C328.212 5.28397 329.699 5.20436 331.1 5.58713C332.501 5.96989 333.74 6.79454 334.634 7.93816C335.527 9.08178 336.027 10.4831 336.058 11.9334H336.173C337.826 11.9334 339.41 12.5889 340.579 13.7558C341.747 14.9227 342.403 16.5053 342.403 18.1556C342.403 19.8058 341.747 21.3885 340.579 22.5553C339.41 23.7222 337.826 24.3778 336.173 24.3778H313.399C312.444 24.3522 311.537 23.9515 310.876 23.2626C310.214 22.5737 309.851 21.6521 309.866 20.6978Z" fill="#E7E7E7"/>
<path d="M385.79 237.693V227.871H388.113V226.129H385.79V224.609H365.961V226.129H363.647V227.871H365.961V231.169H359.135V237.693H356.438V196.831H355.575V196.351H357.586V195.657H355.575V194.084H351.499V183H350.333V194.084H349.719V195.657H349.007V196.351H349.719V219.08H344.228V216.395H342.822V207.844H341.3V216.395H338.363V219.08H333.735V212.164H304.98V188.235H299.658V158.982H295.395V187.702H285.275V230.253H266.114V187.702H262.083V181.853H263.605V180.182H257.357V178.324H255.746V174.555H253.388V165.302H252.453V174.555H250.459V178.324H248.235V169.515H247.647V161.426H247.086V169.515H245.938V178.324H234.529V187.702H231.494V202.315H214.691V178.44H211.487V173.737H204.572V163.186H203.994V173.737H197.648V178.44H193.305V187.702H167.246V230.253H148.067V187.702H137.957V158.982H133.694V188.235H128.372V212.164H99.6167V219.08H83.6416V194.084H81.5768V181.08H80.4109V194.084H77.7766V237.693H60.4576V230.937H58.8111V229.124H59.6655V226.991H58.8111V225.08H50.7123V226.991H50.0092V229.124H50.7123V230.937H47.544V209.96H46.4404V230.937H42.0261V237.693H36.2412V288.76L216.676 288.226L397.11 288.76V237.693H385.79Z" fill="#E7E7E7"/>
<path d="M141.472 282.129L139.479 281.133" stroke="#E0E0E0" stroke-width="2" stroke-linecap="round" stroke-linejoin="round"/>
<path d="M135.509 279.08C114.15 267.853 43.6099 227.8 59.3092 196.413C91.5265 131.933 327.629 183.8 355.673 134.955C380.227 92.2086 307.72 59.7286 289.253 52.2886" stroke="#E0E0E0" stroke-width="2" stroke-linecap="round" stroke-linejoin="round" stroke-dasharray="5.03 5.03"/>
<path d="M287.171 51.4531C285.836 50.9376 285.089 50.6709 285.089 50.6709" stroke="#E0E0E0" stroke-width="2" stroke-linecap="round" stroke-linejoin="round"/>
<path d="M284.644 37.1954L279.322 40.8577L277.844 50.671L274.24 43.7199L265.127 48.3066L249.071 35.4443L284.644 37.1954Z" fill="#E0E0E0"/>
<path d="M277.844 50.671L249.071 35.4443L274.24 43.7199L277.844 50.671Z" fill="#E6E6E6"/>
<path d="M284.644 37.1954L279.322 40.8577L277.844 50.671L274.24 43.7199L265.127 48.3066L249.071 35.4443L284.644 37.1954Z" fill="#F0F0F0"/>
<path d="M279.322 40.8577L249.071 35.4443L274.24 43.7199L277.844 50.671L279.322 40.8577Z" fill="#E0E0E0"/>
<path d="M240.656 328.609C373.34 328.609 480.902 324.104 480.902 318.547C480.902 312.989 373.34 308.484 240.656 308.484C107.972 308.484 0.410156 312.989 0.410156 318.547C0.410156 324.104 107.972 328.609 240.656 328.609Z" fill="white"/>
<path d="M348.58 118.876L347.191 115.498C347.191 115.498 348.295 114.44 348.153 113.587C348.01 112.733 342.27 108.004 341.211 107.196C340.152 106.387 338.434 109.364 337.766 111.738C337.099 114.111 343.106 118.271 343.996 117.871L344.958 121.231L348.58 118.876Z" fill="#EBB376"/>
<path d="M383.494 118.253C372.912 119.542 361.12 135.089 357.685 133.107C354.249 131.125 347.895 116.858 347.895 116.858L344.255 119.009C344.255 119.009 347.566 145.196 355.664 146.191C363.763 147.187 378.75 138.778 378.75 138.778L383.494 118.253Z" fill="#263238"/>
<path opacity="0.2" d="M383.494 118.262L380.361 131.827L378.75 138.76C374.324 141.191 369.686 143.217 364.893 144.813C361.6 145.845 358.281 146.502 355.682 146.182C347.592 145.196 344.281 119.009 344.281 119.009L347.912 116.858C347.912 116.858 354.231 131.08 357.702 133.107C361.173 135.133 372.921 119.551 383.494 118.262Z" fill="white"/>
<path opacity="0.2" d="M380.361 131.827L378.751 138.76C374.324 141.191 369.686 143.217 364.894 144.813C366.549 135.853 376.748 132.68 380.361 131.827Z" fill="black"/>
<path d="M410.051 315.382H417.874C418 315.381 418.124 315.424 418.223 315.504C418.321 315.583 418.39 315.694 418.417 315.818L419.689 321.551C419.739 321.796 419.691 322.051 419.554 322.261C419.418 322.47 419.204 322.618 418.959 322.671C418.888 322.68 418.817 322.68 418.746 322.671C416.218 322.671 414.376 322.475 411.19 322.475C409.232 322.475 403.331 322.68 400.626 322.68C397.92 322.68 397.573 320.013 398.677 319.773C403.643 318.689 407.381 317.195 408.965 315.773C409.262 315.506 409.652 315.366 410.051 315.382Z" fill="#263238"/>
<path d="M370.313 315.382H378.136C378.264 315.381 378.389 315.423 378.489 315.503C378.589 315.582 378.66 315.693 378.688 315.818L379.952 321.551C379.979 321.672 379.982 321.798 379.96 321.921C379.938 322.043 379.891 322.16 379.823 322.265C379.755 322.369 379.667 322.459 379.564 322.528C379.46 322.598 379.344 322.647 379.222 322.671C379.154 322.679 379.085 322.679 379.017 322.671C376.481 322.671 374.639 322.475 371.461 322.475C369.503 322.475 363.594 322.68 360.897 322.68C358.201 322.68 357.836 320.013 358.948 319.773C363.905 318.689 367.643 317.195 369.236 315.773C369.53 315.507 369.917 315.366 370.313 315.382Z" fill="#263238"/>
<path d="M416.663 175.124C418.736 196.624 417.939 218.304 414.296 239.595C414.296 239.595 420.179 288.955 418.416 315.853H408.965C408.965 315.853 393.221 261.391 391.343 245.524C389.465 229.657 386.787 206.146 386.787 206.146C386.787 206.146 381.972 228.422 374.042 245.524C374.042 245.524 380.815 261.649 379.978 317.391L368.061 316.404C368.061 316.404 359.544 264.422 355.37 245.542C351.196 226.662 359.286 190.146 365.988 170.724L416.663 175.124Z" fill="#263238"/>
<path opacity="0.4" d="M416.663 175.124C418.736 196.624 417.939 218.304 414.296 239.595C414.296 239.595 420.179 288.955 418.416 315.853H408.965C408.965 315.853 393.221 261.391 391.343 245.524C389.465 229.657 386.787 206.146 386.787 206.146C386.787 206.146 381.972 228.422 374.042 245.524C374.042 245.524 380.815 261.649 379.978 317.391L368.061 316.404C368.061 316.404 359.544 264.422 355.37 245.542C351.196 226.662 359.286 190.146 365.988 170.724L416.663 175.124Z" fill="white"/>
<path d="M376.437 176.778L395.544 179.178L396.132 174.866L376.997 172.671L376.437 176.778Z" fill="#263238"/>
<path d="M397.59 175.036L396.994 179.365L416.743 181.4L416.556 177.205L397.59 175.036Z" fill="#263238"/>
<path d="M375.546 172.511L366.326 171.453L365.472 175.391L374.986 176.591L375.546 172.511Z" fill="#263238"/>
<path d="M387.143 178.413L381.135 177.729C381.039 177.721 380.946 177.694 380.86 177.65C380.775 177.606 380.699 177.546 380.637 177.472C380.575 177.399 380.528 177.314 380.499 177.222C380.47 177.13 380.459 177.034 380.468 176.938L380.966 173.329C380.983 173.23 381.02 173.135 381.074 173.05C381.128 172.966 381.199 172.892 381.282 172.835C381.365 172.778 381.458 172.738 381.557 172.718C381.656 172.697 381.757 172.696 381.856 172.716L387.872 173.4C387.968 173.408 388.061 173.435 388.146 173.479C388.231 173.523 388.307 173.584 388.368 173.657C388.429 173.731 388.475 173.816 388.503 173.908C388.531 174 388.541 174.096 388.531 174.191L388.033 177.8C388.017 177.9 387.981 177.995 387.927 178.081C387.873 178.166 387.802 178.239 387.719 178.297C387.636 178.354 387.542 178.394 387.443 178.414C387.344 178.434 387.242 178.434 387.143 178.413Z" fill="white"/>
<path d="M365.987 170.689C365.987 170.689 360.372 160.529 372.217 143.133C372.217 143.133 375.662 124.333 378.536 121.365C381.411 118.396 390.248 114.449 402.859 116.716C415.47 118.982 420.748 124.093 420.748 124.093L418.719 163.818C418.719 163.818 419.84 168.831 416.992 176.369L365.987 170.689Z" fill="#263238"/>
<path d="M410.798 118.111C406.001 120.493 394.734 121.204 394.734 121.204L388.504 117.257C391.61 116.973 393.559 116.369 394.734 115.48C396.603 114.084 396.46 112.137 395.864 110.235C395.864 110.235 395.864 110.235 395.864 110.173L404.443 106.689L410.353 104.289C408.439 108.129 406.108 115.284 410.798 118.111Z" fill="#EBB376"/>
<path opacity="0.2" d="M407.924 107.587C406.927 113.409 399.389 115.445 394.734 115.445C396.603 114.049 396.461 112.102 395.865 110.2C395.874 110.177 395.874 110.152 395.865 110.129L404.444 106.645C404.622 107.356 408.022 106.858 407.924 107.587Z" fill="black"/>
<path d="M410.896 92.982C410.52 91.8621 409.927 90.8272 409.151 89.9364C408.374 89.0456 407.429 88.3164 406.371 87.7906C405.312 87.2647 404.16 86.9524 402.98 86.8716C401.8 86.7908 400.616 86.9431 399.495 87.3197C398.167 87.7572 396.968 88.5178 396.006 89.5331C393.648 90.7686 392.197 94.662 392.447 97.2842C392.346 97.8353 392.266 98.3864 392.206 98.9375C391.646 100.431 389.394 101.951 390.604 106.52C392.108 112.2 398.205 113.675 402.076 112.742C403.792 112.533 405.402 111.801 406.686 110.644C407.078 110.298 407.444 109.924 407.781 109.524C410.3 106.591 410.531 102.902 411.279 97.1242C411.477 95.7325 411.346 94.3139 410.896 92.982Z" fill="#EBB376"/>
<path d="M401.168 98.2978C401.168 98.8311 400.821 99.24 400.465 99.1867C400.109 99.1334 399.869 98.7067 399.896 98.1734C399.922 97.64 400.252 97.2311 400.599 97.2845C400.946 97.3378 401.204 97.7556 401.168 98.2978Z" fill="#263238"/>
<path d="M395.117 97.8886C395.117 98.4219 394.761 98.8397 394.414 98.7775C394.067 98.7153 393.817 98.2975 393.853 97.7642C393.889 97.2308 394.209 96.8131 394.556 96.8753C394.903 96.9375 395.152 97.3642 395.117 97.8886Z" fill="#263238"/>
<path d="M397.021 98.271C396.272 99.8611 395.305 101.339 394.146 102.662C394.495 102.951 394.903 103.16 395.341 103.274C395.78 103.388 396.238 103.403 396.683 103.32L397.021 98.271Z" fill="#D58745"/>
<path d="M403.349 96.2445C403.292 96.2576 403.233 96.2564 403.177 96.2409C403.121 96.2253 403.07 96.196 403.029 96.1556C402.761 95.8657 402.429 95.6418 402.06 95.5015C401.691 95.3611 401.295 95.3081 400.902 95.3467C400.82 95.362 400.736 95.3444 400.667 95.2978C400.599 95.2511 400.552 95.1792 400.537 95.0978C400.521 95.0165 400.539 94.9324 400.586 94.8641C400.632 94.7957 400.704 94.7487 400.786 94.7334C401.277 94.6741 401.776 94.7327 402.24 94.9043C402.705 95.0758 403.121 95.3555 403.456 95.7201C403.485 95.749 403.509 95.7836 403.525 95.8218C403.541 95.8599 403.549 95.9009 403.549 95.9423C403.549 95.9837 403.541 96.0246 403.525 96.0628C403.509 96.101 403.485 96.1355 403.456 96.1645C403.425 96.1974 403.389 96.2244 403.349 96.2445Z" fill="#263238"/>
<path d="M392.892 96.0134C392.827 96.0105 392.766 95.9888 392.714 95.9512C392.684 95.9222 392.661 95.8877 392.644 95.8495C392.628 95.8113 392.62 95.7704 392.62 95.729C392.62 95.6876 392.628 95.6466 392.644 95.6085C392.661 95.5703 392.684 95.5357 392.714 95.5068C393.077 95.1616 393.518 94.9093 394 94.7716C394.482 94.6338 394.99 94.6146 395.481 94.7156C395.521 94.726 395.559 94.7441 395.591 94.7689C395.624 94.7938 395.652 94.8249 395.672 94.8604C395.693 94.896 395.707 94.9353 395.712 94.976C395.717 95.0168 395.715 95.0582 395.704 95.0979C395.681 95.177 395.628 95.2442 395.557 95.2856C395.486 95.327 395.401 95.3394 395.321 95.3201C394.932 95.2531 394.532 95.2776 394.153 95.3918C393.775 95.506 393.428 95.7066 393.141 95.9779C393.104 96.0008 393.063 96.0158 393.02 96.0219C392.977 96.028 392.933 96.0251 392.892 96.0134Z" fill="#263238"/>
<path d="M395.669 89.6131C398.544 88.3154 398.739 90.502 398.739 90.502C398.739 90.502 400.599 88.3331 402.602 88.6709C404.604 89.0087 407.488 92.8398 407.657 93.3376C407.826 93.8354 406.865 94.8131 406.865 94.8131C406.865 94.8131 407.087 100.858 407.159 102.529L409.633 107.044C412.399 102.726 413.889 97.7167 413.931 92.5909C414.011 83.9776 397.022 84.3954 397.022 84.3954L395.669 89.6131Z" fill="#263238"/>
<path d="M413.726 104.6C413.241 105.262 412.63 105.823 411.927 106.248C411.225 106.674 410.445 106.956 409.632 107.08C407.461 107.4 406.651 105.391 407.479 103.48C408.235 101.791 410.273 99.533 412.347 100.102C414.42 100.671 414.91 102.946 413.726 104.6Z" fill="#EBB376"/>
<path d="M396.941 105.249C397.456 106.175 397.902 107.138 398.276 108.129L398.819 108.013C401.302 107.489 402.272 106.422 402.602 105.409C402.833 104.617 402.773 103.769 402.433 103.018C401.284 104.084 399.015 104.751 397.787 105.053C397.271 105.186 396.941 105.249 396.941 105.249Z" fill="#263238"/>
<path d="M397.787 105.053L398.196 105.898C400.537 105.391 402.104 104.724 402.691 103.862C402.642 103.57 402.556 103.287 402.433 103.018C401.285 104.111 399.015 104.751 397.787 105.053Z" fill="white"/>
<path d="M398.819 108.013C401.302 107.489 402.272 106.422 402.602 105.409C401.652 105.625 400.748 106.007 399.932 106.538C399.418 106.904 399.03 107.419 398.819 108.013Z" fill="#DE5753"/>
<path d="M397.022 84.431C392.447 85.1777 391.682 91.4444 395.126 92.031C398.57 92.6177 395.705 90.4488 395.705 90.4488C395.705 90.4488 401.712 92.431 402.744 92.1377C403.777 91.8444 402.397 90.4488 402.397 90.4488C402.397 90.4488 406.349 93.2844 409.615 92.1644C412.881 91.0444 410.336 82.271 397.022 84.431Z" fill="#263238"/>
<path d="M391.913 119.551L392.812 124.2L386.19 140.298L387.961 146.369L391.593 143.195L393.764 124.858L399.175 121.498L397.974 119.551L394.022 118.662L391.913 119.551Z" fill="#407BFF"/>
<path d="M393.114 114.351L396.238 118.244L409.249 114.084L412.142 119.231L397.653 126.129L395.285 120.156L388.45 124.084L387.881 116.858L393.114 114.351Z" fill="#263238"/>
<path opacity="0.2" d="M420.071 129.355C419.653 133.213 419.101 139.133 418.736 146.964C416.879 142.455 416.527 137.468 417.731 132.742C418.29 131.476 419.084 130.326 420.071 129.355Z" fill="black"/>
<path d="M408.413 159.124L404.951 159.924C404.951 159.924 404.141 158.618 403.305 158.609C402.468 158.6 396.932 163.596 395.98 164.52C395.028 165.444 397.538 167.729 399.683 168.84C401.827 169.951 406.856 164.564 406.633 163.613L410.006 163.24L408.413 159.124Z" fill="#EBB376"/>
<path d="M420.775 124.076C426.738 127.551 436.946 149.098 434.125 157.231C432.104 163.08 412.302 165.978 407.577 163.8L406.135 159.427C406.135 159.427 421.576 154.547 422.386 151.56C423.027 149.187 417.001 143.56 417.001 143.56C417.001 143.56 415.871 139.471 417.891 129.827C418.799 125.782 420.775 124.076 420.775 124.076Z" fill="#263238"/>
<path opacity="0.2" d="M420.775 124.076C426.738 127.551 436.946 149.098 434.125 157.231C432.104 163.08 412.302 165.978 407.577 163.8L406.135 159.427C406.135 159.427 421.576 154.547 422.386 151.56C423.027 149.187 417.001 143.56 417.001 143.56C417.001 143.56 415.871 139.471 417.891 129.827C418.799 125.782 420.775 124.076 420.775 124.076Z" fill="white"/>
<path opacity="0.2" d="M393.114 114.351L396.238 118.244L409.249 114.084L412.142 119.231L397.653 126.129L395.285 120.156L388.45 124.084L387.881 116.858L393.114 114.351Z" fill="white"/>
<path d="M322.619 110.04C322.165 109.027 322.619 106.343 322.619 106.343C322.619 106.343 330.175 102.378 331.385 101.418C332.595 100.458 333.957 104.814 333.165 105.729C332.373 106.645 330.139 110.04 326.366 110.04L325.289 113L322.619 110.04Z" fill="#B8B8B8"/>
<path d="M302.149 113.356C305.006 114.04 313.238 124.911 316.042 124.609C318.845 124.307 322.209 109.72 322.209 109.72L326.321 110.956C326.321 110.956 324.265 129.294 319.032 131.756C313.799 134.218 301.232 123.756 301.232 123.756L302.149 113.356Z" fill="#B8B8B8"/>
<path opacity="0.4" d="M302.149 113.356C305.006 114.04 313.238 124.911 316.042 124.609C318.845 124.307 322.209 109.72 322.209 109.72L326.321 110.956C326.321 110.956 324.265 129.294 319.032 131.756C313.799 134.218 301.232 123.756 301.232 123.756L302.149 113.356Z" fill="#B8B8B8"/>
<path opacity="0.2" d="M302.149 124.556C304.499 126.394 306.976 128.064 309.563 129.551C309.183 127.74 308.412 126.033 307.304 124.55C306.196 123.067 304.777 121.844 303.146 120.965L302.149 124.556Z" fill="#B8B8B8"/>
<path d="M274.56 312.111H266.426C266.292 312.112 266.163 312.159 266.06 312.243C265.956 312.327 265.884 312.443 265.856 312.574L264.539 318.529C264.512 318.656 264.509 318.787 264.532 318.914C264.556 319.042 264.604 319.163 264.674 319.272C264.744 319.381 264.835 319.475 264.942 319.549C265.049 319.623 265.169 319.675 265.295 319.702H265.518C268.188 319.658 270.066 319.498 273.368 319.498C275.406 319.498 281.547 319.711 284.359 319.711C287.171 319.711 287.536 316.938 286.388 316.68C281.226 315.56 277.337 314.014 275.708 312.52C275.393 312.24 274.982 312.093 274.56 312.111Z" fill="#B8B8B8"/>
<path d="M309.055 311.898H300.921C300.788 311.899 300.658 311.945 300.555 312.029C300.451 312.113 300.38 312.23 300.351 312.36L299.034 318.333C299.007 318.46 299.004 318.591 299.028 318.718C299.051 318.846 299.099 318.968 299.169 319.077C299.239 319.186 299.33 319.28 299.437 319.353C299.544 319.427 299.664 319.479 299.791 319.507H300.013C302.683 319.462 304.561 319.302 307.863 319.302C309.901 319.302 316.042 319.516 318.854 319.516C321.666 319.516 322.031 316.742 320.883 316.485C315.721 315.365 311.832 313.818 310.203 312.325C309.889 312.041 309.479 311.888 309.055 311.898Z" fill="#B8B8B8"/>
<path d="M270.244 161.48H305.789C309.162 179.916 319.744 254.76 312.153 312.884H300.12C300.12 312.884 301.259 224.618 290.58 196.093C289.387 211.356 276.963 312.822 276.963 312.822H264.717C264.717 312.822 266.541 274.653 268.375 238.6C269.532 215.898 270.19 166.138 270.244 161.48Z" fill="#B8B8B8"/>
<path opacity="0.3" d="M290.579 196.094C292.326 201.095 293.654 206.233 294.548 211.454C295.545 197.871 291.567 183.462 291.567 183.462L290.579 196.094Z" fill="#B8B8B8"/>
<path d="M306.083 161.907H270.306V166.156L306.546 165.72L306.083 161.907Z" fill="#B8B8B8"/>
<path d="M281.804 167.542H283.086V159.987H281.804V167.542Z" fill="#B8B8B8"/>
<path d="M299.907 167.542H301.188V159.987H299.907V167.542Z" fill="#B8B8B8"/>
<path d="M289.769 165.925H296.391V161.16H289.769V165.925Z" fill="#B8B8B8"/>
<path opacity="0.3" d="M276.91 166.956H270.742L270.671 168.378L270.306 168.324C268.936 182.013 273.118 185.436 273.118 185.436C271.267 183.507 270.787 175.658 270.787 175.658C272.534 174.944 274.039 173.745 275.124 172.202C276.209 170.66 276.829 168.839 276.91 166.956Z" fill="#B8B8B8"/>
<path d="M270.618 163.542L274.489 168.636C274.489 168.636 275.076 168.014 276.269 169.756C275.341 172.147 273.546 174.102 271.241 175.231L271.739 171.374L267.752 166.156L270.618 163.542Z" fill="#B8B8B8"/>
<path d="M266.639 117.32C263.337 116.707 252.106 144.813 254.348 150.6C256.591 156.387 269.22 170.155 269.22 170.155L273.118 166.511C273.118 166.511 262.75 152.707 261.255 148.164C259.759 143.622 268.036 129.213 268.036 129.213C268.641 126.973 268.869 124.648 268.713 122.333C268.538 120.493 267.816 118.747 266.639 117.32Z" fill="#B8B8B8"/>
<path opacity="0.4" d="M266.639 117.32C263.337 116.707 252.106 144.813 254.348 150.6C256.591 156.387 269.22 170.155 269.22 170.155L273.118 166.511C273.118 166.511 262.75 152.707 261.255 148.164C259.759 143.622 268.036 129.213 268.036 129.213C268.641 126.973 268.869 124.648 268.713 122.333C268.538 120.493 267.816 118.747 266.639 117.32Z" fill="#B8B8B8"/>
<path d="M306.643 148.555C306.643 149.142 306.643 149.72 306.643 150.28C306.643 151.507 306.599 152.662 306.572 153.72C306.51 155.204 306.447 156.52 306.385 157.649C306.216 160.315 306.038 161.907 306.038 161.907H269.843C269.754 160.6 269.665 159.293 269.585 157.995C269.504 156.698 269.424 155.595 269.344 154.44C269.264 153.284 269.202 152.333 269.131 151.293C269.086 150.769 269.059 150.235 269.015 149.711C268.917 148.244 268.81 146.795 268.712 145.373C268.712 145.08 268.712 144.795 268.65 144.484C268.517 142.52 268.383 140.591 268.241 138.715C268.187 137.942 268.125 137.187 268.072 136.431C267.858 133.551 267.662 130.813 267.466 128.253C267.342 126.627 267.226 125.062 267.11 123.595C266.941 121.267 266.781 119.151 266.639 117.302L302.149 113.355C305.184 123.133 306.287 133.898 306.599 142.84C306.599 143.16 306.599 143.48 306.599 143.782C306.599 145.444 306.652 147.035 306.643 148.555Z" fill="#B8B8B8"/>
<path opacity="0.2" d="M267.11 123.578C267.226 125.054 267.342 126.609 267.466 128.245C267.662 130.805 267.858 133.534 268.072 136.423C268.79 132.838 269.148 129.19 269.139 125.534L267.11 123.578Z" fill="#B8B8B8"/>
<path opacity="0.4" d="M306.599 153.711C306.536 155.196 306.474 156.511 306.412 157.64L269.629 157.987C269.54 156.787 269.469 155.587 269.389 154.431L306.599 153.711Z" fill="#B8B8B8"/>
<path opacity="0.4" d="M306.644 148.556C306.644 149.142 306.644 149.72 306.644 150.28L269.131 151.222C269.087 150.698 269.06 150.165 269.016 149.64L306.644 148.556Z" fill="#B8B8B8"/>
<path opacity="0.4" d="M306.599 143.782L268.721 145.338C268.721 145.044 268.721 144.76 268.659 144.449L306.572 142.822C306.599 143.16 306.599 143.48 306.599 143.782Z" fill="#B8B8B8"/>
<path d="M277.782 116.316C280.977 118.983 285.792 119.818 285.792 119.818C285.792 119.818 291.274 115.711 290.241 114.289C287.456 113.96 287.847 113.125 287.224 111.498C286.874 110.488 286.731 109.418 286.806 108.351C286.821 107.756 286.871 107.163 286.957 106.574L277.346 100.103C278.779 104.6 280.639 112.894 277.782 116.316Z" fill="#B8B8B8"/>
<path opacity="0.2" d="M279.704 104.396C280.318 109.951 284.973 111.284 287.233 111.507C286.882 110.497 286.74 109.426 286.815 108.36L279.704 104.396Z" fill="#B8B8B8"/>
<path d="M289.2 83.8623C289.2 83.8623 293.133 92.0223 289.591 96.7156C286.049 101.409 281.154 85.4445 281.154 85.4445L289.2 83.8623Z" fill="#B8B8B8"/>
<path d="M278.467 107.569C279.853 108.688 281.569 109.321 283.351 109.37C285.132 109.42 286.881 108.884 288.328 107.845C290.226 106.539 291.554 104.558 292.039 102.307C292.111 101.993 292.165 101.676 292.199 101.356C292.831 95.4359 290.731 86.067 284.136 84.3337C282.682 83.946 281.152 83.9358 279.693 84.304C278.233 84.6722 276.892 85.4066 275.797 86.4376C274.701 87.4686 273.887 88.7621 273.432 90.1953C272.978 91.6285 272.897 93.1539 273.198 94.627C274.4 100.956 274.809 104.734 278.467 107.569Z" fill="#B8B8B8"/>
<path d="M283.14 95.1599C283.14 95.6755 283.531 96.0488 283.878 96.0488C284.225 96.0488 284.439 95.5421 284.377 95.0266C284.314 94.511 283.967 94.1377 283.629 94.1377C283.291 94.1377 283.077 94.6355 283.14 95.1599Z" fill="#B8B8B8"/>
<path d="M289.022 94.3958C289.022 94.9202 289.423 95.2847 289.761 95.2847C290.099 95.2847 290.322 94.778 290.259 94.2624C290.197 93.7469 289.859 93.3735 289.521 93.3735C289.182 93.3735 288.96 93.9069 289.022 94.3958Z" fill="#B8B8B8"/>
<path d="M287.188 94.8936C288.012 96.4063 289.043 97.7974 290.25 99.0269C289.925 99.3265 289.538 99.5523 289.117 99.6888C288.696 99.8254 288.251 99.8694 287.811 99.818L287.188 94.8936Z" fill="#B8B8B8"/>
<path d="M290.864 91.7113C290.814 91.7393 290.757 91.7541 290.699 91.7541C290.642 91.7541 290.585 91.7393 290.535 91.7113C290.201 91.5195 289.827 91.4077 289.442 91.3846C289.058 91.3614 288.673 91.4276 288.319 91.578C288.248 91.6169 288.165 91.6261 288.087 91.6036C288.009 91.5811 287.944 91.5287 287.905 91.458C287.866 91.3873 287.857 91.304 287.879 91.2265C287.902 91.149 287.954 91.0836 288.025 91.0447C288.468 90.8407 288.954 90.7455 289.442 90.7672C289.93 90.7888 290.405 90.9266 290.828 91.1691C290.901 91.207 290.956 91.2722 290.981 91.3505C291.006 91.4288 290.999 91.5138 290.962 91.5869C290.935 91.6324 290.902 91.6742 290.864 91.7113Z" fill="#B8B8B8"/>
<path d="M281.68 92.9734C281.622 92.9912 281.56 92.9912 281.502 92.9734C281.445 92.9153 281.413 92.8371 281.413 92.7556C281.413 92.6742 281.445 92.596 281.502 92.5379C281.819 92.1629 282.221 91.8694 282.675 91.6822C283.128 91.495 283.621 91.4196 284.11 91.4623C284.191 91.4754 284.264 91.5202 284.312 91.5868C284.361 91.6535 284.381 91.7365 284.368 91.8179C284.353 91.8964 284.309 91.9664 284.244 92.0141C284.18 92.0618 284.1 92.0838 284.021 92.0756C283.634 92.0518 283.246 92.12 282.89 92.2745C282.535 92.429 282.22 92.6654 281.974 92.9645C281.929 92.99 281.879 93.0042 281.828 93.0057C281.777 93.0073 281.726 92.9962 281.68 92.9734Z" fill="#B8B8B8"/>
<path d="M276.865 86.0581L277.63 87.1603C275.654 88.2181 276.5 90.5737 277.123 91.6048C278.44 93.8003 277.755 97.6759 276.233 99.4537C276.233 99.4537 275.993 98.4492 275.174 98.8403C274.355 99.2314 275.539 104.494 277.666 106.725C277.666 106.725 274.72 104.894 272.326 99.6137C270.083 94.6981 269.149 90.4403 269.852 88.2625L276.865 86.0581Z" fill="#B8B8B8"/>
<path d="M271.089 100.227C271.528 100.905 272.096 101.49 272.762 101.948C273.428 102.405 274.178 102.727 274.969 102.893C277.079 103.311 277.969 101.382 277.248 99.4712C276.598 97.7823 274.711 95.4801 272.655 95.9156C270.6 96.3512 270.003 98.5467 271.089 100.227Z" fill="#B8B8B8"/>
<path d="M287.812 101.854C287.355 102.664 286.959 103.508 286.628 104.378C286.459 104.378 286.299 104.316 286.139 104.271C283.967 103.791 283.113 102.849 282.828 101.951C282.698 101.513 282.677 101.049 282.766 100.6C282.806 100.341 282.884 100.09 282.997 99.8535C284.212 100.731 285.603 101.337 287.073 101.631C287.527 101.8 287.812 101.854 287.812 101.854Z" fill="#B8B8B8"/>
<path d="M287.073 101.676L286.708 102.414C284.652 101.951 283.273 101.356 282.766 100.636C282.806 100.377 282.884 100.125 282.997 99.8892C284.212 100.77 285.602 101.379 287.073 101.676Z" fill="#B8B8B8"/>
<path d="M286.129 104.271C283.958 103.791 283.103 102.849 282.818 101.951C283.643 102.151 284.426 102.494 285.132 102.965C285.594 103.284 285.943 103.742 286.129 104.271Z" fill="#B8B8B8"/>
<path d="M269.585 92.2002C269.585 92.2002 266.364 87.1868 272.344 81.8357C278.325 76.4846 286.201 78.7246 287.865 80.9468C287.865 80.9468 292.636 81.9957 290.268 86.7246L287.127 84.2535C287.127 84.2535 282.134 92.3602 269.585 92.2002Z" fill="#B8B8B8"/>
<path d="M291.977 114.689L288.853 138.725L276.046 116.449L285.631 118.156L291.977 114.689Z" fill="#B8B8B8"/>
<path opacity="0.4" d="M291.977 114.689L289.511 133.64L288.853 138.725L286.423 134.502L276.046 116.449L285.631 118.156L291.977 114.689Z" fill="#B8B8B8"/>
<path d="M289.511 133.64L288.853 138.725L286.423 134.502L285.898 124.022L281.528 119.578L285.631 118.156L286.032 118.022L289.556 118.458L287.607 123.329L289.511 133.64Z" fill="#B8B8B8"/>
<path d="M278.903 113.667L285.649 117.338L287.865 112.805L291.977 114.689L290.464 121.818L286.085 119.125L282.819 123.294L276.046 116.449L278.903 113.667Z" fill="#B8B8B8"/>
<path opacity="0.6" d="M278.903 113.667L285.649 117.338L287.865 112.805L291.977 114.689L290.464 121.818L286.085 119.125L282.819 123.294L276.046 116.449L278.903 113.667Z" fill="#B8B8B8"/>
<path d="M222.474 108.698L217.516 106.461L212.241 106.638C212.241 106.638 201.051 104.344 206.01 133.276L207.992 133.826L207.884 131.159L208.91 134.08L217.041 136.331L219.118 134.334L218.105 136.628L219.878 137.115L221.968 132.613L220.518 137.291L222.151 137.743C222.151 137.743 225.634 131.985 225.85 116.573L222.474 108.698Z" fill="#B8B8B8"/>
<path d="M227.503 189.199C227.503 189.199 234.628 238.594 232.361 247.944C230.094 257.294 198.013 305.983 198.013 305.983L194.131 303.16C194.131 303.16 207.429 267.998 217.511 252.213C219.41 249.186 221.063 247.069 221.697 244.952C222.444 242.475 220.892 238.714 219.797 235.842C217.802 230.705 211.691 214.785 211.691 214.785C211.691 214.785 205.745 202.507 210.33 190.561L227.503 189.199Z" fill="#B8B8B8"/>
<path d="M201.235 316.857C199.815 314.556 199.269 311.723 199.715 308.975L200.418 302.878L202.071 300.832C202.071 300.832 201.678 298.193 199.601 298.073C198.318 297.984 197.067 297.594 195.928 296.93L194.58 299.71C193.167 299.929 189.57 306.632 188.196 309.638L188.887 310.175C190.18 308.795 191.368 307.299 192.439 305.701C190.59 313.675 200.671 320.237 201.659 319.031C202.02 318.586 201.742 317.739 201.235 316.857Z" fill="#B8B8B8"/>
<g opacity="0.1">
<path opacity="0.1" d="M213.336 282.069L215.502 255.529C210.436 264.371 204.806 276.981 200.614 287.008C200.899 292.039 201.248 296.711 201.57 300.528C204.471 296.062 208.815 289.309 213.336 282.069Z" fill="#B8B8B8"/>
</g>
<path d="M219.004 189.199L209.144 310.083L204.363 310.04C204.363 310.04 200.482 273.664 202.464 253.836C202.901 249.468 203.768 246.384 204.085 244.183C204.376 242.15 203.945 241.042 202.989 236.195C200.513 223.705 196.777 199.875 201.723 189.199H219.004Z" fill="#B8B8B8"/>
<path d="M219.004 189.199L209.144 310.083L204.363 310.04C204.363 310.04 200.482 273.664 202.464 253.836C202.901 249.468 203.768 246.384 204.085 244.183C204.376 242.15 203.945 241.042 202.989 236.195C200.513 223.705 196.777 199.875 201.723 189.199H219.004Z" fill="#B8B8B8"/>
<path d="M217.7 316.518C215.355 315.528 213.456 313.544 212.419 311L209.885 305.545L210.196 302.815C210.196 302.815 208.53 300.895 206.757 302.109C205.659 302.857 204.431 303.338 203.154 303.52L203.471 306.66C202.419 307.733 202.888 315.53 203.3 318.868H204.142C204.497 316.915 204.709 314.932 204.775 312.941C207.308 320.667 218.954 319.672 219.163 318.042C219.239 317.428 218.567 316.92 217.7 316.518Z" fill="#B8B8B8"/>
<path d="M203.508 184.316C203.508 184.316 195.65 190.37 198.303 214.129C200.956 237.888 200.64 240.711 200.64 240.711C211.396 241.393 222.184 241.038 232.885 239.652C232.885 239.652 232.885 200.355 227.673 183.906L213.938 183.624L203.508 184.316Z" fill="#B8B8B8"/>
<path d="M204.123 181.084L200.767 185.882C200.647 185.994 200.569 186.151 200.547 186.324C200.525 186.496 200.562 186.672 200.649 186.816C200.736 186.961 200.868 187.064 201.02 187.107C201.171 187.149 201.332 187.128 201.47 187.046C204.345 186.108 209.189 184.929 208.797 187.787C208.239 191.845 218.656 183.116 219.562 186.729C220.315 189.664 225.609 186.39 228.491 186.411C228.612 186.427 228.735 186.403 228.844 186.342C228.954 186.281 229.045 186.187 229.107 186.07C229.169 185.953 229.2 185.818 229.195 185.682C229.19 185.546 229.15 185.415 229.08 185.303L226.825 181.07L209.917 178.953L204.123 181.084Z" fill="#B8B8B8"/>
<path opacity="0.2" d="M204.123 181.084L200.767 185.882C200.647 185.994 200.569 186.151 200.547 186.324C200.525 186.496 200.562 186.672 200.649 186.816C200.736 186.961 200.868 187.064 201.02 187.107C201.171 187.149 201.332 187.128 201.47 187.046C204.345 186.108 209.189 184.929 208.797 187.787C208.239 191.845 218.656 183.116 219.562 186.729C220.315 189.664 225.609 186.39 228.491 186.411C228.612 186.427 228.735 186.403 228.844 186.342C228.954 186.281 229.045 186.187 229.107 186.07C229.169 185.953 229.2 185.818 229.195 185.682C229.19 185.546 229.15 185.415 229.08 185.303L226.825 181.07L209.917 178.953L204.123 181.084Z" fill="#B8B8B8"/>
<path opacity="0.2" d="M209.709 184.774L208.531 186.602C208.655 186.763 208.743 186.954 208.79 187.16C208.836 187.366 208.838 187.58 208.797 187.788C208.696 188.493 208.956 188.825 209.43 188.874L210.292 185.078C210.308 184.996 210.299 184.911 210.266 184.836C210.233 184.761 210.178 184.701 210.11 184.665C210.042 184.63 209.965 184.622 209.892 184.641C209.819 184.661 209.755 184.708 209.709 184.774Z" fill="#B8B8B8"/>
<path opacity="0.2" d="M221.303 187.964L220.442 184.605C220.412 184.534 220.363 184.475 220.301 184.436C220.239 184.398 220.168 184.382 220.098 184.392C220.028 184.401 219.962 184.435 219.91 184.489C219.858 184.542 219.823 184.612 219.809 184.69L219.688 186.948C219.831 187.282 220.062 187.559 220.351 187.741C220.64 187.923 220.973 188.001 221.303 187.964Z" fill="#B8B8B8"/>
<path d="M209.663 125.38C210.297 129.106 210.879 135.922 208.523 138.378C208.523 138.378 211.417 141.2 217.072 144.101C220.809 140.728 218.89 138.455 218.89 138.455C215.185 137.404 215.306 134.349 215.945 131.47L209.663 125.38Z" fill="#B8B8B8"/>
<path opacity="0.2" d="M210.378 128.958C210.568 131.329 213.544 133.389 215.609 133.82C215.657 133.04 215.771 132.267 215.951 131.512L210.619 126.312C210.432 127.177 210.351 128.068 210.378 128.958Z" fill="#B8B8B8"/>
<path d="M208.46 116.926C208.46 123.15 208.295 125.782 210.911 129.169C214.85 134.271 221.708 132.959 223.411 126.869C224.944 121.393 224.741 112.142 219.447 109.27C218.283 108.624 216.99 108.322 215.692 108.392C214.393 108.462 213.132 108.902 212.03 109.67C210.927 110.438 210.02 111.509 209.395 112.779C208.77 114.05 208.448 115.478 208.46 116.926Z" fill="#B8B8B8"/>
<path d="M220.493 120.434C220.824 121.617 221.301 122.742 221.911 123.778C221.67 123.946 221.399 124.053 221.117 124.092C220.834 124.131 220.548 124.101 220.277 124.004L220.493 120.434Z" fill="#B8B8B8"/>
<path d="M214.869 116.63C214.831 116.619 214.796 116.597 214.767 116.567C214.727 116.52 214.704 116.458 214.704 116.394C214.704 116.329 214.727 116.267 214.767 116.221C215.059 115.893 215.417 115.647 215.812 115.505C216.206 115.362 216.625 115.327 217.035 115.402C217.091 115.419 217.139 115.459 217.17 115.514C217.2 115.569 217.211 115.635 217.199 115.699C217.187 115.762 217.153 115.818 217.104 115.853C217.056 115.889 216.997 115.902 216.94 115.889C216.595 115.828 216.243 115.86 215.912 115.983C215.581 116.106 215.282 116.316 215.04 116.595C215.016 116.615 214.988 116.629 214.958 116.635C214.928 116.641 214.898 116.639 214.869 116.63Z" fill="#B8B8B8"/>
<path d="M224.463 117.435C224.426 117.42 224.392 117.399 224.362 117.371C224.123 117.099 223.83 116.893 223.506 116.771C223.183 116.648 222.838 116.612 222.5 116.665C222.443 116.68 222.383 116.669 222.333 116.635C222.283 116.6 222.248 116.545 222.234 116.482C222.227 116.45 222.227 116.417 222.232 116.385C222.237 116.352 222.248 116.321 222.264 116.294C222.28 116.266 222.3 116.242 222.325 116.224C222.349 116.205 222.376 116.192 222.405 116.186C222.816 116.113 223.237 116.15 223.632 116.295C224.028 116.44 224.386 116.688 224.678 117.018C224.715 117.056 224.738 117.107 224.745 117.162C224.753 117.217 224.743 117.273 224.718 117.321C224.693 117.369 224.655 117.407 224.608 117.427C224.562 117.448 224.511 117.45 224.463 117.435Z" fill="#B8B8B8"/>
<path d="M217.346 119.361C217.346 119.862 217.529 120.292 217.827 120.314C218.125 120.335 218.384 119.947 218.416 119.439C218.448 118.931 218.232 118.514 217.935 118.493C217.637 118.472 217.377 118.853 217.346 119.361Z" fill="#B8B8B8"/>
<path d="M222.461 119.749C222.429 120.25 222.645 120.673 222.942 120.694C223.24 120.716 223.5 120.335 223.531 119.826C223.563 119.318 223.348 118.895 223.05 118.874C222.752 118.853 222.486 119.241 222.461 119.749Z" fill="#B8B8B8"/>
<path d="M222.919 118.888L224.027 118.627C224.027 118.627 223.413 119.516 222.919 118.888Z" fill="#B8B8B8"/>
<path d="M217.808 118.507L218.909 118.239C218.909 118.239 218.295 119.142 217.808 118.507Z" fill="#B8B8B8"/>
<path d="M219.118 126.573C219.307 126.628 219.5 126.666 219.695 126.685C219.722 126.687 219.749 126.678 219.77 126.658C219.792 126.638 219.805 126.61 219.808 126.58C219.81 126.549 219.801 126.519 219.784 126.495C219.766 126.471 219.741 126.456 219.714 126.453C219.282 126.421 218.864 126.277 218.492 126.031C218.12 125.786 217.806 125.447 217.573 125.041C217.567 125.028 217.558 125.016 217.548 125.006C217.538 124.996 217.526 124.989 217.513 124.984C217.5 124.98 217.486 124.978 217.473 124.979C217.459 124.981 217.446 124.985 217.434 124.992C217.422 124.999 217.411 125.008 217.402 125.02C217.394 125.031 217.387 125.045 217.383 125.059C217.379 125.074 217.377 125.089 217.378 125.104C217.379 125.119 217.383 125.134 217.389 125.147C217.779 125.854 218.398 126.365 219.118 126.573Z" fill="#B8B8B8"/>
<path d="M207.396 139.451L208.714 137.214L208.353 136.099C208.32 136.018 208.306 135.929 208.314 135.84C208.322 135.752 208.351 135.667 208.399 135.595C208.446 135.523 208.509 135.467 208.582 135.431C208.655 135.396 208.736 135.383 208.815 135.393C210.563 135.584 215.046 135.979 217.478 135.513C217.553 135.499 217.63 135.507 217.702 135.536C217.774 135.565 217.838 135.614 217.888 135.679C217.937 135.743 217.971 135.821 217.986 135.905C218.001 135.988 217.996 136.075 217.972 136.155L217.611 137.369L221.676 139.839L221.252 144.489L218.985 146.662L215.135 145.66L208.853 142.224L207.396 139.451Z" fill="#B8B8B8"/>
<path opacity="0.2" d="M207.396 139.451L208.714 137.214L208.353 136.099C208.32 136.018 208.306 135.929 208.314 135.84C208.322 135.752 208.351 135.667 208.399 135.595C208.446 135.523 208.509 135.467 208.582 135.431C208.655 135.396 208.736 135.383 208.815 135.393C210.563 135.584 215.046 135.979 217.478 135.513C217.553 135.499 217.63 135.507 217.702 135.536C217.774 135.565 217.838 135.614 217.888 135.679C217.937 135.743 217.971 135.821 217.986 135.905C218.001 135.988 217.996 136.075 217.972 136.155L217.611 137.369L221.676 139.839L221.252 144.489L218.985 146.662L215.135 145.66L208.853 142.224L207.396 139.451Z" fill="#B8B8B8"/>
<path d="M235.355 162.293L239.155 154.841L242.055 149.774H246.108C246.288 149.776 246.461 149.847 246.599 149.976C246.736 150.105 246.829 150.283 246.862 150.48L247.033 151.292C247.078 151.514 247.075 151.746 247.026 151.968C246.976 152.189 246.881 152.395 246.748 152.569L244.101 155.998C243.934 156.214 243.714 156.371 243.467 156.45L241.289 157.155L237.16 168.326L235.355 162.293Z" fill="#B8B8B8"/>
<path d="M225.54 140.234C225.54 140.234 231.321 140.629 233.899 164.416C233.899 164.416 234.025 161.594 235.355 161.594V160.528C235.355 160.456 235.373 160.386 235.408 160.325C235.443 160.264 235.493 160.216 235.552 160.186C235.611 160.157 235.676 160.146 235.74 160.157C235.804 160.167 235.864 160.198 235.912 160.246L239.762 164.12C239.801 164.154 239.832 164.198 239.853 164.247C239.874 164.297 239.885 164.351 239.885 164.406C239.885 164.461 239.874 164.515 239.853 164.564C239.832 164.614 239.801 164.657 239.762 164.692L238.724 165.588C238.724 165.588 236.387 175.389 233.316 175.389C228.092 175.382 217.58 141.977 225.54 140.234Z" fill="#B8B8B8"/>
<path opacity="0.2" d="M225.54 140.234C225.54 140.234 231.321 140.629 233.899 164.416C233.899 164.416 234.025 161.594 235.355 161.594V160.528C235.355 160.456 235.373 160.386 235.408 160.325C235.443 160.264 235.493 160.216 235.552 160.186C235.611 160.157 235.676 160.146 235.74 160.157C235.804 160.167 235.864 160.198 235.912 160.246L239.762 164.12C239.801 164.154 239.832 164.198 239.853 164.247C239.874 164.297 239.885 164.351 239.885 164.406C239.885 164.461 239.874 164.515 239.853 164.564C239.832 164.614 239.801 164.657 239.762 164.692L238.724 165.588C238.724 165.588 236.387 175.389 233.316 175.389C228.092 175.382 217.58 141.977 225.54 140.234Z" fill="#B8B8B8"/>
<path opacity="0.1" d="M223.913 146.423L222.697 148.165C223.103 155.928 226.737 167.218 230.094 172.482C231.158 169.304 231.744 165.952 231.829 162.561C231.911 155.949 227.459 145.371 227.459 145.371L223.913 146.423Z" fill="#B8B8B8"/>
<path d="M225.54 140.234C223.843 139.747 222.228 139.373 220.689 139.084C222.272 143.882 217.58 145.152 217.58 145.152C214.084 141.821 209.442 139.422 207.714 138.597C205.586 138.821 203.492 139.345 201.482 140.156L204.123 181.084H226.844C226.844 181.084 230.087 167.324 230.327 159.681C230.568 152.039 225.54 140.234 225.54 140.234Z" fill="#B8B8B8"/>
<path opacity="0.1" d="M205.862 146.422C205.862 146.422 211.023 155.222 211.764 165.002L214.962 162.829L218.47 167.959C218.529 168.044 218.568 168.144 218.583 168.249C218.598 168.355 218.59 168.464 218.559 168.565C218.527 168.666 218.474 168.757 218.403 168.83C218.333 168.903 218.247 168.955 218.154 168.982L216.887 169.349C216.887 169.349 215.285 176.673 210.694 177.111C206.103 177.548 200.714 163.527 200.714 163.527L205.862 146.422Z" fill="#B8B8B8"/>
<path opacity="0.2" d="M211.386 138.787C213.713 139.312 216.096 139.449 218.459 139.196C218.459 139.196 219.08 141.786 211.386 138.787Z" fill="#B8B8B8"/>
<path d="M213.938 163.887L221.378 156.21L225.33 150.762C225.462 150.579 225.652 150.46 225.862 150.43L231.846 149.548V149.908C231.853 150.109 231.808 150.308 231.716 150.481C231.624 150.654 231.489 150.793 231.327 150.882L229.25 152.018L228.686 156.351C228.661 156.509 228.599 156.658 228.507 156.781C228.415 156.905 228.296 157 228.16 157.056L224.013 158.75L215.837 168.241L213.938 163.887Z" fill="#B8B8B8"/>
<path d="M213.375 163.478L214.237 162.003C214.296 161.914 214.372 161.842 214.461 161.792C214.549 161.742 214.647 161.716 214.746 161.716C214.846 161.716 214.943 161.742 215.032 161.792C215.121 161.842 215.197 161.914 215.256 162.003L218.081 166.526C218.13 166.613 218.162 166.711 218.174 166.813C218.186 166.915 218.178 167.019 218.15 167.117C218.122 167.215 218.076 167.305 218.013 167.381C217.951 167.457 217.875 167.517 217.789 167.556L216.282 168.184C216.282 168.184 214.18 174.853 210.298 174.796C206.416 174.74 201.04 168.445 198.424 155.313C195.809 142.181 201.483 140.17 201.483 140.17C201.483 140.17 207.182 138.709 210.57 165.199C210.57 165.185 211.868 163.513 213.375 163.478Z" fill="#B8B8B8"/>
<path opacity="0.2" d="M213.375 163.478L214.237 162.003C214.296 161.914 214.372 161.842 214.461 161.792C214.549 161.742 214.647 161.716 214.746 161.716C214.846 161.716 214.943 161.742 215.032 161.792C215.121 161.842 215.197 161.914 215.256 162.003L218.081 166.526C218.13 166.613 218.162 166.711 218.174 166.813C218.186 166.915 218.178 167.019 218.15 167.117C218.122 167.215 218.076 167.305 218.013 167.381C217.951 167.457 217.875 167.517 217.789 167.556L216.282 168.184C216.282 168.184 214.18 174.853 210.298 174.796C206.416 174.74 201.04 168.445 198.424 155.313C195.809 142.181 201.483 140.17 201.483 140.17C201.483 140.17 207.182 138.709 210.57 165.199C210.57 165.185 211.868 163.513 213.375 163.478Z" fill="#B8B8B8"/>
<path opacity="0.6" d="M220.252 240.774L216.693 220.812L215.952 240.958C217.314 240.887 218.751 240.887 220.252 240.774Z" fill="#B8B8B8"/>
<path d="M242.232 154.093H239.598C239.504 154.092 239.412 154.065 239.329 154.014C239.247 153.963 239.178 153.89 239.128 153.801C239.078 153.713 239.049 153.611 239.044 153.507C239.039 153.402 239.057 153.298 239.098 153.203L244.062 141.864C244.172 141.616 244.342 141.408 244.552 141.262C244.762 141.116 245.005 141.038 245.253 141.038H247.887C247.981 141.039 248.074 141.065 248.156 141.116C248.238 141.167 248.307 141.24 248.357 141.329C248.407 141.418 248.436 141.519 248.441 141.624C248.447 141.728 248.428 141.833 248.387 141.927L243.423 153.267C243.313 153.514 243.143 153.723 242.933 153.869C242.723 154.015 242.48 154.092 242.232 154.093Z" fill="#B8B8B8"/>
<path opacity="0.2" d="M248.386 141.391C248.345 141.281 248.275 141.188 248.186 141.123C248.097 141.057 247.992 141.023 247.886 141.024H245.251C245.004 141.024 244.761 141.102 244.551 141.248C244.34 141.394 244.171 141.602 244.061 141.85L240.331 150.367L248.386 141.391Z" fill="#B8B8B8"/>
<path d="M247.888 141.024H247.799C247.794 141.087 247.779 141.149 247.755 141.207L242.79 152.547C242.682 152.797 242.514 153.009 242.303 153.157C242.093 153.306 241.849 153.385 241.6 153.387H239.067C239.056 153.475 239.062 153.564 239.085 153.649C239.107 153.734 239.146 153.812 239.198 153.879C239.251 153.946 239.315 154 239.387 154.036C239.46 154.073 239.538 154.092 239.618 154.093H242.252C242.5 154.092 242.743 154.015 242.953 153.869C243.163 153.723 243.333 153.514 243.443 153.267L248.407 141.927C248.452 141.831 248.472 141.723 248.468 141.614C248.463 141.506 248.433 141.401 248.38 141.309C248.328 141.218 248.255 141.144 248.168 141.094C248.082 141.043 247.985 141.019 247.888 141.024Z" fill="#B8B8B8"/>
<path opacity="0.2" d="M247.888 141.024H247.799C247.794 141.087 247.779 141.149 247.755 141.207L242.79 152.547C242.682 152.797 242.514 153.009 242.303 153.157C242.093 153.306 241.849 153.385 241.6 153.387H239.067C239.056 153.475 239.062 153.564 239.085 153.649C239.107 153.734 239.146 153.812 239.198 153.879C239.251 153.946 239.315 154 239.387 154.036C239.46 154.073 239.538 154.092 239.618 154.093H242.252C242.5 154.092 242.743 154.015 242.953 153.869C243.163 153.723 243.333 153.514 243.443 153.267L248.407 141.927C248.452 141.831 248.472 141.723 248.468 141.614C248.463 141.506 248.433 141.401 248.38 141.309C248.328 141.218 248.255 141.144 248.168 141.094C248.082 141.043 247.985 141.019 247.888 141.024Z" fill="#B8B8B8"/>
<path d="M245.905 149.421L244.828 148.955C244.673 148.886 244.506 148.851 244.339 148.854C244.171 148.856 244.006 148.896 243.852 148.97C243.699 149.044 243.56 149.151 243.443 149.286C243.327 149.42 243.236 149.579 243.175 149.753L242.789 150.811C242.699 151.072 242.677 151.356 242.726 151.63L243.359 155.299L246.202 150.571C246.26 150.477 246.299 150.369 246.315 150.257C246.331 150.144 246.325 150.028 246.297 149.918C246.268 149.808 246.218 149.707 246.15 149.621C246.083 149.535 245.999 149.467 245.905 149.421Z" fill="#B8B8B8"/>
<path d="M206.644 119.283C206.644 119.283 210.975 124.456 212.343 119.869C213.711 115.282 214.509 113.638 216.884 113.518C219.258 113.398 220.158 110.166 220.158 110.166C220.158 110.166 220.525 113.109 222.634 114.52C224.742 115.931 224.274 129.628 223.85 134.335C223.85 134.335 227.807 128.922 226.908 116.341C226.009 103.759 215.51 106.052 215.51 106.052C215.51 106.052 203.851 103.907 206.644 119.283Z" fill="#B8B8B8"/>
<path d="M206.853 121.732C207.095 122.9 207.741 123.915 208.651 124.554C209.873 125.394 210.874 124.286 210.868 122.776C210.868 121.421 210.234 119.347 208.841 119.121C208.601 119.088 208.357 119.109 208.124 119.182C207.89 119.255 207.672 119.379 207.482 119.546C207.292 119.713 207.134 119.921 207.016 120.157C206.898 120.393 206.823 120.652 206.796 120.92C206.763 121.192 206.782 121.469 206.853 121.732Z" fill="#B8B8B8"/>
<path d="M220.207 107.993C220.207 107.993 218.168 112.446 220.65 114.52C220.734 114.584 220.834 114.617 220.935 114.612C221.037 114.607 221.134 114.566 221.212 114.494C221.291 114.423 221.347 114.325 221.371 114.215C221.395 114.105 221.387 113.989 221.347 113.885C220.605 112.03 220.217 110.024 220.207 107.993Z" fill="#B8B8B8"/>
<path d="M133.456 139.43L124.28 156.541L105.493 155.448C106.013 156.411 106.589 157.343 107.219 158.239C108.252 159.697 112.711 160.381 113.138 160.017C113.711 159.62 114.305 159.255 114.918 158.924C114.918 158.924 128.463 161.475 130.181 161.297C131.899 161.119 137.301 142.915 137.301 142.915L133.456 139.43Z" fill="#EBB376"/>
<path opacity="0.2" d="M105.493 155.448C106.013 156.411 106.589 157.343 107.22 158.239C108.252 159.697 112.711 160.381 113.138 160.017C113.711 159.62 114.305 159.255 114.918 158.923C114.918 158.923 128.463 161.475 130.181 161.297C130.849 161.235 132.068 158.452 133.305 155.075C135.272 149.741 137.292 142.906 137.292 142.906L133.438 139.395L129.878 146.035L124.263 156.506L105.493 155.448Z" fill="black"/>
<path opacity="0.2" d="M129.897 146.097C130.111 149.545 130.974 153.012 133.217 155.048L133.323 155.137C135.29 149.803 137.311 142.968 137.311 142.968L133.457 139.457L129.897 146.097Z" fill="black"/>
<path d="M175.455 178.257L129.443 174.799C129.443 174.799 139.722 140.07 142.793 135.617C145.863 131.163 156.142 127.012 156.142 127.012L169.038 129.599L175.455 178.257Z" fill="#407BFF"/>
<path opacity="0.2" d="M175.455 178.257L129.443 174.799C129.443 174.799 139.722 140.07 142.793 135.617C145.863 131.163 156.142 127.012 156.142 127.012L169.038 129.599L175.455 178.257Z" fill="black"/>
<path d="M142.534 126.39C140.229 126.906 130.199 140.541 130.199 140.541L137.23 146.612L142.534 126.39Z" fill="#407BFF"/>
<path opacity="0.2" d="M142.534 126.39C140.229 126.906 130.199 140.541 130.199 140.541L137.23 146.612L142.534 126.39Z" fill="white"/>
<path d="M168.468 169.057H134.783C131.579 186.514 121.566 257.385 128.749 312.417H140.14C140.14 312.417 139.09 228.861 149.147 201.83C150.34 216.319 162.105 312.319 162.105 312.319H173.675C173.675 312.319 171.948 276.177 170.204 242.043C169.145 220.586 168.522 173.474 168.468 169.057Z" fill="#407BFF"/>
<path opacity="0.6" d="M168.468 169.057H134.783C131.579 186.514 121.566 257.385 128.749 312.417H140.14C140.14 312.417 139.09 228.861 149.147 201.83C150.34 216.319 162.105 312.319 162.105 312.319H173.675C173.675 312.319 171.948 276.177 170.204 242.043C169.145 220.586 168.522 173.474 168.468 169.057Z" fill="white"/>
<path opacity="0.2" d="M149.183 201.83C147.524 206.564 146.265 211.429 145.418 216.372C144.484 203.51 148.248 189.875 148.248 189.875L149.183 201.83Z" fill="black"/>
<path d="M164.383 311.679H172.091C172.216 311.681 172.338 311.725 172.436 311.804C172.535 311.883 172.604 311.992 172.633 312.114L173.879 317.759C173.911 317.879 173.917 318.004 173.897 318.126C173.877 318.249 173.831 318.366 173.763 318.469C173.695 318.573 173.607 318.662 173.502 318.729C173.398 318.797 173.281 318.841 173.158 318.861C173.091 318.87 173.022 318.87 172.954 318.861C170.462 318.817 168.646 318.665 165.514 318.665C163.591 318.665 157.771 318.87 155.11 318.87C152.449 318.87 152.102 316.203 153.187 315.999C158.082 314.932 161.758 313.457 163.324 312.061C163.614 311.801 163.994 311.664 164.383 311.679Z" fill="#263238"/>
<path d="M131.721 311.483H139.419C139.546 311.483 139.669 311.525 139.768 311.605C139.867 311.684 139.936 311.795 139.962 311.919L141.208 317.554C141.234 317.675 141.236 317.799 141.214 317.92C141.192 318.041 141.146 318.156 141.079 318.26C141.012 318.363 140.925 318.452 140.824 318.522C140.722 318.591 140.608 318.64 140.487 318.666H140.283C137.791 318.621 135.975 318.47 132.842 318.47C130.92 318.47 125.1 318.674 122.439 318.674C119.778 318.674 119.43 316.008 120.525 315.803C125.411 314.746 129.087 313.27 130.653 311.866C130.945 311.604 131.329 311.467 131.721 311.483Z" fill="#263238"/>
<path d="M139.17 173.137L134.097 173.074L134.533 169.457H139.17V173.137Z" fill="black"/>
<path d="M157.522 169.457H168.415V173.492L157.522 173.359V169.457Z" fill="black"/>
<path d="M156.312 173.341L140.381 173.145V169.457H156.312V173.341Z" fill="black"/>
<path d="M149.974 173.27H143.709V168.763H149.974V173.27Z" fill="white"/>
<path d="M168.415 169.457H134.533C134.533 169.457 134.097 145.315 142.543 126.39L178.142 131.786C178.521 131.843 178.881 131.987 179.193 132.209C179.506 132.43 179.762 132.721 179.941 133.059C180.12 133.397 180.218 133.773 180.225 134.155C180.233 134.538 180.15 134.916 179.984 135.261C177.225 141.092 171.271 154.746 168.415 169.457Z" fill="#263238"/>
<path d="M157.361 131.875C157.361 131.875 164.481 133.164 167.472 130.657C166.101 129.012 165.879 126.212 166.163 123.27C166.387 121.191 166.78 119.134 167.338 117.119C167.516 116.47 167.694 115.866 167.872 115.341L158.812 121.412C158.812 121.555 158.812 121.688 158.865 121.839C158.91 122.257 158.954 122.675 158.963 123.092C159.021 124.101 158.885 125.112 158.563 126.07C158.41 126.736 158.154 127.375 157.806 127.964C157.219 128.463 156.468 128.728 155.697 128.71C154.665 130.097 157.361 131.875 157.361 131.875Z" fill="#EBB376"/>
<path opacity="0.2" d="M157.771 127.963C161.032 127.411 163.999 125.743 166.163 123.243C166.387 121.165 166.78 119.107 167.338 117.092L158.83 121.839C158.874 122.257 158.919 122.675 158.928 123.092C158.985 124.101 158.849 125.112 158.527 126.07C158.374 126.736 158.119 127.375 157.771 127.963Z" fill="black"/>
<path d="M169.492 116.194C169.492 116.194 171.601 116.994 172.091 115.786C172.58 114.577 171.815 112.861 172.758 112.434C173.702 112.008 175.846 111.741 175.588 110.55C175.33 109.359 173.871 108.532 174.698 107.652C175.526 106.772 177.368 105.501 176.416 104.639C175.464 103.777 174.529 102.31 175.215 101.679C175.9 101.048 174.618 97.9277 172.732 98.3277C170.845 98.7277 171.014 97.1544 170.952 95.8033C170.889 94.4522 167.899 93.5544 167.392 94.9855C166.884 96.4166 165.229 94.8255 164.722 93.6522C164.214 92.4789 163.342 92.1411 161.722 93.1633C160.103 94.1855 160.129 97.0744 159.053 95.51C157.976 93.9455 155.955 93.0833 155.101 94.1055C154.247 95.1278 154.923 96.2478 153.428 96.3366C151.933 96.4255 150.126 99.3233 150.9 99.67C151.675 100.017 151.639 100.772 150.713 101.679C149.788 102.586 148.755 104.034 150.126 104.506C151.497 104.977 151.514 105.928 151.158 106.354C150.802 106.781 152.173 108.559 153.935 108.266C155.697 107.972 169.492 116.194 169.492 116.194Z" fill="#263238"/>
<path d="M152.217 100.666C152.217 100.666 149.645 108.986 153.686 112.932C157.726 116.879 160.094 101.039 160.094 101.039L152.217 100.666Z" fill="#263238"/>
<path d="M165.807 121.661C164.649 122.922 163.108 123.769 161.421 124.071C159.735 124.373 157.996 124.113 156.471 123.332C154.48 122.361 152.936 120.666 152.155 118.594C152.043 118.303 151.948 118.007 151.87 117.705C150.419 112.177 151.078 102.968 157.094 100.381C158.42 99.7998 159.874 99.5679 161.315 99.7074C162.757 99.8469 164.138 100.353 165.328 101.178C166.518 102.003 167.477 103.118 168.112 104.418C168.747 105.718 169.038 107.159 168.957 108.603C168.726 114.799 168.877 118.443 165.807 121.661Z" fill="#EBB376"/>
<path d="M159.595 110.541C159.64 111.048 159.355 111.43 159.017 111.43C158.678 111.43 158.411 111.03 158.402 110.541C158.394 110.052 158.652 109.652 158.981 109.652C159.31 109.652 159.577 110.026 159.595 110.541Z" fill="#263238"/>
<path d="M153.891 110.656C153.891 111.154 153.641 111.545 153.312 111.545C152.983 111.545 152.707 111.145 152.698 110.656C152.689 110.168 152.947 109.768 153.277 109.768C153.606 109.768 153.882 110.176 153.891 110.656Z" fill="#263238"/>
<path d="M155.707 110.861C155.143 112.417 154.364 113.886 153.393 115.226C153.743 115.466 154.143 115.627 154.563 115.696C154.983 115.765 155.413 115.741 155.822 115.626L155.707 110.861Z" fill="#D58745"/>
<path d="M151.763 108.355C151.81 108.38 151.862 108.394 151.915 108.394C151.968 108.394 152.02 108.38 152.066 108.355C152.358 108.124 152.699 107.963 153.064 107.886C153.428 107.809 153.806 107.817 154.166 107.91C154.203 107.927 154.243 107.936 154.284 107.936C154.324 107.936 154.365 107.928 154.402 107.912C154.439 107.896 154.473 107.873 154.501 107.843C154.528 107.814 154.55 107.779 154.563 107.741C154.577 107.702 154.582 107.662 154.579 107.621C154.576 107.581 154.565 107.542 154.546 107.506C154.527 107.47 154.501 107.438 154.47 107.413C154.438 107.388 154.401 107.37 154.362 107.359C153.908 107.223 153.427 107.199 152.962 107.29C152.497 107.382 152.061 107.585 151.692 107.884C151.66 107.905 151.632 107.933 151.61 107.965C151.589 107.998 151.575 108.034 151.568 108.073C151.561 108.111 151.562 108.15 151.572 108.188C151.581 108.226 151.598 108.261 151.621 108.292C151.663 108.323 151.712 108.344 151.763 108.355Z" fill="#263238"/>
<path d="M160.672 108.248C160.731 108.244 160.787 108.223 160.832 108.185C160.86 108.159 160.881 108.127 160.896 108.092C160.911 108.057 160.919 108.019 160.919 107.981C160.919 107.943 160.911 107.905 160.896 107.87C160.881 107.835 160.86 107.803 160.832 107.777C160.474 107.459 160.043 107.234 159.578 107.122C159.112 107.011 158.626 107.016 158.162 107.137C158.088 107.159 158.026 107.21 157.989 107.278C157.952 107.347 157.944 107.427 157.966 107.501C157.991 107.574 158.042 107.635 158.11 107.671C158.178 107.707 158.257 107.716 158.331 107.697C158.695 107.618 159.073 107.627 159.433 107.721C159.793 107.815 160.126 107.992 160.405 108.239C160.446 108.261 160.491 108.274 160.537 108.275C160.584 108.277 160.63 108.267 160.672 108.248Z" fill="#263238"/>
<path d="M164.259 100.985L163.681 102.15C165.71 102.87 165.247 105.225 164.802 106.292C163.859 108.559 165.069 112.15 166.787 113.616C166.787 113.616 166.876 112.63 167.677 112.888C168.478 113.145 168.139 118.31 166.44 120.736C166.44 120.736 168.976 118.568 170.516 113.172C171.948 108.185 172.215 104.008 171.237 102.034L164.259 100.985Z" fill="#263238"/>
<path d="M171.771 113.625C171.114 115.039 169.924 116.135 168.46 116.674C166.511 117.368 165.389 115.67 165.79 113.75C166.173 112.052 167.632 109.59 169.652 109.741C170.088 109.782 170.506 109.929 170.872 110.17C171.237 110.41 171.537 110.737 171.746 111.12C171.955 111.504 172.067 111.933 172.071 112.37C172.075 112.807 171.972 113.238 171.771 113.625Z" fill="#EBB376"/>
<path d="M164.784 124.177C161.892 126.292 156.196 127.065 153.321 123.403C150.447 119.741 151.221 113.768 151.221 113.768C151.568 115.092 152.206 116.322 153.09 117.368C154.621 115.439 157.344 116.479 157.344 116.479C157.894 115.722 158.701 115.191 159.613 114.985C160.913 114.825 164.562 114.985 164.562 114.985C165.728 114.221 165.71 110.888 165.71 110.888L166.44 111.465C166.44 111.465 167.712 122.097 164.784 124.177Z" fill="#263238"/>
<path opacity="0.2" d="M164.784 124.177C161.892 126.292 156.196 127.065 153.321 123.403C150.447 119.741 151.221 113.768 151.221 113.768C151.568 115.092 152.206 116.322 153.09 117.368C154.621 115.439 157.344 116.479 157.344 116.479C157.894 115.722 158.701 115.191 159.613 114.985C160.913 114.825 164.562 114.985 164.562 114.985C165.728 114.221 165.71 110.888 165.71 110.888L166.44 111.465C166.44 111.465 167.712 122.097 164.784 124.177Z" fill="white"/>
<path d="M157.086 118.372C157.637 119.076 158.137 119.819 158.581 120.594C158.724 120.541 158.875 120.497 159.017 120.434C161.02 119.67 161.687 118.657 161.839 117.768C161.899 117.328 161.853 116.88 161.705 116.461C161.63 116.224 161.519 115.999 161.376 115.794C160.352 116.815 159.119 117.603 157.762 118.106C157.353 118.274 157.086 118.372 157.086 118.372Z" fill="#263238"/>
<path d="M157.761 118.097L158.215 118.746C160.102 118.017 161.33 117.252 161.704 116.452C161.629 116.215 161.518 115.99 161.375 115.786C160.351 116.806 159.118 117.595 157.761 118.097Z" fill="white"/>
<path d="M159.017 120.434C161.019 119.67 161.687 118.656 161.838 117.768C161.081 118.071 160.385 118.508 159.782 119.056C159.394 119.428 159.127 119.908 159.017 120.434Z" fill="#DE5753"/>
<path d="M159.435 97.7946C159.435 97.7946 156.107 98.1323 154.558 99.6701C153.01 101.208 152.075 103.483 152.698 103.617C153.321 103.75 154.968 102.586 155.448 102.728C155.929 102.87 156.178 105.537 157.762 104.506C159.346 103.475 158.403 103.546 159.738 103.066C161.073 102.586 161.99 104.212 162.559 104.043C162.972 103.887 163.353 103.655 163.681 103.359C163.681 103.359 161.821 102.941 161.66 102.372C161.5 101.803 159.702 101.652 159.702 101.652C159.702 101.652 161.785 100.701 162.524 101.243C163.262 101.786 162.995 103.155 164.757 102.941C166.52 102.728 169.412 104.008 169.465 101.741C169.519 99.4746 163.262 95.9101 159.435 97.7946Z" fill="#263238"/>
<path d="M163.68 129.599C163.68 129.599 164.223 169.804 173.702 185.048L184.034 179.875C180.648 171.992 178.577 163.608 177.902 155.057C177.489 149.756 177.998 144.424 179.406 139.297C179.834 137.809 180.366 136.354 180.999 134.941C181.613 133.564 180.181 132.061 178.677 131.83L163.68 129.599Z" fill="#407BFF"/>
<path d="M171.85 127.963L163.689 129.599L165.718 136.417L173.701 131.11L171.85 127.963Z" fill="#407BFF"/>
<path opacity="0.2" d="M171.85 127.963L163.689 129.599L165.718 136.417L173.701 131.11L171.85 127.963Z" fill="white"/>
<path d="M153.917 127.377L150.704 131.99C150.704 131.99 141.52 136.435 131.053 181.057L125.286 176.23C125.286 176.23 137.888 129.786 142.534 126.39L153.917 127.377Z" fill="#407BFF"/>
<path d="M156.08 127.012L150.705 131.99L152.645 126.879L154.594 125.732L156.08 127.012Z" fill="#407BFF"/>
<path opacity="0.2" d="M156.08 127.012L150.705 131.99L152.645 126.879L154.594 125.732L156.08 127.012Z" fill="white"/>
<path d="M159.044 113.519C159.548 113.584 160.06 113.494 160.511 113.261C160.963 113.028 161.333 112.664 161.572 112.216C161.811 111.768 161.907 111.258 161.849 110.754C161.79 110.249 161.579 109.775 161.244 109.394C160.908 109.012 160.465 108.742 159.972 108.619C159.479 108.495 158.96 108.525 158.484 108.704C158.008 108.883 157.598 109.202 157.309 109.619C157.019 110.036 156.864 110.531 156.864 111.039C156.827 111.656 157.035 112.262 157.443 112.726C157.852 113.191 158.427 113.476 159.044 113.519ZM159.044 109.003C159.461 108.936 159.889 108.998 160.269 109.181C160.65 109.364 160.965 109.66 161.172 110.027C161.38 110.395 161.469 110.817 161.428 111.237C161.388 111.657 161.219 112.055 160.945 112.376C160.671 112.697 160.305 112.927 159.897 113.034C159.488 113.141 159.056 113.12 158.66 112.974C158.263 112.829 157.921 112.565 157.68 112.219C157.438 111.873 157.308 111.461 157.309 111.039C157.274 110.54 157.436 110.048 157.761 109.668C158.085 109.287 158.546 109.049 159.044 109.003Z" fill="#263238"/>
<path d="M153.072 113.35C153.578 113.417 154.092 113.328 154.546 113.096C155 112.863 155.373 112.498 155.614 112.049C155.855 111.599 155.953 111.087 155.895 110.581C155.837 110.075 155.626 109.598 155.29 109.214C154.954 108.831 154.509 108.559 154.014 108.434C153.519 108.31 152.998 108.339 152.52 108.518C152.043 108.697 151.631 109.017 151.34 109.436C151.049 109.854 150.892 110.352 150.892 110.861C150.855 111.479 151.063 112.086 151.471 112.552C151.879 113.018 152.454 113.304 153.072 113.35ZM153.072 108.826C153.491 108.756 153.922 108.818 154.305 109.001C154.688 109.184 155.006 109.48 155.215 109.85C155.425 110.219 155.515 110.644 155.475 111.066C155.434 111.489 155.265 111.889 154.989 112.212C154.714 112.535 154.345 112.766 153.934 112.873C153.523 112.98 153.089 112.959 152.69 112.811C152.292 112.664 151.948 112.398 151.706 112.049C151.464 111.7 151.335 111.286 151.337 110.861C151.3 110.362 151.461 109.869 151.786 109.488C152.111 109.107 152.573 108.869 153.072 108.826Z" fill="#263238"/>
<path d="M156.961 111.225L157.21 110.852C157.157 110.852 155.875 109.963 154.896 110.683L155.163 111.039C155.893 110.541 156.943 111.217 156.961 111.225Z" fill="#263238"/>
<path d="M167.296 109.536L167.385 109.971L161.044 111.257L160.955 110.822L167.296 109.536Z" fill="#263238"/>
<path opacity="0.2" d="M167.872 152.719C167.872 152.719 172.963 155.963 177.902 155.092C177.489 149.791 177.998 144.459 179.406 139.332C178.961 138.594 178.659 138.159 178.659 138.159L167.872 152.719Z" fill="black"/>
<path d="M170.72 139.43C170.72 139.43 162.426 151.075 161.66 151.875C160.895 152.675 141.191 151.875 141.191 151.875L138.111 149.706C135.208 149.403 132.286 149.329 129.372 149.484C128.847 149.706 129.648 154.817 130.262 155.412C130.876 156.008 137.381 156.826 138.156 156.541C138.79 156.367 139.451 156.312 140.105 156.381C140.105 156.381 161.607 158.301 163.689 157.519C165.772 156.737 174.218 147.928 174.218 147.928L170.72 139.43Z" fill="#EBB376"/>
<path d="M180.919 132.612C187.096 136.737 175.321 154.026 175.321 154.026L165.718 145.208C165.718 145.208 174.155 128.097 180.919 132.612Z" fill="#407BFF"/>
<path opacity="0.2" d="M180.919 132.612C187.096 136.737 175.321 154.026 175.321 154.026L165.718 145.208C165.718 145.208 174.155 128.097 180.919 132.612Z" fill="white"/>
<path d="M142.739 156.639L142.632 157.706C142.596 158.059 142.426 158.386 142.156 158.617C141.886 158.849 141.537 158.968 141.182 158.95L101.925 155.101C101.558 155.055 101.223 154.873 100.984 154.592C100.745 154.31 100.62 153.95 100.634 153.581L100.741 152.523L142.739 156.639Z" fill="#263238"/>
<path opacity="0.2" d="M142.739 156.639L142.632 157.706C142.596 158.059 142.426 158.386 142.156 158.617C141.886 158.849 141.537 158.968 141.182 158.95L101.925 155.101C101.558 155.055 101.223 154.873 100.984 154.592C100.745 154.31 100.62 153.95 100.634 153.581L100.741 152.523L142.739 156.639Z" fill="white"/>
<path opacity="0.2" d="M128.09 155.199L127.983 156.266C127.947 156.621 127.775 156.948 127.503 157.18C127.231 157.412 126.88 157.53 126.523 157.51L101.924 155.101C101.558 155.055 101.222 154.873 100.983 154.592C100.745 154.31 100.62 153.95 100.634 153.581L100.741 152.523L128.09 155.199Z" fill="white"/>
<path d="M126.621 156.532L100.687 153.99C100.267 153.934 99.8738 153.755 99.5567 153.475C99.2396 153.195 99.0135 152.826 98.9073 152.417L94.7956 133.199C94.7432 133.032 94.7338 132.855 94.7681 132.683C94.8025 132.512 94.8796 132.352 94.9922 132.218C95.1049 132.084 95.2495 131.981 95.4126 131.918C95.5758 131.855 95.7523 131.834 95.9258 131.857L121.869 134.408C122.293 134.471 122.688 134.659 123.005 134.947C123.322 135.235 123.546 135.61 123.649 136.026L127.76 155.217C127.815 155.383 127.826 155.561 127.792 155.733C127.758 155.905 127.679 156.065 127.564 156.197C127.45 156.33 127.302 156.43 127.137 156.489C126.972 156.548 126.794 156.563 126.621 156.532Z" fill="#263238"/>
<path opacity="0.2" d="M126.621 156.532L100.687 153.99C100.267 153.934 99.8738 153.755 99.5567 153.475C99.2396 153.195 99.0135 152.826 98.9073 152.417L94.7956 133.199C94.7432 133.032 94.7338 132.855 94.7681 132.683C94.8025 132.512 94.8796 132.352 94.9922 132.218C95.1049 132.084 95.2495 131.981 95.4126 131.918C95.5758 131.855 95.7523 131.834 95.9258 131.857L121.869 134.408C122.293 134.471 122.688 134.659 123.005 134.947C123.322 135.235 123.546 135.61 123.649 136.026L127.76 155.217C127.815 155.383 127.826 155.561 127.792 155.733C127.758 155.905 127.679 156.065 127.564 156.197C127.45 156.33 127.302 156.43 127.137 156.489C126.972 156.548 126.794 156.563 126.621 156.532Z" fill="white"/>
<path opacity="0.2" d="M125.642 156.443L100.723 153.99C100.303 153.934 99.9096 153.755 99.5925 153.475C99.2754 153.195 99.0493 152.826 98.9431 152.417L94.8313 133.199C94.779 133.032 94.7695 132.855 94.8039 132.683C94.8383 132.512 94.9154 132.352 95.028 132.218C95.1407 132.084 95.2853 131.981 95.4484 131.918C95.6116 131.855 95.7881 131.834 95.9616 131.857L120.926 134.31C121.349 134.374 121.744 134.562 122.06 134.85C122.377 135.138 122.602 135.513 122.706 135.928L126.773 155.128C126.825 155.293 126.833 155.469 126.798 155.639C126.763 155.809 126.686 155.967 126.573 156.098C126.46 156.23 126.315 156.331 126.152 156.391C125.989 156.451 125.814 156.469 125.642 156.443Z" fill="white"/>
<path opacity="0.2" d="M112.755 145.074C112.96 146.345 112.239 147.297 111.153 147.19C110.557 147.063 110.014 146.755 109.6 146.308C109.185 145.86 108.92 145.296 108.839 144.692C108.644 143.421 109.356 142.47 110.441 142.577C111.039 142.702 111.582 143.01 111.997 143.457C112.411 143.905 112.676 144.47 112.755 145.074Z" fill="white"/>
<g clip-path="url(#clip1)">
<path d="M161.943 83.6667C171.527 83.6667 179.297 75.9063 179.297 66.3333C179.297 56.7604 171.527 49 161.943 49C152.358 49 144.588 56.7604 144.588 66.3333C144.588 75.9063 152.358 83.6667 161.943 83.6667Z" fill="#32BA7C"/>
<path d="M157.508 74.1526L166.431 83.0653C173.822 81.0968 179.297 74.3713 179.297 66.3334C179.297 66.1694 179.297 66.0054 179.297 65.8413L172.289 59.3892L157.508 74.1526Z" fill="#0AA06E"/>
<path d="M162.38 70.2152C163.147 70.9807 163.147 72.293 162.38 73.0585L160.792 74.6442C160.026 75.4097 158.712 75.4097 157.946 74.6442L150.993 67.6452C150.226 66.8797 150.226 65.5674 150.993 64.8019L152.58 63.2162C153.347 62.4507 154.661 62.4507 155.427 63.2162L162.38 70.2152Z" fill="white"/>
<path d="M168.457 58.1313C169.223 57.3658 170.537 57.3658 171.304 58.1313L172.891 59.717C173.658 60.4825 173.658 61.7948 172.891 62.5603L160.847 74.535C160.081 75.3006 158.767 75.3006 158 74.535L156.413 72.9493C155.646 72.1838 155.646 70.8715 156.413 70.106L168.457 58.1313Z" fill="white"/>
</g>
<g clip-path="url(#clip2)">
<path d="M402.236 75.6667C411.821 75.6667 419.591 67.9063 419.591 58.3333C419.591 48.7604 411.821 41 402.236 41C392.652 41 384.882 48.7604 384.882 58.3333C384.882 67.9063 392.652 75.6667 402.236 75.6667Z" fill="#32BA7C"/>
<path d="M397.802 66.1526L406.725 75.0653C414.116 73.0968 419.591 66.3713 419.591 58.3334C419.591 58.1694 419.591 58.0054 419.591 57.8413L412.583 51.3892L397.802 66.1526Z" fill="#0AA06E"/>
<path d="M402.674 62.2152C403.44 62.9807 403.44 64.293 402.674 65.0585L401.086 66.6442C400.32 67.4097 399.006 67.4097 398.24 66.6442L391.287 59.6452C390.52 58.8797 390.52 57.5674 391.287 56.8019L392.874 55.2162C393.641 54.4507 394.955 54.4507 395.721 55.2162L402.674 62.2152Z" fill="white"/>
<path d="M408.751 50.1313C409.517 49.3658 410.831 49.3658 411.598 50.1313L413.185 51.717C413.952 52.4825 413.952 53.7948 413.185 54.5603L401.141 66.535C400.375 67.3006 399.061 67.3006 398.294 66.535L396.707 64.9493C395.94 64.1838 395.94 62.8715 396.707 62.106L408.751 50.1313Z" fill="white"/>
</g>
<g clip-path="url(#clip3)">
<path d="M63.5988 41C53.3268 41 44.9092 49.4073 44.9092 59.6667C44.9092 69.926 53.3268 78.3333 63.5988 78.3333C73.8707 78.3333 82.2884 69.926 82.2884 59.6667C82.2884 49.4073 73.8707 41 63.5988 41Z" fill="#F3F5F9"/>
<path d="M82.2882 59.6667C82.2882 69.926 73.8706 78.3333 63.5986 78.3333V41C73.8706 41 82.2882 49.4073 82.2882 59.6667Z" fill="#E1E6F0"/>
<path d="M63.599 76.1458C72.7114 76.1458 80.0984 68.7679 80.0984 59.6667C80.0984 50.5655 72.7114 43.1875 63.599 43.1875C54.4866 43.1875 47.0996 50.5655 47.0996 59.6667C47.0996 68.7679 54.4866 76.1458 63.599 76.1458Z" fill="#FF7F40"/>
<path d="M80.098 59.6667C80.098 68.7229 72.666 76.1458 63.5986 76.1458V43.1875C72.666 43.1875 80.098 50.6104 80.098 59.6667Z" fill="#F25A3C"/>
<path d="M68.2442 59.6668L72.1166 55.7992C72.5441 55.3722 72.5443 54.6798 72.1166 54.2526L69.0184 51.1593C68.5907 50.7321 67.8976 50.7321 67.4699 51.1593L63.5986 55.0269L59.7262 51.1593C59.2984 50.7321 58.6054 50.7321 58.1776 51.1593L55.0806 54.2526C54.6528 54.6798 54.6528 55.372 55.0806 55.7992L58.953 59.6668L55.0806 63.5334C54.6528 63.9606 54.6528 64.6528 55.0806 65.08L58.1776 68.1744C58.6052 68.6014 59.2983 68.6018 59.7262 68.1744L63.5986 64.3067L67.4699 68.1744C67.8974 68.6014 68.5905 68.6018 69.0184 68.1744L72.1166 65.08C72.5441 64.653 72.5443 63.9606 72.1166 63.5334L68.2442 59.6668Z" fill="#F3F5F9"/>
<path d="M69.0185 68.1744L72.1166 65.08C72.5442 64.653 72.5444 63.9606 72.1166 63.5334L68.2442 59.6668L72.1166 55.7992C72.5442 55.3722 72.5444 54.6798 72.1166 54.2526L69.0185 51.1593C68.5907 50.7321 67.8977 50.7321 67.4699 51.1593L63.5986 55.0269V64.3067L67.4699 68.1744C67.8975 68.6014 68.5906 68.6018 69.0185 68.1744Z" fill="#E1E6F0"/>
</g>
<g clip-path="url(#clip4)">
<path d="M216.676 59.6665C206.404 59.6665 197.986 68.0738 197.986 78.3332C197.986 88.5925 206.404 96.9998 216.676 96.9998C226.948 96.9998 235.365 88.5925 235.365 78.3332C235.365 68.0738 226.948 59.6665 216.676 59.6665Z" fill="#F3F5F9"/>
<path d="M235.365 78.3332C235.365 88.5925 226.948 96.9998 216.676 96.9998V59.6665C226.948 59.6665 235.365 68.0738 235.365 78.3332Z" fill="#E1E6F0"/>
<path d="M216.676 94.8123C225.789 94.8123 233.176 87.4344 233.176 78.3332C233.176 69.232 225.789 61.854 216.676 61.854C207.564 61.854 200.177 69.232 200.177 78.3332C200.177 87.4344 207.564 94.8123 216.676 94.8123Z" fill="#FF7F40"/>
<path d="M233.175 78.3332C233.175 87.3894 225.743 94.8123 216.676 94.8123V61.854C225.743 61.854 233.175 69.2769 233.175 78.3332Z" fill="#F25A3C"/>
<path d="M221.321 78.3333L225.194 74.4657C225.621 74.0387 225.621 73.3463 225.194 72.9191L222.096 69.8258C221.668 69.3986 220.975 69.3986 220.547 69.8258L216.676 73.6934L212.803 69.8258C212.376 69.3986 211.683 69.3986 211.255 69.8258L208.158 72.9191C207.73 73.3463 207.73 74.0385 208.158 74.4657L212.03 78.3333L208.158 82.1999C207.73 82.6271 207.73 83.3193 208.158 83.7465L211.255 86.8409C211.682 87.2679 212.375 87.2683 212.803 86.8409L216.676 82.9732L220.547 86.8409C220.975 87.2679 221.668 87.2683 222.096 86.8409L225.194 83.7465C225.621 83.3195 225.621 82.6271 225.194 82.1999L221.321 78.3333Z" fill="#F3F5F9"/>
<path d="M222.096 86.8409L225.194 83.7465C225.621 83.3195 225.622 82.6271 225.194 82.1999L221.321 78.3333L225.194 74.4657C225.621 74.0387 225.622 73.3463 225.194 72.9191L222.096 69.8258C221.668 69.3986 220.975 69.3986 220.547 69.8258L216.676 73.6934V82.9732L220.547 86.8409C220.975 87.2679 221.668 87.2683 222.096 86.8409Z" fill="#E1E6F0"/>
</g>
<g clip-path="url(#clip5)">
<path d="M281.645 33C271.373 33 262.955 41.4073 262.955 51.6667C262.955 61.926 271.373 70.3333 281.645 70.3333C291.917 70.3333 300.334 61.926 300.334 51.6667C300.334 41.4073 291.917 33 281.645 33Z" fill="#F3F5F9"/>
<path d="M300.334 51.6667C300.334 61.926 291.916 70.3333 281.645 70.3333V33C291.916 33 300.334 41.4073 300.334 51.6667Z" fill="#E1E6F0"/>
<path d="M281.645 68.1458C290.757 68.1458 298.144 60.7679 298.144 51.6667C298.144 42.5655 290.757 35.1875 281.645 35.1875C272.533 35.1875 265.146 42.5655 265.146 51.6667C265.146 60.7679 272.533 68.1458 281.645 68.1458Z" fill="#FF7F40"/>
<path d="M298.144 51.6667C298.144 60.7229 290.712 68.1458 281.645 68.1458V35.1875C290.712 35.1875 298.144 42.6104 298.144 51.6667Z" fill="#F25A3C"/>
<path d="M286.29 51.6668L290.162 47.7992C290.59 47.3722 290.59 46.6798 290.162 46.2526L287.064 43.1593C286.637 42.7321 285.944 42.7321 285.516 43.1593L281.644 47.0269L277.772 43.1593C277.344 42.7321 276.651 42.7321 276.224 43.1593L273.126 46.2526C272.699 46.6798 272.699 47.372 273.126 47.7992L276.999 51.6668L273.126 55.5334C272.699 55.9606 272.699 56.6528 273.126 57.08L276.224 60.1744C276.651 60.6014 277.344 60.6018 277.772 60.1744L281.644 56.3067L285.516 60.1744C285.943 60.6014 286.636 60.6018 287.064 60.1744L290.162 57.08C290.59 56.653 290.59 55.9606 290.162 55.5334L286.29 51.6668Z" fill="#F3F5F9"/>
<path d="M287.064 60.1744L290.163 57.08C290.59 56.653 290.59 55.9606 290.163 55.5334L286.29 51.6668L290.163 47.7992C290.59 47.3722 290.59 46.6798 290.163 46.2526L287.064 43.1593C286.637 42.7321 285.944 42.7321 285.516 43.1593L281.645 47.0269V56.3067L285.516 60.1744C285.943 60.6014 286.636 60.6018 287.064 60.1744Z" fill="#E1E6F0"/>
</g>
<path d="M64.7492 118.016L73.8981 120.407L65.5323 126.914L61.5986 121.349L64.7492 118.016Z" fill="#B8B8B8"/>
<path d="M39.5711 123.278C39.5711 123.278 36.0823 122.861 35.8954 123.465C35.7085 124.069 35.4149 129.198 35.8064 129.972C36.253 130.672 36.7786 131.32 37.3728 131.901L34.0176 139.252L38.1115 141.918L40.8526 133.812C40.8526 133.812 43.2111 131.945 42.8551 129.225C42.4991 126.505 39.5711 123.278 39.5711 123.278Z" fill="#B8B8B8"/>
<path d="M51.6215 119.945C48.7291 120.238 39.2953 139.323 39.2953 139.323L33.4659 136.363C33.4659 136.363 25.9189 147.731 30.2086 152.051C34.4983 156.371 50.1175 139.954 50.1175 139.954L51.6215 119.945Z" fill="#B8B8B8"/>
<path d="M78.3029 311.305H86.117C86.2457 311.306 86.3703 311.35 86.4705 311.431C86.5707 311.511 86.6406 311.624 86.6687 311.749L87.977 317.474C88.0043 317.595 88.007 317.721 87.985 317.843C87.9629 317.966 87.9165 318.083 87.8485 318.187C87.7805 318.292 87.6922 318.381 87.589 318.451C87.4857 318.521 87.3695 318.569 87.2472 318.594H87.0425C84.5061 318.549 82.6638 318.398 79.4866 318.398C77.5287 318.398 71.6281 318.603 68.9314 318.603C66.2348 318.603 65.8699 315.936 66.9824 315.687C71.9396 314.611 75.6775 313.109 77.2617 311.687C77.5509 311.438 77.9209 311.302 78.3029 311.305Z" fill="#B8B8B8"/>
<path d="M45.1423 311.1H52.9563C53.0851 311.101 53.2097 311.145 53.3099 311.226C53.4101 311.307 53.48 311.419 53.5081 311.545L54.7808 317.269C54.8308 317.515 54.7811 317.771 54.6427 317.981C54.5043 318.191 54.2884 318.338 54.0421 318.389C53.9741 318.398 53.9054 318.398 53.8374 318.389C51.301 318.345 49.4587 318.193 46.2904 318.193C44.3324 318.193 38.4229 318.398 35.7263 318.398C33.0297 318.398 32.6737 315.731 33.7773 315.482C38.7345 314.407 42.4724 312.905 44.0565 311.482C44.3572 311.223 44.7451 311.086 45.1423 311.1Z" fill="#B8B8B8"/>
<path d="M82.442 166.549H48.2846C45.0362 184.256 34.8726 256.194 42.1615 312.052H53.7313C53.7313 312.052 52.6544 227.225 62.8714 199.812C64.0461 214.478 75.9808 311.989 75.9808 311.989H87.7552C87.7552 311.989 85.9753 275.305 84.2398 240.656C83.1273 218.843 82.4954 171.029 82.442 166.549Z" fill="#B8B8B8"/>
<path opacity="0.2" d="M62.8624 199.812C61.1821 204.615 59.9079 209.551 59.0533 214.567C58.0921 201.518 61.919 187.669 61.919 187.669L62.8624 199.812Z" fill="#B8B8B8"/>
<path d="M47.9996 166.958H82.3884V171.047L47.5635 170.62L47.9996 166.958Z" fill="#B8B8B8"/>
<path d="M71.3346 165.118H70.1064V172.371H71.3346V165.118Z" fill="#B8B8B8"/>
<path d="M53.9352 165.118H52.707V172.371H53.9352V165.118Z" fill="#B8B8B8"/>
<path d="M63.672 166.238H57.3086V170.816H63.672V166.238Z" fill="#B8B8B8"/>
<path d="M87.7194 119.945C87.4791 122.007 87.2032 124.389 86.9095 126.914C86.7137 128.531 86.5179 130.229 86.3043 132.007C85.9839 134.771 85.6457 137.714 85.2897 140.789C85.2007 141.58 85.1028 142.38 85.0138 143.198C84.1239 150.718 83.2339 158.878 82.3884 166.949H47.9996C47.9996 166.949 45.383 142.274 51.6218 119.945H87.7194Z" fill="#B8B8B8"/>
<path opacity="0.2" d="M86.9091 126.914C86.7133 128.531 86.5175 130.229 86.3039 132.007C85.9835 134.771 85.6453 137.714 85.2893 140.789C84.6664 136.971 84.4397 133.098 84.6129 129.234L86.9091 126.914Z" fill="black"/>
<path d="M63.0575 119.838C63.0575 119.838 77.226 120.034 76.8789 119.838C76.5318 119.643 62.7193 131.749 62.7193 131.749L61.0283 123.136L63.0575 119.838Z" fill="#B8B8B8"/>
<path d="M75.0816 120.531C72.7588 123.776 65.4787 124.327 65.4787 124.327C65.4787 124.327 62.3727 123.269 62.9957 121.66C65.5054 120.674 64.9358 119.998 65.1227 118.336C65.1974 117.311 65.0704 116.281 64.7489 115.305C64.5887 114.763 64.384 114.229 64.1705 113.696L71.5217 105.34C71.2992 109.891 71.584 118.043 75.0816 120.531Z" fill="#B8B8B8"/>
<path opacity="0.2" d="M70.3826 109.918C71.1747 115.251 67.1698 117.607 65.1228 118.362C65.1974 117.337 65.0704 116.308 64.749 115.331L70.3826 109.918Z" fill="#B8B8B8"/>
<path d="M51.7012 96.3625C51.7012 96.3625 51.7012 104.949 56.6495 107.491C61.5977 110.034 59.2126 94.4336 59.2126 94.4336L51.7012 96.3625Z" fill="#B8B8B8"/>
<path d="M70.5956 112.194C69.8727 113.715 68.6696 114.958 67.1711 115.73C65.6726 116.503 63.9616 116.762 62.301 116.469C60.1446 116.132 58.1973 114.988 56.8543 113.269C56.6674 113.038 56.4983 112.78 56.3292 112.523C53.3567 107.731 51.292 98.8781 56.2046 94.6914C57.2845 93.7589 58.5858 93.1184 59.9841 92.8314C61.3824 92.5443 62.8311 92.6202 64.1917 93.0518C65.5523 93.4833 66.7793 94.2562 67.7556 95.2965C68.7319 96.3367 69.4247 97.6097 69.7679 98.9937C71.3521 104.878 72.5536 108.265 70.5956 112.194Z" fill="#B8B8B8"/>
<path d="M61.5091 103.518C61.6073 103.693 61.6334 103.9 61.582 104.094C61.5305 104.288 61.4054 104.454 61.2332 104.558C60.9218 104.656 60.548 104.354 60.3878 103.882C60.2276 103.411 60.3878 102.949 60.6726 102.851C60.9574 102.754 61.3489 103.047 61.5091 103.518Z" fill="#B8B8B8"/>
<path d="M56.1786 105.287C56.2764 105.461 56.3022 105.666 56.2507 105.859C56.1991 106.051 56.0743 106.216 55.9028 106.318C55.5913 106.425 55.2175 106.123 55.0128 105.652C54.8081 105.181 55.0128 104.718 55.2887 104.612C55.5646 104.505 56.0274 104.843 56.1786 105.287Z" fill="#B8B8B8"/>
<path d="M57.9496 104.94C57.877 106.565 57.5774 108.172 57.0596 109.714C57.4613 109.838 57.8853 109.873 58.302 109.816C58.7186 109.759 59.1177 109.612 59.4714 109.385L57.9496 104.94Z" fill="#B8B8B8"/>
<path d="M53.499 103.741C53.5525 103.748 53.6071 103.742 53.6572 103.722C53.7073 103.701 53.751 103.668 53.7838 103.625C53.9895 103.323 54.2633 103.073 54.5832 102.895C54.9032 102.718 55.2604 102.617 55.6261 102.603C55.704 102.603 55.7787 102.572 55.8337 102.517C55.8888 102.462 55.9198 102.387 55.9198 102.309C55.9198 102.232 55.8888 102.157 55.8337 102.102C55.7787 102.047 55.704 102.016 55.6261 102.016C55.1637 102.026 54.7104 102.146 54.3034 102.365C53.8965 102.585 53.5476 102.898 53.2854 103.278C53.2387 103.34 53.2181 103.417 53.2281 103.494C53.238 103.57 53.2779 103.64 53.3388 103.687C53.3863 103.719 53.4417 103.738 53.499 103.741Z" fill="#B8B8B8"/>
<path d="M61.8564 101.056C61.9137 101.036 61.9635 100.999 61.9988 100.949C62.0287 100.879 62.0296 100.799 62.0013 100.727C61.973 100.656 61.9178 100.598 61.8475 100.567C61.4229 100.377 60.9587 100.291 60.494 100.317C60.0293 100.343 59.5778 100.481 59.1775 100.718C59.1459 100.74 59.1191 100.769 59.0984 100.801C59.0777 100.834 59.0637 100.87 59.0571 100.908C59.0505 100.946 59.0514 100.985 59.0599 101.022C59.0683 101.06 59.0841 101.096 59.1063 101.127C59.151 101.188 59.2176 101.23 59.2922 101.243C59.3669 101.256 59.4438 101.24 59.5068 101.198C59.8278 101.022 60.1851 100.922 60.551 100.907C60.9169 100.892 61.2814 100.961 61.6161 101.109C61.6576 101.119 61.7007 101.119 61.7423 101.11C61.7839 101.101 61.8228 101.082 61.8564 101.056Z" fill="#B8B8B8"/>
<path d="M63.1196 93.1802L62.9238 94.4336C65.042 94.5225 65.2823 96.8869 65.1844 97.9891C64.953 100.398 67.1334 103.429 69.1804 104.309C69.1804 104.309 68.9668 103.349 69.8301 103.349C70.6934 103.349 71.8414 108.327 70.9425 111.1C70.9425 111.1 72.7225 108.327 72.589 102.798C72.4822 97.6869 71.521 93.6691 70.0259 92.1313L63.1196 93.1802Z" fill="#B8B8B8"/>
<path d="M73.8801 102.896C73.6682 104.419 72.862 105.796 71.6373 106.727C70.0087 107.945 68.4601 106.665 68.291 104.745C68.1575 103.038 68.8161 100.3 70.7562 99.8471C71.1799 99.7507 71.6209 99.7619 72.0391 99.8797C72.4573 99.9975 72.8392 100.218 73.1499 100.521C73.4607 100.825 73.6903 101.201 73.8179 101.616C73.9454 102.031 73.9668 102.471 73.8801 102.896Z" fill="#B8B8B8"/>
<path d="M60.2725 111.162C60.9956 111.668 61.6826 112.223 62.3283 112.825L62.6932 112.54C64.3575 111.242 64.6957 110.087 64.5711 109.207C64.5011 108.777 64.3269 108.371 64.0638 108.025C63.9245 107.821 63.7566 107.638 63.5654 107.482C62.898 108.742 61.9659 109.843 60.8332 110.709C60.495 110.976 60.2725 111.162 60.2725 111.162Z" fill="#B8B8B8"/>
<path d="M60.833 110.692L61.4471 111.172C63.0135 109.936 63.9479 108.86 64.0636 108.007C63.9243 107.803 63.7565 107.621 63.5653 107.465C62.8978 108.724 61.9658 109.825 60.833 110.692Z" fill="#B8B8B8"/>
<path d="M62.6934 112.523C64.3576 111.225 64.6958 110.069 64.5712 109.189C63.95 109.684 63.4225 110.287 63.0138 110.967C62.7416 111.438 62.6292 111.983 62.6934 112.523Z" fill="#B8B8B8"/>
<path d="M71.8601 95.4292C71.8601 95.4292 72.5453 89.8381 65.2386 87.7226C57.9319 85.607 52.147 90.7181 51.6397 93.3848C51.6397 93.3848 47.9997 96.2381 51.969 99.2959L53.6333 95.9004C53.6333 95.9004 61.2159 100.727 71.8601 95.4292Z" fill="#B8B8B8"/>
<path d="M47.2609 128.692C47.2883 128.764 47.2993 128.841 47.2933 128.918C47.2873 128.995 47.2643 129.07 47.2261 129.137C47.1878 129.204 47.1352 129.262 47.072 129.306C47.0088 129.351 46.9366 129.38 46.8604 129.394L41.0043 130.718C40.8421 130.75 40.6738 130.724 40.5289 130.645C40.384 130.565 40.2719 130.437 40.2123 130.283L36.3586 118.985C36.3295 118.909 36.3163 118.827 36.3199 118.746C36.3236 118.664 36.344 118.584 36.3799 118.511C36.4158 118.437 36.4664 118.372 36.5285 118.319C36.5907 118.266 36.6632 118.227 36.7413 118.203L42.5974 116.905C42.7717 116.889 42.9461 116.933 43.0929 117.028C43.2396 117.123 43.3503 117.264 43.4073 117.429L47.2609 128.692Z" fill="#B8B8B8"/>
<path d="M55.707 135.572L51.9957 131.127C51.9957 131.127 49.219 124.54 48.6494 123.918C48.0798 123.296 42.6331 125.243 42.0191 125.376C41.405 125.509 43.5765 132.274 44.3775 132.807C45.1785 133.34 47.6081 133.234 47.6081 133.234L52.5831 139.643L55.707 135.572Z" fill="#B8B8B8"/>
<path d="M54.9943 133.847L50.1172 139.954C50.1172 139.954 62.8706 151.581 69.0026 154.487C75.1345 157.394 87.6477 137.349 89.3653 133.412C91.083 129.474 91.2254 121.189 87.7189 119.945C84.2123 118.701 70.4087 143.056 69.0293 143.447C67.6498 143.838 54.9943 133.847 54.9943 133.847Z" fill="#B8B8B8"/>
<path d="M79.2463 119.838L76.158 116.576L67.1603 122.718L67.7566 126.318L62.924 131.207L61.598 125.118L62.9952 121.687L64.7752 118.007L58.7856 121.091L57.335 124.691L60.5211 123.136C60.5211 123.136 62.568 132.913 62.9507 132.505L70.5156 125.118L72.6159 126.487L79.2463 119.838Z" fill="#B8B8B8"/>
</g>
<defs>
<clipPath id="clip0">
<rect width="435" height="329" fill="white"/>
</clipPath>
<clipPath id="clip1">
<rect width="34.7092" height="34.6667" fill="white" transform="translate(144.588 49)"/>
</clipPath>
<clipPath id="clip2">
<rect width="34.7092" height="34.6667" fill="white" transform="translate(384.882 41)"/>
</clipPath>
<clipPath id="clip3">
<rect width="37.3792" height="37.3333" fill="white" transform="translate(44.9092 41)"/>
</clipPath>
<clipPath id="clip4">
<rect width="37.3792" height="37.3333" fill="white" transform="translate(197.986 59.6665)"/>
</clipPath>
<clipPath id="clip5">
<rect width="37.3792" height="37.3333" fill="white" transform="translate(262.955 33)"/>
</clipPath>
</defs>
</svg>
