<svg width="20" height="21" viewBox="0 0 20 21" fill="none" xmlns="http://www.w3.org/2000/svg">
<g clip-path="url(#clip0)">
<g clip-path="url(#clip1)">
<path d="M1.11328 11C1.11328 6.37554 4.87554 2.61328 9.5 2.61328C11.2392 2.61328 12.8978 3.14064 14.2944 4.11944H13.2155C12.908 4.11944 12.6588 4.36867 12.6588 4.67608C12.6588 4.98349 12.908 5.23272 13.2155 5.23272H15.824C16.1314 5.23272 16.3806 4.98349 16.3806 4.67608V2.06759C16.3806 1.76017 16.1314 1.51095 15.824 1.51095C15.5165 1.51095 15.2673 1.76017 15.2673 2.06759V3.45321C13.6187 2.18649 11.6119 1.5 9.5 1.5C6.96246 1.5 4.57681 2.48819 2.78246 4.28246C0.988186 6.07681 0 8.46246 0 11C0 12.667 0.440525 14.3095 1.27396 15.7499C1.37713 15.9283 1.56409 16.0279 1.75628 16.0279C1.8509 16.0279 1.94679 16.0037 2.03456 15.9529C2.30063 15.799 2.39151 15.4585 2.23758 15.1924C1.50208 13.9212 1.11328 12.4715 1.11328 11Z" fill="#484A47" fill-opacity="0.5"/>
<path d="M17.7257 6.2501C17.5717 5.98399 17.2311 5.89315 16.9651 6.04711C16.6991 6.20108 16.6082 6.5416 16.7621 6.80771C17.4976 8.07882 17.8864 9.52849 17.8864 11C17.8864 15.6245 14.1242 19.3867 9.4997 19.3867C7.76064 19.3867 6.1023 18.8592 4.70591 17.8806H5.78424C6.09165 17.8806 6.34088 17.6314 6.34088 17.3239C6.34088 17.0165 6.09165 16.7673 5.78424 16.7673H3.17578C2.86837 16.7673 2.61914 17.0165 2.61914 17.3239V19.9324C2.61914 20.2399 2.86837 20.4891 3.17578 20.4891C3.4832 20.4891 3.73242 20.2399 3.73242 19.9324V18.5454C5.38104 19.8126 7.38755 20.5 9.4997 20.5C12.0372 20.5 14.4229 19.5118 16.2172 17.7176C18.0115 15.9232 18.9997 13.5376 18.9997 11C18.9997 9.33296 18.5592 7.69047 17.7257 6.2501Z" fill="#484A47" fill-opacity="0.5"/>
<path d="M14.4505 9.88163C14.4887 9.73902 14.4687 9.5871 14.3949 9.45926L13.2816 7.53098C13.2078 7.40314 13.0862 7.30984 12.9436 7.27162C12.801 7.23344 12.649 7.2534 12.5212 7.32725L11.8875 7.69311C11.6622 7.52961 11.4222 7.39059 11.1695 7.27715V6.54688C11.1695 6.23946 10.9203 5.99023 10.6129 5.99023H8.38633C8.07892 5.99023 7.82969 6.23946 7.82969 6.54688V7.27711C7.57697 7.39059 7.3371 7.52957 7.1117 7.69307L6.47802 7.32721C6.35017 7.25336 6.1981 7.23336 6.05564 7.27158C5.91303 7.30977 5.79146 7.40306 5.71765 7.53094L4.60436 9.45922C4.53055 9.58706 4.51055 9.73902 4.54874 9.8816C4.58696 10.0242 4.68025 10.1458 4.80809 10.2196L5.43869 10.5836C5.42463 10.7219 5.41758 10.861 5.41758 11C5.41758 11.139 5.42463 11.2781 5.43869 11.4163L4.80809 11.7803C4.68025 11.8541 4.58696 11.9758 4.54874 12.1183C4.51055 12.2609 4.53055 12.4129 4.60436 12.5407L5.71765 14.469C5.79146 14.5968 5.91306 14.6901 6.05564 14.7283C6.19829 14.7666 6.35021 14.7466 6.47802 14.6727L7.1117 14.3069C7.33706 14.4704 7.57697 14.6094 7.82969 14.7228V15.4531C7.82969 15.7605 8.07892 16.0098 8.38633 16.0098H10.6129C10.9203 16.0098 11.1695 15.7605 11.1695 15.4531V14.7229C11.4222 14.6094 11.6621 14.4704 11.8875 14.3069L12.5212 14.6728C12.649 14.7466 12.801 14.7666 12.9436 14.7284C13.0862 14.6902 13.2078 14.5969 13.2816 14.4691L14.3949 12.5408C14.4687 12.4129 14.4887 12.261 14.4505 12.1184C14.4123 11.9758 14.319 11.8542 14.1911 11.7804L13.5605 11.4164C13.5746 11.2781 13.5816 11.139 13.5816 11C13.5816 10.861 13.5746 10.7219 13.5605 10.5837L14.1911 10.2197C14.319 10.1458 14.4123 10.0242 14.4505 9.88163ZM12.4083 10.4027C12.4481 10.598 12.4684 10.799 12.4684 11C12.4684 11.201 12.4481 11.402 12.4083 11.5973C12.3603 11.832 12.4679 12.071 12.6753 12.1908L13.1524 12.4662L12.5958 13.4303L12.1147 13.1526C11.9072 13.0327 11.6462 13.0592 11.4669 13.2183C11.1633 13.4878 10.8168 13.6885 10.437 13.815C10.2096 13.8907 10.0562 14.1034 10.0562 14.3431V14.8965H8.94293V14.3431C8.94293 14.1035 8.78952 13.8907 8.56212 13.815C8.18234 13.6885 7.83585 13.4878 7.53229 13.2183C7.35302 13.0592 7.09199 13.0327 6.88444 13.1526L6.40339 13.4303L5.84675 12.4662L6.32383 12.1908C6.53123 12.071 6.63881 11.832 6.59087 11.5973C6.55108 11.402 6.53086 11.201 6.53086 11C6.53086 10.799 6.55108 10.598 6.59094 10.4027C6.63889 10.168 6.53131 9.92899 6.3239 9.80923L5.84682 9.53381L6.40346 8.56971L6.88451 8.84743C7.09207 8.9673 7.35306 8.94084 7.53237 8.78168C7.83592 8.51222 8.18241 8.3115 8.56223 8.18503C8.7896 8.10929 8.94301 7.89654 8.94301 7.65689V7.10352H10.0563V7.65689C10.0563 7.89654 10.2097 8.10929 10.4371 8.18503C10.8169 8.3115 11.1634 8.51222 11.4669 8.78168C11.6462 8.94084 11.9072 8.96726 12.1148 8.84743L12.5958 8.56971L13.1525 9.53381L12.6754 9.80923C12.4679 9.92899 12.3603 10.168 12.4083 10.4027Z" fill="#484A47" fill-opacity="0.5"/>
<path d="M9.5 8.95898C8.37458 8.95898 7.45898 9.87458 7.45898 11C7.45898 12.1254 8.37458 13.041 9.5 13.041C10.6254 13.041 11.541 12.1254 11.541 11C11.541 9.87458 10.6254 8.95898 9.5 8.95898ZM9.5 11.9277C8.98845 11.9277 8.57227 11.5116 8.57227 11C8.57227 10.4884 8.98845 10.0723 9.5 10.0723C10.0116 10.0723 10.4277 10.4884 10.4277 11C10.4277 11.5116 10.0116 11.9277 9.5 11.9277Z" fill="#484A47" fill-opacity="0.5"/>
</g>
</g>
<defs>
<clipPath id="clip0">
<rect width="20" height="20" fill="white" transform="translate(0 0.5)"/>
</clipPath>
<clipPath id="clip1">
<rect width="19" height="19" fill="white" transform="translate(0 1.5)"/>
</clipPath>
</defs>
</svg>
