<svg width="187" height="50" viewBox="0 0 187 50" fill="none" xmlns="http://www.w3.org/2000/svg">
<path d="M45.8655 29.4238L33.1166 45.3905L20.9869 29.9744L34.0137 32.6889L45.8655 29.4238Z" fill="#231F20"/>
<path d="M62.0385 32.7529C59.4104 32.7529 57.275 31.767 55.6451 29.7823L58.349 26.7221C58.9429 27.388 59.5241 27.8873 60.0927 28.2074C60.6612 28.5403 61.2677 28.7068 61.9248 28.7068C62.7587 28.7068 63.4031 28.4379 63.8706 27.9001C64.3254 27.3624 64.5655 26.5301 64.5655 25.4161V12.6505H68.9878V25.621C68.9878 27.9001 68.3687 29.6671 67.1304 30.9091C65.9048 32.1383 64.2117 32.7529 62.0385 32.7529Z" fill="#1877F2"/>
<path d="M76.4804 32.7529C74.8758 32.7529 73.6375 32.2535 72.7405 31.2548C71.8434 30.2561 71.4011 28.8732 71.4011 27.1319V17.2983H75.6465V25.7747C75.6465 26.7734 75.874 27.5416 76.3288 28.0666C76.7837 28.5916 77.4155 28.8604 78.2367 28.8604C79.058 28.8604 79.715 28.5916 80.1825 28.0666C80.65 27.5416 80.8901 26.7734 80.8901 25.7747V17.2983H85.1482V32.4712H80.8648V30.3201C80.2836 31.0755 79.6519 31.6645 78.9696 32.0999C78.2999 32.5352 77.466 32.7529 76.4804 32.7529Z" fill="#1877F2"/>
<path d="M92.7545 32.7529C91.6552 32.7529 90.5433 32.5608 89.4314 32.1895C88.3195 31.8054 87.2835 31.242 86.3232 30.4737L88.1426 27.644C89.7852 28.8476 91.3646 29.4494 92.8682 29.4494C93.4747 29.4494 93.9169 29.347 94.2201 29.1421C94.5234 28.9372 94.675 28.6684 94.675 28.3098V28.2586C94.675 28.1562 94.6624 28.0538 94.6245 27.9641C94.5992 27.8745 94.536 27.7849 94.4728 27.7081C94.397 27.6312 94.3212 27.5672 94.2454 27.4904C94.1696 27.4264 94.0559 27.3623 93.9169 27.2983C93.7779 27.2343 93.6516 27.1831 93.5378 27.1319C93.4241 27.0807 93.2851 27.0294 93.0956 26.9654C92.9061 26.9014 92.7545 26.8502 92.6281 26.8118C92.5018 26.7734 92.3249 26.7221 92.0974 26.6581C91.87 26.5813 91.6931 26.5301 91.5541 26.5045C91.0613 26.3636 90.6318 26.21 90.2653 26.0691C89.8989 25.9283 89.5072 25.7234 89.0903 25.4801C88.6733 25.2241 88.3195 24.9424 88.0416 24.6479C87.7636 24.3406 87.5362 23.9565 87.3593 23.4955C87.1824 23.0346 87.0813 22.5096 87.0813 21.959V21.9078C87.0813 20.4097 87.5993 19.2445 88.648 18.3867C89.6841 17.5288 90.9855 17.1063 92.5523 17.1063C93.4999 17.1063 94.4602 17.2599 95.4584 17.5672C96.4439 17.8745 97.341 18.3098 98.1497 18.8604L96.5324 21.8054C94.9277 20.8707 93.5757 20.3969 92.4765 20.3969C91.9711 20.3969 91.592 20.4993 91.3141 20.6914C91.0361 20.8835 90.9097 21.1396 90.9097 21.434V21.4853C90.9097 21.7285 91.0361 21.9462 91.3014 22.1511C91.5668 22.3559 91.8447 22.5224 92.1606 22.6504C92.4765 22.7785 92.9187 22.9321 93.4999 23.137C93.7021 23.201 93.8537 23.2522 93.9548 23.2906C94.4602 23.4571 94.8898 23.6107 95.2436 23.7644C95.61 23.918 96.0017 24.1229 96.4439 24.379C96.8861 24.6351 97.2399 24.9168 97.5053 25.2113C97.7706 25.5057 97.998 25.8771 98.2002 26.3252C98.3897 26.7734 98.4908 27.2599 98.4908 27.7977V27.8489C98.4908 29.4622 97.9601 30.6786 96.9114 31.5109C95.8501 32.3303 94.4602 32.7529 92.7545 32.7529Z" fill="#1877F2"/>
<path d="M104.909 32.7145C103.507 32.7145 102.433 32.3688 101.675 31.6902C100.917 30.9987 100.55 29.8336 100.55 28.169V20.9731H98.7688V17.2855H100.55V13.4187H104.808V17.2855H108.334V20.9731H104.808V27.452C104.808 27.9514 104.922 28.3227 105.137 28.5532C105.352 28.7964 105.705 28.9117 106.173 28.9117C106.931 28.9117 107.639 28.7324 108.27 28.3739V31.831C107.297 32.4328 106.186 32.7145 104.909 32.7145Z" fill="#1877F2"/>
<path d="M116.711 32.8169C114.449 32.8169 112.579 32.0871 111.101 30.6146C109.622 29.1549 108.89 27.2599 108.89 24.9552V24.904C108.89 23.4699 109.205 22.1511 109.825 20.9475C110.444 19.7439 111.328 18.7964 112.465 18.0794C113.602 17.3624 114.879 17.0038 116.306 17.0038C117.519 17.0038 118.593 17.2343 119.541 17.6825C120.489 18.1306 121.259 18.7452 121.828 19.5262C122.409 20.2945 122.839 21.178 123.142 22.1511C123.445 23.1242 123.584 24.1613 123.584 25.2497C123.584 25.4673 123.559 25.8515 123.534 26.3892H113.11C113.312 27.3624 113.741 28.0922 114.386 28.6043C115.03 29.1165 115.826 29.3598 116.786 29.3598C117.494 29.3598 118.126 29.2446 118.682 28.9885C119.238 28.7452 119.819 28.3483 120.413 27.7977L122.839 29.9872C121.335 31.8694 119.288 32.8169 116.711 32.8169ZM113.059 23.6876H119.465C119.339 22.7017 118.998 21.9206 118.454 21.3316C117.898 20.7554 117.191 20.4609 116.319 20.4609C115.447 20.4609 114.74 20.7426 114.171 21.3188C113.59 21.9078 113.223 22.7017 113.059 23.6876Z" fill="#1877F2"/>
<path d="M132.429 32.8169C130.167 32.8169 128.297 32.0871 126.819 30.6146C125.341 29.1549 124.608 27.2599 124.608 24.9552V24.904C124.608 23.4699 124.924 22.1511 125.543 20.9475C126.162 19.7439 127.046 18.7964 128.183 18.0794C129.321 17.3624 130.597 17.0038 132.012 17.0038C133.225 17.0038 134.299 17.2343 135.246 17.6825C136.194 18.1306 136.965 18.7452 137.533 19.5262C138.115 20.2945 138.544 21.178 138.847 22.1511C139.151 23.1242 139.29 24.1613 139.29 25.2497C139.29 25.4673 139.264 25.8515 139.239 26.3892H128.815C129.03 27.3624 129.447 28.0922 130.091 28.6043C130.736 29.1165 131.532 29.3598 132.492 29.3598C133.2 29.3598 133.831 29.2446 134.387 28.9885C134.943 28.7452 135.524 28.3483 136.118 27.7977L138.544 29.9872C137.053 31.8694 135.019 32.8169 132.429 32.8169ZM128.777 23.6876H135.183C135.057 22.7017 134.716 21.9206 134.172 21.3316C133.617 20.7554 132.909 20.4609 132.037 20.4609C131.165 20.4609 130.458 20.7426 129.889 21.3188C129.321 21.9078 128.954 22.7017 128.777 23.6876Z" fill="#1877F2"/>
<path d="M148.134 32.8169C146.656 32.8169 145.329 32.4712 144.129 31.7542C142.929 31.0499 142.006 30.1024 141.337 28.8988C140.667 27.6953 140.338 26.3892 140.338 24.9552V24.904C140.338 23.4699 140.667 22.1511 141.337 20.9475C141.994 19.7439 142.941 18.7964 144.142 18.0794C145.355 17.3624 146.707 17.0038 148.197 17.0038C149.549 17.0038 150.699 17.2215 151.647 17.644C152.594 18.0666 153.428 18.7068 154.174 19.5391L151.571 22.3688C151.04 21.8054 150.522 21.3828 150.004 21.114C149.486 20.8323 148.867 20.7042 148.16 20.7042C147.111 20.7042 146.252 21.1012 145.557 21.9078C144.874 22.7145 144.521 23.6876 144.521 24.8271V24.8784C144.521 26.0691 144.874 27.0679 145.569 27.8617C146.277 28.6684 147.187 29.0653 148.324 29.0653C148.993 29.0653 149.6 28.9373 150.131 28.6684C150.661 28.3995 151.205 28.0026 151.773 27.4648L154.25 30.0128C153.441 30.9091 152.569 31.6005 151.622 32.0743C150.687 32.5864 149.524 32.8169 148.134 32.8169Z" fill="#1877F2"/>
<path d="M162.286 32.8169C160.024 32.8169 158.154 32.0871 156.676 30.6146C155.197 29.1549 154.464 27.2599 154.464 24.9552V24.904C154.464 23.4699 154.78 22.1511 155.399 20.9475C156.019 19.7439 156.903 18.7964 158.04 18.0794C159.177 17.3624 160.454 17.0038 161.869 17.0038C163.082 17.0038 164.156 17.2343 165.103 17.6825C166.051 18.1306 166.822 18.7452 167.39 19.5262C167.971 20.2945 168.401 21.178 168.704 22.1511C169.008 23.1242 169.147 24.1613 169.147 25.2497C169.147 25.4673 169.121 25.8515 169.096 26.3892H158.672C158.887 27.3624 159.304 28.0922 159.948 28.6043C160.593 29.1165 161.389 29.3598 162.349 29.3598C163.056 29.3598 163.688 29.2446 164.244 28.9885C164.8 28.7452 165.381 28.3483 165.975 27.7977L168.401 29.9872C166.91 31.8694 164.863 32.8169 162.286 32.8169ZM158.634 23.6876H165.04C164.914 22.7017 164.573 21.9206 164.029 21.3316C163.473 20.7554 162.766 20.4609 161.894 20.4609C161.022 20.4609 160.315 20.7426 159.746 21.3188C159.165 21.9078 158.798 22.7017 158.634 23.6876Z" fill="#1877F2"/>
<path d="M133.996 35.2241H130.243V37.4648H133.591V38.105H130.243V40.8323H129.548V34.571H133.996V35.2241Z" fill="#231F20"/>
<path d="M134.804 35.1984V34.4302H135.588V35.1984H134.804ZM134.855 40.8322V36.2099H135.537V40.8322H134.855Z" fill="#231F20"/>
<path d="M137.357 40.8323H136.674V36.21H137.357V37.0166C137.508 36.7606 137.71 36.5557 137.95 36.3764C138.203 36.1972 138.519 36.1204 138.911 36.1204C139.189 36.1204 139.429 36.1588 139.644 36.2612C139.858 36.3508 140.048 36.4789 140.187 36.6453C140.338 36.8118 140.452 37.0038 140.528 37.2343C140.604 37.4648 140.642 37.7081 140.642 37.9898V40.8579H139.959V38.1562C139.959 37.7209 139.846 37.388 139.631 37.1319C139.416 36.8758 139.1 36.7606 138.696 36.7606C138.506 36.7606 138.317 36.7862 138.153 36.863C137.988 36.927 137.837 37.0295 137.71 37.1575C137.584 37.2855 137.496 37.4392 137.42 37.6184C137.344 37.7977 137.319 37.9898 137.319 38.2074V40.8323H137.357Z" fill="#231F20"/>
<path d="M145.342 40.8323V39.8976C145.253 40.0384 145.14 40.1664 145.026 40.2945C144.912 40.4225 144.786 40.525 144.647 40.6274C144.508 40.717 144.344 40.7938 144.167 40.8579C143.99 40.9091 143.8 40.9347 143.586 40.9347C143.308 40.9347 143.042 40.8835 142.777 40.7682C142.524 40.6658 142.284 40.4994 142.082 40.2945C141.88 40.0896 141.716 39.8335 141.589 39.539C141.463 39.2445 141.4 38.8988 141.4 38.5147C141.4 38.1306 141.463 37.7977 141.589 37.4904C141.716 37.1959 141.88 36.9398 142.082 36.7349C142.284 36.5301 142.524 36.3764 142.777 36.2612C143.03 36.146 143.308 36.0947 143.586 36.0947C143.8 36.0947 143.99 36.1204 144.167 36.1716C144.344 36.2228 144.508 36.2996 144.647 36.3892C144.786 36.4789 144.912 36.5813 145.026 36.7093C145.14 36.8246 145.241 36.9526 145.329 37.0807V34.2894H146.012V40.8195H145.342V40.8323ZM145.228 37.7849C145.14 37.5672 145.013 37.3752 144.862 37.2215C144.71 37.0679 144.533 36.9526 144.331 36.863C144.129 36.7734 143.927 36.7349 143.712 36.7349C143.485 36.7349 143.282 36.7734 143.08 36.8502C142.878 36.927 142.714 37.0422 142.575 37.1959C142.436 37.3495 142.322 37.5416 142.234 37.7593C142.145 37.9769 142.107 38.233 142.107 38.5147C142.107 38.7836 142.145 39.0397 142.234 39.2574C142.322 39.475 142.436 39.6671 142.587 39.8207C142.739 39.9744 142.903 40.1024 143.106 40.1792C143.308 40.2689 143.51 40.3073 143.725 40.3073C143.939 40.3073 144.142 40.2689 144.344 40.1792C144.533 40.0896 144.71 39.9744 144.874 39.8207C145.026 39.6671 145.152 39.475 145.241 39.2574C145.329 39.0269 145.38 38.7964 145.38 38.5147C145.367 38.2458 145.329 38.0026 145.228 37.7849Z" fill="#231F20"/>
<path d="M151.761 40.8323H151.066V35.2241H148.993V34.571H153.845V35.2241H151.773V40.8323H151.761Z" fill="#231F20"/>
<path d="M154.49 40.8323H153.807V36.21H154.49V37.4136C154.578 37.2215 154.679 37.0423 154.806 36.8886C154.932 36.7222 155.071 36.5941 155.223 36.4661C155.387 36.3508 155.551 36.2612 155.741 36.21C155.93 36.146 156.132 36.1204 156.347 36.1204V36.863H156.297C156.044 36.863 155.816 36.9142 155.589 36.991C155.374 37.0807 155.172 37.2215 155.008 37.4008C154.844 37.58 154.705 37.7977 154.616 38.0666C154.528 38.3355 154.477 38.6428 154.477 38.9885V40.8323H154.49Z" fill="#231F20"/>
<path d="M160.188 36.21H160.858V40.8323H160.188V40.0256C160.037 40.2817 159.834 40.4866 159.582 40.6658C159.329 40.8451 159.013 40.9347 158.621 40.9347C158.344 40.9347 158.091 40.8963 157.876 40.7939C157.661 40.7042 157.484 40.5762 157.333 40.4097C157.181 40.2433 157.067 40.0512 156.992 39.8208C156.903 39.5903 156.865 39.347 156.865 39.0653V36.1972H157.548V38.8989C157.548 39.3342 157.649 39.6671 157.876 39.9232C158.091 40.1793 158.407 40.2945 158.811 40.2945C159.013 40.2945 159.19 40.2561 159.354 40.1921C159.519 40.1281 159.67 40.0256 159.784 39.8976C159.91 39.7695 159.999 39.6159 160.075 39.4366C160.15 39.2574 160.176 39.0653 160.176 38.8476V36.21H160.188Z" fill="#231F20"/>
<path d="M164.952 40.128C164.863 40.2945 164.75 40.4353 164.611 40.5634C164.472 40.6786 164.295 40.7682 164.092 40.8322C163.89 40.8963 163.676 40.9219 163.448 40.9219C163.12 40.9219 162.791 40.8578 162.45 40.7426C162.109 40.6274 161.818 40.4609 161.553 40.2432L161.894 39.7567C162.147 39.9488 162.399 40.0896 162.665 40.192C162.93 40.2945 163.208 40.3457 163.473 40.3457C163.751 40.3457 163.979 40.2817 164.156 40.1536C164.333 40.0256 164.421 39.8463 164.421 39.6158V39.603C164.421 39.4878 164.396 39.3854 164.333 39.3085C164.269 39.2189 164.194 39.1549 164.08 39.0909C163.979 39.0269 163.852 38.9756 163.713 38.9244C163.574 38.8732 163.435 38.8348 163.284 38.7964C163.107 38.7452 162.93 38.6811 162.753 38.6171C162.576 38.5531 162.412 38.4763 162.273 38.3739C162.134 38.2842 162.008 38.1562 161.919 38.0153C161.831 37.8745 161.78 37.6952 161.78 37.4776V37.4648C161.78 37.2727 161.818 37.0934 161.894 36.927C161.97 36.7605 162.084 36.6197 162.21 36.5045C162.349 36.3892 162.513 36.2996 162.703 36.2356C162.892 36.1715 163.107 36.1459 163.322 36.1459C163.612 36.1459 163.89 36.1972 164.181 36.2868C164.472 36.3764 164.737 36.5044 164.964 36.6581L164.648 37.1831C164.434 37.0422 164.219 36.9398 163.979 36.8502C163.739 36.7733 163.511 36.7349 163.296 36.7349C163.031 36.7349 162.816 36.7989 162.652 36.927C162.5 37.055 162.412 37.2087 162.412 37.4007V37.4135C162.412 37.516 162.45 37.6184 162.513 37.6952C162.576 37.7721 162.665 37.8489 162.778 37.9001C162.88 37.9641 163.006 38.0153 163.158 38.0666C163.296 38.1178 163.448 38.1562 163.6 38.2074C163.777 38.2586 163.953 38.3226 164.13 38.3867C164.307 38.4507 164.459 38.5403 164.611 38.6427C164.75 38.7452 164.863 38.8732 164.952 39.0141C165.04 39.1549 165.078 39.3342 165.078 39.539V39.5518C165.091 39.7567 165.04 39.9488 164.952 40.128Z" fill="#231F20"/>
<path d="M166.733 39.5262C166.733 39.8079 166.809 40.0128 166.948 40.128C167.087 40.2433 167.277 40.2945 167.504 40.2945C167.618 40.2945 167.731 40.2817 167.832 40.2561C167.934 40.2305 168.047 40.192 168.161 40.128V40.717C168.047 40.781 167.921 40.8322 167.795 40.8579C167.656 40.8963 167.517 40.9091 167.352 40.9091C167.163 40.9091 166.999 40.8835 166.834 40.8322C166.67 40.781 166.531 40.7042 166.417 40.6018C166.304 40.4993 166.215 40.3585 166.152 40.192C166.089 40.0256 166.064 39.8207 166.064 39.5902V36.799H165.419V36.1972H166.064V34.8015H166.746V36.1972H168.199V36.799H166.746V39.5262H166.733Z" fill="#231F20"/>
<path d="M43.0607 22.3688C42.8838 22.484 42.6943 22.5864 42.5174 22.7017C42.4542 22.7401 42.4037 22.7273 42.3405 22.6761C41.2665 21.7542 40.1546 20.9091 39.0048 20.1024C38.2467 19.5647 37.4886 19.0269 36.7052 18.5147C36.0735 18.105 35.4164 17.7337 34.7594 17.3624C34.1403 17.0167 33.5085 16.6838 32.8894 16.3508C32.7883 16.2996 32.6873 16.2356 32.5735 16.1972C32.4977 16.1716 32.4093 16.1588 32.3335 16.1844C31.8786 16.3252 31.4237 16.4661 30.9815 16.6197C30.8804 16.6581 30.792 16.7606 30.7288 16.863C30.2739 17.5288 29.7306 18.105 29.0357 18.5275C28.4798 18.8605 27.8859 19.0397 27.2415 19.0013C27.0014 18.9885 26.8877 18.8733 26.913 18.6172C26.9383 18.3355 27.0141 18.0666 27.1657 17.8105C27.7596 16.7862 28.4545 15.8387 29.1368 14.8912C29.2505 14.7247 29.3642 14.5583 29.4779 14.4046C29.6043 14.2382 29.7812 14.1613 29.9707 14.0973C31.07 13.726 32.2198 13.6876 33.3696 13.6364C33.8876 13.6108 34.4056 13.5596 34.9237 13.5724C35.3154 13.5852 35.6944 13.6364 36.0735 13.7004C36.7684 13.8284 37.4633 14.0077 38.1583 14.1485C38.5373 14.2254 38.929 14.2894 39.3333 14.3022C39.5987 14.3022 39.8766 14.315 40.142 14.2638L45.2466 10.8195C42.4289 7.24713 38.0951 4.9552 33.2306 4.9552C28.2271 4.9552 23.8048 7.38798 20.9871 11.1268L25.5358 14.443C25.5989 14.4815 25.6621 14.5199 25.7253 14.5583C26.0412 14.7631 26.395 14.84 26.7487 14.904C27.2162 14.9936 27.6964 15.0576 28.1891 15.1473C28.126 15.2497 28.0502 15.3393 27.9996 15.429C27.57 16.0692 27.1404 16.7094 26.7235 17.3496C26.5466 17.6185 26.3823 17.9129 26.3444 18.2459C26.2939 18.5916 26.256 18.9373 26.4708 19.2446C26.635 19.4879 26.8877 19.5903 27.1657 19.6287C27.5321 19.6799 27.9112 19.6287 28.265 19.5391C29.2758 19.283 30.0591 18.6812 30.7414 17.9129C30.931 17.7081 31.0826 17.4648 31.2595 17.2471C31.2848 17.2087 31.3353 17.1831 31.3732 17.1703C31.7017 17.0551 32.0302 16.9526 32.3587 16.8502C32.4725 16.8118 32.5609 16.8886 32.6494 16.9398C33.5464 17.4264 34.4435 17.9129 35.3406 18.4251C36.1872 18.9117 37.0085 19.4494 37.8045 20.0256C38.4994 20.525 39.207 21.0243 39.8893 21.5365C40.5842 22.0615 41.2539 22.6121 41.9235 23.1498C42.9849 22.7529 43.0607 22.3688 43.0607 22.3688Z" fill="#1877F2"/>
<path d="M48.5443 19.2062L44.0967 21.3957C43.7682 21.7414 43.4397 22.0871 43.048 22.356C43.048 22.356 42.9595 22.7273 41.8856 23.1114C42.1004 23.2779 42.3025 23.4699 42.4415 23.726C42.7574 24.2894 42.391 25.0961 41.7718 25.2369C41.4939 25.3009 41.2285 25.3009 40.9632 25.2241C40.8116 25.1857 40.6852 25.0705 40.5462 24.9808C40.1166 24.7247 39.6997 24.4687 39.2701 24.2126L39.2069 24.1742C39.0553 24.0845 38.891 23.9821 38.7394 23.8925C38.7268 23.8925 38.7268 23.8797 38.7141 23.8797L38.2087 23.5724C38.1961 23.5724 38.1961 23.5724 38.1835 23.5596C37.5012 23.137 36.8189 22.7273 36.1366 22.3048C35.9849 22.2151 35.7954 22.2536 35.707 22.4072C35.6185 22.5609 35.6691 22.7529 35.8207 22.8553C36.1366 23.0474 36.4398 23.2395 36.7431 23.4187L38.5878 24.5455C39.1437 24.8912 39.7123 25.2241 40.2683 25.5698C40.3188 25.5954 40.382 25.6722 40.382 25.7235C40.4325 26.1844 40.3441 26.5941 39.9777 26.9142C39.8008 27.0679 39.5733 27.1063 39.3585 27.1447C39.3459 27.1447 39.3459 27.1447 39.3333 27.1447C38.8279 27.1959 38.8279 27.2087 38.2593 26.8758C37.8929 26.671 37.5391 26.4533 37.1727 26.2356L35.429 25.2113C35.2268 25.0961 35.012 24.9808 34.8099 24.8528C34.6456 24.7504 34.4687 24.8272 34.3803 24.968C34.2918 25.1089 34.355 25.3137 34.5066 25.4034C35.0499 25.7235 35.5933 26.0436 36.1492 26.3637C36.7304 26.7094 37.3116 27.0423 37.8802 27.3752C38.0192 27.452 38.1582 27.5416 38.2845 27.6185C38.3098 27.6313 38.3477 27.6569 38.3351 27.6825C38.3098 28.0794 38.234 28.4635 37.9308 28.7452C37.7665 28.8989 37.5517 28.9373 37.3495 28.9501C37.1095 28.9629 36.8694 28.9629 36.6293 28.9117C36.4651 28.8861 36.3135 28.7708 36.1492 28.694C35.5048 28.3867 34.8604 28.0666 34.2287 27.7593C33.9633 27.6313 33.698 27.5032 33.4327 27.3752C33.2684 27.2984 33.1041 27.3624 33.0283 27.5032C32.9525 27.6697 32.9904 27.8361 33.1547 27.9258C33.4832 28.0922 33.8243 28.2587 34.1655 28.4251C34.6962 28.6812 35.2268 28.9501 35.7575 29.2062C35.8839 29.2702 36.0102 29.3342 36.1745 29.411C35.9849 29.6159 35.8207 29.808 35.6438 29.9744C35.2016 30.397 34.6456 30.4738 34.077 30.4098C33.4453 30.3457 32.8262 30.1921 32.2197 29.9872C32.0049 29.9232 31.7901 29.8464 31.55 29.7824C32.106 29.1806 32.2702 28.5148 31.9291 27.7849C31.5879 27.0679 31.0067 26.7222 30.2107 26.6966C30.2991 26.1332 30.1475 25.6338 29.7937 25.2113C29.4399 24.776 28.9724 24.5583 28.4039 24.5455C28.4039 24.5071 28.4039 24.4687 28.4039 24.4302C28.4923 23.7388 28.2396 23.1754 27.6963 22.7529C27.2414 22.3816 26.7234 22.2792 26.1548 22.4584C25.8516 22.5608 25.6241 22.7657 25.4472 23.0218C25.3462 23.1626 25.2451 23.3035 25.144 23.4443C24.727 22.0871 23.0592 21.6518 22.2758 22.6889C22.1116 22.484 21.9473 22.2792 21.783 22.0743C21.543 21.7926 21.3156 21.4981 21.0755 21.2164L17.8283 19.5007C17.803 19.8336 17.7777 20.1665 17.7777 20.5122C17.7777 29.1294 24.6639 36.1076 33.1673 36.1076C41.6708 36.1076 48.5569 29.1294 48.5569 20.5122C48.6201 20.0769 48.5822 19.6415 48.5443 19.2062ZM22.9834 25.6466C22.4401 25.5314 22.0105 24.968 22.0484 24.4046C22.061 24.187 22.1621 24.0077 22.2885 23.8413C22.478 23.5852 22.6549 23.3419 22.8444 23.0858C23.0845 22.7529 23.4256 22.6889 23.7794 22.8041C24.2343 22.9322 24.4996 23.2651 24.6133 23.7132C24.6386 23.79 24.626 23.8669 24.6386 23.9437C24.6639 24.2126 24.5249 24.4046 24.3733 24.6095C24.1837 24.8656 24.0068 25.1217 23.8173 25.3649C23.5899 25.6594 23.3119 25.7107 22.9834 25.6466ZM24.9292 27.5416C24.4617 27.4136 24.1585 27.1063 24.0321 26.6454C23.931 26.2868 24.0447 25.9539 24.2974 25.6722L25.005 24.7375C25.0176 24.7119 25.0303 24.6863 25.0682 24.6479C25.1187 24.5967 25.1566 24.5327 25.1945 24.4687C25.2072 24.4431 25.2324 24.4174 25.2451 24.4046L25.4725 24.0845C25.4851 24.0589 25.4978 24.0461 25.5104 24.0205C25.561 23.9437 25.6241 23.8669 25.6747 23.8028L25.6873 23.79C25.8263 23.598 25.9653 23.4059 26.1169 23.2139C26.2685 23.009 26.496 22.9578 26.736 22.9706C27.2541 23.009 27.6331 23.3803 27.7847 23.8413C27.8985 24.1998 27.7974 24.5199 27.5699 24.8272C27.0772 25.493 26.2812 26.5685 25.801 27.2472C25.5862 27.516 25.2577 27.6313 24.9292 27.5416ZM27.0772 29.3982C26.6097 29.2702 26.3064 28.9629 26.1801 28.502C26.079 28.1434 26.1927 27.8105 26.4454 27.5288L26.8245 26.9911C26.8371 26.9655 26.8497 26.9399 26.875 26.9014C26.9256 26.8502 26.9635 26.7862 27.0014 26.7222C27.014 26.6966 27.0393 26.671 27.0519 26.6582L27.2793 26.3381C27.292 26.3124 27.3046 26.2996 27.3172 26.274C27.3678 26.1972 27.431 26.1332 27.4815 26.0564L27.4941 26.0436C27.6331 25.8515 27.7721 25.6594 27.9237 25.4674C28.0754 25.2625 28.3028 25.2113 28.5429 25.2241C29.0609 25.2625 29.4399 25.6466 29.5789 26.0948C29.6926 26.4533 29.5916 26.7734 29.3641 27.0807C28.8714 27.7465 28.3912 28.4251 27.9111 29.0909C27.7342 29.3726 27.4057 29.4879 27.0772 29.3982ZM31.3099 29.1806C30.9941 29.6159 30.6782 30.0641 30.3497 30.4994C30.1728 30.7427 29.9201 30.8323 29.6295 30.7939C29.0988 30.7171 28.7703 30.397 28.6187 29.9104C28.5302 29.6415 28.5555 29.3726 28.7324 29.1294C29.0735 28.6684 29.3894 28.2075 29.7179 27.7465C29.9454 27.4264 30.2739 27.3624 30.6276 27.4392C31.1078 27.5416 31.5247 28.0922 31.5247 28.6556C31.5247 28.7964 31.4363 29.0013 31.3099 29.1806Z" fill="#231F20"/>
</svg>
