<svg width="20" height="21" viewBox="0 0 20 21" fill="none" xmlns="http://www.w3.org/2000/svg">
<g clip-path="url(#clip0)">
<g clip-path="url(#clip1)">
<path d="M1.11328 11C1.11328 6.37554 4.87554 2.61328 9.5 2.61328C11.2392 2.61328 12.8978 3.14064 14.2944 4.11944H13.2155C12.908 4.11944 12.6588 4.36867 12.6588 4.67608C12.6588 4.98349 12.908 5.23272 13.2155 5.23272H15.824C16.1314 5.23272 16.3806 4.98349 16.3806 4.67608V2.06759C16.3806 1.76017 16.1314 1.51095 15.824 1.51095C15.5165 1.51095 15.2673 1.76017 15.2673 2.06759V3.45321C13.6187 2.18649 11.6119 1.5 9.5 1.5C6.96246 1.5 4.57681 2.48819 2.78246 4.28246C0.988186 6.07681 0 8.46246 0 11C0 12.667 0.440525 14.3095 1.27396 15.7499C1.37713 15.9283 1.56409 16.0279 1.75628 16.0279C1.8509 16.0279 1.94679 16.0037 2.03456 15.9529C2.30063 15.799 2.39151 15.4585 2.23758 15.1924C1.50208 13.9212 1.11328 12.4715 1.11328 11Z" fill="#484A47" fill-opacity="0.5"/>
<path d="M17.7257 6.2501C17.5717 5.98399 17.2311 5.89315 16.9651 6.04711C16.6991 6.20108 16.6082 6.5416 16.7621 6.80771C17.4976 8.07882 17.8864 9.52849 17.8864 11C17.8864 15.6245 14.1242 19.3867 9.4997 19.3867C7.76064 19.3867 6.1023 18.8592 4.70591 17.8806H5.78424C6.09165 17.8806 6.34088 17.6314 6.34088 17.3239C6.34088 17.0165 6.09165 16.7673 5.78424 16.7673H3.17578C2.86837 16.7673 2.61914 17.0165 2.61914 17.3239V19.9324C2.61914 20.2399 2.86837 20.4891 3.17578 20.4891C3.4832 20.4891 3.73242 20.2399 3.73242 19.9324V18.5454C5.38104 19.8126 7.38755 20.5 9.4997 20.5C12.0372 20.5 14.4229 19.5118 16.2172 17.7176C18.0115 15.9232 18.9997 13.5376 18.9997 11C18.9997 9.33296 18.5592 7.69047 17.7257 6.2501Z" fill="#484A47" fill-opacity="0.5"/>
<g clip-path="url(#clip2)">
<path d="M7.89587 13.5291C7.893 13.5323 7.89013 13.5354 7.88731 13.5386C7.7144 13.7299 7.84695 14.041 8.101 14.041H10.9009C11.155 14.041 11.2875 13.7299 11.1147 13.5386C11.1118 13.5355 11.109 13.5323 11.1061 13.5291C10.8461 13.2433 9.8676 12.394 9.855 12.3828C9.65126 12.2031 9.3507 12.2031 9.14697 12.3828C9.13438 12.394 8.15584 13.2433 7.89587 13.5291Z" fill="#484A47" fill-opacity="0.5"/>
<path d="M10.8638 10.7346C10.9469 10.6617 11.0421 10.5812 11.1428 10.4959C11.8857 9.86679 12.9032 9.00522 12.9032 8.09961V7.55469C12.9032 6.97313 12.4335 6.5 11.8562 6.5H7.14466C6.56734 6.5 6.09766 6.97313 6.09766 7.55469V8.09961C6.09766 9.00522 7.11514 9.86679 7.85808 10.4959C7.9588 10.5812 8.05392 10.6617 8.13711 10.7346C8.21614 10.8039 8.26147 10.9006 8.26147 11C8.26147 11.0994 8.21616 11.1961 8.13711 11.2654C8.05392 11.3383 7.9588 11.4188 7.85808 11.5041C7.11514 12.1332 6.09766 12.9948 6.09766 13.9004V14.4453C6.09766 15.0269 6.56734 15.5 7.14466 15.5H11.8562C12.4335 15.5 12.9032 15.0269 12.9032 14.4453C12.9032 14.2511 12.747 14.0938 12.5542 14.0938C12.3615 14.0938 12.2052 14.2511 12.2052 14.4453C12.2052 14.6392 12.0486 14.7969 11.8562 14.7969H7.14466C6.95222 14.7969 6.79566 14.6392 6.79566 14.4453V13.9004C6.79566 13.3223 7.74188 12.5211 8.30721 12.0423C8.41025 11.9551 8.50759 11.8726 8.59524 11.7958C8.82672 11.593 8.95948 11.3029 8.95948 11C8.95948 10.6971 8.82672 10.407 8.59526 10.2042C8.50761 10.1274 8.41027 10.0449 8.30723 9.95767C7.74188 9.47895 6.79566 8.67772 6.79566 8.09961V7.55469C6.79566 7.36084 6.95222 7.20312 7.14466 7.20312H11.8562C12.0486 7.20312 12.2052 7.36084 12.2052 7.55469V8.09961C12.2052 8.67772 11.259 9.47895 10.6937 9.95767C10.5906 10.0449 10.4933 10.1273 10.4056 10.2042C10.1741 10.407 10.0414 10.6971 10.0414 11C10.0414 11.3029 10.1741 11.593 10.4056 11.7958C10.497 11.8759 10.5987 11.9617 10.7065 12.0525C11.046 12.3388 11.4309 12.6633 11.7346 13.0086C11.8625 13.1539 12.083 13.1673 12.2273 13.0385C12.3715 12.9097 12.3848 12.6875 12.257 12.5422C11.9187 12.1578 11.495 11.8005 11.1545 11.5134C11.0494 11.4247 10.9501 11.341 10.8638 11.2654C10.7847 11.1961 10.7394 11.0994 10.7394 11C10.7394 10.9006 10.7847 10.8039 10.8638 10.7346Z" fill="#484A47" fill-opacity="0.5"/>
<path d="M9.8698 9.75608C9.87597 9.75055 10.1146 9.53975 10.3862 9.29251C10.5992 9.09875 10.4681 8.73242 10.1858 8.73242H8.84935C8.56708 8.73242 8.436 9.09875 8.64892 9.29251C8.9206 9.53977 9.15919 9.75055 9.16536 9.75608C9.36806 9.93807 9.66708 9.93807 9.8698 9.75608Z" fill="#484A47" fill-opacity="0.5"/>
</g>
</g>
</g>
<defs>
<clipPath id="clip0">
<rect width="20" height="20" fill="white" transform="translate(0 0.5)"/>
</clipPath>
<clipPath id="clip1">
<rect width="19" height="19" fill="white" transform="translate(0 1.5)"/>
</clipPath>
<clipPath id="clip2">
<rect width="7" height="9" fill="white" transform="translate(6 6.5)"/>
</clipPath>
</defs>
</svg>
