<svg width="252" height="252" viewBox="0 0 252 252" fill="none" xmlns="http://www.w3.org/2000/svg">
<path d="M60.8928 212.392C71.2752 205.139 73.6339 191.677 73.2206 179.571C73.1501 177.555 73.3718 175.423 72.4142 173.649C71.4566 171.875 69.2088 170.665 67.3742 171.517C65.8622 172.223 65.2222 173.972 64.3805 175.413C63.2617 177.343 61.6191 178.915 59.6429 179.949C58.3577 180.614 56.7701 181.023 55.5 180.322C53.7562 179.365 53.5495 176.955 53.5647 174.944C53.5848 171.201 53.6067 167.457 53.6302 163.71C53.6302 161.694 53.6302 159.653 53.0254 157.743C52.4206 155.833 51.0094 154.069 49.1093 153.529C47.2092 152.99 44.8354 154.099 44.4322 156.049C44.2608 156.866 44.4322 157.718 44.3717 158.569C44.3112 159.421 43.9282 160.328 43.1369 160.585C42.3456 160.843 41.5291 160.253 40.9294 159.663C38.8579 157.647 37.4518 155.021 36.1363 152.421C34.8209 149.82 33.5458 147.164 31.6608 144.951C29.7759 142.739 27.1752 140.985 24.3024 140.824C21.4296 140.662 18.3552 142.436 17.6295 145.259C16.9037 148.081 18.5518 150.964 20.3511 153.257C23.0353 156.648 26.1962 159.633 29.7355 162.118C30.3655 162.571 31.056 163.055 31.2979 163.801C31.7314 165.137 30.4613 166.467 29.1408 166.911C27.6288 167.415 26.0211 167.253 24.4536 167.415C22.8862 167.576 21.1675 168.337 20.5779 169.794C19.7513 171.865 21.4699 173.997 23.1835 175.393C26.5696 178.213 30.4158 180.43 34.5538 181.945C36.0355 182.489 37.5778 182.953 38.7823 184.001C39.9869 185.05 38.1221 188.714 37.4014 190.13C36.6807 191.546 37.4014 190.13 35.8541 189.843C34.3068 189.555 32.9208 188.714 31.4441 188.159C28.6872 187.116 25.1189 187.308 23.3499 189.671C22.1907 191.239 22.0848 193.426 22.6745 195.296C23.2642 197.166 24.4536 198.774 25.6985 200.26C30.1236 205.452 35.7785 209.63 42.1944 211.852C48.6103 214.075 54.5323 214.675 60.8979 212.356" fill="#EBEBEB"/>
<path d="M61.054 221.363C60.4907 215.752 59.392 210.208 57.773 204.807C55.7626 198.214 53.3765 191.742 50.6263 185.423L48.4893 180.433C47.7837 178.8 47.0882 177.177 46.307 175.635C44.8075 172.677 43.1451 169.805 41.3275 167.032C39.6038 164.371 37.8751 161.906 36.2421 159.613C34.6091 157.32 33.0316 155.223 31.5196 153.363C29.1421 150.424 26.5349 147.679 23.7227 145.153C22.7147 144.256 21.9386 143.586 21.3993 143.137L20.7794 142.633C20.7116 142.57 20.6373 142.514 20.5576 142.467C20.6158 142.538 20.6817 142.602 20.7542 142.658L21.3489 143.193C21.8529 143.656 22.6492 144.342 23.627 145.254C26.3869 147.82 28.9526 150.588 31.3029 153.535C32.8149 155.399 34.3269 157.506 35.975 159.799C37.6231 162.093 39.3165 164.562 41.015 167.223C42.823 169.987 44.4786 172.847 45.9743 175.791C46.7505 177.303 47.441 178.931 48.1415 180.574L50.2735 185.554C53.0275 191.864 55.4253 198.324 57.4555 204.902C59.0851 210.281 60.2055 215.8 60.802 221.388" fill="#E0E0E0"/>
<path d="M46.2011 175.624C46.2989 175.347 46.3648 175.06 46.3976 174.767C46.5035 174.213 46.6295 173.407 46.7706 172.404C47.0529 170.388 47.3502 167.626 47.6677 164.566C47.9853 161.507 48.3229 158.76 48.6354 156.744C48.7917 155.736 48.9227 154.945 49.0235 154.386C49.0931 154.1 49.1303 153.808 49.1344 153.514C49.0217 153.785 48.9373 154.067 48.8824 154.355C48.7413 154.905 48.5649 155.706 48.3784 156.699C48.0004 158.685 47.6173 161.457 47.3049 164.521C46.9924 167.585 46.7202 170.282 46.5085 172.368C46.4077 173.311 46.322 174.102 46.2565 174.742C46.2051 175.033 46.1865 175.329 46.2011 175.624Z" fill="#E0E0E0"/>
<path d="M20.3721 170.797C20.7035 170.87 21.0409 170.912 21.3801 170.923C22.0454 170.978 23.003 171.059 24.1874 171.2C26.5511 171.452 29.807 171.921 33.3753 172.591C36.9436 173.261 40.149 174.022 42.4473 174.637C43.6014 174.934 44.5288 175.197 45.1689 175.378C45.4963 175.492 45.8338 175.575 46.1769 175.625C45.8674 175.465 45.5434 175.335 45.2092 175.237C44.5792 175.015 43.6619 174.733 42.5178 174.38C40.2246 173.7 37.0192 172.908 33.4458 172.223C29.8725 171.537 26.5914 171.124 24.2126 170.933C23.0231 170.832 22.0554 170.792 21.3902 170.776C21.0509 170.753 20.7102 170.76 20.3721 170.797Z" fill="#E0E0E0"/>
<path d="M57.4561 204.328C57.4561 204.328 57.5317 204.227 57.6375 204.015L58.076 203.078C58.459 202.266 58.9781 201.062 59.588 199.595C60.8329 196.637 62.4255 192.494 64.124 187.902C65.8225 183.311 67.3748 179.153 68.5541 176.174L69.9653 172.646C70.1165 172.263 70.2425 171.946 70.3433 171.684C70.3954 171.575 70.4327 171.459 70.4542 171.341C70.3823 171.437 70.3231 171.542 70.2778 171.653L69.8343 172.586C69.4563 173.402 68.9372 174.602 68.3223 176.073C67.0774 179.032 65.4848 183.175 63.7863 187.771C62.0878 192.368 60.5405 196.516 59.3561 199.494C58.7765 200.946 58.3028 202.135 57.9449 203.022C57.7937 203.405 57.6677 203.723 57.5669 203.985C57.5179 204.095 57.4807 204.21 57.4561 204.328Z" fill="#E0E0E0"/>
<path d="M23.1279 193.264C23.2347 193.327 23.3501 193.375 23.4706 193.405L24.4786 193.742L28.1578 194.932C31.2574 195.94 35.5314 197.376 40.2538 198.964C44.9763 200.552 49.2553 201.963 52.3851 202.905C53.9475 203.379 55.2126 203.747 56.0946 203.984L57.1026 204.251C57.2179 204.291 57.3385 204.313 57.4604 204.316C57.3545 204.255 57.241 204.207 57.1227 204.175L56.1147 203.843L52.4406 202.653C49.3359 201.645 45.067 200.209 40.3446 198.621C35.6221 197.034 31.3431 195.622 28.2234 194.68C26.661 194.206 25.3909 193.838 24.5089 193.601L23.5009 193.334C23.3795 193.297 23.2545 193.274 23.1279 193.264Z" fill="#E0E0E0"/>
<path d="M188.093 35.9756L160.353 103.718L210.153 123.717L237.47 56.4178L188.093 35.9756Z" fill="#E6E6E6"/>
<path d="M188.093 35.9756L237.485 56.3624H237.54L237.515 56.4178C229.844 75.3279 220.409 98.5976 210.213 123.727L210.188 123.793H210.117L209.755 123.646L160.322 103.784H160.262L160.287 103.723L188.093 35.9756L160.413 103.743L160.378 103.658L209.815 123.505L210.178 123.651L210.082 123.692C220.288 98.5674 229.738 75.3077 237.414 56.3926L237.444 56.4682L188.093 35.9756Z" fill="#E6E6E6"/>
<path d="M184.458 29.5098L156.718 97.2524L206.518 117.256L233.835 49.952L184.458 29.5098Z" fill="#FAFAFA"/>
<path d="M184.463 29.5098L233.855 49.8966H233.91V49.952L206.583 117.281L206.558 117.352L206.493 117.322L206.13 117.176L156.692 97.3179L156.632 97.2927L156.657 97.2272L184.463 29.5098L156.778 97.2726L156.743 97.1869L206.18 117.039L206.543 117.181L206.452 117.221C216.653 92.0965 226.108 68.8369 233.779 49.9218L233.809 50.0024L184.463 29.5098Z" fill="#EBEBEB"/>
<path d="M221.946 60.2487C221.901 60.3646 213.267 57.1037 202.663 52.9659C192.059 48.8281 183.511 45.4059 183.536 45.2799C183.561 45.1539 192.215 48.4249 202.819 52.5627C213.423 56.7005 221.991 60.1378 221.946 60.2487Z" fill="#E0E0E0"/>
<path d="M220.041 66.4483C219.995 66.5592 211.362 63.2983 200.758 59.1655C190.154 55.0327 181.606 51.6055 181.631 51.4745C181.656 51.3435 190.31 54.6245 200.914 58.7623C211.518 62.9002 220.081 66.3374 220.041 66.4483Z" fill="#E0E0E0"/>
<path d="M213.599 85.2276C213.559 85.3385 204.92 82.0776 194.316 77.9448C183.712 73.812 175.164 70.3848 175.194 70.2538C175.225 70.1228 183.868 73.4038 194.477 77.5366C205.087 81.6694 213.645 85.1168 213.599 85.2276Z" fill="#E0E0E0"/>
<path d="M210.561 91.5724C210.521 91.6833 201.882 88.4224 191.278 84.2896C180.674 80.1568 172.126 76.7296 172.156 76.5985C172.187 76.4675 180.83 79.7435 191.439 83.8813C202.049 88.0192 210.606 91.4565 210.561 91.5724Z" fill="#E0E0E0"/>
<path d="M208.036 97.9776C207.99 98.0885 199.357 94.8276 188.753 90.6948C178.149 86.562 169.601 83.1348 169.631 83.0038C169.661 82.8728 178.305 86.1538 188.914 90.2866C199.523 94.4194 208.081 97.8668 208.036 97.9776Z" fill="#E0E0E0"/>
<path d="M205.51 104.384C205.465 104.495 196.831 101.234 186.227 97.1011C175.623 92.9683 167.075 89.5411 167.106 89.41C167.136 89.279 175.779 92.5601 186.389 96.6929C196.998 100.826 205.556 104.273 205.51 104.384Z" fill="#E0E0E0"/>
<path d="M190.209 53.6416C190.083 53.9037 189.569 55.0931 189.569 55.0931L210.581 63.6158L211.221 61.8114L190.209 53.6416Z" fill="#EBEBEB"/>
<path d="M179.63 56.2773C179.499 56.5394 178.728 58.1522 178.728 58.1522L218.115 73.1513L219.083 71.0949L179.63 56.2773Z" fill="#EBEBEB"/>
<path d="M177.342 62.6582L176.445 64.5129L215.828 79.512L216.796 77.4556L177.342 62.6582Z" fill="#EBEBEB"/>
<path d="M175.361 69.3506C175.321 69.4463 174.655 71.3666 174.655 71.3666L194.367 78.9266L195.476 76.6132L175.361 69.3506Z" fill="#EBEBEB"/>
<path d="M226.861 220.571C226.861 220.646 180.069 220.702 122.372 220.702C64.6737 220.702 17.8672 220.646 17.8672 220.571C17.8672 220.495 64.6485 220.439 122.372 220.439C180.095 220.439 226.861 220.5 226.861 220.571Z" fill="#263238"/>
<path d="M49.8664 33.6628C49.191 56.4487 47.2103 142.098 46.6861 164.95C46.6509 166.448 47.2098 167.9 48.2409 168.988C49.2721 170.075 50.6917 170.711 52.1898 170.756L146.055 173.624C146.804 173.646 147.55 173.521 148.25 173.254C148.95 172.987 149.59 172.585 150.134 172.069C150.678 171.554 151.115 170.936 151.419 170.252C151.723 169.567 151.889 168.829 151.906 168.08L153.368 101.884L161.316 101.753C162.256 101.738 163.153 101.356 163.816 100.69C164.48 100.024 164.857 99.1251 164.869 98.1849L165.479 44.8567C165.488 43.9026 165.12 42.9834 164.454 42.2998C163.789 41.6162 162.88 41.2236 161.926 41.2077L154.729 41.0666L154.784 35.9107C154.8 34.42 154.227 32.9833 153.188 31.9136C152.15 30.844 150.731 30.2282 149.24 30.2004L55.6019 28.1844C54.1176 28.1599 52.6833 28.7211 51.6098 29.7465C50.5363 30.7719 49.9099 32.1789 49.8664 33.6628Z" fill="#969696"/>
<path d="M56.9975 34.6406L48.7168 166.522L145.439 171.94L153.246 41.0515L56.9975 34.6406Z" fill="#E0E0E0"/>
<path d="M45.3711 31.7776L46.0162 163.921L142.885 162.792L141.837 31.6768L45.3711 31.7776Z" fill="#EBEBEB"/>
<path d="M32.6904 40.8696L50.9756 171.743L146.826 157.692L128.279 27.8916L32.6904 40.8696Z" fill="#FAFAFA"/>
<path d="M32.6904 40.8696L128.264 27.7656H128.37V27.8715C133.586 64.3359 140.007 109.207 146.937 157.667V157.798H146.806L146.111 157.898L50.9907 171.864H50.8697V171.743C40.1244 94.3138 32.8517 41.8978 32.7257 40.8545L51.1268 171.713L50.9907 171.607L146.141 157.651L146.841 157.546L146.731 157.697C139.816 109.232 133.41 64.3611 128.209 27.8916L128.329 27.9823L32.6904 40.8696Z" fill="#263238"/>
<path d="M122.256 71.1956C122.291 71.4123 105.861 74.1692 85.5596 77.3595C65.2585 80.5498 48.7676 82.9539 48.7676 82.7422C48.7676 82.5306 65.1627 79.7686 85.4638 76.5783C105.765 73.388 122.221 70.9839 122.256 71.1956Z" fill="#263238"/>
<path d="M129.276 106.344C129.307 106.556 112.876 109.318 92.5801 112.503C72.284 115.688 55.7881 118.103 55.7881 117.886C55.7881 117.669 72.1782 114.912 92.4843 111.727C112.79 108.542 129.241 106.122 129.276 106.344Z" fill="#263238"/>
<path d="M130.301 118.994C130.331 119.211 113.901 121.968 93.6045 125.153C73.3084 128.338 56.8125 130.752 56.8125 130.536C56.8125 130.319 73.2026 127.562 93.5087 124.377C113.815 121.191 130.265 118.777 130.301 118.994Z" fill="#263238"/>
<path d="M118.526 43.4295C118.526 43.626 107.499 45.3447 93.8806 47.27C80.2625 49.1952 69.1846 50.5964 69.1846 50.3998C69.1846 50.2032 80.2121 48.4796 93.8352 46.5593C107.458 44.6391 118.516 43.2329 118.526 43.4295Z" fill="#263238"/>
<path d="M120.084 50.4354C120.084 50.6319 109.056 52.3556 95.4382 54.2759C81.8201 56.1961 70.7422 57.6023 70.7422 57.4057C70.7422 57.2092 81.7647 55.4905 95.3878 53.5652C109.011 51.6399 120.079 50.2388 120.084 50.4354Z" fill="#263238"/>
<path d="M121.969 57.8294C121.969 58.031 110.941 59.7496 97.3181 61.6749C83.695 63.6002 72.6524 64.9963 72.6221 64.7997C72.5919 64.6031 83.6648 62.8845 97.2728 60.9844C110.881 59.0843 121.969 57.6328 121.969 57.8294Z" fill="#263238"/>
<path d="M132.18 131.282C132.215 131.494 115.785 134.256 95.4834 137.441C75.1823 140.626 58.6914 143.04 58.6914 142.824C58.6914 142.607 75.0865 139.85 95.3876 136.665C115.689 133.48 132.144 131.065 132.18 131.282Z" fill="#263238"/>
<path d="M134.065 143.569C134.101 143.781 117.67 146.543 97.374 149.728C77.078 152.913 60.582 155.327 60.5518 155.111C60.5216 154.894 76.9469 152.137 97.2531 148.952C117.559 145.767 134.03 143.352 134.065 143.569Z" fill="#263238"/>
<path d="M64.0889 78.3219C64.1292 78.8259 64.4064 81.1746 64.4064 81.1746L104.923 75.3685L104.293 71.9766L64.0889 78.3219Z" fill="#407BFF"/>
<path d="M49.9766 92.0514C50.0219 92.5554 50.279 95.7961 50.279 95.7961L125.34 83.4027L124.982 79.3203L49.9766 92.0514Z" fill="#407BFF"/>
<path d="M52.21 104.076C52.2553 104.58 52.5124 107.826 52.5124 107.826L127.573 95.4322L127.215 91.3447L52.21 104.076Z" fill="#407BFF"/>
<path d="M55.21 116.318C55.21 116.504 55.9458 120.123 55.9458 120.123L93.5593 114.004L93.1863 109.383L55.21 116.318Z" fill="#407BFF"/>
<path d="M44.2822 49.6842L47.6489 73.977L69.7695 70.8774L66.7556 46.6602L44.2822 49.6842Z" fill="#263238"/>
<path d="M44.2822 49.6842L47.6489 73.977L69.7695 70.8774L66.7556 46.6602L44.2822 49.6842Z" fill="#407BFF"/>
<path d="M55.31 69.8045L61.993 68.0002C61.8872 67.1988 61.2572 64.1547 61.2572 64.1547C61.2572 64.1547 63.9939 63.192 63.5 60.3696C63.006 57.5472 61.3176 51.1766 61.3176 51.1766C59.5923 50.7922 57.7956 50.8744 56.1125 51.4147C54.4295 51.9551 52.9208 52.9341 51.7416 54.251L51.3838 54.6492L55.31 69.8045Z" fill="#FFBE9D"/>
<path d="M61.5561 56.1362C61.5042 56.1105 61.4584 56.0742 61.4214 56.0297C61.3845 55.9852 61.3573 55.9334 61.3416 55.8778C61.326 55.8221 61.3221 55.7637 61.3305 55.7065C61.3388 55.6492 61.359 55.5943 61.3898 55.5454C61.4207 55.4965 61.4615 55.4546 61.5095 55.4224C61.5576 55.3902 61.6119 55.3685 61.6689 55.3586C61.7259 55.3487 61.7843 55.3509 61.8404 55.3651C61.8965 55.3792 61.949 55.405 61.9945 55.4407C62.0415 55.4686 62.0823 55.5056 62.1147 55.5496C62.147 55.5936 62.1703 55.6436 62.1829 55.6967C62.1956 55.7498 62.1975 55.8049 62.1885 55.8587C62.1796 55.9126 62.1599 55.9641 62.1306 56.0102C62.0707 56.1026 61.9768 56.1676 61.8692 56.1912C61.7617 56.2148 61.6491 56.195 61.5561 56.1362Z" fill="#263238"/>
<path d="M62.1197 55.3655C62.0844 55.426 61.7669 55.2647 61.3788 55.3353C60.9907 55.4058 60.7488 55.6578 60.6984 55.6175C60.648 55.5772 60.6984 55.5016 60.8042 55.3857C60.9453 55.233 61.1333 55.1319 61.3385 55.0984C61.5424 55.0648 61.7518 55.0947 61.9382 55.1841C62.0794 55.2597 62.1348 55.3403 62.1197 55.3655Z" fill="#263238"/>
<path d="M57.7141 56.5394C57.7652 56.5584 57.812 56.5874 57.8518 56.6246C57.8917 56.6618 57.9237 56.7065 57.9462 56.7562C57.9687 56.8058 57.9812 56.8594 57.9828 56.9139C57.9845 56.9684 57.9754 57.0227 57.956 57.0736C57.9365 57.1246 57.9071 57.1712 57.8696 57.2108C57.832 57.2504 57.7871 57.2823 57.7372 57.3045C57.6874 57.3267 57.6336 57.3389 57.5791 57.3404C57.5245 57.3418 57.4702 57.3325 57.4193 57.313C57.3683 57.2935 57.3217 57.2641 57.2821 57.2266C57.2424 57.189 57.2106 57.1441 57.1884 57.0942C57.1662 57.0444 57.154 56.9906 57.1525 56.9361C57.151 56.8815 57.1603 56.8272 57.1798 56.7763C57.2193 56.674 57.2977 56.5916 57.3979 56.5472C57.4981 56.5028 57.6118 56.5 57.7141 56.5394Z" fill="#263238"/>
<path d="M57.9615 56.4951C57.9262 56.5505 57.6087 56.3893 57.2256 56.4598C56.8426 56.5304 56.5906 56.7874 56.5402 56.7421C56.4898 56.6967 56.5402 56.6312 56.646 56.5102C56.7928 56.3646 56.9808 56.2676 57.1846 56.2325C57.3883 56.1973 57.598 56.2256 57.7851 56.3137C57.9312 56.3893 57.9917 56.4497 57.9615 56.4951Z" fill="#263238"/>
<path d="M60.1234 59.4026C60.3079 59.2858 60.5106 59.2006 60.7232 59.1506C60.824 59.1203 60.8996 59.0851 60.8996 59.0296C60.8818 58.9271 60.8365 58.8312 60.7685 58.7524L60.3149 58.0216C59.9035 57.4085 59.5524 56.757 59.2666 56.0762C59.7433 56.6406 60.1588 57.2538 60.5064 57.9057L60.9449 58.6466C61.0353 58.7633 61.0833 58.9072 61.081 59.0548C61.0745 59.097 61.0578 59.137 61.0323 59.1712C61.0068 59.2055 60.9734 59.233 60.9348 59.2514C60.8819 59.2767 60.826 59.2953 60.7685 59.3068C60.5604 59.3749 60.3423 59.4073 60.1234 59.4026Z" fill="#263238"/>
<path d="M58.9697 60.0679C58.5211 59.9016 60.1944 60.451 60.9857 60.2645C60.892 60.4923 60.7239 60.6816 60.5088 60.8015C60.2937 60.9215 60.0443 60.9649 59.8013 60.9247C58.8638 60.7735 58.9697 60.0679 58.9697 60.0679Z" fill="white"/>
<path d="M61.2417 64.1147C59.9462 64.383 58.6002 64.2584 57.376 63.7568C57.376 63.7568 58.6209 65.6216 61.408 64.8404L61.2417 64.1147Z" fill="#EB996E"/>
<path d="M51.8474 57.3711C51.7818 57.3711 49.7205 57.608 50.5017 59.8911C51.2829 62.1742 53.3543 60.6471 53.3392 60.5816C53.3241 60.5161 51.8474 57.3711 51.8474 57.3711Z" fill="#FFBE9D"/>
<path d="M52.3576 60.0378C52.3576 60.0378 52.3274 60.0781 52.2669 60.1336C52.1849 60.2054 52.0785 60.2432 51.9695 60.2394C51.6974 60.2394 51.3597 59.9168 51.2085 59.5036C51.1362 59.3072 51.1086 59.0971 51.1279 58.8887C51.1257 58.8092 51.1424 58.7303 51.1765 58.6584C51.2107 58.5866 51.2614 58.5239 51.3244 58.4754C51.366 58.4474 51.4162 58.435 51.466 58.4406C51.5159 58.4461 51.5621 58.4692 51.5966 58.5056C51.652 58.5611 51.652 58.6115 51.6671 58.6115C51.6823 58.6115 51.7024 58.556 51.6671 58.4653C51.634 58.4135 51.5842 58.3744 51.526 58.3544C51.4877 58.3384 51.4466 58.3301 51.4051 58.3301C51.3635 58.3301 51.3224 58.3384 51.2841 58.3544C51.1956 58.4061 51.1218 58.4795 51.0698 58.5677C51.0177 58.6559 50.9891 58.756 50.9867 58.8584C50.9551 59.0913 50.981 59.3284 51.0623 59.5489C51.1204 59.7592 51.2395 59.9475 51.4046 60.0901C51.5696 60.2328 51.7732 60.3233 51.9897 60.3503C52.0573 60.3474 52.1233 60.3291 52.1827 60.2967C52.2421 60.2644 52.2933 60.219 52.3324 60.1638C52.3727 60.0932 52.3677 60.0378 52.3576 60.0378Z" fill="#EB996E"/>
<path d="M61.2768 51.0965C60.9088 53.1679 58.2528 54.4531 56.2065 54.9521C57.0079 53.9441 56.4484 54.2213 56.9323 53.5207C55.5981 55.1947 53.7047 56.331 51.6 56.7211C51.3518 56.2736 51.1961 55.7808 51.1423 55.2719C51.0884 54.7631 51.1375 54.2486 51.2866 53.7591C51.4356 53.2696 51.6816 52.8151 52.0099 52.4226C52.3383 52.0301 52.7422 51.7077 53.1976 51.4745C53.7974 51.167 54.4627 51.0209 55.0826 50.7537C55.5866 50.5269 56.0906 50.2094 56.6248 50.023C58.2376 49.4686 60.8433 48.511 61.2768 51.0965Z" fill="#263238"/>
<path d="M52.6699 55.4404C52.6145 55.7327 52.6195 59.039 52.6195 59.039L51.3242 56.0906L52.6699 55.4404Z" fill="#263238"/>
<path d="M42.0654 81.5729L47.6649 73.3224C48.7292 71.6863 50.164 70.324 51.8531 69.3459C52.7473 68.821 53.7184 68.44 54.7309 68.2169C57.2178 68.5199 59.7377 68.05 61.9482 66.8712C63.9636 66.7163 65.9907 66.909 67.9408 67.4407L79.0288 69.6986L77.4261 79.4258L71.5696 78.6245L72.8397 87.253L76.3274 99.853L54.9779 104.066L53.0829 92.3887L51.5305 83.977L49.0105 87.5554L42.0654 81.5729Z" fill="#455A64"/>
<path d="M163.14 218.817L163.114 214.18L171.793 214.079L171.904 220.858L171.365 220.898C168.971 221.06 159.183 221.553 157.575 221.085C155.786 220.566 163.14 218.817 163.14 218.817Z" fill="#798296"/>
<path d="M168.76 220.828C168.879 220.094 169.265 219.43 169.843 218.963C170.409 218.499 171.129 218.266 171.859 218.308L171.89 220.732L168.76 220.828Z" fill="#798296"/>
<path d="M159.546 219.8C159.546 219.8 156.971 220.576 157.298 220.999C157.626 221.423 167.54 221.297 171.914 220.858V220.662L160.353 220.909C160.353 220.909 160.055 219.815 159.546 219.8Z" fill="#798296"/>
<path d="M172.026 220.656H171.875L171.446 220.692L169.874 220.777C168.538 220.843 166.699 220.908 164.662 220.933C162.626 220.959 160.787 220.933 159.451 220.933L157.874 220.888H157.445H157.294H157.874H159.456C160.787 220.888 162.626 220.888 164.662 220.888C166.699 220.888 168.538 220.802 169.869 220.757L171.446 220.707H171.875L172.026 220.656Z" fill="#263238"/>
<path d="M160.333 221.044C160.262 220.783 160.161 220.531 160.031 220.293C159.873 220.074 159.69 219.875 159.486 219.698C159.76 219.795 159.987 219.991 160.121 220.248C160.286 220.479 160.361 220.762 160.333 221.044Z" fill="#263238"/>
<path d="M162.878 219.709C162.853 219.709 162.732 219.578 162.601 219.381C162.508 219.268 162.443 219.135 162.409 218.993C162.434 218.993 162.56 219.124 162.686 219.326C162.812 219.527 162.903 219.694 162.878 219.709Z" fill="#263238"/>
<path d="M163.578 219.331C163.578 219.331 163.417 219.261 163.266 219.13C163.115 218.999 163.009 218.873 163.029 218.853C163.049 218.832 163.185 218.918 163.336 219.054C163.487 219.19 163.593 219.311 163.578 219.331Z" fill="#263238"/>
<path d="M164.011 218.504C163.867 218.561 163.711 218.584 163.557 218.569C163.405 218.587 163.25 218.573 163.104 218.529C163.247 218.471 163.403 218.449 163.557 218.463C163.709 218.446 163.864 218.46 164.011 218.504Z" fill="#263238"/>
<path d="M164.157 217.925C164.009 218.027 163.833 218.081 163.653 218.081C163.483 218.111 163.307 218.088 163.149 218.016C163.316 217.987 163.485 217.973 163.653 217.975C163.82 217.945 163.988 217.928 164.157 217.925Z" fill="#263238"/>
<path d="M162.575 218.958C162.39 218.989 162.201 218.989 162.015 218.958C161.814 218.933 161.615 218.891 161.421 218.832C161.302 218.8 161.186 218.755 161.078 218.696C161.011 218.658 160.961 218.597 160.937 218.525C160.929 218.483 160.932 218.441 160.948 218.401C160.963 218.362 160.989 218.328 161.023 218.303C161.233 218.194 161.475 218.162 161.706 218.214C161.938 218.265 162.144 218.397 162.288 218.585C162.376 218.693 162.439 218.818 162.474 218.953C162.485 219.003 162.485 219.054 162.474 219.104C162.413 218.933 162.325 218.773 162.212 218.63C162.083 218.488 161.917 218.383 161.733 218.328C161.624 218.293 161.509 218.28 161.395 218.29C161.281 218.299 161.17 218.331 161.068 218.383C160.977 218.449 161.018 218.555 161.113 218.61C161.215 218.664 161.321 218.708 161.431 218.741C161.618 218.804 161.81 218.852 162.005 218.882C162.363 218.943 162.575 218.943 162.575 218.958Z" fill="#263238"/>
<path d="M162.429 218.988C162.361 218.871 162.337 218.734 162.358 218.6C162.376 218.454 162.427 218.314 162.509 218.192C162.555 218.108 162.621 218.038 162.701 217.987C162.781 217.936 162.873 217.906 162.968 217.899C163.025 217.91 163.076 217.944 163.109 217.992C163.142 218.04 163.155 218.099 163.145 218.156C163.132 218.246 163.101 218.332 163.054 218.408C162.982 218.532 162.894 218.646 162.792 218.746C162.708 218.85 162.599 218.93 162.474 218.978C162.474 218.978 162.585 218.877 162.736 218.696C162.827 218.593 162.905 218.479 162.968 218.358C163.044 218.242 163.094 218.03 162.968 218.005C162.842 217.98 162.686 218.136 162.6 218.247C162.524 218.356 162.473 218.48 162.449 218.61C162.432 218.735 162.425 218.862 162.429 218.988Z" fill="#263238"/>
<path d="M171.818 218.282C171.818 218.282 171.566 218.282 171.178 218.312C170.668 218.376 170.185 218.582 169.787 218.908C169.388 219.233 169.089 219.664 168.925 220.152C168.799 220.53 168.789 220.777 168.769 220.777C168.761 220.719 168.761 220.659 168.769 220.601C168.785 220.442 168.815 220.285 168.86 220.132C169.009 219.619 169.309 219.164 169.722 218.825C170.135 218.487 170.641 218.282 171.173 218.237C171.332 218.221 171.493 218.221 171.652 218.237C171.709 218.244 171.765 218.26 171.818 218.282Z" fill="#263238"/>
<path d="M170.855 214.704C170.959 215.889 170.99 217.079 170.946 218.267C170.848 217.082 170.818 215.893 170.855 214.704Z" fill="#263238"/>
<path d="M167.656 219.996C166.826 220.163 165.972 220.182 165.136 220.051C165.136 220.021 165.705 220.051 166.406 220.051C167.106 220.051 167.651 219.965 167.656 219.996Z" fill="#263238"/>
<path d="M169.344 219.971C169.344 219.971 169.299 220.092 169.243 220.223C169.188 220.354 169.158 220.47 169.127 220.465C169.097 220.46 169.082 220.329 169.127 220.178C169.173 220.026 169.344 219.951 169.344 219.971Z" fill="#263238"/>
<path d="M169.984 219.164C170.009 219.164 169.954 219.275 169.863 219.366C169.772 219.456 169.687 219.517 169.667 219.497C169.646 219.477 169.697 219.386 169.787 219.295C169.878 219.204 169.964 219.144 169.984 219.164Z" fill="#263238"/>
<path d="M170.896 218.787C170.896 218.818 170.775 218.818 170.649 218.863C170.523 218.908 170.432 218.979 170.407 218.959C170.382 218.939 170.458 218.823 170.614 218.767C170.77 218.712 170.906 218.762 170.896 218.787Z" fill="#263238"/>
<path d="M171.551 218.605C171.551 218.635 171.511 218.68 171.441 218.706C171.37 218.731 171.299 218.741 171.289 218.706C171.279 218.67 171.33 218.635 171.4 218.605C171.471 218.575 171.536 218.58 171.551 218.605Z" fill="#263238"/>
<path d="M207.502 216.423L206.085 212.008L197.805 214.603L199.821 221.08L200.325 220.954C202.653 220.364 212.108 217.794 213.494 216.851C215.036 215.803 207.502 216.423 207.502 216.423Z" fill="#798296"/>
<path d="M202.785 220.077C202.446 219.415 201.873 218.903 201.178 218.641C200.494 218.374 199.735 218.374 199.051 218.641L199.777 220.954L202.785 220.077Z" fill="#798296"/>
<path d="M211.22 216.242C211.22 216.242 213.912 216.181 213.74 216.685C213.569 217.189 204.099 220.142 199.81 221.08L199.77 220.893L210.832 217.537C210.832 217.537 210.747 216.413 211.22 216.242Z" fill="#798296"/>
<path d="M200 221.385L200.151 221.355L200.564 221.249L202.076 220.846C203.362 220.493 205.136 219.984 207.076 219.379C209.017 218.774 210.765 218.184 212.025 217.746L213.512 217.212L213.915 217.06C213.963 217.046 214.009 217.026 214.052 217L213.905 217.04L213.497 217.171L211.985 217.675C210.72 218.099 208.961 218.683 207.031 219.278C205.1 219.873 203.321 220.402 202.041 220.79L200.529 221.229L200.121 221.35C200.08 221.358 200.039 221.37 200 221.385Z" fill="#263238"/>
<path d="M210.859 217.668C210.85 217.398 210.87 217.128 210.919 216.862C211.001 216.604 211.113 216.357 211.252 216.126C211.021 216.299 210.865 216.553 210.813 216.837C210.73 217.111 210.746 217.405 210.859 217.668Z" fill="#263238"/>
<path d="M208.026 217.189C208.056 217.189 208.126 217.017 208.192 216.791C208.257 216.564 208.278 216.372 208.247 216.362C208.166 216.484 208.111 216.621 208.086 216.765C208.035 216.9 208.014 217.045 208.026 217.189Z" fill="#263238"/>
<path d="M207.244 217.047C207.269 217.047 207.375 216.931 207.476 216.76C207.577 216.589 207.642 216.432 207.617 216.417C207.592 216.402 207.491 216.533 207.385 216.704C207.279 216.876 207.219 217.032 207.244 217.047Z" fill="#263238"/>
<path d="M206.579 216.397C206.733 216.402 206.886 216.374 207.028 216.317C207.178 216.285 207.321 216.224 207.446 216.135C207.292 216.124 207.138 216.152 206.998 216.216C206.756 216.286 206.569 216.367 206.579 216.397Z" fill="#263238"/>
<path d="M206.263 215.888C206.426 215.941 206.603 215.941 206.767 215.888C206.945 215.864 207.112 215.786 207.246 215.666C207.074 215.691 206.905 215.731 206.742 215.787C206.579 215.807 206.419 215.841 206.263 215.888Z" fill="#263238"/>
<path d="M208.082 216.377C208.269 216.357 208.451 216.3 208.616 216.211C208.801 216.126 208.978 216.025 209.146 215.909C209.248 215.84 209.343 215.761 209.428 215.672C209.478 215.615 209.507 215.541 209.508 215.465C209.504 215.423 209.487 215.383 209.46 215.35C209.433 215.317 209.398 215.292 209.357 215.279C209.123 215.239 208.882 215.284 208.677 215.405C208.473 215.525 208.317 215.715 208.238 215.939C208.191 216.071 208.171 216.212 208.178 216.352C208.176 216.403 208.186 216.453 208.208 216.498C208.21 216.317 208.244 216.138 208.309 215.969C208.385 215.791 208.511 215.639 208.672 215.531C208.765 215.463 208.87 215.415 208.981 215.388C209.093 215.361 209.209 215.356 209.322 215.374C209.423 215.415 209.423 215.521 209.347 215.606C209.268 215.69 209.18 215.764 209.085 215.828C208.925 215.946 208.757 216.052 208.581 216.146C208.284 216.302 208.077 216.362 208.082 216.377Z" fill="#263238"/>
<path d="M208.227 216.362C208.258 216.231 208.24 216.093 208.177 215.974C208.118 215.839 208.026 215.721 207.91 215.631C207.843 215.569 207.762 215.524 207.675 215.501C207.587 215.477 207.494 215.475 207.406 215.495C207.38 215.509 207.358 215.527 207.34 215.55C207.322 215.572 207.308 215.598 207.3 215.626C207.292 215.654 207.29 215.683 207.293 215.711C207.297 215.74 207.306 215.767 207.32 215.792C207.357 215.874 207.412 215.947 207.481 216.004C207.589 216.098 207.708 216.179 207.834 216.246C207.946 216.318 208.074 216.36 208.207 216.367C208.207 216.367 208.071 216.307 207.869 216.181C207.754 216.109 207.646 216.026 207.547 215.934C207.441 215.843 207.325 215.656 207.451 215.591C207.526 215.577 207.603 215.58 207.676 215.6C207.749 215.62 207.817 215.657 207.874 215.707C207.981 215.786 208.068 215.888 208.132 216.004C208.178 216.119 208.21 216.239 208.227 216.362Z" fill="#263238"/>
<path d="M199.08 218.604C199.08 218.604 199.312 218.509 199.7 218.438C200.205 218.338 200.728 218.383 201.208 218.569C201.688 218.755 202.105 219.073 202.412 219.486C202.648 219.804 202.734 220.041 202.754 220.031C202.746 219.973 202.729 219.917 202.704 219.864C202.641 219.717 202.564 219.577 202.472 219.446C202.171 219.005 201.744 218.666 201.246 218.473C200.749 218.279 200.205 218.241 199.685 218.362C199.529 218.4 199.377 218.453 199.231 218.519C199.177 218.539 199.126 218.568 199.08 218.604Z" fill="#263238"/>
<path d="M198.868 214.891C199.134 216.049 199.47 217.19 199.876 218.308C199.753 217.725 199.598 217.15 199.413 216.584C199.265 216.009 199.083 215.444 198.868 214.891Z" fill="#263238"/>
<path d="M203.575 218.943C204.001 218.909 204.421 218.823 204.825 218.686C205.237 218.577 205.633 218.416 206.004 218.207C206.004 218.182 205.46 218.384 204.795 218.585C204.13 218.787 203.57 218.913 203.575 218.943Z" fill="#263238"/>
<path d="M201.952 219.447C201.952 219.447 202.033 219.548 202.124 219.654C202.214 219.76 202.285 219.86 202.31 219.85C202.335 219.84 202.31 219.709 202.204 219.583C202.098 219.457 201.962 219.422 201.952 219.447Z" fill="#263238"/>
<path d="M201.096 218.877C201.096 218.902 201.161 218.973 201.277 219.033C201.393 219.094 201.494 219.119 201.504 219.094C201.514 219.068 201.438 218.998 201.328 218.937C201.217 218.877 201.096 218.852 201.096 218.877Z" fill="#263238"/>
<path d="M200.119 218.801C200.119 218.826 200.24 218.801 200.376 218.801C200.512 218.801 200.623 218.846 200.638 218.801C200.653 218.755 200.547 218.685 200.381 218.68C200.215 218.675 200.089 218.776 200.119 218.801Z" fill="#263238"/>
<path d="M199.442 218.832C199.442 218.863 199.503 218.888 199.578 218.893C199.654 218.898 199.72 218.893 199.72 218.852C199.72 218.812 199.664 218.797 199.584 218.792C199.503 218.787 199.442 218.802 199.442 218.832Z" fill="#263238"/>
<path d="M157.232 126.781L161.285 216.821L174.802 217.103L172.559 141.725L197.053 218L208.101 214.976L183.45 126.781" fill="#263238"/>
<path d="M196.475 217.491L197.105 218.701L208.813 215.289L208.102 213.323L196.475 217.491Z" fill="#455A64"/>
<path d="M206.751 212.874C206.822 212.874 206.927 213 206.988 213.197C207.048 213.393 207.038 213.58 206.988 213.6C206.938 213.62 206.817 213.474 206.756 213.272C206.696 213.071 206.68 212.894 206.751 212.874Z" fill="#455A64"/>
<path d="M205.874 209.952C205.945 209.952 206.101 210.239 206.222 210.643C206.343 211.046 206.383 211.394 206.313 211.414C206.242 211.434 206.091 211.126 205.97 210.718C205.849 210.31 205.804 209.972 205.874 209.952Z" fill="#455A64"/>
<path d="M204.996 207.028C205.067 207.028 205.223 207.316 205.344 207.719C205.465 208.122 205.505 208.47 205.435 208.49C205.364 208.51 205.213 208.198 205.092 207.794C204.971 207.391 204.926 207.048 204.996 207.028Z" fill="#455A64"/>
<path d="M204.12 204.12C204.191 204.12 204.347 204.407 204.468 204.811C204.589 205.214 204.629 205.562 204.559 205.582C204.488 205.602 204.337 205.289 204.216 204.886C204.095 204.483 204.05 204.12 204.12 204.12Z" fill="#455A64"/>
<path d="M203.242 201.182C203.313 201.182 203.469 201.469 203.59 201.872C203.711 202.275 203.751 202.623 203.681 202.643C203.61 202.663 203.459 202.351 203.338 201.948C203.217 201.545 203.177 201.202 203.242 201.182Z" fill="#455A64"/>
<path d="M202.365 198.258C202.436 198.233 202.592 198.546 202.713 198.949C202.834 199.352 202.874 199.695 202.804 199.72C202.733 199.745 202.582 199.428 202.461 199.024C202.34 198.621 202.3 198.278 202.365 198.258Z" fill="#455A64"/>
<path d="M201.489 195.33C201.56 195.33 201.716 195.622 201.837 196.026C201.958 196.429 201.998 196.772 201.928 196.797C201.857 196.822 201.706 196.504 201.585 196.101C201.464 195.698 201.424 195.355 201.489 195.33Z" fill="#455A64"/>
<path d="M200.591 192.407C200.661 192.407 200.817 192.7 200.938 193.103C201.059 193.506 201.1 193.849 201.029 193.869C200.959 193.889 200.807 193.582 200.686 193.178C200.565 192.775 200.545 192.432 200.591 192.407Z" fill="#455A64"/>
<path d="M199.735 189.504C199.806 189.504 199.962 189.796 200.083 190.199C200.204 190.603 200.244 190.945 200.174 190.966C200.103 190.986 199.952 190.678 199.831 190.275C199.71 189.872 199.67 189.504 199.735 189.504Z" fill="#455A64"/>
<path d="M198.858 186.561C198.929 186.561 199.085 186.853 199.206 187.256C199.327 187.659 199.367 188.002 199.297 188.022C199.226 188.042 199.075 187.735 198.954 187.332C198.833 186.928 198.793 186.581 198.858 186.561Z" fill="#455A64"/>
<path d="M197.986 183.638C198.051 183.638 198.208 183.93 198.329 184.333C198.45 184.736 198.49 185.079 198.424 185.099C198.359 185.119 198.198 184.812 198.077 184.409C197.956 184.006 197.915 183.658 197.986 183.638Z" fill="#455A64"/>
<path d="M197.109 180.715C197.175 180.715 197.331 181.002 197.452 181.41C197.573 181.819 197.613 182.156 197.548 182.176C197.482 182.197 197.321 181.889 197.2 181.486C197.079 181.083 197.064 180.735 197.109 180.715Z" fill="#455A64"/>
<path d="M196.232 177.791C196.298 177.791 196.454 178.078 196.575 178.481C196.696 178.885 196.736 179.232 196.67 179.253C196.605 179.273 196.444 178.965 196.323 178.557C196.202 178.149 196.161 177.811 196.232 177.791Z" fill="#455A64"/>
<path d="M195.356 174.888C195.422 174.888 195.578 175.175 195.699 175.578C195.82 175.981 195.86 176.329 195.795 176.349C195.729 176.369 195.568 176.057 195.447 175.654C195.326 175.251 195.285 174.888 195.356 174.888Z" fill="#455A64"/>
<path d="M194.479 171.944C194.545 171.944 194.701 172.232 194.822 172.635C194.943 173.038 194.983 173.386 194.918 173.406C194.852 173.426 194.691 173.114 194.57 172.71C194.449 172.307 194.408 171.964 194.479 171.944Z" fill="#455A64"/>
<path d="M193.601 169.021C193.671 169.021 193.823 169.309 193.944 169.712C194.064 170.115 194.11 170.463 194.039 170.483C193.969 170.503 193.813 170.191 193.692 169.788C193.571 169.384 193.535 169.042 193.601 169.021Z" fill="#455A64"/>
<path d="M192.723 166.099C192.794 166.074 192.945 166.386 193.066 166.79C193.187 167.193 193.232 167.535 193.162 167.561C193.091 167.586 192.935 167.268 192.814 166.865C192.693 166.462 192.653 166.119 192.723 166.099Z" fill="#455A64"/>
<path d="M191.847 163.17C191.918 163.17 192.069 163.462 192.19 163.865C192.311 164.269 192.356 164.611 192.286 164.637C192.215 164.662 192.059 164.344 191.938 163.941C191.817 163.538 191.777 163.195 191.847 163.17Z" fill="#455A64"/>
<path d="M190.97 160.271C191.041 160.271 191.192 160.564 191.313 160.967C191.434 161.37 191.479 161.713 191.409 161.733C191.338 161.753 191.182 161.446 191.061 161.043C190.94 160.639 190.9 160.271 190.97 160.271Z" fill="#455A64"/>
<path d="M190.093 157.324C190.164 157.324 190.315 157.617 190.436 158.02C190.557 158.423 190.602 158.766 190.532 158.786C190.461 158.806 190.305 158.499 190.184 158.095C190.063 157.692 190.008 157.344 190.093 157.324Z" fill="#455A64"/>
<path d="M189.217 154.4C189.287 154.4 189.438 154.693 189.559 155.096C189.68 155.499 189.726 155.842 189.655 155.862C189.584 155.882 189.433 155.575 189.307 155.172C189.181 154.768 189.146 154.421 189.217 154.4Z" fill="#455A64"/>
<path d="M188.34 151.477C188.411 151.477 188.562 151.769 188.683 152.172C188.804 152.575 188.849 152.918 188.779 152.938C188.708 152.958 188.557 152.651 188.436 152.248C188.315 151.844 188.27 151.497 188.34 151.477Z" fill="#455A64"/>
<path d="M187.487 148.554C187.558 148.554 187.709 148.841 187.83 149.249C187.951 149.657 187.996 149.995 187.926 150.015C187.855 150.035 187.704 149.728 187.583 149.325C187.462 148.922 187.391 148.574 187.487 148.554Z" fill="#455A64"/>
<path d="M186.585 145.656C186.656 145.656 186.807 145.944 186.933 146.347C187.059 146.75 187.094 147.098 187.024 147.118C186.953 147.138 186.802 146.831 186.681 146.422C186.56 146.014 186.515 145.656 186.585 145.656Z" fill="#455A64"/>
<path d="M185.708 142.708C185.779 142.708 185.935 142.995 186.056 143.398C186.177 143.802 186.217 144.149 186.147 144.17C186.076 144.19 185.925 143.877 185.804 143.474C185.683 143.071 185.638 142.728 185.708 142.708Z" fill="#455A64"/>
<path d="M184.831 139.785C184.902 139.785 185.058 140.072 185.179 140.476C185.3 140.879 185.34 141.227 185.27 141.247C185.199 141.267 185.048 140.954 184.927 140.551C184.806 140.148 184.761 139.805 184.831 139.785Z" fill="#455A64"/>
<path d="M183.96 136.861C184.03 136.861 184.186 137.149 184.307 137.552C184.428 137.955 184.469 138.303 184.398 138.323C184.327 138.343 184.176 138.031 184.055 137.627C183.934 137.224 183.884 136.881 183.96 136.861Z" fill="#455A64"/>
<path d="M183.078 133.938C183.149 133.913 183.305 134.225 183.426 134.628C183.547 135.032 183.587 135.374 183.517 135.4C183.446 135.425 183.295 135.107 183.174 134.704C183.053 134.301 183.008 133.958 183.078 133.938Z" fill="#455A64"/>
<path d="M182.2 131.01C182.271 131.01 182.427 131.302 182.548 131.705C182.669 132.108 182.709 132.451 182.639 132.476C182.568 132.502 182.417 132.184 182.296 131.781C182.175 131.378 182.135 131.04 182.2 131.01Z" fill="#455A64"/>
<path d="M181.546 128.828C181.616 128.828 181.722 128.949 181.783 129.151C181.843 129.352 181.833 129.529 181.783 129.549C181.732 129.569 181.611 129.428 181.551 129.226C181.49 129.025 181.475 128.848 181.546 128.828Z" fill="#455A64"/>
<path d="M172.473 216.367C172.543 216.367 172.609 216.528 172.624 216.735C172.639 216.942 172.584 217.118 172.508 217.123C172.432 217.128 172.372 216.962 172.362 216.75C172.352 216.539 172.397 216.372 172.473 216.367Z" fill="#455A64"/>
<path d="M172.368 213.368C172.438 213.368 172.514 213.696 172.529 214.114C172.544 214.532 172.499 214.865 172.423 214.865C172.347 214.865 172.282 214.537 172.267 214.124C172.252 213.711 172.277 213.368 172.368 213.368Z" fill="#455A64"/>
<path d="M172.258 210.37C172.328 210.37 172.399 210.698 172.409 211.116C172.419 211.534 172.374 211.867 172.298 211.867C172.222 211.867 172.157 211.534 172.147 211.121C172.137 210.708 172.182 210.37 172.258 210.37Z" fill="#455A64"/>
<path d="M172.181 207.366C172.251 207.366 172.317 207.699 172.327 208.112C172.337 208.525 172.287 208.863 172.216 208.868C172.145 208.873 172.075 208.535 172.065 208.122C172.055 207.709 172.105 207.366 172.181 207.366Z" fill="#455A64"/>
<path d="M172.105 204.362C172.181 204.362 172.246 204.695 172.257 205.113C172.267 205.532 172.216 205.864 172.146 205.864C172.075 205.864 172.005 205.532 171.994 205.118C171.984 204.705 172.035 204.367 172.105 204.362Z" fill="#455A64"/>
<path d="M172.03 201.358C172.101 201.358 172.171 201.691 172.181 202.109C172.191 202.528 172.141 202.86 172.07 202.86C172 202.86 171.929 202.528 171.919 202.114C171.909 201.701 171.96 201.363 172.03 201.358Z" fill="#455A64"/>
<path d="M171.929 198.359C172.005 198.359 172.076 198.687 172.091 199.105C172.106 199.524 172.055 199.856 171.985 199.861C171.914 199.866 171.839 199.529 171.829 199.115C171.818 198.702 171.864 198.359 171.929 198.359Z" fill="#455A64"/>
<path d="M171.803 195.36C171.878 195.36 171.949 195.688 171.969 196.101C171.989 196.515 171.939 196.857 171.868 196.857C171.798 196.857 171.722 196.53 171.702 196.111C171.682 195.693 171.732 195.36 171.803 195.36Z" fill="#455A64"/>
<path d="M171.687 192.356C171.757 192.356 171.833 192.689 171.848 193.102C171.863 193.516 171.818 193.853 171.742 193.858C171.667 193.863 171.601 193.526 171.586 193.112C171.571 192.699 171.616 192.361 171.687 192.356Z" fill="#455A64"/>
<path d="M171.582 189.357C171.658 189.357 171.728 189.69 171.738 190.103C171.748 190.517 171.708 190.854 171.633 190.859C171.557 190.864 171.491 190.527 171.476 190.113C171.461 189.7 171.512 189.362 171.582 189.357Z" fill="#455A64"/>
<path d="M171.491 186.354C171.562 186.354 171.632 186.686 171.643 187.099C171.653 187.513 171.607 187.85 171.537 187.855C171.466 187.86 171.396 187.523 171.38 187.11C171.365 186.696 171.421 186.359 171.491 186.354Z" fill="#455A64"/>
<path d="M171.41 183.355C171.485 183.355 171.551 183.688 171.561 184.101C171.571 184.515 171.521 184.852 171.45 184.852C171.379 184.852 171.309 184.52 171.299 184.106C171.289 183.693 171.359 183.355 171.41 183.355Z" fill="#455A64"/>
<path d="M171.36 180.352C171.43 180.352 171.496 180.684 171.506 181.103C171.516 181.521 171.46 181.853 171.39 181.853C171.319 181.853 171.249 181.521 171.244 181.108C171.239 180.694 171.274 180.352 171.36 180.352Z" fill="#455A64"/>
<path d="M171.298 177.353C171.369 177.353 171.434 177.685 171.439 178.098C171.444 178.512 171.394 178.849 171.318 178.849C171.243 178.849 171.182 178.517 171.177 178.103C171.172 177.69 171.222 177.353 171.298 177.353Z" fill="#455A64"/>
<path d="M171.258 174.349C171.334 174.349 171.394 174.681 171.399 175.1C171.404 175.518 171.349 175.851 171.278 175.851C171.208 175.851 171.142 175.513 171.137 175.1C171.132 174.686 171.187 174.349 171.258 174.349Z" fill="#455A64"/>
<path d="M171.239 171.359C171.314 171.359 171.375 171.697 171.375 172.11C171.375 172.524 171.319 172.861 171.249 172.861C171.178 172.861 171.118 172.529 171.113 172.11C171.108 171.692 171.168 171.359 171.239 171.359Z" fill="#455A64"/>
<path d="M171.234 168.336C171.304 168.336 171.365 168.669 171.365 169.087C171.365 169.505 171.309 169.833 171.234 169.838C171.158 169.843 171.103 169.5 171.103 169.087C171.103 168.674 171.163 168.336 171.234 168.336Z" fill="#455A64"/>
<path d="M171.244 165.343C171.315 165.343 171.37 165.68 171.37 166.094C171.37 166.507 171.31 166.845 171.234 166.845C171.159 166.845 171.108 166.507 171.108 166.094C171.108 165.68 171.169 165.343 171.244 165.343Z" fill="#455A64"/>
<path d="M171.264 162.339C171.34 162.339 171.395 162.677 171.39 163.09C171.385 163.503 171.325 163.841 171.254 163.841C171.184 163.841 171.123 163.503 171.128 163.09C171.133 162.677 171.194 162.339 171.264 162.339Z" fill="#455A64"/>
<path d="M171.305 159.34C171.375 159.34 171.431 159.678 171.426 160.091C171.42 160.504 171.355 160.842 171.284 160.842C171.214 160.842 171.158 160.504 171.163 160.086C171.168 159.667 171.234 159.34 171.305 159.34Z" fill="#455A64"/>
<path d="M171.36 156.336C171.431 156.336 171.481 156.679 171.476 157.092C171.471 157.505 171.401 157.838 171.33 157.838C171.259 157.838 171.204 157.5 171.214 157.087C171.224 156.674 171.285 156.336 171.36 156.336Z" fill="#455A64"/>
<path d="M171.425 153.332C171.495 153.332 171.546 153.675 171.536 154.088C171.526 154.501 171.46 154.839 171.39 154.834C171.319 154.829 171.264 154.496 171.274 154.083C171.284 153.67 171.359 153.332 171.425 153.332Z" fill="#455A64"/>
<path d="M171.532 150.328C171.602 150.328 171.648 150.671 171.632 151.084C171.617 151.497 171.547 151.835 171.471 151.83C171.396 151.825 171.355 151.492 171.37 151.074C171.385 150.656 171.461 150.328 171.532 150.328Z" fill="#455A64"/>
<path d="M171.708 147.334C171.778 147.334 171.814 147.677 171.788 148.09C171.763 148.503 171.683 148.836 171.607 148.831C171.531 148.826 171.501 148.488 171.526 148.07C171.551 147.652 171.632 147.324 171.708 147.334Z" fill="#455A64"/>
<path d="M171.981 144.341C172.056 144.341 172.077 144.689 172.036 145.102C171.996 145.515 171.9 145.843 171.83 145.838C171.759 145.833 171.734 145.49 171.774 145.077C171.814 144.663 171.91 144.336 171.981 144.341Z" fill="#455A64"/>
<path d="M172.273 142.128C172.343 142.128 172.379 142.315 172.348 142.516C172.318 142.718 172.237 142.884 172.167 142.874C172.096 142.864 172.061 142.688 172.086 142.481C172.111 142.275 172.202 142.098 172.273 142.128Z" fill="#455A64"/>
<path d="M160.932 217.259L175.225 217.491L175.114 215.107L160.932 215.183V217.259Z" fill="#455A64"/>
<path d="M170.306 127.921C170.357 128.1 170.385 128.284 170.392 128.47C170.427 128.828 170.478 129.342 170.528 129.982C170.629 131.257 170.755 133.006 170.871 134.962C170.931 135.929 170.982 136.857 171.032 137.704C171.023 138.443 171.111 139.18 171.294 139.896C171.443 140.364 171.771 140.753 172.206 140.98C172.37 141.044 172.538 141.094 172.71 141.131C172.662 141.142 172.612 141.142 172.564 141.131C172.423 141.131 172.283 141.105 172.151 141.055C171.909 140.951 171.691 140.799 171.511 140.607C171.331 140.416 171.192 140.189 171.103 139.941C170.89 139.213 170.779 138.458 170.775 137.699C170.72 136.852 170.659 135.924 170.599 134.957C170.478 133.011 170.382 131.252 170.326 129.977C170.296 129.337 170.281 128.823 170.276 128.465C170.261 128.283 170.272 128.1 170.306 127.921Z" fill="#455A64"/>
<path d="M171.693 129.114C171.693 129.15 171.582 129.24 171.567 129.452C171.563 129.508 171.57 129.564 171.589 129.616C171.607 129.669 171.635 129.718 171.673 129.759C171.721 129.8 171.779 129.827 171.842 129.836C171.904 129.845 171.968 129.836 172.025 129.81C172.086 129.789 172.138 129.751 172.178 129.701C172.217 129.651 172.241 129.591 172.247 129.528C172.245 129.472 172.231 129.417 172.207 129.367C172.183 129.317 172.148 129.272 172.106 129.235C171.95 129.089 171.789 129.119 171.784 129.079C171.779 129.039 171.95 128.928 172.217 129.079C172.293 129.126 172.357 129.191 172.404 129.267C172.451 129.343 172.48 129.428 172.489 129.518C172.489 129.634 172.454 129.749 172.389 129.845C172.323 129.942 172.23 130.017 172.122 130.06C172.013 130.104 171.894 130.114 171.78 130.089C171.666 130.064 171.562 130.005 171.481 129.921C171.424 129.852 171.384 129.77 171.365 129.682C171.345 129.594 171.347 129.504 171.37 129.417C171.471 129.124 171.693 129.084 171.693 129.114Z" fill="#455A64"/>
<path d="M184.414 131.252C184.078 131.481 183.693 131.627 183.29 131.68C182.32 131.876 181.313 131.764 180.41 131.36C179.506 130.956 178.751 130.281 178.25 129.428C178.019 129.092 177.87 128.707 177.816 128.304C177.862 128.304 177.998 128.727 178.406 129.312C178.923 130.099 179.654 130.721 180.513 131.106C181.372 131.491 182.323 131.622 183.255 131.484C183.96 131.398 184.399 131.212 184.414 131.252Z" fill="#455A64"/>
<path d="M161.935 127.921C162.001 128.246 161.984 128.582 161.885 128.899C161.702 129.681 161.279 130.386 160.675 130.915C160.068 131.445 159.31 131.772 158.508 131.852C158.182 131.909 157.847 131.881 157.535 131.771C157.535 131.726 157.913 131.771 158.488 131.666C159.234 131.542 159.932 131.214 160.504 130.718C161.067 130.213 161.483 129.565 161.708 128.843C161.88 128.294 161.89 127.921 161.935 127.921Z" fill="#455A64"/>
<path d="M159.924 88.7748C159.924 88.7748 146.457 94.47 146.029 94.2532C145.6 94.0365 145.298 83.1904 145.298 83.1904H138.6C138.6 83.1904 137.33 99.2781 141.367 101.838C146.885 105.366 160.246 98.0282 160.246 98.0282L159.924 88.7748Z" fill="#FFBE9D"/>
<path d="M114.952 69.3451L113.571 75.3629L120.033 76.9001C120.033 76.9001 122.689 77.4898 125.33 81.2547C127.971 85.0195 128.994 86.6878 128.994 86.6878L133.469 64.5723L128.611 68.0398C127.647 68.717 126.578 69.2281 125.446 69.5518C124.06 69.955 122.21 70.4136 121.177 70.3632C119.082 70.1617 117.002 69.8216 114.952 69.3451Z" fill="#263238"/>
<path d="M187.453 95.0139L128.994 86.6878L133.47 64.5723L190.311 78.2811C190.923 78.4281 191.456 78.8014 191.804 79.326C192.152 79.8506 192.288 80.4875 192.186 81.1085L190.265 92.9424C190.155 93.5841 189.801 94.1583 189.276 94.5444C188.752 94.9306 188.099 95.0988 187.453 95.0139Z" fill="#407BFF"/>
<path d="M109.736 69.6281C109.695 69.6207 109.654 69.6234 109.614 69.6358C109.575 69.6482 109.54 69.67 109.511 69.6994C109.482 69.7287 109.461 69.7646 109.449 69.804C109.437 69.8435 109.435 69.8852 109.443 69.9255C109.688 71.2335 110.009 72.526 110.406 73.7962C110.542 74.144 113.778 74.4564 113.778 74.4564L114.67 70.5706L109.736 69.6281Z" fill="#407BFF"/>
<path d="M182.761 87.3982L183.653 83.8249L145.888 76.1641L145.117 79.7576L182.761 87.3982Z" fill="#263238"/>
<path d="M175.422 87.2778L167.075 86.6074C167.02 85.6347 167.075 81.8648 167.075 81.8648C167.075 81.8648 163.603 81.3255 163.547 77.8328C163.492 74.3401 164.107 66.392 164.107 66.392C166.079 65.5421 168.242 65.2342 170.373 65.5C172.504 65.7658 174.525 66.5957 176.228 67.904L176.732 68.3022L175.422 87.2778Z" fill="#FFBE9D"/>
<path d="M164.934 72.3745C165.024 72.2828 165.075 72.1601 165.078 72.0317C165.08 71.9032 165.034 71.7786 164.948 71.6833C164.861 71.588 164.742 71.5293 164.614 71.5192C164.486 71.509 164.359 71.5481 164.258 71.6286C164.209 71.6731 164.168 71.727 164.14 71.7871C164.111 71.8473 164.095 71.9125 164.091 71.9791C164.088 72.0456 164.098 72.1122 164.121 72.1749C164.143 72.2376 164.178 72.2951 164.223 72.3443C164.313 72.4423 164.439 72.5005 164.572 72.5062C164.705 72.5118 164.835 72.4645 164.934 72.3745Z" fill="#263238"/>
<path d="M164.092 71.5681C164.148 71.6286 164.49 71.3665 164.964 71.3665C165.438 71.3665 165.791 71.6085 165.846 71.548C165.901 71.4875 165.816 71.4119 165.665 71.296C165.46 71.1509 165.215 71.0734 164.964 71.0742C164.712 71.0768 164.468 71.1617 164.269 71.3161C164.117 71.4472 164.067 71.5681 164.092 71.5681Z" fill="#263238"/>
<path d="M169.602 72.0012C169.542 72.0344 169.49 72.0792 169.449 72.1331C169.407 72.1869 169.377 72.2487 169.36 72.3145C169.343 72.3803 169.339 72.449 169.349 72.5162C169.36 72.5835 169.383 72.648 169.419 72.7059C169.455 72.7638 169.502 72.8138 169.557 72.853C169.613 72.8922 169.676 72.9197 169.742 72.9339C169.809 72.9481 169.878 72.9487 169.944 72.9357C170.011 72.9226 170.075 72.8962 170.131 72.858C170.244 72.7881 170.325 72.6763 170.356 72.547C170.388 72.4176 170.366 72.2812 170.297 72.1675C170.263 72.1107 170.217 72.0614 170.163 72.0223C170.11 71.9831 170.049 71.9551 169.984 71.9396C169.919 71.9241 169.852 71.9216 169.787 71.9322C169.721 71.9428 169.658 71.9662 169.602 72.0012Z" fill="#263238"/>
<path d="M169.288 72.0058C169.339 72.0663 169.681 71.8042 170.16 71.7992C170.639 71.7942 170.987 72.0461 171.037 71.9857C171.087 71.9252 171.012 71.8496 170.861 71.7337C170.656 71.585 170.408 71.5072 170.155 71.5119C169.904 71.5152 169.66 71.5981 169.46 71.7488C169.313 71.8697 169.258 71.9806 169.288 72.0058Z" fill="#263238"/>
<path d="M167.368 75.9479C167.122 75.8516 166.861 75.7971 166.597 75.7866C166.471 75.7866 166.375 75.7463 166.365 75.6757C166.36 75.5508 166.39 75.4269 166.451 75.3179C166.577 75.0054 166.703 74.6828 166.834 74.3452C167.19 73.5244 167.464 72.6701 167.65 71.7949C167.211 72.5748 166.851 73.3972 166.577 74.2494C166.456 74.5871 166.335 74.9096 166.219 75.2574C166.143 75.4137 166.118 75.5902 166.148 75.7614C166.167 75.8085 166.196 75.8507 166.234 75.8848C166.272 75.9189 166.316 75.9439 166.365 75.958C166.434 75.9759 166.505 75.986 166.577 75.9882C166.841 76.0218 167.109 76.0082 167.368 75.9479Z" fill="#263238"/>
<path d="M168.921 76.4769C169.425 76.1796 167.55 77.2077 166.577 77.1573C166.742 77.4053 166.987 77.5901 167.271 77.6816C167.554 77.7731 167.86 77.766 168.14 77.6613C169.178 77.3035 168.921 76.4769 168.921 76.4769Z" fill="white"/>
<path d="M167.087 81.8145C168.693 81.8475 170.273 81.4 171.623 80.5293C171.623 80.5293 170.554 83.0493 167.087 82.7167V81.8145Z" fill="#EB996E"/>
<path d="M176.783 71.6897C176.859 71.6645 179.369 71.4982 178.955 74.4214C178.542 77.3446 175.72 75.9636 175.725 75.8779C175.73 75.7923 176.783 71.6897 176.783 71.6897Z" fill="#FFBE9D"/>
<path d="M176.768 74.9749C176.768 74.9749 176.814 75.0203 176.894 75.0707C176.951 75.1056 177.014 75.1289 177.08 75.1393C177.146 75.1496 177.213 75.1469 177.277 75.1312C177.484 75.0393 177.662 74.8934 177.792 74.7089C177.922 74.5244 178.001 74.3081 178.018 74.0829C178.06 73.8329 178.048 73.5768 177.983 73.3319C177.968 73.237 177.931 73.1471 177.874 73.0699C177.817 72.9927 177.742 72.9304 177.655 72.8884C177.599 72.865 177.536 72.8617 177.477 72.8791C177.418 72.8965 177.367 72.9336 177.333 72.9842C177.282 73.0598 177.292 73.1202 177.277 73.1253C177.262 73.1303 177.222 73.0698 177.277 72.9489C177.302 72.8781 177.353 72.8189 177.418 72.7826C177.508 72.7344 177.612 72.7218 177.711 72.7473C177.824 72.7867 177.926 72.8533 178.008 72.9411C178.089 73.0289 178.148 73.1354 178.18 73.2513C178.266 73.523 178.287 73.8116 178.24 74.093C178.217 74.3562 178.117 74.6069 177.952 74.8133C177.787 75.0196 177.565 75.1723 177.313 75.2521C177.231 75.2642 177.147 75.2572 177.069 75.2319C176.99 75.2065 176.918 75.1635 176.859 75.106C176.763 75.0506 176.758 74.98 176.768 74.9749Z" fill="#EB996E"/>
<path d="M164.142 66.3063C165.044 68.6902 168.502 69.6327 171.042 69.7739C169.868 68.7406 170.593 68.9574 169.868 68.2316C171.827 69.9268 174.332 70.859 176.924 70.8575C177.118 70.2687 177.193 69.647 177.143 69.0289C177.093 68.4109 176.919 67.8092 176.632 67.2595C176.346 66.7097 175.952 66.2229 175.474 65.8281C174.996 65.4332 174.443 65.1383 173.849 64.9606C173.068 64.7238 172.237 64.7036 171.44 64.5171C170.77 64.3609 170.125 64.0938 169.424 64.0131C167.378 63.7107 164.057 63.1563 164.112 66.3265" fill="#263238"/>
<path d="M175.392 69.5518C175.523 69.8894 176.253 73.8307 176.253 73.8307L177.14 70.0306L175.392 69.5518Z" fill="#263238"/>
<path d="M200.215 118.294C201.557 116.751 202.292 114.773 202.285 112.727C202.278 110.682 201.528 108.709 200.174 107.176L186.698 91.8945L183.089 101.975C183.336 102.136 193.582 113.123 193.582 113.123L184.777 124.1C184.109 124.932 183.662 125.92 183.478 126.971C183.295 128.023 183.381 129.104 183.729 130.113L186.083 135.874L192.529 132.986L192.025 132.235H187.191L186.904 131.075L200.215 118.294Z" fill="#FFBE9D"/>
<path d="M193.828 98.3556L185.315 89.7876C183.675 88.0734 181.658 86.7653 179.423 85.9673C178.239 85.5443 176.996 85.3063 175.739 85.2617C172.845 86.179 169.738 86.179 166.844 85.2617C164.407 85.5278 162.034 86.2096 159.828 87.2777L147.122 92.4336L151.199 103.673L158.019 101.38L158.422 111.964L157.071 127.774L183.455 128.016L183.113 113.672V103.3L186.923 107.004L193.828 98.3556Z" fill="#455A64"/>
</svg>
