<svg width="33" height="15" viewBox="0 0 33 15" fill="none" xmlns="http://www.w3.org/2000/svg">
<path d="M1 6.5C0.447715 6.5 0 6.94772 0 7.5C0 8.05228 0.447715 8.5 1 8.5V6.5ZM31.5 7.5L32.2071 8.20711C32.5977 7.81658 32.5977 7.18342 32.2071 6.79289L31.5 7.5ZM25.7071 0.292893C25.3166 -0.0976311 24.6835 -0.0976311 24.2929 0.292893C23.9024 0.683417 23.9024 1.31658 24.2929 1.70711L25.7071 0.292893ZM24.2929 13.2929C23.9024 13.6834 23.9024 14.3166 24.2929 14.7071C24.6835 15.0976 25.3166 15.0976 25.7071 14.7071L24.2929 13.2929ZM1 8.5H31.5V6.5H1V8.5ZM32.2071 6.79289L25.7071 0.292893L24.2929 1.70711L30.7929 8.20711L32.2071 6.79289ZM30.7929 6.79289L24.2929 13.2929L25.7071 14.7071L32.2071 8.20711L30.7929 6.79289Z" fill="#1877F2"/>
</svg>
