<svg width="20" height="20" viewBox="0 0 20 20" fill="none" xmlns="http://www.w3.org/2000/svg">
<path d="M19.8112 18.9119L14.6475 13.8308C15.9997 12.3616 16.8306 10.4187 16.8306 8.28068C16.8299 3.7071 13.0628 0 8.41545 0C3.7681 0 0.000976562 3.7071 0.000976562 8.28068C0.000976562 12.8543 3.7681 16.5614 8.41545 16.5614C10.4234 16.5614 12.2651 15.8668 13.7117 14.7122L18.8954 19.8134C19.148 20.0622 19.558 20.0622 19.8106 19.8134C20.0638 19.5646 20.0638 19.1607 19.8112 18.9119ZM8.41545 15.2873C4.48329 15.2873 1.29566 12.1504 1.29566 8.28068C1.29566 4.41101 4.48329 1.27403 8.41545 1.27403C12.3476 1.27403 15.5352 4.41101 15.5352 8.28068C15.5352 12.1504 12.3476 15.2873 8.41545 15.2873Z" fill="#343434" fill-opacity="0.5"/>
</svg>
