<svg width="19" height="19" viewBox="0 0 19 19" fill="none" xmlns="http://www.w3.org/2000/svg">
<path d="M18.8207 17.9663L13.9152 13.1392C15.1998 11.7435 15.9891 9.89775 15.9891 7.86665C15.9885 3.52174 12.4097 0 7.99472 0C3.57975 0 0.000976562 3.52174 0.000976562 7.86665C0.000976562 12.2116 3.57975 15.7333 7.99472 15.7333C9.9023 15.7333 11.6519 15.0735 13.0262 13.9766L17.9507 18.8227C18.1906 19.0591 18.5802 19.0591 18.8201 18.8227C19.0606 18.5864 19.0606 18.2027 18.8207 17.9663ZM7.99472 14.523C4.25917 14.523 1.23093 11.5428 1.23093 7.86665C1.23093 4.19046 4.25917 1.21033 7.99472 1.21033C11.7303 1.21033 14.7585 4.19046 14.7585 7.86665C14.7585 11.5428 11.7303 14.523 7.99472 14.523Z" fill="#343434" fill-opacity="0.5"/>
</svg>
