<svg width="21" height="19" viewBox="0 0 21 19" fill="none" xmlns="http://www.w3.org/2000/svg">
<path d="M12.9019 0.96875C12.9019 0.96875 11.9675 1.29688 10.5 1.29688C9.03246 1.29688 8.09813 0.96875 8.09813 0.96875C7.95049 0.968754 7.80391 0.993715 7.66459 1.04258L1.3125 3.26562L1.99459 6.875L3.99943 7.10141C4.24495 7.12919 4.47104 7.24829 4.63281 7.43506C4.79458 7.62183 4.88019 7.8626 4.87266 8.10957L4.59375 18.0312H16.4062L16.1273 8.10957C16.1198 7.8626 16.2054 7.62183 16.3672 7.43506C16.529 7.24829 16.755 7.12919 17.0006 7.10141L19.0054 6.875L19.6875 3.26562L13.3354 1.04258C13.1961 0.993715 13.0495 0.968754 12.9019 0.96875V0.96875Z" stroke="#407BFF" stroke-width="1.3125" stroke-linecap="round" stroke-linejoin="round"/>
</svg>
