<svg width="12" height="17" viewBox="0 0 12 17" fill="none" xmlns="http://www.w3.org/2000/svg">
<path d="M1.15625 0.1875C1.31372 0.1875 1.46474 0.250056 1.57609 0.361405C1.68744 0.472755 1.75 0.623778 1.75 0.78125V4.34375C1.74981 4.71226 1.86391 5.07176 2.0766 5.37271C2.28928 5.67365 2.59006 5.90123 2.9375 6.02406V0.78125C2.9375 0.623778 3.00006 0.472755 3.11141 0.361405C3.22276 0.250056 3.37378 0.1875 3.53125 0.1875C3.68872 0.1875 3.83974 0.250056 3.95109 0.361405C4.06244 0.472755 4.125 0.623778 4.125 0.78125V6.02406C4.47244 5.90123 4.77322 5.67365 4.9859 5.37271C5.19859 5.07176 5.31269 4.71226 5.3125 4.34375V0.78125C5.3125 0.623778 5.37506 0.472755 5.48641 0.361405C5.59775 0.250056 5.74878 0.1875 5.90625 0.1875C6.06372 0.1875 6.21475 0.250056 6.32609 0.361405C6.43744 0.472755 6.5 0.623778 6.5 0.78125V4.34375C6.50014 5.02814 6.26382 5.69156 5.83103 6.22172C5.39823 6.75189 4.79556 7.11625 4.125 7.25312V16.2188C4.125 16.3762 4.06244 16.5272 3.95109 16.6386C3.83974 16.7499 3.68872 16.8125 3.53125 16.8125C3.37378 16.8125 3.22276 16.7499 3.11141 16.6386C3.00006 16.5272 2.9375 16.3762 2.9375 16.2188V7.25312C2.26694 7.11625 1.66427 6.75189 1.23147 6.22172C0.798684 5.69156 0.56236 5.02814 0.5625 4.34375V0.78125C0.5625 0.623778 0.625056 0.472755 0.736406 0.361405C0.847755 0.250056 0.998778 0.1875 1.15625 0.1875ZM9.44381 1.94381C9.63262 1.75381 9.84519 1.60775 10.0625 1.51156V7.3125H8.875V3.15625C8.875 2.75606 9.08162 2.30481 9.44381 1.94381ZM10.0625 8.5V16.2188C10.0625 16.3762 10.1251 16.5272 10.2364 16.6386C10.3478 16.7499 10.4988 16.8125 10.6562 16.8125C10.8137 16.8125 10.9647 16.7499 11.0761 16.6386C11.1874 16.5272 11.25 16.3762 11.25 16.2188V0.78125C11.25 0.623778 11.1874 0.472755 11.0761 0.361405C10.9647 0.250056 10.8137 0.1875 10.6562 0.1875C9.86894 0.1875 9.13269 0.574625 8.60306 1.10306C8.07463 1.63269 7.6875 2.36894 7.6875 3.15625V7.90625C7.6875 8.06372 7.75006 8.21474 7.8614 8.32609C7.97275 8.43744 8.12378 8.5 8.28125 8.5H10.0625Z" fill="#407BFF"/>
</svg>
