<svg width="16" height="16" viewBox="0 0 16 16" fill="none" xmlns="http://www.w3.org/2000/svg">
<path d="M15.825 0.119998C15.9071 0.190061 15.9643 0.284797 15.9881 0.390056C16.0119 0.495315 16.001 0.605446 15.957 0.703998C14.427 4.134 11.214 8.874 8.86199 11.344C8.20275 12.035 7.3897 12.5606 6.48899 12.878C6.47099 13.105 6.42899 13.416 6.32899 13.746C6.12799 14.405 5.66199 15.225 4.62099 15.486C3.61282 15.7261 2.56801 15.7709 1.54299 15.618C1.35239 15.5879 1.16447 15.5427 0.980989 15.483C0.81124 15.4313 0.653026 15.3475 0.514989 15.236C0.42396 15.1586 0.353817 15.0596 0.310989 14.948C0.257907 14.8048 0.259331 14.6472 0.314989 14.505C0.409989 14.26 0.630989 14.125 0.775989 14.053C1.16999 13.856 1.40099 13.6 1.64299 13.227C1.73799 13.083 1.82699 12.93 1.92999 12.755L2.04699 12.557C2.19799 12.302 2.37299 12.017 2.59299 11.709C3.12099 10.97 3.79399 10.784 4.33899 10.813C4.46499 10.82 4.58199 10.838 4.68699 10.861C4.74899 10.689 4.82899 10.481 4.92499 10.253C5.18599 9.634 5.58299 8.834 6.11199 8.184C8.28799 5.514 12.292 1.978 15.229 0.0799982C15.3194 0.0216378 15.4262 -0.00599222 15.5336 0.0012142C15.641 0.00842063 15.7432 0.0500788 15.825 0.119998ZM4.70499 11.912C4.57229 11.8543 4.43045 11.8204 4.28599 11.812C4.03999 11.799 3.71299 11.862 3.40699 12.291C3.20999 12.566 3.05199 12.823 2.90699 13.068L2.80199 13.245C2.69599 13.426 2.58899 13.607 2.48199 13.773C2.27947 14.1011 2.02245 14.3923 1.72199 14.634C2.41199 14.746 3.45799 14.745 4.37899 14.514C4.93799 14.375 5.22199 13.945 5.37199 13.454C5.4444 13.2101 5.48671 12.9582 5.49799 12.704L4.70499 11.912ZM6.14499 11.938C6.26499 11.898 6.42199 11.838 6.60299 11.755C7.17905 11.4877 7.69976 11.1146 8.13799 10.655C10.038 8.659 12.55 5.085 14.19 2.024C11.6 3.951 8.62399 6.684 6.88799 8.816C6.44599 9.359 6.09299 10.059 5.84599 10.642C5.72499 10.93 5.63199 11.182 5.57099 11.362V11.363L6.14599 11.938H6.14499ZM1.17199 14.978L1.17899 14.973C1.17684 14.9746 1.17449 14.976 1.17199 14.977V14.978ZM4.75399 11.935L4.75599 11.936H4.75399V11.935Z" fill="#407BFF"/>
</svg>
