<svg width="33" height="15" viewBox="0 0 33 15" fill="none" xmlns="http://www.w3.org/2000/svg">
<path d="M1 6.75C0.585786 6.75 0.25 7.08579 0.25 7.5C0.25 7.91421 0.585786 8.25 1 8.25V6.75ZM31.5 7.5L32.0304 8.03033C32.3233 7.73744 32.3233 7.26256 32.0304 6.96967L31.5 7.5ZM25.5304 0.46967C25.2375 0.176777 24.7626 0.176777 24.4697 0.46967C24.1768 0.762563 24.1768 1.23744 24.4697 1.53033L25.5304 0.46967ZM24.4697 13.4697C24.1768 13.7626 24.1768 14.2374 24.4697 14.5303C24.7626 14.8232 25.2375 14.8232 25.5304 14.5303L24.4697 13.4697ZM1 8.25H31.5V6.75H1V8.25ZM32.0304 6.96967L25.5304 0.46967L24.4697 1.53033L30.9697 8.03033L32.0304 6.96967ZM30.9697 6.96967L24.4697 13.4697L25.5304 14.5303L32.0304 8.03033L30.9697 6.96967Z" fill="#407BFF"/>
</svg>
