<svg width="15" height="15" viewBox="0 0 15 15" fill="none" xmlns="http://www.w3.org/2000/svg">
<path d="M4.232 8.68394C4.46774 8.68394 4.69382 8.59029 4.86051 8.4236C5.0272 8.25691 5.12084 8.03083 5.12084 7.79509C5.12084 7.55936 5.0272 7.33328 4.86051 7.16659C4.69382 6.9999 4.46774 6.90625 4.232 6.90625C3.99626 6.90625 3.77018 6.9999 3.60349 7.16659C3.4368 7.33328 3.34316 7.55936 3.34316 7.79509C3.34316 8.03083 3.4368 8.25691 3.60349 8.4236C3.77018 8.59029 3.99626 8.68394 4.232 8.68394ZM5.12144 10.7644C5.12144 11.0002 5.02779 11.2263 4.8611 11.3929C4.69441 11.5596 4.46833 11.6533 4.23259 11.6533C3.99686 11.6533 3.77078 11.5596 3.60409 11.3929C3.4374 11.2263 3.34375 11.0002 3.34375 10.7644C3.34375 10.5287 3.4374 10.3026 3.60409 10.1359C3.77078 9.96924 3.99686 9.87559 4.23259 9.87559C4.46833 9.87559 4.69441 9.96924 4.8611 10.1359C5.02779 10.3026 5.12144 10.5287 5.12144 10.7644ZM7.5 8.68275C7.73558 8.68275 7.96151 8.58917 8.12809 8.42259C8.29467 8.25601 8.38825 8.03008 8.38825 7.7945C8.38825 7.55892 8.29467 7.33299 8.12809 7.16641C7.96151 6.99983 7.73558 6.90625 7.5 6.90625C7.26426 6.90625 7.03818 6.9999 6.87149 7.16659C6.7048 7.33328 6.61116 7.55936 6.61116 7.79509C6.61116 8.03083 6.7048 8.25691 6.87149 8.4236C7.03818 8.59029 7.26426 8.68394 7.5 8.68394V8.68275ZM8.38944 10.7633C8.38944 10.999 8.29579 11.2251 8.1291 11.3918C7.96241 11.5584 7.73633 11.6521 7.50059 11.6521C7.26486 11.6521 7.03878 11.5584 6.87209 11.3918C6.7054 11.2251 6.61175 10.999 6.61175 10.7633C6.61175 10.5275 6.7054 10.3014 6.87209 10.1347C7.03878 9.96805 7.26486 9.87441 7.50059 9.87441C7.73633 9.87441 7.96241 9.96805 8.1291 10.1347C8.29579 10.3014 8.38944 10.5275 8.38944 10.7633ZM10.7644 8.68275C11.0002 8.68275 11.2263 8.5891 11.3929 8.42241C11.5596 8.25572 11.6533 8.02964 11.6533 7.79391C11.6533 7.55817 11.5596 7.33209 11.3929 7.1654C11.2263 6.99871 11.0002 6.90506 10.7644 6.90506C10.5287 6.90506 10.3026 6.99871 10.1359 7.1654C9.96924 7.33209 9.87559 7.55817 9.87559 7.79391C9.87559 8.02964 9.96924 8.25572 10.1359 8.42241C10.3026 8.5891 10.5287 8.68275 10.7644 8.68275ZM14.625 3.34375C14.625 2.55639 14.3122 1.80128 13.7555 1.24453C13.1987 0.687778 12.4436 0.375 11.6562 0.375H3.34375C2.55639 0.375 1.80128 0.687778 1.24453 1.24453C0.687778 1.80128 0.375 2.55639 0.375 3.34375V11.6562C0.375 12.4436 0.687778 13.1987 1.24453 13.7555C1.80128 14.3122 2.55639 14.625 3.34375 14.625H11.6562C12.4436 14.625 13.1987 14.3122 13.7555 13.7555C14.3122 13.1987 14.625 12.4436 14.625 11.6562V3.34375ZM1.5625 5.125H13.4375V11.6562C13.4375 12.1287 13.2498 12.5817 12.9158 12.9158C12.5817 13.2498 12.1287 13.4375 11.6562 13.4375H3.34375C2.87133 13.4375 2.41827 13.2498 2.08422 12.9158C1.75017 12.5817 1.5625 12.1287 1.5625 11.6562V5.125ZM3.34375 1.5625H11.6562C12.1287 1.5625 12.5817 1.75017 12.9158 2.08422C13.2498 2.41827 13.4375 2.87133 13.4375 3.34375V3.9375H1.5625V3.34375C1.5625 2.87133 1.75017 2.41827 2.08422 2.08422C2.41827 1.75017 2.87133 1.5625 3.34375 1.5625Z" fill="#1877F2"/>
</svg>
