<?xml version="1.0" encoding="UTF-8"?>
<!DOCTYPE svg PUBLIC "-//W3C//DTD SVG 1.1//EN" "http://www.w3.org/Graphics/SVG/1.1/DTD/svg11.dtd">
<!-- Creator: CorelDRAW 2017 -->
<svg xmlns="http://www.w3.org/2000/svg" xml:space="preserve" width="4033px" height="552px" version="1.1" style="shape-rendering:geometricPrecision; text-rendering:geometricPrecision; image-rendering:optimizeQuality; fill-rule:evenodd; clip-rule:evenodd"
viewBox="0 0 4007.9 548.54"
 xmlns:xlink="http://www.w3.org/1999/xlink">
 <defs>
  <style type="text/css">
   <![CDATA[
    .fil1 {fill:#0293EC;fill-rule:nonzero}
    .fil0 {fill:#474451;fill-rule:nonzero}
   ]]>
  </style>
 </defs>
 <g id="Layer_x0020_1">
  <metadata id="CorelCorpID_0Corel-Layer"/>
  <polygon class="fil0" points="221.12,260.47 154.43,260.47 154.43,538.21 66.69,538.21 66.69,260.47 0,260.47 0,188.42 66.69,188.42 66.69,96.5 154.43,96.5 154.43,188.42 221.12,188.42 "/>
  <path id="1" class="fil0" d="M571.28 429.02c-7.72,35.7 -27.2,64.6 -58.59,86.57 -31.38,21.96 -68.91,32.95 -112.32,32.95 -35.96,0 -67.73,-7.85 -95.19,-23.54 -27.46,-15.69 -48.77,-37.66 -63.94,-65.9 -15.17,-28.25 -22.75,-60.67 -22.75,-97.55 0,-37 7.71,-69.3 23.14,-97.02 15.43,-27.72 36.74,-49.17 63.94,-64.34 27.2,-15.3 58.06,-22.88 92.58,-22.88 34,0 64.07,7.19 90.22,21.71 26.16,14.38 46.42,34.12 60.68,59.1 14.25,25.11 21.44,53.87 21.44,86.3 0,17.26 -1.31,31.78 -3.79,43.28l-262.04 0c1.04,26.55 10.33,47.86 27.72,64.08 17.52,16.21 40.27,24.32 67.99,24.32 21.06,0 39.1,-4.06 54.27,-12.43 15.17,-8.23 25.63,-19.87 31.25,-34.65l85.39 0zm-89.97 -100.42c-0.52,-24.45 -8.63,-43.81 -24.32,-57.93 -15.82,-14.25 -36.09,-21.31 -61.19,-21.31 -25.5,0 -46.56,7.19 -63.16,21.71 -16.61,14.38 -25.37,33.6 -26.42,57.53l175.09 0z"/>
  <path id="2" class="fil0" d="M583.29 362.34c0,-36.49 7.71,-68.78 23.15,-96.64 15.42,-27.98 37.26,-49.68 65.51,-65.25 28.24,-15.42 60.28,-23.14 96.37,-23.14 47.98,0 88,12.55 119.9,37.79 31.91,25.11 50.34,58.84 55.18,100.95l-89.7 0c-5.1,-20.01 -15.3,-35.18 -30.47,-45.77 -15.16,-10.59 -33.73,-15.95 -55.7,-15.95 -28.9,0 -52.04,9.8 -69.56,29.29 -17.53,19.61 -26.16,46.02 -26.16,79.5 0,32.43 8.37,58.45 25.37,78.19 17,19.62 40.28,29.43 69.57,29.43 23.01,0 42.23,-5.63 57.66,-16.87 15.43,-11.12 25.24,-25.76 29.29,-43.68l89.7 0c-5.1,41.45 -23.67,74.8 -55.83,100.3 -32.04,25.36 -71.53,38.05 -118.47,38.05 -36.61,0 -68.91,-7.72 -97.15,-23.15 -28.25,-15.43 -50.09,-37.26 -65.51,-65.51 -15.44,-28.24 -23.15,-60.8 -23.15,-97.54z"/>
  <path id="3" class="fil0" d="M980.26 0l87.74 0 0 229.09c10.46,-16.08 25.37,-28.77 44.85,-37.92 19.36,-9.28 40.28,-13.86 62.77,-13.86 41.45,0 73.48,12.68 96.24,38.18 22.62,25.37 33.99,60.8 33.99,106.31l0 216.41 -87.74 0 0 -196.14c0,-32.43 -7.06,-54.79 -21.18,-67.08 -14.25,-12.16 -30.2,-18.31 -48.12,-18.31 -20.92,0 -39.75,6.15 -56.49,18.31 -16.73,12.29 -25.1,33.08 -25.1,62.5l0 200.72 -86.96 0 0 -538.21z"/>
  <path id="4" class="fil1" d="M1713.94 188.42l0 349.79 -83.95 0 0 -49.43c-12.03,18.44 -29.16,32.95 -51.52,43.67 -22.36,10.73 -47.33,16.09 -74.92,16.09 -32.43,0 -61.2,-7.59 -86.3,-22.75 -25.24,-15.17 -44.59,-36.62 -58.45,-64.34 -13.73,-27.72 -20.66,-60.02 -20.66,-96.76 0,-37.01 7.32,-69.83 21.83,-98.33 14.52,-28.38 34.92,-50.34 61.07,-65.91 26.15,-15.42 56.22,-23.14 90.22,-23.14 26.55,0 50.48,4.84 71.79,14.65 21.31,9.67 38.31,23.27 50.86,40.92l6.81 -44.46 73.22 0zm-188.56 280.88c29.43,0 53.35,-10.07 71.92,-29.95 18.44,-19.87 27.72,-45.76 27.72,-77.8 0,-31.91 -9.02,-57.53 -26.93,-76.76 -18.05,-19.22 -41.98,-28.89 -71.92,-28.89 -29.81,0 -53.74,9.8 -71.79,29.29 -18.04,19.48 -27.07,45.24 -27.07,77.15 0,31.9 9.16,57.79 27.2,77.41 18.18,19.61 41.85,29.55 70.87,29.55z"/>
  <path id="5" class="fil1" d="M2125.03 0l0 538.21 -73.22 0 -6.15 -51c-11.37,18.96 -28.24,33.87 -50.47,44.85 -22.23,10.99 -47.34,16.48 -75.19,16.48 -32.82,0 -62.37,-7.72 -88.26,-23.15 -25.89,-15.43 -46.16,-37.26 -60.67,-65.51 -14.52,-28.24 -21.84,-60.8 -21.84,-97.54 0,-36.49 7.32,-68.78 21.84,-96.64 14.51,-27.98 34.78,-49.68 60.67,-65.25 25.89,-15.42 55.44,-23.14 88.26,-23.14 25.63,0 48.51,4.18 68.65,12.42 20.14,8.37 36.48,20.14 49.04,35.44l0 -225.17 87.34 0zm-188.55 469.3c29.42,0 53.35,-10.07 71.92,-29.95 18.43,-19.87 27.72,-45.76 27.72,-77.8 0,-31.91 -9.03,-57.53 -26.94,-76.76 -18.04,-19.22 -41.97,-28.89 -71.92,-28.89 -29.81,0 -53.74,9.8 -71.78,29.29 -18.05,19.48 -27.07,45.24 -27.07,77.15 0,31.9 9.15,57.79 27.2,77.41 18.17,19.61 41.84,29.55 70.87,29.55z"/>
  <path id="6" class="fil1" d="M2233.16 188.42l39.49 106.57c10.98,31.91 21.44,62.25 31.38,90.88 9.94,28.77 16.48,48.38 19.48,58.84 3.66,-10.46 11.38,-32.42 23.41,-65.9 12.03,-33.47 22.49,-61.46 31.38,-83.82l41.84 -106.57 90.75 0 -145.93 349.79 -86.95 0 -138.74 -349.79 93.89 0z"/>
  <path id="7" class="fil1" d="M2868.77 188.42l0 349.79 -83.95 0 0 -49.43c-12.03,18.44 -29.16,32.95 -51.52,43.67 -22.36,10.73 -47.34,16.09 -74.93,16.09 -32.42,0 -61.19,-7.59 -86.3,-22.75 -25.23,-15.17 -44.59,-36.62 -58.45,-64.34 -13.73,-27.72 -20.66,-60.02 -20.66,-96.76 0,-37.01 7.33,-69.83 21.84,-98.33 14.51,-28.38 34.91,-50.34 61.07,-65.91 26.15,-15.42 56.22,-23.14 90.22,-23.14 26.54,0 50.47,4.84 71.79,14.65 21.31,9.67 38.31,23.27 50.86,40.92l6.8 -44.46 73.23 0zm-188.56 280.88c29.42,0 53.35,-10.07 71.92,-29.95 18.44,-19.87 27.72,-45.76 27.72,-77.8 0,-31.91 -9.02,-57.53 -26.94,-76.76 -18.04,-19.22 -41.97,-28.89 -71.91,-28.89 -29.82,0 -53.75,9.8 -71.79,29.29 -18.05,19.48 -27.07,45.24 -27.07,77.15 0,31.9 9.15,57.79 27.2,77.41 18.18,19.61 41.84,29.55 70.87,29.55z"/>
  <path id="8" class="fil1" d="M3115.89 177.31c40.66,0 72.7,12.81 96.37,38.57 23.53,25.63 35.43,60.94 35.43,105.92l0 216.41 -88.13 0 0 -196.14c0,-57.01 -23.27,-85.39 -69.69,-85.39 -25.11,0 -44.46,7.19 -58.06,21.84 -13.73,14.51 -20.53,34.13 -20.53,58.97l0 200.72 -86.96 0 0 -349.79 72.84 0 6.54 42.11c10.98,-16.08 26.54,-28.9 46.68,-38.57 20.13,-9.81 41.97,-14.65 65.51,-14.65z"/>
  <path id="9" class="fil1" d="M3279.98 362.34c0,-36.49 7.71,-68.78 23.14,-96.64 15.43,-27.98 37.27,-49.68 65.51,-65.25 28.25,-15.42 60.28,-23.14 96.37,-23.14 47.99,0 88,12.55 119.91,37.79 31.9,25.11 50.34,58.84 55.18,100.95l-89.7 0c-5.1,-20.01 -15.3,-35.18 -30.47,-45.77 -15.17,-10.59 -33.73,-15.95 -55.7,-15.95 -28.9,0 -52.04,9.8 -69.57,29.29 -17.52,19.61 -26.15,46.02 -26.15,79.5 0,32.43 8.37,58.45 25.37,78.19 17,19.62 40.27,29.43 69.56,29.43 23.02,0 42.24,-5.63 57.67,-16.87 15.43,-11.12 25.23,-25.76 29.29,-43.68l89.7 0c-5.1,41.45 -23.67,74.8 -55.83,100.3 -32.04,25.36 -71.53,38.05 -118.47,38.05 -36.62,0 -68.91,-7.72 -97.16,-23.15 -28.24,-15.43 -50.08,-37.26 -65.51,-65.51 -15.43,-28.24 -23.14,-60.8 -23.14,-97.54z"/>
  <path id="10" class="fil1" d="M4007.9 429.02c-7.71,35.7 -27.2,64.6 -58.58,86.57 -31.38,21.96 -68.91,32.95 -112.32,32.95 -35.96,0 -67.74,-7.85 -95.19,-23.54 -27.46,-15.69 -48.78,-37.66 -63.95,-65.9 -15.16,-28.25 -22.75,-60.67 -22.75,-97.55 0,-37 7.72,-69.3 23.15,-97.02 15.43,-27.72 36.74,-49.17 63.94,-64.34 27.2,-15.3 58.05,-22.88 92.58,-22.88 33.99,0 64.07,7.19 90.22,21.71 26.15,14.38 46.42,34.12 60.67,59.1 14.26,25.11 21.45,53.87 21.45,86.3 0,17.26 -1.31,31.78 -3.8,43.28l-262.04 0c1.05,26.55 10.33,47.86 27.72,64.08 17.52,16.21 40.28,24.32 68,24.32 21.05,0 39.1,-4.06 54.26,-12.43 15.17,-8.23 25.63,-19.87 31.26,-34.65l85.38 0zm-89.96 -100.42c-0.52,-24.45 -8.63,-43.81 -24.32,-57.93 -15.82,-14.25 -36.09,-21.31 -61.2,-21.31 -25.5,0 -46.55,7.19 -63.16,21.71 -16.6,14.38 -25.36,33.6 -26.41,57.53l175.09 0z"/>
 </g>
</svg>
